<svg width="1872" height="1380" viewBox="0 0 1872 1380" fill="none" xmlns="http://www.w3.org/2000/svg">
<path d="M935.29 1379.9C625.053 1379.9 314.917 1379.9 4.67909 1380C0.915555 1380 0 1379.2 0 1375.4C0.101717 918.5 0.101717 461.5 0 4.59998C0 0.899976 0.813838 0 4.67909 0C625.46 0.1 1246.14 0.1 1866.92 0C1870.68 0 1871.6 0.799976 1871.6 4.59998C1871.5 461.5 1871.5 918.5 1871.6 1375.4C1871.6 1379.1 1870.78 1380 1866.92 1380C1556.38 1379.9 1245.83 1379.9 935.29 1379.9Z" fill="#FCFCFC"/>
<path d="M382.254 983.5C370.76 982.3 362.622 974.4 361.3 962.8C361.096 960.8 361.096 958.8 361.096 956.8C361.096 713.6 361.096 470.5 360.995 227.3C360.995 214.6 365.775 205.5 378.185 200.9C380.728 198.9 383.678 199.5 386.526 199.5C443.08 199.5 499.533 199.5 556.088 199.5C559.343 199.5 562.497 199.5 565.65 198.6C570.431 198.2 575.211 198.3 580.094 198.4C581.009 198.4 582.026 198.4 582.942 198.4C587.723 198.3 592.503 198.1 597.386 198.6C600.539 199.5 603.692 199.5 606.947 199.5C665.434 199.4 724.024 199.7 782.511 199.3C783.426 199.3 784.139 199.4 784.851 200C787.088 200.1 789.224 200.2 791.462 200.2C1033.96 200.2 1276.55 200.2 1519.05 200.2C1536.85 200.2 1546 209.2 1546 226.5C1546 470.4 1546 714.3 1546 958.1C1546 972.6 1538.17 982 1524.95 983.4C1524.13 983.7 1523.32 983.6 1522.4 983.7C1482.94 984.9 1443.57 984.6 1404.11 984.6C1324.87 984.6 1245.53 985.4 1166.29 984.4C1038.74 982.9 911.285 983.9 783.732 983.9C755.963 983.9 728.296 984.2 700.527 984.6C698.696 984.6 696.763 984.6 694.932 984.5C691.576 984.4 689.948 982.5 690.254 979.3C691.372 967.2 692.796 955.1 694.526 943.1C695.034 939.4 697.374 937.7 701.239 937.8C703.782 937.9 706.325 937.8 708.868 937.8C961.432 937.8 1214 937.8 1466.56 937.8C1469.31 937.8 1472.36 938.7 1474.7 936.2C1475.82 934 1475.51 931.6 1475.51 929.3C1475.51 704.7 1475.51 480.1 1475.51 255.5C1475.51 254 1475.51 252.5 1475.41 251C1475.31 248.8 1474.09 247.7 1471.85 247.6C1470.02 247.5 1468.09 247.5 1466.25 247.5C1118.18 247.5 770.102 247.5 422.025 247.5C412.565 247.5 412.565 247.5 412.565 256.8C412.565 480.7 412.565 704.7 412.565 928.6C412.565 931.1 412.362 933.6 413.074 936.1C414.396 938.2 416.532 937.9 418.465 937.9C425.382 937.9 432.298 937.8 439.215 938C444.911 938.1 446.437 939.9 444.708 945.1C441.046 956.5 437.384 967.9 433.824 979.4C432.705 983.1 430.264 984.7 426.297 984.7C411.65 984.7 396.901 985 382.254 983.5Z" fill="black"/>
<path d="M382.254 983.5C396.799 983.4 411.345 983.2 425.891 983.3C429.857 983.3 431.485 982.1 432.604 978.4C435.961 966.9 439.724 955.5 443.488 944.2C444.708 940.5 444.301 939.1 440.029 939.2C431.892 939.4 423.755 939.3 415.617 939.2C414.091 939.2 412.159 940 410.938 938.3C412.871 936.4 415.312 936.8 417.652 936.7C424.772 936.6 431.892 936.6 439.012 936.7C442.572 936.7 444.708 935.3 445.725 932C451.015 915.3 456.711 898.8 461.492 882C463.119 876.2 462.611 870.1 462.916 864.2C463.526 850.4 464.543 836.7 465.459 822.9C466.476 808 466.272 793 469.019 778.3C470.951 775.9 471.562 778.1 472.07 779.3C473.291 782.4 474.308 785.6 475.223 788.8C477.665 797.3 480.513 805.7 483.666 813.9C487.124 823 495.16 827.7 504.823 826.6C506.247 826.3 507.671 825.9 509.095 825.7C512.248 825 515.198 823.8 518.148 822.6C519.369 822 519.877 820.5 521.098 820C525.98 817.6 528.117 813.3 527.303 806.6C526.692 801.5 525.777 796.4 525.065 791.3C524.861 789.8 524.455 788.3 524.963 786.9C527.404 783.4 523.946 780.4 524.149 777.1C525.98 768.9 525.573 760.9 522.318 753.1C520.386 748.4 519.572 748.1 514.69 749.9C500.754 755.1 486.819 760.2 472.884 765.4C470.646 766.2 468.51 767.2 466.069 767.2C463.831 766.7 463.424 764.8 462.916 763.1C453.049 733.5 443.386 703.9 433.926 674.2C431.994 668.1 432.095 661.8 433.214 655.4C439.826 617.5 446.641 579.7 453.253 541.8C454.575 534.2 455.897 526.8 460.068 520C466.984 508.9 477.054 502.9 490.074 502.4C504.62 501.9 519.165 502.3 533.711 502.3C544.595 502.1 555.377 502.1 566.26 502.3C574.703 502.1 583.247 502.1 591.69 502.3C613.254 502.8 631.258 520.4 632.072 541.6C633.089 568.4 634.513 595.1 635.326 621.8C635.53 629.8 636.038 637.7 636.242 645.7C636.344 650.2 637.157 654.7 638.683 658.9C657.603 710.1 676.522 761.2 695.645 812.3C705.308 838.2 707.342 864.8 703.884 892C702.256 904.9 700.832 917.8 699.307 930.7C698.594 936.4 699.001 936.7 704.799 936.8C706.63 936.8 708.563 936.8 710.394 936.8C962.551 936.8 1214.81 936.8 1466.97 936.8C1470.42 936.8 1474.19 935.8 1477.24 938.4C1475.41 940.1 1473.07 939.3 1470.93 939.3C1215.32 939.3 959.804 939.3 704.189 939.3C696.052 939.3 696.357 939.3 695.543 947.6C694.628 957.7 693.712 967.8 691.983 977.7C691.169 982.5 692.39 983.3 696.865 983.3C748.131 983.2 799.498 983.2 850.764 983.2C950.548 983.2 1050.33 983.2 1150.02 983.2C1261.6 983.2 1373.29 983.2 1484.87 983.2C1498.19 983.2 1511.62 983.4 1524.95 983.5C1516.4 984.9 1507.86 983.8 1499.31 984.1C1497.28 984.2 1495.24 984.2 1493.21 984.2C1492.19 985.3 1490.87 985.5 1489.55 985.6C1477.85 986.1 1466.25 985.6 1454.56 985.6C1368.61 985.5 1282.65 985.5 1196.7 985.6C1185.01 985.6 1173.41 986.2 1161.71 985.5C1160.7 985.3 1159.78 984.9 1158.97 984.3C1157.24 984.2 1155.61 984 1153.88 984C1029.89 984 905.894 984 781.901 984C780.172 984 778.544 984.2 776.815 984.2C776.103 984.8 775.289 985.2 774.374 985.3C770.203 985.7 765.931 985.5 761.761 985.5C760.54 985.6 759.32 985.5 758.099 985.5C738.773 985.7 719.548 985.5 700.222 985.6C693 985.6 692.797 986 691.881 993.1C691.271 998.5 690.762 1004 689.643 1009.4C688.83 1011.6 689.033 1014.1 687.609 1016.2C684.456 1042.1 681.303 1068 678.048 1094C676.42 1095.6 674.386 1095.5 672.351 1095.5C651.805 1095.7 631.156 1097.2 610.609 1096.5C607.964 1096.4 605.218 1096.7 602.675 1095.2C578.873 1095.5 555.072 1095.8 531.27 1096.2C527.201 1097 526.794 1095.1 528.218 1092.1C530.049 1088.2 532.49 1084.5 534.626 1080.8C542.967 1065.9 552.529 1051.7 558.733 1035.8C565.854 1017.8 569.515 999.1 567.176 979.6C566.769 976.5 565.65 973 568.091 970C570.329 967.9 569.108 965.2 568.803 962.9C565.752 937.2 562.599 911.5 559.344 885.8C556.496 863.1 553.851 840.3 550.799 817.6C550.698 816.6 552.02 813.9 548.765 814.6C532.795 833.1 516.114 851 499.636 869.1C497.296 871.7 495.16 874.5 492.719 877C491.295 878.5 490.583 880.4 490.481 882.4C490.481 883.2 490.379 884.1 490.481 884.9C491.091 926.1 488.752 967.3 489.464 1008.6C489.565 1013.3 488.243 1017.3 485.7 1021.3C471.053 1044.3 456.813 1067.5 442.369 1090.5C440.436 1093.6 439.012 1097.1 435.35 1098.9C427.009 1100 418.669 1099.3 410.226 1099.4C409.006 1099.4 407.785 1099.5 406.564 1099.4C402.699 1099.3 398.732 1100 394.867 1098.6C393.036 1097.3 393.85 1095.5 394.053 1093.9C397.715 1081.9 401.173 1069.8 405.547 1058C406.666 1054.1 407.582 1050.1 409.209 1046.4C412.26 1036.3 415.617 1026.2 418.669 1016.1C418.872 1015.1 419.381 1014.1 419.584 1013.1C422.127 1005.4 424.772 997.7 427.111 989.9C428.128 986.6 427.315 985.3 423.755 985.4C419.076 985.5 414.295 985.4 409.616 985.4C408.497 985.5 407.378 985.4 406.259 985.4C402.394 985.5 398.63 985.6 394.765 985.3C393.545 985.2 392.426 984.9 391.408 984C388.459 983.7 385.305 984.8 382.254 983.5Z" fill="#202B6D"/>
<path d="M435.961 1098.1C452.846 1071.2 469.629 1044.3 486.514 1017.5C487.836 1015.4 488.04 1013.2 488.04 1010.9C488.243 969.5 488.548 928 488.65 886.6C488.65 881.5 489.972 877.6 493.634 873.8C511.333 854.6 528.828 835.1 546.324 815.7C546.73 815.2 547.341 814.9 547.849 814.4C550.087 816.2 550.087 818.8 550.392 821.2C556.19 867 561.683 912.9 567.481 958.7C567.989 962.7 569.413 966.8 568.193 971C568.294 980.6 569.617 990.1 568.905 999.8C567.277 1021.2 559.648 1040.4 549.07 1058.8C542.458 1070.2 535.948 1081.6 529.235 1092.9C527.404 1095.9 528.625 1096.4 531.371 1096.5C527.201 1096.5 525.472 1099.3 523.742 1102.4C514.486 1119.1 505.23 1135.8 495.567 1152.2C493.431 1155.9 492.515 1160.6 488.345 1163.1C485.904 1164 484.073 1162.4 482.242 1161.4C461.593 1149.7 440.945 1137.8 420.194 1126.4C419.787 1126.2 419.381 1125.8 419.075 1125.4C418.974 1125.2 418.872 1125 418.974 1124.9C423.551 1115.5 428.637 1106.1 435.961 1098.1Z" fill="#FD9993"/>
<path d="M602.573 1095.6C613.864 1095.4 625.154 1095.3 636.445 1095.1C650.278 1094.9 664.112 1094.6 677.945 1094.3C677.844 1124.1 677.844 1153.8 677.437 1183.6C677.437 1187.8 678.861 1190.1 682.217 1192.5C700.933 1205.3 719.548 1218.3 737.958 1231.5C747.927 1238.7 751.69 1249.2 752.707 1260.9C752.911 1263.1 751.894 1263.9 749.758 1263.8C748.944 1263.7 748.029 1263.8 747.215 1263.8C697.475 1263.8 647.735 1263.7 597.894 1263.9C593.317 1263.9 592.198 1262.8 592.605 1258.4C594.741 1236.2 596.877 1214 598.301 1191.8C599.623 1170.6 599.928 1149.3 600.844 1128C601.352 1117.1 601.963 1106.3 602.573 1095.6Z" fill="#8F3600"/>
<path d="M419.177 1125.2C429.145 1129.1 437.791 1135.2 447.047 1140.3C460.779 1147.8 474.409 1155.5 488.039 1163.1C486.92 1169 482.852 1173.4 480.207 1178.6C478.885 1181.2 478.478 1182.6 481.428 1184.6C508.077 1202.7 523.132 1227.9 528.319 1259.1C528.929 1262.6 527.81 1263.2 524.555 1263.2C488.649 1263.1 452.743 1263.1 416.837 1263.2C414.193 1263.2 412.565 1262.5 410.836 1260.5C397.41 1243.8 383.881 1227.1 370.251 1210.7C367.81 1207.8 368.115 1205.9 369.946 1203C377.371 1191.5 384.492 1179.8 391.815 1168.3C391.917 1165.9 393.544 1164.2 394.663 1162.3C398.223 1156.1 402.292 1150.3 405.852 1144.1C406.971 1142.1 408.598 1140.4 409.717 1138.4C412.667 1133.8 414.498 1128.5 419.177 1125.2Z" fill="#8F3600"/>
<path d="M1490.36 984.4C1491.28 984.4 1492.19 984.4 1493.21 984.3C1493.11 986.3 1493.01 988.3 1493.01 990.3C1493.01 1065.5 1493.01 1140.8 1493.01 1216C1493.01 1222.9 1493.01 1222.9 1485.78 1222.9C1477.85 1222.9 1469.81 1222.7 1461.88 1223C1457.91 1223.1 1456.69 1222.1 1456.69 1218C1456.9 1196.4 1456.69 1174.7 1456.9 1153.1C1457 1148.5 1455.47 1147.7 1451.2 1147.7C1367.49 1147.8 1283.88 1147.8 1200.16 1147.7C1195.58 1147.7 1194.57 1149 1194.57 1153.3C1194.77 1174.8 1194.57 1196.2 1194.77 1217.7C1194.77 1221.9 1193.55 1223.1 1189.38 1223C1180.94 1222.7 1172.39 1222.7 1163.95 1223C1159.58 1223.2 1158.66 1221.6 1158.66 1217.6C1158.76 1139.9 1158.76 1062.1 1158.76 984.4C1159.47 984.4 1160.29 984.4 1161 984.4C1163.14 987 1162.53 990.1 1162.53 993C1162.53 1040.1 1162.53 1087.2 1162.53 1134.3C1162.53 1143.4 1162.53 1143.4 1171.68 1143.4C1274.31 1143.4 1376.95 1143.4 1479.48 1143.4C1488.43 1143.4 1488.53 1143.4 1488.53 1134.7C1488.53 1087.6 1488.53 1040.5 1488.53 993.4C1488.63 990.3 1487.92 987.1 1490.36 984.4Z" fill="#5C85B1"/>
<path d="M784.749 200C782.206 200.2 779.765 200.7 777.222 200.7C719.65 200.7 662.078 200.7 604.404 200.7C601.861 200.7 599.42 200.3 596.877 200C594.944 198 595.148 195.4 595.148 192.9C595.046 182.4 595.148 172 595.148 161.5C595.148 156.2 594.131 155.5 588.943 155.5C584.976 155.5 584.162 157.6 584.162 160.9C584.162 171.5 584.162 182.2 584.162 192.8C584.162 195.3 584.468 197.8 582.637 199.9C581.925 199.9 581.213 199.9 580.501 199.9C578.67 197.8 578.975 195.2 578.975 192.8C578.873 182.2 578.975 171.6 578.975 161C578.975 157.7 577.958 155.7 574.093 155.6C569.21 155.5 568.091 156.3 567.99 161.2C567.888 171.8 567.989 182.4 567.888 193C567.888 195.5 568.193 198 566.26 200.1C563.615 200.8 560.869 200.8 558.225 200.8C506.349 200.8 454.575 200.8 402.699 200.8C394.562 200.8 386.424 200.9 378.287 201C378.287 186.5 378.49 172 378.185 157.6C378.083 153.1 379.406 152.1 383.881 152.1C472.985 152.2 562.09 152.2 651.092 152.2C693.814 152.2 736.433 152.3 779.154 152.1C783.732 152.1 784.851 153.4 784.851 157.7C784.545 171.7 784.749 185.9 784.749 200Z" fill="#5E86B1"/>
<path d="M687.507 1016.5C687.405 1014.4 686.591 1012.2 688.117 1010.2C690.66 1012.1 693.508 1012.7 696.661 1012.7C714.564 1012.6 732.568 1012.7 750.47 1012.7C756.37 1012.7 756.776 1012.3 756.776 1006.4C756.878 1001.1 756.776 995.8 756.776 990.4C756.776 988.2 756.776 986 758.506 984.3C759.421 984.3 760.438 984.3 761.354 984.3C763.083 986 762.981 988.2 762.981 990.4C763.083 996 763.083 1001.7 762.981 1007.3C762.88 1010.9 764.1 1012.8 768.169 1012.7C772.034 1012.7 773.051 1010.8 773.051 1007.4C772.95 1001.8 772.95 996.1 773.051 990.5C773.051 988.4 772.848 986.1 774.476 984.4C775.188 984.4 775.899 984.4 776.611 984.3C776.611 1046.2 776.612 1108.1 776.51 1170.1C776.51 1173.6 776.51 1175.2 781.291 1174.5C794.005 1172.7 805.805 1182.6 807.737 1196C809.365 1207.3 800.414 1219.6 788.716 1222C775.391 1224.7 762.676 1217.1 759.319 1204.4C758.607 1201.7 758.404 1198.9 758.404 1196C758.404 1138.2 758.404 1080.5 758.404 1022.7C758.404 1016.4 758.404 1016.4 751.792 1016.4C730.432 1016.5 708.969 1016.5 687.507 1016.5Z" fill="#5B84B0"/>
<path d="M395.07 1163.3C393.951 1164.9 392.832 1166.5 391.815 1168.1C391.713 1165.9 391.611 1163.8 391.611 1161.6C391.611 1102.5 391.51 1043.4 391.51 984.3C392.425 984.3 393.442 984.3 394.358 984.2C396.291 986 395.985 988.5 396.087 990.8C396.189 996.5 396.189 1002.1 396.087 1007.8C396.087 1011.1 397.308 1012.7 400.868 1012.7C404.326 1012.6 405.14 1010.7 405.14 1007.8C405.14 1002.1 405.14 996.5 405.14 990.8C405.14 988.5 404.937 986.1 406.869 984.2C407.785 984.2 408.802 984.2 409.717 984.3C411.548 986.2 411.243 988.6 411.243 990.9C411.345 996.2 411.345 1001.5 411.243 1006.8C411.142 1010.6 412.26 1012.9 416.533 1012.7C418.058 1012.6 419.584 1013 420.703 1014.1C420.296 1014.9 419.991 1015.6 419.584 1016.4C419.177 1016.7 418.77 1017 418.364 1017.2C411.142 1019.1 411.04 1019.1 411.243 1026.4C411.345 1033.3 410.836 1040.1 410.429 1047C409.209 1050.7 407.887 1054.5 406.666 1058.2C404.53 1056.2 405.038 1053.6 404.937 1051.2C404.835 1041.9 404.937 1032.6 404.835 1023.2C404.835 1021.1 405.242 1018.7 402.089 1018C398.427 1017.1 396.189 1018.5 395.884 1022.3C395.68 1024.3 395.782 1026.3 395.782 1028.3C395.782 1043.6 395.68 1058.9 395.782 1074.2C395.782 1080.8 395.579 1087.4 395.07 1094C394.765 1095.4 394.46 1096.8 394.154 1098.2C395.985 1100.1 395.782 1102.5 395.782 1104.8C395.884 1121.7 395.782 1138.5 395.884 1155.4C396.189 1158.2 395.375 1160.7 395.07 1163.3Z" fill="#658BB5"/>
<path d="M906.199 1098.3C905.691 1097.9 904.877 1097.5 904.368 1096.9C899.588 1091.6 894.807 1086.2 890.128 1080.9C889.416 1080.1 887.992 1079.2 889.212 1078C890.535 1076.8 891.247 1078.5 891.959 1079.2C896.74 1084.5 901.52 1089.9 906.199 1095.2C906.81 1095.9 907.725 1096.6 907.217 1097.7C907.217 1098 906.708 1098.1 906.199 1098.3Z" fill="#658BB4"/>
<path d="M1076.98 988.3C1070.17 994.1 1063.45 999.9 1056.64 1005.7C1056.13 1005.1 1055.62 1004.6 1055.11 1004C1061.83 998.2 1068.64 992.4 1075.35 986.6C1075.86 987.2 1076.47 987.8 1076.98 988.3Z" fill="#648BB4"/>
<path d="M532.591 503.5C519.063 503.6 505.535 504 492.006 503.6C474.714 503.1 458.948 515.8 455.592 534.8C450.404 565.1 445.013 595.4 439.724 625.7C437.893 636 436.062 646.3 434.231 656.7C433.112 663.4 433.722 669.9 435.858 676.4C445.318 705.1 454.574 733.9 464.034 762.7C464.441 764.1 464.136 766.3 466.577 766.5C470.137 769.6 471.154 773.4 469.832 777.9C468.204 803.1 465.661 828.3 465.153 853.6C464.746 875.6 459.457 896.2 452.235 916.7C450.099 922.7 448.064 928.6 446.437 934.7C445.522 938 443.894 938.7 440.741 938.6C430.772 938.4 420.804 938.5 410.734 938.5C410.632 936.7 410.632 934.8 410.632 933C410.632 705.9 410.632 478.8 410.531 251.7C410.531 246.5 411.955 245.6 416.837 245.6C768.169 245.7 1119.5 245.7 1470.83 245.6C1475.82 245.6 1477.14 246.6 1477.14 251.7C1476.93 478.8 1477.04 705.9 1477.04 933C1477.04 934.8 1476.93 936.7 1476.83 938.5C1219.18 938.5 961.533 938.5 703.782 938.5C702.459 938.5 701.035 938.4 699.713 938.5C696.967 938.7 696.356 937.9 696.763 935.1C698.797 919.1 700.527 903 702.459 887C705.816 859.7 701.645 833.4 691.881 807.7C672.961 757.6 654.55 707.3 635.834 657.1C634.716 654.2 634.614 651.2 634.512 648.3C633.088 613 631.562 577.8 630.24 542.5C629.426 520.9 612.541 504.3 590.468 503.8C582.331 503.6 574.194 503.7 566.056 503.6C563.513 497 564.734 490.2 565.141 483.5C565.344 481.1 567.684 480.7 569.718 480.3C574.499 479.3 579.28 478.2 583.959 476.6C598.809 471.3 605.319 462.2 605.319 446.8C605.319 441.5 605.624 436.1 604.709 430.9C604.912 428.3 604.607 425.8 603.692 423.4C603.488 421.8 603.488 420.2 604.404 418.7C608.472 415.8 613.05 413.4 612.541 407.2C611.931 400.1 608.574 394.8 602.675 391.1C591.791 384.3 579.686 382.4 567.074 383.6C559.241 384.3 559.038 383.9 558.529 376.1C557.716 363.8 557.41 351.5 556.393 339.3C555.681 329.9 547.747 320.7 537.881 318.3C530.15 316.4 522.318 316.7 515.096 320.4C506.654 324.8 501.771 331.8 501.466 341.2C501.161 352.8 502.381 364.4 502.992 376.1C503.195 379.7 503.093 383.4 503.602 387.1C504.212 390.8 505.535 394.3 507.976 397.1C511.333 400.9 510.519 404 507.976 407.8C502.28 416.1 499.127 425.4 499.33 435.5C499.533 451 506.755 462.4 520.385 470.1C524.352 472.3 529.031 473.2 532.49 476.2C535.338 482.4 533.507 488.9 533.914 495.3C534.422 497.9 535.033 501.1 532.591 503.5Z" fill="#ECE9E9"/>
<path d="M582.637 200C582.637 186.4 582.738 172.7 582.637 159.1C582.637 155.5 583.349 154.2 587.316 154.2C596.979 154.4 596.979 154.2 596.979 163.6C596.979 175.7 596.979 187.9 596.979 200C592.096 200.4 587.316 200.5 582.637 200Z" fill="#FEFEFE"/>
<path d="M566.158 200C566.158 186.2 566.26 172.4 566.057 158.7C566.057 155.2 567.074 154.2 570.634 154.2C580.398 154.3 580.297 154.1 580.398 163.6C580.398 175.7 580.5 187.8 580.5 200C575.719 200.5 570.939 200.4 566.158 200Z" fill="#FDFEFE"/>
<path d="M1490.36 984.4C1490.36 1036.7 1490.36 1089 1490.56 1141.2C1490.56 1145.8 1488.12 1145.3 1485.17 1145.3C1401.36 1145.3 1317.44 1145.3 1233.63 1145.3C1211.25 1145.3 1188.87 1145.2 1166.6 1145.4C1161.92 1145.5 1161.1 1144.1 1161.1 1139.8C1161.2 1088 1161.2 1036.2 1161.1 984.5C1173.61 984.4 1186.13 984.3 1198.64 984.3C1293.84 984.3 1389.05 984.2 1484.26 984.2C1486.29 984.2 1488.33 984.3 1490.36 984.4Z" fill="#FEFEFE"/>
<path d="M605.828 429.4C607.863 437.4 607.659 445.7 606.642 453.7C605.116 465.7 597.284 473.3 585.993 477.4C581.111 479.2 576.025 480.8 570.838 481.3C566.464 481.7 566.057 483.6 566.159 487C566.362 492.5 566.26 498 566.159 503.5C554.97 503.5 543.781 503.5 532.49 503.5C532.185 494.3 533.406 485.1 531.778 476C533.304 472.7 536.356 470.7 538.695 468.1C549.375 455.7 553.139 440.9 554.766 425.3C556.699 407.7 568.091 396.4 582.23 387.2C584.264 385.9 586.299 386 588.536 386.9C592.605 388.5 595.86 391.2 598.505 394.4C604.303 401.5 605.828 409.8 604.913 418.7C604.913 420.4 604.913 422.1 604.913 423.9C601.149 427.2 601.149 427.2 605.828 429.4Z" fill="#FD9993"/>
<path d="M469.832 777.8C469.222 773.9 468.103 770.1 466.577 766.4C483.564 760 500.551 753.7 517.538 747.3C519.572 746.5 520.589 746.8 521.505 748.7C526.387 758 527.913 767.7 524.658 777.9C520.996 774.3 520.691 769.3 518.657 765C517.131 761.7 516.622 758 514.283 755C517.233 765.9 521.505 776.4 525.268 787C526.286 793.4 527.303 799.8 528.218 806.1C529.032 811.3 528.015 816 524.353 820C523.336 821.1 522.318 822.9 520.487 820.8C518.148 819.5 517.945 817 517.233 814.9C514.384 807.1 511.74 799.3 507.976 791.7C507.976 794.2 508.892 796.5 509.807 798.8C512.452 805.3 514.486 812 517.029 818.4C517.741 820.1 518.555 821.8 518.046 823.7C515.096 825 512.248 826.7 508.892 826.7C506.654 825.3 506.349 822.9 505.637 820.7C502.789 812.4 499.534 804.2 496.177 796C495.77 798.2 496.584 800.2 497.398 802.2C499.941 808.9 502.484 815.6 504.823 822.3C505.433 824 506.349 825.7 505.637 827.6C496.381 830.7 485.802 825.1 481.937 814.5C478.478 805.2 475.732 795.7 472.579 786.3C471.867 783.3 470.849 780.6 469.832 777.8Z" fill="#FD9993"/>
<path d="M758.505 984.3C758.505 993.1 758.506 1001.9 758.709 1010.7C758.811 1013.5 757.793 1014.4 754.945 1014.4C733.89 1014.3 712.834 1014.2 691.677 1014.5C687.914 1014.5 688.117 1012.7 688.016 1010.3C688.931 1002.7 689.745 995.2 690.66 987.6C690.864 985.5 691.372 984.1 694.322 984.1C715.683 984.3 737.145 984.3 758.505 984.3Z" fill="#FEFEFE"/>
<path d="M395.375 1094.1C393.442 1093 394.256 1091.1 394.256 1089.6C394.154 1066.8 394.358 1044.1 394.154 1021.3C394.154 1017.2 395.578 1016.3 399.342 1016.4C408.192 1016.7 406.971 1015.6 406.971 1023.8C406.971 1035.3 406.87 1046.7 406.768 1058.2C403.004 1070.2 399.24 1082.1 395.375 1094.1Z" fill="#FEFEFE"/>
<path d="M395.07 1163.3C394.765 1162.5 394.256 1161.8 394.256 1161C394.256 1140.1 394.46 1119.2 394.46 1098.3C398.528 1098.3 402.495 1098.3 406.564 1098.2C408.191 1099.8 408.191 1101.8 408.191 1103.8C408.191 1114.9 408.09 1126 408.293 1137.1C408.293 1139.5 407.174 1141.6 407.276 1143.9C403.207 1150.4 399.139 1156.9 395.07 1163.3Z" fill="#FDFDFD"/>
<path d="M568.091 971C565.344 962.7 565.446 954 564.225 945.5C561.784 927.6 559.648 909.7 557.41 891.8C555.173 874 553.139 856.3 550.901 838.5C549.884 830.4 548.765 822.4 547.748 814.4C548.154 813 546.832 810.6 549.375 810.4C551.715 810.2 551.613 812.4 551.816 814C557.004 856 562.089 898 567.277 940C568.396 948.9 569.515 957.8 570.633 966.7C571.04 968.8 571.854 971.2 568.091 971Z" fill="#FDFDFD"/>
<path d="M419.177 1125.2C416.228 1129.9 413.176 1134.7 410.226 1139.4C408.294 1138.1 408.294 1136 408.294 1134.1C408.294 1123.8 408.294 1113.6 408.294 1103.3C408.294 1101.4 408.396 1099.6 409.921 1098.3C418.669 1098.2 427.314 1098.2 436.062 1098.1C430.366 1107.2 424.771 1116.2 419.177 1125.2Z" fill="#FCFDFD"/>
<path d="M420.805 1014.2C409.718 1014.6 409.718 1014.6 409.718 1003.7C409.718 997.3 409.718 990.8 409.718 984.4C415.617 984.3 421.517 984.3 427.314 984.1C430.162 984 430.264 985.1 429.552 987.3C426.602 996.3 423.754 1005.2 420.805 1014.2Z" fill="#FEFEFE"/>
<path d="M492.108 658.3C494.041 649.5 495.974 640.9 497.906 632.4C500.347 621.5 502.687 610.7 505.026 599.8C505.331 598.2 505.332 596 507.671 596.4C510.112 596.8 509.095 598.9 508.79 600.5C504.823 618.7 500.958 636.9 496.889 655C496.279 657.6 496.584 659.8 497.398 662.2C501.161 672.5 504.823 682.8 508.485 693.2C509.095 694.8 510.621 697 508.078 697.9C505.535 698.8 505.433 696 504.925 694.4C501.06 683.8 497.194 673.2 493.329 662.6C492.922 661 492.515 659.6 492.108 658.3Z" fill="#FCFCFD"/>
<path d="M774.577 984.5C774.577 993 774.374 1001.4 774.577 1009.9C774.679 1013.3 773.763 1014.5 770.101 1014.4C761.252 1014.3 761.252 1014.5 761.252 1005.8C761.252 998.7 761.252 991.5 761.354 984.4C765.727 984.1 770.203 983.9 774.577 984.5Z" fill="#FDFDFE"/>
<path d="M406.87 984.3C406.87 993 406.768 1001.6 407.073 1010.3C407.175 1013.8 405.751 1014.5 402.598 1014.4C392.426 1014.1 394.358 1015.5 394.155 1006.3C394.053 999 394.257 991.7 394.257 984.3C398.529 984.3 402.699 984.3 406.87 984.3Z" fill="#FEFEFE"/>
<path d="M410.531 1047C408.7 1041.3 410.124 1035.5 409.717 1029.8C409.615 1028.8 409.717 1027.8 409.717 1026.8C409.717 1016.6 409.717 1016.6 419.787 1016.4C417.549 1026.9 413.277 1036.7 410.531 1047Z" fill="#FBFCFC"/>
<path d="M525.472 786.8C523.539 786.6 523.336 784.8 522.827 783.5C519.471 774.5 516.216 765.4 512.961 756.3C512.351 754.7 511.028 752.5 513.571 751.7C515.911 750.9 516.012 753.4 516.521 754.8C519.267 762.4 522.013 770.1 524.861 777.8C525.675 779.7 526.387 781.7 527.201 783.6C527.913 785.3 527.201 786.3 525.472 786.8Z" fill="#050303"/>
<path d="M505.84 827.4C502.076 817.3 498.313 807.2 494.651 797C494.142 795.5 493.023 793.5 495.057 792.7C497.295 791.8 497.702 794.1 498.211 795.6C501.873 805.9 505.535 816.2 509.197 826.5C508.18 827.2 507.061 827.6 505.84 827.4Z" fill="#060403"/>
<path d="M518.25 823.6C513.469 813.4 510.417 802.6 506.349 792.1C505.84 790.8 505.128 789 507.366 788.4C509.197 787.9 509.604 789.5 510.011 790.7C513.571 800.7 517.131 810.6 520.691 820.6C520.589 822.2 520.284 823.6 518.25 823.6Z" fill="#060303"/>
<path d="M409.92 1098.3C409.717 1112 409.208 1125.7 410.226 1139.4C409.208 1140.9 408.293 1142.4 407.276 1143.9C407.174 1130.6 407.174 1117.4 407.072 1104.2C407.072 1102.2 406.767 1100.3 406.665 1098.3C407.682 1098.3 408.801 1098.3 409.92 1098.3Z" fill="#5881AD"/>
<path d="M1459.03 1184C1459.03 1173.4 1459.13 1162.7 1458.93 1152.1C1458.93 1149 1459.74 1147.7 1463.2 1147.8C1470.83 1148 1478.46 1148 1485.99 1147.8C1489.14 1147.7 1490.46 1148.5 1490.46 1151.9C1490.36 1173.3 1490.36 1194.8 1490.46 1216.2C1490.46 1219.3 1489.75 1220.6 1486.29 1220.5C1478.66 1220.3 1471.03 1220.3 1463.51 1220.5C1459.85 1220.6 1458.93 1219.2 1459.03 1215.9C1459.13 1205.2 1459.03 1194.6 1459.03 1184Z" fill="#FEFEFE"/>
<path d="M1192.43 1184.5C1192.43 1195.1 1192.33 1205.8 1192.53 1216.4C1192.53 1219.3 1191.82 1220.5 1188.57 1220.4C1180.84 1220.2 1173 1220.2 1165.27 1220.4C1162.32 1220.5 1161.1 1219.8 1161.1 1216.5C1161.2 1194.9 1161.2 1173.3 1161.1 1151.7C1161.1 1148.7 1162.02 1147.6 1165.07 1147.7C1172.8 1147.9 1180.63 1147.9 1188.36 1147.7C1191.92 1147.6 1192.53 1149.1 1192.43 1152.1C1192.33 1162.9 1192.43 1173.7 1192.43 1184.5Z" fill="#FEFEFE"/>
<path d="M472.172 199.9C443.386 199.9 414.6 199.8 385.814 200C381.847 200 380.219 199.3 380.423 194.9C380.728 182.9 380.626 170.9 380.423 159C380.321 155.2 381.542 154.2 385.305 154.2C443.182 154.3 501.059 154.3 558.936 154.2C562.395 154.2 563.616 155.1 563.616 158.7C563.412 171 563.412 183.3 563.616 195.6C563.717 199.3 562.293 199.9 558.936 199.9C530.049 199.8 501.059 199.9 472.172 199.9Z" fill="#FEFEFE"/>
<path d="M690.863 199.9C662.077 199.9 633.291 199.8 604.505 200C600.538 200 599.318 199.1 599.42 195.1C599.725 183.1 599.623 171.1 599.42 159.2C599.318 155.6 600.233 154.3 604.2 154.3C661.976 154.4 719.649 154.4 777.425 154.3C781.29 154.3 782.307 155.4 782.206 159.1C782.002 171.1 782.002 183.1 782.206 195C782.307 198.8 781.29 200 777.222 200C748.436 199.8 719.649 199.9 690.863 199.9Z" fill="#FEFEFE"/>
<path d="M761.354 1186C761.354 1184.5 761.354 1183 761.354 1181.6C761.354 1128.5 761.455 1075.4 761.252 1022.3C761.252 1017.2 762.879 1016.1 767.558 1016.4C771.526 1016.7 774.781 1015.9 774.679 1022C774.374 1071.8 774.475 1121.5 774.577 1171.3C774.577 1174.5 773.763 1176.4 770.712 1177.9C767.05 1179.7 764.405 1182.8 761.354 1186Z" fill="#FEFEFE"/>
<path d="M783.426 1176.9C795.938 1176.9 805.499 1186.4 805.398 1198.8C805.296 1210.9 795.836 1220.2 783.528 1220.2C770.915 1220.2 761.354 1210.9 761.354 1198.6C761.354 1186.3 770.915 1176.9 783.426 1176.9Z" fill="#FEFEFE"/>
<path d="M807.432 645.7C749.758 622.9 714.971 581.6 707.749 520.8C698.391 442 750.47 372.1 829.708 356.4C918.1 338.9 996.524 398.1 1010.66 477.5C1015.14 502.4 1013.41 526.8 1005.58 550.9C1004.97 552.6 1004.25 554.3 1003.54 556C1001.2 557.1 999.27 555.8 997.338 554.9C987.573 550.2 977.401 548.1 966.517 548.2C949.124 548.4 931.73 548 914.438 549.1C912.302 548.5 910.166 549.2 908.03 549.3C902.944 548.7 897.655 550.2 892.671 548.1C891.043 546.3 891.247 544.1 891.247 542C891.145 531.1 891.348 520.1 891.145 509.2C891.043 504.7 892.366 501.5 896.943 500C898.876 499.4 900.503 498.2 902.029 496.8C907.521 492 907.725 485.4 902.639 480.2C901.317 478.9 899.791 477.8 898.57 476.4C897.045 474.4 897.248 472 897.35 469.7C897.655 463.4 896.638 457.1 895.926 450.8C894.095 435 878.43 423.6 862.257 426.7C855.544 428 851.17 426.7 847 421.6C840.897 414.2 832.454 410.5 822.994 410.6C807.432 410.7 798.074 427.9 805.092 442.6C806.516 445.6 808.652 448.2 810.178 451.2C810.585 452.9 811.805 453.4 813.433 453.8C814.552 454.1 815.874 454.4 815.467 456C813.941 457.3 812.009 457.1 810.178 457.1C803.872 457.2 799.6 460.4 797.565 466.1C795.429 471.8 795.633 477.4 800.108 482.4C802.448 485 806.109 486.1 808.042 489.1C808.958 492.1 809.262 495.3 809.873 498.4C811.907 509.3 818.519 516.6 828.894 520.5C834.794 522.7 840.897 523.7 847.203 524.4C852.696 525 853.51 525.7 853.51 531.3C853.408 536.7 854.425 542.2 852.696 547.6C851.984 548.6 850.967 548.8 849.848 548.8C847.712 548.3 845.881 549.5 843.745 549.4C836.828 549.1 829.809 549.4 822.893 549.3C808.957 552 804.584 558.6 805.499 572.6C806.618 589.8 808.144 607 808.957 624.3C809.263 630.3 810.28 636.2 809.873 642.2C809.568 643.5 810.788 646 807.432 645.7Z" fill="#202B6D"/>
<path d="M1132.82 623C1099.77 596.9 1080.24 563.2 1074.74 521.9C1064.37 443.7 1121.13 368.8 1200.47 355.7C1284.89 341.8 1363.32 395.5 1377.96 478.6C1386.41 526 1373.18 568.1 1341.35 604.6C1340.94 605.1 1340.33 605.5 1339.82 605.9C1337.89 605.5 1338.29 603.9 1338.4 602.7C1338.6 597.2 1338.29 591.8 1339.11 586.3C1341.75 567.9 1330.77 551 1311.44 543.5C1305.74 541.3 1299.84 540 1293.64 540.1C1283.88 540.2 1274.01 540.4 1264.24 540C1262.41 539.6 1260.48 539.4 1258.65 539.9C1254.99 540.1 1251.12 541.2 1247.97 538.1C1246.34 534.2 1247.05 529.9 1246.14 525.9C1246.85 525.1 1247.87 524.9 1248.88 525C1259.67 526.2 1270.55 524.7 1281.33 525.9C1283.98 526.2 1286.42 525.7 1288.15 523.5C1289.98 521 1288.86 518.7 1287.44 516.6C1277.57 501.6 1274.72 484.9 1274.31 467.5C1274.11 460.1 1272.89 452.9 1270.86 445.8C1266.58 430.6 1257.12 423 1241.26 421.3C1231.39 420.3 1221.42 419.8 1211.45 418.5C1199.65 417 1188.16 419.8 1177.99 426.2C1171.38 430.3 1167.92 436.1 1168.32 444.2C1168.73 450.9 1167.71 451.5 1160.8 451.1C1159.37 451 1157.54 449.9 1156.53 451.4C1155.61 452.9 1157.24 454.2 1158.05 455.4C1161.2 460.3 1163.95 465.5 1168.22 469.7C1170.36 471.8 1174.12 471.7 1175.44 474.8C1172.39 492.8 1180.94 506.4 1197.11 511.7C1201.28 513.1 1205.55 514.1 1209.93 514.7C1214.1 515.3 1216.44 517.4 1216.13 521.7C1215.72 527.2 1217.56 533 1214.81 538.4C1211.05 540.2 1206.77 538.9 1202.81 540.1C1199.04 540.5 1195.28 540.6 1191.62 539.6C1190.5 539.4 1189.38 539.4 1188.36 539.5C1184.9 540.5 1181.34 540.2 1177.78 540.3C1159.68 540.4 1144.52 553.5 1141.98 571.3C1139.84 586.6 1136.79 601.7 1135.57 617.1C1135.47 619.2 1134.96 621.5 1132.82 623Z" fill="#202B6D"/>
<path d="M605.014 418.7C604.302 414.4 603.692 410.2 602.777 406C601.963 401.9 600.335 398.1 597.589 394.8C590.571 386.5 585.688 386 577.042 392.4C563.514 402.5 556.089 415.5 554.97 432.5C553.749 450.1 546.12 464.9 531.88 476.1C514.69 470.8 502.178 460.9 498.72 442.7C496.177 429.1 500.144 416.7 507.875 405.4C509.705 402.7 510.214 401 507.569 398.3C504.213 394.9 502.585 390.4 502.28 385.6C501.466 371.3 500.551 357 500.144 342.7C499.737 328.9 510.011 317.6 523.641 315.9C541.136 313.8 554.359 321.6 557.513 336.2C558.53 341 558.53 346.1 558.733 351.1C559.242 360.2 559.852 369.4 559.954 378.5C560.055 382.3 560.767 383.1 564.734 382.4C577.958 380.1 590.672 382.3 602.37 388.8C609.083 392.5 613.355 397.9 613.864 405.9C614.474 413.7 612.745 416.2 605.014 418.7Z" fill="black"/>
<path d="M1248.27 538.3C1251.94 538.3 1255.6 538.4 1259.26 538.4C1261.29 540 1260.99 542.3 1260.99 544.4C1261.09 562 1260.99 579.7 1261.09 597.3C1261.09 601.6 1259.97 604.5 1255.19 605.7C1249.7 607.2 1247.16 611.2 1246.85 616.9C1245.83 633.8 1253.46 635.4 1268.72 633.5C1270.25 633.3 1271.57 632.4 1272.69 631.4C1279.6 625.4 1277.06 608.7 1268.41 605.9C1263.33 604.3 1262.01 601.4 1262.11 596.7C1262.21 579.4 1262.11 562.1 1262.21 544.8C1262.21 542.7 1261.9 540.4 1263.63 538.6C1277.47 538.6 1291.5 536.3 1304.93 539.9C1322.93 544.7 1336.56 555.1 1340.53 574.1C1342.46 583.6 1339.51 593.3 1339.82 602.9C1339.82 603.9 1339.92 604.8 1340.02 605.8C1312.66 635.1 1278.59 651 1238.41 654.4C1236.47 649.9 1237.8 645.2 1238.2 640.7C1239.73 621.9 1241.26 603 1242.98 584.2C1244.41 569.4 1244.61 554.4 1247.36 539.7C1247.46 539.2 1247.77 538.7 1248.27 538.3Z" fill="#6DB5DE"/>
<path d="M860.019 706.6C877.82 706.6 895.621 706.6 913.319 706.6C929.086 706.6 941.088 717.7 941.19 732.3C941.393 747.1 929.187 758.4 913.218 758.4C877.006 758.4 840.693 758.5 804.482 758.4C791.767 758.4 780.782 749.3 778.646 737.7C776.306 724.6 783.223 712.7 795.632 708.2C798.887 707 802.142 706.6 805.601 706.6C823.808 706.6 841.914 706.6 860.019 706.6Z" fill="#459257"/>
<path d="M1227.52 706.6C1245.32 706.6 1263.13 706.6 1280.93 706.6C1296.79 706.6 1308.49 717.6 1308.49 732.5C1308.49 747.4 1296.9 758.4 1281.03 758.4C1244.92 758.4 1208.91 758.4 1172.8 758.4C1157.44 758.4 1145.74 747.1 1145.74 732.5C1145.74 717.9 1157.44 706.6 1172.8 706.6C1190.91 706.6 1209.21 706.6 1227.52 706.6Z" fill="#459257"/>
<path d="M912.912 547.7C935.392 546.7 957.871 545.6 980.249 547.6C988.59 548.4 996.015 552.4 1003.44 555.9C998.863 570.2 991.234 582.9 982.182 594.7C966.009 615.9 945.462 631.6 920.846 642.3C920.439 642.5 919.829 642.5 919.422 642.6C918.609 642.2 918.1 641.5 917.998 640.7C916.879 632.4 914.845 624.2 915.659 615.7C916.167 615 916.879 614.6 917.591 614.2C926.441 609.5 929.492 599.1 924.406 590.5C922.575 587.4 919.727 585.8 916.269 585.1C913.726 584.6 911.692 583.5 911.692 580.7C911.387 570.4 911.285 560.1 911.794 549.9C911.794 549 912.2 548.3 912.912 547.7Z" fill="#6DB5DE"/>
<path d="M915.964 615.8C917.083 624.7 918.202 633.7 919.321 642.6C904.775 649.5 889.111 652.5 873.141 654.3C870.09 654.6 871.005 652.4 871.005 651C870.903 643.7 871.005 636.4 870.903 629.1C870.903 627.5 871.412 625.8 870.293 624.3C869.072 623.6 868.564 622.3 867.953 621.1C865.309 615.4 860.732 612.7 854.425 612.2C848.017 611.7 847.203 610.8 847.203 604.6C847.102 587.5 847.102 570.5 847.203 553.4C847.203 551.4 847 549.4 848.729 547.8C849.746 547.7 850.865 547.7 851.882 547.6C853.408 546.3 855.239 546.1 857.07 546.1C867.14 546 877.108 546 887.178 546.1C889.009 546.1 890.84 546.2 892.366 547.6C897.858 548.4 903.555 546.7 908.946 548.7C910.065 549.9 910.166 551.4 910.166 552.9C910.268 561.7 910.268 570.5 910.166 579.2C910.166 582.4 908.64 584.2 905.487 585.4C896.231 588.8 892.569 601.4 898.265 609.4C900.503 612.6 903.758 614.1 907.725 614.2C910.675 614.2 913.726 613.3 915.964 615.8Z" fill="black"/>
<path d="M1248.27 538.2C1244.92 576.9 1241.56 615.7 1238.2 654.4C1231.19 654.4 1224.17 654.3 1217.15 654.6C1213.79 654.7 1213.18 653.2 1213.59 650.6C1211.76 648.5 1212.27 645.9 1212.27 643.4C1212.16 629.8 1212.27 616.2 1212.27 602.6C1212.27 588.8 1208.91 585 1195.08 583C1194.26 582.9 1193.45 582.7 1192.63 582.2C1189.48 577.4 1190.4 572 1191.52 567.3C1193.65 558.4 1197.42 550 1200.37 541.3C1200.77 540.2 1201.79 539.4 1202.6 538.6C1206.47 536.9 1210.64 538.2 1214.61 537.7C1226 536.9 1237.19 536.2 1248.27 538.2Z" fill="black"/>
<path d="M1132.83 623C1134.45 612.4 1135.98 601.7 1137.61 591.1C1138.72 583.4 1139.74 575.6 1141.06 567.9C1143.71 553 1158.86 539.8 1174.33 538.6C1179 538.2 1183.79 538.2 1188.46 538C1189.99 539.4 1189.89 541.3 1189.89 543.1C1189.89 554.1 1189.99 565.1 1189.89 576.1C1189.89 581.8 1188.97 582.6 1183.17 583.2C1172.9 584.3 1167.82 589.8 1167.61 600C1167.51 610.5 1167.71 621 1167.51 631.5C1167.51 633.6 1167.82 635.9 1166.19 637.7C1166.39 641.4 1165.17 642.3 1161.51 640.5C1151.34 635.6 1141.78 629.8 1132.83 623Z" fill="#6DB5DE"/>
<path d="M1052.06 874C1159.78 874 1267.5 874 1375.22 874.1C1377.56 874.1 1381.93 872.4 1381.83 876C1381.73 879.5 1377.35 877.8 1375.01 877.8C1159.88 877.9 944.851 877.9 729.72 877.8C727.278 877.8 722.904 879.3 722.904 876.1C722.904 872.1 727.482 874.1 729.923 874.1C837.336 874 944.75 874 1052.06 874Z" fill="#0C0C0C"/>
<path d="M1209.42 653.4C1196.5 652.8 1184.29 649.1 1172.19 644.8C1169.95 644 1170.05 642.6 1170.05 641C1170.05 636.5 1169.95 632 1169.95 627.6C1169.65 627.1 1169.54 626.6 1169.65 626.1C1173.82 612.9 1179.51 600.2 1184.09 587.2C1184.5 586.1 1185.21 585.2 1186.43 584.7C1187.45 584.3 1188.36 584.3 1189.38 584.2C1204.43 582.8 1212.27 588.2 1211.55 604.4C1210.84 618.4 1211.45 632.5 1211.35 646.6C1211.25 649 1211.76 651.6 1209.42 653.4Z" fill="black"/>
<path d="M822.282 547.7C828.284 547.7 834.285 547.7 840.286 547.7C841.914 547.7 843.643 547.2 844.965 548.6C846.593 550.4 846.389 552.6 846.389 554.8C846.389 571.3 846.491 587.7 846.389 604.2C846.389 610.8 845.677 611.5 838.964 612.3C830.216 613.3 825.029 619 825.029 627.7C825.029 633.4 825.029 639 825.029 644.7C825.029 646.8 825.334 649.1 823.198 650.6C822.486 650.3 821.875 650 821.163 649.8C819.637 647.8 819.841 645.4 819.841 643.1C819.841 621.5 819.637 600 819.943 578.4C820.044 569.8 821.062 561.2 820.96 552.6C820.858 550.7 821.062 549 822.282 547.7Z" fill="black"/>
<path d="M822.283 547.7C821.876 581.7 821.469 615.6 821.062 649.6C816.281 649.1 811.806 647.3 807.33 645.7C809.466 641.1 808.042 636.4 807.737 631.8C806.618 612.7 805.194 593.7 803.872 574.7C803.668 571.6 802.956 568.4 803.363 565.3C804.787 555 810.789 549.5 822.283 547.7Z" fill="#6DB5DE"/>
<path d="M867.038 654.5C855.035 655.2 843.033 654.3 831.132 652.2C828.182 651.7 826.86 650.7 826.961 647.5C827.267 639.5 827.165 631.5 827.267 623.6C827.063 618.8 830.013 614.9 835.811 613.8C843.134 612.4 850.763 612.4 857.985 613.7C863.986 614.8 867.546 619.7 868.156 625.5C869.072 634.1 868.563 642.8 868.36 651.4C868.462 652.6 867.953 653.7 867.038 654.5Z" fill="black"/>
<path d="M1170.16 626.6C1170.05 626.9 1169.95 627.3 1169.95 627.6C1167.82 632.5 1169.95 637.6 1168.73 642.8C1165.98 641.9 1168.02 638.8 1166.29 637.6C1166.29 624.1 1165.98 610.7 1166.19 597.2C1166.29 588.4 1173.41 581.5 1182.77 581.8C1187.65 581.9 1188.46 580.2 1188.36 575.9C1188.16 563.3 1188.46 550.6 1188.46 538C1189.48 537.5 1190.4 537.4 1191.41 538C1193.24 540.3 1192.94 543 1193.04 545.6C1193.86 557.6 1191.01 569.4 1192.13 581.4C1194.16 581.5 1196.19 581.6 1198.13 581.7C1206.77 582.2 1213.69 588.7 1213.69 597C1213.79 614.9 1213.69 632.7 1213.59 650.6C1212.27 651.6 1213.08 655.9 1209.32 653.5C1210.33 634.5 1209.82 615.4 1209.62 596.4C1209.52 590.6 1204.23 586 1198.33 585.7C1194.16 585.5 1189.89 585.8 1185.72 585.9C1185.11 586.2 1185.92 585.9 1185.31 586.1C1171.68 591.2 1171.68 591.2 1171.68 605.9C1171.58 612.7 1172.09 619.8 1170.16 626.6Z" fill="#FCFDFD"/>
<path d="M1227.52 814.9C1253.06 814.9 1278.59 814.9 1304.22 814.9C1305.44 814.9 1306.56 814.9 1307.78 814.9C1309 815 1310.22 815.1 1310.32 816.7C1310.42 818.7 1308.8 818.6 1307.58 818.8C1306.56 818.9 1305.54 818.8 1304.52 818.8C1252.95 818.8 1201.28 818.8 1149.71 818.8C1149.2 818.8 1148.69 818.9 1148.18 818.8C1146.56 818.5 1143.81 819.5 1143.91 816.8C1144.01 814.2 1146.76 815 1148.39 815C1174.73 814.9 1201.18 814.9 1227.52 814.9Z" fill="#0D0D0D"/>
<path d="M859.511 818.8C833.98 818.8 808.347 818.8 782.816 818.8C781.29 818.8 779.765 818.8 778.239 818.7C777.323 818.6 776.611 818.2 776.51 817.2C776.408 816.1 776.916 815.2 778.137 815.1C779.459 815 780.883 814.9 782.206 814.9C833.878 814.9 885.551 814.9 937.223 814.9C938.24 814.9 939.257 814.9 940.274 814.9C941.698 814.9 943.224 815.3 943.021 817.1C942.919 818.5 941.597 818.8 940.274 818.8C938.952 818.8 937.528 818.8 936.206 818.8C910.675 818.8 885.144 818.8 859.511 818.8Z" fill="#0E0E0E"/>
<path d="M867.038 654.5C867.038 645.7 867.14 636.9 867.038 628.1C866.936 619.1 862.155 614.5 852.899 614.4C849.034 614.4 845.169 614.5 841.202 614.4C834.183 614.1 829.606 617.1 827.266 623.6C825.232 629.6 826.758 635.7 826.351 641.7C826.147 643.8 826.147 646 826.351 648.2C826.656 651.3 825.028 650.9 822.994 650.5C823.096 642.8 823.096 635.2 823.198 627.5C823.299 617.2 829.809 610.4 840.184 610.7C844.558 610.8 844.965 609.1 844.965 605.6C844.863 586.6 844.863 567.7 844.863 548.7C845.881 547.5 847.203 547 848.729 547.8C848.729 567.2 848.932 586.6 848.729 606.1C848.729 609.8 849.644 610.8 853.408 610.8C862.969 610.7 868.971 615.8 870.293 624.4C870.191 633.1 870.089 641.8 869.988 650.5C870.089 652.5 870.598 654.9 867.038 654.5Z" fill="#FBFBFB"/>
<path d="M859.511 798.8C848.525 798.8 837.54 798.8 826.555 798.8C824.826 798.8 822.181 799.7 822.079 797.1C821.977 794.5 824.622 795 826.351 795C848.627 795 871.005 795 893.281 795C895.01 795 897.655 794.4 897.553 797.1C897.349 799.7 894.705 798.8 893.077 798.8C881.787 798.8 870.598 798.8 859.511 798.8Z" fill="#0F0F0F"/>
<path d="M1226.61 798.8C1215.62 798.8 1204.64 798.8 1193.55 798.8C1191.92 798.8 1189.28 799.7 1189.38 796.8C1189.48 794.4 1191.82 795 1193.35 795C1215.73 795 1238 795 1260.38 795C1262.11 795 1264.65 794.4 1264.65 797.2C1264.55 799.6 1262.11 798.9 1260.58 798.9C1249.29 798.8 1238 798.8 1226.61 798.8Z" fill="#0F0F0F"/>
<path d="M1340.12 310.9C1332.7 310.9 1325.27 310.9 1317.75 310.9C1316.12 310.9 1313.47 311.8 1313.47 308.9C1313.58 306.6 1315.81 307 1317.44 307C1332.5 307 1347.55 307 1362.6 307C1364.23 307 1366.57 306.6 1366.57 308.9C1366.57 311.7 1364.03 310.9 1362.3 310.9C1354.98 310.9 1347.55 310.9 1340.12 310.9Z" fill="#040404"/>
<path d="M1185.82 310.9C1178.19 310.9 1170.56 310.9 1162.93 310.9C1161.41 310.9 1159.48 311.2 1159.37 309.2C1159.27 306.8 1161.31 307 1163.04 307C1178.29 307 1193.45 307 1208.71 307C1210.33 307 1212.57 306.7 1212.57 309.1C1212.57 311.6 1210.23 310.9 1208.6 310.9C1201.08 310.9 1193.45 310.9 1185.82 310.9Z" fill="#040404"/>
<path d="M1261.6 310.9C1253.97 310.9 1246.44 310.9 1238.81 310.9C1237.19 310.9 1235.05 311.4 1235.15 308.8C1235.25 306.7 1237.19 307 1238.71 307C1253.87 307 1269.13 307 1284.28 307C1285.91 307 1288.15 306.5 1288.15 308.9C1288.25 311.5 1285.91 310.9 1284.38 310.9C1276.86 310.9 1269.23 310.9 1261.6 310.9Z" fill="#050505"/>
<path d="M605.828 429.4C603.285 430.3 600.742 430.3 600.335 427.3C599.928 424.3 602.369 423.5 605.014 423.8C606.743 425.5 607.15 427.3 605.828 429.4Z" fill="#120D0D"/>
<path d="M1325.58 1128.2C1283.06 1128.2 1240.54 1128.1 1198.03 1128.3C1193.65 1128.3 1192.33 1127.4 1192.33 1122.8C1192.53 1078.7 1192.53 1034.5 1192.33 990.4C1192.33 985.8 1193.75 985 1198.03 985C1283.27 985.1 1368.5 985.1 1453.64 985C1457.81 985 1459.03 986 1459.03 990.2C1458.83 1034.5 1458.83 1078.8 1459.03 1123.1C1459.03 1127.4 1457.71 1128.3 1453.64 1128.3C1411.02 1128.2 1368.3 1128.2 1325.58 1128.2Z" fill="#5882AE"/>
<path d="M572.363 427.5C572.262 429.8 571.244 430.9 569.21 431C567.481 431 566.26 430.2 566.158 428.4C565.955 426.4 566.972 425.1 568.905 424.9C570.939 424.6 571.855 426 572.363 427.5Z" fill="#0D0807"/>
<path d="M892.468 547.6C878.939 547.6 865.513 547.6 851.984 547.6C851.984 541.6 851.781 535.6 851.984 529.7C852.086 526.7 851.272 525.7 848.119 525.6C840.795 525.4 833.675 524 826.962 521.2C812.416 515.2 807.432 503.4 807.33 488.8C808.347 487.5 809.771 488 811.094 487.9C816.587 487.8 821.469 486.2 824.826 481.7C827.267 478.4 829.403 479.2 831.641 481.9C835.201 486.2 839.88 488.1 845.474 487.7C853.001 487.1 858.189 482.5 860.122 474.6C861.444 469.2 858.087 461.8 853.001 458.7C846.797 454.9 839.778 455.3 834.082 459.7C833.675 460 833.268 460.3 832.963 460.7C828.182 465.2 827.979 465.3 823.503 460.8C821.062 458.4 817.4 458 815.264 455.2C814.145 454.3 812.721 454.5 811.501 454.6C808.856 454.8 809.059 453.2 809.364 451.5C811.297 449.7 813.738 450.1 816.078 450.3C829.301 451.5 842.626 451.9 855.951 452C874.769 452.1 887.89 461.5 898.774 475.4C904.267 477.8 907.929 481.6 908.03 487.8C908.03 494 904.368 498.4 898.876 500.2C893.281 502.1 892.264 505.2 892.468 510.4C892.671 523 892.468 535.3 892.468 547.6Z" fill="#FD9993"/>
<path d="M898.672 475.6C895.417 474.2 893.688 471.1 891.246 468.9C880.261 458.8 867.852 452.8 852.187 453.1C837.845 453.4 823.503 452.2 809.263 451.7C802.244 443.2 799.091 433.9 803.058 423C806.821 412.8 816.078 407.7 827.063 409.4C837.235 411 844.965 416.1 851.068 423.8C853.001 426.2 854.425 426.5 857.375 425.9C872.938 422.7 885.856 427.5 893.383 439C896.027 443 897.35 447.5 897.553 452.2C898.163 460 898.367 467.8 898.672 475.6Z" fill="black"/>
<path d="M815.264 455.4C821.062 456.3 824.927 459.7 828.08 464.9C831.946 458.8 837.133 455 844.457 455C849.237 455 853.408 456.8 856.765 460.1C863.986 467.2 863.274 478.9 855.442 485.3C847 492.2 836.319 490 828.182 479.6C823.503 487.6 816.383 490.4 807.432 488.9C795.327 482.9 791.564 473.7 797.26 463.5C800.108 458.5 804.279 455.6 810.28 455.7C811.907 455.6 813.535 455.5 815.264 455.4Z" fill="#010101"/>
<path d="M915.964 615.8C912.912 615.8 909.861 615.8 906.911 615.7C900.808 615.4 896.434 611.8 895.214 605.9C894.4 602 894.502 597.9 895.01 594C895.722 588.3 899.994 584.4 906.199 583.7C908.64 583.4 909.251 582.7 909.149 580.4C909.047 569.8 909.047 559.2 908.945 548.6C909.861 546.8 911.082 546.1 912.811 547.6C912.811 558.1 912.912 568.5 912.912 579C912.912 581.8 913.014 583.5 916.778 583.7C922.677 584.2 926.339 588.1 927.255 594.1C927.662 596.9 927.967 599.7 927.763 602.5C927.356 610.5 923.898 614.2 915.964 615.8Z" fill="#FCFCFC"/>
<path d="M1174.94 474.5C1168.93 473.1 1165.07 469.2 1162.12 464.1C1159.78 460.1 1157.24 456.1 1154.59 452.3C1152.56 449.5 1153.78 448.8 1156.52 448.9C1159.37 449 1162.22 449.5 1165.07 449.7C1166.49 449.8 1167.61 449.9 1167.21 447.6C1164.56 431.6 1174.02 424.8 1187.14 420.2C1197.42 416.6 1208.1 415.5 1218.98 418.2C1224.98 419.7 1231.39 419.1 1237.59 419.6C1259.46 421.2 1269.74 430.1 1273.81 451.4C1275.53 460.3 1276.04 469.2 1276.45 478.1C1277.16 492 1281.54 504.4 1288.86 516C1290.49 518.6 1291.61 520.9 1289.88 523.8C1288.15 526.6 1285.4 527.6 1282.55 527.3C1272.79 526.1 1262.92 527 1253.16 526.5C1251.02 526.4 1248.88 526.1 1246.65 525.8C1244.51 524.8 1244.82 522.7 1244.92 521C1245.43 512 1244.21 503.3 1240.95 494.7C1237.7 486 1237.39 476.6 1235.97 466.7C1230.88 473.5 1224.78 477.7 1215.83 477C1206.47 476.3 1202.5 469.6 1198.33 462.9C1195.89 464.1 1195.28 466.4 1194.06 468C1190.5 472.6 1186.02 475.5 1180.02 475.8C1178.19 476 1176.26 476.3 1174.94 474.5Z" fill="black"/>
<path d="M1174.94 474.5C1187.24 476.8 1192.84 468.6 1198.13 459.1C1202.4 467.2 1206.06 475.1 1216.33 476C1226.51 476.9 1231.59 470 1237.39 462.2C1238.61 472.4 1239.12 481.3 1241.05 490.1C1241.97 494.5 1242.88 498.9 1245.32 502.8C1246.95 505.3 1246.04 508 1246.24 510.6C1246.54 515.7 1245.73 520.9 1246.65 526C1250.1 529.8 1247.66 534.3 1248.17 538.4V538.3C1236.98 538.1 1225.79 538.9 1214.61 537.9C1214.61 532.1 1214.4 526.3 1214.71 520.5C1214.91 517.4 1213.59 516.5 1210.84 516.2C1204.13 515.4 1197.62 513.8 1191.52 510.9C1175.85 503.5 1172.49 490.6 1173.21 476.4C1173.51 475.2 1174.12 474.8 1174.94 474.5Z" fill="#FD9993"/>
<path d="M1263.53 538.6C1263.53 558.6 1263.63 578.5 1263.53 598.5C1263.53 601.5 1263.53 603.5 1267.7 604C1273.81 604.7 1277.57 609.7 1277.87 615.9C1277.87 616.1 1277.87 616.2 1277.87 616.4C1279.4 636.9 1269.23 636.3 1255.29 635.6C1252.85 635.5 1250.72 634.2 1248.99 632.6C1243.19 626.8 1244.71 619.5 1245.73 612.8C1246.54 607.5 1251.02 604.4 1256.62 603.9C1259.26 603.7 1259.56 602.5 1259.56 600.4C1259.46 579.8 1259.36 559.2 1259.36 538.6C1260.79 536.9 1262.21 537.6 1263.53 538.6Z" fill="#FDFDFE"/>
<path d="M1192.13 581.4C1190.6 577.3 1191.62 573 1191.52 568.8C1191.41 558.5 1191.41 548.3 1191.41 538C1195.18 538.2 1198.94 538.5 1202.7 538.7C1200.87 544.2 1199.25 549.8 1197.01 555.2C1193.55 563.6 1191.31 572.2 1192.13 581.4Z" fill="#70B5DC"/>
<path d="M528.625 429.2C528.625 439 528.524 448.3 528.727 457.6C528.727 460.4 527.506 460.2 525.675 459.5C525.065 459.3 524.455 459 523.844 458.7C514.486 455.2 510.112 450.3 510.417 443.9C510.722 437.4 515.808 432.7 525.065 430C525.879 429.7 526.896 429.6 528.625 429.2Z" fill="#FC9993"/>
<path d="M1170.16 626.6C1170.16 617.8 1170.05 609 1170.05 600.2C1170.05 589.6 1175.04 585.1 1185.72 585.8C1181.04 599.6 1175.85 613.2 1170.16 626.6Z" fill="#6CB5DE"/>
<path d="M1325.38 1126.1C1283.67 1126.1 1242.07 1126 1200.37 1126.2C1196.09 1126.2 1194.57 1125.4 1194.67 1120.8C1194.87 1078 1194.87 1035.2 1194.67 992.4C1194.67 988.3 1195.79 987.1 1199.96 987.1C1283.77 987.2 1367.69 987.2 1451.51 987.1C1456.29 987.1 1456.9 988.6 1456.9 992.7C1456.79 1035.3 1456.79 1078 1456.9 1120.6C1456.9 1124.9 1455.98 1126.2 1451.4 1126.2C1409.39 1126 1367.39 1126.1 1325.38 1126.1Z" fill="#FEFEFE"/>
<path d="M843.948 458.8C851.271 458.7 857.68 464.7 857.781 471.9C857.985 479 851.78 485.4 844.456 485.6C837.235 485.8 830.725 479.7 830.623 472.5C830.522 465.1 836.624 458.9 843.948 458.8Z" fill="#FC9993"/>
<path d="M808.245 459.7C813.84 458 819.231 459.5 822.689 463.8C826.148 468.1 826.555 473.9 823.808 478.7C821.062 483.5 815.467 486.2 810.178 485.3C809.161 485.1 808.245 484.8 807.228 484.5C805.092 481.1 805.397 477.6 806.72 474.1C807.94 472.3 811.398 474.4 811.704 472C812.111 469.3 807.635 471.1 807.228 468.5C806.72 465.5 806.109 462.4 808.245 459.7Z" fill="#FC9993"/>
<path d="M808.143 473.7C806.618 477.2 807.635 480.9 807.228 484.5C800.515 481.6 798.175 476.4 798.989 469.6C799.701 464.3 802.956 461 808.245 459.7C808.245 463 808.245 466.3 808.245 469.6C808.957 471 808.855 472.4 808.143 473.7Z" fill="#202B6C"/>
<path d="M915.863 611.6C915.15 611.7 914.54 611.9 913.828 611.9C900.299 612.3 896.535 608.2 898.773 594.9C899.485 590.5 902.232 587.8 907.013 587.6C909.149 587.5 911.387 587.7 913.624 587.8C916.778 591.9 915.761 596.9 916.371 601.5C916.676 604.8 918.304 608.3 915.863 611.6Z" fill="#010101"/>
<path d="M915.862 611.6C915.048 603.7 914.336 595.7 913.522 587.8C920.032 587.7 923.491 590.5 923.796 596.6C923.999 600.5 924.61 604.6 922.067 608.1C920.643 610.1 918.914 612 915.862 611.6Z" fill="#6EB6DE"/>
<path d="M1214.1 452C1202.91 452.3 1191.82 450.8 1180.63 450.6C1177.58 450.5 1176.26 450.3 1176.87 446.4C1179.82 426.6 1194.57 416 1214.71 419.5C1225.49 421.3 1235.66 432.6 1236.37 443.4C1236.88 452 1236.88 452 1228.34 452C1223.56 452 1218.78 452 1214.1 452Z" fill="#FD9993"/>
<path d="M1252.24 494.9C1252.24 485 1252.24 475.5 1252.24 466.1C1252.24 464 1252.95 463.5 1254.99 464.3C1256.21 464.8 1257.63 465 1258.85 465.4C1265.97 467.9 1270.75 473.2 1270.55 478.9C1270.25 486 1265.57 489.8 1259.46 492.4C1257.43 493.3 1255.29 493.9 1252.24 494.9Z" fill="#FC9993"/>
<path d="M1200.98 455.9C1213.18 455.9 1224.88 455.9 1237.7 455.9C1231.19 462.6 1228.44 472.5 1217.56 472.3C1207.28 472.1 1205.04 463.3 1200.98 455.9Z" fill="#FB9892"/>
<path d="M1176.26 454.1C1176.67 454.1 1177.07 454.1 1177.48 454C1179.31 454.6 1181.24 453.9 1183.07 454.4C1187.04 454.6 1191.11 454.9 1195.18 455.1C1191.92 467 1184.8 472.1 1174.33 470.3C1172.7 468.1 1172.6 465.9 1174.22 463.6C1174.53 463.4 1174.73 463.3 1175.04 463.2C1176.16 462.8 1178.09 463.4 1178.39 461.8C1178.8 459.9 1176.56 460 1175.44 459.1C1175.24 458.9 1174.94 458.7 1174.73 458.4C1174.02 456.6 1173.82 454.9 1176.26 454.1Z" fill="#FB9892"/>
<path d="M1176.26 454.1C1175.44 455.5 1175.24 457.1 1175.34 458.7C1175.85 460.4 1176.05 462.1 1175.14 463.8C1173.72 465.9 1174.43 468.2 1174.22 470.4C1167 467.9 1164.87 460.8 1160.8 455.6C1159.27 453.7 1161.51 453.6 1162.73 453.6C1167.21 453.7 1171.68 453.9 1176.26 454.1Z" fill="#202B6C"/>
<path d="M1182.97 454.5C1181.04 454.8 1179.21 454.8 1177.38 454.1C1179.31 453.7 1181.24 453.4 1182.97 454.5Z" fill="#202B6C"/>
<path d="M1262.01 631.8C1251.33 631.8 1249.29 630 1249.19 620.5C1249.19 609.9 1251.22 607.5 1260.28 607.5C1271.67 607.5 1273.81 609.4 1273.81 619.1C1273.91 629.8 1272.08 631.8 1262.01 631.8Z" fill="#6DB5DE"/>
<path d="M1326.19 1008.3C1312.66 1008.3 1299.13 1008.1 1285.6 1008.4C1280.21 1008.5 1281.13 1005.4 1281.03 1002.3C1281.03 999.1 1280.42 996.2 1285.6 996.2C1312.36 996.4 1339.01 996.4 1365.76 996.2C1369.72 996.2 1370.64 997.5 1370.44 1001.1C1370.13 1009.5 1371.25 1008.2 1363.11 1008.2C1350.81 1008.3 1338.5 1008.3 1326.19 1008.3Z" fill="#5F87B2"/>
<path d="M843.948 468.9C846.186 469 847.406 470.2 847.508 472C847.609 473.9 846.389 475.1 844.456 475.2C842.524 475.3 841.202 474.1 841.1 472.2C840.999 470.3 842.321 469.3 843.948 468.9Z" fill="#180E0E"/>
<path d="M808.144 473.7C807.432 472.3 807.533 471 808.245 469.7C810.076 468.5 811.907 468.1 813.433 470.1C814.247 471.3 814.349 472.5 813.331 473.7C811.602 475.5 809.873 475.2 808.144 473.7Z" fill="#0C0708"/>
<path d="M1211.55 465.7C1209.52 465.4 1208.4 464.3 1208.5 462.4C1208.5 460.6 1209.62 459.6 1211.35 459.6C1213.28 459.6 1214.71 460.5 1214.61 462.5C1214.61 464.3 1213.49 465.5 1211.55 465.7Z" fill="#080505"/>
<path d="M1175.04 463.7C1173.92 461.9 1174.12 460.3 1175.24 458.6C1177.07 458.4 1179.01 457.8 1180.02 460C1180.63 461.2 1180.63 462.5 1179.51 463.6C1178.09 465.1 1176.56 464.7 1175.04 463.7Z" fill="#080505"/>
<path d="M1326.39 998.9C1338.9 998.9 1351.42 998.9 1363.93 998.9C1366.57 998.9 1368.3 999.1 1368.3 1002.5C1368.3 1006 1366.57 1006.1 1363.93 1006.1C1338.6 1006 1313.17 1006.1 1287.84 1006.1C1285.4 1006.1 1283.67 1006 1283.67 1002.8C1283.67 999.6 1284.89 998.9 1287.84 998.9C1300.66 999 1313.48 998.9 1326.39 998.9Z" fill="#FCFDFD"/>
</svg>
