<svg width="248" height="170" viewBox="0 0 248 170" fill="none" xmlns="http://www.w3.org/2000/svg">
<path d="M123.933 169.988C82.8239 169.988 41.7287 169.988 0.619997 170C0.121301 170 0 169.901 0 169.433C0.0134783 113.149 0.0134783 56.8514 0 0.566667C0 0.11087 0.107823 0 0.619997 0C82.8778 0.0123188 165.122 0.0123188 247.38 0C247.879 0 248 0.0985515 248 0.566667C247.987 56.8514 247.987 113.149 248 169.433C248 169.889 247.892 170 247.38 170C206.231 169.988 165.082 169.988 123.933 169.988Z" fill="#FCFCFC"/>
<path d="M106.505 146.828C106.181 148.134 105.871 149.452 105.521 150.758C105.453 151.029 105.561 151.558 105.09 151.472C104.618 151.386 104.941 150.955 105.009 150.671C105.305 149.39 105.602 148.109 105.898 146.828C105.858 146.779 105.844 146.717 105.831 146.655C105.831 146.532 105.871 146.409 105.871 146.286C106.181 144.918 106.478 143.551 106.855 142.184C106.909 142.024 106.95 141.863 106.95 141.703C107.718 138.488 108.432 135.273 109.268 132.082C109.376 131.873 109.362 131.626 109.403 131.405C109.82 129.791 110.184 128.165 110.589 126.539C110.629 126.379 110.71 126.231 110.71 126.058C111.02 124.851 111.29 123.631 111.64 122.437C111.653 122.338 111.68 122.252 111.707 122.153C111.856 121.5 111.842 121.488 111.06 121.488C108.338 121.488 105.912 120.7 103.715 119.246C103.553 119.123 103.378 119.024 103.216 118.901C100.628 116.942 99.1052 114.417 98.5661 111.387C98.3235 109.995 97.973 108.615 97.7439 107.223C97.7169 107.087 97.663 106.964 97.6361 106.841C97.1374 104.426 96.6656 102 96.1535 99.5728C96.1265 99.3387 96.14 99.1047 96.0456 98.8829C95.83 98.0083 95.6817 97.1213 95.4796 96.2344C95.4661 96.1358 95.4526 96.0373 95.4526 95.9387C95.0078 93.7583 94.4148 91.6025 94.1991 89.3974C94.0104 87.4757 94.7787 85.7757 96.1804 84.3221C97.69 82.7452 99.6443 82.0308 101.882 81.8706C102.461 81.8337 103.041 81.7105 103.62 81.7228C104.092 81.7228 104.564 81.5134 105.022 81.5996C104.604 81.3039 104.079 81.0452 103.742 80.6018C103.054 79.838 102.529 79.0126 102.488 78.0025C102.488 77.4974 102.475 76.9923 102.488 76.475C102.663 75.2677 103.31 74.2576 104.038 73.2721C104.146 73.1365 104.254 73.0257 104.375 72.9148C105.575 71.6213 107.057 70.8452 108.958 70.7344C109.618 70.6974 110.292 70.6728 110.966 70.5742C112.112 70.3894 113.177 70.0568 114.133 69.4409C114.241 69.3793 114.363 69.3177 114.47 69.2561C115.859 68.4184 116.829 67.2605 117.624 65.9547C118.056 65.2525 118.5 64.5626 119.134 64.0083C119.255 63.9097 119.363 63.7989 119.471 63.7003C120.428 62.9612 121.493 62.4315 122.733 62.2344C122.84 62.2344 122.935 62.2713 123.016 62.3206C125.037 62.296 126.911 62.8134 128.69 63.6387C128.919 63.7496 129.162 63.7742 129.404 63.8112C131.278 64.0945 132.262 65.2155 132.14 66.9402C132.073 67.2481 131.844 67.1989 131.628 67.125C130.334 66.7061 129.054 66.2626 127.787 65.8068C127.41 65.6713 127.356 65.425 127.571 65.117C127.8 64.7844 128.11 64.5134 128.272 64.1438C126.237 64.0329 124.606 65.2525 124.188 66.6938C124 67.3467 123.811 67.9996 123.474 68.6032C122.921 68.6525 122.854 68.1721 122.584 67.9134C122.274 67.6177 122.167 67.1373 121.614 67.051C121.183 67.0634 120.765 66.9771 120.333 67.0264C118.932 67.1866 118.366 68.2583 119.12 69.3547C119.35 69.6873 119.7 69.9213 119.875 70.2909C119.97 70.8945 120.549 71.3257 120.617 71.9416C119.457 72.7423 119.174 74.0112 118.581 75.1076C118.473 75.3047 118.406 75.5264 118.163 75.6496C117.894 75.7112 117.624 75.7235 117.355 75.7481C116.64 75.6865 115.926 75.588 115.212 75.5634C112.058 75.4402 109.214 77.4235 108.527 80.2692C107.381 85.0119 106.276 89.7793 105.211 94.5344C104.712 96.7764 105.494 98.3902 107.623 99.6221C108.109 99.9054 108.311 100.25 108.378 100.768C108.675 103.084 108.769 105.437 109.268 107.728C110.144 111.781 114.039 115.058 118.541 115.6C119.835 115.76 121.129 115.76 122.436 115.637C123.595 115.526 124.768 115.612 125.94 115.6C126.56 115.6 127.167 115.6 127.787 115.6C129.917 115.464 132.033 115.747 134.162 115.71C135.523 115.686 136.898 115.698 138.26 115.71C139.095 115.723 139.257 115.858 139.27 116.597C139.297 117.41 139.284 118.236 139.27 119.049C139.27 119.295 139.257 119.542 139.109 119.763C137.896 120.86 136.48 121.5 134.742 121.488C132.599 121.488 130.456 121.291 128.313 121.377C128.097 121.389 127.8 121.242 127.679 121.55C128.151 123.434 128.636 125.307 129.094 127.192C130.038 131.097 130.968 135.002 131.911 138.907C132.747 142.393 133.596 145.879 134.432 149.366C134.567 149.92 134.674 150.474 134.796 151.029C134.836 151.213 134.971 151.398 134.661 151.472C134.324 151.558 134.23 151.275 134.203 151.09C134.081 150.068 133.771 149.095 133.542 148.097C132.976 145.608 132.397 143.12 131.803 140.644C131.278 138.402 130.752 136.172 130.173 133.942C129.58 131.602 129.027 129.237 128.42 126.896C128.003 125.258 127.598 123.619 127.194 121.981C127.14 121.784 127.073 121.599 127.019 121.414C125.617 121.389 124.202 121.279 122.8 121.476C122.584 121.5 122.355 121.488 122.126 121.488C119.35 121.488 116.56 121.488 113.783 121.488C113.513 121.488 113.244 121.451 112.988 121.537C112.745 121.636 112.678 121.845 112.597 122.055C112.543 122.202 112.516 122.35 112.503 122.51C112.179 123.742 111.829 124.962 111.559 126.206C111.532 126.342 111.478 126.452 111.451 126.588C111.047 128.103 110.723 129.631 110.319 131.134C110.225 131.355 110.225 131.589 110.171 131.811C109.362 135.113 108.607 138.414 107.799 141.716C107.758 141.876 107.677 142.024 107.677 142.196C107.394 143.576 107.03 144.943 106.72 146.323C106.693 146.446 106.653 146.569 106.572 146.668C106.586 146.742 106.545 146.779 106.505 146.828Z" fill="black"/>
<path d="M139.069 144.007C139.082 141.95 139.082 139.905 139.096 137.848C139.015 137.749 139.042 137.638 139.069 137.527C139.123 135.803 139.096 134.091 139.082 132.366C139.082 131.651 139.109 131.565 139.918 131.479C142.209 131.208 144.501 130.998 146.792 130.764C147.655 130.678 148.531 130.567 149.393 130.506C149.865 130.469 150.081 130.259 150.067 129.828C150.027 128.461 150.162 127.081 149.973 125.714C149.838 124.716 149.986 124.482 151.011 124.149C152.129 123.78 153.235 123.385 154.38 123.077C154.892 123.053 155 123.385 155.081 123.743C155.472 125.332 155.876 126.909 156.227 128.51C156.254 128.67 156.281 128.83 156.335 128.991C156.699 130.481 157.089 131.984 157.413 133.487C157.534 134.066 157.831 134.423 158.451 134.633C160.135 135.236 161.793 135.901 163.465 136.542C163.788 136.665 164.165 136.739 164.3 137.109C164.395 138.833 164.449 140.57 164.273 142.295C164.179 142.541 163.896 142.393 163.734 142.504C162.481 142.751 161.227 142.997 159.974 143.243C157.965 143.65 155.957 144.069 153.814 144.5C154.663 145.067 155.432 145.572 156.2 146.077C156.914 146.545 157.682 146.964 158.343 147.493C159.583 148.467 160.014 149.785 160.109 151.226C159.933 151.362 159.718 151.3 159.529 151.3C152.857 151.3 146.199 151.3 139.527 151.3C139.339 151.3 139.123 151.398 138.975 151.201C138.975 150.943 138.975 150.684 138.975 150.425C139.096 149.526 139.002 148.627 139.029 147.727C139.055 146.496 138.975 145.251 139.069 144.007Z" fill="#8F3600"/>
<path d="M106.034 146.447C106.007 146.533 105.966 146.632 105.939 146.718C105.697 146.816 105.454 146.767 105.212 146.767C83.7811 146.767 62.3507 146.767 40.9203 146.767C40.6777 146.767 40.4216 146.804 40.179 146.73C39.9633 146.545 40.0577 146.299 40.0577 146.089C40.0577 109.379 40.0577 72.6692 40.0442 35.959C40.0442 34.0989 40.5024 32.3866 41.675 30.8714C43.279 28.7895 45.5029 27.6192 48.2659 27.3235C48.5085 27.2496 48.7511 27.2866 49.0072 27.2866C70.7072 27.2866 92.3937 27.2866 114.094 27.2866C114.336 27.2866 114.592 27.2619 114.835 27.3235C119.054 27.9272 121.965 30.3047 122.868 33.8895C123.043 34.5917 123.084 35.3061 123.084 36.033C123.084 44.7917 123.084 53.5627 123.084 62.3214C122.989 62.3214 122.895 62.3337 122.801 62.3337C122.491 62.0011 122.599 61.5946 122.599 61.2127C122.599 52.8359 122.599 44.459 122.599 36.0822C122.599 34.025 121.979 32.1525 120.496 30.5634C118.879 28.8388 116.816 27.9272 114.323 27.7917C114.148 27.7793 113.959 27.7917 113.784 27.7917C92.2859 27.7917 70.8016 27.7917 49.3037 27.7917C45.0985 27.7917 41.5133 30.5264 40.772 34.2837C40.6911 34.6656 40.6777 35.0598 40.6777 35.454C40.6777 72.0533 40.6777 108.653 40.6777 145.252C40.6777 145.338 40.6777 145.412 40.6777 145.498C40.6911 146.188 40.745 146.237 41.4729 146.262C41.7155 146.274 41.9716 146.262 42.2142 146.262C63.0381 146.262 83.8485 146.262 104.672 146.262C105.117 146.274 105.616 146.163 106.034 146.447Z" fill="#5D85B1"/>
<path d="M143.396 92.1203C143.544 92.0464 143.679 91.9602 143.827 91.8862C144.042 91.8 144.272 91.837 144.487 91.837C158.639 91.837 172.778 91.837 186.93 91.837C187.159 91.837 187.375 91.8123 187.604 91.8739C189.383 92.4776 189.896 93.1551 189.896 94.892C189.896 102.85 189.896 110.796 189.896 118.754C189.896 119 189.922 119.246 189.936 119.493C190.165 119.616 190.421 119.554 190.65 119.554C192.659 119.554 194.667 119.554 196.675 119.567C196.891 119.567 197.12 119.48 197.309 119.653C197.309 123.632 197.295 127.611 197.322 131.578C197.322 132.144 197.16 132.317 196.527 132.304C194.572 132.267 192.618 132.317 190.677 132.28C190.003 132.267 189.869 132.465 189.882 133.031C189.922 135.002 189.842 136.973 189.909 138.932C189.963 140.459 188.453 141.753 186.903 141.667C185.272 141.58 185.286 141.654 185.259 143.145C185.232 144.377 185.367 145.596 185.178 146.828C185.138 146.853 185.097 146.89 185.057 146.89C182.59 146.89 180.11 146.939 177.644 146.865C177.455 146.668 177.536 146.434 177.536 146.212C177.522 144.882 177.509 143.551 177.549 142.221C177.563 141.753 177.388 141.642 176.902 141.642C173.924 141.654 170.945 141.642 167.966 141.63C168.344 141.162 168.923 141.272 169.436 141.199C175.204 141.236 180.973 141.223 186.742 141.199C188.413 141.199 189.343 140.435 189.383 138.92C189.478 135.865 189.41 132.809 189.424 129.754C189.424 129.336 189.195 129.163 188.763 129.175C188.521 129.175 188.265 129.175 188.022 129.175C180.663 129.175 173.29 129.175 165.931 129.175C165.513 129.175 165.069 129.262 164.705 128.966C164.705 128.855 164.705 128.732 164.705 128.621C165.069 128.338 165.513 128.412 165.931 128.412C173.317 128.412 180.703 128.412 188.089 128.412C189.424 128.412 189.424 128.412 189.424 127.217C189.424 116.61 189.424 106.004 189.424 95.3971C189.424 95.0276 189.437 94.658 189.37 94.2884C189.154 93.1058 188.278 92.4036 186.971 92.3667C186.661 92.3544 186.337 92.3667 186.027 92.3667C172.239 92.3667 158.464 92.3667 144.676 92.3667C144.231 92.342 143.759 92.4529 143.396 92.1203Z" fill="#5A83AF"/>
<path d="M181.552 45.1856C181.552 52.3059 181.552 59.4261 181.565 66.5588C181.565 67.0885 181.484 67.2856 180.81 67.2856C169.583 67.2609 158.356 67.2609 147.115 67.2856C146.549 67.2856 146.347 67.187 146.36 66.6203C146.373 52.3305 146.373 38.0406 146.36 23.7631C146.36 23.2087 146.522 23.0732 147.115 23.0732C158.342 23.0856 169.57 23.0856 180.81 23.0732C181.403 23.0732 181.565 23.2087 181.565 23.7631C181.538 30.8957 181.552 38.0406 181.552 45.1856Z" fill="#5983AF"/>
<path d="M131.966 68.3699C131.306 68.4684 130.672 68.6532 130.106 69.0597C129.998 67.951 129.473 67.1503 128.354 66.7438C127.37 66.3865 126.467 66.5344 125.645 67.1133C124.62 67.8402 124.391 68.9242 124.957 70.3409C124.877 70.3778 124.769 70.4025 124.701 70.3532C124.108 69.8605 123.556 69.3554 123.421 68.5916C123.65 67.9264 123.866 67.2612 124.095 66.6083C124.567 65.1916 125.658 64.4155 127.181 64.0829C127.653 63.972 128.138 63.9228 128.704 63.8242C128.448 64.3909 128.057 64.7974 127.747 65.2409C127.613 65.438 127.505 65.5735 127.855 65.6844C129.176 66.1278 130.497 66.5836 131.804 67.0394C131.966 67.101 132.101 67.0887 132.195 66.9532C132.263 67.4336 132.114 67.9018 131.966 68.3699Z" fill="#FD9993"/>
<path d="M169.273 141.31C168.828 141.42 168.397 141.519 167.952 141.63C166.86 141.839 165.782 142.061 164.69 142.27C164.69 140.583 164.69 138.895 164.69 137.22C165.715 137.232 166.564 137.688 167.359 138.218C168.276 138.821 168.855 139.671 169.26 140.632C169.367 140.841 169.502 141.088 169.273 141.31Z" fill="#8F3600"/>
<path d="M106.519 146.717C106.559 146.631 106.586 146.545 106.626 146.446C106.977 146.188 107.395 146.261 107.799 146.261C112.314 146.261 116.829 146.261 121.345 146.261C121.574 146.261 121.789 146.249 122.019 146.261C122.409 146.261 122.585 146.077 122.585 145.732C122.585 145.572 122.585 145.399 122.585 145.239C122.585 137.749 122.585 130.259 122.585 122.769C122.585 121.673 122.585 121.673 121.412 121.673C118.851 121.673 116.29 121.673 113.729 121.673C113.379 121.673 113.002 121.722 112.719 121.451C112.826 121.254 113.042 121.34 113.19 121.34C117.665 121.34 122.14 121.34 126.615 121.34C126.776 121.34 126.979 121.254 127.1 121.439C125.806 121.451 124.499 121.464 123.205 121.476C123.07 121.71 123.137 121.956 123.137 122.203C123.137 130.111 123.137 138.008 123.137 145.916C123.137 146.138 123.178 146.372 123.097 146.582C123.07 146.619 123.07 146.656 123.07 146.693C122.949 146.816 122.773 146.779 122.625 146.779C117.369 146.779 112.112 146.779 106.869 146.779C106.734 146.766 106.626 146.766 106.519 146.717Z" fill="#5881AE"/>
<path d="M114.821 27.323C95.3046 27.323 75.788 27.323 56.2715 27.323C53.6028 27.323 50.9341 27.323 48.252 27.3353C48.4676 27.1628 48.7237 27.2368 48.9663 27.2368C70.6798 27.2368 92.3933 27.2368 114.107 27.2368C114.349 27.2368 114.605 27.1628 114.821 27.323Z" fill="#FCFCFC"/>
<path d="M40.1787 146.73C40.4752 146.73 40.7583 146.718 41.0548 146.718C62.6874 146.718 84.3065 146.718 105.939 146.718C105.966 146.755 105.953 146.792 105.926 146.829C84.2931 146.829 62.6604 146.829 41.0278 146.829C40.7448 146.829 40.4348 146.915 40.1787 146.73Z" fill="#FCFCFC"/>
<path d="M187.604 91.8739C173.209 91.8739 158.827 91.8739 144.433 91.8739C144.231 91.8739 144.028 91.8862 143.826 91.8862C143.867 91.8 143.894 91.7015 143.934 91.6152C144.177 91.8986 144.514 91.7631 144.81 91.7754C158.787 91.7877 172.777 91.7754 186.754 91.7877C187.037 91.7754 187.347 91.6891 187.604 91.8739Z" fill="#FCFCFC"/>
<path d="M127.72 121.575C127.801 121.34 127.801 121.328 128.016 121.328C129.512 121.328 130.995 121.328 132.491 121.34C133.286 121.34 134.095 121.353 134.89 121.365C134.715 121.747 134.338 121.636 134.028 121.648C133.111 121.685 133.098 121.685 133.098 122.535C133.098 125.381 133.098 128.227 133.098 131.085C133.098 131.799 133.151 131.861 133.933 131.861C135.295 131.873 136.669 131.861 138.031 131.861C138.341 131.861 138.664 131.836 138.961 131.947C139.082 132.009 139.149 132.095 139.122 132.23C139.095 132.317 139.028 132.341 138.934 132.317C136.831 132.304 134.742 132.304 132.639 132.292C132.437 132.095 132.545 131.861 132.545 131.651C132.531 128.485 132.545 125.319 132.531 122.141C132.531 121.919 132.599 121.685 132.464 121.476C130.968 121.464 129.472 121.451 127.989 121.439C127.895 121.439 127.787 121.488 127.72 121.575Z" fill="#5983AF"/>
<path d="M123.083 146.582C123.083 142.936 123.07 139.277 123.07 135.631C123.07 131.122 123.07 126.601 123.07 122.092C123.07 121.883 122.935 121.636 123.191 121.464C123.191 129.594 123.191 137.725 123.191 145.867C123.191 146.102 123.272 146.36 123.083 146.582Z" fill="#FCFCFC"/>
<path d="M138.975 151.227C139.15 151.239 139.325 151.276 139.5 151.276C146.239 151.276 152.965 151.276 159.704 151.276C159.839 151.276 159.974 151.264 160.109 151.251C159.933 151.485 159.65 151.387 159.421 151.387C152.817 151.387 146.226 151.387 139.622 151.387C139.406 151.387 139.123 151.498 138.975 151.227Z" fill="#FCFCFC"/>
<path d="M106.518 146.718C111.734 146.718 116.964 146.718 122.18 146.705C122.477 146.705 122.76 146.681 123.056 146.681C122.854 146.927 122.557 146.816 122.315 146.816C117.045 146.828 111.788 146.816 106.518 146.816C106.491 146.792 106.491 146.755 106.518 146.718Z" fill="#FCFCFC"/>
<path d="M132.492 121.488C132.721 121.673 132.6 121.907 132.6 122.117C132.613 125.246 132.6 128.375 132.613 131.503C132.613 131.762 132.653 132.033 132.667 132.292C132.37 132.119 132.505 131.848 132.505 131.614C132.492 128.239 132.492 124.864 132.492 121.488Z" fill="#FCFCFC"/>
<path d="M185.744 77.8799C185.973 77.8922 186.027 78.0523 186.095 78.1755C186.512 78.9393 186.93 79.7154 187.335 80.4792C187.402 80.59 187.537 80.7379 187.335 80.8487C187.092 80.9719 187.078 80.7379 187.025 80.6516C186.58 79.8386 186.148 79.0132 185.704 78.1879C185.623 78.04 185.542 77.9292 185.744 77.8799Z" fill="#688EB6"/>
<path d="M164.138 142.405C164.138 145.239 164.151 148.06 164.165 150.893C164.165 151.139 164.205 151.386 164.219 151.62C163.909 151.46 164.044 151.176 164.044 150.955C164.03 148.355 164.044 145.756 164.03 143.157C164.03 142.923 164.192 142.59 163.747 142.504C163.841 142.405 163.99 142.418 164.138 142.405Z" fill="#FCFCFC"/>
<path d="M160.594 84.1871C160.418 84.1256 160.391 84.064 160.472 83.8669C160.823 83.0292 161.146 82.1669 161.483 81.3169C161.524 81.206 161.524 81.0582 161.712 81.0828C161.901 81.1074 161.874 81.2429 161.834 81.3661C161.497 82.2408 161.16 83.1154 160.823 83.99C160.769 84.0886 160.701 84.1502 160.594 84.1871Z" fill="#648BB4"/>
<path d="M177.644 146.853C180.151 146.841 182.671 146.829 185.178 146.816C185.07 146.964 184.908 146.952 184.76 146.952C182.509 146.952 180.272 146.952 178.021 146.952C177.886 146.952 177.751 146.952 177.644 146.853Z" fill="#FCFCFC"/>
<path d="M197.308 119.641C195.084 119.53 192.847 119.629 190.623 119.592C190.394 119.592 190.138 119.703 189.936 119.493C192.173 119.493 194.41 119.493 196.634 119.493C196.863 119.493 197.133 119.395 197.308 119.641Z" fill="#FCFCFC"/>
<path d="M139.068 144.008C139.068 146.151 139.109 148.307 138.974 150.451C138.974 148.443 138.96 146.422 138.96 144.414C138.96 144.267 138.947 144.119 139.068 144.008Z" fill="#FCFCFC"/>
<path d="M138.961 132.316C138.988 132.304 139.029 132.292 139.069 132.304C139.096 132.341 139.15 132.366 139.15 132.402C139.15 134.139 139.217 135.876 139.109 137.613C139.109 137.687 139.096 137.773 139.096 137.847C138.88 137.663 138.975 137.429 138.975 137.207C138.961 135.568 138.961 133.942 138.961 132.316Z" fill="#FCFCFC"/>
<path d="M145.552 81.1807C145.525 81.3285 145.417 81.4148 145.175 81.464C145.269 81.2177 145.337 81.0082 145.417 80.7988C145.485 80.922 145.39 81.0822 145.552 81.1807Z" fill="#D2D2D2"/>
<path d="M106.034 146.447C105.791 146.447 105.535 146.459 105.292 146.459C83.9293 146.459 62.5797 146.459 41.2167 146.472C40.5697 146.472 40.3945 146.336 40.3945 145.732C40.408 109.072 40.408 72.4107 40.408 35.7498C40.408 31.1426 44.2897 27.5947 49.3171 27.5947C70.8284 27.5947 92.3532 27.5947 113.865 27.5947C118.825 27.5947 122.747 31.1918 122.76 35.7375C122.76 44.3607 122.76 52.9839 122.76 61.5947C122.76 61.8411 122.774 62.0875 122.774 62.3339C121.574 62.5926 120.523 63.1223 119.552 63.8121C119.283 63.5534 119.364 63.2331 119.364 62.9375C119.35 60.1041 119.364 57.2708 119.364 54.4375C119.364 53.6491 119.364 53.6491 118.515 53.6491C93.8763 53.6491 69.238 53.6491 44.6132 53.6491C43.7506 53.6491 43.7506 53.6491 43.7506 54.4252C43.7506 60.3998 43.7506 66.3744 43.7506 72.3491C43.7506 73.1128 43.7641 73.1252 44.6402 73.1252C48.4545 73.1252 52.2689 73.1005 56.0832 73.1128C61.178 73.1252 66.2728 73.1252 71.3811 73.1252C81.9345 73.1252 92.488 73.1252 103.041 73.1375C103.432 73.1375 103.864 73.0266 104.201 73.3223C103.567 74.2831 102.974 75.2686 102.718 76.3897C102.395 76.6483 101.99 76.5621 101.626 76.5621C91.8815 76.5621 82.1367 76.5621 72.3919 76.5621C63.348 76.5621 54.2906 76.5621 45.2467 76.5621C45.0041 76.5621 44.748 76.5744 44.5054 76.5621C43.9663 76.5252 43.7641 76.6976 43.7641 77.2273C43.7776 83.2759 43.7776 89.3368 43.7776 95.3853C43.7776 96.0136 43.8045 96.0382 44.5863 96.0382C48.6028 96.0382 52.6193 96.0382 56.6358 96.0259C63.9141 96.0012 71.1789 96.0012 78.4571 96.0259C83.8619 96.0505 89.2802 96.0259 94.685 96.0505C95.0354 96.0505 95.4128 95.9766 95.7093 96.2353C95.898 97.1346 96.1002 98.0462 96.2889 98.9454C96.3967 99.2657 96.2215 99.4136 95.898 99.4505C95.588 99.4875 95.2645 99.4752 94.9545 99.4752C78.2954 99.4752 61.6363 99.4752 44.9771 99.4752C43.535 99.4752 43.7641 99.4998 43.7641 100.559C43.7641 106.411 43.7641 112.25 43.7641 118.101C43.7641 118.951 43.7641 118.951 44.6941 118.951C56.4067 118.939 68.1328 118.951 79.8454 118.951C87.4337 118.951 95.0219 118.951 102.61 118.951C103.015 118.951 103.419 118.988 103.796 119.124C106.29 120.713 109.039 121.514 112.112 121.378C112.112 121.698 112.045 121.969 111.883 122.216C111.56 122.462 111.155 122.388 110.778 122.388C104.78 122.388 98.7824 122.388 92.798 122.388C76.8532 122.388 60.9084 122.388 44.9637 122.388C43.508 122.388 43.7506 122.413 43.7506 123.472C43.7506 129.324 43.7506 135.175 43.7506 141.014C43.7506 141.864 43.7506 141.864 44.6806 141.864C54.7354 141.864 64.8037 141.864 74.8584 141.864C83.4845 141.864 92.0971 141.864 100.723 141.864C102.57 141.864 104.403 141.852 106.249 141.877C106.546 141.877 106.896 141.79 107.058 142.16C106.708 143.577 106.371 145.006 106.034 146.447Z" fill="#FEFEFE"/>
<path d="M119.282 64.0702C118.528 64.8093 118.042 65.6963 117.476 66.5463C116.721 67.655 115.832 68.6651 114.578 69.3673C114.309 69.1086 114.39 68.7883 114.39 68.4926C114.39 65.3144 114.39 62.1361 114.39 58.9455C114.39 58.0955 114.39 58.0955 113.46 58.0955C108.769 58.0955 104.079 58.0955 99.3749 58.0955C98.5932 58.0955 98.5932 58.0955 98.5932 58.8224C98.5932 63.1586 98.5932 67.4825 98.5932 71.8187C98.5932 72.0035 98.5932 72.1883 98.5932 72.3731C98.5797 73.1122 98.4988 73.1861 97.7036 73.1861C92.6088 73.1861 87.514 73.1861 82.4058 73.1861C81.6375 73.1861 81.6375 73.1738 81.8532 72.4716C81.9206 72.2745 81.8936 72.0651 81.8936 71.8557C81.9071 69.6752 81.8801 67.5071 81.8936 65.3267C81.9071 64.4151 82.2845 64.0702 83.3493 63.9963C83.0393 63.9963 82.8101 63.9963 82.5945 63.9223C82.3249 63.8238 82.1362 63.6513 82.0149 63.4296C81.8801 63.2079 81.8936 62.9492 81.8801 62.7028C81.8666 62.0252 81.8666 62.0252 81.1119 62.0252C81.0445 62.0252 80.9771 62.0252 80.9097 62.0252C80.0066 62.0499 79.818 61.8281 79.8314 62.9368C79.8314 63.097 79.818 63.2695 79.7236 63.4173C79.5484 63.6883 79.3193 63.9347 78.9419 63.91C78.578 63.8854 78.4297 63.6021 78.3219 63.331C78.2275 63.097 78.241 62.8383 78.2545 62.6042C78.2814 62.1731 78.0523 62.0006 77.6075 62.0376C77.5132 62.0376 77.4323 62.0376 77.338 62.0376C76.3406 62.0622 76.2058 61.8528 76.2058 62.9615C76.2058 63.5035 75.8014 63.91 75.3701 63.9223C74.9388 63.9347 74.548 63.5158 74.494 62.9861C74.3997 62.0376 74.3997 62.0376 73.3349 62.0376C72.4858 62.0376 72.4858 62.0376 72.4588 62.826C72.4319 63.7252 72.1219 63.9963 71.1514 64.0086C70.9088 64.0086 70.6797 64.0086 70.518 64.0086C70.6797 64.0332 70.9223 64.0086 71.1649 64.0086C72.0275 64.0209 72.3914 64.3166 72.4453 65.1173C72.4858 65.8318 72.4588 66.5586 72.4588 67.2731C72.4588 68.6897 72.4588 70.1064 72.4588 71.5231C72.4588 71.9173 72.4453 72.2992 72.6071 72.6687C72.7553 73.0137 72.634 73.1738 72.2297 73.1738C72.0949 73.1738 71.9601 73.1738 71.8253 73.1738C67.0001 73.1738 62.1749 73.1738 57.3362 73.1738C57.0532 73.1738 56.6488 73.297 56.541 73.026C56.4332 72.7303 56.851 72.6318 57.0666 72.4963C59.4119 70.9934 59.4388 67.8274 57.1071 66.3122C56.6084 65.9919 56.4062 65.61 56.4062 65.068C56.4197 63.6267 56.4062 62.1977 56.4197 60.7564C56.4197 60.3376 56.2849 60.1528 55.8132 60.1651C55.1393 60.1897 54.4653 60.1897 53.7914 60.1651C53.3197 60.1528 53.158 60.3252 53.158 60.7441C53.1714 62.1608 53.1445 63.5774 53.1714 64.9941C53.1849 65.5484 52.9827 65.881 52.4436 66.189C50.0175 67.5195 49.8693 70.7593 52.1067 72.3731C52.3762 72.5579 52.9153 72.6934 52.7806 73.026C52.6593 73.3339 52.1336 73.1738 51.7832 73.1738C49.3975 73.1861 47.0253 73.1861 44.6397 73.1738C43.858 73.1738 43.7501 73.0752 43.7501 72.3484C43.7367 66.4108 43.7501 60.4854 43.7501 54.5477C43.7501 53.7963 43.9119 53.6608 44.7475 53.6484C44.9497 53.6484 45.1519 53.6484 45.354 53.6484C69.561 53.6484 93.768 53.6484 117.988 53.6484C119.431 53.6484 119.431 53.6484 119.431 54.9666C119.431 57.7137 119.431 60.4731 119.431 63.2202C119.417 63.5158 119.471 63.8115 119.282 64.0702Z" fill="#FEFEFE"/>
<path d="M103.783 81.8956C102.435 82.0803 101.046 82.0311 99.7256 82.4129C96.0191 83.497 93.8087 86.9463 94.5634 90.4448C94.9543 92.268 95.2913 94.1158 95.6552 95.939C95.453 96.1238 95.1969 96.0745 94.9543 96.0745C90.1695 96.0745 85.3847 96.0745 80.6 96.0745C79.8587 96.0745 79.7374 95.976 79.7239 95.2985C79.7104 94.2514 79.7104 93.2043 79.7239 92.1572C79.7374 91.5166 79.8991 91.3811 80.6134 91.3441C80.7078 91.3441 80.5865 91.3441 80.6808 91.3441C82.2847 91.3071 82.2847 91.3071 82.2847 89.7919C82.2847 89.0528 82.2713 88.3137 82.2847 87.5745C82.2982 87.1434 82.1095 87.0079 81.6378 87.0079C80.3843 87.0325 79.1174 87.0202 77.8639 87.0079C76.8665 87.0079 76.7587 86.897 76.7452 85.9731C76.7452 85.1724 76.7452 84.3716 76.7452 83.5709C76.7452 82.6963 76.7317 82.6963 75.7478 82.6963C68.9413 82.6963 62.1347 82.6963 55.3282 82.6963C54.5869 82.6963 53.8456 82.6963 53.1043 82.6963C52.363 82.7086 52.3361 82.7209 52.3361 83.3861C52.3361 84.347 52.3361 85.3202 52.3361 86.2811C52.3361 87.0079 52.3495 87.0202 53.1852 87.0202C54.4252 87.0202 55.6517 87.0202 56.8917 87.0202C57.6734 87.0202 57.8487 87.1803 57.8621 87.8825C57.8756 88.8311 57.8756 89.7673 57.8621 90.7158C57.8487 91.4057 57.7004 91.5412 56.9456 91.5658C56.5817 91.5782 56.2313 91.5782 55.8674 91.5658C55.3552 91.5412 55.1395 91.7137 55.153 92.2064C55.18 93.2166 55.1665 94.2144 55.1665 95.2245C55.153 95.976 55.0587 96.0745 54.223 96.0745C51.0556 96.0745 47.8882 96.0745 44.7208 96.0745C43.8043 96.0745 43.71 96.0006 43.71 95.1629C43.71 89.2499 43.71 83.3369 43.71 77.4238C43.71 76.5492 43.7908 76.4876 44.7478 76.4876C62.4178 76.4876 80.1013 76.4876 97.7713 76.4876C99.1595 76.4876 100.561 76.4999 101.95 76.4753C102.448 76.4629 102.637 76.6231 102.596 77.0789C102.57 77.3992 102.543 77.7318 102.637 78.0521C102.731 79.0129 103.284 79.789 103.877 80.5405C104.079 81.0332 104.349 81.5014 103.783 81.8956Z" fill="#FEFEFE"/>
<path d="M115.091 100.189C114.929 100.423 114.983 100.583 115.293 100.62C115.468 100.645 115.657 100.633 115.832 100.633C119.983 100.633 124.135 100.633 128.272 100.633C128.515 100.633 128.758 100.645 129.014 100.657C129.122 100.731 129.243 100.805 129.27 100.928C129.418 101.409 129.822 101.421 130.281 101.446C132.356 101.569 134.445 101.618 136.508 101.803C136.642 101.815 136.777 101.84 136.899 101.877C137.33 102.111 136.993 102.345 136.872 102.542C136.117 103.725 135.308 104.895 134.513 106.053C132.518 108.997 130.523 111.954 128.542 114.898C128.326 115.23 128.192 115.686 127.639 115.723C127.046 115.748 126.453 115.662 125.873 115.772C123.474 115.735 121.075 116.056 118.676 115.797C113.608 115.267 109.322 111.202 108.877 106.546C108.689 104.501 108.419 102.468 108.19 100.435C108.163 100.164 108.055 100.004 107.772 99.8688C105.413 98.6615 104.524 96.8506 105.09 94.3992C106.168 89.7304 107.246 85.0615 108.338 80.405C109.106 77.1159 112.368 75.0093 115.994 75.4651C116.506 75.5267 117.032 75.4651 117.53 75.6376C117.908 76.2289 117.584 76.8448 117.53 77.4362C117.342 79.2963 117.139 81.1441 116.937 83.0043C116.87 83.6079 116.668 83.9528 116.021 84.1869C114.956 84.5688 114.498 85.6159 114.875 86.5151C115.279 87.4637 116.385 87.9688 117.395 87.6361C118.164 87.3775 118.649 86.8601 118.797 86.1086C118.838 85.8869 118.811 85.6528 118.919 85.4434C118.959 85.3695 119.026 85.3448 119.121 85.3572C119.309 85.4804 119.336 85.6651 119.336 85.8499C119.498 88.5354 119.768 91.2086 119.943 93.8941C119.956 93.9927 119.929 94.0912 119.889 94.1898C119.633 94.4608 119.282 94.3992 118.945 94.3992C117.355 94.4115 115.765 94.3992 114.174 94.3992C113.339 94.3992 113.352 94.3992 113.595 95.1506C114.08 96.6043 114.565 98.0456 115.01 99.5115C115.091 99.7456 115.145 99.9673 115.091 100.189Z" fill="#6DB5DE"/>
<path d="M111.843 122.462C111.533 123.694 111.223 124.926 110.913 126.158C110.684 126.466 110.334 126.429 109.997 126.429C108.487 126.429 106.991 126.429 105.481 126.429C104.686 126.429 104.646 126.466 104.646 127.192C104.646 131.652 104.646 136.099 104.646 140.558C104.646 140.645 104.646 140.718 104.646 140.805C104.646 141.852 104.16 142.172 103.042 141.876C102.678 141.778 102.651 141.507 102.637 141.248C102.624 140.546 102.61 139.856 102.637 139.154C102.664 138.673 102.489 138.489 101.95 138.501C101.074 138.526 100.198 138.526 99.3218 138.501C98.6479 138.489 98.4861 138.341 98.4726 137.725C98.4592 136.986 98.4457 136.247 98.4726 135.508C98.4861 134.892 98.6883 134.731 99.3892 134.695C99.5509 134.682 99.6992 134.682 99.8609 134.682C100.184 134.682 100.36 134.571 100.346 134.251C100.333 133.327 100.333 132.403 100.346 131.479C100.346 131.097 100.144 130.962 99.7666 130.987C99.6048 130.999 99.4566 130.987 99.2948 130.987C91.3022 130.987 83.3096 130.987 75.3035 130.987C74.3196 130.987 74.3196 130.987 74.3196 131.91C74.3196 132.625 74.3196 133.352 74.3196 134.066C74.3196 134.547 74.0905 134.818 73.5513 134.793C72.9853 134.768 72.81 135.015 72.8235 135.508C72.8505 136.308 72.8505 137.109 72.8235 137.91C72.81 138.353 72.9583 138.526 73.4705 138.526C74.8453 138.526 74.8453 138.55 74.8453 139.807C74.8453 140.324 74.8587 140.829 74.8318 141.347C74.8183 141.716 74.6296 141.913 74.1983 141.901C73.0527 141.901 71.907 141.901 70.7613 141.901C70.2896 141.901 70.0605 141.692 70.02 141.273C70.0066 141.113 70.0066 140.94 70.0066 140.78C70.0066 136.776 70.0066 132.773 70.0066 128.769C70.0066 127.771 70.0605 127.697 71.1253 127.685C71.597 127.673 71.7587 127.513 71.7587 127.094C71.7453 125.628 71.88 125.825 70.4109 125.825C63.0922 125.825 55.7735 125.825 48.4413 125.825C48.1044 125.825 47.6192 125.652 47.4574 126.01C47.2418 126.453 47.2957 126.983 47.4305 127.463C47.5113 127.734 47.8348 127.66 48.0774 127.673C48.9805 127.71 49.1018 127.808 49.1018 128.609C49.1153 132.711 49.1153 136.826 49.1018 140.928C49.1018 141.778 48.967 141.901 48.064 141.901C46.8913 141.901 45.7322 141.913 44.5596 141.901C43.8587 141.901 43.7374 141.79 43.7374 141.137C43.724 139.721 43.7374 138.304 43.7374 136.887C43.7374 132.428 43.7374 127.981 43.7374 123.521C43.7374 123.3 43.724 123.066 43.7509 122.844C43.7913 122.511 43.9531 122.314 44.3574 122.314C44.5596 122.314 44.7618 122.314 44.964 122.314C66.9335 122.314 88.8896 122.314 110.859 122.314C111.196 122.326 111.547 122.228 111.843 122.462Z" fill="#FEFEFE"/>
<path d="M96.3691 99.5365C96.9217 101.976 97.4339 104.427 97.8383 106.903C97.5687 107.162 97.2183 107.088 96.8813 107.1C94.4283 107.113 91.9887 107.1 89.5357 107.1C88.7539 107.1 88.7539 107.113 88.7539 107.815C88.7539 111.202 88.7539 114.59 88.7539 117.978C88.7539 118.951 88.7 118.988 87.6622 118.988C85.3978 118.988 83.12 118.988 80.8557 118.988C79.9391 118.988 79.8583 118.914 79.8583 118.076C79.8583 113.629 79.8583 109.17 79.8583 104.723C79.8583 103.897 79.8583 103.897 78.9687 103.897C72.5935 103.897 66.2183 103.897 59.843 103.897C58.9804 103.897 58.967 103.91 58.967 104.747C58.967 109.034 58.967 113.321 58.967 117.608C58.967 117.855 58.967 118.101 58.9535 118.347C58.913 118.754 58.7109 118.988 58.2257 118.988C57.1204 118.988 56.0287 118.988 54.9235 118.988C54.3978 118.988 54.2496 118.705 54.29 118.31C54.4113 117.042 54.4517 115.773 54.6 114.516C54.6943 113.74 54.7213 112.964 54.7752 112.188C54.883 110.66 55.0583 109.133 55.1122 107.593C55.1257 107.199 55.0043 107.076 54.6135 107.076C52.457 107.076 50.3004 107.076 48.1439 107.076C47.6857 107.076 47.5104 107.248 47.5104 107.667C47.497 108.566 47.6183 109.465 47.6991 110.365C47.7665 111.141 47.807 111.917 47.8878 112.693C48.063 114.442 48.1304 116.204 48.3057 117.953C48.4 118.852 48.2517 118.976 47.2409 118.976C46.3648 118.976 45.4887 118.976 44.6126 118.976C43.8713 118.976 43.777 118.865 43.75 118.187C43.75 118.064 43.75 117.941 43.75 117.818C43.75 112.077 43.75 106.324 43.75 100.584C43.75 100.399 43.75 100.214 43.75 100.029C43.7635 99.6104 43.9656 99.3764 44.4509 99.401C44.6126 99.4133 44.7609 99.401 44.9226 99.401C61.7435 99.401 78.5643 99.401 95.3852 99.401C95.7087 99.4133 96.0591 99.3271 96.3691 99.5365Z" fill="#FEFEFE"/>
<path d="M127.787 115.687C129.041 113.851 130.308 112.016 131.561 110.168C133.394 107.458 135.227 104.735 137.06 102.013C137.235 101.742 137.545 101.742 137.815 101.68C138.529 101.52 139.257 101.385 139.985 101.249C140.093 101.224 140.201 101.212 140.308 101.2C141.616 100.892 142.937 100.732 144.298 100.682C146.994 100.572 149.325 102.456 149.918 104.661C150.417 106.509 150.875 108.382 151.347 110.229C152.371 114.307 153.436 118.385 154.461 122.462C154.514 122.696 154.649 122.93 154.474 123.177C153.301 123.571 152.142 124.014 150.943 124.359C150.309 124.544 150.148 124.84 150.174 125.419C150.242 126.934 150.215 128.449 150.269 129.964C150.282 130.457 150.134 130.642 149.581 130.691C146.306 130.999 143.044 131.356 139.769 131.664C139.338 131.701 139.217 131.824 139.217 132.219C139.23 133.795 139.203 135.372 139.19 136.949C139.19 137.171 139.244 137.405 139.122 137.614C139.109 135.84 139.095 134.079 139.082 132.305C139.082 132.206 139.082 132.12 139.082 132.022C138.866 131.775 138.893 131.479 138.893 131.196C138.893 127.648 138.893 124.101 138.893 120.553C138.893 120.306 138.907 120.06 139.001 119.826C139.217 118.606 139.055 117.374 139.095 116.155C139.109 115.761 138.745 115.921 138.543 115.908C136.44 115.884 134.324 115.884 132.221 115.859C130.739 115.847 129.27 115.81 127.787 115.785C127.747 115.761 127.733 115.736 127.76 115.711C127.747 115.687 127.774 115.687 127.787 115.687Z" fill="#FD9993"/>
<path d="M114.309 69.5027C113.056 70.4142 111.573 70.7345 110.01 70.8331C108.851 70.907 107.691 70.9563 106.627 71.449C105.764 71.8432 105.104 72.4345 104.443 73.0505C104.268 73.149 104.066 73.1613 103.864 73.1613C102.314 73.1613 100.764 73.149 99.2136 73.1737C98.6744 73.186 98.5127 72.9766 98.5127 72.5085C98.5262 68.9606 98.5262 65.4128 98.5127 61.865C98.5127 61.3476 98.7688 61.1628 99.281 61.1628C102.664 61.1628 106.061 61.1505 109.444 61.1628C110.131 61.1628 110.279 61.3229 110.293 62.0005C110.306 64.2795 110.293 66.5584 110.293 68.8374C110.293 69.0469 110.266 69.2563 110.306 69.4534C110.454 70.2787 111.155 69.7983 111.6 69.8969C111.951 69.9708 112.328 69.9338 112.328 69.4287C112.314 68.665 112.328 67.9135 112.328 67.1498C112.328 65.4621 112.328 63.7867 112.328 62.099C112.328 61.7787 112.274 61.3845 112.692 61.249C113.177 61.0889 113.703 61.0889 114.201 61.2737C114.39 61.3476 114.404 61.5324 114.404 61.6925C114.404 64.1932 114.417 66.694 114.39 69.207C114.417 69.3302 114.363 69.4164 114.309 69.5027Z" fill="#FEFEFE"/>
<path d="M112.692 121.439C115.805 121.439 118.932 121.451 122.046 121.427C122.585 121.427 122.774 121.525 122.774 122.055C122.76 129.988 122.76 137.922 122.774 145.855C122.774 146.36 122.598 146.459 122.086 146.459C116.924 146.446 111.762 146.446 106.613 146.446C106.937 145.005 107.26 143.564 107.57 142.122C107.813 141.79 108.19 141.851 108.554 141.851C111.856 141.839 115.145 141.851 118.447 141.851C119.364 141.851 119.364 141.851 119.364 140.989C119.364 135.064 119.364 129.138 119.364 123.213C119.364 122.363 119.364 122.363 118.42 122.363C116.722 122.363 115.01 122.375 113.312 122.351C113.029 122.351 112.652 122.449 112.517 122.067C112.571 121.87 112.638 121.648 112.692 121.439Z" fill="#FEFEFE"/>
<path d="M123.308 68.6082C123.766 69.2241 124.103 69.9509 124.845 70.3574C125.155 70.5053 125.384 70.8132 125.801 70.727C126.138 70.7024 126.368 70.8748 126.556 71.0966C126.893 71.2321 127.23 71.3553 127.581 71.4908C128.241 71.5524 128.901 71.6632 129.414 72.0944C129.602 72.2422 129.818 72.3777 130.088 72.3038C130.209 72.2915 130.276 72.3408 130.249 72.464C130.532 73.24 131.341 73.6342 132.365 73.3632C132.878 73.2277 133.188 73.3509 133.551 73.6342C134.185 74.1147 134.832 74.5828 135.479 75.0509C136.018 75.8516 136.382 76.7263 136.854 77.49C136.665 76.9234 136.099 76.4429 136.072 75.7531C136.126 75.6668 136.18 75.6053 136.301 75.6545C137.11 76.2335 137.918 76.8125 138.741 77.3792C138.956 77.527 139.024 77.6379 138.821 77.8596C136.53 80.5328 134.252 83.206 131.975 85.8915C131.651 85.7067 131.611 85.3864 131.516 85.1031C130.856 83.0951 130.195 81.0995 129.333 79.1654C128.901 78.2045 128.147 77.5393 127.163 77.0712C126.745 76.8618 126.489 76.9357 126.448 77.4161C126.314 78.5987 126.165 79.7813 126.071 80.964C126.044 81.2596 126.179 81.3951 126.475 81.4937C128.174 82.0234 128.672 82.7132 128.497 84.3516C128.322 85.9777 128.133 87.6161 127.958 89.2422C127.931 89.5009 127.904 89.7842 127.554 89.8828C127.298 89.7719 127.244 89.5379 127.163 89.3284C126.273 87.0248 125.438 84.7089 124.548 82.4053C124.346 81.9002 124.13 81.4074 124.952 81.1857C125.047 81.1611 125.074 81.0255 125.114 80.927C125.222 79.6705 125.33 78.4139 125.465 77.1697C125.505 76.8125 125.33 76.64 124.952 76.5908C124.737 76.5661 124.521 76.5045 124.292 76.4799C123.82 76.4676 123.362 76.3937 122.917 76.2828C122.58 76.0241 122.809 75.7284 122.931 75.5067C123.214 74.9893 123.038 74.6937 122.553 74.3857C121.798 73.9299 121.232 73.277 120.734 72.5995C120.599 72.4147 120.437 72.2299 120.505 71.9835C120.289 71.6263 120.073 71.2813 119.871 70.9241C119.777 70.7516 119.588 70.5915 119.75 70.3697C119.911 70.148 120.073 70.2712 120.235 70.3697C120.626 70.7147 120.761 71.1951 121.044 71.6016C121.461 72.2053 121.502 72.2053 122.095 71.7741C122.553 71.4415 122.971 71.0842 123.335 70.6654C123.605 70.3574 123.685 70.1111 123.375 69.8154C123.16 69.606 123.038 69.335 122.85 69.1009C122.378 68.5835 121.974 68.0168 121.542 67.4748C121.448 67.29 121.327 67.1053 121.569 66.9451C121.879 66.785 121.987 67.019 122.135 67.1915C122.499 67.6596 122.904 68.1277 123.308 68.6082Z" fill="#FEFEFE"/>
<path d="M111.479 126.256C111.681 124.962 112.058 123.706 112.422 122.449C112.611 122.289 112.84 122.326 113.069 122.326C114.929 122.326 116.789 122.326 118.662 122.326C119.377 122.326 119.431 122.375 119.431 123.028C119.431 129.052 119.431 135.088 119.431 141.112C119.431 141.79 119.309 141.901 118.568 141.901C116.91 141.913 115.252 141.913 113.581 141.901C112.894 141.901 112.772 141.777 112.759 141.137C112.745 139.868 112.759 138.599 112.759 137.318C112.759 133.955 112.759 130.592 112.759 127.229C112.759 126.514 112.759 126.514 111.977 126.428C111.775 126.403 111.6 126.379 111.479 126.256Z" fill="#FEFEFE"/>
<path d="M97.9331 107.186C98.324 109.046 98.634 110.931 99.1192 112.766C99.7392 115.07 101.087 116.992 103.068 118.544C103.19 118.63 103.271 118.753 103.378 118.864C103.176 119.049 102.92 119 102.677 119C98.324 119 93.9705 119 89.6305 119C88.8757 119 88.7679 118.901 88.7679 118.224C88.7544 114.762 88.7544 111.3 88.7679 107.839C88.7679 107.161 88.8757 107.063 89.6305 107.063C92.1644 107.063 94.6984 107.063 97.2323 107.063C97.4749 107.05 97.731 107.013 97.9331 107.186Z" fill="#FEFEFE"/>
<path d="M114.309 69.5034C114.296 67.3722 114.282 65.2411 114.269 63.1099C114.269 62.8266 114.269 62.5309 114.269 62.2476C114.255 61.2251 114.417 61.4099 113.312 61.3483C112.678 61.3113 112.476 61.4592 112.476 62.0751C112.517 64.5142 112.476 66.9534 112.503 69.4048C112.503 69.8853 112.395 70.0947 111.802 70.0824C110.09 70.0577 110.09 70.0824 110.09 68.5425C110.09 66.3251 110.077 64.1077 110.104 61.8903C110.104 61.4469 109.956 61.336 109.497 61.3483C106.087 61.3606 102.677 61.3606 99.2674 61.3483C98.8091 61.3483 98.6474 61.4345 98.6609 61.8903C98.6743 65.4382 98.6878 68.986 98.6609 72.5338C98.6609 72.9773 98.8226 73.0758 99.2674 73.0635C100.993 73.0389 102.718 73.0512 104.457 73.0512C104.416 73.1744 104.322 73.2606 104.187 73.3099C103.89 73.3099 103.607 73.3222 103.311 73.3222C87.4604 73.3222 71.5965 73.3222 55.7461 73.3222C51.9317 73.3222 48.1174 73.3099 44.2895 73.3345C43.7235 73.3345 43.5752 73.1744 43.5752 72.6693C43.5887 66.4976 43.5887 60.3135 43.5752 54.1418C43.5752 53.6367 43.7235 53.4766 44.2895 53.4766C69.1435 53.4889 94.0108 53.4889 118.865 53.4766C119.39 53.4766 119.552 53.5874 119.552 54.0925C119.525 57.3324 119.552 60.5722 119.552 63.8244C119.512 63.9599 119.404 64.0215 119.283 64.0708C119.269 61.0526 119.256 58.0345 119.242 55.0164C119.242 53.7969 119.242 53.7969 117.894 53.7969C93.5526 53.7969 69.1974 53.7969 44.8556 53.7969C43.7908 53.7969 43.9122 53.686 43.9122 54.6469C43.9122 60.5599 43.9256 66.4729 43.8987 72.386C43.8987 72.965 44.0874 73.0882 44.6804 73.0882C47.3491 73.0635 50.0313 73.0758 52.7 73.0758C52.7269 72.8541 52.5113 72.8664 52.4035 72.8048C49.5461 71.1418 49.6 67.5077 52.5382 65.9432C52.8617 65.7708 52.9561 65.586 52.9561 65.2657C52.9426 63.6889 52.9561 62.0998 52.9426 60.5229C52.9426 60.1287 53.0504 59.9686 53.5087 59.9932C54.3443 60.0179 55.1665 60.0302 56.0022 59.9932C56.5008 59.9686 56.5952 60.1534 56.5952 60.5599C56.5682 62.1367 56.5952 63.7258 56.5817 65.3026C56.5817 65.5983 56.6222 65.82 56.9456 66.0295C59.8839 67.8773 59.7087 71.3142 56.5008 73.0389C61.9191 73.0389 67.2295 73.0389 72.5804 73.0389C72.2435 72.5584 72.2704 72.0041 72.2704 71.4498C72.2704 69.3925 72.2704 67.3476 72.2704 65.2903C72.2704 64.4526 72.0009 64.2063 71.1113 64.2063C70.6261 64.2063 70.1274 64.1816 69.6422 64.157C69.6152 64.157 69.6017 64.0954 69.5478 64.0092C70.06 63.7751 70.5991 63.9106 71.1113 63.8983C72.0143 63.8737 72.2704 63.6766 72.2704 62.8635C72.2704 61.915 72.2704 61.915 73.3487 61.915C73.3891 61.915 73.443 61.915 73.4835 61.915C74.6695 61.915 74.71 61.915 74.6695 62.9744C74.6561 63.3809 74.9526 63.5534 75.1413 63.7997C75.303 64.0215 75.9095 63.6396 75.9904 63.2454C76.0039 63.1715 75.9904 63.0853 76.0039 62.999C76.0308 61.9273 76.0308 61.9273 77.19 61.9273C77.4191 61.9273 77.6348 61.9396 77.8639 61.9273C78.2817 61.9026 78.3895 62.0874 78.4165 62.4447C78.43 62.7896 78.2278 63.1961 78.5782 63.4918C78.74 63.6273 78.74 64.0092 79.0904 63.8737C79.36 63.7628 79.5487 63.5287 79.6565 63.2577C79.6969 63.1715 79.67 63.0606 79.67 62.9497C79.6835 61.9273 79.6835 61.9273 80.8426 61.9273C80.91 61.9273 80.9774 61.9273 81.0448 61.9273C82.2578 61.9273 82.0826 61.8903 82.0961 62.8882C82.1095 63.6396 82.3926 63.886 83.2148 63.8983C83.5382 63.9106 83.8887 63.7874 84.1987 64.0584C83.9156 64.3418 83.5652 64.2063 83.2552 64.2063C82.433 64.2309 82.1095 64.5019 82.1095 65.2534C82.1095 67.4338 82.1095 69.6019 82.1095 71.7824C82.1095 72.2135 82.123 72.6447 81.7861 73.0019C82.0017 73.1621 82.2039 73.1005 82.3926 73.1005C87.4874 73.1005 92.5956 73.1005 97.6904 73.1128C98.243 73.1128 98.4048 72.9896 98.4048 72.4722C98.3778 67.8773 98.4048 63.2824 98.3778 58.6751C98.3778 58.1331 98.4856 57.936 99.1461 57.9483C104.025 57.9729 108.891 57.9729 113.77 57.9483C114.403 57.9483 114.606 58.0715 114.606 58.6874C114.579 62.2599 114.592 65.8324 114.606 69.4048C114.525 69.4664 114.417 69.4911 114.309 69.5034Z" fill="#5983AF"/>
<path d="M111.843 122.462C111.573 122.462 111.304 122.45 111.034 122.45C88.9569 122.45 66.8795 122.45 44.8021 122.45C43.8182 122.45 43.9395 122.326 43.9395 123.226C43.9395 129.176 43.9395 135.126 43.926 141.088C43.926 141.63 44.0608 141.79 44.6673 141.778C45.8804 141.728 47.0934 141.753 48.3065 141.765C48.7512 141.778 48.9399 141.679 48.9399 141.223C48.9265 136.936 48.9265 132.637 48.9399 128.35C48.9399 127.968 48.8456 127.759 48.3738 127.821C48.1582 127.845 47.9291 127.821 47.6999 127.821C47.3899 127.833 47.2417 127.71 47.2417 127.426C47.2417 126.995 47.2551 126.564 47.2282 126.133C47.2147 125.813 47.3765 125.689 47.7134 125.689C47.8751 125.689 48.0234 125.689 48.1851 125.689C55.8273 125.689 63.456 125.689 71.0982 125.689C71.9743 125.689 71.9743 125.689 71.9743 126.502C71.9743 126.564 71.9743 126.626 71.9743 126.687C71.9743 127.784 71.9743 127.796 70.7882 127.821C70.3569 127.833 70.2625 127.981 70.2625 128.338C70.276 132.649 70.276 136.961 70.2625 141.273C70.2625 141.642 70.3838 141.778 70.8017 141.778C71.9473 141.753 73.093 141.765 74.2386 141.778C74.5891 141.778 74.7104 141.667 74.6969 141.347C74.6834 140.607 74.6834 139.868 74.6969 139.129C74.7104 138.821 74.6025 138.698 74.2386 138.698C73.7265 138.698 73.066 138.907 72.7425 138.599C72.3786 138.242 72.6347 137.626 72.6212 137.109C72.5943 136.468 72.6347 135.84 72.6078 135.2C72.5808 134.781 72.7291 134.633 73.2143 134.645C74.1173 134.67 74.1173 134.645 74.1173 133.844C74.1173 133.044 74.1443 132.243 74.1038 131.442C74.0769 130.974 74.2521 130.851 74.7508 130.851C77.0691 130.876 79.3738 130.863 81.6921 130.863C87.663 130.863 93.6473 130.863 99.6182 130.863C100.521 130.863 100.521 130.863 100.521 131.713C100.521 132.6 100.494 133.475 100.535 134.362C100.548 134.781 100.413 134.928 99.9282 134.928C98.7017 134.916 98.7017 134.941 98.7017 136.074C98.7017 136.665 98.7286 137.269 98.6882 137.86C98.6612 138.304 98.8499 138.415 99.3082 138.402C100.279 138.378 101.236 138.415 102.206 138.39C102.664 138.378 102.853 138.513 102.826 138.944C102.799 139.708 102.839 140.46 102.813 141.223C102.799 141.655 102.947 141.827 103.419 141.765C103.527 141.753 103.648 141.753 103.756 141.765C104.309 141.852 104.47 141.655 104.47 141.137C104.443 136.431 104.457 131.738 104.457 127.032C104.457 126.256 104.457 126.256 105.333 126.256C106.95 126.256 108.568 126.256 110.185 126.256C110.428 126.256 110.684 126.293 110.913 126.17C110.873 126.293 110.832 126.404 110.792 126.527C110.509 126.749 110.158 126.712 109.835 126.712C108.46 126.724 107.099 126.712 105.724 126.712C105.023 126.712 104.956 126.773 104.956 127.426C104.942 128.473 104.969 129.521 104.942 130.568C104.929 131.06 105.131 131.27 105.683 131.257C106.694 131.233 107.705 131.245 108.716 131.257C109.026 131.257 109.349 131.233 109.592 131.479C109.565 131.676 109.646 131.886 109.471 132.058C108.244 131.997 107.004 132.021 105.778 132.021C105.023 132.021 104.956 132.083 104.956 132.748C104.942 135.446 104.942 138.156 104.956 140.854C104.956 141.519 105.05 141.581 105.764 141.618C106.223 141.642 106.708 141.507 107.139 141.79C107.126 141.913 107.206 142.061 107.072 142.172C106.829 141.95 106.519 142.061 106.236 142.061C85.6682 142.061 65.0869 142.061 44.5191 142.061C43.616 142.061 43.616 142.061 43.616 141.223C43.616 135.126 43.6295 129.028 43.6025 122.93C43.6025 122.376 43.7508 122.203 44.3843 122.203C66.7043 122.215 89.0378 122.215 111.358 122.215C111.533 122.215 111.722 122.228 111.897 122.228C111.87 122.289 111.856 122.376 111.843 122.462Z" fill="#5982AF"/>
<path d="M102.678 78.0768C102.489 77.8181 102.516 77.5102 102.57 77.2392C102.664 76.7094 102.408 76.6355 101.909 76.6355C82.8241 76.6478 63.7254 76.6478 44.6402 76.6355C44.101 76.6355 43.9123 76.7341 43.9123 77.2638C43.9393 83.3 43.9258 89.3363 43.9123 95.3725C43.9123 95.816 44.0067 95.9638 44.5323 95.9638C47.8345 95.9392 51.1367 95.9392 54.4389 95.9638C54.9241 95.9638 55.0454 95.8283 55.0319 95.4094C55.005 94.2761 55.0454 93.1551 55.0184 92.0218C55.005 91.5536 55.1263 91.3319 55.6923 91.3812C56.1776 91.4305 56.6763 91.3689 57.175 91.3935C57.5658 91.4181 57.741 91.3319 57.7276 90.9254C57.7006 89.8413 57.7006 88.7449 57.7276 87.6609C57.741 87.2544 57.5793 87.1435 57.148 87.1435C55.7058 87.1681 54.2771 87.1312 52.835 87.1558C52.3363 87.1681 52.1745 87.0203 52.188 86.5522C52.215 85.3819 52.215 84.2116 52.188 83.0413C52.1745 82.6348 52.2823 82.4623 52.781 82.4623C60.6658 82.4747 68.5506 82.4747 76.4354 82.4623C76.9341 82.4623 77.0284 82.6348 77.0149 83.0413C76.988 84.0268 77.0015 85.0123 77.0015 85.9978C77.0015 86.9587 76.8802 86.8232 77.945 86.8355C79.2658 86.8478 80.6002 86.8478 81.921 86.8355C82.3254 86.8355 82.5276 86.8971 82.5141 87.3283C82.4871 88.5602 82.4871 89.792 82.5141 91.0239C82.5141 91.3935 82.4063 91.5413 81.9884 91.5167C81.4493 91.492 80.9102 91.5167 80.371 91.5044C80.0476 91.492 79.8723 91.566 79.8723 91.9109C79.8858 93.1181 79.8993 94.3377 79.8723 95.5449C79.8589 95.9638 80.1284 95.9391 80.4384 95.9391C82.6219 95.9391 84.7919 95.9391 86.9754 95.9391C89.8732 95.9391 92.771 95.9268 95.6689 95.9268C95.6823 96.0131 95.6823 96.1116 95.6958 96.1978C79.8589 96.1978 64.0354 96.1978 48.1984 96.2102C46.8776 96.2102 45.5432 96.1978 44.2223 96.2225C43.7641 96.2348 43.5889 96.1239 43.5889 95.6805C43.6023 89.4225 43.6023 83.1645 43.5889 76.9065C43.5889 76.3152 43.9393 76.3768 44.3571 76.3768C60.8006 76.3768 77.2306 76.3768 93.6741 76.3768C96.6797 76.3768 99.6989 76.3768 102.705 76.3768C102.691 76.9435 102.691 77.5102 102.678 78.0768Z" fill="#5982AF"/>
<path d="M97.933 107.187C95.0891 107.174 92.2452 107.174 89.3878 107.162C88.9969 107.162 88.8891 107.285 88.9026 107.63C88.9161 111.215 88.9161 114.8 88.9026 118.384C88.9026 118.902 89.2126 118.865 89.59 118.865C94.1861 118.865 98.7822 118.865 103.378 118.865C103.567 118.89 103.675 119 103.783 119.111C103.486 119.111 103.203 119.124 102.906 119.124C83.4304 119.124 63.9678 119.124 44.4917 119.124C43.5887 119.124 43.5752 119.124 43.5752 118.298C43.5752 112.225 43.5752 106.152 43.5752 100.079C43.5752 99.2902 43.5752 99.2902 44.4513 99.2902C61.4743 99.2902 78.4974 99.2902 95.5204 99.2779C95.79 99.2779 96.2482 99.475 96.2482 98.9453C96.4369 99.1301 96.3291 99.3518 96.3426 99.5489C79.1443 99.5489 61.9461 99.5489 44.7343 99.5366C44.0604 99.5366 43.8852 99.6721 43.8852 100.3C43.9122 106.275 43.9122 112.25 43.8852 118.212C43.8852 118.717 44.02 118.89 44.5861 118.865C45.57 118.816 46.5674 118.84 47.5513 118.865C47.9961 118.877 48.1308 118.754 48.1039 118.347C47.8882 115.748 47.6861 113.149 47.4839 110.55C47.403 109.49 47.3491 108.418 47.2548 107.359C47.2278 107.014 47.3491 106.891 47.74 106.891C50.1256 106.903 52.4978 106.903 54.8835 106.891C55.3013 106.891 55.3417 107.051 55.3148 107.384C55.0452 110.673 54.8026 113.974 54.56 117.263C54.533 117.658 54.4926 118.04 54.4522 118.421C54.4117 118.729 54.5061 118.865 54.8835 118.865C55.9887 118.853 57.0804 118.84 58.1856 118.865C58.6708 118.877 58.7382 118.68 58.7382 118.311C58.7248 116.179 58.7382 114.036 58.7382 111.905C58.7382 109.404 58.7517 106.891 58.7248 104.39C58.7113 103.836 58.9 103.713 59.4795 103.713C66.0569 103.737 72.6343 103.737 79.2252 103.713C79.8991 103.713 80.0339 103.91 80.0339 104.476C80.0069 109.034 80.0339 113.592 80.0069 118.15C80.0069 118.717 80.1552 118.877 80.7887 118.865C83.1474 118.828 85.5061 118.828 87.8648 118.865C88.4848 118.877 88.5926 118.692 88.5926 118.175C88.5656 114.603 88.5791 111.03 88.5656 107.458C88.5656 107.051 88.6465 106.879 89.1452 106.879C92.043 106.903 94.9408 106.891 97.8387 106.903C97.8656 107.002 97.9061 107.088 97.933 107.187Z" fill="#5982AF"/>
<path d="M138.988 119.825C139.015 119.936 139.082 120.059 139.082 120.17C139.082 124.112 139.069 128.066 139.069 132.009C137.182 132.009 135.295 132.009 133.408 132.021C133.044 132.021 132.896 131.935 132.896 131.577C132.909 128.338 132.909 125.085 132.896 121.845C132.896 121.513 133.03 121.427 133.367 121.427C133.879 121.414 134.392 121.525 134.89 121.353C136.292 121.291 137.519 120.848 138.583 120.01C138.705 119.924 138.812 119.825 138.988 119.825Z" fill="#FEFEFE"/>
<path d="M107.719 141.753C108.231 139.56 108.73 137.367 109.255 135.175C109.525 134.041 109.821 132.92 110.104 131.787C110.805 131.479 111.547 131.614 112.274 131.676C112.692 131.713 112.733 132.07 112.746 132.391C112.76 133.142 112.746 133.906 112.746 134.657C112.746 136.739 112.746 138.833 112.746 140.915C112.746 141.851 112.692 141.901 111.708 141.901C110.617 141.901 109.511 141.901 108.42 141.901C108.177 141.901 107.907 141.95 107.719 141.753Z" fill="#FEFEFE"/>
<path d="M107.125 141.765C106.505 141.765 105.872 141.741 105.252 141.765C104.874 141.778 104.753 141.642 104.753 141.297C104.766 138.267 104.766 135.249 104.753 132.218C104.753 131.96 104.793 131.787 105.144 131.787C106.465 131.799 107.786 131.799 109.106 131.787C109.309 131.787 109.457 131.824 109.47 132.033C108.689 135.273 107.907 138.513 107.125 141.765Z" fill="#FEFEFE"/>
<path d="M109.591 131.466C108.149 131.466 106.72 131.466 105.278 131.491C104.86 131.503 104.739 131.368 104.739 130.998C104.753 129.68 104.766 128.374 104.739 127.056C104.726 126.625 104.86 126.489 105.332 126.502C107.152 126.526 108.971 126.514 110.791 126.514C110.387 128.165 109.982 129.816 109.591 131.466Z" fill="#FEFEFE"/>
<path d="M107.718 141.753C109.147 141.753 110.589 141.74 112.018 141.753C112.422 141.753 112.557 141.642 112.557 141.272C112.543 138.254 112.543 135.248 112.557 132.23C112.557 131.873 112.435 131.762 112.058 131.787C111.411 131.811 110.764 131.787 110.104 131.787C110.131 131.589 110.023 131.368 110.211 131.195C110.724 131.232 111.236 131.257 111.761 131.245C112.152 131.232 112.341 131.084 112.341 130.727C112.355 129.557 112.341 128.387 112.341 127.229C112.341 126.921 112.233 126.711 111.856 126.687C111.681 126.674 111.492 126.65 111.371 126.514C111.411 126.428 111.451 126.329 111.478 126.243C112.907 126.218 112.907 126.218 112.907 127.512C112.907 132.008 112.921 136.492 112.894 140.989C112.894 141.568 113.015 141.777 113.689 141.753C115.347 141.703 117.005 141.728 118.676 141.74C119.107 141.74 119.255 141.617 119.255 141.21C119.242 135.113 119.242 129.027 119.255 122.929C119.255 122.523 119.121 122.412 118.689 122.412C116.6 122.437 114.511 122.424 112.422 122.424C112.435 122.301 112.381 122.153 112.516 122.055C112.732 122.227 112.988 122.153 113.231 122.153C115.145 122.166 117.045 122.166 118.959 122.153C119.431 122.153 119.565 122.276 119.565 122.708C119.552 128.966 119.552 135.224 119.565 141.482C119.565 141.937 119.39 142.024 118.945 142.024C115.428 142.011 111.896 142.011 108.378 142.024C108.109 142.024 107.839 141.962 107.597 142.134C107.624 142.011 107.678 141.888 107.718 141.753Z" fill="#5D86B1"/>
<path d="M120.603 71.9297C121.223 72.9398 122.032 73.8022 123.083 74.455C123.434 74.6768 123.515 74.8616 123.312 75.2065C123.151 75.4898 123.043 75.7978 122.908 76.1058C122.814 76.2536 122.652 76.2782 122.504 76.2659C121.156 76.1427 119.808 76.0688 118.474 75.8348C118.406 75.8101 118.325 75.7732 118.271 75.7362C118.245 75.7116 118.218 75.6746 118.204 75.65C118.541 74.9601 118.905 74.2826 119.201 73.5804C119.485 72.8782 119.875 72.2869 120.603 71.9297Z" fill="#FD9993"/>
<path d="M119 85.5416C119.229 87.2786 117.288 88.4735 115.724 87.6604C114.889 87.2293 114.498 86.5394 114.579 85.6525C114.646 84.8641 115.293 84.1619 116.169 83.9278C116.425 83.8539 116.681 83.8662 116.722 83.509C116.991 80.8851 117.274 78.2489 117.544 75.6249C117.76 75.4155 117.989 75.4894 118.204 75.6249L118.191 75.6373C118.447 76.1916 118.245 76.7583 118.191 77.3126C118.002 79.2467 117.773 81.1931 117.571 83.1271C117.531 83.546 117.625 83.8047 118.056 84.0264C118.649 84.359 119.067 84.8394 119 85.5416Z" fill="#FDFEFE"/>
<path d="M111.357 126.515C112.543 126.49 112.543 126.49 112.543 127.599C112.543 128.683 112.517 129.767 112.557 130.851C112.584 131.381 112.382 131.541 111.829 131.479C111.452 131.442 111.074 131.467 110.683 131.467C110.454 131.467 110.225 131.479 110.198 131.184C110.603 129.631 110.98 128.079 111.357 126.515Z" fill="#FEFEFE"/>
<path d="M121.669 66.9034C121.561 67.0635 121.696 67.199 121.709 67.3469C121.372 68.4063 120.995 69.4534 120.213 70.328C120.092 70.2295 119.97 70.2788 119.836 70.3157C119.647 70.1186 119.445 69.9338 119.256 69.7244C118.744 69.1577 118.434 68.5295 118.784 67.815C119.135 67.1005 119.849 66.8664 120.644 66.8418C121.008 66.8418 121.332 66.8911 121.669 66.9034Z" fill="#FC9993"/>
<path d="M103.782 81.8953C104.025 81.4641 103.836 81.0083 103.917 80.5771C104.362 80.9221 104.807 81.267 105.265 81.6242C104.78 81.8337 104.267 81.7844 103.782 81.8953Z" fill="#E6E9EC"/>
<path d="M127.787 115.686C127.787 115.723 127.774 115.76 127.774 115.785C127.14 115.822 126.52 115.834 125.887 115.772C126.507 115.575 127.154 115.698 127.787 115.686Z" fill="#B0A8BB"/>
<path d="M154.461 123.176C153.383 118.963 152.304 114.738 151.226 110.524C150.741 108.64 150.283 106.743 149.77 104.858C148.962 101.889 145.956 100.214 142.681 100.891C141.899 101.051 141.104 101.199 140.322 101.347C140.093 101.113 140.106 100.879 140.322 100.645C144.002 100.632 147.681 100.632 151.374 100.62C154.029 100.62 156.671 100.62 159.326 100.62C162.224 100.62 164.165 102.406 164.165 105.067C164.165 112.705 164.165 120.343 164.165 127.968C164.165 128.177 164.152 128.374 164.152 128.584C163.936 128.781 163.666 128.769 163.397 128.769C161.2 128.769 159.003 128.769 156.806 128.769C156.563 128.769 156.307 128.781 156.105 128.621C155.701 126.945 155.283 125.27 154.879 123.595C154.811 123.398 154.838 123.139 154.461 123.176Z" fill="#FEFEFE"/>
<path d="M164.138 128.978C164.138 131.639 164.138 134.3 164.138 136.96C162.035 136.16 159.946 135.359 157.844 134.558C157.628 134.484 157.466 134.41 157.412 134.164C157.021 132.427 156.604 130.69 156.199 128.953C156.415 128.768 156.698 128.793 156.954 128.793C159.097 128.793 161.24 128.793 163.397 128.793C163.653 128.793 163.922 128.768 164.138 128.978Z" fill="#FEFEFE"/>
<path d="M164.138 128.978C161.483 128.978 158.841 128.966 156.186 128.966C156.065 128.879 156.078 128.756 156.092 128.645C158.774 128.633 161.456 128.621 164.138 128.608C164.138 128.732 164.138 128.855 164.138 128.978Z" fill="#5881AE"/>
<path d="M150.175 137.442C150.175 136.431 150.175 135.421 150.175 134.411C150.202 134.411 150.215 134.411 150.242 134.411C150.242 135.434 150.242 136.444 150.242 137.466C150.215 137.454 150.202 137.454 150.175 137.442Z" fill="#A84D22"/>
<path d="M143.395 92.1201C143.665 92.1324 143.934 92.1448 144.204 92.1448C158.329 92.1448 172.441 92.1694 186.566 92.1201C188.561 92.1201 189.626 93.2042 189.626 94.9042C189.585 105.905 189.599 116.906 189.626 127.894C189.626 128.473 189.491 128.658 188.83 128.645C181 128.621 173.155 128.633 165.324 128.633C165.122 128.633 164.92 128.621 164.718 128.621C164.704 127.044 164.691 125.455 164.691 123.878C164.691 117.682 164.691 111.485 164.691 105.277C164.691 102.086 162.561 100.164 159.057 100.164C155.04 100.164 151.01 100.164 146.994 100.164C146.751 100.164 146.509 100.164 146.28 100.164C146.226 99.9919 146.36 99.9056 146.414 99.8071C146.819 98.9817 146.293 98.2056 145.282 98.1933C144.204 98.181 143.126 98.1687 142.047 98.1933C141.656 98.2056 141.562 98.0824 141.562 97.7375C141.576 96.1114 141.589 94.4977 141.562 92.8716C141.549 92.3295 141.764 92.1201 142.33 92.1324C142.667 92.1448 143.031 92.1201 143.395 92.1201Z" fill="#FEFEFE"/>
<path d="M169.273 141.309C168.896 139.708 167.993 138.488 166.308 137.811C165.782 137.601 165.243 137.404 164.704 137.207C164.704 134.46 164.704 131.7 164.69 128.953C171.025 128.953 177.347 128.941 183.681 128.941C185.433 128.941 187.186 128.953 188.938 128.929C189.41 128.929 189.612 129.003 189.612 129.495C189.585 132.637 189.612 135.778 189.598 138.907C189.598 140.41 188.574 141.371 186.983 141.371C181.255 141.383 175.54 141.371 169.812 141.371C169.623 141.383 169.448 141.334 169.273 141.309Z" fill="#FEFEFE"/>
<path d="M115.091 100.189C114.349 98.3534 113.864 96.444 113.204 94.5838C113.055 94.165 113.352 94.2143 113.621 94.2143C115.414 94.2143 117.207 94.2143 118.986 94.2143C119.255 94.2143 119.525 94.1896 119.795 94.1773C120.037 94.0541 120.307 94.0541 120.576 94.0541C121.088 94.0541 121.614 94.0295 122.126 94.0541C124.35 94.2019 126.507 93.9309 128.555 93.1179C129.431 92.8715 130.308 92.6128 131.184 92.3787C131.44 92.3048 131.696 92.2063 131.965 92.2802C132.262 92.2063 132.572 92.1324 132.868 92.0585C133.556 91.886 134.149 92.0708 134.27 92.5512C134.405 93.1179 133.893 93.2903 133.475 93.5244C132.626 93.9925 131.709 93.8324 130.806 93.857C130.604 93.8693 130.402 93.857 130.2 93.857C129.984 93.857 129.782 93.894 129.782 94.1527C129.782 94.3744 129.971 94.4114 130.159 94.4114C130.766 94.4114 131.372 94.436 131.979 94.399C133.879 94.2635 135.726 94.5469 137.559 94.9903C138.273 95.1628 138.664 95.7048 138.974 96.3454C137.95 96.3454 136.979 96.3454 136.009 96.3454C135.631 96.3454 135.241 96.3331 134.863 96.3331C134.648 96.3331 134.365 96.2838 134.338 96.5795C134.311 96.9121 134.634 96.8874 134.863 96.8998C136.076 96.9244 137.289 96.9614 138.502 96.949C138.961 96.949 139.122 97.0476 139.095 97.4911C139.082 97.8729 138.947 97.9715 138.543 97.9592C137.357 97.9222 136.171 97.9099 134.971 97.9099C134.715 97.9099 134.297 97.7744 134.297 98.1809C134.297 98.5258 134.688 98.4396 134.944 98.4396C136.265 98.4519 137.586 98.4396 138.947 98.4396C138.583 99.6592 137.909 100.152 136.723 100.152C129.782 100.152 122.841 100.152 115.913 100.152C115.63 100.164 115.36 100.177 115.091 100.189Z" fill="#FD9993"/>
<path d="M131.979 92.2809C130.928 92.6751 129.836 92.9461 128.744 93.2294C128.609 93.1555 128.515 93.0323 128.488 92.8845C128.245 91.862 127.908 90.8519 127.693 89.8294C128.057 89.3736 127.908 88.8316 127.976 88.3389C128.178 86.8606 128.353 85.37 128.461 83.8794C128.555 82.5613 127.908 81.8099 126.493 81.6004C125.954 81.5265 125.941 81.3664 125.995 80.9352C126.183 79.6418 126.305 78.336 126.426 77.0302C126.453 76.6606 126.561 76.5744 126.952 76.7099C128.218 77.1287 129.122 77.8925 129.634 79.0504C130.618 81.2678 131.359 83.5715 132.114 85.8628C131.992 86.0722 131.992 86.2939 131.992 86.5157C131.979 88.4374 131.979 90.3591 131.979 92.2809Z" fill="#6DB5DE"/>
<path d="M126.669 71.0918C126.345 71.0794 126.143 70.8823 125.914 70.7222C125.469 70.1309 125.011 69.5519 125.173 68.7635C125.375 67.7041 126.426 66.928 127.572 67.0389C128.758 67.1621 129.607 68.049 129.58 69.1331C129.553 70.2048 128.61 71.0671 127.424 71.0918C127.168 71.0918 126.912 71.0918 126.669 71.0918Z" fill="#FD9993"/>
<path d="M140.026 101.384C139.042 101.593 138.044 101.803 137.06 102.012C134.648 101.877 132.235 101.717 129.823 101.643C128.973 101.618 129.256 101.002 129.027 100.657C132.693 100.657 136.36 100.657 140.026 100.657C140.228 100.904 140.214 101.138 140.026 101.384Z" fill="#FEFEFE"/>
<path d="M132.451 68.949C132.923 68.9983 133.287 69.2201 133.597 69.5157C134.19 70.0824 134.203 70.3288 133.678 70.9447C133.233 71.4744 132.734 71.9795 132.343 72.5461C132.047 72.9896 131.737 72.9896 131.305 72.8295C131.036 72.7309 130.753 72.6693 130.578 72.4476C130.51 71.8563 130.874 71.3759 131.036 70.8338C131.171 70.6121 131.251 70.378 131.278 70.1316C131.319 69.9345 131.386 69.7374 131.44 69.5403C131.575 69.0599 131.871 68.8135 132.451 68.949Z" fill="#FEFEFE"/>
<path d="M132.451 68.9483C131.965 68.899 131.709 69.0838 131.642 69.5396C131.602 69.7737 131.48 70.0077 131.399 70.2295C131.238 70.3157 130.955 70.1925 130.874 70.4142C130.779 70.6483 131.089 70.6853 131.17 70.8331C131.062 71.3997 130.833 71.9295 130.591 72.4469C130.523 72.4469 130.442 72.4469 130.375 72.4469C130.321 72.3976 130.267 72.336 130.213 72.2867C130.267 72.0526 130.052 71.9171 129.971 71.7324C129.647 70.9686 129.715 70.2295 130.321 69.6012C130.86 69.0345 131.575 68.7266 132.451 68.9483Z" fill="#FB9893"/>
<path d="M136.239 75.7733C136.603 76.4878 136.967 77.19 137.344 77.9045C137.277 77.9414 137.196 77.9661 137.128 78.003C136.576 77.0298 135.915 76.1059 135.592 75.0342C135.767 75.145 135.942 75.2682 136.117 75.3791C136.185 75.5023 136.212 75.6378 136.239 75.7733Z" fill="#6188B1"/>
<path d="M129.526 72.0894C128.92 71.8923 128.3 71.6829 127.693 71.4858C128.286 71.535 128.731 71.2148 129.203 70.9561C129.311 71.3503 129.419 71.7198 129.526 72.0894Z" fill="#F89893"/>
<path d="M140.025 101.384C140.025 101.15 140.025 100.904 140.025 100.67C140.12 100.67 140.228 100.67 140.322 100.67C140.322 100.904 140.322 101.138 140.322 101.372C140.214 101.36 140.12 101.372 140.025 101.384Z" fill="#5882AE"/>
<path d="M136.238 75.7731C136.13 75.6622 135.995 75.5514 136.103 75.3789C136.197 75.4651 136.305 75.5391 136.4 75.6253C136.359 75.6746 136.305 75.7238 136.238 75.7731Z" fill="#BFCFDF"/>
<path d="M189.895 125.886C189.895 124.063 189.909 122.24 189.882 120.417C189.882 120.01 189.949 119.838 190.461 119.85C192.429 119.875 194.411 119.875 196.378 119.85C196.796 119.85 196.971 119.924 196.958 120.355C196.944 124.063 196.944 127.771 196.958 131.492C196.958 131.873 196.877 132.046 196.405 132.034C194.411 132.009 192.416 132.009 190.421 132.034C189.936 132.034 189.882 131.849 189.882 131.492C189.895 129.619 189.895 127.747 189.895 125.886Z" fill="#FEFEFE"/>
<path d="M181.404 146.582C180.42 146.582 179.436 146.57 178.439 146.594C178.021 146.606 177.846 146.52 177.859 146.089C177.886 144.783 177.886 143.465 177.859 142.159C177.846 141.741 178.021 141.654 178.439 141.654C180.407 141.667 182.388 141.667 184.356 141.654C184.773 141.654 184.949 141.741 184.935 142.159C184.908 143.465 184.908 144.783 184.935 146.089C184.949 146.508 184.773 146.606 184.356 146.594C183.385 146.57 182.388 146.582 181.404 146.582Z" fill="#FEFEFE"/>
<path d="M181.256 45.2228C181.256 52.2568 181.242 59.3032 181.269 66.3373C181.269 66.8916 181.107 67.0148 180.514 67.0148C169.462 67.0025 158.424 67.0025 147.371 67.0148C146.751 67.0148 146.644 66.8423 146.644 66.3249C146.657 52.2445 146.657 38.1641 146.644 24.0836C146.644 23.517 146.819 23.3691 147.425 23.3691C158.451 23.3815 169.476 23.3815 180.501 23.3691C181.148 23.3691 181.269 23.5539 181.269 24.096C181.256 31.1423 181.256 38.1764 181.256 45.2228Z" fill="#FEFEFE"/>
<path d="M81.5701 50.4824C69.197 50.4824 56.824 50.4824 44.4375 50.4948C43.7635 50.4948 43.5614 50.3469 43.5748 49.7064C43.6018 45.481 43.5883 41.2433 43.5883 37.0179C43.5883 33.2361 46.4861 30.5752 50.624 30.5752C71.2457 30.5752 91.8675 30.5752 112.476 30.5752C116.667 30.5752 119.552 33.1991 119.552 37.0303C119.552 41.2803 119.538 45.5303 119.565 49.7803C119.565 50.3716 119.363 50.4948 118.77 50.4948C106.357 50.4824 93.9566 50.4824 81.5701 50.4824Z" fill="#5B84B0"/>
<path d="M127.693 89.8409C127.855 89.9764 127.976 90.1242 128.017 90.3336C128.259 91.3068 128.502 92.28 128.744 93.2409C127.006 93.8568 125.267 94.3619 123.353 94.2387C122.181 94.1525 120.981 94.2017 119.795 94.1894C119.579 91.5162 119.364 88.843 119.134 86.1699C119.107 85.8865 119.067 85.6032 119.027 85.3199C118.676 84.7162 118.744 84.051 118.703 83.4104C118.555 81.0452 118.285 78.6923 118.231 76.3271C118.231 76.1177 118.204 75.8836 118.353 75.6865C119.876 75.822 121.385 75.9575 122.908 76.093C123.407 76.1546 123.892 76.2162 124.391 76.2778C124.485 76.3641 124.593 76.4503 124.62 76.5735C124.997 77.9901 125.55 79.3945 125.375 80.8974C125.429 81.4271 125.146 81.5873 124.499 81.3901C125.591 84.2604 126.642 87.0445 127.693 89.8409Z" fill="black"/>
<path d="M118.366 75.6873C118.595 78.7547 118.824 81.8221 119.04 84.8895C119.054 85.0373 119.04 85.1729 119.04 85.3207C119.027 85.3946 119 85.4685 118.986 85.5424C118.757 84.8279 118.353 84.2489 117.531 83.9902C117.328 83.9286 117.274 83.7931 117.301 83.6084C117.544 81.5018 117.787 79.3953 118.029 77.2888C118.097 76.7468 118.151 76.1924 118.204 75.6504C118.258 75.6627 118.312 75.675 118.366 75.6873Z" fill="#6DB5DE"/>
<path d="M149.865 116.906C149.865 115.145 149.865 113.383 149.865 111.609C149.851 108.665 147.412 106.435 144.191 106.423C142.304 106.411 140.417 106.435 138.543 106.324C138.381 106.312 138.139 106.374 138.098 106.164C138.058 105.93 138.287 105.918 138.462 105.918C140.767 105.979 143.085 105.758 145.39 106.066C148.072 106.423 150.148 108.517 150.31 110.981C150.552 114.898 150.377 118.816 150.431 122.733C150.431 122.893 150.512 123.164 150.202 123.152C149.892 123.152 149.905 122.893 149.905 122.684C149.905 120.75 149.905 118.828 149.905 116.894C149.878 116.906 149.878 116.906 149.865 116.906Z" fill="#FEFDFD"/>
<path d="M120.227 70.3278C120.725 69.33 121.224 68.3445 121.723 67.3467C122.181 67.9133 122.639 68.4677 123.111 69.0344C123.165 69.1945 123.178 69.3546 123.084 69.5148C122.653 70.2909 122.087 70.9684 121.359 71.5228C121.278 71.5844 121.17 71.6213 121.049 71.5844C120.766 71.1655 120.496 70.7467 120.227 70.3278Z" fill="#010101"/>
<path d="M121.035 71.5852C121.911 70.8583 122.693 70.0823 123.097 69.0352C123.178 69.1337 123.246 69.2323 123.313 69.3308C124 70.3163 124 70.3286 123.097 71.191C122.841 71.4373 122.531 71.6591 122.248 71.8808C121.48 72.4598 121.466 72.4598 121.035 71.5852Z" fill="#FD9A94"/>
<path d="M125.375 80.8856C125.388 79.395 124.755 78.0153 124.445 76.574C124.418 76.4754 124.404 76.3769 124.391 76.2783C125.887 76.4385 125.873 76.4385 125.725 77.7319C125.617 78.7914 125.496 79.8385 125.375 80.8856Z" fill="#6CB4DC"/>
<path d="M106.478 58.2311C108.864 58.2311 111.236 58.2434 113.622 58.2188C114.12 58.2188 114.309 58.3419 114.269 58.8101C114.228 59.3398 114.228 59.8818 114.269 60.4115C114.309 60.8919 114.147 61.0398 113.595 61.0398C110.603 61.0151 107.624 61.0274 104.632 61.0274C102.839 61.0274 101.033 61.0151 99.2403 61.0398C98.7551 61.0521 98.6203 60.9043 98.6473 60.4854C98.6877 59.9803 98.7012 59.4506 98.6473 58.9456C98.5664 58.3173 98.8495 58.2188 99.4695 58.2188C101.815 58.2434 104.146 58.2311 106.478 58.2311Z" fill="#FEFEFE"/>
<path d="M54.6817 69.2321C53.5091 69.2321 52.35 69.2075 51.1908 69.2445C50.6921 69.2568 50.6247 69.072 50.7056 68.7024C50.9617 67.5691 51.6086 66.6945 52.7273 66.1647C53.1721 65.9553 53.2665 65.7213 53.2665 65.3024C53.2395 63.7872 53.2665 62.272 53.253 60.7568C53.253 60.3626 53.3473 60.2024 53.8056 60.2271C54.4256 60.264 55.0591 60.264 55.6926 60.2271C56.1913 60.2024 56.2856 60.3872 56.2721 60.7937C56.2452 62.3459 56.2721 63.9104 56.2586 65.4626C56.2586 65.8075 56.3665 66.0046 56.7169 66.1894C57.7817 66.7437 58.4286 67.606 58.6578 68.7147C58.7386 69.0966 58.6713 69.2568 58.186 69.2321C57.0134 69.2075 55.8543 69.2321 54.6817 69.2321Z" fill="#FEFEFE"/>
<path d="M54.7213 69.5035C55.8669 69.5035 57.0126 69.5281 58.1448 69.4911C58.63 69.4788 58.7108 69.6513 58.6569 70.0332C58.4143 71.7578 56.6082 73.0882 54.5326 73.0636C52.6321 73.039 50.853 71.5853 50.6778 69.9469C50.6374 69.5897 50.7721 69.4788 51.1495 69.4911C52.3356 69.5158 53.5352 69.5035 54.7213 69.5035Z" fill="#FEFEFE"/>
<path d="M110.4 65.4751C110.4 64.2801 110.414 63.0975 110.387 61.9026C110.373 61.4838 110.495 61.3359 110.98 61.3359C112.166 61.3483 112.166 61.3236 112.166 62.3954C112.166 64.6251 112.152 66.8671 112.179 69.0968C112.179 69.5896 112.058 69.7743 111.478 69.7497C110.4 69.7128 110.4 69.7374 110.4 68.7765C110.4 67.6925 110.4 66.5838 110.4 65.4751Z" fill="#FEFEFE"/>
<path d="M74.4002 69.3802C74.4002 70.2795 74.4002 71.1788 74.4002 72.078C74.4002 72.6447 74.0228 73.0266 73.4972 73.0266C72.9985 73.0266 72.6346 72.6693 72.6346 72.115C72.6211 70.2548 72.6346 68.3824 72.6211 66.5222C72.6211 66.2019 72.7424 66.1034 73.0928 66.0911C74.4002 66.0295 74.4002 66.0295 74.4002 67.2121C74.4002 67.9512 74.4002 68.6657 74.4002 69.3802Z" fill="#FEFEFE"/>
<path d="M76.3002 73.0387C75.6398 73.0387 75.0737 73.0387 74.4268 73.0387C74.7772 72.4597 74.6828 71.8561 74.6828 71.2524C74.6828 69.2568 74.7233 67.2734 74.6559 65.2778C74.6424 64.822 75.0063 64.6126 75.1141 64.2553C75.1546 64.1198 75.4646 64.1198 75.5185 64.2307C75.6668 64.5633 76.0307 64.7727 76.0172 65.2285C75.9768 67.409 76.0037 69.5771 76.0037 71.7575C76.0037 72.1887 75.9498 72.6198 76.3002 73.0387Z" fill="#FDFDFD"/>
<path d="M79.9664 73.0257C79.3195 73.0257 78.7534 73.0257 78.1064 73.0257C78.4838 72.3975 78.403 71.7323 78.403 71.067C78.403 69.1576 78.4299 67.2605 78.3895 65.3511C78.376 64.9199 78.6051 64.6366 78.7804 64.2917C78.8747 64.0946 79.1443 64.0946 79.2656 64.267C79.4812 64.5997 79.7104 64.8953 79.7104 65.3511C79.6564 67.4207 79.6834 69.4902 79.6834 71.5598C79.6564 72.0526 79.616 72.5453 79.9664 73.0257Z" fill="#FDFDFD"/>
<path d="M81.7321 69.7125C81.7321 70.5133 81.7321 71.3017 81.7321 72.1024C81.7321 72.6321 81.4895 72.977 80.8964 73.0263C80.3842 73.0756 79.9664 72.6691 79.9529 72.1147C79.9395 70.464 79.9529 68.8009 79.9395 67.1502C79.9395 66.8669 80.0338 66.7683 80.3573 66.7437C81.7321 66.6575 81.7321 66.6451 81.7321 67.877C81.7321 68.493 81.7321 69.1089 81.7321 69.7125Z" fill="#FDFDFD"/>
<path d="M76.2865 70.3779C76.2865 69.8113 76.3 69.2323 76.2865 68.6656C76.2731 68.3576 76.3539 68.2344 76.7313 68.2221C78.0657 68.1728 78.0657 68.1605 78.0657 69.3801C78.0657 70.2794 78.0657 71.1786 78.0657 72.0779C78.0657 72.6815 77.7287 73.0265 77.1896 73.0388C76.6639 73.0511 76.3 72.6692 76.3 72.0902C76.2865 71.5236 76.2865 70.9569 76.2865 70.3779Z" fill="#FEFEFE"/>
<path d="M78.0664 66.0661C78.0664 66.3987 78.0664 66.719 78.0664 67.0516C78.0529 68.0494 78.2146 67.8769 77.0959 67.9385C76.449 67.9755 76.2333 67.803 76.2872 67.1994C76.3546 66.3617 76.3277 65.524 76.3007 64.6863C76.2872 64.2798 76.4355 64.169 76.8803 64.169C78.0798 64.169 78.0798 64.1566 78.0798 65.2653C78.0664 65.5363 78.0664 65.795 78.0664 66.0661Z" fill="#FEFEFE"/>
<path d="M81.7323 65.3518C81.7323 65.3764 81.7323 65.3887 81.7323 65.4134C81.6783 65.746 81.921 66.2387 81.584 66.3743C81.1931 66.5344 80.6675 66.4359 80.1957 66.4235C79.9531 66.4235 79.9531 66.2264 79.9531 66.054C79.9531 65.746 79.9531 65.438 79.9531 65.1301C79.9666 63.9844 79.8318 64.2061 81.0179 64.1445C81.557 64.1199 81.8131 64.2431 81.7323 64.7728C81.7053 64.9822 81.7323 65.167 81.7323 65.3518Z" fill="#FDFDFE"/>
<path d="M74.4004 64.8961C74.387 65.9062 74.5217 65.7461 73.4839 65.8076C72.7965 65.8446 72.5539 65.6721 72.6078 65.0192C72.6752 63.9598 72.5809 64.2432 73.6052 64.1569C74.4274 64.083 74.4813 64.4526 74.4004 64.8961Z" fill="#FDFEFE"/>
<path d="M81.7318 62.9252C81.7318 63.8614 81.7318 63.8614 80.7748 63.8614C79.9526 63.8614 79.9392 63.8614 79.9526 62.9622C79.9661 62.0875 79.8448 62.26 80.9096 62.1984C81.6644 62.1368 81.88 62.3955 81.7318 62.9252Z" fill="#FBFCFD"/>
<path d="M77.0692 62.1981C78.1879 62.2227 78.0531 62.0749 78.0531 63.0358C78.0531 63.9597 78.1474 63.8488 77.1501 63.8488C76.1392 63.8488 76.3414 63.9227 76.2605 62.9372C76.2201 62.2474 76.5166 62.0872 77.0692 62.1981Z" fill="#FEFEFE"/>
<path d="M74.3996 62.9002C74.3996 63.861 74.3996 63.861 73.537 63.861C72.5126 63.861 72.6205 63.9719 72.6205 62.9864C72.6205 62.0871 72.4992 62.2473 73.5505 62.1857C74.2513 62.1487 74.5883 62.3089 74.3996 62.9002Z" fill="#FCFCFD"/>
<path d="M59.5743 141.753C56.3396 141.753 53.1048 141.741 49.87 141.766C49.3443 141.766 49.1826 141.655 49.1961 141.162C49.223 136.912 49.2096 132.662 49.1961 128.412C49.1961 127.968 49.2904 127.808 49.8161 127.808C51.7704 127.833 53.7248 127.833 55.6791 127.808C56.2048 127.796 56.3396 127.956 56.3126 128.412C56.2722 129.052 56.3126 129.681 56.2991 130.321C56.2856 130.654 56.3935 130.802 56.7843 130.802C58.6443 130.789 60.5178 130.789 62.3778 130.802C62.7956 130.802 62.9169 130.642 62.9169 130.284C62.9035 129.607 62.9304 128.929 62.9035 128.252C62.89 127.944 63.0113 127.821 63.3617 127.821C65.4104 127.833 67.4456 127.833 69.4943 127.821C69.8448 127.821 69.9661 127.919 69.9661 128.239C69.9526 132.613 69.9526 136.986 69.9661 141.359C69.9661 141.839 69.6426 141.753 69.3461 141.753C66.0978 141.753 62.8361 141.753 59.5743 141.753Z" fill="#FEFEFE"/>
<path d="M87.2181 134.632C83.1746 134.632 79.1446 134.62 75.1011 134.645C74.5351 134.645 74.3733 134.509 74.4003 133.992C74.4542 133.24 74.4407 132.477 74.4003 131.713C74.3733 131.232 74.562 131.134 75.0472 131.134C80.169 131.146 85.2772 131.146 90.399 131.146C93.4316 131.146 96.4642 131.158 99.4833 131.134C100.063 131.134 100.211 131.294 100.184 131.787C100.144 132.526 100.13 133.265 100.184 134.004C100.225 134.546 99.9955 134.632 99.4698 134.632C95.3859 134.632 91.302 134.632 87.2181 134.632Z" fill="#FEFEFE"/>
<path d="M85.6545 138.378C81.6784 138.378 77.7023 138.353 73.7262 138.39C73.0119 138.402 72.8501 138.205 72.9041 137.601C72.958 136.887 72.9445 136.16 72.9041 135.446C72.8906 135.027 73.0119 134.879 73.4971 134.891C74.6832 134.928 75.8828 134.904 77.0688 134.904C83.9158 134.904 90.7628 134.916 97.6097 134.891C98.2836 134.891 98.4588 135.064 98.4049 135.643C98.351 136.32 98.351 136.998 98.4049 137.675C98.4454 138.23 98.2702 138.402 97.6367 138.402C93.6471 138.365 89.6575 138.378 85.6545 138.378Z" fill="#FEFEFE"/>
<path d="M88.6871 141.753C84.3606 141.753 80.0206 141.74 75.694 141.765C75.1414 141.765 74.9393 141.642 74.9662 141.112C75.0067 140.434 74.9932 139.757 74.9797 139.079C74.9797 138.796 75.074 138.648 75.3975 138.685C75.5054 138.697 75.6267 138.685 75.7345 138.685C84.401 138.685 93.0675 138.685 101.734 138.673C102.314 138.673 102.543 138.784 102.489 139.338C102.435 139.905 102.435 140.496 102.489 141.063C102.556 141.666 102.287 141.765 101.694 141.765C97.3536 141.74 93.0271 141.753 88.6871 141.753Z" fill="#FEFEFE"/>
<path d="M59.5738 125.998C63.3612 125.998 67.162 126.022 70.9494 125.973C71.7581 125.961 71.5964 126.367 71.6099 126.786C71.6368 127.217 71.6503 127.525 70.936 127.525C63.3747 127.5 55.8133 127.5 48.252 127.525C47.5107 127.525 47.5512 127.205 47.5512 126.749C47.5512 126.281 47.5242 125.973 48.252 125.973C52.026 126.022 55.7999 125.998 59.5738 125.998Z" fill="#FEFEFE"/>
<path d="M59.574 130.481C58.7653 130.481 57.9566 130.457 57.148 130.494C56.6897 130.506 56.5684 130.358 56.5953 129.964C56.6223 129.385 56.6223 128.818 56.5953 128.239C56.5819 127.919 56.7166 127.82 57.0671 127.82C58.7519 127.833 60.4366 127.833 62.1214 127.82C62.4853 127.82 62.5932 127.944 62.5797 128.251C62.5662 128.843 62.5527 129.446 62.5797 130.038C62.5932 130.395 62.4314 130.494 62.0675 130.481C61.2453 130.469 60.4097 130.481 59.574 130.481Z" fill="#FEFEFE"/>
<path d="M64.6278 82.7701C68.4286 82.7701 72.216 82.7825 76.0169 82.7578C76.583 82.7578 76.7447 82.8933 76.7178 83.3984C76.6773 84.3346 76.6639 85.2832 76.7178 86.2317C76.7447 86.7614 76.556 86.8723 76.0034 86.8723C69.1295 86.86 62.2556 86.86 55.3952 86.86C54.6134 86.86 53.8182 86.8477 53.0365 86.8723C52.6591 86.8846 52.5378 86.7614 52.5378 86.4165C52.5513 85.394 52.5782 84.3593 52.5378 83.3368C52.5243 82.8564 52.713 82.7701 53.1847 82.7701C56.9991 82.7825 60.8134 82.7701 64.6278 82.7701Z" fill="#FEFEFE"/>
<path d="M67.5399 91.6647C71.3138 91.6647 75.0742 91.677 78.8481 91.6523C79.4142 91.6523 79.5625 91.8002 79.549 92.3052C79.5086 93.1799 79.5355 94.0668 79.5355 94.9538C79.5355 95.8407 79.6568 95.7545 78.6864 95.7545C71.9742 95.7545 65.262 95.7545 58.5499 95.7545C57.6738 95.7545 56.7977 95.7299 55.9216 95.7668C55.4768 95.7792 55.342 95.6313 55.3555 95.2371C55.3825 94.2763 55.396 93.3031 55.3555 92.3422C55.3286 91.8125 55.4768 91.6523 56.0968 91.6523C59.9112 91.6893 63.7255 91.6647 67.5399 91.6647Z" fill="#FEFEFE"/>
<path d="M70.0866 91.2704C66.3126 91.2704 62.5387 91.2581 58.7648 91.2827C58.1583 91.2827 58.01 91.1225 58.0235 90.5928C58.0639 89.6689 58.0639 88.745 58.0235 87.8211C57.9966 87.316 58.1448 87.1436 58.7244 87.1559C60.5035 87.1928 62.2692 87.1682 64.0483 87.1682C69.8709 87.1682 75.68 87.1805 81.5026 87.1559C82.0418 87.1559 82.2574 87.2544 82.217 87.7965C82.1631 88.6957 82.1631 89.6073 82.217 90.5066C82.2574 91.0979 82.1092 91.295 81.3948 91.295C77.6344 91.2581 73.8605 91.2704 70.0866 91.2704Z" fill="#FEFEFE"/>
<path d="M69.3455 111.276C66.1377 111.276 62.9298 111.264 59.7085 111.288C59.1424 111.288 58.9942 111.141 59.0077 110.636C59.0346 108.603 59.0346 106.57 59.0077 104.538C59.0077 104.107 59.1424 103.983 59.6142 103.983C66.0972 103.996 72.5937 103.996 79.0768 103.983C79.5485 103.983 79.6833 104.119 79.6698 104.538C79.6429 106.595 79.6429 108.64 79.6698 110.697C79.6698 111.153 79.5351 111.288 79.0229 111.288C75.8151 111.264 72.5803 111.276 69.3455 111.276Z" fill="#FEFEFE"/>
<path d="M69.3594 118.852C66.1246 118.852 62.8899 118.839 59.6686 118.864C59.1564 118.864 59.0216 118.741 59.0351 118.273C59.062 116.215 59.062 114.171 59.0351 112.113C59.0351 111.682 59.1699 111.571 59.6416 111.571C66.1246 111.584 72.6212 111.584 79.1042 111.571C79.5759 111.571 79.7107 111.682 79.7107 112.126C79.6838 114.183 79.6838 116.228 79.7107 118.285C79.7107 118.753 79.5625 118.864 79.0638 118.864C75.8155 118.839 72.5807 118.852 69.3594 118.852Z" fill="#FEFEFE"/>
<path d="M51.3255 107.162C52.3769 107.162 53.4416 107.174 54.4929 107.149C54.8973 107.137 55.0455 107.236 55.0186 107.63C54.8568 109.638 54.7086 111.633 54.5603 113.641C54.439 115.194 54.3042 116.746 54.2099 118.298C54.1829 118.717 54.0482 118.865 53.5764 118.852C52.0534 118.828 50.5303 118.828 48.9938 118.852C48.6029 118.852 48.4412 118.741 48.4142 118.372C48.1986 115.243 47.956 112.114 47.7134 108.985C47.6729 108.529 47.646 108.086 47.5921 107.642C47.5382 107.273 47.6595 107.137 48.0908 107.149C49.169 107.186 50.2473 107.162 51.3255 107.162Z" fill="#FEFEFE"/>
<path d="M118.353 85.9606C118.326 86.7613 117.611 87.3773 116.722 87.3403C115.859 87.3157 115.145 86.6382 115.158 85.8621C115.158 85.086 115.981 84.3715 116.816 84.3961C117.733 84.4331 118.38 85.0983 118.353 85.9606Z" fill="#6DB5DE"/>
<path d="M127.814 69.0224C127.801 69.2688 127.666 69.4166 127.397 69.4166C127.167 69.4166 127.006 69.2935 126.992 69.084C126.965 68.8377 127.127 68.6775 127.383 68.6652C127.612 68.6406 127.787 68.7637 127.814 69.0224Z" fill="#100A09"/>
<path d="M131.157 70.8331C130.901 70.8331 130.659 70.8085 130.591 70.5251C130.551 70.3773 130.605 70.2418 130.74 70.1433C130.982 69.9708 131.198 70.0817 131.4 70.2295C131.467 70.4882 131.386 70.6853 131.157 70.8331Z" fill="#0C0909"/>
<path d="M178.425 45.1604C178.425 51.2582 178.412 57.3437 178.439 63.4415C178.439 64.0082 178.277 64.1684 177.657 64.1684C169.193 64.1437 160.728 64.156 152.264 64.1684C151.657 64.1684 151.469 64.0328 151.469 63.4539C151.482 51.2213 151.482 38.9886 151.469 26.7684C151.469 26.214 151.63 26.0908 152.21 26.0908C160.701 26.1031 169.179 26.1155 177.67 26.0908C178.304 26.0908 178.439 26.2633 178.439 26.8176C178.425 32.9278 178.425 39.0379 178.425 45.1604Z" fill="#5D85B1"/>
<path d="M81.5704 30.8957C91.9217 30.8957 102.273 30.8957 112.638 30.8957C115.886 30.8957 118.406 32.6943 119.08 35.4907C119.188 35.9464 119.242 36.4269 119.242 36.895C119.256 41.108 119.242 45.3088 119.256 49.5218C119.256 50.0392 119.107 50.1747 118.541 50.1747C113.514 50.1501 108.473 50.1624 103.446 50.1624C102.502 50.1624 102.516 50.1624 102.583 49.2262C102.853 45.7522 103.109 42.266 103.405 38.7921C103.446 38.3486 103.351 38.1885 102.812 38.1885C100.521 38.2131 98.2295 38.2131 95.9382 38.1885C95.426 38.1885 95.3047 38.3117 95.3586 38.7921C95.5878 41.3421 95.763 43.9044 95.9517 46.4667C96.0325 47.5138 96.0999 48.5486 96.2078 49.5957C96.2482 50.0022 96.1673 50.1747 95.6552 50.1747C90.6278 50.1624 85.5869 50.1624 80.5595 50.1747C80.1147 50.1747 79.9799 50.0515 79.9934 49.645C80.0069 47.5754 80.0204 45.4935 79.9934 43.424C79.9934 42.9682 80.1821 42.882 80.6269 42.882C82.1769 42.9066 83.7269 42.882 85.2769 42.8943C85.7082 42.8943 85.8699 42.7957 85.8565 42.3769C85.843 40.1225 85.843 37.8559 85.8565 35.6015C85.8565 35.2196 85.7621 35.0595 85.3039 35.0595C78.5647 35.0718 71.8256 35.0718 65.0865 35.0595C64.6012 35.0595 64.5473 35.2443 64.5473 35.6138C64.5608 37.745 64.5339 39.8885 64.5608 42.0196C64.5743 42.5124 64.4125 42.6356 63.8869 42.6233C62.3773 42.5863 60.8812 42.6356 59.3717 42.5986C58.8191 42.5863 58.6978 42.7588 58.7112 43.2269C58.7382 45.3457 58.7112 47.4522 58.7382 49.5711C58.7382 50.0392 58.5899 50.1501 58.0912 50.1501C53.576 50.1378 49.0608 50.1254 44.5456 50.1501C43.966 50.1501 43.9121 49.9407 43.9121 49.5095C43.9256 45.2595 43.9121 41.0095 43.9256 36.7595C43.9391 33.4211 46.6886 30.8834 50.3682 30.8834C57.2152 30.8711 64.0756 30.8834 70.9225 30.8834C74.4808 30.8957 78.0256 30.8957 81.5704 30.8957Z" fill="#FEFEFE"/>
<path d="M75.2087 35.3551C78.4165 35.3551 81.6243 35.3674 84.8456 35.3428C85.3847 35.3428 85.5869 35.429 85.5734 35.971C85.533 37.979 85.5465 39.9993 85.5734 42.0073C85.5734 42.4631 85.4926 42.6478 84.9265 42.6478C78.4569 42.6232 71.9874 42.6355 65.5313 42.6478C65.0595 42.6478 64.8574 42.5739 64.8708 42.0812C64.8978 40.0239 64.8978 37.979 64.8708 35.9218C64.8574 35.4413 65.0326 35.3428 65.5178 35.3428C68.7391 35.3674 71.9739 35.3551 75.2087 35.3551Z" fill="#FEFEFE"/>
<path d="M69.4265 42.8942C72.6343 42.8942 75.8422 42.9065 79.05 42.8818C79.5622 42.8818 79.6969 43.005 79.6835 43.4731C79.6565 45.5181 79.6565 47.5753 79.6835 49.6326C79.6835 50.076 79.5352 50.1746 79.0769 50.1746C72.5939 50.1623 66.1109 50.1623 59.6143 50.1746C59.1426 50.1746 59.0078 50.0514 59.0078 49.6202C59.0348 47.5753 59.0348 45.5181 59.0078 43.4608C59.0078 42.9927 59.1426 42.8818 59.6413 42.8818C62.9165 42.9065 66.1648 42.8942 69.4265 42.8942Z" fill="#FEFEFE"/>
<path d="M99.4017 38.4717C100.453 38.4717 101.504 38.4964 102.569 38.4594C103.027 38.4471 103.135 38.5949 103.108 38.9891C102.906 41.4652 102.717 43.929 102.529 46.4051C102.448 47.4645 102.34 48.5239 102.286 49.5957C102.259 50.0022 102.151 50.1746 101.666 50.1623C100.143 50.1377 98.62 50.15 97.0969 50.1623C96.733 50.1623 96.5308 50.1131 96.5039 49.7065C96.2478 46.208 95.9917 42.7217 95.6952 39.2232C95.6413 38.5826 95.83 38.4102 96.5174 38.4471C97.4743 38.5087 98.4448 38.4717 99.4017 38.4717Z" fill="#FEFEFE"/>
<path d="M76.9878 107.679C77.0417 108.049 76.7856 108.098 76.4891 108.061C75.8151 107.975 75.4782 108.16 75.613 108.837C75.6804 109.182 75.4917 109.293 75.1143 109.293C74.7369 109.293 74.6291 109.133 74.683 108.837C74.7773 108.258 74.6021 107.925 73.8743 108.049C73.5778 108.098 73.416 107.987 73.416 107.679C73.416 107.396 73.4834 107.162 73.8473 107.211C74.6156 107.322 74.7638 106.977 74.683 106.386C74.6291 106.053 74.8582 105.967 75.1817 105.967C75.4782 105.967 75.6804 106.065 75.6265 106.361C75.4782 107.088 75.8286 107.297 76.5699 107.211C76.9069 107.174 77.0417 107.371 76.9878 107.679Z" fill="#5C85B0"/>
<path d="M75.141 116.869C74.6423 116.918 74.6423 116.598 74.6828 116.314C74.7636 115.785 74.5615 115.551 73.955 115.649C73.618 115.699 73.4158 115.612 73.4023 115.23C73.4023 114.861 73.591 114.75 73.928 114.812C74.5884 114.922 74.7367 114.627 74.6693 114.097C74.6154 113.764 74.6963 113.567 75.1545 113.567C75.6532 113.567 75.6397 113.838 75.5993 114.134C75.505 114.713 75.7745 114.885 76.3676 114.824C76.6641 114.787 76.9876 114.738 77.001 115.206C77.001 115.686 76.7045 115.699 76.3541 115.649C75.7206 115.563 75.5184 115.809 75.5993 116.351C75.6667 116.659 75.5993 116.93 75.141 116.869Z" fill="#5D86B1"/>
<path d="M151.779 45.1239C151.779 39.1123 151.779 33.1007 151.766 27.0891C151.766 26.5717 151.846 26.3623 152.507 26.3623C160.796 26.3869 169.072 26.3869 177.361 26.3623C177.967 26.3623 178.102 26.5101 178.102 27.0398C178.089 39.0877 178.089 51.1355 178.102 63.1833C178.102 63.7377 177.927 63.8609 177.347 63.8609C169.058 63.8485 160.783 63.8485 152.493 63.8609C151.873 63.8609 151.766 63.6884 151.766 63.171C151.779 57.1471 151.779 51.1355 151.779 45.1239Z" fill="#FEFEFE"/>
<path d="M80.9772 37.338C81.395 37.264 81.4893 37.4981 81.4354 37.8061C81.3276 38.422 81.5702 38.6807 82.2576 38.5698C82.5811 38.5206 82.8776 38.5452 82.8776 38.9887C82.8911 39.4075 82.6215 39.4568 82.2846 39.4198C81.6241 39.3336 81.3141 39.5307 81.4489 40.1713C81.5163 40.4793 81.395 40.664 80.9772 40.6517C80.5728 40.6517 80.5324 40.43 80.5728 40.1713C80.6941 39.5307 80.3976 39.3213 79.7372 39.4198C79.4137 39.4691 79.252 39.3582 79.252 39.0133C79.252 38.6561 79.3867 38.5082 79.7641 38.5698C80.465 38.6807 80.6806 38.4097 80.5863 37.8061C80.5324 37.5474 80.5593 37.2887 80.9772 37.338Z" fill="#5C85B0"/>
<path d="M75.1547 44.8776C75.6265 44.816 75.6669 45.0994 75.613 45.4197C75.5186 45.9863 75.7613 46.1957 76.3813 46.1095C76.7452 46.0602 77.0282 46.0972 77.0147 46.5653C77.0013 47.0457 76.6508 46.9718 76.3678 46.9349C75.7343 46.861 75.5321 47.095 75.613 47.637C75.6534 47.9327 75.6534 48.1914 75.1547 48.1914C74.683 48.1914 74.6156 47.9697 74.683 47.6617C74.7908 47.0457 74.5078 46.8486 73.8743 46.9472C73.5239 46.9965 73.4026 46.8363 73.416 46.5283C73.416 46.2081 73.5508 46.0602 73.8878 46.1095C74.5482 46.2081 74.7773 45.974 74.683 45.3827C74.6291 45.0747 74.7234 44.8407 75.1547 44.8776Z" fill="#5D86B1"/>
<path d="M76.7183 107.716C76.5836 107.741 76.5027 107.778 76.4218 107.778C76.0983 107.815 75.694 107.655 75.4514 107.852C75.1818 108.061 75.384 108.431 75.3436 108.726C75.3301 108.837 75.357 108.997 75.1549 108.985C75.0201 108.973 75.0066 108.85 75.0066 108.751C75.0066 108.714 74.9931 108.665 75.0066 108.628C75.1549 107.901 74.8044 107.667 74.0631 107.778C73.9688 107.79 73.834 107.79 73.7666 107.63C73.9149 107.445 74.1575 107.495 74.3462 107.519C74.8853 107.581 75.0875 107.371 75.0201 106.891C74.9931 106.755 75.0201 106.608 75.0336 106.46C75.047 106.373 75.1009 106.3 75.2088 106.312C75.3166 106.324 75.3705 106.398 75.357 106.484C75.1279 107.507 75.8018 107.593 76.6375 107.556C76.624 107.556 76.6375 107.618 76.7183 107.716Z" fill="#F3F5F8"/>
<path d="M76.7853 115.205C76.6101 115.279 76.5562 115.328 76.5023 115.316C75.6936 115.23 75.1275 115.365 75.3297 116.289C75.3566 116.388 75.3162 116.511 75.1814 116.523C75.0466 116.536 75.0062 116.413 75.0062 116.314C74.9927 116.191 74.9793 116.068 75.0062 115.944C75.0736 115.464 74.8714 115.267 74.3323 115.328C74.1436 115.353 73.9414 115.378 73.7393 115.218C73.928 114.971 74.1975 115.045 74.3997 115.07C74.8714 115.107 75.0466 114.947 75.0062 114.515C74.9927 114.294 74.8849 114.023 75.1949 113.838C75.451 114.06 75.3432 114.343 75.3297 114.577C75.3162 114.947 75.4375 115.094 75.8553 115.07C76.1249 115.045 76.408 114.996 76.7853 115.205Z" fill="#F2F5F8"/>
<path d="M154.96 40.6768C161.605 40.6768 168.249 40.6768 174.881 40.6768C174.881 40.726 174.881 40.763 174.881 40.8123C168.236 40.8123 161.591 40.8123 154.946 40.8123C154.96 40.763 154.96 40.726 154.96 40.6768Z" fill="#5882AE"/>
<path d="M154.946 33.5195C161.591 33.5195 168.236 33.5195 174.948 33.5195C174.517 33.8029 155.593 33.8521 154.946 33.5195Z" fill="#5882AE"/>
<path d="M174.881 37.1172C174.207 37.4005 155.378 37.3636 154.812 37.1172C161.605 37.1172 168.236 37.1172 174.881 37.1172Z" fill="#5882AE"/>
<path d="M174.543 58.2553C174.543 59.5981 173.411 60.6329 171.956 60.6452C170.446 60.6575 169.273 59.6104 169.273 58.2553C169.273 56.9372 170.513 55.8039 171.942 55.8285C173.398 55.8655 174.543 56.9372 174.543 58.2553Z" fill="#5C85B1"/>
<path d="M154.946 44.7295C158.626 44.7295 162.292 44.7295 165.972 44.7295C165.972 44.7788 165.972 44.828 165.972 44.8773C162.292 44.8773 158.612 44.8773 154.946 44.8773C154.946 44.828 154.946 44.7788 154.946 44.7295Z" fill="#5882AE"/>
<path d="M79.5889 38.9895C79.7236 38.7308 79.9797 38.8047 80.1684 38.8293C80.748 38.8909 80.9232 38.6692 80.8558 38.1764C80.8289 38.004 80.7884 37.8069 80.9636 37.6221C81.2602 37.7822 81.1389 38.0655 81.1254 38.2627C81.0984 38.6815 81.2332 38.8909 81.7184 38.817C81.7858 38.8047 81.8532 38.8047 81.9206 38.817C82.1228 38.854 82.4867 38.7061 82.4867 38.9648C82.5002 39.2358 82.1228 39.1373 81.9341 39.125C81.2871 39.0511 81.031 39.2851 81.1254 39.8764C81.1523 40.0242 81.1658 40.1967 81.0041 40.3569C80.7345 40.1598 80.8423 39.9011 80.8558 39.6916C80.8828 39.2728 80.7345 39.1003 80.2493 39.125C80.0471 39.1496 79.7776 39.2358 79.5889 38.9895Z" fill="#F3F6F9"/>
<path d="M76.7051 46.6019C76.6107 46.6389 76.5433 46.6759 76.4894 46.6759C76.139 46.7251 75.7211 46.5527 75.4516 46.7621C75.1955 46.9592 75.3842 47.3411 75.3438 47.6367C75.3303 47.7353 75.3572 47.8585 75.209 47.8708C75.0607 47.8831 75.0068 47.7599 75.0203 47.6737C75.2359 46.7128 74.6294 46.5403 73.7803 46.6759C73.7803 46.3556 73.9824 46.3925 74.1038 46.4172C74.7777 46.5034 75.1281 46.3063 74.9933 45.6288C74.9798 45.5548 74.9798 45.4563 75.0068 45.3824C75.0338 45.3208 75.1011 45.2222 75.1551 45.2099C75.2494 45.1853 75.3303 45.2838 75.3168 45.3577C75.0742 46.3802 75.7481 46.4911 76.5838 46.4418C76.6107 46.4541 76.6377 46.5157 76.7051 46.6019Z" fill="#F2F5F8"/>
<path d="M171.956 56.1494C173.222 56.1617 174.274 57.1349 174.26 58.2683C174.233 59.4385 173.196 60.3625 171.929 60.3625C170.662 60.3625 169.597 59.4139 169.597 58.2683C169.583 57.098 170.635 56.1494 171.956 56.1494Z" fill="#FEFEFE"/>
</svg>
