<svg width="262" height="183" viewBox="0 0 262 183" fill="none" xmlns="http://www.w3.org/2000/svg">
<path d="M131 182.987C87.5564 182.987 44.0986 182.987 0.654997 183C0.128149 183 0 182.894 0 182.39C0.0142391 121.801 0.0142391 61.1989 0 0.610001C0 0.119349 0.11391 0 0.654997 0C87.5564 0.0132609 174.444 0.0132609 261.345 0C261.872 0 262 0.106088 262 0.610001C261.986 61.1989 261.986 121.801 262 182.39C262 182.881 261.886 183 261.345 183C217.901 182.987 174.444 182.987 131 182.987Z" fill="#FCFCFC"/>
<path d="M71.0252 75.3219C71.0394 75.0832 71.0537 74.8445 71.0537 74.5926C71.0537 63.5993 71.0537 52.606 71.0537 41.6128C71.0537 40.4193 71.4524 39.4645 72.5915 38.8413C73.0044 38.6158 73.4458 38.523 73.9015 38.4302C74.1863 38.3506 74.4711 38.3904 74.7558 38.3904C92.1418 38.3904 109.528 38.3904 126.914 38.3904C127.099 38.3506 127.256 38.2578 127.455 38.271C129.363 38.2313 131.271 38.2313 133.179 38.271C133.35 38.271 133.535 38.2843 133.706 38.271C135.173 38.2578 136.639 38.2578 138.106 38.271C139.985 38.2843 141.267 39.3319 141.609 41.0426C141.751 41.7454 141.737 42.4482 141.737 43.151C141.737 44.8087 141.751 46.453 141.723 48.1106C141.708 48.23 141.694 48.3493 141.68 48.4687C141.666 48.5482 141.651 48.6278 141.623 48.6941C141.537 50.06 141.566 51.4391 141.623 52.805C141.566 53.1763 141.58 53.5476 141.58 53.9321C141.58 60.8808 141.58 67.8295 141.58 74.765C141.58 75.123 141.737 75.6004 141.352 75.8126C140.954 76.0247 140.612 75.6402 140.284 75.4545C139.459 75.0169 138.69 74.4997 137.793 74.1947C137.593 74.1284 137.408 74.0091 137.308 73.8367C137.123 73.4389 137.18 73.0145 137.18 72.5902C137.18 63.0689 137.18 53.5476 137.18 44.0263C137.18 42.793 137.18 42.793 135.856 42.793C116.163 42.793 96.4705 42.793 76.7778 42.793C75.4393 42.793 75.4393 42.793 75.4393 44.0263C75.4393 72.8156 75.4393 101.605 75.4393 130.394C75.4393 131.588 75.4393 131.588 76.7351 131.588C96.4563 131.588 116.163 131.588 135.885 131.588C137.195 131.588 137.195 131.588 137.195 130.328C137.195 114.508 137.195 98.6876 137.195 82.8674C137.195 82.4297 137.095 81.9789 137.38 81.5811C137.693 81.4219 137.935 81.6208 138.177 81.7402C139.131 82.2308 140.071 82.7613 141.011 83.2652C141.338 83.4376 141.509 83.663 141.509 84.0608C141.481 100.186 141.495 116.298 141.495 132.423C141.495 132.688 141.523 132.954 141.466 133.219C141.153 134.956 139.601 135.937 137.906 135.898C135.514 135.845 133.122 135.884 130.73 135.884C130.502 135.884 130.26 135.911 130.032 135.937C129.975 135.977 129.904 136.017 129.833 136.057C129.719 136.096 129.605 136.11 129.491 136.11C128.95 136.123 128.409 136.123 127.868 136.11C127.754 136.11 127.64 136.096 127.526 136.057C127.455 136.03 127.398 135.977 127.327 135.937C125.604 135.924 123.867 135.898 122.144 135.898C120.179 135.884 118.199 135.911 116.234 135.884C115.665 135.871 115.608 136.004 115.736 136.521C116.69 140.42 117.587 144.318 118.513 148.23C119.239 151.346 119.979 154.463 120.706 157.579C121.147 159.489 121.603 161.385 122.044 163.308C122.087 163.493 122.258 163.812 121.873 163.905C121.418 164.024 121.56 163.626 121.517 163.454C121.218 162.313 120.962 161.16 120.677 160.019C120.108 157.619 119.552 155.205 118.968 152.805C118.427 150.551 117.929 148.283 117.388 146.029C116.776 143.456 116.263 140.884 115.551 138.338C115.38 137.714 115.167 137.078 115.138 136.428C115.11 135.964 114.839 135.911 114.44 135.911C111.92 135.924 109.414 135.911 106.894 135.911C103.946 135.911 101.013 135.911 98.0653 135.911C97.6809 135.911 97.4815 135.937 97.3676 136.401C96.6557 139.518 95.8867 142.621 95.1463 145.737C94.0072 150.551 92.8823 155.351 91.7432 160.165C91.4868 161.266 91.2448 162.38 91.0169 163.493C90.9742 163.719 90.96 163.944 90.6183 163.944C90.4331 163.944 90.2907 163.984 90.3619 163.666C90.8603 161.438 91.3872 159.21 91.8998 156.982C92.327 155.113 92.7826 153.243 93.2098 151.36C93.8078 148.761 94.4771 146.175 95.0182 143.562C95.4453 141.52 96.0006 139.505 96.556 137.489C96.9831 135.937 97.0116 135.937 95.2602 135.937C88.1264 135.937 80.9783 135.951 73.8445 135.924C72.563 135.924 71.196 134.77 71.1391 133.511C71.0394 131.018 71.0821 128.525 71.0679 126.031C71.0679 124.971 71.0537 123.91 71.0537 122.849C70.9255 122.703 70.8828 122.544 70.8685 122.358C70.7973 121.616 70.8401 120.86 70.8401 120.117C70.8543 114.879 70.8116 109.628 70.8543 104.39C70.8543 104.217 70.8401 104.058 70.8543 103.886C70.8401 103.143 70.8401 102.401 70.8543 101.671C70.8543 101.539 70.8543 101.419 70.8543 101.287C70.8116 97.4543 70.8116 93.6087 70.8543 89.7763C70.8543 89.6437 70.8543 89.5243 70.8543 89.3917C70.8258 86.3815 70.8116 83.3845 70.8543 80.3743C70.8543 80.255 70.8543 80.1224 70.8543 80.003C70.8258 78.6504 70.8401 77.2978 70.8543 75.9452C70.8685 75.8258 70.8828 75.7065 70.9113 75.5871C70.9397 75.4545 70.9825 75.3882 71.0252 75.3219Z" fill="black"/>
<path d="M154.082 106.087C154.125 105.901 154.039 105.702 154.21 105.543C154.352 105.159 154.352 104.747 154.509 104.363C154.837 102.97 155.15 101.565 155.506 100.172C155.862 98.7668 156.275 97.3744 156.645 95.9687C157.001 94.6161 157.328 93.2503 157.67 91.8977C157.955 91.7651 158.268 91.8181 158.581 91.8181C162.497 91.8048 166.413 91.9905 170.343 91.9772C171.482 91.9772 172.65 91.9772 173.789 92.1894C174.131 92.4546 174.059 92.8127 174.017 93.1707C173.803 93.7011 173.333 94.0592 172.934 94.457C171.226 96.1942 169.531 97.9446 167.808 99.6685C166.869 100.61 165.957 101.565 165.046 102.506C164.462 103.116 164.462 103.806 165.117 104.389C166.327 105.477 167.595 106.498 168.834 107.559C170.215 108.726 171.596 109.906 172.977 111.073C173.49 111.51 174.031 111.882 174.515 112.346C174.757 112.585 175.013 112.823 175.042 113.181C175.27 114.919 175.27 116.656 175.355 118.393C175.469 120.488 175.64 122.57 175.654 124.665C175.654 124.877 175.711 125.103 175.583 125.315C175.298 125.527 174.956 125.487 174.643 125.501C173.746 125.514 172.849 125.474 171.966 125.58C168.905 125.434 165.829 125.554 162.768 125.514C162.198 125.501 161.629 125.527 161.073 125.501C159.421 125.487 157.784 125.355 156.132 125.302C154.651 125.249 153.171 125.116 151.675 125.116C151.206 125.116 150.736 125.09 150.266 125.023C149.767 124.957 149.483 124.745 149.582 124.241C149.952 121.894 150.65 119.6 151.234 117.292C152.131 113.712 153 110.131 153.968 106.577C154.025 106.418 153.925 106.233 154.082 106.087Z" fill="#8F3600"/>
<path d="M173.86 93.3298C173.86 92.985 173.846 92.627 173.846 92.2822C173.661 92.07 173.732 91.818 173.746 91.5794C174.059 87.9061 174.401 84.2328 174.729 80.5596C174.985 77.6554 175.241 74.7513 175.497 71.8472C175.711 69.4072 175.91 66.9672 176.195 64.5272C176.224 64.3017 176.224 64.0896 176.395 63.9039C176.95 63.6122 177.519 63.652 178.089 63.8509C178.246 63.9835 178.217 64.1691 178.217 64.3415C178.189 66.9009 178.203 69.4602 178.217 72.0328C178.217 72.6693 178.032 73.0539 177.32 73.2396C176.622 73.412 176.252 73.9291 176.224 74.632C176.224 74.7248 176.224 74.6054 176.224 74.6983C176.053 76.9924 177.178 77.0985 179.128 76.9261C179.37 76.8996 179.57 76.767 179.755 76.6211C180.837 75.7459 180.51 73.7037 179.171 73.2263C178.587 73.0274 178.36 72.7224 178.36 72.1522C178.374 69.6326 178.36 67.113 178.36 64.5935C178.36 64.368 178.359 64.1559 178.473 63.9437C178.587 63.7846 178.772 63.7315 178.972 63.7315C180.737 63.758 182.517 63.5326 184.269 63.9702C186.49 64.5272 188.199 65.6543 189.139 67.67C189.267 67.9617 189.381 68.2402 189.352 68.5585C189.267 69.6989 189.195 70.8393 189.124 71.9798C188.825 76.515 188.526 81.0502 188.227 85.5722C188.042 88.4763 187.843 91.3804 187.643 94.2846C187.558 95.3985 187.558 95.3985 186.305 95.2659C184.781 95.0935 183.244 94.9609 181.706 94.7752C181.165 94.7089 180.923 94.815 180.866 95.3587C180.809 95.9687 180.723 96.592 180.296 97.1091C180.011 97.3346 179.812 97.1357 179.627 96.9765C178.587 96.1411 177.576 95.2791 176.565 94.4039C176.323 94.1917 176.067 93.9928 175.839 93.7674C175.27 93.2767 174.572 93.2767 173.86 93.3298Z" fill="#6DB5DE"/>
<path d="M149.654 124.109C149.568 124.599 149.725 124.825 150.337 124.851C152.8 124.931 155.264 125.064 157.727 125.183C158.809 125.236 159.906 125.289 160.988 125.342C161.401 125.634 161.443 126.098 161.614 126.509C163.081 130.076 164.533 133.643 166.014 137.197C166.641 138.762 167.239 140.327 167.965 141.865C168.065 142.144 168.164 142.435 168.278 142.714C169.403 145.472 170.557 148.204 171.667 150.962C171.724 151.081 171.767 151.201 171.824 151.32C172.08 152.049 172.393 152.752 172.678 153.455C172.735 153.667 172.863 153.866 172.806 154.092C172.806 154.145 172.806 154.184 172.806 154.238C172.55 154.45 172.237 154.436 171.938 154.436C168.62 154.45 165.302 154.436 161.985 154.436C161.657 154.436 161.315 154.476 161.059 154.211C159.963 151.585 158.866 148.973 157.77 146.347C156.218 142.674 154.651 139.014 153.085 135.341C152.131 133.113 151.191 130.872 150.252 128.644C149.924 127.875 149.696 127.066 149.639 126.231C149.511 125.979 149.682 125.687 149.525 125.435C149.525 125.011 149.525 124.573 149.525 124.149C149.554 124.056 149.597 124.043 149.654 124.109Z" fill="#FD9993"/>
<path d="M176.408 63.9172C176.209 66.344 176.01 68.7574 175.796 71.1709C175.483 74.6453 175.169 78.1196 174.856 81.594C174.529 85.1611 174.187 88.715 173.859 92.2822C170.428 92.2292 166.982 92.2292 163.55 92.1231C161.827 92.07 160.09 92.07 158.367 92.0303C158.125 92.0303 157.897 92.0303 157.684 91.8976C157.613 91.765 157.655 91.6722 157.783 91.5926C158.567 88.7813 159.862 86.1557 161.087 83.5035C163.536 78.2124 166.256 73.0274 168.52 67.6568C168.961 66.6092 169.346 65.5351 169.787 64.4874C169.901 64.2222 169.958 63.9305 170.271 63.7846C170.77 63.652 171.268 63.7183 171.781 63.7051C173.062 63.6785 174.358 63.6918 175.639 63.6918C175.867 63.6918 176.109 63.6918 176.323 63.8111C176.351 63.8642 176.38 63.8907 176.408 63.9172Z" fill="black"/>
<path d="M170.157 63.9576C167.808 70.4024 164.576 76.4891 161.657 82.6952C160.361 85.4402 159.122 88.1985 158.054 91.0231C157.983 91.222 157.983 91.4607 157.769 91.6065C157.898 90.5854 158.026 89.5511 158.182 88.3576C157.328 89.2328 156.545 90.0152 155.349 90.1876C154.879 90.2539 154.409 90.2539 153.939 90.1876C153.441 90.1478 152.999 89.9887 152.558 89.7765C150.28 88.6626 147.987 87.562 145.709 86.448C145.21 86.2094 144.741 85.9176 144.228 85.7054C143.886 85.5596 143.73 85.3739 143.843 85.0291C144.983 83.0798 146.122 81.1437 147.275 79.2076C147.816 78.4252 147.93 78.3854 148.799 78.8363C149.767 79.3535 150.764 79.8176 151.703 80.3613C152.202 80.653 152.487 80.5735 152.8 80.1226C154.722 77.3644 156.602 74.5796 158.524 71.8213C159.222 70.8135 159.891 69.8057 160.603 68.8111C161.016 68.2143 161.358 67.5911 161.685 66.9546C162.668 64.9389 164.462 63.9576 166.783 63.7587C167.723 63.6791 168.677 63.7322 169.631 63.7454C169.802 63.7587 170.029 63.7454 170.157 63.9576Z" fill="#6DB5DE"/>
<path d="M172.037 125.422C173.19 125.249 174.344 125.448 175.497 125.315C175.839 125.488 175.782 125.806 175.782 126.071C175.853 129.294 176.109 132.503 176.252 135.712C176.309 136.958 176.294 138.218 176.465 139.478C176.536 140.062 176.793 140.221 177.362 140.207C178.9 140.194 180.438 140.194 181.99 140.207C182.346 140.207 182.702 140.168 183.015 140.393C183.186 140.605 183.186 140.844 183.186 141.083C183.186 144.358 183.214 147.633 183.172 150.909C183.172 151.028 183.158 151.161 183.172 151.28C183.186 152.01 183.2 152.726 183.158 153.455C183.143 153.614 183.115 153.773 182.958 153.893C182.944 153.999 182.944 154.092 182.93 154.198C182.688 154.423 182.374 154.41 182.061 154.41C179.413 154.423 176.778 154.423 174.13 154.41C173.845 154.41 173.56 154.423 173.318 154.224C173.247 154.092 173.105 154.065 172.962 154.038C172.82 153.879 172.791 153.68 172.777 153.495C172.791 152.752 172.549 152.036 172.621 151.293C172.621 151.174 172.621 151.055 172.621 150.922C172.578 148.8 172.492 146.692 172.421 144.57C172.336 142.329 172.336 140.075 172.179 137.82C172.165 137.622 172.179 137.423 172.193 137.224C172.193 135.288 172.08 133.352 171.994 131.415C171.923 129.638 171.994 127.848 171.823 126.071C171.823 125.859 171.823 125.62 172.037 125.422Z" fill="#FD9993"/>
<path d="M161.059 154.197C164.974 154.211 168.904 154.211 172.82 154.224C172.08 157.247 171.339 160.284 170.599 163.307C170.556 163.48 170.585 163.652 170.57 163.838C170.428 164.063 170.186 163.957 170.001 163.957C163.664 163.971 157.328 163.971 150.992 163.957C150.792 163.957 150.564 164.05 150.394 163.851L150.422 163.825L150.394 163.798C150.536 163.586 150.394 163.334 150.507 163.109C150.792 161.517 151.732 160.337 153.127 159.435C155.05 158.189 156.958 156.929 158.866 155.669C159.578 155.179 160.318 154.688 161.059 154.197Z" fill="black"/>
<path d="M178.089 63.9442C177.533 63.9309 176.978 63.9309 176.408 63.9177L176.423 63.9309C176.223 63.732 176.195 63.4933 176.223 63.2546C176.465 60.7881 175.654 58.5603 174.557 56.3722C173.931 55.1125 173.347 53.8261 172.834 52.5266C172.55 51.8105 172.065 51.4922 171.297 51.5188C170.086 51.5585 168.89 51.3331 167.68 51.3596C167.238 51.3729 166.754 51.3464 166.598 50.8159C166.683 49.5296 167.452 48.6014 168.933 48.3494C171.339 47.9251 173.746 47.7394 176.181 48.3229C178.559 48.8931 179.926 50.1794 180.168 52.4735C180.182 52.6327 180.139 52.7785 180.025 52.8979C180.096 54.1311 180.025 55.3644 179.755 56.5844C179.712 56.7701 179.555 56.9955 179.997 57.0485C183.101 57.4464 184.069 58.4542 184.169 61.3583C184.169 61.3981 184.183 61.4379 184.197 61.4777C187.672 60.8146 189.48 61.2788 190.491 63.1485C191.317 64.6735 191.174 67.3257 189.38 68.5722C189.039 68.1877 189.024 67.6837 188.768 67.2594C187.444 65.1907 185.422 64.1431 182.916 63.9574C181.492 63.8514 180.039 63.9442 178.601 63.9574C178.388 64.0503 178.231 64.0635 178.089 63.9442Z" fill="black"/>
<path d="M173.347 154.25C176.551 154.237 179.74 154.237 182.944 154.224C184.325 157.313 185.721 160.403 187.102 163.493C187.145 163.586 187.216 163.679 187.287 163.771C187.23 164.037 187.002 163.957 186.831 163.957C181.662 163.957 176.494 163.957 171.325 163.957C171.211 163.957 171.083 163.97 171.04 163.838C171.538 161.769 172.037 159.7 172.549 157.632C172.806 156.505 173.076 155.377 173.347 154.25Z" fill="black"/>
<path d="M147.361 79.2867C146.307 81.0901 145.267 82.8936 144.214 84.6971C144.128 84.843 144.057 85.0286 143.815 85.0419C143.089 84.6838 142.377 84.339 141.537 83.928C141.537 84.233 141.537 84.4849 141.537 84.7369C141.537 100.623 141.537 116.497 141.537 132.383C141.537 132.662 141.637 132.953 141.437 133.219C141.437 117.001 141.437 100.796 141.451 84.5777C141.451 83.981 141.309 83.623 140.711 83.3445C139.6 82.814 138.532 82.1908 137.45 81.6073C136.753 81.6206 136.268 81.183 135.742 80.878C133.164 79.3662 130.815 77.576 128.665 75.5603C127.625 74.579 127.739 72.5501 128.821 71.6749C129.092 71.6086 129.277 71.7412 129.462 71.8871C130.16 72.4573 130.915 72.9745 131.612 73.6773C131.199 72.8021 131.498 72.2584 132.467 71.9136C132.709 71.8606 132.937 71.9003 133.15 71.9932C134.403 72.4971 135.656 73.001 136.923 73.4917C137.123 73.5712 137.294 73.6906 137.393 73.863C138.105 74.1017 138.803 74.3403 139.444 74.7382C140.042 75.1227 140.683 75.4543 141.309 75.8123C141.494 75.5471 141.423 75.2951 141.423 75.0697C141.423 67.9088 141.423 60.7612 141.423 53.6003C141.423 53.3351 141.451 53.0699 141.466 52.8047C141.508 52.8312 141.537 52.8445 141.58 52.871C141.807 53.2158 141.736 53.6003 141.736 53.9716C141.736 60.8408 141.765 67.6966 141.722 74.5658C141.722 75.5073 142.021 76.0775 142.904 76.5151C144.214 77.1782 145.467 77.9473 146.72 78.6899C146.99 78.849 147.275 78.9684 147.361 79.2867Z" fill="#FD9993"/>
<path d="M71.0391 75.4413C71.0391 75.5341 71.0391 75.6402 71.0391 75.733C70.5692 76.0513 70.0281 75.9054 69.5298 75.9187C69.0599 75.9319 68.832 76.0911 68.8463 76.5419C68.8748 77.3774 68.8178 78.2128 68.889 79.0482C68.9317 79.5521 69.1738 79.7908 69.7434 79.7776C70.1848 79.7643 70.6404 79.6715 71.0391 79.9632C71.0391 80.0561 71.0391 80.1622 71.0249 80.255C70.6547 80.5202 70.199 80.4406 69.7861 80.4274C69.2165 80.4141 68.9602 80.6263 68.9175 81.1435C68.889 81.4219 68.8463 81.7137 68.8463 81.9921C68.8463 84.1006 68.8463 86.2224 68.8463 88.3308C68.8463 89.1132 68.9032 89.1398 69.7291 89.1663C70.1705 89.1795 70.6404 89.0735 71.0249 89.3652C71.0249 89.458 71.0249 89.5641 71.0106 89.6569C70.555 89.9487 70.0424 89.8161 69.5582 89.8293C69.0456 89.8426 68.832 90.0282 68.832 90.5056C68.832 93.3302 68.8036 96.1415 68.8463 98.9661C68.8605 99.9606 69.4016 100.677 70.4695 100.982C70.6831 101.048 70.8682 101.114 71.0106 101.273C71.0106 101.366 71.0106 101.472 71.0249 101.565C70.6404 101.87 70.1705 101.777 69.7291 101.777C61.7124 101.777 53.71 101.777 45.6933 101.777C45.5082 101.777 45.3089 101.777 45.1237 101.777C43.9989 101.777 43.6714 102.188 43.9704 103.223C44.0416 103.448 44.184 103.554 44.4118 103.581C44.7251 103.621 45.0241 103.607 45.3373 103.607C53.4679 103.607 61.5985 103.607 69.7291 103.607C70.1705 103.607 70.6404 103.515 71.0249 103.82C71.0249 103.952 71.0249 104.085 71.0249 104.217C70.6831 104.509 70.2702 104.443 69.8715 104.443C65.4573 104.443 61.0432 104.443 56.629 104.443C56.387 104.443 56.1591 104.456 55.9171 104.456C55.4899 104.456 55.319 104.655 55.319 105.026C55.319 105.199 55.319 105.384 55.319 105.557C55.319 110.728 55.319 115.9 55.319 121.072C55.319 122.186 55.319 122.186 56.4866 122.186C60.9293 122.186 65.3577 122.186 69.8003 122.186C70.2132 122.186 70.6689 122.106 71.0249 122.411C71.0249 122.544 71.0249 122.676 71.0249 122.796C65.7564 122.796 60.5021 122.809 55.2336 122.809C55.0912 123.061 55.1624 123.326 55.1624 123.591C55.1624 136.72 55.1624 149.861 55.1482 162.99C55.1482 163.241 55.2336 163.52 55.077 163.772L55.0912 163.759C54.2938 163.905 53.4822 163.838 52.6848 163.785C52.4997 163.52 52.5851 163.228 52.5851 162.95C52.5851 143.668 52.5851 124.387 52.5851 105.106C52.5851 104.085 52.699 104.204 51.5884 104.191C49.0538 104.191 46.5192 104.164 43.9704 104.204C43.3866 104.217 43.2584 104.032 43.2869 103.541C43.3296 102.812 43.3011 102.082 43.3011 101.353C43.5289 101.154 43.7995 101.26 44.0416 101.26C49.4382 101.247 54.8207 101.26 60.2173 101.247C60.4451 101.247 60.7869 101.446 60.9435 101.075C60.2031 100.544 59.961 99.8413 59.9752 98.9661C60.0037 93.4098 59.9895 87.8535 59.9895 82.2839C59.9895 81.8993 60.0037 81.5811 59.4769 81.4485C58.8503 81.2893 59.2775 80.7058 59.0639 80.3743C57.5119 80.2285 55.974 80.3478 54.4219 80.2948C54.1799 80.2815 53.9093 80.4008 53.6957 80.2019C53.8097 79.8439 54.1229 79.9898 54.3507 79.9898C55.7462 79.9765 57.1416 79.9765 58.5371 79.9898C58.9073 79.9898 59.2063 79.9765 59.1351 79.5124C59.1067 79.3002 59.2063 79.035 59.4057 79.0217C60.1888 78.9421 59.961 78.425 59.9895 78.0006C60.0464 77.1519 59.8471 76.29 60.1034 75.4545C61.7551 75.4015 63.4211 75.3485 65.0729 75.4811L65.0586 75.4678C65.2438 76.29 65.0871 77.1122 65.1441 77.9343C65.1726 78.2526 65.0586 78.5841 65.2153 78.9024C65.6709 78.9554 65.9842 79.1411 65.9272 79.6317C65.8988 79.9367 66.0696 80.003 66.3544 79.9898C66.9097 79.9632 67.6644 80.2152 67.5363 79.2471C67.522 79.1145 67.6644 79.035 67.7641 79.035C68.5045 79.0085 68.3479 78.5045 68.3479 78.0935C68.3479 77.2315 68.3479 76.3695 68.3479 75.5076C69.245 75.3087 70.142 75.3882 71.0391 75.4413Z" fill="#5983AF"/>
<path d="M180.097 97.2024C180.495 96.5526 180.666 95.8498 180.652 95.1204C180.638 94.5767 180.894 94.4972 181.378 94.5635C183.058 94.7491 184.753 94.9215 186.433 95.1072C187.444 95.2133 187.444 95.2265 187.615 94.3115C187.529 96.168 187.458 98.0246 187.373 99.8811C187.358 100.146 187.373 100.412 187.373 100.663C187.487 100.783 187.544 100.929 187.544 101.101C187.586 101.83 187.344 102.56 187.415 103.289C187.43 104.377 187.273 105.451 187.23 106.525C187.188 107.732 186.718 108.779 185.45 109.336C184.667 109.681 184.397 109.535 184.297 108.739C184.297 107.612 184.254 106.498 184.397 105.371C184.226 106.366 184.112 107.36 184.14 108.381C184.155 108.753 184.226 109.137 183.941 109.455C183.528 109.641 183.101 109.641 182.688 109.469C182.289 108.978 182.446 108.408 182.517 107.877C182.631 107.002 182.56 106.127 182.531 105.252C182.389 106.578 182.574 107.93 182.161 109.23C181.549 109.495 181.193 109.111 180.865 108.739C180.595 108.434 180.453 108.05 180.367 107.652C180.196 106.803 179.968 105.968 179.968 105.106C180.125 104.708 180.196 104.297 180.182 103.873C180.125 102.838 180.267 101.804 180.253 100.77C180.225 101.539 180.025 102.295 180.025 103.064C180.025 103.395 180.082 103.727 179.897 104.032C179.527 104.217 179.499 103.886 179.427 103.727C178.673 102.215 178.388 100.65 179.128 99.0589C179.442 98.4489 179.513 97.7063 180.097 97.2024Z" fill="#FD9993"/>
<path d="M187.387 101.008C187.387 100.889 187.387 100.769 187.387 100.663C197.525 100.663 207.649 100.663 217.787 100.676C218.827 100.676 218.699 100.584 218.699 101.525C218.699 102.427 218.699 103.342 218.699 104.244C218.058 104.376 217.417 104.27 216.762 104.31C216.52 104.323 216.25 104.244 216.022 104.376C216.008 104.655 215.965 104.946 215.965 105.225C215.965 121.151 215.965 137.064 215.965 152.99C215.965 153.932 215.965 153.932 214.968 153.932C214.498 153.932 214.014 153.959 213.544 153.919C213.003 153.879 212.818 154.038 212.818 154.569C212.846 157.367 212.832 160.178 212.832 162.976C212.832 163.241 212.861 163.506 212.718 163.745C211.109 163.891 209.5 163.825 207.891 163.785C207.72 163.573 207.792 163.321 207.792 163.082C207.792 160.284 207.763 157.473 207.806 154.675C207.806 154.078 207.649 153.905 206.994 153.905C198.992 153.932 190.975 153.919 182.973 153.919C182.973 153.799 182.973 153.693 182.973 153.574C183.357 153.242 183.827 153.335 184.268 153.335C193.41 153.335 202.537 153.335 211.679 153.335C212.647 153.335 213.63 153.322 214.598 153.335C215.139 153.335 215.395 153.136 215.353 152.632C215.338 152.434 215.353 152.235 215.353 152.036C215.353 136.613 215.353 121.191 215.353 105.769C215.353 104.442 215.353 104.442 213.9 104.442C205.755 104.442 197.625 104.442 189.48 104.442C189.195 104.442 188.91 104.416 188.626 104.429C188.298 104.35 187.928 104.323 188.198 103.859C188.597 103.687 189.039 103.74 189.466 103.74C198.522 103.74 207.578 103.74 216.634 103.74C216.876 103.74 217.104 103.74 217.346 103.74C218.129 103.726 218.2 103.66 218.2 102.931C218.2 101.048 218.385 101.26 216.42 101.26C207.179 101.26 197.924 101.26 188.683 101.247C188.227 101.26 187.757 101.366 187.387 101.008Z" fill="#5D86B1"/>
<path d="M179.997 52.9104C179.997 52.7778 179.983 52.6452 179.983 52.5126C180.353 52.2208 180.794 52.3004 181.207 52.3004C186.234 52.3004 191.26 52.3004 196.301 52.3004C196.415 52.3004 196.543 52.3004 196.657 52.3004C197.824 52.3004 197.824 52.3004 197.824 51.1865C197.824 41.1082 197.824 31.0432 197.824 20.965C197.824 20.7661 197.824 20.5671 197.81 20.3682C197.796 20.05 197.625 19.8908 197.283 19.8776C197.041 19.8643 196.813 19.8643 196.571 19.8643C174.016 19.8643 151.447 19.8643 128.893 19.8643C128.821 19.8643 128.75 19.8643 128.679 19.8643C127.725 19.8776 127.682 19.9041 127.682 20.8058C127.682 26.3091 127.682 31.8124 127.682 37.3024C127.682 37.6869 127.782 38.1113 127.469 38.4428C127.326 38.4428 127.184 38.4428 127.042 38.4428C126.985 38.4163 126.97 38.403 126.985 38.3765C126.999 38.35 127.013 38.3367 127.027 38.3367C127.042 38.0715 127.084 37.8063 127.084 37.5543C127.084 31.7063 127.099 25.845 127.07 19.9969C127.07 19.4267 127.198 19.2676 127.839 19.2676C151.106 19.2808 174.372 19.2808 197.639 19.2808C197.895 19.2808 198.166 19.2145 198.394 19.3869C198.479 19.5991 198.437 19.8245 198.437 20.0367C198.437 30.7382 198.437 41.4397 198.437 52.1413C198.437 52.3534 198.494 52.5789 198.365 52.791C198.123 52.9104 197.853 52.8441 197.596 52.8441C192.029 52.8441 186.476 52.8441 180.908 52.8441C180.652 52.8441 180.381 52.7778 180.139 52.9104H180.082H179.997Z" fill="#6289B3"/>
<path d="M126.999 38.3371C127.013 38.3768 127.013 38.4166 127.013 38.4431C126.558 38.4431 126.116 38.4564 125.661 38.4564C108.645 38.4564 91.6291 38.4564 74.6133 38.4564C74.3713 38.4564 74.1434 38.4431 73.9014 38.4431C74.1577 38.2442 74.4425 38.3371 74.7272 38.3371C92.156 38.3238 109.585 38.3371 126.999 38.3371Z" fill="#FCFCFC"/>
<path d="M55.1051 163.759C55.1051 163.467 55.1194 163.188 55.1194 162.897C55.1194 149.782 55.1194 136.653 55.1336 123.539C55.1336 123.3 55.0054 123.008 55.2618 122.796C55.2618 136.176 55.2618 149.556 55.2618 162.937C55.2476 163.215 55.3758 163.533 55.1051 163.759Z" fill="#FCFCFC"/>
<path d="M198.351 52.7782C198.351 42.9519 198.351 33.1123 198.365 23.286C198.365 21.9864 198.365 20.6736 198.365 19.374C198.579 19.5862 198.479 19.8382 198.479 20.0636C198.479 30.7386 198.479 41.4136 198.479 52.0886C198.479 52.3273 198.579 52.5925 198.351 52.7782Z" fill="#FCFCFC"/>
<path d="M149.653 124.108C149.61 124.122 149.553 124.122 149.511 124.135C149.582 123.591 149.596 123.034 149.724 122.517C150.849 118.128 152.003 113.752 153.142 109.362C153.427 108.262 153.612 107.135 154.067 106.087C153.783 107.851 153.256 109.561 152.828 111.298C151.803 115.568 150.721 119.838 149.653 124.108Z" fill="#FCFCFC"/>
<path d="M129.875 135.924C129.917 135.898 129.96 135.898 130.003 135.924C130.003 144.955 130.003 153.985 130.003 163.016C130.003 163.268 130.103 163.547 129.875 163.772C129.846 163.745 129.804 163.706 129.775 163.679C129.618 163.414 129.661 163.122 129.661 162.83C129.661 154.171 129.661 145.512 129.661 136.866C129.661 136.547 129.59 136.189 129.875 135.924Z" fill="#FCFCFC"/>
<path d="M127.298 135.924C127.34 135.898 127.383 135.898 127.426 135.924C127.668 136.15 127.639 136.455 127.639 136.733C127.639 145.472 127.639 154.211 127.639 162.963C127.639 163.202 127.668 163.454 127.54 163.679C127.511 163.706 127.469 163.745 127.44 163.772C127.198 163.547 127.312 163.268 127.312 163.016C127.298 153.985 127.298 144.955 127.298 135.924Z" fill="#FCFCFC"/>
<path d="M150.38 163.851C150.608 163.878 150.85 163.917 151.078 163.917C157.343 163.917 163.594 163.917 169.859 163.917C170.101 163.917 170.329 163.957 170.557 163.838C170.429 164.116 170.158 164.024 169.944 164.024C163.636 164.024 157.314 164.024 151.006 164.024C150.793 164.024 150.522 164.116 150.38 163.851Z" fill="#FCFCFC"/>
<path d="M180.125 52.9113C180.353 52.7257 180.623 52.8185 180.88 52.8185C186.39 52.8185 191.915 52.8185 197.425 52.8185C197.739 52.8185 198.038 52.792 198.351 52.792C198.137 53.0042 197.867 52.9246 197.611 52.9246C191.773 52.9246 185.949 52.9113 180.125 52.9113Z" fill="#FCFCFC"/>
<path d="M60.9435 101.062C61.0858 101.154 61.0859 101.247 60.915 101.26C60.7014 101.287 60.4878 101.274 60.2742 101.274C54.9203 101.274 49.5664 101.274 44.2267 101.274C43.9277 101.274 43.6145 101.313 43.3154 101.34C43.5148 101.062 43.828 101.181 44.0986 101.181C49.4382 101.168 54.7922 101.181 60.1318 101.168C60.4024 101.168 60.6872 101.26 60.9435 101.062Z" fill="#FCFCFC"/>
<path d="M171.026 163.838C171.268 163.97 171.539 163.917 171.795 163.917C176.722 163.917 181.649 163.917 186.575 163.917C186.803 163.917 187.102 164.063 187.273 163.771C187.359 164.196 187.003 164.023 186.846 164.023C185.479 164.037 184.098 164.037 182.731 164.037C179.086 164.037 175.44 164.037 171.795 164.037C171.525 164.023 171.197 164.156 171.026 163.838Z" fill="#FCFCFC"/>
<path d="M107.334 33.5371C107.362 34.0675 106.95 34.1338 106.736 34.3328C106.124 34.8765 105.483 35.3936 104.828 35.9108C104.743 35.9771 104.6 36.123 104.458 36.0036C104.358 35.9241 104.387 35.7649 104.472 35.7119C105.44 35.0356 106.195 34.1338 107.334 33.5371Z" fill="#668CB5"/>
<path d="M204.246 82.8672C204.331 82.9335 204.402 82.9733 204.459 83.0396C205.143 83.7689 205.826 84.4983 206.496 85.2409C206.595 85.347 206.78 85.4663 206.553 85.6122C206.382 85.7183 206.282 85.5857 206.211 85.4929C205.613 84.7635 204.958 84.0872 204.274 83.4242C204.16 83.3181 204.047 83.1855 204.089 83.0131C204.103 82.96 204.175 82.9202 204.246 82.8672Z" fill="#658BB5"/>
<path d="M64.6455 64.8188C65.5141 63.9701 66.3826 63.254 67.3081 62.6043C67.422 62.5247 67.4932 62.4054 67.6498 62.5512C67.7352 62.6308 67.7352 62.7104 67.6498 62.7767C66.7386 63.453 65.9697 64.2884 64.9587 64.8586C64.8876 64.8719 64.8021 64.8321 64.6455 64.8188Z" fill="#668CB5"/>
<path d="M65.1017 37.3431C64.646 37.4492 64.5748 37.2105 64.4325 37.0911C63.7063 36.4811 63.1082 35.7518 62.4959 35.0489C62.3963 34.9296 62.3535 34.8103 62.4674 34.7174C62.4959 34.6909 62.6526 34.7307 62.7095 34.7837C63.4927 35.6059 64.2616 36.4413 65.1017 37.3431Z" fill="#648BB4"/>
<path d="M53.6953 80.1885C55.2332 80.3476 56.7853 80.215 58.3374 80.268C58.5795 80.2813 58.85 80.1752 59.0779 80.3609C57.5257 80.3609 55.9594 80.3609 54.4073 80.3609C54.1652 80.3609 53.8662 80.467 53.6953 80.1885Z" fill="#FCFCFC"/>
<path d="M65.0729 75.4674C63.4212 75.4542 61.7552 75.4542 60.1035 75.4409C60.5164 75.2022 60.9721 75.3481 61.3993 75.3348C62.4102 75.3083 63.407 75.3216 64.4179 75.3348C64.6458 75.3216 64.9021 75.2553 65.0729 75.4674Z" fill="#FCFCFC"/>
<path d="M207.892 163.785C209.501 163.772 211.11 163.758 212.719 163.745C212.605 163.891 212.434 163.891 212.277 163.891C210.953 163.891 209.615 163.891 208.29 163.891C208.148 163.891 208.006 163.891 207.892 163.785Z" fill="#FCFCFC"/>
<path d="M65.2149 78.8887C64.9303 78.451 65.1153 77.9604 65.0868 77.4963C65.0441 76.82 65.0584 76.1304 65.0584 75.4541C65.3572 75.7591 65.1864 76.1171 65.2007 76.4619C65.2433 77.2708 65.2149 78.0797 65.2149 78.8887Z" fill="#FCFCFC"/>
<path d="M216.021 104.363C216.904 104.111 217.816 104.363 218.698 104.23C217.83 104.522 216.919 104.284 216.021 104.363Z" fill="#FCFCFC"/>
<path d="M71.0394 75.4415C70.1423 75.4547 69.2594 75.468 68.3623 75.4945C68.818 75.1497 69.3449 75.3884 69.8433 75.3354C70.242 75.2956 70.6407 75.3221 71.0394 75.3221C71.0536 75.3619 71.0536 75.4017 71.0394 75.4415Z" fill="#FCFCFC"/>
<path d="M52.6992 163.785C53.4966 163.772 54.3083 163.759 55.1057 163.759C54.3083 164.011 53.5109 163.944 52.6992 163.785Z" fill="#FCFCFC"/>
<path d="M129.875 163.771C129.064 163.957 128.252 163.97 127.44 163.771L127.455 163.758C128.252 163.48 129.064 163.466 129.875 163.771Z" fill="#FCFCFC"/>
<path d="M154.508 104.363C154.508 104.774 154.437 105.172 154.209 105.543C154.195 105.119 154.238 104.708 154.508 104.363Z" fill="#FCFCFC"/>
<path d="M172.962 153.548C172.977 153.72 172.977 153.892 172.991 154.065C172.934 154.078 172.877 154.091 172.82 154.091C172.678 153.946 172.592 153.773 172.578 153.561C172.706 153.442 172.834 153.442 172.962 153.548Z" fill="#8D9AB7"/>
<path d="M153.925 90.2002C154.395 90.2002 154.865 90.2002 155.334 90.2002C154.865 90.3726 154.395 90.3726 153.925 90.2002Z" fill="#FCFCFC"/>
<path d="M149.51 125.435C149.695 125.687 149.624 125.965 149.624 126.23C149.411 125.992 149.553 125.7 149.51 125.435Z" fill="#FCFCFC"/>
<path d="M150.48 163.096C150.437 163.321 150.408 163.56 150.365 163.785C150.38 163.56 150.279 163.308 150.48 163.096Z" fill="#FCFCFC"/>
<path d="M128.893 71.7016C127.797 72.9746 127.839 74.619 129.092 75.7196C131.627 77.974 134.332 80.0426 137.451 81.5942C137.436 81.8859 137.422 82.1644 137.422 82.4561C137.422 98.6344 137.422 114.813 137.436 130.978C137.436 131.601 137.337 131.813 136.582 131.813C116.391 131.787 96.1999 131.787 76.0088 131.813C75.2969 131.813 75.126 131.667 75.126 130.991C75.1402 101.777 75.1402 72.5635 75.1402 43.3498C75.1402 42.3818 75.0121 42.5011 76.0373 42.5011C96.1999 42.5011 116.377 42.5011 136.539 42.4746C137.308 42.4746 137.436 42.6868 137.436 43.3366C137.408 53.5077 137.422 63.6655 137.422 73.8366C135.998 73.2663 134.574 72.6961 133.15 72.1259C132.908 72.0198 132.652 71.9933 132.396 72.0198C131.727 71.8342 131.328 71.317 130.801 70.9457C129.705 70.1368 128.651 69.2748 127.583 68.4394C126.828 67.8427 126.814 67.71 127.127 66.8481C127.398 66.1055 127.312 65.9861 126.501 65.9596C126.173 65.9463 125.803 65.88 125.518 65.9861C124.806 66.2513 124.351 65.9198 123.867 65.5353C122.941 64.8059 122.03 64.0633 121.09 63.3605C120.948 63.2544 120.805 63.135 120.62 63.0555C120.264 62.9229 119.965 62.9892 119.723 63.2544C119.467 63.5329 119.495 63.8246 119.737 64.1031C119.979 64.3816 120.25 64.6203 120.549 64.8457C121.546 65.6016 122.514 66.3707 123.496 67.1398C124.109 67.6305 124.137 67.8559 123.553 68.3731C121.674 70.044 118.812 70.8661 116.035 69.845C113.216 68.8107 111.521 66.4635 111.436 63.7848C111.336 60.7083 113.714 57.1544 118.456 57.0218C121.175 56.9422 123.71 58.255 125.02 60.9205C125.048 60.9868 125.077 61.0398 125.105 61.1061C125.618 62.2863 125.76 62.3527 127.099 62.2731C127.569 62.2466 127.668 62.0742 127.554 61.6763C127.213 60.4829 126.686 59.3955 125.889 58.4009C122.784 54.5287 116.391 53.7066 112.29 57.2737C109.485 59.7137 108.559 62.8035 109.741 66.2248C110.923 69.6461 113.572 71.675 117.388 72.1524C120.463 72.537 123.14 71.5955 125.305 69.487C125.604 69.1953 125.917 69.0096 126.287 69.3146C127.07 69.9511 127.925 70.5213 128.665 71.2109C128.779 71.37 128.907 71.5026 128.893 71.7016Z" fill="#ECE9E9"/>
<path d="M127.454 38.43C127.44 38.2311 127.425 38.0322 127.425 37.8333C127.425 31.9853 127.425 26.124 127.411 20.2759C127.411 19.7853 127.511 19.5996 128.095 19.5996C151.176 19.6129 174.258 19.6129 197.34 19.5996C197.895 19.5996 198.052 19.7455 198.052 20.2627C198.037 30.805 198.037 41.3342 198.052 51.8766C198.052 52.3142 198.009 52.5396 197.425 52.5396C191.615 52.5131 185.806 52.5263 179.996 52.5131C179.384 49.4763 178.216 48.8663 174.813 48.2829C172.919 47.9513 171.026 48.2166 169.16 48.495C167.608 48.7337 166.996 49.3835 166.711 50.8422C166.754 51.4655 166.925 52.102 166.355 52.6192C166.056 52.7253 165.743 52.6987 165.444 52.6987C157.854 52.6987 150.265 52.6987 142.675 52.6987C142.533 52.6987 142.391 52.6855 142.248 52.6987C141.693 52.7253 141.437 52.5263 141.465 51.9561C141.536 50.8157 141.408 49.662 141.536 48.5216C141.821 48.3094 142.163 48.3492 142.49 48.3492C144.726 48.3492 146.947 48.3492 149.183 48.3492C149.994 48.3492 150.037 48.3226 150.037 47.5668C150.037 39.902 150.037 32.2372 150.037 24.5724C150.037 23.8298 149.994 23.8033 149.183 23.8033C144.242 23.8033 139.315 23.8033 134.374 23.8033C133.534 23.8033 133.505 23.8298 133.505 24.6387C133.505 28.9087 133.505 33.1655 133.505 37.4355C133.505 37.7803 133.605 38.1516 133.306 38.4433C131.327 38.43 129.39 38.43 127.454 38.43Z" fill="#FEFEFE"/>
<path d="M141.537 48.2699C141.394 47.3682 141.494 46.4664 141.48 45.578C141.466 44.2519 141.494 42.939 141.466 41.613C141.423 39.6769 140.099 38.4701 138.02 38.4569C136.582 38.4569 135.143 38.4569 133.691 38.4436C133.406 38.2977 133.421 38.0458 133.421 37.8071C133.421 33.3514 133.42 28.8825 133.406 24.4269C133.406 23.9097 133.62 23.7373 134.161 23.7373C139.216 23.7506 144.256 23.7506 149.311 23.7373C149.909 23.7373 150.08 23.9495 150.08 24.4799C150.066 32.211 150.066 39.9288 150.08 47.6599C150.08 48.1771 149.923 48.4158 149.311 48.4158C146.948 48.3893 144.57 48.4025 142.206 48.4025C141.978 48.4025 141.722 48.429 141.537 48.2699Z" fill="#FEFEFE"/>
<path d="M71.0532 122.398C69.5154 122.411 67.9775 122.424 66.4397 122.438C62.9084 122.438 59.3771 122.424 55.8457 122.451C55.2904 122.451 55.1338 122.318 55.1338 121.788C55.148 116.139 55.148 110.476 55.148 104.827C55.148 104.443 55.1196 104.164 55.7176 104.164C60.7725 104.191 65.8132 104.177 70.8681 104.177C70.9393 104.177 71.0105 104.204 71.0817 104.204C71.0532 110.277 71.0532 116.338 71.0532 122.398Z" fill="#FEFEFE"/>
<path d="M71.0393 103.833C62.1255 103.833 53.1975 103.833 44.2838 103.846C43.8423 103.846 43.6715 103.753 43.6715 103.303C43.643 101.565 43.6288 101.565 45.4941 101.565C54.0091 101.565 62.5242 101.579 71.0393 101.579C71.0393 102.335 71.0393 103.077 71.0393 103.833Z" fill="#FEFEFE"/>
<path d="M127.725 135.924C128.337 135.857 128.963 135.871 129.576 135.924C129.761 136.162 129.704 136.428 129.704 136.693C129.704 145.392 129.704 154.091 129.704 162.79C129.704 163.626 129.675 163.639 128.778 163.639C128.636 163.639 128.494 163.626 128.351 163.639C127.767 163.705 127.554 163.467 127.554 162.923C127.568 154.131 127.568 145.352 127.568 136.56C127.582 136.335 127.554 136.109 127.725 135.924Z" fill="#FEFEFE"/>
<path d="M71.0244 101.286C69.2871 101.021 68.6748 100.358 68.6748 98.7138C68.6748 95.9821 68.6748 93.2504 68.6748 90.5186C68.6748 89.6832 68.6748 89.6832 69.6146 89.6832C70.0845 89.6832 70.5544 89.6832 71.0386 89.6699C71.0244 93.5421 71.0244 97.4143 71.0244 101.286Z" fill="#FEFEFE"/>
<path d="M71.0394 89.3786C70.3986 89.3786 69.7578 89.3786 69.117 89.3918C68.7753 89.4051 68.6614 89.2858 68.6614 88.9675C68.7041 86.2092 68.5902 83.451 68.7326 80.6927C68.7468 80.3347 68.9035 80.2419 69.2452 80.2551C69.8433 80.2684 70.4271 80.2551 71.0251 80.2551C71.0394 83.2919 71.0394 86.3286 71.0394 89.3786Z" fill="#FEFEFE"/>
<path d="M141.537 48.2699C144.1 48.2566 146.663 48.2301 149.226 48.2566C149.838 48.2566 149.967 48.0842 149.967 47.5538C149.952 39.889 149.952 32.2242 149.967 24.5594C149.967 24.0157 149.838 23.8566 149.226 23.8699C144.271 23.8964 139.316 23.8964 134.361 23.8699C133.791 23.8699 133.592 23.976 133.592 24.5462C133.62 28.962 133.606 33.3779 133.606 37.7938C133.606 38.0192 133.577 38.2314 133.705 38.4436C133.563 38.4436 133.421 38.4436 133.278 38.4303C133.278 33.7757 133.293 29.1212 133.293 24.4533C133.293 23.4853 133.164 23.5914 134.261 23.5914C139.358 23.5914 144.456 23.5914 149.554 23.5781C150.095 23.5781 150.28 23.6842 150.28 24.2279C150.266 32.1049 150.266 39.9951 150.28 47.872C150.28 48.3759 150.152 48.5616 149.568 48.5483C146.891 48.5218 144.214 48.5351 141.537 48.5218C141.523 48.4423 141.523 48.3494 141.537 48.2699Z" fill="#5882AF"/>
<path d="M127.724 135.923C127.724 144.848 127.724 153.773 127.739 162.697C127.739 162.949 127.554 163.373 127.924 163.453C128.422 163.546 128.963 163.519 129.462 163.426C129.69 163.387 129.576 163.029 129.576 162.816C129.576 159.899 129.576 156.982 129.576 154.064C129.576 148.017 129.576 141.957 129.576 135.91C129.675 135.91 129.775 135.923 129.875 135.923C129.875 140.392 129.889 144.848 129.889 149.317C129.889 153.865 129.889 158.427 129.889 162.976C129.889 163.241 129.875 163.506 129.86 163.771C129.049 163.771 128.251 163.758 127.44 163.758C127.425 163.652 127.411 163.533 127.411 163.426C127.411 154.263 127.411 145.087 127.411 135.923C127.525 135.923 127.625 135.923 127.724 135.923Z" fill="#5A83AF"/>
<path d="M71.039 79.9632C70.6403 79.9632 70.2416 79.9765 69.8287 79.9765C68.7038 79.9765 68.6896 79.9765 68.6754 78.9156C68.6611 78.0139 68.6896 77.1121 68.6611 76.2104C68.6469 75.8258 68.7893 75.7065 69.188 75.7197C69.8002 75.7463 70.4125 75.733 71.0247 75.733C71.039 77.1386 71.039 78.5443 71.039 79.9632Z" fill="#FEFEFE"/>
<path d="M141.522 48.5352C141.522 49.6225 141.565 50.6967 141.522 51.7841C141.494 52.3676 141.65 52.5532 142.32 52.5532C147.958 52.5267 153.597 52.5399 159.236 52.5399C161.628 52.5399 164.02 52.5532 166.412 52.5532C166.583 52.7919 166.384 52.8582 166.213 52.9378C165.871 53.0439 165.501 53.0173 165.159 53.0173C157.498 53.0173 149.838 53.0173 142.163 53.0306C141.949 53.0306 141.736 53.0173 141.522 52.9776C141.508 52.9245 141.479 52.8847 141.465 52.8317C141.38 51.3862 141.294 49.9541 141.522 48.5352Z" fill="#5881AE"/>
<path d="M182.944 140.433C180.951 140.42 178.971 140.393 176.978 140.42C176.423 140.433 176.28 140.274 176.252 139.757C176.081 135.99 175.882 132.238 175.682 128.472C175.625 127.411 175.554 126.363 175.497 125.302C175.298 121.191 175.084 117.08 174.885 112.983C175.554 113.115 175.938 113.606 176.394 113.991C177.419 114.866 178.43 115.768 179.498 116.603C180.253 117.187 180.951 117.134 181.606 116.444C183.072 114.892 184.582 113.367 186.105 111.856C186.29 111.67 186.433 111.299 186.831 111.59C187.187 112.505 187.244 113.487 187.387 114.442C187.999 118.539 188.682 122.637 189.295 126.748C189.352 127.145 189.451 127.53 189.807 127.795C189.807 127.888 189.807 127.941 189.95 127.941C196.785 127.848 203.634 127.928 210.468 127.901C210.753 127.901 211.038 127.862 211.28 128.06C211.28 128.392 210.995 128.365 210.782 128.405C210.483 128.458 210.169 128.432 209.856 128.432C203.577 128.432 197.283 128.432 191.003 128.432C190.89 128.432 190.761 128.432 190.647 128.432C189.622 128.445 189.594 128.472 189.736 129.413C189.836 130.116 189.964 130.805 190.049 131.508C190.121 132.052 190.405 132.291 190.989 132.251C191.231 132.238 191.459 132.251 191.701 132.251C197.895 132.251 204.075 132.251 210.269 132.264C210.668 132.264 211.194 132.065 211.408 132.622C211.081 132.755 210.753 132.662 210.426 132.662C203.933 132.675 197.44 132.662 190.946 132.662C190.719 132.662 190.491 132.702 190.178 132.596C190.491 132.702 190.719 132.662 190.932 132.662C197.425 132.662 203.918 132.662 210.411 132.675C210.653 132.675 210.981 132.503 211.166 132.848C210.824 133.179 210.369 133.073 209.956 133.073C203.918 133.086 197.895 133.073 191.858 133.073C191.644 133.073 191.431 133.073 191.217 133.073C190.405 133.086 190.391 133.113 190.405 133.855C190.405 133.975 190.405 134.094 190.42 134.2C190.519 134.558 190.534 134.93 190.647 135.288C190.676 135.407 190.69 135.526 190.704 135.632C190.904 136.972 191.146 138.298 191.317 139.637C191.416 140.42 191.26 140.592 190.42 140.605C188.184 140.618 185.963 140.618 183.727 140.605C183.457 140.632 183.172 140.605 182.944 140.433Z" fill="#6DB5DE"/>
<path d="M186.675 111.524C185.08 113.155 183.471 114.773 181.876 116.404C180.937 117.372 180.253 117.451 179.214 116.603C177.761 115.409 176.309 114.189 174.871 112.996C173.49 111.656 171.966 110.476 170.499 109.229C168.662 107.651 166.783 106.087 164.96 104.495C164.263 103.899 164.263 103.09 164.889 102.44C167.723 99.5358 170.556 96.6449 173.404 93.7408C173.546 93.5949 173.703 93.4623 173.86 93.3297C174.6 92.9451 175.241 93.091 175.853 93.6082C177.263 94.8149 178.673 95.9951 180.096 97.1886C179.741 98.1169 179.299 99.0186 179.029 99.9601C178.616 101.419 179.114 102.758 179.812 104.058C180.153 104.349 179.968 104.774 180.111 105.132C180.253 105.954 180.396 106.776 180.552 107.598C180.709 108.434 181.164 109.057 182.104 109.269C182.289 109.336 182.489 109.402 182.688 109.375C183.101 109.375 183.514 109.375 183.913 109.375C184.14 109.415 184.169 109.283 184.212 109.123C184.254 108.978 184.197 108.765 184.468 108.765C184.411 109.362 184.667 109.468 185.237 109.229C186.205 108.805 186.846 108.142 186.96 107.134C187.102 105.874 187.159 104.601 187.245 103.328C187.743 103.289 187.914 103.62 188.07 103.965C188.199 104.111 188.312 104.27 188.512 104.336C189.452 104.721 190.121 105.437 190.662 106.193C191.018 106.697 190.904 107.36 190.434 107.85C189.978 108.328 189.58 108.858 189.081 109.283C188.911 109.428 188.74 109.574 188.583 109.747C188.013 110.396 187.472 111.073 186.675 111.524Z" fill="#202B6D"/>
<path d="M172.037 125.421C172.165 129.095 172.293 132.755 172.422 136.428C172.436 136.693 172.422 136.958 172.422 137.224C172.208 137.436 171.923 137.449 171.638 137.449C170.514 137.449 169.389 137.476 168.264 137.436C168.136 137.436 167.993 137.436 167.865 137.436C167.21 137.396 166.527 137.608 165.914 137.237C164.96 134.956 164.006 132.688 163.066 130.407C162.369 128.723 161.7 127.026 161.03 125.342C164.547 125.342 168.064 125.342 171.567 125.355C171.71 125.355 171.866 125.395 172.037 125.421Z" fill="#6DB5DE"/>
<path d="M178.089 63.9442C178.245 63.8381 178.388 63.9044 178.544 63.9574C178.544 66.7157 178.559 69.474 178.544 72.2322C178.544 72.6698 178.573 72.9616 179.171 73.0279C179.869 73.1074 180.296 73.5583 180.452 74.1948C180.595 74.7783 180.609 75.3883 180.452 75.9585C180.267 76.7011 179.626 77.1387 178.801 77.1653C178.772 77.1653 178.758 77.1653 178.729 77.1653C176.465 77.3111 175.853 76.6746 175.967 74.6192C176.024 73.7174 176.494 73.0809 177.462 72.9616C177.989 72.8953 177.989 72.6698 177.989 72.3118C177.975 69.7657 177.989 67.2329 177.989 64.6868C177.989 64.4613 177.961 64.1961 178.089 63.9442Z" fill="#FDFDFE"/>
<path d="M181.236 85.5724C181.236 86.1692 181.236 86.7659 181.236 87.3759C181.207 87.3759 181.193 87.3759 181.164 87.3759C181.164 86.7792 181.164 86.1692 181.164 85.5724C181.178 85.5592 181.207 85.5592 181.236 85.5724Z" fill="#81B1D3"/>
<path d="M168.15 137.25C169.574 137.25 170.984 137.236 172.408 137.236C172.465 138.669 172.522 140.101 172.564 141.533C172.664 144.702 172.749 147.872 172.835 151.054C172.408 151.319 171.995 151.28 171.568 151.067C170.343 148.296 169.204 145.498 168.122 142.673C167.809 141.042 168.008 139.385 167.965 137.753C167.965 137.555 168.022 137.382 168.15 137.25Z" fill="#FEFEFE"/>
<path d="M165.886 137.236C166.541 137.236 167.181 137.25 167.836 137.25C168.036 137.395 168.007 137.594 168.007 137.793C168.007 138.987 168.007 140.18 168.007 141.36C168.007 141.546 168.05 141.772 167.808 141.878C167.096 140.366 166.47 138.801 165.886 137.236Z" fill="#FBFBFC"/>
<path d="M172.963 153.548C172.835 153.548 172.707 153.561 172.579 153.561C172.251 152.845 171.895 152.129 171.71 151.36C172.08 151.068 172.465 151.095 172.849 151.347C172.892 152.076 172.92 152.805 172.963 153.548Z" fill="#FBFBFC"/>
<path d="M167.808 141.891C167.822 140.34 167.822 138.802 167.836 137.25C167.936 137.25 168.05 137.25 168.15 137.25C168.135 139.053 168.135 140.857 168.121 142.66C168.021 142.395 167.907 142.143 167.808 141.891Z" fill="#5881AE"/>
<path d="M172.849 151.333C172.464 151.333 172.094 151.347 171.71 151.347C171.667 151.241 171.624 151.148 171.567 151.042C171.995 151.042 172.407 151.042 172.835 151.028C172.849 151.134 172.849 151.241 172.849 151.333Z" fill="#648AB3"/>
<path d="M141.537 52.9508C141.694 52.7519 141.922 52.8182 142.135 52.8182C150.123 52.8182 158.126 52.8182 166.114 52.8182C166.185 52.8182 166.256 52.8315 166.328 52.8315C166.541 53.0437 166.498 53.3089 166.47 53.5608C166.413 53.7995 166.37 54.0515 166.37 54.3034C166.413 54.9002 166.228 55.4837 166.228 56.0804C166.228 58.6132 167.395 60.0189 170.03 60.6421C170.443 60.735 170.87 60.788 171.283 60.8941C171.568 60.9737 171.867 61.0798 171.881 61.3848C171.924 62.2334 172.109 63.0954 171.767 63.9176C171.24 63.9308 170.713 63.9441 170.186 63.9574C168.819 63.9574 167.438 63.8248 166.071 64.0369C163.907 64.3817 162.454 65.5354 161.643 67.4317C161.159 68.5721 160.319 69.5137 159.621 70.5215C157.357 73.8367 155.064 77.1122 152.8 80.4274C152.501 80.865 152.288 80.865 151.861 80.6263C150.835 80.0693 149.782 79.5787 148.771 78.9952C148.158 78.6372 147.703 78.5311 147.375 79.2604C145.624 78.2526 143.887 77.2315 142.107 76.2502C141.68 76.0115 141.537 75.7595 141.537 75.3087C141.551 67.8693 141.537 60.4167 141.537 52.9508Z" fill="#FEFEFE"/>
<path d="M171.739 63.9174C171.739 63.1881 171.696 62.4587 171.753 61.7426C171.796 61.1857 171.482 61.0796 171.027 61.0133C169.802 60.8276 168.634 60.5226 167.623 59.8066C166.499 59.0109 166.114 57.8837 166.029 56.6372C165.972 55.815 166.114 55.0194 166.2 54.2105C166.37 54.1309 166.669 54.2503 166.726 54.0116C166.798 53.7331 166.413 53.7463 166.299 53.5739C166.299 53.322 166.299 53.0833 166.299 52.8313C166.328 52.7385 166.37 52.6324 166.399 52.5396C166.499 51.9826 166.584 51.4124 166.684 50.8555C166.755 51.2533 167.125 51.1339 167.367 51.1472C168.877 51.24 170.386 51.3329 171.91 51.3859C172.379 51.3992 172.607 51.5583 172.778 51.9694C173.818 54.3431 174.914 56.7168 175.968 59.0905C176.324 59.8994 176.338 60.7746 176.409 61.6233C176.466 62.3924 176.409 63.1616 176.409 63.9307C174.871 63.9307 173.305 63.9174 171.739 63.9174Z" fill="#FD9993"/>
<path d="M188.911 109.27C189.352 108.806 189.78 108.342 190.221 107.891C190.904 107.175 190.89 106.406 190.15 105.743C189.623 105.278 189.082 104.814 188.541 104.35C188.769 104.178 189.039 104.271 189.295 104.271C197.782 104.271 206.283 104.271 214.769 104.244C215.481 104.244 215.609 104.43 215.609 105.053C215.595 120.953 215.595 136.853 215.609 152.766C215.609 153.468 215.381 153.575 214.698 153.575C204.118 153.561 193.539 153.561 182.959 153.561C182.959 152.819 182.959 152.076 182.959 151.333C183.272 151.002 183.714 151.108 184.098 151.108C190.477 151.095 196.856 151.108 203.25 151.108C205.628 151.108 207.991 151.108 210.369 151.108C211.209 151.108 211.238 151.082 211.238 150.273C211.238 144.769 211.238 139.266 211.238 133.763C211.238 133.365 211.195 132.967 211.395 132.596C211.167 132.344 210.868 132.477 210.597 132.477C203.976 132.463 197.369 132.463 190.748 132.477C190.164 132.477 189.922 132.37 189.879 131.787C189.78 130.753 189.58 129.732 189.381 128.724C189.281 128.193 189.609 128.22 189.993 128.22C194.806 128.22 199.619 128.22 204.432 128.22C206.468 128.22 208.504 128.22 210.554 128.22C210.811 128.22 211.081 128.299 211.309 128.127C211.209 127.822 211.238 127.517 211.238 127.212C211.238 121.695 211.238 116.179 211.238 110.662C211.238 110.437 211.238 110.225 211.238 109.999C211.238 109.655 211.095 109.456 210.683 109.482C210.469 109.495 210.255 109.482 210.042 109.482C203.364 109.482 196.671 109.482 189.993 109.482C189.623 109.456 189.224 109.548 188.911 109.27Z" fill="#FEFEFE"/>
<path d="M182.944 140.432C185.45 140.419 187.971 140.406 190.477 140.419C191.018 140.419 191.274 140.406 191.146 139.743C190.861 138.364 190.733 136.958 190.534 135.566C190.747 135.287 191.075 135.34 191.374 135.34C192.556 135.327 193.738 135.327 194.919 135.34C195.332 135.34 195.589 135.261 195.589 134.796C195.589 134.332 195.332 134.253 194.905 134.253C193.624 134.253 192.356 134.266 191.075 134.253C190.776 134.253 190.448 134.306 190.235 134.027C190.05 132.86 190.05 132.86 191.345 132.86C197.625 132.86 203.919 132.86 210.198 132.86C210.511 132.86 210.81 132.9 211.124 132.913C211.366 133.099 211.294 133.364 211.294 133.59C211.294 139.199 211.294 144.808 211.294 150.431C211.294 151.134 211.237 151.174 210.483 151.187C201.541 151.187 192.598 151.187 183.656 151.187C183.414 151.187 183.172 151.213 182.973 151.068C182.959 147.5 182.944 143.973 182.944 140.432Z" fill="#FEFEFE"/>
<path d="M182.959 151.042C192.058 151.042 201.171 151.028 210.27 151.055C210.953 151.055 211.124 150.896 211.124 150.259C211.096 144.477 211.11 138.682 211.11 132.901C210.911 132.596 210.597 132.742 210.341 132.742C203.891 132.728 197.44 132.742 190.976 132.728C190.719 132.728 190.463 132.781 190.05 132.596C197.269 132.596 204.332 132.596 211.395 132.596C211.409 132.821 211.437 133.033 211.437 133.259C211.437 139.027 211.423 144.796 211.452 150.551C211.452 151.201 211.238 151.347 210.569 151.347C201.37 151.333 192.157 151.333 182.959 151.333C182.973 151.241 182.959 151.134 182.959 151.042Z" fill="#5F87B2"/>
<path d="M177.007 58.2288C177.007 56.8762 177.007 55.5501 177.007 54.2373C178.402 54.3699 179.428 55.1258 179.527 56.0673C179.627 57.0353 178.758 57.8045 177.007 58.2288Z" fill="#FC9993"/>
<path d="M128.892 71.7013C127.981 70.9587 127.055 70.2426 126.172 69.4867C125.802 69.1685 125.646 69.4337 125.446 69.6326C123.994 71.078 122.214 71.9665 120.107 72.3246C115.08 73.1865 109.983 69.8315 109.214 65.1106C108.616 61.4109 110.424 57.8437 113.799 56.0535C117.302 54.2102 121.445 54.5285 124.563 56.9022C126.315 58.2415 127.354 59.9787 127.824 62.0341C127.91 62.3922 127.81 62.5248 127.411 62.4585C127.383 62.4585 127.369 62.4585 127.34 62.4585C126.073 62.5778 125.304 62.2993 124.777 60.96C123.638 58.1354 120.135 56.6369 117.002 57.3398C113.585 58.1089 111.449 60.8141 111.62 64.1293C111.777 67.0732 114.34 69.6193 117.544 70.0304C119.865 70.3222 121.83 69.6591 123.51 68.1606C123.837 67.8689 123.923 67.6832 123.496 67.365C122.257 66.45 121.061 65.4687 119.85 64.5139C119.238 64.0365 119.138 63.5193 119.566 63.095C119.993 62.6441 120.534 62.6574 121.132 63.1348C122.257 64.0232 123.367 64.9117 124.492 65.7869C124.649 65.9196 124.749 66.0522 125.133 65.8798C125.831 65.5748 126.714 65.8267 127.511 65.9063C127.668 65.9196 127.625 66.0787 127.596 66.1848C127.568 66.3174 127.511 66.4367 127.468 66.5561C127.013 67.8026 127.027 67.7893 128.123 68.6513C129.547 69.7785 130.971 70.9056 132.395 72.0328C131.498 72.4969 131.37 72.8815 131.768 73.8496C130.8 73.1335 129.846 72.4174 128.892 71.7013Z" fill="black"/>
<path d="M132.58 74.2478C134.517 75.0965 136.467 75.9452 138.404 76.8204C139.073 77.1121 139.258 77.6691 138.917 78.173C138.575 78.6769 137.977 78.7432 137.393 78.3189C136.88 77.9343 136.354 77.5498 135.869 77.1254C135.556 76.8469 135.385 76.8469 135.214 77.2315C135.101 77.4702 134.958 77.6956 134.816 77.9343C134.716 78.0802 134.588 78.173 134.403 78.0669C134.26 77.9874 134.26 77.8548 134.332 77.7221C134.346 77.6824 134.374 77.6426 134.403 77.6028C134.972 76.4491 134.972 76.4491 133.933 75.6004C133.435 75.1893 132.936 74.7915 132.438 74.3937C132.395 74.2611 132.424 74.1948 132.58 74.2478Z" fill="#010101"/>
<path d="M132.581 74.2472C132.524 74.287 132.481 74.34 132.424 74.3798C132.239 74.3268 132.111 74.2074 131.982 74.0218C132.253 74.0085 132.424 74.1013 132.581 74.2472Z" fill="#36211F"/>
<path d="M52.9697 133.868C52.9697 124.241 52.9697 114.6 52.9839 104.973C52.9839 104.721 52.7704 104.31 53.1833 104.23C53.6816 104.137 54.2227 104.124 54.721 104.27C54.7779 104.283 54.8064 104.469 54.8064 104.562C54.8206 104.721 54.8064 104.867 54.8064 105.026C54.8064 124.241 54.8064 143.469 54.7922 162.684C54.7922 162.949 54.9773 163.36 54.6213 163.44C54.123 163.533 53.5819 163.506 53.0694 163.427C52.8558 163.4 52.9555 163.082 52.9555 162.883C52.9555 161.185 52.9555 159.475 52.9555 157.777C52.9697 149.808 52.9697 141.838 52.9697 133.868Z" fill="#FEFEFE"/>
<path d="M60.345 92.2429C60.345 89.9752 60.3593 87.6944 60.3308 85.4268C60.3165 84.8566 60.5159 84.7239 61.0997 84.7372C62.1392 84.777 63.1929 84.7637 64.2323 84.7372C64.6737 84.7239 64.7877 84.8698 64.7877 85.2676C64.7734 89.8824 64.7877 94.4972 64.7734 99.112C64.7734 100.332 63.8052 101.247 62.5664 101.26C61.3275 101.274 60.3735 100.359 60.3593 99.1252C60.3308 96.8311 60.345 94.537 60.345 92.2429Z" fill="#FEFEFE"/>
<path d="M63.8623 101.247C65.0442 100.451 65.1011 99.4301 65.1011 98.3295C65.0726 92.9455 65.0869 87.5484 65.0869 82.1645C65.0869 81.7932 65.0014 81.4218 65.628 81.3821C65.9697 81.3555 65.9555 80.9842 65.927 80.719C65.8558 80.1621 66.2687 80.2151 66.6105 80.2681C66.9522 80.3079 67.5503 79.9897 67.5075 80.719C67.4791 81.1168 67.5788 81.4218 68.1056 81.4351C68.4473 81.4484 68.3619 81.7003 68.3619 81.886C68.3761 82.5225 68.3619 83.1723 68.3619 83.8088C68.3619 88.6225 68.3761 93.4362 68.3477 98.2499C68.3477 99.3638 68.3761 100.411 69.5865 101.234C67.6215 101.247 65.8558 101.247 63.8623 101.247Z" fill="#FEFEFE"/>
<path d="M60.3454 77.7749C60.3454 77.2444 60.3739 76.714 60.3312 76.1835C60.3027 75.799 60.4736 75.6929 60.858 75.7062C61.9972 75.7194 63.1221 75.7194 64.2613 75.7062C64.5461 75.7062 64.7739 75.7194 64.7597 76.0775C64.7312 77.2046 64.7169 78.3186 64.7169 79.4457C64.7169 79.817 64.5888 79.9894 64.1473 79.9762C63.0652 79.9496 61.9687 79.9496 60.8865 79.9762C60.4878 79.9894 60.3454 79.8701 60.3597 79.4988C60.3881 78.9286 60.3739 78.3583 60.3739 77.7881C60.3597 77.7749 60.3597 77.7749 60.3454 77.7749Z" fill="#FEFEFE"/>
<path d="M60.3742 82.3369C60.3742 81.8463 60.4027 81.3689 60.36 80.8782C60.3173 80.4009 60.4739 80.2152 61.015 80.2417C62.026 80.2815 63.0513 80.2682 64.0623 80.2417C64.4752 80.2285 64.6746 80.2948 64.7173 80.7722C64.8027 81.8463 64.7173 82.9337 64.7743 84.0078C64.7885 84.3658 64.6461 84.4587 64.2759 84.4587C63.1367 84.4454 62.0118 84.4321 60.8726 84.4587C60.4027 84.4719 60.3173 84.2863 60.3315 83.915C60.36 83.3845 60.3315 82.8541 60.3315 82.3237C60.36 82.3369 60.36 82.3369 60.3742 82.3369Z" fill="#FEFEFE"/>
<path d="M65.0869 80.7323C65.1296 80.5732 64.973 80.308 65.3147 80.2814C65.628 80.2549 65.6422 80.4804 65.628 80.6925C65.6137 80.8782 65.6992 81.1302 65.3717 81.1567C65.03 81.1832 65.1012 80.9312 65.0869 80.7323Z" fill="#F7F9FB"/>
<path d="M68.3622 80.732C68.3337 80.8911 68.4334 81.1298 68.1344 81.1298C67.7785 81.1431 67.8213 80.8779 67.8213 80.6657C67.807 80.4535 67.8355 80.2414 68.1344 80.2679C68.4761 80.3077 68.3195 80.5729 68.3622 80.732Z" fill="#FDFDFE"/>
<path d="M68.3619 79.6046C68.3477 79.777 68.4047 79.9759 68.1057 79.9759C67.8494 79.9759 67.8066 79.83 67.8066 79.6311C67.8066 79.4454 67.8351 79.2731 68.0772 79.2465C68.3619 79.22 68.3619 79.4189 68.3619 79.6046Z" fill="#F0F3F7"/>
<path d="M59.4912 80.6795C59.5055 80.5072 59.4485 80.2817 59.7191 80.2817C60.0467 80.2685 59.9897 80.5337 59.9754 80.7061C59.9754 80.8785 60.0609 81.1569 59.7191 81.1304C59.42 81.1171 59.5197 80.8519 59.4912 80.6795Z" fill="#F6F8FA"/>
<path d="M65.3287 79.2471C65.5993 79.2736 65.642 79.4327 65.6278 79.6184C65.6278 79.804 65.6135 79.9631 65.343 79.9631C65.0581 79.9631 65.0724 79.7775 65.0724 79.6051C65.0866 79.4327 65.0724 79.2603 65.3287 79.2471Z" fill="#EFF3F7"/>
<path d="M59.7476 79.2734C59.9755 79.3 59.9755 79.4591 59.9755 79.6182C59.9755 79.8039 59.9755 79.9895 59.6906 79.963C59.4484 79.9365 59.4912 79.7508 59.4912 79.6049C59.4912 79.4458 59.5197 79.2867 59.7476 79.2734Z" fill="#FEFEFE"/>
<path d="M188.084 103.978C187.814 103.766 187.529 103.554 187.258 103.342C187.187 102.559 187.358 101.79 187.387 101.008C197.397 101.008 207.407 101.008 217.417 101.021C218.584 101.021 218.414 100.875 218.414 101.976C218.414 102.612 218.713 103.448 218.3 103.832C217.858 104.257 216.947 103.965 216.249 103.965C206.866 103.978 197.482 103.978 188.084 103.978Z" fill="#FEFEFE"/>
<path d="M182.702 109.389C182.417 109.76 182.246 109.614 182.118 109.282C182.175 108.089 182.232 106.909 182.289 105.715C182.303 105.516 182.289 105.317 182.317 105.119C182.332 104.946 182.332 104.734 182.588 104.721C182.916 104.721 182.859 104.973 182.859 105.158C182.816 106.352 182.759 107.532 182.716 108.725C182.688 108.951 182.702 109.163 182.702 109.389Z" fill="#050303"/>
<path d="M180.111 105.146C179.598 104.894 179.926 104.43 179.812 104.072C179.869 102.958 179.911 101.831 179.968 100.717C179.983 100.518 179.897 100.213 180.253 100.226C180.595 100.239 180.524 100.531 180.524 100.743C180.481 102.016 180.424 103.289 180.367 104.562C180.367 104.788 180.31 105 180.111 105.146Z" fill="#060404"/>
<path d="M184.482 108.779C184.34 108.951 184.425 109.163 184.397 109.349C184.382 109.481 184.382 109.627 184.197 109.641C184.012 109.654 183.969 109.508 183.927 109.389C183.984 108.049 184.026 106.71 184.098 105.357C184.112 105.145 183.984 104.787 184.368 104.787C184.753 104.787 184.653 105.119 184.639 105.344C184.596 106.498 184.539 107.638 184.482 108.779Z" fill="#070404"/>
<path d="M208.147 158.693C208.147 157.3 208.161 155.908 208.133 154.529C208.119 154.091 208.233 153.905 208.76 153.919C209.799 153.958 210.838 153.945 211.892 153.919C212.376 153.905 212.49 154.078 212.476 154.489C212.462 157.313 212.462 160.138 212.476 162.963C212.476 163.347 212.376 163.506 211.921 163.506C210.838 163.48 209.742 163.48 208.646 163.506C208.233 163.52 208.133 163.36 208.133 163.002C208.161 161.557 208.147 160.125 208.147 158.693Z" fill="#FEFEFE"/>
<path d="M86.2035 58.7585C86.3032 58.8381 86.3459 58.8779 86.4028 58.9309C86.887 59.3818 87.5277 59.7663 87.8125 60.31C88.0973 60.867 87.4423 61.4107 87.2857 61.9809C86.2889 65.5348 88.5814 69.0887 92.4403 69.9639C96.1282 70.7994 99.9444 68.5716 100.784 65.0972C101.625 61.5831 99.2181 58.0955 95.4305 57.3529C93.9496 57.0611 92.4972 57.1937 91.1445 57.817C90.7031 58.0159 90.4183 57.9894 90.1335 57.6313C89.9911 57.459 89.806 57.3131 89.6351 57.154C88.7238 56.3053 88.7096 56.2655 89.863 55.7881C93.4797 54.2763 96.9399 54.5681 99.9871 56.9153C103.148 59.342 104.188 62.5776 103.02 66.2111C101.881 69.765 99.1612 71.9133 95.2027 72.3774C91.3154 72.8416 88.14 71.4624 86.0326 68.3594C83.9679 65.3094 84.0534 62.14 85.9899 59.0237C86.0611 58.9309 86.118 58.8646 86.2035 58.7585Z" fill="black"/>
<path d="M120.434 89.8685C118.256 89.2585 116.832 87.9722 116.248 85.9831C115.636 83.8746 116.191 81.9916 117.886 80.4666C119.666 78.862 122.343 78.4907 124.55 79.4853C126.828 80.5064 128.152 82.6679 127.91 84.9885C127.668 87.3225 125.974 89.2188 123.553 89.8553C122.727 90.0675 122.755 90.0675 122.798 89.2718C122.827 88.8077 122.884 88.5027 123.467 88.317C125.489 87.6672 126.586 85.877 126.301 83.8746C126.045 82.0844 124.421 80.6655 122.414 80.4666C120.378 80.2677 118.484 81.4081 117.829 83.2116C117.174 85.0151 117.914 87.0307 119.723 87.959C120.463 88.3435 120.677 88.7414 120.491 89.4442C120.463 89.5503 120.463 89.6829 120.434 89.8685Z" fill="black"/>
<path d="M85.6338 81.4479C85.6765 81.4744 85.7193 81.4877 85.7477 81.5142C86.3742 82.0181 86.7729 82.4425 86.36 83.4105C85.6338 85.1079 86.6305 87.1236 88.3107 88.012C90.1333 88.9668 92.2976 88.6883 93.7215 87.296C95.0742 85.9699 95.302 83.9144 94.2626 82.3364C93.2089 80.7451 91.1016 79.976 89.2078 80.639C88.4958 80.891 88.0829 80.7716 87.67 80.2677C87.5561 80.1351 87.3852 80.0555 87.2143 79.9362C89.6634 78.2653 93.1947 78.7692 95.1597 80.9838C97.1673 83.2381 96.911 86.5401 94.5758 88.5823C92.3546 90.5183 88.7521 90.5449 86.5594 88.622C84.3096 86.6727 83.8967 83.3973 85.6338 81.4479Z" fill="black"/>
<path d="M102.422 88.9004C102.578 88.7678 102.692 88.7015 102.778 88.5954C103.233 88.065 103.675 87.9722 104.43 88.2772C106.779 89.2187 109.427 87.9987 110.196 85.7443C110.965 83.5032 109.527 81.103 107.078 80.5328C104.643 79.9759 102.151 81.4743 101.71 83.7817C101.582 84.4182 101.553 85.0945 101.852 85.678C102.137 86.2217 101.938 86.5267 101.496 86.8185C101.311 86.9511 101.14 87.0969 100.955 87.2428C99.4173 85.373 99.9584 82.0445 102.052 80.3737C104.529 78.3845 108.004 78.4906 110.282 80.6256C112.489 82.6943 112.574 86.0228 110.51 88.1976C108.402 90.3591 104.885 90.6906 102.422 88.9004Z" fill="black"/>
<path d="M88.8097 111.484C91.0026 111.471 92.8252 112.956 93.11 114.985C93.3805 116.908 91.9851 118.818 89.9773 119.322C87.8984 119.826 85.6629 118.818 84.9082 116.988C84.8085 116.762 84.4953 116.378 84.8655 116.258C85.2072 116.152 85.7341 116.006 85.9761 116.603C86.3321 117.492 87.0583 118.035 88.0266 118.287C89.6356 118.698 91.3301 117.85 91.8284 116.391C92.3411 114.932 91.5721 113.368 90.0628 112.771C88.5249 112.174 86.7593 112.771 86.0473 114.203C85.8337 114.627 85.5774 114.707 85.136 114.707C84.7088 114.707 84.6804 114.561 84.78 114.229C85.2642 112.665 86.9729 111.498 88.8097 111.484Z" fill="black"/>
<path d="M88.8095 104.509C87.0581 104.495 85.4491 103.461 84.8653 101.949C84.7941 101.75 84.4666 101.406 84.8796 101.313C85.2071 101.246 85.6912 101.061 85.9475 101.618C86.4743 102.811 87.4853 103.434 88.8807 103.434C90.4328 103.434 91.7286 102.36 91.9564 100.902C92.17 99.5623 91.2302 98.1699 89.8348 97.7323C88.3966 97.2814 86.7876 97.8914 86.0614 99.1379C85.9475 99.3369 85.976 99.6684 85.6627 99.7082C85.3637 99.7479 84.9792 99.7877 84.7657 99.6551C84.5521 99.5225 84.8084 99.2042 84.8938 98.9921C85.6485 97.1886 87.8271 96.1808 89.906 96.6582C91.9706 97.1356 93.3661 99.0319 93.1098 101.008C92.8392 103.023 90.9881 104.522 88.8095 104.509Z" fill="black"/>
<path d="M125.546 112.266C125.119 112.81 124.749 113.035 124.008 112.717C122.77 112.187 121.203 112.73 120.434 113.778C119.594 114.918 119.694 116.443 120.691 117.438C121.645 118.406 123.197 118.658 124.45 118.048C125.731 117.425 126.401 116.099 126.059 114.826C125.945 114.415 125.831 114.096 126.287 113.751C126.728 113.42 126.799 113.606 126.942 113.937C127.668 115.528 127.169 117.411 125.703 118.539C124.251 119.653 122.157 119.759 120.605 118.777C119.011 117.77 118.313 115.926 118.897 114.242C119.48 112.571 121.161 111.457 123.054 111.484C124.008 111.497 124.706 111.723 125.546 112.266Z" fill="black"/>
<path d="M111.407 104.509C109.129 104.509 107.349 102.945 107.135 100.77C106.95 98.8338 108.502 97.017 110.695 96.6059C112.76 96.2214 114.881 97.4414 115.493 99.3642C115.55 99.5631 115.807 99.9079 115.465 99.9609C115.123 100.014 114.596 100.226 114.397 99.6427C114.084 98.7277 113.415 98.0911 112.446 97.7729C110.866 97.2557 109.157 97.9718 108.502 99.404C107.861 100.823 108.531 102.494 110.026 103.17C111.521 103.846 113.301 103.329 114.155 101.963C114.269 101.778 114.269 101.446 114.639 101.486C114.91 101.512 115.28 101.42 115.436 101.632C115.579 101.817 115.351 102.083 115.237 102.295C114.539 103.661 113.059 104.509 111.407 104.509Z" fill="black"/>
<path d="M96.584 98.1838C97.1963 98.5551 97.2959 98.9662 96.9969 99.6558C96.4558 100.916 97.0966 102.334 98.3354 103.037C99.5315 103.714 101.141 103.554 102.151 102.639C103.134 101.764 103.39 100.279 102.764 99.1651C102.08 97.9716 100.614 97.2953 99.2182 97.7197C98.4493 97.9584 98.2215 97.5208 97.8655 97.1362C99.3037 96.0753 101.867 96.4599 103.205 97.9318C104.715 99.5894 104.544 101.99 102.821 103.475C101.197 104.867 98.5917 104.841 97.0254 103.409C95.4164 101.95 95.217 99.5894 96.584 98.1838Z" fill="black"/>
<path d="M125.561 97.3741C125.134 97.9443 124.678 98.0504 123.952 97.7719C122.627 97.268 121.09 97.8648 120.321 99.0185C119.594 100.119 119.765 101.604 120.748 102.559C121.745 103.527 123.325 103.739 124.592 103.063C125.831 102.4 126.486 101.047 126.016 99.7876C125.76 99.0848 126.301 98.9256 126.629 98.5809C127.768 99.8672 127.426 102.161 125.917 103.461C124.265 104.906 121.631 104.867 120.007 103.368C118.413 101.909 118.313 99.5091 119.78 97.9046C121.218 96.3398 123.781 96.1011 125.561 97.3741Z" fill="black"/>
<path d="M97.8516 112.014C99.9162 110.993 102.28 111.51 103.519 113.234C104.729 114.905 104.373 117.186 102.721 118.499C101.07 119.812 98.5778 119.745 97.0257 118.34C95.4309 116.894 95.2173 114.693 96.5273 113.141C97.2963 113.672 97.2962 113.672 96.9972 114.468C96.5131 115.741 97.0115 117.146 98.2218 117.902C99.3894 118.631 100.956 118.539 102.038 117.663C103.092 116.828 103.405 115.33 102.793 114.163C102.166 112.982 100.685 112.253 99.2897 112.638C98.5208 112.837 98.2218 112.545 97.8516 112.014Z" fill="black"/>
<path d="M111.421 111.484C113.301 111.484 114.924 112.585 115.479 114.256C115.55 114.455 115.864 114.826 115.436 114.893C115.109 114.946 114.582 115.091 114.383 114.521C113.956 113.381 113.087 112.704 111.791 112.545C110.253 112.36 108.773 113.288 108.374 114.667C107.961 116.113 108.744 117.584 110.211 118.141C111.677 118.712 113.358 118.181 114.155 116.895C114.283 116.683 114.297 116.404 114.71 116.391C115.565 116.364 115.65 116.457 115.294 117.16C114.397 118.911 112.204 119.826 110.225 119.255C108.146 118.659 106.907 116.815 107.235 114.786C107.52 112.89 109.314 111.471 111.421 111.484Z" fill="black"/>
<path d="M175.64 47.2222C170.144 47.2222 164.633 47.2089 159.137 47.2354C158.496 47.2354 158.354 47.063 158.354 46.4928C158.382 40.7774 158.382 35.0487 158.354 29.3333C158.354 28.8028 158.482 28.6172 159.094 28.6172C170.144 28.6304 181.207 28.6304 192.257 28.6172C192.869 28.6172 192.997 28.7896 192.997 29.32C192.983 35.0354 192.969 40.7641 192.997 46.4796C192.997 47.1161 192.77 47.2222 192.157 47.2222C186.632 47.2222 181.136 47.2222 175.64 47.2222Z" fill="#5983AF"/>
<path d="M175.64 26.2966C170.186 26.2966 164.718 26.2966 159.265 26.2966C158.354 26.2966 158.354 26.2966 158.354 25.4214C158.354 24.997 158.382 24.5727 158.339 24.1616C158.297 23.671 158.51 23.5781 158.994 23.5781C170.101 23.5914 181.207 23.5914 192.314 23.5781C192.869 23.5781 193.012 23.7373 192.983 24.2146C192.94 24.7186 192.94 25.2357 192.983 25.7396C193.012 26.1905 192.827 26.3099 192.371 26.2966C190.904 26.2701 189.423 26.2833 187.957 26.2833C183.842 26.2966 179.741 26.2966 175.64 26.2966Z" fill="#5882AE"/>
<path d="M186.675 111.524C187.287 110.901 187.899 110.264 188.512 109.641C188.839 109.482 189.181 109.469 189.551 109.469C196.4 109.469 203.263 109.469 210.112 109.469C211.237 109.469 211.294 109.522 211.294 110.543C211.294 116.02 211.294 121.496 211.294 126.973C211.294 127.954 211.294 127.954 210.226 127.954C209.472 127.954 208.703 127.954 207.948 127.954C207.079 127.954 206.98 127.875 206.98 127.039C206.966 124.056 206.937 121.072 206.994 118.088C207.023 116.51 206.368 115.357 204.83 114.68C204.303 114.442 204.104 114.097 204.132 113.566C204.146 113.102 204.132 112.638 204.132 112.174C204.132 111.842 203.975 111.71 203.605 111.71C201.669 111.723 201.953 111.564 201.996 113.089C202.025 113.964 201.74 114.508 200.9 114.959C199.789 115.555 199.248 116.55 199.248 117.77C199.262 120.727 199.248 123.684 199.248 126.655C199.248 126.854 199.248 127.053 199.248 127.252C199.248 127.742 199.034 127.981 198.479 127.968C197.696 127.941 196.913 127.968 196.13 127.954C195.432 127.941 195.318 127.848 195.304 127.159C195.289 125.74 195.304 124.334 195.289 122.915C195.289 122.252 195.275 121.589 195.304 120.926C195.332 120.396 195.147 120.157 194.535 120.17C193.296 120.197 192.071 120.197 190.833 120.17C190.292 120.157 190.135 120.369 190.135 120.847C190.149 122.902 190.149 124.957 190.135 127.013C190.135 127.318 190.263 127.702 189.793 127.835C189.451 127.848 189.266 127.769 189.195 127.371C188.754 124.387 188.27 121.404 187.8 118.42C187.429 116.139 187.059 113.832 186.675 111.524Z" fill="#FEFEFE"/>
<path d="M189.793 127.848C190.007 127.636 189.907 127.384 189.907 127.158C189.922 124.997 189.936 122.835 189.893 120.661C189.879 120.117 190.078 119.998 190.619 119.998C192.015 120.037 193.424 120.037 194.82 119.998C195.375 119.984 195.546 120.13 195.546 120.661C195.518 122.849 195.546 125.037 195.518 127.225C195.518 127.715 195.646 127.888 196.187 127.861C196.913 127.822 197.653 127.822 198.394 127.861C198.921 127.888 199.092 127.755 199.077 127.251C199.035 125.395 199.035 123.538 199.035 121.682C199.035 120.422 199.092 119.162 199.049 117.902C198.992 116.298 199.846 115.224 201.284 114.508C201.669 114.322 201.797 114.136 201.783 113.752C201.754 113.221 201.797 112.691 201.769 112.16C201.74 111.71 201.882 111.537 202.395 111.537C204.346 111.511 204.389 111.497 204.332 113.301C204.317 113.977 204.502 114.322 205.172 114.667C206.453 115.316 207.165 116.351 207.151 117.796C207.122 120.926 207.151 124.069 207.122 127.212C207.122 127.729 207.251 127.901 207.82 127.875C208.674 127.835 209.529 127.835 210.383 127.875C210.939 127.901 211.109 127.742 211.109 127.212C211.081 124.533 211.095 121.867 211.095 119.189C211.095 116.245 211.081 113.314 211.109 110.37C211.109 109.8 210.967 109.628 210.326 109.628C203.05 109.654 195.76 109.641 188.483 109.641C188.612 109.521 188.754 109.389 188.882 109.27C189.195 109.283 189.494 109.309 189.808 109.309C196.714 109.309 203.605 109.323 210.511 109.296C211.209 109.296 211.437 109.429 211.423 110.131C211.394 115.873 211.408 121.615 211.394 127.357C211.394 127.609 211.494 127.888 211.28 128.113C208.603 128.1 205.926 128.1 203.249 128.087C198.835 128.087 194.435 128.087 190.021 128.087C189.793 128.087 189.566 128.087 189.181 128.087C189.523 127.967 189.651 127.914 189.793 127.848Z" fill="#5A83AF"/>
<path d="M190.52 135.275C190.249 135.009 190.463 134.638 190.249 134.36C190.406 134.187 190.619 134.2 190.833 134.2C192.2 134.2 193.567 134.2 194.934 134.2C195.389 134.2 195.646 134.32 195.646 134.797C195.646 135.261 195.418 135.407 194.948 135.407C193.652 135.394 192.356 135.407 191.061 135.407C190.861 135.381 190.676 135.381 190.52 135.275Z" fill="#FEFEFE"/>
<path d="M190.52 135.274C191.986 135.274 193.439 135.261 194.905 135.274C195.275 135.274 195.518 135.274 195.518 134.81C195.518 134.359 195.304 134.319 194.919 134.333C193.367 134.359 191.801 134.359 190.249 134.372C190.249 134.253 190.249 134.147 190.249 134.028C191.887 134.028 193.524 134.067 195.162 134.028C195.888 134.001 195.817 134.372 195.817 134.81C195.817 135.248 195.873 135.606 195.147 135.592C193.609 135.539 192.057 135.579 190.52 135.592C190.52 135.473 190.52 135.367 190.52 135.274Z" fill="#5E86B1"/>
<path d="M178.189 76.6744C176.779 76.6744 176.537 76.4357 176.537 75.0698C176.537 73.7437 176.836 73.4785 178.289 73.4785C179.627 73.4785 179.969 73.8366 179.969 75.1892C179.983 76.4092 179.656 76.6744 178.189 76.6744Z" fill="#6DB5DE"/>
<path d="M156.987 68.042C157.101 68.4663 156.83 68.5724 156.631 68.7448C155.962 69.3018 155.278 69.8455 154.595 70.4024C154.509 70.4687 154.41 70.5748 154.296 70.482C154.168 70.3892 154.253 70.2831 154.339 70.2035C155.221 69.4874 156.104 68.7713 156.987 68.042Z" fill="#648BB4"/>
<path d="M166.313 53.5737C166.569 53.5206 166.826 53.4941 166.982 53.7593C167.068 53.9317 167.039 54.0908 166.897 54.2367C166.655 54.4622 166.441 54.3296 166.214 54.2102C166.114 53.9848 166.142 53.7726 166.313 53.5737Z" fill="#0F0A09"/>
<path d="M171.781 53.9984C171.753 54.2371 171.625 54.3962 171.34 54.4094C171.084 54.4094 170.927 54.2768 170.899 54.0647C170.87 53.8127 171.041 53.627 171.297 53.6005C171.582 53.574 171.739 53.7331 171.781 53.9984Z" fill="#0F0909"/>
<path d="M175.683 46.943C170.272 46.943 164.875 46.9297 159.464 46.9562C158.881 46.9562 158.695 46.8369 158.71 46.2667C158.738 40.6971 158.724 35.1408 158.71 29.5712C158.71 29.0541 158.852 28.9082 159.422 28.9082C170.286 28.9215 181.151 28.9215 192.001 28.9082C192.513 28.9082 192.684 29.0143 192.684 29.5182C192.67 35.101 192.656 40.6971 192.684 46.2799C192.684 46.8634 192.471 46.9562 191.915 46.943C186.49 46.9297 181.094 46.943 175.683 46.943Z" fill="#FEFEFE"/>
<path d="M175.626 26.0041C170.243 26.0041 164.861 25.9909 159.478 26.0174C158.838 26.0174 158.681 25.8583 158.695 25.288C158.738 23.8824 158.709 23.8824 160.233 23.8824C170.77 23.8824 181.293 23.8957 191.83 23.8691C192.527 23.8691 192.698 24.0415 192.67 24.6781C192.613 26.0174 192.656 26.0174 191.203 26.0174C186.02 26.0041 180.823 26.0041 175.626 26.0041Z" fill="#FEFEFE"/>
<path d="M203.178 119.162C204.218 119.162 205.271 119.175 206.311 119.162C206.71 119.149 206.852 119.268 206.852 119.653C206.838 121.218 206.838 122.796 206.852 124.36C206.852 124.718 206.695 124.811 206.339 124.811C204.175 124.798 202.025 124.798 199.861 124.811C199.505 124.811 199.348 124.718 199.362 124.36C199.376 122.796 199.376 121.218 199.362 119.653C199.362 119.268 199.505 119.162 199.903 119.162C201 119.175 202.096 119.162 203.178 119.162Z" fill="#FEFEFE"/>
<path d="M203.121 118.83C202.181 118.83 201.227 118.83 200.287 118.83C199.39 118.83 199.447 118.83 199.376 117.968C199.219 116.404 200.529 114.865 202.309 114.481C203.961 114.123 205.712 114.918 206.538 116.364C206.937 117.067 206.851 117.823 206.851 118.565C206.851 118.91 206.538 118.83 206.325 118.83C205.242 118.83 204.189 118.83 203.121 118.83Z" fill="#FEFEFE"/>
<path d="M192.656 127.848C192.015 127.848 191.374 127.822 190.734 127.861C190.321 127.875 190.207 127.729 190.221 127.371C190.235 126.177 190.235 124.984 190.221 123.79C190.221 123.459 190.321 123.326 190.705 123.326C192.058 123.339 193.411 123.339 194.763 123.326C195.148 123.326 195.247 123.446 195.247 123.79C195.233 124.984 195.233 126.177 195.247 127.371C195.247 127.742 195.148 127.888 194.735 127.861C194.023 127.822 193.339 127.848 192.656 127.848Z" fill="#FEFEFE"/>
<path d="M203.093 127.848C202.025 127.848 200.957 127.835 199.889 127.862C199.476 127.875 199.348 127.742 199.362 127.371C199.39 126.801 199.39 126.217 199.362 125.647C199.333 125.223 199.547 125.13 199.96 125.13C202.067 125.143 204.189 125.143 206.296 125.13C206.738 125.13 206.88 125.276 206.866 125.674C206.837 126.204 206.837 126.734 206.866 127.265C206.894 127.716 206.752 127.888 206.239 127.875C205.186 127.822 204.146 127.848 203.093 127.848Z" fill="#FEFEFE"/>
<path d="M192.726 120.303C193.396 120.303 194.051 120.316 194.72 120.29C195.133 120.276 195.261 120.422 195.233 120.793C195.204 121.39 195.204 121.987 195.233 122.584C195.247 122.915 195.133 123.048 194.748 123.048C193.396 123.034 192.057 123.034 190.704 123.048C190.32 123.048 190.206 122.928 190.22 122.584C190.249 121.854 189.978 120.939 190.348 120.462C190.719 119.985 191.758 120.369 192.513 120.303C192.584 120.303 192.655 120.303 192.726 120.303Z" fill="#FDFEFE"/>
<path d="M204.047 113.089C203.976 113.38 204.247 113.898 203.905 114.017C203.449 114.176 202.894 114.083 202.367 114.07C202.153 114.07 202.139 113.884 202.139 113.725C202.139 113.433 202.125 113.155 202.139 112.863C202.153 111.749 201.982 111.882 203.193 111.882C204.218 111.895 204.033 111.736 204.047 113.089Z" fill="#FAFBFC"/>
</svg>
