<svg width="249" height="191" viewBox="0 0 249 191" fill="none" xmlns="http://www.w3.org/2000/svg">
<path d="M124.432 190.986C83.1579 190.986 41.897 190.986 0.622513 191C0.121807 191 0 190.889 0 190.363C0.0135326 127.126 0.0135326 63.8743 0 0.636663C0 0.124562 0.108274 0 0.622513 0C83.212 0.0138406 165.788 0.0138406 248.378 0C248.878 0 249 0.110721 249 0.636663C248.986 63.8743 248.986 127.126 249 190.363C249 190.875 248.892 191 248.378 191C207.062 190.986 165.747 190.986 124.432 190.986Z" fill="#FCFCFC"/>
<path d="M50.8557 136.122C49.3265 135.956 48.2439 134.863 48.0679 133.257C48.0409 132.98 48.0409 132.703 48.0409 132.427C48.0409 98.7663 48.0409 65.1199 48.0273 31.4596C48.0273 29.7019 48.6634 28.4424 50.3144 27.8057C50.6527 27.5289 51.0451 27.6119 51.424 27.6119C58.9482 27.6119 66.4587 27.6119 73.9829 27.6119C74.4159 27.6119 74.8355 27.6119 75.255 27.4874C75.891 27.432 76.527 27.4458 77.1766 27.4597C77.2984 27.4597 77.4337 27.4597 77.5555 27.4597C78.1915 27.4458 78.8276 27.4182 79.4771 27.4874C79.8966 27.6119 80.3161 27.6119 80.7492 27.6119C88.5304 27.5981 96.3252 27.6396 104.106 27.5842C104.228 27.5842 104.323 27.5981 104.418 27.6811C104.715 27.695 105 27.7088 105.297 27.7088C137.559 27.7088 169.834 27.7088 202.096 27.7088C204.464 27.7088 205.682 28.9545 205.682 31.3489C205.682 65.1061 205.682 98.8632 205.682 132.607C205.682 134.613 204.64 135.914 202.881 136.108C202.773 136.15 202.664 136.136 202.543 136.15C197.292 136.316 192.055 136.274 186.804 136.274C176.262 136.274 165.707 136.385 155.165 136.247C138.195 136.039 121.239 136.177 104.269 136.177C100.574 136.177 96.8936 136.219 93.1992 136.274C92.9556 136.274 92.6985 136.274 92.4549 136.26C92.0083 136.247 91.7918 135.984 91.8324 135.541C91.9813 133.866 92.1707 132.191 92.4008 130.53C92.4684 130.018 92.7797 129.783 93.2939 129.797C93.6323 129.811 93.9706 129.797 94.3089 129.797C127.91 129.797 161.512 129.797 195.113 129.797C195.479 129.797 195.885 129.921 196.196 129.575C196.345 129.271 196.304 128.939 196.304 128.62C196.304 97.5345 196.304 66.4486 196.304 35.3627C196.304 35.155 196.304 34.9474 196.291 34.7398C196.277 34.4353 196.115 34.2831 195.817 34.2692C195.573 34.2554 195.316 34.2554 195.073 34.2554C148.764 34.2554 102.456 34.2554 56.1469 34.2554C54.8884 34.2554 54.8884 34.2554 54.8884 35.5426C54.8884 66.5316 54.8884 97.5345 54.8884 128.524C54.8884 128.87 54.8613 129.216 54.956 129.562C55.132 129.852 55.4162 129.811 55.6733 129.811C56.5935 129.811 57.5137 129.797 58.4339 129.825C59.1918 129.838 59.3947 130.088 59.1647 130.807C58.6775 132.385 58.1903 133.963 57.7167 135.555C57.5678 136.067 57.2431 136.288 56.7153 136.288C54.7666 136.288 52.8044 136.33 50.8557 136.122Z" fill="black"/>
<path d="M50.8555 136.122C52.7906 136.108 54.7258 136.08 56.6609 136.094C57.1887 136.094 57.4053 135.928 57.5541 135.416C58.0007 133.824 58.5014 132.246 59.0021 130.682C59.1645 130.17 59.1104 129.977 58.542 129.99C57.4594 130.018 56.3768 130.004 55.2942 129.99C55.0912 129.99 54.834 130.101 54.6717 129.866C54.9288 129.603 55.2536 129.658 55.5648 129.644C56.5121 129.631 57.4594 129.631 58.4067 129.644C58.8803 129.644 59.1645 129.451 59.2998 128.994C60.0035 126.683 60.7613 124.399 61.3974 122.074C61.6139 121.271 61.5462 120.427 61.5868 119.61C61.668 117.7 61.8034 115.804 61.9251 113.894C62.0605 111.832 62.0334 109.756 62.3988 107.721C62.6559 107.389 62.7371 107.693 62.8048 107.859C62.9672 108.288 63.1025 108.731 63.2243 109.174C63.549 110.351 63.928 111.513 64.3475 112.648C64.8076 113.908 65.8767 114.558 67.1623 114.406C67.3517 114.364 67.5412 114.309 67.7306 114.281C68.1501 114.185 68.5426 114.018 68.935 113.852C69.0974 113.769 69.1651 113.562 69.3275 113.492C69.977 113.16 70.2612 112.565 70.153 111.638C70.0718 110.932 69.95 110.226 69.8552 109.52C69.8282 109.313 69.7741 109.105 69.8417 108.911C70.1665 108.427 69.7064 108.012 69.7335 107.555C69.977 106.42 69.9229 105.313 69.4899 104.233C69.2327 103.583 69.1245 103.541 68.4749 103.79C66.6209 104.51 64.767 105.216 62.913 105.936C62.6153 106.046 62.3311 106.185 62.0063 106.185C61.7086 106.115 61.6545 105.852 61.5868 105.617C60.2742 101.52 58.9886 97.4236 57.73 93.3129C57.4729 92.4686 57.4865 91.5967 57.6353 90.7109C58.5149 85.4653 59.4216 80.2336 60.3012 74.988C60.4772 73.9361 60.6531 72.9119 61.2079 71.9707C62.1281 70.4344 63.4679 69.604 65.2 69.5348C67.1352 69.4656 69.0703 69.521 71.0055 69.521C72.4535 69.4933 73.888 69.4933 75.3359 69.521C76.4591 69.4933 77.5959 69.4933 78.7191 69.521C81.588 69.5902 83.9833 72.0261 84.0916 74.9603C84.2269 78.6696 84.4163 82.365 84.5246 86.0605C84.5517 87.1677 84.6193 88.2611 84.6464 89.3684C84.6599 89.9912 84.7682 90.614 84.9712 91.1953C87.4882 98.2817 90.0053 105.354 92.5494 112.427C93.835 116.011 94.1057 119.693 93.6456 123.458C93.429 125.243 93.2396 127.029 93.0366 128.814C92.9419 129.603 92.996 129.644 93.7674 129.658C94.011 129.658 94.2681 129.658 94.5117 129.658C128.059 129.658 161.62 129.658 195.167 129.658C195.627 129.658 196.128 129.52 196.534 129.88C196.29 130.115 195.979 130.004 195.695 130.004C161.688 130.004 127.694 130.004 93.6862 130.004C92.6036 130.004 92.6442 130.004 92.5359 131.153C92.4141 132.551 92.2923 133.949 92.0623 135.319C91.954 135.983 92.1164 136.094 92.7118 136.094C99.5323 136.08 106.366 136.08 113.187 136.08C126.462 136.08 139.738 136.08 153 136.08C167.845 136.08 182.704 136.08 197.549 136.08C199.322 136.08 201.108 136.108 202.881 136.122C201.744 136.316 200.607 136.163 199.471 136.205C199.2 136.219 198.929 136.219 198.659 136.219C198.523 136.371 198.347 136.399 198.171 136.412C196.615 136.482 195.072 136.412 193.516 136.412C182.081 136.399 170.646 136.399 159.211 136.412C157.655 136.412 156.112 136.496 154.556 136.399C154.421 136.371 154.299 136.316 154.19 136.233C153.96 136.219 153.744 136.191 153.514 136.191C137.018 136.191 120.521 136.191 104.025 136.191C103.795 136.191 103.578 136.219 103.348 136.219C103.254 136.302 103.145 136.357 103.024 136.371C102.469 136.426 101.9 136.399 101.346 136.399C101.183 136.412 101.021 136.399 100.858 136.399C98.2873 136.426 95.7296 136.399 93.1584 136.412C92.1976 136.412 92.1705 136.468 92.0487 137.451C91.9675 138.198 91.8999 138.959 91.751 139.707C91.6427 140.011 91.6698 140.357 91.4803 140.648C91.0608 144.232 90.6413 147.817 90.2083 151.416C89.9918 151.637 89.7211 151.623 89.4505 151.623C86.7169 151.651 83.9698 151.859 81.2362 151.762C80.8843 151.748 80.5189 151.789 80.1806 151.582C77.014 151.623 73.8474 151.665 70.6807 151.72C70.1394 151.831 70.0853 151.568 70.2748 151.153C70.5183 150.613 70.8431 150.101 71.1273 149.589C72.237 147.526 73.5091 145.561 74.3345 143.36C75.2818 140.869 75.769 138.281 75.4578 135.582C75.4036 135.153 75.2548 134.669 75.5795 134.253C75.8773 133.963 75.7149 133.589 75.6743 133.271C75.2683 129.714 74.8488 126.157 74.4157 122.6C74.0368 119.458 73.685 116.302 73.279 113.16C73.2655 113.022 73.4414 112.648 73.0083 112.745C70.8837 115.306 68.6644 117.783 66.4721 120.288C66.1608 120.648 65.8767 121.036 65.5519 121.382C65.3624 121.589 65.2677 121.852 65.2541 122.129C65.2541 122.24 65.2406 122.364 65.2541 122.475C65.3353 128.177 65.0241 133.88 65.1188 139.596C65.1324 140.246 64.9564 140.8 64.6181 141.354C62.6694 144.537 60.7749 147.748 58.8533 150.931C58.5961 151.36 58.4067 151.845 57.9195 152.094C56.8098 152.246 55.7001 152.149 54.5769 152.163C54.4145 152.163 54.2521 152.177 54.0897 152.163C53.5755 152.149 53.0478 152.246 52.5335 152.052C52.2899 151.872 52.3982 151.623 52.4252 151.402C52.9124 149.741 53.3725 148.066 53.9544 146.433C54.1033 145.893 54.2251 145.34 54.4416 144.828C54.8476 143.43 55.2942 142.032 55.7001 140.634C55.7272 140.495 55.7949 140.357 55.8219 140.219C56.1602 139.153 56.5121 138.087 56.8234 137.008C56.9587 136.551 56.8504 136.371 56.3768 136.385C55.7543 136.399 55.1182 136.385 54.4957 136.385C54.3469 136.399 54.198 136.385 54.0492 136.385C53.5349 136.399 53.0342 136.412 52.52 136.371C52.3576 136.357 52.2087 136.316 52.0734 136.191C51.681 136.15 51.2614 136.302 50.8555 136.122Z" fill="#202B6D"/>
<path d="M58.0009 151.984C60.2473 148.26 62.4802 144.537 64.7266 140.828C64.9025 140.537 64.9296 140.233 64.9296 139.915C64.9566 134.185 64.9972 128.441 65.0108 122.711C65.0108 122.005 65.1867 121.465 65.6739 120.939C68.0285 118.282 70.3561 115.583 72.6838 112.898C72.7379 112.829 72.8191 112.787 72.8867 112.718C73.1845 112.967 73.1845 113.327 73.2251 113.659C73.9964 119.998 74.7272 126.351 75.4985 132.69C75.5662 133.243 75.7556 133.811 75.5933 134.392C75.6068 135.721 75.7827 137.036 75.688 138.378C75.4715 141.34 74.4565 143.997 73.0491 146.544C72.1695 148.122 71.3034 149.7 70.4103 151.264C70.1667 151.679 70.3291 151.748 70.6945 151.762C70.1396 151.762 69.9096 152.15 69.6795 152.579C68.4481 154.89 67.2166 157.201 65.931 159.471C65.6468 159.983 65.525 160.634 64.9702 160.98C64.6454 161.104 64.4018 160.883 64.1582 160.745C61.4111 159.125 58.664 157.478 55.9033 155.9C55.8492 155.873 55.7951 155.817 55.7545 155.762C55.7409 155.734 55.7274 155.707 55.741 155.693C56.3499 154.392 57.0266 153.091 58.0009 151.984Z" fill="#FD9993"/>
<path d="M80.1675 151.637C81.6697 151.609 83.1718 151.595 84.6739 151.568C86.5143 151.54 88.3547 151.499 90.1952 151.457C90.1816 155.582 90.1816 159.692 90.1275 163.817C90.1275 164.398 90.317 164.716 90.7635 165.048C93.2535 166.82 95.73 168.619 98.1794 170.446C99.5056 171.443 100.006 172.896 100.142 174.515C100.169 174.82 100.033 174.931 99.7492 174.917C99.6409 174.903 99.5192 174.917 99.4109 174.917C92.7935 174.917 86.176 174.903 79.545 174.931C78.9361 174.931 78.7872 174.778 78.8413 174.169C79.1255 171.097 79.4097 168.024 79.5991 164.952C79.7751 162.017 79.8157 159.069 79.9375 156.121C80.0051 154.613 80.0863 153.118 80.1675 151.637Z" fill="#8F3600"/>
<path d="M55.768 155.734C57.0942 156.274 58.2444 157.118 59.4759 157.824C61.3028 158.862 63.1161 159.928 64.9295 160.98C64.7807 161.797 64.2394 162.406 63.8875 163.125C63.7116 163.485 63.6575 163.679 64.0499 163.956C67.5954 166.461 69.5982 169.949 70.2884 174.267C70.3696 174.751 70.2207 174.834 69.7877 174.834C65.0107 174.821 60.2337 174.821 55.4567 174.834C55.1049 174.834 54.8884 174.737 54.6583 174.461C52.872 172.149 51.0722 169.838 49.2588 167.568C48.934 167.167 48.9746 166.904 49.2182 166.502C50.2061 164.911 51.1534 163.291 52.1277 161.7C52.1413 161.367 52.3578 161.132 52.5066 160.869C52.9803 160.011 53.5216 159.208 53.9952 158.35C54.1441 158.073 54.3606 157.838 54.5095 157.561C54.9019 156.925 55.1455 156.191 55.768 155.734Z" fill="#8F3600"/>
<path d="M198.28 136.246C198.402 136.246 198.524 136.246 198.659 136.232C198.646 136.509 198.632 136.786 198.632 137.063C198.632 147.471 198.632 157.893 198.632 168.301C198.632 169.256 198.632 169.256 197.671 169.256C196.616 169.256 195.547 169.228 194.491 169.27C193.963 169.284 193.801 169.145 193.801 168.578C193.828 165.588 193.801 162.585 193.828 159.595C193.842 158.959 193.639 158.848 193.07 158.848C181.933 158.862 170.809 158.862 159.672 158.848C159.063 158.848 158.927 159.028 158.927 159.623C158.954 162.599 158.927 165.561 158.954 168.536C158.954 169.118 158.792 169.284 158.237 169.27C157.114 169.228 155.977 169.228 154.854 169.27C154.272 169.298 154.15 169.076 154.15 168.522C154.164 157.768 154.164 147 154.164 136.246C154.259 136.246 154.367 136.246 154.462 136.246C154.746 136.606 154.665 137.035 154.665 137.437C154.665 143.955 154.665 150.474 154.665 156.993C154.665 158.253 154.665 158.253 155.883 158.253C169.537 158.253 183.191 158.253 196.832 158.253C198.023 158.253 198.037 158.253 198.037 157.049C198.037 150.53 198.037 144.011 198.037 137.492C198.05 137.063 197.955 136.62 198.28 136.246Z" fill="#5C85B1"/>
<path d="M104.404 27.6814C104.066 27.7091 103.741 27.7783 103.403 27.7783C95.7431 27.7783 88.0837 27.7783 80.4107 27.7783C80.0724 27.7783 79.7476 27.7229 79.4093 27.6814C79.1522 27.4046 79.1792 27.0447 79.1792 26.6987C79.1657 25.2455 79.1792 23.806 79.1792 22.3528C79.1792 21.6192 79.0439 21.5223 78.3537 21.5223C77.826 21.5223 77.7177 21.813 77.7177 22.2697C77.7177 23.7368 77.7177 25.2178 77.7177 26.6849C77.7177 27.0309 77.7583 27.3769 77.5147 27.6676C77.42 27.6676 77.3253 27.6676 77.2305 27.6676C76.9869 27.3769 77.0275 27.0171 77.0275 26.6849C77.014 25.2178 77.0275 23.7507 77.0275 22.2836C77.0275 21.8268 76.8922 21.55 76.378 21.5362C75.7284 21.5223 75.5796 21.6331 75.566 22.3113C75.5525 23.7784 75.566 25.2455 75.5525 26.7126C75.5525 27.0586 75.5931 27.4046 75.336 27.6952C74.9841 27.7921 74.6187 27.7921 74.2669 27.7921C67.3653 27.7921 60.4772 27.7921 53.5756 27.7921C52.493 27.7921 51.4103 27.806 50.3277 27.8198C50.3277 25.8129 50.3548 23.806 50.3142 21.813C50.3007 21.1902 50.4766 21.0518 51.072 21.0518C62.9266 21.0656 74.7811 21.0656 86.6222 21.0656C92.3059 21.0656 97.976 21.0794 103.66 21.0518C104.269 21.0518 104.418 21.2317 104.418 21.8268C104.377 23.7645 104.404 25.7299 104.404 27.6814Z" fill="#5E86B1"/>
<path d="M91.4667 140.689C91.4532 140.398 91.3449 140.094 91.5479 139.817C91.8862 140.08 92.2651 140.163 92.6846 140.163C95.0664 140.149 97.4617 140.163 99.8434 140.163C100.628 140.163 100.682 140.108 100.682 139.291C100.696 138.558 100.682 137.824 100.682 137.077C100.682 136.772 100.682 136.468 100.912 136.232C101.034 136.232 101.17 136.232 101.291 136.232C101.521 136.468 101.508 136.772 101.508 137.077C101.521 137.852 101.521 138.641 101.508 139.416C101.494 139.914 101.657 140.177 102.198 140.163C102.712 140.163 102.848 139.9 102.848 139.43C102.834 138.655 102.834 137.866 102.848 137.091C102.848 136.8 102.821 136.482 103.037 136.246C103.132 136.246 103.227 136.246 103.321 136.232C103.321 144.8 103.321 153.367 103.308 161.948C103.308 162.433 103.308 162.654 103.944 162.557C105.635 162.308 107.205 163.678 107.462 165.533C107.679 167.097 106.488 168.799 104.932 169.131C103.159 169.505 101.467 168.453 101.021 166.696C100.926 166.322 100.899 165.934 100.899 165.533C100.899 157.533 100.899 149.547 100.899 141.547C100.899 140.675 100.899 140.675 100.019 140.675C97.1775 140.689 94.3221 140.689 91.4667 140.689Z" fill="#5B84B0"/>
<path d="M52.5606 161.007C52.4117 161.229 52.2628 161.45 52.1275 161.672C52.114 161.367 52.1004 161.076 52.1004 160.772C52.1004 152.592 52.0869 144.412 52.0869 136.233C52.2087 136.233 52.344 136.233 52.4658 136.219C52.723 136.468 52.6824 136.814 52.6959 137.132C52.7094 137.921 52.7094 138.696 52.6959 139.485C52.6959 139.942 52.8583 140.163 53.3319 140.163C53.7921 140.149 53.9003 139.887 53.9003 139.485C53.9003 138.696 53.9003 137.921 53.9003 137.132C53.9003 136.814 53.8732 136.482 54.1304 136.219C54.2522 136.219 54.3875 136.219 54.5093 136.233C54.7529 136.496 54.7123 136.828 54.7123 137.146C54.7258 137.88 54.7258 138.613 54.7123 139.347C54.6987 139.873 54.8476 140.191 55.416 140.163C55.619 140.149 55.822 140.205 55.9708 140.357C55.9167 140.468 55.8761 140.565 55.822 140.675C55.7678 140.717 55.7137 140.758 55.6596 140.786C54.6987 141.049 54.6852 141.049 54.7123 142.059C54.7258 143.014 54.6581 143.956 54.604 144.911C54.4416 145.423 54.2657 145.949 54.1033 146.461C53.8191 146.184 53.8868 145.824 53.8733 145.492C53.8597 144.205 53.8732 142.918 53.8597 141.617C53.8597 141.326 53.9138 140.994 53.4943 140.897C53.0071 140.772 52.7094 140.966 52.6688 141.492C52.6418 141.769 52.6553 142.046 52.6553 142.322C52.6553 144.44 52.6418 146.558 52.6553 148.675C52.6553 149.589 52.6282 150.502 52.5606 151.416C52.52 151.609 52.4794 151.803 52.4388 151.997C52.6824 152.26 52.6553 152.592 52.6553 152.911C52.6688 155.25 52.6553 157.575 52.6688 159.914C52.7094 160.301 52.6012 160.647 52.5606 161.007Z" fill="#658BB5"/>
<path d="M120.562 152.011C120.494 151.956 120.386 151.9 120.318 151.817C119.682 151.084 119.046 150.336 118.424 149.603C118.329 149.492 118.139 149.367 118.302 149.201C118.478 149.035 118.572 149.271 118.667 149.367C119.303 150.101 119.939 150.848 120.562 151.582C120.643 151.679 120.765 151.776 120.697 151.928C120.697 151.969 120.629 151.983 120.562 152.011Z" fill="#658BB4"/>
<path d="M143.284 136.786C142.377 137.589 141.484 138.392 140.577 139.194C140.509 139.111 140.442 139.042 140.374 138.959C141.267 138.156 142.174 137.354 143.067 136.551C143.135 136.634 143.216 136.717 143.284 136.786Z" fill="#648BB4"/>
<path d="M70.8563 69.687C69.0565 69.7009 67.2566 69.7562 65.4568 69.7009C63.1562 69.6317 61.0587 71.3894 60.6121 74.0191C59.922 78.2128 59.2047 82.4065 58.501 86.6002C58.2575 88.0258 58.0139 89.4514 57.7703 90.8908C57.6214 91.8181 57.7026 92.7178 57.9868 93.6174C59.2453 97.5896 60.4768 101.576 61.7353 105.562C61.7894 105.756 61.7489 106.06 62.0736 106.088C62.5473 106.517 62.6826 107.043 62.5067 107.666C62.2902 111.153 61.9519 114.641 61.8842 118.143C61.8301 121.188 61.1264 124.039 60.1656 126.876C59.8814 127.707 59.6107 128.523 59.3942 129.368C59.2724 129.824 59.0559 129.921 58.6364 129.907C57.3102 129.88 55.984 129.894 54.6442 129.894C54.6307 129.644 54.6307 129.381 54.6307 129.132C54.6307 97.7004 54.6307 66.2684 54.6172 34.8365C54.6172 34.1168 54.8066 33.9922 55.4562 33.9922C102.198 34.006 148.939 34.006 195.681 33.9922C196.344 33.9922 196.52 34.1306 196.52 34.8365C196.493 66.2684 196.507 97.7004 196.507 129.132C196.507 129.381 196.493 129.644 196.48 129.894C162.201 129.894 127.923 129.894 93.6317 129.894C93.4558 129.894 93.2663 129.88 93.0904 129.894C92.725 129.921 92.6438 129.811 92.6979 129.423C92.9686 127.208 93.1987 124.98 93.4558 122.766C93.9023 118.987 93.3475 115.347 92.0484 111.79C89.5313 104.856 87.0819 97.8941 84.5919 90.9462C84.4431 90.5448 84.4295 90.1296 84.416 89.7282C84.2265 84.8425 84.0235 79.9706 83.8476 75.0849C83.7394 72.0953 81.4929 69.7978 78.5564 69.7286C77.4737 69.7009 76.3911 69.7147 75.3085 69.7009C74.9702 68.7874 75.1326 67.8462 75.1868 66.9189C75.2138 66.5868 75.5251 66.5314 75.7957 66.476C76.4318 66.3376 77.0678 66.1854 77.6903 65.9639C79.666 65.2304 80.5321 63.9709 80.5321 61.8394C80.5321 61.1059 80.5727 60.3585 80.4509 59.6388C80.478 59.2789 80.4374 58.9329 80.3156 58.6007C80.2885 58.3793 80.2885 58.1578 80.4103 57.9502C80.9516 57.5489 81.5606 57.2167 81.4929 56.3586C81.4117 55.3759 80.9652 54.6423 80.1803 54.1302C78.7323 53.1891 77.1219 52.9261 75.4439 53.0922C74.4018 53.1891 74.3748 53.1337 74.3071 52.0541C74.1989 50.3518 74.1583 48.6494 74.0229 46.9608C73.9282 45.6598 72.8727 44.3865 71.56 44.0543C70.5315 43.7913 69.4895 43.8328 68.5287 44.3449C67.4055 44.9539 66.7559 45.9228 66.7153 47.2238C66.6747 48.8293 66.8371 50.4348 66.9183 52.0541C66.9454 52.5524 66.9319 53.0645 66.9995 53.5766C67.0807 54.0887 67.2566 54.5731 67.5814 54.9607C68.028 55.4866 67.9197 55.9157 67.5814 56.4416C66.8236 57.5904 66.4041 58.8775 66.4312 60.2754C66.4582 62.4207 67.419 63.9986 69.2324 65.0643C69.7602 65.3688 70.3827 65.4933 70.8428 65.9086C71.2217 66.7667 70.9781 67.6663 71.0322 68.5521C71.0999 68.912 71.1811 69.3549 70.8563 69.687Z" fill="#ECE9E9"/>
<path d="M77.5146 27.6808C77.5146 25.7985 77.5282 23.9023 77.5146 22.02C77.5146 21.5217 77.6094 21.3418 78.1371 21.3418C79.4227 21.3695 79.4227 21.3418 79.4227 22.6428C79.4227 24.3175 79.4227 26.0061 79.4227 27.6808C78.7732 27.7361 78.1371 27.75 77.5146 27.6808Z" fill="#FEFEFE"/>
<path d="M75.3221 27.6808C75.3221 25.7708 75.3357 23.8608 75.3086 21.9646C75.3086 21.4802 75.4439 21.3418 75.9175 21.3418C77.2166 21.3556 77.2031 21.328 77.2166 22.6428C77.2166 24.3175 77.2302 25.9922 77.2302 27.6808C76.5941 27.75 75.9582 27.7361 75.3221 27.6808Z" fill="#FDFEFE"/>
<path d="M198.28 136.246C198.28 143.485 198.28 150.724 198.307 157.948C198.307 158.585 197.982 158.516 197.589 158.516C186.439 158.516 175.274 158.516 164.123 158.516C161.146 158.516 158.169 158.502 155.205 158.53C154.583 158.544 154.475 158.35 154.475 157.755C154.488 150.585 154.488 143.416 154.475 136.26C156.139 136.246 157.804 136.233 159.468 136.233C172.135 136.233 184.801 136.219 197.468 136.219C197.738 136.219 198.009 136.233 198.28 136.246Z" fill="#FEFEFE"/>
<path d="M80.6007 59.431C80.8714 60.5382 80.8443 61.687 80.709 62.7942C80.506 64.4551 79.464 65.507 77.9619 66.0745C77.3123 66.3236 76.6357 66.545 75.9455 66.6142C75.3636 66.6696 75.3095 66.9326 75.323 67.4032C75.3501 68.1644 75.3366 68.9256 75.323 69.6869C73.8345 69.6869 72.3459 69.6869 70.8437 69.6869C70.8031 68.4135 70.9655 67.1402 70.749 65.8807C70.952 65.424 71.358 65.1471 71.6692 64.7873C73.0902 63.0711 73.5909 61.0227 73.8074 58.8635C74.0645 56.4276 75.5802 54.8636 77.4612 53.5903C77.7318 53.4103 78.0025 53.4242 78.3002 53.5487C78.8415 53.7702 79.2746 54.1439 79.6264 54.5868C80.3978 55.5695 80.6007 56.7182 80.4789 57.95C80.4789 58.1853 80.4789 58.4206 80.4789 58.6698C79.9782 59.1265 79.9782 59.1265 80.6007 59.431Z" fill="#FD9993"/>
<path d="M62.5073 107.652C62.4261 107.112 62.2772 106.586 62.0742 106.074C64.3342 105.188 66.5941 104.316 68.8541 103.43C69.1247 103.32 69.26 103.361 69.3818 103.624C70.0314 104.911 70.2344 106.254 69.8014 107.666C69.3142 107.167 69.2736 106.475 69.003 105.88C68.8 105.424 68.7323 104.911 68.421 104.496C68.8135 106.005 69.3819 107.458 69.8826 108.925C70.0179 109.811 70.1532 110.697 70.275 111.569C70.3833 112.288 70.2479 112.939 69.7608 113.493C69.6254 113.645 69.4901 113.894 69.2465 113.603C68.9353 113.423 68.9082 113.077 68.8135 112.787C68.4346 111.707 68.0827 110.628 67.582 109.576C67.582 109.922 67.7038 110.24 67.8256 110.558C68.1774 111.458 68.4481 112.385 68.7864 113.271C68.8811 113.506 68.9894 113.742 68.9217 114.005C68.5293 114.185 68.1504 114.42 67.7038 114.42C67.4061 114.226 67.3655 113.894 67.2708 113.589C66.8919 112.441 66.4588 111.306 66.0122 110.171C65.9581 110.475 66.0664 110.752 66.1746 111.029C66.5129 111.956 66.8513 112.884 67.1625 113.811C67.2437 114.046 67.3655 114.281 67.2708 114.544C66.0393 114.973 64.6319 114.198 64.1177 112.731C63.6576 111.444 63.2922 110.129 62.8727 108.828C62.7779 108.413 62.6426 108.039 62.5073 107.652Z" fill="#FD9993"/>
<path d="M100.912 136.233C100.912 137.451 100.912 138.669 100.939 139.887C100.953 140.274 100.818 140.399 100.439 140.399C97.6373 140.385 94.8361 140.371 92.0213 140.413C91.5206 140.413 91.5477 140.163 91.5342 139.831C91.656 138.779 91.7642 137.741 91.886 136.689C91.9131 136.399 91.9807 136.205 92.3732 136.205C95.215 136.233 98.0704 136.233 100.912 136.233Z" fill="#FEFEFE"/>
<path d="M52.6012 151.43C52.344 151.278 52.4523 151.015 52.4523 150.807C52.4388 147.651 52.4658 144.51 52.4388 141.354C52.4388 140.787 52.6282 140.662 53.129 140.676C54.3064 140.717 54.144 140.565 54.144 141.7C54.144 143.292 54.1304 144.87 54.1169 146.461C53.6162 148.122 53.1154 149.769 52.6012 151.43Z" fill="#FEFEFE"/>
<path d="M52.5604 161.007C52.5198 160.897 52.4521 160.8 52.4521 160.689C52.4521 157.796 52.4792 154.904 52.4792 152.011C53.0205 152.011 53.5482 152.011 54.0895 151.997C54.306 152.219 54.3061 152.495 54.3061 152.772C54.3061 154.308 54.2925 155.845 54.3196 157.381C54.3196 157.713 54.1707 158.004 54.1843 158.322C53.643 159.222 53.1017 160.121 52.5604 161.007Z" fill="#FDFDFD"/>
<path d="M75.5795 134.392C75.2141 133.243 75.2277 132.039 75.0653 130.863C74.7405 128.385 74.4563 125.908 74.1586 123.43C73.8609 120.966 73.5903 118.517 73.2926 116.053C73.1572 114.932 73.0084 113.825 72.873 112.717C72.9272 112.524 72.7513 112.192 73.0896 112.164C73.4008 112.136 73.3873 112.441 73.4143 112.662C74.1045 118.475 74.7811 124.288 75.4712 130.101C75.6201 131.333 75.769 132.565 75.9178 133.797C75.9719 134.087 76.0802 134.42 75.5795 134.392Z" fill="#FDFDFD"/>
<path d="M55.7682 155.734C55.3758 156.385 54.9698 157.049 54.5774 157.7C54.3203 157.52 54.3203 157.229 54.3203 156.966C54.3203 155.54 54.3203 154.129 54.3203 152.703C54.3203 152.44 54.3338 152.191 54.5368 152.011C55.7006 151.997 56.8508 151.997 58.0146 151.983C57.2568 153.243 56.5125 154.489 55.7682 155.734Z" fill="#FCFDFD"/>
<path d="M55.9848 140.371C54.5098 140.426 54.5098 140.426 54.5098 138.918C54.5098 138.032 54.5098 137.132 54.5098 136.246C55.2946 136.233 56.0795 136.233 56.8509 136.205C57.2298 136.191 57.2433 136.343 57.1486 136.648C56.7561 137.894 56.3772 139.125 55.9848 140.371Z" fill="#FEFEFE"/>
<path d="M65.4707 91.113C65.7278 89.895 65.9849 88.7047 66.242 87.5283C66.5668 86.0197 66.8781 84.5249 67.1893 83.0162C67.2299 82.7948 67.2299 82.4903 67.5412 82.5457C67.866 82.601 67.7306 82.8917 67.69 83.1131C67.1622 85.6321 66.648 88.1511 66.1067 90.6562C66.0255 91.0161 66.0661 91.3206 66.1744 91.6528C66.6751 93.0783 67.1623 94.5039 67.6494 95.9433C67.7306 96.1648 67.9336 96.4693 67.5953 96.5938C67.257 96.7184 67.2435 96.3309 67.1758 96.1094C66.6616 94.6423 66.1473 93.1752 65.6331 91.7081C65.579 91.4867 65.5248 91.2929 65.4707 91.113Z" fill="#FCFCFD"/>
<path d="M103.051 136.261C103.051 137.437 103.024 138.6 103.051 139.776C103.065 140.247 102.943 140.413 102.456 140.399C101.278 140.385 101.278 140.413 101.278 139.209C101.278 138.226 101.278 137.23 101.292 136.247C101.874 136.205 102.469 136.178 103.051 136.261Z" fill="#FDFDFE"/>
<path d="M54.1309 136.232C54.1309 137.437 54.1174 138.627 54.158 139.831C54.1715 140.315 53.9821 140.412 53.5626 140.398C52.2093 140.357 52.4664 140.551 52.4393 139.277C52.4258 138.267 52.4529 137.257 52.4529 136.232C53.0213 136.232 53.5761 136.232 54.1309 136.232Z" fill="#FEFEFE"/>
<path d="M54.6172 144.911C54.3736 144.122 54.563 143.319 54.5089 142.53C54.4953 142.392 54.5089 142.254 54.5089 142.115C54.5089 140.703 54.5089 140.703 55.8486 140.676C55.5509 142.129 54.9825 143.485 54.6172 144.911Z" fill="#FBFCFC"/>
<path d="M69.9091 108.898C69.6519 108.87 69.6249 108.621 69.5572 108.441C69.1106 107.196 68.6776 105.936 68.2446 104.677C68.1634 104.455 67.9875 104.151 68.3258 104.04C68.637 103.929 68.6506 104.275 68.7182 104.469C69.0836 105.521 69.4489 106.587 69.8279 107.652C69.9361 107.915 70.0308 108.192 70.1391 108.455C70.2338 108.69 70.1391 108.829 69.9091 108.898Z" fill="#050303"/>
<path d="M67.2978 114.517C66.7971 113.119 66.2964 111.721 65.8092 110.31C65.7415 110.102 65.5926 109.825 65.8633 109.715C66.161 109.59 66.2152 109.908 66.2828 110.116C66.77 111.542 67.2572 112.967 67.7444 114.393C67.6091 114.49 67.4602 114.545 67.2978 114.517Z" fill="#060403"/>
<path d="M68.949 113.991C68.313 112.58 67.907 111.085 67.3657 109.632C67.298 109.452 67.2033 109.203 67.501 109.119C67.7446 109.05 67.7987 109.272 67.8529 109.438C68.3265 110.822 68.8001 112.192 69.2738 113.576C69.2603 113.798 69.2196 113.991 68.949 113.991Z" fill="#060303"/>
<path d="M54.5366 152.011C54.5095 153.907 54.4419 155.803 54.5772 157.699C54.4419 157.907 54.3201 158.114 54.1847 158.322C54.1712 156.481 54.1712 154.654 54.1576 152.827C54.1576 152.551 54.117 152.288 54.1035 152.011C54.2389 152.011 54.3877 152.011 54.5366 152.011Z" fill="#5881AD"/>
<path d="M194.112 163.873C194.112 162.406 194.126 160.925 194.099 159.458C194.099 159.029 194.207 158.849 194.667 158.862C195.682 158.89 196.697 158.89 197.698 158.862C198.118 158.849 198.294 158.959 198.294 159.43C198.28 162.392 198.28 165.368 198.294 168.329C198.294 168.758 198.199 168.938 197.739 168.925C196.724 168.897 195.709 168.897 194.708 168.925C194.22 168.938 194.099 168.745 194.112 168.288C194.126 166.807 194.112 165.34 194.112 163.873Z" fill="#FEFEFE"/>
<path d="M158.643 163.942C158.643 165.409 158.629 166.89 158.656 168.357C158.656 168.758 158.561 168.924 158.128 168.911C157.1 168.883 156.058 168.883 155.029 168.911C154.637 168.924 154.475 168.828 154.475 168.371C154.488 165.381 154.488 162.392 154.475 159.402C154.475 158.987 154.596 158.835 155.002 158.849C156.031 158.876 157.073 158.876 158.101 158.849C158.575 158.835 158.656 159.042 158.643 159.457C158.629 160.952 158.643 162.447 158.643 163.942Z" fill="#FEFEFE"/>
<path d="M62.818 27.6669C58.9883 27.6669 55.1586 27.6531 51.3289 27.6808C50.8011 27.6808 50.5846 27.5839 50.6116 26.9749C50.6522 25.314 50.6387 23.6532 50.6116 22.0061C50.5981 21.4802 50.7605 21.3418 51.2612 21.3418C58.9612 21.3556 66.6613 21.3556 74.3614 21.3418C74.8215 21.3418 74.9839 21.4664 74.9839 21.9646C74.9568 23.667 74.9568 25.3694 74.9839 27.0718C74.9974 27.5839 74.8079 27.6669 74.3614 27.6669C70.5181 27.6531 66.6613 27.6669 62.818 27.6669Z" fill="#FEFEFE"/>
<path d="M91.9139 27.6677C88.0841 27.6677 84.2544 27.6539 80.4247 27.6816C79.8969 27.6816 79.7345 27.557 79.7481 27.0034C79.7887 25.3425 79.7751 23.6817 79.7481 22.0346C79.7345 21.5364 79.8563 21.3564 80.3841 21.3564C88.0706 21.3703 95.7436 21.3703 103.43 21.3564C103.944 21.3564 104.08 21.5087 104.066 22.0208C104.039 23.6817 104.039 25.3425 104.066 26.9896C104.08 27.5155 103.944 27.6816 103.403 27.6816C99.5734 27.6539 95.7436 27.6677 91.9139 27.6677Z" fill="#FEFEFE"/>
<path d="M101.292 164.149C101.292 163.941 101.292 163.734 101.292 163.54C101.292 156.191 101.305 148.841 101.278 141.492C101.278 140.786 101.495 140.634 102.117 140.675C102.645 140.717 103.078 140.606 103.065 141.45C103.024 148.343 103.038 155.222 103.051 162.114C103.051 162.557 102.943 162.82 102.537 163.028C102.05 163.277 101.698 163.706 101.292 164.149Z" fill="#FEFEFE"/>
<path d="M104.229 162.89C105.893 162.89 107.165 164.205 107.152 165.921C107.138 167.595 105.88 168.883 104.242 168.883C102.564 168.883 101.292 167.595 101.292 165.893C101.292 164.191 102.564 162.89 104.229 162.89Z" fill="#FEFEFE"/>
<path d="M107.422 89.3691C99.7489 86.2134 95.1207 80.4972 94.1599 72.0822C92.9149 61.1758 99.8436 51.5012 110.386 49.3283C122.145 46.9061 132.579 55.0998 134.46 66.0892C135.055 69.5355 134.825 72.9126 133.783 76.2482C133.702 76.4835 133.608 76.7188 133.513 76.9541C133.202 77.1063 132.944 76.9264 132.687 76.8018C131.388 76.1513 130.035 75.8607 128.587 75.8745C126.273 75.9022 123.959 75.8468 121.658 75.9991C121.374 75.916 121.09 76.0129 120.806 76.0267C120.129 75.9437 119.425 76.1513 118.762 75.8607C118.546 75.6115 118.573 75.307 118.573 75.0164C118.559 73.5078 118.586 71.9853 118.559 70.4767C118.546 69.8538 118.722 69.4109 119.331 69.2033C119.588 69.1203 119.804 68.9542 120.007 68.7604C120.738 68.0961 120.765 67.1826 120.088 66.4629C119.913 66.283 119.71 66.1307 119.547 65.937C119.344 65.6601 119.371 65.328 119.385 65.0096C119.425 64.1377 119.29 63.2657 119.195 62.3938C118.952 60.207 116.868 58.6291 114.716 59.0582C113.823 59.2381 113.241 59.0582 112.686 58.3523C111.874 57.3281 110.751 56.816 109.492 56.8298C107.422 56.8437 106.177 59.2243 107.111 61.2588C107.3 61.6741 107.584 62.0339 107.787 62.4491C107.841 62.6844 108.004 62.7536 108.22 62.809C108.369 62.8505 108.545 62.892 108.491 63.1135C108.288 63.2934 108.031 63.2657 107.787 63.2657C106.948 63.2796 106.38 63.7225 106.109 64.5114C105.825 65.3003 105.852 66.0754 106.448 66.7674C106.759 67.1272 107.246 67.2795 107.503 67.6947C107.625 68.1099 107.665 68.5528 107.747 68.9819C108.017 70.4905 108.897 71.5009 110.277 72.0407C111.062 72.3451 111.874 72.4836 112.713 72.5804C113.444 72.6635 113.552 72.7604 113.552 73.5354C113.539 74.2828 113.674 75.0441 113.444 75.7914C113.349 75.9299 113.214 75.9575 113.065 75.9575C112.781 75.8883 112.537 76.0544 112.253 76.0406C111.333 75.9991 110.399 76.0406 109.479 76.0267C107.625 76.4004 107.043 77.3139 107.165 79.2516C107.314 81.6322 107.517 84.0128 107.625 86.4072C107.665 87.2376 107.801 88.0542 107.747 88.8846C107.706 89.0646 107.868 89.4106 107.422 89.3691Z" fill="#202B6D"/>
<path d="M150.712 86.2273C146.314 82.6149 143.716 77.9506 142.985 72.2345C141.605 61.4111 149.156 51.0445 159.711 49.2314C170.943 47.3076 181.377 54.74 183.326 66.2415C184.449 72.8019 182.69 78.6288 178.454 83.6806C178.4 83.7498 178.319 83.8052 178.251 83.8605C177.994 83.8052 178.048 83.5837 178.062 83.4176C178.089 82.6564 178.048 81.909 178.156 81.1478C178.508 78.6011 177.047 76.2621 174.475 75.224C173.718 74.9195 172.933 74.7396 172.107 74.7534C170.808 74.7673 169.496 74.795 168.196 74.7396C167.953 74.6842 167.696 74.6566 167.452 74.7258C166.965 74.7534 166.451 74.9057 166.031 74.4766C165.815 73.9368 165.909 73.3417 165.788 72.7881C165.882 72.6774 166.018 72.6497 166.153 72.6635C167.587 72.8296 169.035 72.622 170.47 72.7881C170.822 72.8296 171.146 72.7604 171.377 72.4559C171.62 72.1099 171.471 71.7916 171.282 71.5009C169.969 69.4248 169.59 67.1134 169.536 64.7052C169.509 63.681 169.347 62.6845 169.076 61.7018C168.508 59.598 167.249 58.5461 165.138 58.3108C163.825 58.1724 162.499 58.1032 161.173 57.9233C159.603 57.7157 158.074 58.1032 156.721 58.989C155.841 59.5565 155.381 60.3592 155.435 61.4803C155.489 62.4076 155.354 62.4907 154.434 62.4353C154.244 62.4215 154.001 62.2692 153.865 62.4768C153.744 62.6845 153.96 62.8644 154.068 63.0305C154.488 63.7087 154.853 64.4284 155.422 65.0097C155.706 65.3003 156.206 65.2865 156.382 65.7155C155.976 68.2068 157.113 70.0892 159.265 70.8227C159.82 71.0165 160.388 71.1549 160.97 71.2379C161.525 71.321 161.836 71.6116 161.795 72.2068C161.741 72.968 161.985 73.7708 161.62 74.5182C161.119 74.7673 160.55 74.5873 160.023 74.7534C159.522 74.8088 159.021 74.8226 158.534 74.6842C158.385 74.6566 158.236 74.6566 158.101 74.6704C157.641 74.8088 157.167 74.7673 156.694 74.7811C154.285 74.795 152.268 76.6081 151.93 79.0717C151.646 81.1893 151.24 83.2792 151.078 85.4107C151.064 85.7013 150.996 86.0197 150.712 86.2273Z" fill="#202B6D"/>
<path d="M80.4916 57.9507C80.3969 57.3555 80.3157 56.7742 80.1939 56.1929C80.0857 55.6254 79.8691 55.0995 79.5037 54.6428C78.57 53.494 77.9204 53.4248 76.7702 54.3106C74.9703 55.7085 73.9825 57.5078 73.8336 59.8607C73.6712 62.2966 72.6563 64.345 70.7617 65.8951C68.4747 65.1616 66.8102 63.7914 66.3501 61.2724C66.0118 59.3901 66.5395 57.6738 67.568 56.1099C67.8116 55.7362 67.8792 55.5009 67.5274 55.1272C67.0808 54.6566 66.8643 54.0338 66.8237 53.3694C66.7154 51.3902 66.5936 49.411 66.5395 47.4318C66.4854 45.5218 67.8522 43.9578 69.6656 43.7225C71.9932 43.4319 73.7524 44.5115 74.1719 46.5322C74.3072 47.1965 74.3072 47.9024 74.3343 48.5944C74.402 49.8539 74.4832 51.1273 74.4967 52.3867C74.5102 52.9127 74.6049 53.0234 75.1327 52.9265C76.8919 52.6082 78.5835 52.9127 80.1398 53.8123C81.0329 54.3244 81.6013 55.0718 81.669 56.1791C81.7502 57.2586 81.5201 57.6046 80.4916 57.9507Z" fill="black"/>
<path d="M166.072 74.504C166.559 74.504 167.046 74.5178 167.533 74.5178C167.804 74.7393 167.763 75.0576 167.763 75.3482C167.777 77.7842 167.763 80.234 167.777 82.6699C167.777 83.265 167.628 83.6664 166.992 83.8325C166.261 84.0401 165.923 84.5937 165.882 85.3827C165.747 87.7217 166.762 87.9432 168.792 87.6802C168.995 87.6525 169.171 87.5279 169.32 87.3895C170.24 86.5591 169.902 84.2477 168.751 83.8602C168.075 83.6387 167.899 83.2374 167.912 82.5869C167.926 80.1924 167.912 77.798 167.926 75.4036C167.926 75.113 167.885 74.7946 168.115 74.5455C169.956 74.5455 171.823 74.2272 173.61 74.7254C176.005 75.3898 177.818 76.8292 178.346 79.4589C178.603 80.7737 178.211 82.1163 178.251 83.445C178.251 83.5834 178.265 83.7079 178.278 83.8464C174.638 87.9016 170.105 90.1023 164.759 90.5729C164.502 89.95 164.678 89.2995 164.732 88.6767C164.935 86.0747 165.138 83.4588 165.368 80.8568C165.558 78.8084 165.585 76.7323 165.95 74.6977C165.964 74.6285 166.004 74.5593 166.072 74.504Z" fill="#6DB5DE"/>
<path d="M114.418 97.7979C116.787 97.7979 119.155 97.7979 121.509 97.7979C123.607 97.7979 125.204 99.3342 125.217 101.355C125.244 103.403 123.621 104.967 121.496 104.967C116.678 104.967 111.847 104.981 107.03 104.967C105.338 104.967 103.876 103.708 103.592 102.102C103.281 100.289 104.201 98.6421 105.852 98.0193C106.285 97.8532 106.718 97.7979 107.178 97.7979C109.601 97.7979 112.01 97.7979 114.418 97.7979Z" fill="#459257"/>
<path d="M163.312 97.7979C165.68 97.7979 168.048 97.7979 170.417 97.7979C172.528 97.7979 174.084 99.3203 174.084 101.383C174.084 103.445 172.541 104.967 170.43 104.967C165.626 104.967 160.835 104.967 156.031 104.967C153.988 104.967 152.432 103.403 152.432 101.383C152.432 99.3618 153.988 97.7979 156.031 97.7979C158.44 97.7979 160.876 97.7979 163.312 97.7979Z" fill="#459257"/>
<path d="M121.455 75.8052C124.446 75.6668 127.436 75.5145 130.414 75.7913C131.523 75.9021 132.511 76.4557 133.499 76.9401C132.89 78.9193 131.875 80.6771 130.671 82.3103C128.519 85.2445 125.785 87.4174 122.511 88.8984C122.456 88.9261 122.375 88.9261 122.321 88.9399C122.213 88.8845 122.145 88.7877 122.132 88.6769C121.983 87.5282 121.712 86.3932 121.82 85.2168C121.888 85.1199 121.983 85.0645 122.078 85.0092C123.255 84.3587 123.661 82.9193 122.984 81.729C122.741 81.2999 122.362 81.0785 121.902 80.9816C121.563 80.9124 121.293 80.7601 121.293 80.3726C121.252 78.947 121.238 77.5214 121.306 76.1097C121.306 75.9851 121.36 75.8882 121.455 75.8052Z" fill="#6DB5DE"/>
<path d="M121.861 85.2305C122.01 86.4623 122.159 87.708 122.308 88.9398C120.373 89.8948 118.289 90.31 116.164 90.5591C115.758 90.6006 115.88 90.2962 115.88 90.1024C115.866 89.092 115.88 88.0817 115.866 87.0713C115.866 86.8498 115.934 86.6146 115.785 86.407C115.623 86.3101 115.555 86.1301 115.474 85.9641C115.122 85.1751 114.513 84.8014 113.674 84.7322C112.822 84.663 112.713 84.5385 112.713 83.6804C112.7 81.3136 112.7 78.9607 112.713 76.594C112.713 76.3172 112.686 76.0404 112.916 75.8189C113.052 75.8051 113.2 75.8051 113.336 75.7912C113.539 75.6113 113.782 75.5836 114.026 75.5836C115.366 75.5698 116.692 75.5698 118.032 75.5836C118.275 75.5836 118.519 75.5975 118.722 75.7912C119.453 75.902 120.21 75.6667 120.928 75.9435C121.076 76.1096 121.09 76.3172 121.09 76.5248C121.103 77.7428 121.103 78.9607 121.09 80.1649C121.09 80.6078 120.887 80.8569 120.467 81.023C119.236 81.4936 118.749 83.2375 119.507 84.3447C119.804 84.7876 120.237 84.9952 120.765 85.0091C121.158 85.0091 121.564 84.8845 121.861 85.2305Z" fill="black"/>
<path d="M166.072 74.4897C165.625 79.846 165.179 85.2161 164.732 90.5724C163.798 90.5724 162.865 90.5586 161.931 90.6001C161.484 90.614 161.403 90.4064 161.457 90.0465C161.214 89.7558 161.281 89.396 161.281 89.05C161.268 87.1677 161.281 85.2853 161.281 83.403C161.281 81.493 160.835 80.9671 158.994 80.6903C158.886 80.6764 158.778 80.6487 158.67 80.5795C158.25 79.9152 158.372 79.1678 158.521 78.5173C158.805 77.2855 159.306 76.1229 159.698 74.9187C159.752 74.7665 159.887 74.6558 159.996 74.545C160.51 74.3098 161.065 74.4897 161.593 74.4205C163.108 74.3098 164.597 74.2129 166.072 74.4897Z" fill="black"/>
<path d="M150.713 86.2264C150.929 84.7593 151.132 83.2784 151.349 81.8113C151.498 80.7455 151.633 79.666 151.809 78.6002C152.161 76.538 154.177 74.711 156.234 74.545C156.857 74.4896 157.493 74.4896 158.115 74.4619C158.318 74.6557 158.305 74.9186 158.305 75.1678C158.305 76.6902 158.318 78.2127 158.305 79.7352C158.305 80.5241 158.183 80.6348 157.411 80.7178C156.045 80.8701 155.368 81.6313 155.341 83.0431C155.328 84.4963 155.355 85.9496 155.327 87.4028C155.327 87.6935 155.368 88.0118 155.152 88.261C155.179 88.7731 155.016 88.8976 154.529 88.6485C153.176 87.9703 151.904 87.1676 150.713 86.2264Z" fill="#6DB5DE"/>
<path d="M139.967 120.966C154.298 120.966 168.629 120.966 182.96 120.98C183.272 120.98 183.853 120.745 183.84 121.243C183.826 121.728 183.245 121.492 182.933 121.492C154.312 121.506 125.704 121.506 97.0825 121.492C96.7577 121.492 96.1758 121.7 96.1758 121.257C96.1758 120.704 96.7848 120.98 97.1096 120.98C111.4 120.966 125.69 120.966 139.967 120.966Z" fill="#0C0C0C"/>
<path d="M160.903 90.4342C159.184 90.3511 157.56 89.839 155.95 89.2439C155.652 89.1331 155.666 88.9394 155.666 88.7179C155.666 88.0951 155.652 87.4723 155.652 86.8633C155.611 86.7941 155.598 86.7249 155.612 86.6557C156.166 84.8287 156.924 83.071 157.533 81.2717C157.587 81.1195 157.682 80.9949 157.844 80.9257C157.98 80.8703 158.102 80.8703 158.237 80.8565C160.24 80.6627 161.282 81.4101 161.187 83.6523C161.092 85.59 161.173 87.5415 161.16 89.493C161.146 89.8252 161.214 90.185 160.903 90.4342Z" fill="black"/>
<path d="M109.397 75.805C110.196 75.805 110.994 75.805 111.792 75.805C112.009 75.805 112.239 75.7358 112.415 75.9295C112.631 76.1787 112.604 76.4832 112.604 76.7877C112.604 79.0714 112.618 81.3412 112.604 83.6249C112.604 84.5384 112.51 84.6353 111.616 84.746C110.453 84.8844 109.762 85.6733 109.762 86.8774C109.762 87.6663 109.762 88.4414 109.762 89.2303C109.762 89.521 109.803 89.8393 109.519 90.0469C109.424 90.0054 109.343 89.9639 109.248 89.9362C109.045 89.6594 109.072 89.3272 109.072 89.0089C109.072 86.0193 109.045 83.0436 109.086 80.054C109.099 78.8637 109.235 77.6735 109.221 76.4832C109.208 76.2202 109.235 75.9849 109.397 75.805Z" fill="black"/>
<path d="M109.398 75.8047C109.344 80.5105 109.289 85.2024 109.235 89.9082C108.599 89.839 108.004 89.5899 107.408 89.3684C107.693 88.7318 107.503 88.0813 107.463 87.4446C107.314 84.8011 107.124 82.1713 106.948 79.5416C106.921 79.1126 106.827 78.6697 106.881 78.2406C107.07 76.815 107.869 76.0538 109.398 75.8047Z" fill="#6DB5DE"/>
<path d="M115.352 90.5869C113.755 90.6838 112.158 90.5592 110.575 90.2685C110.183 90.1993 110.007 90.0609 110.02 89.618C110.061 88.5108 110.047 87.4035 110.061 86.3101C110.034 85.6458 110.426 85.106 111.198 84.9537C112.172 84.76 113.187 84.76 114.148 84.9399C114.946 85.0922 115.42 85.7703 115.501 86.5731C115.623 87.7634 115.555 88.9675 115.528 90.1578C115.541 90.3239 115.474 90.4761 115.352 90.5869Z" fill="black"/>
<path d="M155.679 86.7252C155.665 86.7667 155.652 86.8221 155.652 86.8636C155.367 87.5418 155.652 88.2477 155.489 88.9674C155.124 88.8428 155.395 88.4138 155.164 88.2477C155.164 86.3792 155.124 84.5246 155.151 82.6561C155.164 81.4381 156.112 80.4831 157.357 80.5247C158.006 80.5385 158.115 80.3032 158.101 79.7081C158.074 77.9641 158.115 76.2064 158.115 74.4625C158.25 74.3933 158.372 74.3794 158.507 74.4625C158.751 74.7808 158.71 75.1545 158.724 75.5144C158.832 77.1752 158.453 78.8084 158.602 80.4693C158.872 80.4831 159.143 80.497 159.4 80.5108C160.55 80.58 161.471 81.4797 161.471 82.6284C161.484 85.1059 161.471 87.5695 161.457 90.047C161.281 90.1854 161.389 90.7805 160.889 90.4483C161.024 87.8186 160.956 85.1751 160.929 82.5454C160.916 81.7426 160.212 81.106 159.427 81.0644C158.872 81.0368 158.304 81.0783 157.749 81.0921C157.668 81.1336 157.776 81.0921 157.695 81.1198C155.882 81.8257 155.882 81.8257 155.882 83.8602C155.868 84.8014 155.936 85.7841 155.679 86.7252Z" fill="#FCFDFD"/>
<path d="M163.312 112.786C166.708 112.786 170.105 112.786 173.515 112.786C173.678 112.786 173.826 112.786 173.989 112.786C174.151 112.8 174.314 112.814 174.327 113.036C174.341 113.312 174.124 113.299 173.962 113.326C173.826 113.34 173.691 113.326 173.556 113.326C166.695 113.326 159.82 113.326 152.959 113.326C152.892 113.326 152.824 113.34 152.756 113.326C152.54 113.285 152.174 113.423 152.188 113.049C152.201 112.69 152.567 112.8 152.783 112.8C156.288 112.786 159.807 112.786 163.312 112.786Z" fill="#0D0D0D"/>
<path d="M114.351 113.327C110.954 113.327 107.544 113.327 104.147 113.327C103.944 113.327 103.741 113.327 103.538 113.313C103.417 113.299 103.322 113.244 103.308 113.105C103.295 112.953 103.362 112.829 103.525 112.815C103.701 112.801 103.89 112.787 104.066 112.787C110.941 112.787 117.815 112.787 124.69 112.787C124.825 112.787 124.96 112.787 125.096 112.787C125.285 112.787 125.488 112.842 125.461 113.092C125.448 113.285 125.272 113.327 125.096 113.327C124.92 113.327 124.73 113.327 124.555 113.327C121.158 113.327 117.761 113.327 114.351 113.327Z" fill="#0E0E0E"/>
<path d="M115.352 90.5864C115.352 89.3684 115.365 88.1504 115.352 86.9325C115.338 85.6868 114.702 85.0501 113.471 85.0363C112.957 85.0363 112.442 85.0501 111.915 85.0363C110.981 84.9948 110.372 85.41 110.061 86.3096C109.79 87.1401 109.993 87.9843 109.939 88.8148C109.912 89.1054 109.912 89.4099 109.939 89.7144C109.979 90.1435 109.763 90.0881 109.492 90.0328C109.506 88.967 109.506 87.9151 109.519 86.8494C109.533 85.4238 110.399 84.4827 111.779 84.5242C112.361 84.538 112.415 84.3028 112.415 83.8183C112.402 81.1886 112.402 78.5727 112.402 75.943C112.537 75.777 112.713 75.7077 112.916 75.8185C112.916 78.5035 112.943 81.1886 112.916 83.8875C112.916 84.3996 113.038 84.538 113.538 84.538C114.811 84.5242 115.609 85.2301 115.785 86.4204C115.771 87.6245 115.758 88.8286 115.744 90.0328C115.758 90.3096 115.825 90.6417 115.352 90.5864Z" fill="#FBFBFB"/>
<path d="M114.35 110.558C112.889 110.558 111.427 110.558 109.966 110.558C109.736 110.558 109.384 110.683 109.37 110.323C109.357 109.963 109.709 110.032 109.939 110.032C112.903 110.032 115.88 110.032 118.843 110.032C119.073 110.032 119.425 109.949 119.412 110.323C119.385 110.683 119.033 110.558 118.816 110.558C117.314 110.558 115.826 110.558 114.35 110.558Z" fill="#0F0F0F"/>
<path d="M163.19 110.559C161.728 110.559 160.267 110.559 158.792 110.559C158.575 110.559 158.223 110.683 158.237 110.282C158.25 109.95 158.561 110.033 158.764 110.033C161.742 110.033 164.705 110.033 167.683 110.033C167.913 110.033 168.251 109.95 168.251 110.337C168.237 110.669 167.913 110.572 167.71 110.572C166.207 110.559 164.705 110.559 163.19 110.559Z" fill="#0F0F0F"/>
<path d="M178.292 43.0308C177.304 43.0308 176.316 43.0308 175.314 43.0308C175.098 43.0308 174.746 43.1553 174.746 42.754C174.76 42.4356 175.057 42.491 175.274 42.491C177.277 42.491 179.28 42.491 181.282 42.491C181.499 42.491 181.81 42.4356 181.81 42.754C181.81 43.1415 181.472 43.0308 181.242 43.0308C180.267 43.0308 179.28 43.0308 178.292 43.0308Z" fill="#040404"/>
<path d="M157.763 43.0307C156.748 43.0307 155.733 43.0307 154.718 43.0307C154.515 43.0307 154.258 43.0722 154.245 42.7954C154.231 42.4632 154.502 42.4909 154.732 42.4909C156.762 42.4909 158.778 42.4909 160.808 42.4909C161.024 42.4909 161.322 42.4494 161.322 42.7816C161.322 43.1276 161.011 43.0307 160.794 43.0307C159.793 43.0307 158.778 43.0307 157.763 43.0307Z" fill="#040404"/>
<path d="M167.845 43.0301C166.83 43.0301 165.829 43.0301 164.814 43.0301C164.597 43.0301 164.313 43.0993 164.327 42.7395C164.34 42.4488 164.597 42.4904 164.8 42.4904C166.817 42.4904 168.846 42.4904 170.863 42.4904C171.079 42.4904 171.377 42.4212 171.377 42.7533C171.391 43.1132 171.079 43.0301 170.876 43.0301C169.875 43.0301 168.86 43.0301 167.845 43.0301Z" fill="#050505"/>
<path d="M80.6001 59.4317C80.2617 59.5562 79.9234 59.5562 79.8692 59.141C79.8151 58.7258 80.1399 58.6151 80.4918 58.6566C80.7219 58.8919 80.776 59.141 80.6001 59.4317Z" fill="#120D0D"/>
<path d="M176.357 156.15C170.7 156.15 165.043 156.136 159.387 156.164C158.805 156.164 158.629 156.039 158.629 155.402C158.656 149.299 158.656 143.181 158.629 137.077C158.629 136.441 158.818 136.33 159.387 136.33C170.727 136.344 182.067 136.344 193.394 136.33C193.949 136.33 194.111 136.468 194.111 137.05C194.084 143.181 194.084 149.313 194.111 155.444C194.111 156.039 193.935 156.164 193.394 156.164C187.724 156.15 182.04 156.15 176.357 156.15Z" fill="#5882AE"/>
<path d="M76.1482 59.1682C76.1347 59.4866 75.9994 59.6388 75.7287 59.6527C75.4987 59.6527 75.3363 59.5419 75.3227 59.2928C75.2957 59.016 75.431 58.8361 75.6881 58.8084C75.9588 58.7669 76.0806 58.9606 76.1482 59.1682Z" fill="#0D0807"/>
<path d="M118.735 75.791C116.935 75.791 115.149 75.791 113.349 75.791C113.349 74.9606 113.322 74.1302 113.349 73.3136C113.363 72.8984 113.254 72.76 112.835 72.7461C111.86 72.7184 110.913 72.5247 110.02 72.1371C108.085 71.3067 107.422 69.6735 107.408 67.6528C107.544 67.4729 107.733 67.5421 107.909 67.5282C108.64 67.5144 109.289 67.2929 109.736 66.6701C110.061 66.2134 110.345 66.3241 110.643 66.6978C111.116 67.2929 111.739 67.5559 112.483 67.5005C113.484 67.4175 114.175 66.7808 114.432 65.6874C114.608 64.94 114.161 63.9158 113.484 63.4868C112.659 62.9608 111.725 63.0162 110.967 63.6252C110.913 63.6667 110.859 63.7082 110.818 63.7636C110.182 64.3864 110.155 64.4002 109.56 63.7774C109.235 63.4452 108.748 63.3899 108.464 63.0023C108.315 62.8778 108.125 62.9055 107.963 62.9193C107.611 62.947 107.638 62.7255 107.679 62.4902C107.936 62.2411 108.261 62.2965 108.572 62.3242C110.331 62.4902 112.104 62.5456 113.877 62.5594C116.38 62.5733 118.126 63.8743 119.574 65.7981C120.305 66.1303 120.792 66.6563 120.805 67.5144C120.805 68.3725 120.318 68.9815 119.588 69.2306C118.843 69.4936 118.708 69.9226 118.735 70.6423C118.762 72.3863 118.735 74.0887 118.735 75.791Z" fill="#FD9993"/>
<path d="M119.561 65.8262C119.128 65.6324 118.898 65.2034 118.573 64.8989C117.112 63.501 115.461 62.6705 113.377 62.7121C111.468 62.7536 109.56 62.5875 107.666 62.5183C106.732 61.3418 106.313 60.0547 106.84 58.546C107.341 57.1343 108.572 56.4284 110.034 56.6637C111.387 56.8852 112.416 57.591 113.228 58.6568C113.485 58.9889 113.674 59.0305 114.067 58.9474C116.137 58.5045 117.856 59.1689 118.857 60.7605C119.209 61.3142 119.385 61.937 119.412 62.5875C119.493 63.6671 119.52 64.7466 119.561 65.8262Z" fill="black"/>
<path d="M108.464 63.03C109.236 63.1545 109.75 63.6251 110.169 64.3448C110.684 63.5006 111.374 62.9746 112.348 62.9746C112.984 62.9746 113.539 63.2237 113.986 63.6805C114.946 64.6632 114.852 66.2825 113.81 67.1683C112.686 68.1233 111.266 67.8188 110.183 66.3794C109.56 67.4866 108.613 67.8742 107.422 67.6666C105.812 66.8361 105.311 65.5628 106.069 64.1511C106.448 63.459 107.003 63.0577 107.801 63.0715C108.018 63.0577 108.234 63.0438 108.464 63.03Z" fill="#010101"/>
<path d="M121.861 85.2302C121.455 85.2302 121.049 85.2301 120.656 85.2163C119.844 85.1748 119.263 84.6765 119.1 83.8599C118.992 83.3201 119.005 82.7527 119.073 82.2129C119.168 81.424 119.736 80.8842 120.562 80.7873C120.886 80.7458 120.968 80.6489 120.954 80.3306C120.941 78.8635 120.941 77.3964 120.927 75.9293C121.049 75.6801 121.211 75.5833 121.441 75.7909C121.441 77.2441 121.455 78.6836 121.455 80.1368C121.455 80.5244 121.468 80.7596 121.969 80.7873C122.754 80.8565 123.241 81.3963 123.363 82.2267C123.417 82.6143 123.458 83.0018 123.431 83.3894C123.376 84.4966 122.916 85.0087 121.861 85.2302Z" fill="#FCFCFC"/>
<path d="M156.315 65.6732C155.517 65.4794 155.002 64.9396 154.61 64.2337C154.299 63.6801 153.96 63.1265 153.609 62.6005C153.338 62.213 153.5 62.1161 153.866 62.13C154.245 62.1438 154.624 62.213 155.002 62.2407C155.192 62.2545 155.341 62.2684 155.287 61.95C154.935 59.7355 156.193 58.7944 157.939 58.1577C159.306 57.6595 160.727 57.5072 162.175 57.8809C162.973 58.0885 163.826 58.0055 164.651 58.0747C167.561 58.2961 168.928 59.5279 169.469 62.476C169.699 63.7078 169.767 64.9396 169.821 66.1714C169.915 68.0953 170.497 69.8115 171.472 71.417C171.688 71.7768 171.837 72.0952 171.607 72.4966C171.377 72.8841 171.012 73.0225 170.633 72.981C169.334 72.8149 168.021 72.9395 166.722 72.8703C166.438 72.8564 166.153 72.8149 165.856 72.7734C165.571 72.635 165.612 72.3443 165.626 72.109C165.693 70.8634 165.531 69.6592 165.098 68.4689C164.665 67.2648 164.624 65.9638 164.435 64.5936C163.758 65.5347 162.946 66.116 161.755 66.0192C160.51 65.9223 159.982 64.995 159.428 64.0676C159.103 64.2337 159.022 64.5521 158.859 64.7735C158.386 65.4102 157.79 65.8116 156.992 65.8531C156.748 65.8808 156.491 65.9223 156.315 65.6732Z" fill="black"/>
<path d="M156.315 65.6734C157.953 65.9918 158.697 64.8568 159.401 63.542C159.969 64.6631 160.456 65.7565 161.823 65.8811C163.176 66.0056 163.853 65.0506 164.624 63.971C164.786 65.3828 164.854 66.6146 165.111 67.8326C165.233 68.4416 165.355 69.0505 165.68 69.5903C165.896 69.9363 165.774 70.31 165.801 70.6699C165.842 71.3758 165.734 72.0955 165.856 72.8013C166.316 73.3273 165.991 73.9501 166.059 74.5176V74.5037C164.57 74.4761 163.081 74.5868 161.593 74.4484C161.593 73.6456 161.566 72.8429 161.606 72.0401C161.633 71.6111 161.457 71.4865 161.092 71.445C160.199 71.3342 159.333 71.1128 158.521 70.7114C156.437 69.6872 155.99 67.9018 156.085 65.9364C156.126 65.7703 156.207 65.715 156.315 65.6734Z" fill="#FD9993"/>
<path d="M168.102 74.5457C168.102 77.3138 168.115 80.0681 168.102 82.8362C168.102 83.2514 168.102 83.5283 168.657 83.5975C169.469 83.6943 169.969 84.3864 170.01 85.2445C170.01 85.2722 170.01 85.286 170.01 85.3137C170.213 88.151 168.86 88.068 167.006 87.9711C166.681 87.9572 166.397 87.7773 166.167 87.5559C165.395 86.7531 165.598 85.7427 165.734 84.8154C165.842 84.0819 166.437 83.6528 167.182 83.5836C167.534 83.5559 167.574 83.3899 167.574 83.0992C167.561 80.248 167.547 77.3969 167.547 74.5457C167.737 74.3104 167.926 74.4073 168.102 74.5457Z" fill="#FDFDFE"/>
<path d="M158.602 80.4687C158.399 79.9013 158.535 79.3061 158.521 78.7248C158.507 77.2992 158.507 75.8875 158.507 74.4619C159.008 74.4896 159.509 74.5311 160.01 74.5588C159.766 75.32 159.549 76.0951 159.252 76.8425C158.792 78.0051 158.494 79.1954 158.602 80.4687Z" fill="#70B5DC"/>
<path d="M70.3287 59.4033C70.3287 60.7597 70.3152 62.0469 70.3422 63.334C70.3422 63.7216 70.1798 63.6939 69.9362 63.597C69.855 63.5693 69.7738 63.5278 69.6926 63.4863C68.4476 63.0019 67.8657 62.3237 67.9063 61.4379C67.9469 60.5383 68.6235 59.8877 69.855 59.514C69.9633 59.4725 70.0986 59.4587 70.3287 59.4033Z" fill="#FC9993"/>
<path d="M155.68 86.7251C155.68 85.5071 155.666 84.2891 155.666 83.0712C155.666 81.604 156.329 80.9812 157.75 81.0781C157.127 82.9881 156.437 84.8704 155.68 86.7251Z" fill="#6CB5DE"/>
<path d="M176.33 155.858C170.781 155.858 165.246 155.845 159.698 155.872C159.13 155.872 158.927 155.762 158.94 155.125C158.967 149.201 158.967 143.277 158.94 137.354C158.94 136.786 159.089 136.62 159.644 136.62C170.795 136.634 181.959 136.634 193.11 136.62C193.746 136.62 193.827 136.828 193.827 137.395C193.814 143.291 193.814 149.201 193.827 155.097C193.827 155.692 193.705 155.872 193.096 155.872C187.507 155.845 181.918 155.858 176.33 155.858Z" fill="#FEFEFE"/>
<path d="M112.28 63.5002C113.254 63.4863 114.107 64.3168 114.12 65.3133C114.147 66.296 113.322 67.1817 112.347 67.2094C111.387 67.2371 110.521 66.3928 110.507 65.3963C110.493 64.3721 111.305 63.514 112.28 63.5002Z" fill="#FC9993"/>
<path d="M107.53 63.6251C108.275 63.3898 108.992 63.5974 109.452 64.1926C109.912 64.7877 109.966 65.5905 109.601 66.2548C109.235 66.9192 108.491 67.2929 107.787 67.1683C107.652 67.1406 107.53 67.0991 107.395 67.0576C107.111 66.587 107.151 66.1026 107.327 65.6181C107.49 65.369 107.95 65.6597 107.99 65.3275C108.045 64.9538 107.449 65.2029 107.395 64.8431C107.327 64.4278 107.246 63.9988 107.53 63.6251Z" fill="#FC9993"/>
<path d="M107.517 65.5627C107.314 66.0471 107.449 66.5592 107.395 67.0575C106.502 66.6561 106.191 65.9364 106.299 64.9952C106.394 64.2617 106.827 63.8049 107.53 63.625C107.53 64.0817 107.53 64.5385 107.53 64.9952C107.625 65.189 107.612 65.3828 107.517 65.5627Z" fill="#202B6C"/>
<path d="M121.848 84.6488C121.753 84.6626 121.672 84.6903 121.577 84.6903C119.777 84.7456 119.277 84.1782 119.574 82.3374C119.669 81.7284 120.035 81.3547 120.671 81.327C120.955 81.3132 121.253 81.3409 121.55 81.3547C121.97 81.9222 121.834 82.6142 121.916 83.2509C121.956 83.7076 122.173 84.192 121.848 84.6488Z" fill="#010101"/>
<path d="M121.847 84.6489C121.739 83.5555 121.644 82.4483 121.536 81.3548C122.402 81.341 122.862 81.7285 122.903 82.5728C122.93 83.1126 123.011 83.6801 122.673 84.1645C122.483 84.4413 122.253 84.7043 121.847 84.6489Z" fill="#6EB6DE"/>
<path d="M161.525 62.5594C160.036 62.601 158.561 62.3934 157.073 62.3657C156.667 62.3518 156.491 62.3242 156.572 61.7844C156.965 59.0439 158.927 57.5768 161.606 58.0613C163.041 58.3104 164.394 59.8744 164.489 61.3692C164.556 62.5594 164.556 62.5594 163.42 62.5594C162.784 62.5594 162.147 62.5594 161.525 62.5594Z" fill="#FD9993"/>
<path d="M166.6 68.4971C166.6 67.1269 166.6 65.812 166.6 64.511C166.6 64.2203 166.694 64.1511 166.965 64.2619C167.127 64.3311 167.317 64.3588 167.479 64.4141C168.427 64.7601 169.063 65.4937 169.035 66.2826C168.995 67.2653 168.372 67.7912 167.56 68.1511C167.29 68.2756 167.006 68.3587 166.6 68.4971Z" fill="#FC9993"/>
<path d="M159.779 63.0996C161.403 63.0996 162.959 63.0996 164.665 63.0996C163.798 64.0269 163.433 65.3971 161.985 65.3695C160.618 65.3418 160.321 64.1238 159.779 63.0996Z" fill="#FB9892"/>
<path d="M156.491 62.8498C156.545 62.8498 156.599 62.8498 156.653 62.8359C156.897 62.919 157.154 62.8221 157.398 62.8913C157.925 62.919 158.467 62.9605 159.008 62.9882C158.575 64.6352 157.628 65.3411 156.234 65.0919C156.017 64.7875 156.004 64.483 156.22 64.1646C156.261 64.1369 156.288 64.1231 156.328 64.1093C156.477 64.0539 156.734 64.1369 156.775 63.9155C156.829 63.6525 156.531 63.6664 156.383 63.5418C156.356 63.5141 156.315 63.4864 156.288 63.4449C156.193 63.1958 156.166 62.9605 156.491 62.8498Z" fill="#FB9892"/>
<path d="M156.491 62.8505C156.382 63.0442 156.355 63.2657 156.369 63.4871C156.436 63.7224 156.464 63.9577 156.342 64.193C156.152 64.4836 156.247 64.802 156.22 65.1065C155.259 64.7605 154.975 63.7778 154.434 63.0581C154.231 62.7951 154.528 62.7812 154.691 62.7812C155.286 62.7951 155.882 62.8228 156.491 62.8505Z" fill="#202B6C"/>
<path d="M157.384 62.9054C157.127 62.947 156.883 62.947 156.64 62.8501C156.897 62.7947 157.154 62.7532 157.384 62.9054Z" fill="#202B6C"/>
<path d="M167.899 87.4443C166.478 87.4443 166.208 87.1952 166.194 85.8803C166.194 84.4132 166.465 84.0811 167.669 84.0811C169.185 84.0811 169.469 84.344 169.469 85.6866C169.483 87.1675 169.239 87.4443 167.899 87.4443Z" fill="#6DB5DE"/>
<path d="M176.438 139.555C174.638 139.555 172.839 139.527 171.039 139.568C170.321 139.582 170.443 139.153 170.43 138.724C170.43 138.281 170.349 137.88 171.039 137.88C174.598 137.908 178.143 137.908 181.702 137.88C182.23 137.88 182.352 138.06 182.325 138.558C182.284 139.721 182.433 139.541 181.351 139.541C179.713 139.555 178.076 139.555 176.438 139.555Z" fill="#5F87B2"/>
<path d="M112.28 64.8984C112.578 64.9123 112.74 65.0784 112.754 65.3275C112.767 65.5905 112.605 65.7566 112.348 65.7704C112.091 65.7842 111.915 65.6181 111.901 65.3552C111.888 65.0922 112.063 64.9538 112.28 64.8984Z" fill="#180E0E"/>
<path d="M107.517 65.5631C107.422 65.3694 107.436 65.1894 107.53 65.0095C107.774 64.8434 108.018 64.788 108.221 65.0649C108.329 65.231 108.342 65.397 108.207 65.5631C107.977 65.8123 107.747 65.7707 107.517 65.5631Z" fill="#0C0708"/>
<path d="M161.187 64.4556C160.916 64.4141 160.768 64.2618 160.781 63.9989C160.781 63.7497 160.93 63.6113 161.16 63.6113C161.417 63.6113 161.607 63.7359 161.593 64.0127C161.593 64.2618 161.444 64.4279 161.187 64.4556Z" fill="#080505"/>
<path d="M156.329 64.1787C156.18 63.9296 156.207 63.7081 156.356 63.4729C156.599 63.4452 156.856 63.3621 156.992 63.6666C157.073 63.8327 157.073 64.0126 156.924 64.1649C156.735 64.3725 156.532 64.3171 156.329 64.1787Z" fill="#080505"/>
<path d="M176.465 138.254C178.129 138.254 179.794 138.254 181.459 138.254C181.81 138.254 182.04 138.282 182.04 138.752C182.04 139.237 181.81 139.25 181.459 139.25C178.089 139.237 174.706 139.25 171.336 139.25C171.011 139.25 170.781 139.237 170.781 138.794C170.781 138.351 170.944 138.254 171.336 138.254C173.041 138.268 174.746 138.254 176.465 138.254Z" fill="#FCFDFD"/>
</svg>
