<svg width="701" height="659" viewBox="0 0 701 659" fill="none" xmlns="http://www.w3.org/2000/svg">
<g opacity="0.62">
<path d="M288.306 612.568C253.608 627.583 218.123 635.8 179.393 630.993C136.225 625.632 96.8597 591.301 73.5872 556.014C64.9405 542.906 57.7733 528.097 57.5651 512.364C57.0975 476.017 90.8016 469.735 120.013 473.698C136.479 475.924 151.889 482.442 167.124 488.9C192.419 499.63 221.545 503.809 244.614 519.471C252.356 524.743 258.338 531.294 267.173 534.919C280.915 540.563 296.319 542.641 310.384 547.675C322.395 551.998 335.994 559.515 336.841 572.331C337.695 585.475 324.626 594.747 313.005 600.766C304.781 605.051 296.573 609.005 288.306 612.568Z" fill="url(#paint0_linear)"/>
<path d="M127.284 153.93C179.874 63.7096 297.947 21.1077 397.58 47.1759C445.624 59.7543 487.152 89.7942 525.699 121.278C559.677 149.027 592.85 179.185 617.219 216.128C633.859 241.344 646.588 272.046 656.039 300.868C670.174 344.024 663.585 401.262 606.991 400.822C593.713 400.721 581.97 396.685 569.339 393.309C559.122 390.571 549.456 393.252 538.969 392.276C512.572 389.826 486.775 381.79 462.238 372.004C412.234 352.04 365.876 323.496 314.679 306.486C272.723 292.569 228.512 286.866 184.43 289.686C165.833 290.878 146.365 293.475 129.189 286.192C86.8518 268.222 101.678 211.284 114.958 178.93C118.474 170.313 122.592 161.959 127.284 153.93Z" fill="url(#paint1_linear)"/>
<path d="M584.357 136.966C594.503 145.077 633.686 166.465 632.596 138.414C632.316 131.426 628.736 124.859 624.131 120.031C618.86 114.488 613.117 111.777 608.855 105.196C603.648 97.254 597.827 89.8508 591.467 83.0821C578.449 68.9793 563.484 56.1421 546.011 51.133C533.756 47.6248 513.549 50.0387 508.862 65.8772C502.033 88.9342 537.739 90.7284 549.078 98.2217C559.838 105.313 566.511 118.274 575.324 128.344C578.108 131.519 581.132 134.405 584.357 136.966Z" fill="url(#paint2_linear)"/>
<path d="M405.438 121.235C426.509 131.936 442.897 148.951 462.337 162.243C494.702 184.37 537.239 186.535 573.648 201.009C610.773 215.778 639.694 240.623 654.477 278.2C673.572 326.703 678.9 385.527 668.704 437.352C657.475 494.4 624.985 533.94 575.563 562.135C526.169 590.313 470.42 605.613 414.225 611.709C408.802 612.302 403.381 612.785 397.933 613.179C275.563 621.946 109.805 589.25 59.5424 459.498C59.0819 458.313 58.6374 457.126 58.1907 455.923C52.9397 441.444 49.4281 426.384 47.7308 411.064C41.5799 356.763 47.1473 296.014 62.7948 243.701C73.317 208.482 98.888 177.606 126.476 154.991C165.236 123.219 214.349 112.531 263.483 105.793C299.867 100.805 340.915 97.1577 376.392 108.97C386.365 112.322 396.074 116.421 405.438 121.235Z" fill="url(#paint3_linear)"/>
</g>
<path d="M341.797 324.919C343.274 328.459 347.319 330.124 350.833 328.636L365.303 322.511C372.669 319.393 380.656 318.013 388.627 318.573C391.003 318.739 393.464 318.286 395.778 317.118C401.908 314.024 404.867 306.69 402.619 300.164C399.979 292.501 391.528 288.785 384.223 291.877C382.244 292.715 380.561 293.963 379.23 295.482C373.888 301.578 367.396 306.542 359.954 309.692L345.487 315.816C341.973 317.303 340.321 321.379 341.797 324.919Z" fill="#202B6D"/>
<path d="M272.942 403.032C270.025 401.832 266.694 403.242 265.503 406.181L260.598 418.285C258.101 424.447 254.232 429.957 249.248 434.325C247.762 435.627 246.586 437.342 245.911 439.387C244.123 444.807 246.649 450.837 251.75 453.328C257.739 456.254 264.836 453.448 267.313 447.338C267.983 445.683 268.243 443.962 268.14 442.29C267.726 435.58 268.641 428.854 271.164 422.629L276.068 410.528C277.258 407.588 275.859 404.232 272.942 403.032Z" fill="#475CDA"/>
<path d="M317.185 293.867C320.238 295.123 323.723 293.648 324.969 290.572L330.103 277.906C332.716 271.459 336.764 265.693 341.979 261.122C343.534 259.759 344.765 257.965 345.471 255.824C347.342 250.153 344.699 243.843 339.361 241.236C333.094 238.175 325.667 241.111 323.075 247.505C322.374 249.237 322.102 251.037 322.209 252.787C322.643 259.809 321.685 266.847 319.046 273.361L313.914 286.024C312.668 289.1 314.132 292.611 317.185 293.867Z" fill="#475CDA"/>
<path d="M315.765 389.171C312.251 390.658 310.599 394.734 312.075 398.274L318.155 412.853C321.25 420.274 322.619 428.321 322.064 436.351C321.898 438.745 322.349 441.225 323.508 443.556C326.579 449.732 333.858 452.713 340.336 450.448C347.941 447.789 351.63 439.274 348.561 431.915C347.729 429.921 346.491 428.225 344.983 426.884C338.932 421.502 334.005 414.961 330.878 407.464L324.8 392.888C323.324 389.348 319.278 387.683 315.765 389.171Z" fill="#202B6D"/>
<path d="M344.981 426.885C338.93 421.503 334.003 414.962 330.876 407.464L324.797 392.888C323.321 389.348 319.276 387.684 315.762 389.171C312.248 390.659 310.596 394.734 312.072 398.275L318.151 412.851C321.278 420.348 326.205 426.889 332.256 432.272C333.764 433.612 335.002 435.308 335.834 437.302C337.811 442.043 336.98 447.262 334.107 451.087C336.157 451.355 338.285 451.165 340.334 450.449C347.939 447.79 351.628 439.275 348.559 431.915C347.727 429.922 346.489 428.226 344.981 426.885Z" fill="#475CDA"/>
<path d="M238.37 337.556C249.849 332.697 255.245 319.383 250.422 307.818C245.599 296.253 232.384 290.817 220.905 295.676C209.426 300.535 204.031 313.849 208.854 325.414C213.677 336.979 226.892 342.415 238.37 337.556Z" fill="#999BA9"/>
<path d="M220.91 295.675C218.69 296.615 216.701 297.874 214.966 299.372C224.461 298.539 233.811 303.875 237.702 313.204C241.592 322.532 238.83 332.996 231.594 339.245C233.87 339.045 236.155 338.495 238.375 337.555C249.854 332.696 255.25 319.382 250.427 307.817C245.604 296.252 232.388 290.816 220.91 295.675Z" fill="#202B6D"/>
<path d="M325.409 412.303C362.89 396.437 380.508 352.963 364.761 315.201C349.013 277.439 305.862 259.689 268.381 275.555C230.9 291.42 213.282 334.894 229.03 372.656C244.778 410.418 287.928 428.168 325.409 412.303Z" fill="#202B6D"/>
<path d="M268.382 275.554C266.236 276.462 264.158 277.465 262.145 278.549C297.99 267.178 337.19 284.987 352.037 320.587C366.883 356.186 352.071 396.858 318.922 414.693C321.099 414.003 323.264 413.21 325.41 412.302C362.891 396.436 380.509 352.962 364.762 315.2C349.014 277.438 305.863 259.688 268.382 275.554Z" fill="#475CDA"/>
<path d="M318.392 323.672C326.005 320.449 329.584 311.618 326.385 303.948C323.186 296.277 314.421 292.672 306.808 295.895C299.194 299.117 295.616 307.948 298.814 315.619C302.013 323.289 310.778 326.894 318.392 323.672Z" fill="#475CDA"/>
<path d="M306.806 295.895C304.511 296.867 302.585 298.351 301.098 300.157C306.474 300.607 311.424 303.977 313.659 309.335C315.893 314.692 314.818 320.613 311.373 324.796C313.694 324.991 316.094 324.644 318.39 323.672C326.004 320.449 329.582 311.618 326.384 303.948C323.185 296.278 314.42 292.672 306.806 295.895Z" fill="white"/>
<path d="M287.697 390.309C292.851 388.128 295.274 382.15 293.108 376.957C290.943 371.765 285.009 369.324 279.856 371.506C274.702 373.688 272.279 379.665 274.445 384.858C276.61 390.05 282.543 392.491 287.697 390.309Z" fill="white"/>
<path d="M369.56 387.915C376.587 384.94 379.891 376.788 376.938 369.708C373.985 362.627 365.895 359.299 358.867 362.274C351.839 365.249 348.536 373.4 351.488 380.481C354.441 387.561 362.532 390.89 369.56 387.915Z" fill="#202B6D"/>
<path d="M358.866 362.275C356.548 363.256 354.638 364.804 353.22 366.687C357.947 367.295 362.234 370.351 364.213 375.095C366.191 379.84 365.357 385.063 362.48 388.89C364.807 389.189 367.241 388.898 369.559 387.916C376.587 384.941 379.891 376.79 376.938 369.709C373.985 362.629 365.894 359.3 358.866 362.275Z" fill="#475CDA"/>
<path d="M251.985 362.937C253.461 366.477 251.81 370.553 248.296 372.041L233.826 378.166C226.459 381.284 219.891 386.066 214.709 392.193C213.164 394.019 211.12 395.473 208.673 396.32C202.188 398.566 194.919 395.562 191.866 389.376C188.281 382.114 191.562 373.432 198.867 370.339C200.845 369.502 202.908 369.164 204.916 369.269C212.977 369.692 221.04 368.495 228.482 365.345L242.95 359.221C246.463 357.733 250.509 359.397 251.985 362.937Z" fill="#475CDA"/>
<path d="M278.033 298.684C281.547 297.197 283.199 293.121 281.722 289.581L275.643 275.003C272.548 267.581 271.179 259.534 271.734 251.504C271.899 249.11 271.449 246.631 270.29 244.299C267.218 238.123 259.94 235.142 253.462 237.407C245.856 240.066 242.168 248.581 245.237 255.941C246.068 257.934 247.307 259.63 248.814 260.971C254.865 266.353 259.793 272.894 262.919 280.391L268.998 294.968C270.474 298.508 274.519 300.172 278.033 298.684Z" fill="#202B6D"/>
<path d="M270.291 244.299C267.219 238.123 259.941 235.142 253.462 237.407C250.757 238.353 248.55 240.042 246.964 242.155C251.398 242.735 255.465 245.462 257.566 249.686C258.725 252.017 259.175 254.496 259.009 256.89C258.454 264.921 259.824 272.968 262.919 280.389L268.998 294.967C270.474 298.507 274.52 300.172 278.034 298.684C281.548 297.197 283.2 293.121 281.723 289.581L275.644 275.002C272.549 267.581 271.179 259.534 271.734 251.504C271.9 249.11 271.45 246.63 270.291 244.299Z" fill="#475CDA"/>
<path d="M385.662 292.239C383.67 293.039 381.965 294.255 380.608 295.748C380.367 296.012 380.122 296.272 379.878 296.531C384.892 297.246 389.368 300.724 391.08 306.007C392.544 310.524 391.537 315.377 388.751 318.936C389.026 318.955 389.301 318.972 389.576 318.996C391.948 319.207 394.415 318.799 396.749 317.675C402.931 314.696 406.021 307.423 403.893 300.859C401.396 293.154 393.018 289.284 385.662 292.239Z" fill="#475CDA"/>
<g opacity="0.63">
<path d="M440.208 454.446C441.33 456.041 443.522 456.418 445.105 455.288L451.625 450.636C454.944 448.268 458.762 446.695 462.784 446.086C463.983 445.905 465.156 445.406 466.178 444.569C468.886 442.35 469.553 438.377 467.721 435.383C465.571 431.869 460.964 430.962 457.672 433.31C456.781 433.947 456.081 434.754 455.586 435.656C453.599 439.28 450.916 442.468 447.563 444.861L441.045 449.512C439.462 450.642 439.087 452.851 440.208 454.446Z" fill="#FFC700"/>
<path d="M409.135 492.383C407.554 492.111 406.053 493.182 405.783 494.775L404.671 501.335C404.105 504.674 402.786 507.842 400.788 510.567C400.192 511.379 399.796 512.362 399.684 513.453C399.389 516.345 401.304 519.061 404.112 519.732C407.408 520.52 410.628 518.337 411.189 515.025C411.341 514.128 411.282 513.244 411.048 512.425C410.107 509.136 409.825 505.692 410.397 502.319L411.509 495.76C411.779 494.167 410.716 492.655 409.135 492.383Z" fill="#D09700"/>
<path d="M419.168 433.219C420.823 433.503 422.393 432.383 422.675 430.716L423.839 423.852C424.432 420.357 425.812 417.042 427.903 414.191C428.526 413.341 428.941 412.313 429.058 411.171C429.366 408.144 427.362 405.303 424.424 404.601C420.975 403.776 417.605 406.06 417.018 409.526C416.859 410.464 416.921 411.389 417.166 412.247C418.151 415.688 418.445 419.292 417.847 422.822L416.684 429.685C416.401 431.352 417.514 432.934 419.168 433.219Z" fill="#D09700"/>
<path d="M428.893 480.737C427.31 481.867 426.936 484.076 428.057 485.671L432.675 492.24C435.025 495.584 436.587 499.43 437.19 503.482C437.37 504.69 437.866 505.872 438.697 506.902C440.9 509.63 444.843 510.302 447.814 508.456C451.302 506.289 452.203 501.648 449.872 498.332C449.24 497.434 448.439 496.729 447.543 496.23C443.947 494.228 440.782 491.526 438.407 488.147L433.79 481.58C432.669 479.985 430.477 479.607 428.893 480.737Z" fill="#FFC700"/>
<path d="M447.543 496.229C443.946 494.227 440.782 491.524 438.407 488.146L433.79 481.578C432.669 479.983 430.476 479.606 428.893 480.736C427.31 481.865 426.935 484.074 428.057 485.67L432.673 492.237C435.048 495.615 438.213 498.318 441.809 500.32C442.705 500.819 443.506 501.524 444.138 502.422C445.64 504.558 445.798 507.244 444.79 509.464C445.838 509.369 446.874 509.038 447.814 508.455C451.302 506.288 452.203 501.647 449.871 498.331C449.24 497.433 448.439 496.727 447.543 496.229Z" fill="#D09700"/>
<path d="M384.787 463.69C389.959 459.999 391.182 452.784 387.519 447.573C383.856 442.362 376.694 441.13 371.522 444.82C366.35 448.511 365.127 455.727 368.79 460.937C372.453 466.148 379.615 467.38 384.787 463.69Z" fill="#D09700"/>
<path d="M371.523 444.82C370.523 445.534 369.672 446.38 368.974 447.318C373.601 445.848 378.832 447.461 381.786 451.664C384.741 455.867 384.515 461.373 381.603 465.283C382.712 464.931 383.787 464.403 384.788 463.69C389.959 459.999 391.183 452.783 387.52 447.573C383.857 442.362 376.694 441.13 371.523 444.82Z" fill="#FFC700"/>
<path d="M436.218 491.16C453.106 479.11 457.1 455.548 445.14 438.534C433.179 421.519 409.793 417.495 392.905 429.546C376.017 441.596 372.023 465.158 383.984 482.172C395.944 499.186 419.331 503.21 436.218 491.16Z" fill="#FFC700"/>
<path d="M392.911 429.545C391.944 430.235 391.022 430.964 390.14 431.726C406.707 422.092 428.137 426.584 439.412 442.624C450.688 458.664 447.782 480.522 433.262 493.069C434.268 492.484 435.258 491.849 436.225 491.159C453.113 479.109 457.107 455.547 445.146 438.533C433.185 421.519 409.799 417.495 392.911 429.545Z" fill="#D09700"/>
<path d="M418.809 450.483C420.058 449.591 420.354 447.849 419.469 446.591C418.584 445.332 416.855 445.035 415.606 445.926C414.357 446.817 414.062 448.56 414.946 449.818C415.831 451.076 417.56 451.374 418.809 450.483Z" fill="white"/>
<path d="M415.068 484.423C417.39 482.766 417.94 479.525 416.295 477.186C414.65 474.846 411.434 474.293 409.112 475.95C406.789 477.607 406.24 480.847 407.885 483.187C409.53 485.527 412.746 486.08 415.068 484.423Z" fill="white"/>
<path d="M398.803 462.643C402.359 460.106 403.2 455.145 400.682 451.563C398.163 447.981 393.24 447.134 389.684 449.671C386.129 452.208 385.288 457.168 387.806 460.75C390.324 464.333 395.248 465.18 398.803 462.643Z" fill="white"/>
<path d="M455.485 474.133C458.651 471.874 459.4 467.456 457.157 464.265C454.915 461.075 450.53 460.321 447.363 462.58C444.196 464.84 443.447 469.258 445.69 472.448C447.933 475.638 452.318 476.393 455.485 474.133Z" fill="#FFC700"/>
<path d="M447.364 462.581C446.32 463.326 445.54 464.307 445.042 465.401C447.458 465.177 449.923 466.219 451.425 468.357C452.928 470.495 453.086 473.183 452.075 475.405C453.264 475.295 454.442 474.88 455.486 474.134C458.653 471.874 459.402 467.456 457.159 464.266C454.917 461.076 450.531 460.321 447.364 462.581Z" fill="#D09700"/>
<path d="M394.331 474.79C395.452 476.385 395.078 478.594 393.495 479.724L386.975 484.376C383.656 486.744 380.916 489.85 379.011 493.471C378.444 494.55 377.587 495.5 376.464 496.193C373.487 498.03 369.546 497.345 367.351 494.611C364.775 491.4 365.454 486.721 368.746 484.372C369.637 483.736 370.625 483.339 371.635 483.168C375.687 482.482 379.562 480.991 382.915 478.599L389.434 473.947C391.017 472.817 393.21 473.195 394.331 474.79Z" fill="#D09700"/>
<path d="M400.235 439.968C401.818 438.838 402.193 436.63 401.071 435.034L396.454 428.466C394.103 425.122 392.542 421.275 391.938 417.223C391.758 416.015 391.263 414.833 390.432 413.804C388.229 411.076 384.285 410.404 381.314 412.249C377.826 414.416 376.926 419.057 379.257 422.373C379.888 423.271 380.689 423.976 381.585 424.475C385.182 426.477 388.346 429.18 390.721 432.558L395.338 439.126C396.459 440.721 398.652 441.098 400.235 439.968Z" fill="#FFC700"/>
<path d="M390.429 413.804C388.227 411.076 384.283 410.404 381.312 412.25C380.071 413.02 379.16 414.105 378.603 415.331C380.87 415.126 383.19 416.03 384.696 417.895C385.527 418.925 386.022 420.107 386.202 421.315C386.806 425.367 388.367 429.213 390.718 432.557L395.336 439.126C396.457 440.721 398.649 441.098 400.233 439.969C401.816 438.839 402.191 436.63 401.069 435.035L396.452 428.466C394.101 425.122 392.539 421.276 391.936 417.224C391.756 416.015 391.261 414.833 390.429 413.804Z" fill="#D09700"/>
</g>
<path d="M487.511 376.737C485.337 376.225 483.163 377.586 482.656 379.776L480.565 388.795C479.5 393.387 477.404 397.677 474.401 401.293C473.505 402.371 472.873 403.702 472.627 405.209C471.976 409.202 474.411 413.136 478.256 414.306C482.77 415.679 487.424 412.919 488.48 408.365C488.766 407.132 488.757 405.899 488.5 404.741C487.466 400.093 487.362 395.285 488.437 390.646L490.528 381.629C491.036 379.439 489.685 377.249 487.511 376.737Z" fill="#8F3600"/>
<path d="M474.415 316.988C475.983 316.007 476.464 313.931 475.49 312.351L471.479 305.847C469.437 302.536 468.174 298.793 467.831 294.91C467.729 293.752 467.326 292.602 466.595 291.576C464.659 288.858 460.952 287.992 458.026 289.573C454.59 291.429 453.471 295.784 455.496 299.068C456.044 299.957 456.765 300.673 457.587 301.199C460.888 303.307 463.74 306.057 465.802 309.402L469.813 315.905C470.787 317.484 472.848 317.969 474.415 316.988Z" fill="#341300"/>
<path d="M510.589 375.652C508.948 376.678 508.445 378.851 509.464 380.503L513.661 387.31C515.798 390.775 517.12 394.691 517.479 398.754C517.586 399.966 518.007 401.17 518.772 402.243C520.799 405.087 524.677 405.993 527.739 404.339C531.334 402.397 532.506 397.839 530.387 394.403C529.813 393.473 529.059 392.724 528.198 392.174C524.744 389.967 521.76 387.09 519.602 383.59L515.405 376.785C514.385 375.132 512.229 374.625 510.589 375.652Z" fill="#341300"/>
<path d="M466.217 342.21C466.724 340.02 465.374 337.83 463.2 337.318L454.248 335.211C449.691 334.139 445.433 332.027 441.843 329.001C440.773 328.099 439.452 327.462 437.956 327.215C433.993 326.559 430.088 329.012 428.927 332.885C427.564 337.433 430.304 342.122 434.823 343.186C436.048 343.474 437.272 343.465 438.421 343.206C443.034 342.165 447.807 342.059 452.411 343.143L461.361 345.249C463.535 345.761 465.709 344.4 466.217 342.21Z" fill="#8F3600"/>
<path d="M438.423 343.206C443.036 342.165 447.808 342.06 452.412 343.143L461.363 345.249C463.537 345.761 465.711 344.4 466.219 342.21C466.726 340.02 465.376 337.83 463.202 337.318L454.251 335.212C449.647 334.128 444.875 334.234 440.261 335.275C439.112 335.534 437.888 335.543 436.664 335.255C433.752 334.57 431.582 332.379 430.769 329.691C429.938 330.579 429.296 331.661 428.929 332.886C427.566 337.433 430.306 342.123 434.825 343.186C436.049 343.474 437.273 343.465 438.423 343.206Z" fill="#341300"/>
<path d="M517.117 322.978C515.458 330.132 519.87 337.287 526.971 338.959C534.073 340.63 541.174 336.185 542.833 329.03C544.492 321.875 540.08 314.72 532.978 313.049C525.877 311.378 518.775 315.823 517.117 322.978Z" fill="#341300"/>
<path d="M542.835 329.031C543.156 327.648 543.247 326.265 543.139 324.92C540.267 329.743 534.54 332.376 528.812 331.028C523.084 329.68 519.108 324.764 518.654 319.158C517.966 320.315 517.439 321.595 517.119 322.979C515.46 330.134 519.872 337.289 526.973 338.96C534.075 340.631 541.177 336.186 542.835 329.031Z" fill="#8F3600"/>
<path d="M452.012 338.869C446.596 362.23 461.002 385.592 484.19 391.049C507.378 396.506 530.566 381.991 535.983 358.63C541.399 335.268 526.992 311.906 503.805 306.449C480.617 300.992 457.429 315.507 452.012 338.869Z" fill="#8F3600"/>
<path d="M535.991 358.629C536.301 357.291 536.543 355.954 536.725 354.62C529.755 375.654 507.897 388.262 486.037 383.117C464.177 377.973 450.124 356.915 453.125 334.946C452.702 336.223 452.33 337.53 452.02 338.868C446.604 362.23 461.01 385.591 484.198 391.048C507.386 396.505 530.574 381.991 535.991 358.629Z" fill="#341300"/>
<path d="M496.14 365.983C495.04 370.728 497.966 375.474 502.676 376.582C507.386 377.691 512.096 374.742 513.197 369.997C514.297 365.252 511.37 360.506 506.66 359.398C501.95 358.289 497.24 361.238 496.14 365.983Z" fill="#341300"/>
<path d="M513.206 369.996C513.537 368.565 513.501 367.135 513.162 365.803C511.102 368.217 507.814 369.424 504.524 368.65C501.234 367.875 498.817 365.326 498.032 362.243C497.143 363.285 496.481 364.551 496.149 365.982C495.049 370.727 497.975 375.472 502.685 376.581C507.395 377.689 512.105 374.741 513.206 369.996Z" fill="white"/>
<path d="M475.33 328.409C474.585 331.622 476.566 334.834 479.755 335.585C482.943 336.335 486.132 334.339 486.877 331.127C487.621 327.914 485.64 324.702 482.452 323.951C479.263 323.201 476.075 325.197 475.33 328.409Z" fill="white"/>
<path d="M448.314 368.345C447.298 372.726 450 377.107 454.348 378.13C458.696 379.153 463.045 376.432 464.061 372.051C465.076 367.67 462.375 363.289 458.026 362.266C453.678 361.242 449.33 363.964 448.314 368.345Z" fill="#8F3600"/>
<path d="M464.064 372.05C464.399 370.604 464.328 369.16 463.928 367.835C462.017 369.885 459.105 370.882 456.191 370.197C453.277 369.511 451.105 367.317 450.293 364.626C449.352 365.635 448.652 366.898 448.317 368.344C447.301 372.725 450.003 377.106 454.351 378.129C458.7 379.152 463.049 376.431 464.064 372.05Z" fill="#341300"/>
<path d="M500.489 320.759C498.315 320.248 496.964 318.058 497.472 315.867L499.563 306.848C500.627 302.257 500.634 297.475 499.532 292.893C499.203 291.527 499.222 290.051 499.664 288.59C500.836 284.72 504.749 282.28 508.71 282.947C513.361 283.731 516.32 288.283 515.264 292.836C514.978 294.069 514.428 295.171 513.688 296.094C510.718 299.8 508.51 304.064 507.435 308.703L505.344 317.72C504.836 319.91 502.662 321.271 500.489 320.759Z" fill="#341300"/>
<path d="M521.782 355.288C521.274 357.478 522.624 359.668 524.799 360.18L533.75 362.286C538.308 363.359 542.566 365.471 546.155 368.497C547.225 369.399 548.546 370.036 550.042 370.283C554.005 370.939 557.91 368.486 559.071 364.612C560.434 360.065 557.694 355.375 553.175 354.312C551.951 354.024 550.727 354.033 549.577 354.292C544.964 355.333 540.191 355.438 535.588 354.355L526.637 352.249C524.464 351.737 522.29 353.098 521.782 355.288Z" fill="#8F3600"/>
<path d="M550.041 370.282C554.004 370.937 557.909 368.484 559.07 364.611C559.555 362.993 559.518 361.358 559.069 359.874C557.272 361.793 554.59 362.799 551.88 362.35C550.384 362.103 549.063 361.466 547.993 360.563C544.403 357.538 540.145 355.426 535.588 354.353L526.636 352.247C524.462 351.735 522.288 353.096 521.781 355.286C521.273 357.476 522.623 359.666 524.797 360.178L533.749 362.285C538.306 363.357 542.565 365.469 546.154 368.495C547.224 369.397 548.545 370.034 550.041 370.282Z" fill="#341300"/>
<path d="M488.478 408.371C488.764 407.138 488.755 405.906 488.498 404.748C488.452 404.543 488.411 404.338 488.369 404.132C486.348 406.321 483.189 407.322 480.096 406.381C477.451 405.576 475.474 403.463 474.71 400.922C474.609 401.048 474.508 401.176 474.405 401.301C473.51 402.379 472.878 403.71 472.632 405.216C471.981 409.207 474.415 413.14 478.258 414.309C482.77 415.681 487.423 412.922 488.478 408.371Z" fill="#341300"/>
<defs>
<linearGradient id="paint0_linear" x1="54.7361" y1="517.571" x2="100.543" y2="643.85" gradientUnits="userSpaceOnUse">
<stop stop-color="#FFD8D8"/>
<stop offset="1" stop-color="#FFF8F8"/>
</linearGradient>
<linearGradient id="paint1_linear" x1="650.892" y1="197.015" x2="246.853" y2="-20.9898" gradientUnits="userSpaceOnUse">
<stop stop-color="#FFF8F8"/>
<stop offset="1" stop-color="#FFCFCF"/>
</linearGradient>
<linearGradient id="paint2_linear" x1="633.542" y1="137.859" x2="487.845" y2="86.9509" gradientUnits="userSpaceOnUse">
<stop stop-color="#FFD7D7"/>
<stop offset="1" stop-color="#FFF9F9"/>
</linearGradient>
<linearGradient id="paint3_linear" x1="627.618" y1="541.537" x2="35.4919" y2="250.554" gradientUnits="userSpaceOnUse">
<stop stop-color="#FFCFCF"/>
<stop offset="1" stop-color="#FFF8F8"/>
</linearGradient>
</defs>
</svg>
