<svg width="542" height="763" viewBox="0 0 542 763" fill="none" xmlns="http://www.w3.org/2000/svg">
<g filter="url(#filter0_d)">
<rect x="58" y="33" width="426" height="647" rx="20" fill="#3E64FF"/>
</g>
<mask id="mask0" mask-type="alpha" maskUnits="userSpaceOnUse" x="58" y="33" width="426" height="647">
<rect x="58" y="33" width="426" height="647" rx="20" fill="#3E64FF"/>
</mask>
<g mask="url(#mask0)">
<path fill-rule="evenodd" clip-rule="evenodd" d="M125.367 580.121L131.206 588.363C131.206 588.363 127.894 588.659 124.683 588.963C123.563 589.063 122.451 589.166 121.502 589.257C118.975 589.498 112.117 587.894 108.066 586.869C108.051 586.861 108.043 586.861 108.035 586.861C106.2 586.391 104.948 586.041 104.948 586.041C104.948 586.041 102.88 583.091 101.154 580.564C100.82 580.075 100.501 579.605 100.205 579.173C99.7778 578.536 99.319 577.477 98.8681 576.223C97.4374 572.222 96.1389 566.165 96.3721 565.078C96.6676 563.649 109.233 531.982 117.902 514.016C118.765 512.228 119.621 510.559 120.468 508.992C127.132 496.63 132.956 491.053 132.956 491.053C133.002 491.523 133.041 492.002 133.072 492.5C133.881 505.618 129.356 529.328 125.654 545.958C123.252 556.789 121.199 564.644 121.199 564.644C121.199 564.644 121.184 564.625 121.168 564.598C121.121 564.534 121.036 564.423 120.919 564.256C120.88 564.193 120.826 564.127 120.771 564.054C120.67 563.925 120.569 563.769 120.437 563.602C120.336 563.455 120.227 563.308 120.118 563.16L118.493 570.433L125.359 580.112L125.367 580.121Z" fill="#00CCB2"/>
<path fill-rule="evenodd" clip-rule="evenodd" d="M127.86 509L125.653 545.961C123.254 556.794 121.196 564.639 121.196 564.639C118.926 561.296 116.367 558.707 113.862 556.704C116.772 545.655 123.734 519.679 127.86 509" fill="#00A48F"/>
<path fill-rule="evenodd" clip-rule="evenodd" d="M132.955 491.049C132.955 491.049 124.501 497.479 117.902 514.014C117.9 514.019 117.898 514.026 117.895 514.031C114.318 521.447 110.08 531.188 106.313 540.176C103.936 545.183 102.113 548.866 101.558 549.981C102.008 549.118 103.281 546.667 104.977 543.379C100.238 554.798 96.5306 564.309 96.372 565.078C96.1388 566.165 97.4373 572.222 98.8679 576.223C99.0623 576.379 99.179 576.462 99.179 576.462C99.179 576.462 97.5694 566.828 97.7716 564.93C97.9738 563.021 106.706 541.966 107.304 540.777C107.539 540.311 109.638 535.333 112.104 529.456C116.01 521.75 119.748 514.219 120.866 511.463C122.774 506.741 127.359 499.329 131.591 494.225C131.602 494.213 131.602 494.2 131.602 494.2C132.103 493.601 132.593 493.027 133.073 492.503C133.041 492.005 132.998 491.521 132.955 491.049" fill="#00DABE"/>
<path fill-rule="evenodd" clip-rule="evenodd" d="M131.206 588.363C131.206 588.363 127.894 588.658 124.682 588.962C121.619 588.501 117.669 587.939 116.433 587.884C115.01 587.81 111.052 587.285 108.066 586.87C108.051 586.861 108.043 586.861 108.035 586.861C106.2 586.39 104.948 586.04 104.948 586.04C104.948 586.04 102.88 583.09 101.154 580.564C101.737 580.767 103.728 581.431 105.5 581.938C107.608 582.528 109.816 583.007 109.816 583.007C109.816 583.007 106.706 580.15 106.099 578.841C105.5 577.541 104.995 574.323 104.995 574.323L112.522 575.872C112.522 575.872 109.108 570.277 107.903 569.087C106.706 567.898 103.494 565.999 103.494 565.999L101.683 565.289C101.683 565.289 104.497 564.93 105.601 565.4C106.706 565.879 108.408 566.479 108.408 566.479L110.718 558.265C110.718 558.265 112.724 567.898 115.329 571.235C117.692 574.241 124.138 579.191 125.359 580.113L125.367 580.122L131.206 588.363Z" fill="#00A48F"/>
<path fill-rule="evenodd" clip-rule="evenodd" d="M192.659 703.094L146.165 706.627L142.05 706.934L110.396 709.345L112.123 673.303L112.188 671.784L112.326 668.952L133.179 668.39L189.29 666.873L190.815 683.305L192.659 703.094Z" fill="#00CCB2"/>
<path fill-rule="evenodd" clip-rule="evenodd" d="M190.815 683.306C179.694 683.025 146.165 680.703 146.165 680.703V706.628L142.05 706.935L143.233 684.658C141.741 683.841 120.077 676.123 112.123 673.303C110.312 672.652 109.213 672.269 109.213 672.269L112.188 671.784L133.179 668.39L189.29 666.873L190.815 683.306Z" fill="#00A48F"/>
<path fill-rule="evenodd" clip-rule="evenodd" d="M203.533 486.852C203.533 486.852 201.913 502.365 199.919 522.09C197.594 545.183 194.759 574.055 193.415 590.564C192.84 597.723 192.477 607.967 192.253 619.475C191.934 636.24 191.923 655.684 192.018 672.129C182.158 672.588 159.001 673.749 148.212 674.771C136.836 675.854 116.324 673.252 109.213 672.27C111.367 646.357 114.32 615.022 115.631 593.536C115.717 592.057 115.823 590.539 115.94 588.995C116.015 588.102 116.079 587.184 116.153 586.265C116.804 578.533 117.753 570.125 118.894 561.603C122.625 533.459 128.328 504.139 131.591 494.226C131.602 494.213 131.602 494.201 131.602 494.201C132.124 492.632 132.582 491.547 132.955 491.049C135.621 487.515 143.798 483.126 148.212 480.932C148.223 480.919 148.233 480.919 148.233 480.919C149.971 480.051 151.123 479.528 151.123 479.528L186.816 476.236L203.533 486.852Z" fill="#00CCB2"/>
<path fill-rule="evenodd" clip-rule="evenodd" d="M133.073 492.503C134.075 491.406 135.024 490.487 135.898 489.798C140.653 486.061 147.775 481.237 148.212 480.931C143.798 483.125 135.621 487.515 132.955 491.049C132.583 491.547 132.124 492.632 131.602 494.201C132.102 493.6 132.593 493.026 133.073 492.503" fill="#00DABE"/>
<path fill-rule="evenodd" clip-rule="evenodd" d="M175.675 538.625L157.519 573.775L127.326 582.892L131.206 588.363C131.206 588.363 125.188 588.898 121.502 589.257C120.34 589.368 118.265 589.088 115.967 588.654C115.958 588.767 115.95 588.884 115.94 588.995C122.87 591.967 137.786 598.181 142.721 598.717C142.721 598.717 154.832 603.157 163.084 607.967C169.364 611.642 185.1 617.077 192.253 619.475C192.477 607.967 192.84 597.722 193.415 590.564C194.759 574.055 197.594 545.183 199.919 522.089L175.675 538.625Z" fill="#00A48F"/>
<path fill-rule="evenodd" clip-rule="evenodd" d="M169.926 523.836L158.395 522.397L159.387 518.754L170.919 520.192L169.926 523.836Z" fill="white"/>
<path fill-rule="evenodd" clip-rule="evenodd" d="M120.398 550.881C120.103 552.872 119.815 554.881 119.535 556.882C119.31 558.458 119.1 560.035 118.89 561.602C118.758 562.607 118.625 563.612 118.501 564.608C118.244 566.561 118.011 568.506 117.778 570.433L113.859 575.992C113.859 575.992 111.495 573.466 110.516 571.411C110.212 570.774 109.894 569.88 109.614 568.95C108.984 566.913 108.486 564.718 108.486 564.718C108.486 564.718 109.909 555.176 110.741 553.748C111.565 552.32 116.837 551.157 117.591 550.982C117.747 550.945 117.988 550.917 118.268 550.908C118.921 550.862 119.807 550.871 120.398 550.881" fill="#58BAD3"/>
<path fill-rule="evenodd" clip-rule="evenodd" d="M119.535 556.882C119.31 558.458 119.1 560.035 118.89 561.602C118.758 562.607 118.625 563.612 118.501 564.608L115.935 565.437C115.935 564.985 117.21 561.869 117.21 561.869C117.21 561.869 117.817 558.745 118.416 558.118C118.75 557.767 119.154 557.287 119.535 556.882" fill="#0099B8"/>
<path fill-rule="evenodd" clip-rule="evenodd" d="M118.268 550.909C116.137 551.794 112.506 553.379 111.721 554.19C110.594 555.352 109.684 560.524 109.614 561.602C109.544 562.616 109.606 568.322 109.614 568.949C108.984 566.912 108.486 564.717 108.486 564.717C108.486 564.717 109.909 555.177 110.741 553.748C111.566 552.319 116.837 551.158 117.591 550.982C117.747 550.946 117.988 550.918 118.268 550.909" fill="#85E4E0"/>
<path fill-rule="evenodd" clip-rule="evenodd" d="M214.155 513.767C212.126 525.77 200.455 550.171 193.736 563.528L193.728 563.538C190.922 569.133 188.978 572.793 188.978 572.793C188.978 572.793 179.282 587.829 175.597 591.571C171.919 595.323 155.217 600.67 152.807 601.205C150.397 601.739 139.713 596.927 135.048 594.07C130.383 591.212 116.69 583.007 115.034 580.509C113.378 578.01 113.409 574.886 113.409 574.886C113.409 574.886 113.416 573.604 113.549 571.954C113.728 569.779 114.132 566.976 115.057 565.732C116.69 563.556 119.046 563.16 119.046 563.16C119.046 563.16 123.159 562.948 124.963 563.787C126.767 564.635 140.086 568.912 142.831 569.713C143.251 569.834 143.819 570.055 144.48 570.313C147.853 571.687 153.638 574.553 154.261 574.867C154.3 574.877 154.315 574.886 154.315 574.886C159.051 572.148 159.432 569.327 159.354 568.166C159.556 567.852 159.758 567.539 159.96 567.215C160.8 566.709 162.106 565.741 162.293 564.635C162.379 564.137 162.285 563.75 162.106 563.464C162.564 562.569 162.962 561.676 163.273 560.809C163.273 560.809 163.281 560.809 163.281 560.8C163.319 560.762 163.358 560.717 163.389 560.68C163.941 560.034 165.737 558.717 164.626 557.14C164.508 556.956 164.329 556.827 164.105 556.744C164.105 556.744 164.074 556.661 164.035 556.486C163.895 555.868 163.669 554.107 164.626 551.305C164.626 551.305 169.361 535.255 175.215 520.948L175.224 520.93C177.836 514.551 180.673 508.503 183.411 504.392C186.521 499.709 189.966 496.151 193.13 493.505C194.46 492.389 195.742 491.44 196.925 490.629H196.94C200.945 487.899 203.836 486.849 203.836 486.849C203.836 486.849 204.965 487.697 206.489 489.319C208.557 491.514 211.363 495.146 213.059 500.041C214.396 503.866 215.056 508.476 214.155 513.767" fill="#00CCB2"/>
<path fill-rule="evenodd" clip-rule="evenodd" d="M153.988 574.877C153.343 574.683 140.179 570.627 138.811 570.396C137.403 570.166 129.379 566.829 126.766 565.787C124.162 564.745 121.199 564.635 121.199 564.635L124.255 568.848C124.092 568.737 121.526 566.93 120.857 566.377C120.173 565.806 117.234 565.4 115.943 566.377C114.645 567.354 113.245 571.954 113.245 571.954C113.424 569.779 113.828 566.976 114.753 565.732C116.386 563.556 118.742 563.16 118.742 563.16C118.742 563.16 122.855 562.948 124.659 563.787C126.463 564.635 139.783 568.912 142.527 569.713C145.194 570.498 153.475 574.618 153.988 574.877" fill="#00DABE"/>
<path fill-rule="evenodd" clip-rule="evenodd" d="M193.131 493.504C193.131 493.504 177.836 516.044 173.824 529.126C169.812 542.206 164.983 558.099 164.983 558.099C164.983 558.099 164.579 557.473 164.035 556.485C163.895 555.868 163.669 554.107 164.626 551.304C164.626 551.304 169.361 535.255 175.215 520.949L175.224 520.929C177.836 514.55 180.673 508.504 183.411 504.392C186.521 499.708 189.966 496.15 193.131 493.504" fill="#00DABE"/>
<path fill-rule="evenodd" clip-rule="evenodd" d="M213.059 500.041L207.336 527.843L193.736 563.528L193.729 563.538C193.356 564.073 181.428 581.164 176.032 587.884C170.551 594.714 158.973 597.029 154.261 597.333C149.549 597.637 142.831 594.549 142.831 594.549C142.831 594.549 156.772 592.17 162.791 590.502C168.809 588.833 179.842 574.885 179.842 574.885L201.365 522.295C201.365 522.295 207.305 498.354 206.489 489.319C208.557 491.514 211.363 495.145 213.059 500.041" fill="#00A48F"/>
<path fill-rule="evenodd" clip-rule="evenodd" d="M154.011 574.885C154.011 574.885 159.373 573.56 161.746 569.719C164.12 565.876 164.326 562.047 164.326 562.047C164.326 562.047 165.554 559.447 164.676 558.094C163.798 556.742 156.485 562.047 156.485 562.047L154.011 574.885Z" fill="#00A48F"/>
<path fill-rule="evenodd" clip-rule="evenodd" d="M163.085 560.68C163.054 560.717 163.015 560.763 162.976 560.8C162.976 560.81 162.969 560.81 162.969 560.81C162.308 561.501 160.636 562.625 160.636 562.625C160.636 562.625 161.421 562.8 161.802 563.465C161.981 563.75 162.074 564.137 161.989 564.635C161.802 565.741 160.496 566.709 159.656 567.216C159.252 567.465 158.957 567.604 158.957 567.604C158.957 567.604 159.027 567.806 159.05 568.165C159.128 569.327 158.747 572.148 154.011 574.885C154.011 574.885 153.996 574.876 153.957 574.868C153.389 574.581 148.545 572.176 145.132 570.71C144.797 570.571 144.479 570.433 144.175 570.313C144.207 570.267 144.245 570.23 144.284 570.185L144.58 569.835C144.681 569.714 144.782 569.585 144.899 569.457L145.171 569.133C145.738 568.469 146.391 567.713 147.099 566.912C147.317 566.663 147.534 566.415 147.76 566.165C148.071 565.824 148.382 565.473 148.693 565.132C148.841 564.966 148.988 564.81 149.136 564.644C149.323 564.45 149.502 564.247 149.688 564.054C149.991 563.732 150.295 563.408 150.59 563.095C150.785 562.892 150.979 562.699 151.173 562.497C151.422 562.247 151.655 562.007 151.889 561.786C151.912 561.768 151.935 561.74 151.959 561.721C152.106 561.575 152.246 561.436 152.394 561.308C153.234 560.506 153.988 559.878 154.556 559.538C155.59 558.91 156.943 558.246 158.319 557.711C160.481 556.845 162.704 556.311 163.801 556.743C164.026 556.826 164.205 556.955 164.322 557.14C165.433 558.716 163.637 560.034 163.085 560.68" fill="#58BAD3"/>
<path fill-rule="evenodd" clip-rule="evenodd" d="M158.319 557.712C156.881 558.541 155.162 559.611 154.011 560.606C152.192 562.183 147.278 568.101 145.132 570.71C144.798 570.571 144.479 570.433 144.176 570.313C144.207 570.267 144.246 570.23 144.284 570.184L144.58 569.834C144.681 569.714 144.782 569.585 144.899 569.456L145.171 569.133C145.738 568.47 146.392 567.714 147.099 566.912C147.317 566.663 147.535 566.414 147.76 566.165C148.071 565.824 148.382 565.474 148.693 565.133C148.841 564.967 148.989 564.81 149.136 564.644C149.323 564.45 149.502 564.248 149.688 564.054C149.992 563.731 150.295 563.409 150.59 563.095C150.785 562.892 150.979 562.699 151.173 562.496C151.414 562.256 151.656 562.017 151.889 561.786C151.912 561.768 151.935 561.74 151.959 561.722C152.106 561.574 152.246 561.436 152.394 561.307C153.234 560.505 153.988 559.878 154.556 559.537C155.59 558.91 156.943 558.246 158.319 557.712" fill="#85E4E0"/>
<path fill-rule="evenodd" clip-rule="evenodd" d="M181.379 474.756C168.18 484.798 154.832 483.483 154.832 483.483C155.259 481.187 155.515 479.081 155.643 477.181C156.176 469.219 154.556 464.715 154.556 464.715L177.53 459.778C177.467 462.023 177.615 464.001 177.882 465.724C178.852 471.924 181.379 474.756 181.379 474.756" fill="#B57E65"/>
<path fill-rule="evenodd" clip-rule="evenodd" d="M177.882 465.724C174.439 472.243 166.432 483.866 155.643 477.181C156.176 469.219 154.556 464.715 154.556 464.715L177.53 459.778C177.467 462.023 177.615 464.001 177.882 465.724" fill="#6F4C3C"/>
<path fill-rule="evenodd" clip-rule="evenodd" d="M186.816 476.239C186.816 476.239 155.862 506.365 148.226 520.929C148.226 520.929 148.335 490.481 151.103 479.576C151.111 479.557 151.119 479.548 151.119 479.53L155.061 478.211L155.201 477.032L155.598 473.722C155.598 473.722 155.598 473.713 155.605 473.704L155.722 472.699V472.671L155.73 472.634C155.73 472.634 159.4 476.248 165.667 475.243C167.626 474.93 169.593 474.1 171.382 473.114C171.506 473.049 171.631 472.985 171.747 472.911C171.98 472.782 172.206 472.643 172.431 472.505C172.602 472.404 172.773 472.301 172.937 472.192C173.069 472.109 173.193 472.026 173.326 471.943C173.52 471.814 173.707 471.685 173.893 471.556C174.049 471.454 174.204 471.343 174.352 471.242C174.414 471.196 174.476 471.159 174.539 471.112C176.825 469.482 178.341 468.007 178.341 468.007L181.381 474.755L186.816 476.239Z" fill="white"/>
<path fill-rule="evenodd" clip-rule="evenodd" d="M174.539 471.113C170.402 476.755 163.179 481.668 155.201 477.032L155.598 473.722C155.598 473.722 155.598 473.712 155.605 473.704C155.683 473.381 155.73 473.05 155.722 472.699V472.671L155.73 472.634C155.73 472.634 159.4 476.248 165.667 475.243C167.626 474.93 169.593 474.1 171.382 473.114C171.506 473.05 171.623 472.984 171.747 472.91C171.98 472.782 172.206 472.643 172.431 472.506C172.603 472.403 172.774 472.302 172.937 472.192C173.069 472.108 173.201 472.025 173.326 471.942C173.52 471.814 173.707 471.684 173.893 471.555C174.049 471.454 174.204 471.353 174.352 471.243C174.414 471.197 174.476 471.16 174.539 471.113" fill="#D0D0D0"/>
<path fill-rule="evenodd" clip-rule="evenodd" d="M187.328 427.748C187.06 422.151 185.861 416.406 182.96 411.901C179.792 406.983 175.039 404.8 170.031 403.962C164.009 402.956 157.011 403.753 151.957 408.15C149.534 410.258 146.73 412.7 145.424 416.026C143.786 420.2 144.474 425.641 144.734 430.06C144.735 430.078 144.742 430.09 144.743 430.107C144.734 431.118 144.739 432.129 144.733 433.126C144.711 437.265 144.398 441.391 144.681 445.529C145.158 452.503 147.56 458.916 151.123 464.416C154.088 468.993 158.388 473.515 163.524 473.427C168.964 473.332 174.221 468.294 177.497 463.491C181.147 458.141 183.625 451.594 185.413 445.064C186.927 439.531 187.605 433.563 187.328 427.748" fill="#B57E65"/>
<path fill-rule="evenodd" clip-rule="evenodd" d="M166.224 444.366C165.759 444 165.225 444.012 164.721 444.19C164.699 443.164 164.689 442.148 164.557 441.13C164.538 440.977 164.32 440.978 164.3 441.13C164.145 442.311 164.116 443.485 164.146 444.683C164.153 444.966 164.385 445.093 164.587 444.984C166.705 443.839 167.042 447.727 165.977 449.111C165.611 449.587 165.151 449.66 164.635 449.703C164.294 449.732 164.233 450.269 164.556 450.408C165.834 450.958 166.863 449.421 167.102 448.086C167.325 446.846 167.195 445.128 166.224 444.366" fill="#3A180F"/>
<path fill-rule="evenodd" clip-rule="evenodd" d="M169.225 457.392C169.097 457.622 168.969 457.851 168.852 458.094C168.245 460.684 165.579 462.074 163.415 461.96C160.633 461.82 158.361 459.74 157.775 456.448C157.732 456.193 157.913 456.028 158.074 456.065C159.086 456.755 161.261 457.979 164.14 458.004C166.688 458.03 168.35 457.545 169.236 457.175H169.246C169.278 457.239 169.278 457.315 169.225 457.392" fill="white"/>
<path fill-rule="evenodd" clip-rule="evenodd" d="M174.085 433.608C174.027 433.368 173.828 433.165 173.611 433.175C173.415 433.186 173.167 433.348 173.137 433.608C173.104 433.891 173.045 434.162 173.034 434.448C173.026 434.714 173.004 434.978 172.985 435.243C172.947 435.764 172.909 436.286 172.915 436.81C172.92 437.159 173.169 437.494 173.474 437.477C173.782 437.461 174.024 437.184 174.032 436.81C174.042 436.284 174.105 435.766 174.151 435.243C174.173 434.988 174.191 434.732 174.2 434.475C174.211 434.177 174.154 433.892 174.085 433.608" fill="#3A180F"/>
<path fill-rule="evenodd" clip-rule="evenodd" d="M177.188 426.921C176.803 426.558 176.281 426.36 175.817 426.188C175.263 425.982 174.697 425.86 174.118 425.819C173.116 425.747 171.953 425.868 171.179 426.714C171.013 426.896 171.231 427.242 171.422 427.091C172.213 426.462 173.237 426.442 174.144 426.62C174.629 426.714 175.116 426.852 175.585 427.028C176.022 427.192 176.412 427.455 176.836 427.644C177.165 427.79 177.469 427.187 177.188 426.921" fill="#3A180F"/>
<path fill-rule="evenodd" clip-rule="evenodd" d="M157.458 431.852C157.552 431.63 157.779 431.472 157.99 431.53C158.182 431.584 158.4 431.797 158.391 432.059C158.381 432.344 158.398 432.624 158.363 432.909C158.332 433.171 158.313 433.436 158.291 433.7C158.251 434.219 158.207 434.743 158.122 435.255C158.064 435.598 157.768 435.872 157.472 435.79C157.171 435.707 156.975 435.382 157.024 435.012C157.094 434.493 157.111 433.97 157.145 433.446C157.162 433.191 157.184 432.935 157.214 432.68C157.248 432.385 157.346 432.117 157.458 431.852" fill="#3A180F"/>
<path fill-rule="evenodd" clip-rule="evenodd" d="M155.424 424.602C155.858 424.329 156.401 424.247 156.883 424.179C157.459 424.097 158.034 424.1 158.61 424.186C159.606 424.333 160.731 424.706 161.363 425.707C161.499 425.922 161.232 426.215 161.068 426.024C160.386 425.234 159.381 424.991 158.463 424.968C157.972 424.956 157.471 424.985 156.983 425.056C156.529 425.121 156.106 425.297 155.659 425.39C155.315 425.462 155.107 424.803 155.424 424.602" fill="#3A180F"/>
<path fill-rule="evenodd" clip-rule="evenodd" d="M145.589 444.146C145.441 443.306 145.25 442.651 145.22 441.767C145.197 441.102 144.937 440.551 144.881 439.915C144.818 439.203 145.297 438.71 145.398 438.019C145.457 437.62 145.414 437.183 145.344 436.789C145.241 436.211 145.033 435.608 144.611 435.371C145.004 434.767 145.223 434.092 145.167 433.309C145.11 432.505 144.835 431.739 144.823 430.928C144.809 430.06 145.145 429.241 145.225 428.383C145.333 427.252 145.082 426.14 145.048 425.015C145.043 424.863 144.92 424.824 144.834 424.879C144.729 424.725 144.534 424.657 144.378 424.839C143.742 425.577 143.252 426.021 142.988 427.067C142.673 428.307 142.461 429.614 142.273 430.89C141.888 433.511 141.734 436.156 142.003 438.805C142.191 440.653 142.565 442.494 143.002 444.282C143.275 445.403 143.684 447.301 144.816 447.599C144.969 447.64 145.1 447.57 145.187 447.42C145.723 446.499 145.777 445.215 145.589 444.146" fill="#3A180F"/>
<path fill-rule="evenodd" clip-rule="evenodd" d="M189.067 433.826C188.855 433.148 188.289 432.092 187.554 432.256C186.521 432.485 186.837 434.361 186.603 435.182C186.402 435.888 185.986 436.374 185.942 437.152C185.886 438.168 186.105 439.123 185.977 440.151C185.859 441.107 185.665 441.981 185.299 442.849C185.032 443.484 184.747 444.1 184.685 444.819C184.593 445.886 185.159 446.883 184.756 447.899C184.574 448.358 184.39 448.818 184.254 449.301C184.053 450.015 183.975 450.884 184.509 451.194C184.563 451.36 184.7 451.489 184.864 451.412C185.746 450.994 186.133 449.699 186.526 448.765C187.13 447.335 187.543 446.017 187.773 444.425C188.043 442.558 188.427 440.763 188.815 438.928C189.146 437.364 189.561 435.402 189.067 433.826" fill="#3A180F"/>
<path fill-rule="evenodd" clip-rule="evenodd" d="M182.256 452.916C182.731 450.124 182.895 447.561 182.832 446.118C183.449 445.057 186.368 439.96 187.876 436.059L186.957 435.56C185.703 438.804 183.37 443.031 182.367 444.797C181.033 444.216 174.912 442.129 167.1 440.805C159.641 439.542 149.36 440.235 147.093 440.411C146.303 438.801 144.426 434.706 143.511 430.371L142.531 430.662C143.616 435.811 145.938 440.488 146.488 441.552C146.317 443.015 146.065 445.814 146.127 449.176C145.205 445.952 144.272 442.581 143.81 440.587L142.835 440.905C143.525 443.882 146.239 454.22 146.257 454.365C147.159 461.681 151.9 467.569 151.9 467.569C151.9 467.569 156.565 473.457 162.886 474.171C169.207 474.884 177.882 465.724 180.343 459.896C180.581 459.333 180.795 458.735 180.995 458.125L181.01 458.137C181.162 457.814 184.723 450.223 185.774 447.285L186.062 444.373C185.57 445.75 183.264 450.68 182.256 452.916" fill="white"/>
<path fill-rule="evenodd" clip-rule="evenodd" d="M192.982 434.212C190.3 447.422 182.609 454.667 182.609 454.667C185.688 448.399 187.57 435.797 186.816 431.52C186.583 430.201 186.389 428.929 186.069 427.676V427.666C185.331 424.826 183.908 422.061 179.741 418.982C179.025 418.447 178.31 417.978 177.586 417.572C172.252 414.521 166.624 414.632 158.272 416.365C148.787 418.328 146.182 422.016 144.525 429.326C144.517 429.362 144.51 429.399 144.502 429.436C142.931 436.608 145.226 450.14 145.334 450.777C141.501 444.803 139.914 438.35 139.41 430.662C139.184 427.288 139.169 423.666 139.262 419.748C139.557 406.906 146.182 396.738 156.414 391.382C164.439 387.178 175.153 387.151 183.761 393.798C186.124 395.623 188.333 397.955 190.277 400.841C191.541 402.705 192.493 404.712 193.207 406.764L193.223 406.787L193.402 407.303L193.464 407.487C197.484 419.978 192.982 434.212 192.982 434.212" fill="#00CCB2"/>
<path fill-rule="evenodd" clip-rule="evenodd" d="M192.982 434.212C190.3 447.422 182.609 454.667 182.609 454.667C185.688 448.399 187.57 435.797 186.816 431.52C186.583 430.201 186.389 428.93 186.069 427.676V427.666C186.069 427.666 189.374 428.818 189.872 425.804C190.377 422.781 188.488 417.793 187.874 413.866C187.267 409.939 188.169 409.459 188.868 407.321C189.576 405.183 189.919 404.113 189.297 402.565C188.705 401.117 187.975 399.458 187.881 399.255L193.224 406.787L193.402 407.303L193.464 407.487C197.484 419.978 192.982 434.212 192.982 434.212" fill="#00A48F"/>
<path fill-rule="evenodd" clip-rule="evenodd" d="M148.511 459.778C148.511 459.778 152.144 463.406 154.555 464.209C156.967 465.012 161.554 459.933 165.203 459.014C168.852 458.094 175.86 458.724 177.298 454.672C178.737 450.618 181.379 445.769 181.379 445.769C181.379 445.769 181.641 450.791 180.644 456.06C179.647 461.329 177.508 463.157 173.557 468.248C169.608 473.338 164.534 473.997 160.377 472.743C156.221 471.489 150.174 466.32 148.511 459.778" fill="#F0F0F0"/>
<path fill-rule="evenodd" clip-rule="evenodd" d="M183.76 393.798C182.75 393.531 181.443 393.263 178.738 392.692C173.808 391.65 174.523 390.552 171.118 390.074C167.72 389.593 164.796 390.074 159.672 391.622C154.556 393.17 155.862 394.001 154.556 396.619C153.25 399.236 150.645 401.495 147.138 403.578C143.624 405.652 144.028 406.731 141.866 411.249C139.713 415.765 140.615 417.554 140.412 422.191C140.311 424.559 139.845 427.933 139.409 430.662C139.184 427.288 139.168 423.665 139.262 419.747C139.557 406.907 146.182 396.738 156.414 391.383C164.439 387.178 175.153 387.151 183.76 393.798" fill="#00DABE"/>
<path fill-rule="evenodd" clip-rule="evenodd" d="M177.586 417.572C172.252 414.52 166.623 414.632 158.272 416.364C148.786 418.327 146.181 422.015 144.525 429.326C144.518 429.362 144.51 429.399 144.502 429.436C144.751 427.538 145.077 425.518 145.474 424.118C146.43 420.762 148.942 417.673 151.749 416.245C154.556 414.816 156.064 413.747 159.874 412.907C163.692 412.077 165.597 412.558 168.606 413.267C171.615 413.986 173.699 413.267 175.627 415.405C176.202 416.042 176.894 416.807 177.586 417.572" fill="#00DABE"/>
<path fill-rule="evenodd" clip-rule="evenodd" d="M435.522 568.772C435.445 569.463 435.337 570.323 435.206 571.339C434.345 577.63 432.408 589.643 430.492 600.521C429.24 607.635 427.998 614.266 427.084 618.513C426.55 621.028 426.431 626.147 426.584 632.662C427.127 656.673 431.297 699.536 431.297 699.536C431.297 699.536 411.635 704.239 400.684 703.914C389.721 703.574 345.608 695.835 345.608 695.835C345.608 695.835 347.905 683.745 350.409 669.037C353.785 649.234 357.54 624.689 356.582 618.513C356.135 615.634 355.504 606.905 354.895 595.597C354.578 589.904 354.263 583.559 353.991 576.979C352.891 550.845 352.282 520.945 353.74 513.207C353.763 513.09 353.785 512.984 353.806 512.88C353.948 512.204 354.122 511.721 354.307 511.486L354.317 511.474C355.494 510.04 358.574 508.321 362.254 506.653C362.264 506.653 362.264 506.64 362.276 506.64C362.788 506.406 363.321 506.171 363.855 505.937L363.865 505.923C367.349 504.413 371.16 502.966 374.251 501.846C377.888 500.543 380.533 499.683 380.533 499.683L402.502 502.054L406.965 504.908L422.588 514.887C422.588 514.887 423.72 522.013 425.397 528.072C427.084 534.13 436.359 561.02 435.522 568.772" fill="#EDA1AB"/>
<path fill-rule="evenodd" clip-rule="evenodd" d="M435.206 571.339C434.346 577.63 432.407 589.642 430.492 600.521C429.239 607.635 427.998 614.266 427.084 618.513C426.55 621.027 426.431 626.147 426.583 632.661C417.209 636.18 386.488 647.592 378.094 649.521C371.029 651.136 357.583 662.575 350.409 669.036C353.784 649.234 357.54 624.689 356.582 618.513C355.918 614.175 354.818 596.639 353.991 576.98L366.031 537.309C366.031 537.309 370.06 572.394 369.428 578.804C369.341 579.703 369.276 580.758 369.222 581.865C372.052 583.754 377.212 587.037 379.879 587.741C383.678 588.757 410.373 584.211 410.373 584.211L408.904 591.858L413.737 584.549C413.737 584.549 429.229 577.592 435.206 571.339" fill="#DB909A"/>
<path fill-rule="evenodd" clip-rule="evenodd" d="M422.177 540.166L411.61 540.313L411.197 537.457L421.764 537.308L422.177 540.166Z" fill="#EB8991"/>
<path fill-rule="evenodd" clip-rule="evenodd" d="M421.764 539.802L411.197 539.949L410.784 537.092L421.351 536.945L421.764 539.802Z" fill="white"/>
<path fill-rule="evenodd" clip-rule="evenodd" d="M440.045 616.468C440.045 616.468 437.755 618.048 435.205 616.085C432.656 614.123 431.828 608.414 431.828 608.414L442.513 603.172C442.513 603.172 443.04 605.736 442.889 607.253C442.739 608.769 441.262 614.531 440.045 616.468" fill="#EB8991"/>
<path fill-rule="evenodd" clip-rule="evenodd" d="M446.949 594.732C446.942 594.915 446.933 595.109 446.91 595.293C446.25 605.453 440.449 615.767 440.045 616.468C440.185 616.081 441.351 612.938 441.538 611.269C441.584 610.827 441.615 609.858 441.584 608.615C441.507 604.844 440.892 598.483 438.622 596.16C438.42 595.957 438.21 595.746 437.976 595.533C435.464 593.219 431.461 590.74 429.874 589.781C429.851 589.531 429.82 589.21 429.773 588.896C429.68 588.279 429.525 587.697 429.26 587.744L427.223 565.5L424.066 531.031L422.589 514.89C422.589 514.89 430.504 518.651 435.574 527.98C438.373 533.142 441.499 544.859 443.769 556.991V556.999C443.831 557.469 445.799 572.349 446.631 584.103C446.926 588.315 447.081 592.123 446.949 594.732" fill="#FFAEB7"/>
<path fill-rule="evenodd" clip-rule="evenodd" d="M437.976 595.533C435.465 593.219 431.461 590.74 429.874 589.781C429.851 589.532 429.82 589.21 429.773 588.896C429.68 588.279 429.525 587.697 429.26 587.744L427.223 565.5V552.049L426.438 531.521C426.438 531.521 433.467 545.393 434.796 549.368C436.118 553.34 440.332 576.174 440.535 580.941C440.698 584.959 439.151 592.667 437.976 595.533" fill="#EB8991"/>
<path fill-rule="evenodd" clip-rule="evenodd" d="M412.403 602.228L422.315 546.544L442.05 541.76L432.137 597.444L412.403 602.228Z" fill="#3E5164"/>
<path fill-rule="evenodd" clip-rule="evenodd" d="M442.049 541.76L440.431 540.177L420.697 544.961L410.784 600.645L412.402 602.228L422.315 546.544L442.049 541.76Z" fill="white"/>
<path fill-rule="evenodd" clip-rule="evenodd" d="M441.584 608.614C441.336 608.928 441.079 609.223 440.83 609.481C438.226 612.219 429.695 613.528 429.695 613.528L429.898 590.214C429.898 590.214 429.89 590.039 429.874 589.781C431.6 590.822 436.211 593.68 438.622 596.16C440.892 598.483 441.506 604.844 441.584 608.614" fill="#0099B8"/>
<path fill-rule="evenodd" clip-rule="evenodd" d="M437.09 602.189V602.198C437.02 602.549 436.935 602.927 436.825 603.322C436.74 603.646 436.639 603.977 436.53 604.319C436.467 604.521 436.397 604.734 436.32 604.945C436.219 605.268 436.102 605.59 435.971 605.923C435.901 606.116 435.822 606.31 435.745 606.503C435.651 606.742 435.558 606.973 435.464 607.203C435.363 607.444 435.27 607.674 435.162 607.905C435.053 608.144 434.952 608.375 434.842 608.605C434.842 608.615 434.835 608.615 434.835 608.623C434.727 608.863 434.617 609.093 434.501 609.323C434.369 609.601 434.244 609.85 434.112 610.099C434.073 610.162 434.042 610.236 434.003 610.302C433.887 610.523 433.769 610.726 433.661 610.927C433.521 611.167 433.381 611.398 433.256 611.592C433.186 611.694 433.124 611.786 433.055 611.878C432.992 611.961 432.937 612.043 432.875 612.118C431.103 614.413 415.708 616.154 410.234 613.352C410.234 613.352 408.118 611.804 407.707 609.693C407.683 609.591 407.659 609.471 407.659 609.37C407.411 607.333 408.546 605.055 408.546 605.055C408.546 605.055 407.084 603.821 407.481 602.226C407.512 602.096 407.551 601.959 407.621 601.811C408.406 600.014 408.958 599.387 408.958 599.387L408.951 599.35C408.927 599.202 408.873 598.778 408.951 598.244C409.067 597.368 409.526 596.197 411.073 595.69C411.073 595.69 411.034 594.98 411.291 594.086C411.485 593.458 411.811 592.73 412.411 592.095C412.628 591.855 412.884 591.634 413.181 591.44C413.181 591.44 418.102 593.293 420.909 592.951C420.909 592.951 419.976 592.141 419.361 590.675C419.19 590.251 419.035 589.79 418.942 589.264C418.942 589.264 424.703 589.587 427.083 589.264C427.97 589.136 428.91 589.384 429.836 589.79C431.041 590.334 432.207 591.164 433.124 591.911H433.132C433.444 592.169 433.723 592.408 433.972 592.63C434.485 593.054 434.898 593.828 435.27 594.721C435.496 595.275 435.706 595.874 435.893 596.483C436.343 597.893 436.709 599.313 437.09 600.179C437.276 600.603 437.254 601.313 437.09 602.189" fill="#58BAD3"/>
<path fill-rule="evenodd" clip-rule="evenodd" d="M429.838 589.787C428.162 589.422 426.191 589.669 425.495 589.761C424.602 589.89 422.229 589.761 421.444 589.761C420.65 589.761 418.941 589.266 418.941 589.266C418.941 589.266 424.7 589.591 427.084 589.266C427.966 589.135 428.913 589.383 429.838 589.787" fill="#85E4E0"/>
<path fill-rule="evenodd" clip-rule="evenodd" d="M420.063 604.221C420.063 604.221 418.864 605.485 418.102 605.655C417.329 605.823 408.544 605.055 408.544 605.055C408.544 605.055 407.085 603.818 407.476 602.228C408.228 602.619 409.905 603.401 411.429 603.466C413.465 603.544 416.644 603.531 417.656 603.662C418.657 603.804 420.063 604.221 420.063 604.221" fill="#0099B8"/>
<path fill-rule="evenodd" clip-rule="evenodd" d="M417.504 599.727C417.504 599.727 415.641 599.975 414.509 600.065C413.389 600.144 408.958 599.388 408.958 599.388L408.947 599.349C408.925 599.206 408.871 598.776 408.947 598.242C409.938 598.502 412.366 599.114 413.226 599.218C414.336 599.349 417.504 599.727 417.504 599.727" fill="#0099B8"/>
<path fill-rule="evenodd" clip-rule="evenodd" d="M413.737 596.482L411.07 595.688C411.07 595.688 411.037 594.984 411.287 594.085L413.737 596.482Z" fill="#0099B8"/>
<path fill-rule="evenodd" clip-rule="evenodd" d="M429.316 592.157C429.316 592.157 424.972 593.368 420.911 592.952C420.911 592.952 419.975 592.144 419.365 590.673C419.409 590.685 419.583 590.699 420.258 590.673C421.314 590.646 423.415 592.027 424.678 592.157C425.941 592.288 429.316 592.157 429.316 592.157" fill="#0099B8"/>
<path fill-rule="evenodd" clip-rule="evenodd" d="M425.625 592.861C424.635 593.03 419.921 593.761 417.994 593.487C416.404 593.252 413.716 592.483 412.409 592.092C412.626 591.858 412.888 591.637 413.182 591.441C413.182 591.441 418.103 593.291 420.912 592.952C422.719 593.135 424.972 592.925 425.625 592.861" fill="#85E4E0"/>
<path fill-rule="evenodd" clip-rule="evenodd" d="M437.09 600.179C436.709 599.313 436.343 597.894 435.893 596.482C435.706 595.874 435.496 595.276 435.27 594.722C434.898 593.827 434.485 593.054 433.972 592.63C433.723 592.408 433.444 592.169 433.132 591.91H433.124C432.985 591.938 432.603 592.537 432.503 593.035C432.402 593.543 431.178 597.174 431.178 597.174H431.181C430.738 598.505 430.555 600.142 429.75 602.023C428.086 605.96 424.384 607.877 424.346 607.895C423.164 608.402 422.317 608.679 422.317 608.586C422.317 608.338 421.795 602.226 421.795 602.226L419.711 606.825C419.711 606.825 414.65 609.942 413.203 610.264C412.217 610.504 409.347 609.821 407.659 609.371C407.659 609.471 407.684 609.591 407.707 609.692C408.118 611.803 410.234 613.352 410.234 613.352C415.708 616.155 431.103 614.412 432.875 612.117C432.937 612.043 432.992 611.96 433.055 611.877C433.117 611.786 433.179 611.693 433.241 611.602C433.241 611.602 433.249 611.602 433.256 611.592C433.381 611.398 433.521 611.167 433.661 610.928C433.769 610.725 433.887 610.523 434.003 610.301C434.042 610.236 434.073 610.163 434.112 610.099C434.244 609.849 434.369 609.601 434.501 609.324C434.617 609.093 434.727 608.863 434.835 608.623C434.835 608.614 434.842 608.614 434.842 608.606C434.89 608.532 434.921 608.449 434.96 608.375C435.03 608.218 435.099 608.062 435.162 607.905C435.27 607.674 435.363 607.444 435.464 607.203C435.473 607.186 435.481 607.157 435.496 607.14C435.582 606.927 435.667 606.716 435.745 606.503C435.822 606.309 435.901 606.116 435.971 605.922C436.102 605.59 436.219 605.268 436.32 604.945C436.397 604.733 436.467 604.521 436.53 604.318C436.639 603.977 436.74 603.646 436.825 603.322C436.935 602.926 437.02 602.548 437.09 602.198V602.189C437.254 601.313 437.276 600.603 437.09 600.179" fill="#0099B8"/>
<path fill-rule="evenodd" clip-rule="evenodd" d="M416.291 463.741C416.155 462.031 415.566 460.52 414.156 460.199C412.975 459.931 411.584 460.392 410.814 461.636C409.777 462.398 409.485 465.909 409.384 466.88C409.277 467.923 409.223 468.972 409.126 470.016C409.019 471.161 408.577 472.623 408.484 473.925C408.441 474.515 408.463 475.168 408.737 475.665C409.111 476.339 409.776 476.435 410.363 476.29C411.693 475.962 412.92 474.714 413.816 473.461C415.634 470.915 416.566 467.209 416.291 463.741" fill="#FFD3D1"/>
<path fill-rule="evenodd" clip-rule="evenodd" d="M402.644 486.225C402.24 488.388 402.23 492.7 402.317 496.635C402.414 500.987 402.502 502.056 402.502 502.056C402.502 502.056 401.663 508.738 394.01 509.571C386.367 510.418 380.533 499.683 380.533 499.683C381.066 497.69 381.469 495.162 381.764 492.844C382.22 489.299 382.416 486.225 382.416 486.225C382.416 486.225 403.493 481.677 402.644 486.225" fill="#FFD3D1"/>
<path fill-rule="evenodd" clip-rule="evenodd" d="M402.644 486.225C402.24 488.388 402.23 492.7 402.317 496.635C400.172 499.605 397.233 502.432 394.01 502.015C389.481 501.429 384.43 496.061 381.764 492.844C382.22 489.299 382.416 486.225 382.416 486.225C382.416 486.225 403.493 481.677 402.644 486.225" fill="#FF9BA1"/>
<path fill-rule="evenodd" clip-rule="evenodd" d="M413.501 446.789C413.539 441.92 412.874 436.941 410.329 433.082C407.667 429.045 403.513 426.835 399.348 426.032C390.377 424.303 380.569 427.979 375.734 437.653C374.114 440.895 372.979 444.706 372.442 448.589C372.338 448.472 371.325 458.35 371.16 463.135C371.01 467.48 371.228 471.866 372.382 476.017C374.344 483.063 378.754 488.119 383.689 492.322C386.14 494.408 388.8 496.777 391.865 497.274C394.874 497.761 397.443 496.017 399.64 493.72C404.889 488.236 409.96 481.177 412.211 473.159C413.529 468.464 413.438 463.651 413.63 458.776C413.784 454.841 414.321 450.667 413.501 446.789" fill="#FAE0BD"/>
<path fill-rule="evenodd" clip-rule="evenodd" d="M374.89 462.713C374.763 461.322 374.209 459.168 372.974 458.693C372.916 458.67 372.863 458.676 372.811 458.69C372.462 458.322 372.037 458.064 371.544 457.951C370.613 457.738 369.497 457.919 368.774 458.705C367.886 459.67 367.579 461.394 367.418 462.749C367.237 464.271 367.231 465.829 367.384 467.358C367.694 470.468 369.116 473.623 371.629 474.873C372.563 475.338 373.447 475.266 373.764 473.97C373.938 473.254 374.017 472.488 374.149 471.759C374.342 470.685 374.534 469.608 374.666 468.52C374.891 466.653 375.062 464.599 374.89 462.713" fill="#FFD3D1"/>
<path fill-rule="evenodd" clip-rule="evenodd" d="M396.473 483.133C396.135 483.1 395.917 483.344 395.651 483.548C395.392 483.748 395.117 483.922 394.831 484.059C394.235 484.343 393.595 484.51 392.954 484.545C392.316 484.58 391.683 484.489 391.071 484.267C390.773 484.158 390.49 484.008 390.224 483.812C390.16 483.766 390.102 483.708 390.032 483.676C390.008 483.665 389.914 483.624 389.894 483.619C389.747 483.535 389.606 483.393 389.484 483.27C389.281 483.068 388.937 483.325 389.096 483.628C389.192 483.809 389.295 483.999 389.417 484.158C389.513 484.282 389.57 484.433 389.745 484.589C390.032 484.845 390.342 485.046 390.672 485.211C391.376 485.563 392.148 485.683 392.909 485.647C393.677 485.611 394.445 485.425 395.158 485.079C395.713 484.809 396.756 484.332 396.762 483.479C396.764 483.28 396.628 483.148 396.473 483.133" fill="#FF6969"/>
<path fill-rule="evenodd" clip-rule="evenodd" d="M395.955 474.539C395.823 473.813 395.41 473.374 395.006 472.854C394.872 472.68 394.854 472.373 394.826 472.077C394.775 471.534 394.756 470.999 394.67 470.462C394.638 470.257 394.359 470.258 394.325 470.462C394.248 470.932 394.189 471.391 394.163 471.869C394.144 472.225 394.135 472.603 394.233 472.946C394.389 473.5 394.846 473.797 395.065 474.306C395.156 474.516 395.203 474.734 395.207 474.943C395.211 475.158 395.188 475.305 395.106 475.448C395.091 475.469 395.075 475.489 395.058 475.508C395.044 475.52 395.046 475.52 395.04 475.525C395.035 475.529 395.035 475.528 395.022 475.538C395.008 475.549 394.994 475.557 394.98 475.565C394.976 475.565 394.967 475.569 394.945 475.578C394.932 475.583 394.882 475.589 394.871 475.591C394.769 475.596 394.757 475.594 394.631 475.548C394.445 475.48 394.306 475.493 394.12 475.56C393.889 475.642 393.786 475.951 393.901 476.203C394.012 476.445 394.143 476.598 394.378 476.649C394.535 476.684 394.694 476.705 394.853 476.685C395.132 476.65 395.4 476.53 395.603 476.29C395.985 475.837 396.064 475.146 395.955 474.539" fill="#FF9BA1"/>
<path fill-rule="evenodd" clip-rule="evenodd" d="M401.459 461.544C401.235 461.154 400.585 461.26 400.367 461.602C400.333 461.656 400.296 461.708 400.263 461.761C400.171 461.912 400.164 462.024 400.147 462.188C400.135 462.305 400.124 462.423 400.113 462.539C400.086 462.803 400.075 463.064 400.07 463.33C400.065 463.585 400.062 463.839 400.063 464.095C400.064 464.222 400.066 464.35 400.069 464.478C400.073 464.659 400.116 464.833 400.151 465.011C400.206 465.289 400.605 465.499 400.907 465.47C401.214 465.442 401.589 465.233 401.626 464.931C401.695 464.369 401.671 463.806 401.688 463.243C401.696 462.988 401.703 462.737 401.695 462.483C401.692 462.358 401.693 462.231 401.683 462.105C401.665 461.887 401.566 461.73 401.459 461.544" fill="#00143B"/>
<path fill-rule="evenodd" clip-rule="evenodd" d="M404.744 455.203C404.522 454.982 404.309 454.745 404.073 454.549C403.43 454.016 402.562 453.876 401.799 453.836C400.254 453.753 398.866 454.812 398.094 456.379C397.93 456.713 398.371 457.024 398.566 456.732C399.39 455.504 400.73 454.838 402.034 454.992C402.628 455.061 403.233 455.189 403.705 455.646C404.022 455.954 404.611 456.798 405.071 456.532C405.305 456.397 405.388 456.148 405.324 455.851C405.263 455.566 404.928 455.384 404.744 455.203" fill="#FF9043"/>
<path fill-rule="evenodd" clip-rule="evenodd" d="M384.173 461.544C384.397 461.154 385.048 461.26 385.266 461.602C385.299 461.656 385.337 461.708 385.37 461.761C385.461 461.912 385.469 462.024 385.485 462.188C385.497 462.305 385.509 462.423 385.52 462.539C385.546 462.803 385.557 463.064 385.563 463.33C385.567 463.585 385.571 463.839 385.569 464.095C385.568 464.222 385.567 464.35 385.564 464.478C385.56 464.659 385.517 464.833 385.482 465.011C385.427 465.289 385.028 465.499 384.725 465.47C384.419 465.442 384.043 465.233 384.007 464.931C383.938 464.369 383.961 463.806 383.944 463.243C383.936 462.988 383.93 462.737 383.938 462.483C383.942 462.358 383.94 462.231 383.95 462.105C383.967 461.887 384.066 461.73 384.173 461.544" fill="#00143B"/>
<path fill-rule="evenodd" clip-rule="evenodd" d="M380.888 455.203C381.11 454.982 381.323 454.745 381.56 454.549C382.203 454.016 383.071 453.876 383.835 453.836C385.379 453.753 386.767 454.812 387.54 456.379C387.703 456.713 387.262 457.024 387.067 456.732C386.243 455.504 384.903 454.838 383.599 454.992C383.004 455.061 382.401 455.189 381.928 455.646C381.61 455.954 381.021 456.798 380.561 456.532C380.328 456.397 380.245 456.148 380.309 455.851C380.371 455.566 380.706 455.384 380.888 455.203" fill="#FF9043"/>
<path fill-rule="evenodd" clip-rule="evenodd" d="M407.21 473.308C407.21 474.028 406.063 474.612 404.647 474.612C403.231 474.612 402.083 474.028 402.083 473.308C402.083 472.589 403.231 472.006 404.647 472.006C406.063 472.006 407.21 472.589 407.21 473.308" fill="#FFBCC1"/>
<path fill-rule="evenodd" clip-rule="evenodd" d="M384.876 473.308C384.876 474.028 383.727 474.612 382.311 474.612C380.896 474.612 379.748 474.028 379.748 473.308C379.748 472.589 380.896 472.006 382.311 472.006C383.727 472.006 384.876 472.589 384.876 473.308" fill="#FFBCC1"/>
<path fill-rule="evenodd" clip-rule="evenodd" d="M410.304 476.83L409.357 476.407C409.383 476.326 411.958 468.188 412.744 462.485L413.741 462.678C412.94 468.499 410.411 476.493 410.304 476.83" fill="white"/>
<path fill-rule="evenodd" clip-rule="evenodd" d="M410.63 474.356C410.63 474.356 410.583 474.798 410.483 475.509C410.288 477.011 409.876 479.72 409.231 481.851C407.225 488.515 399.2 498.628 395.484 499.457C391.643 500.315 387.662 498.628 382.942 494.581C382.227 493.964 381.526 493.281 380.866 492.553C377.157 488.561 374.412 483.518 374.412 483.518C374.412 483.518 375.019 474.716 376.224 473.527C377.429 472.337 399.2 465.912 410.63 474.356" fill="white"/>
<path fill-rule="evenodd" clip-rule="evenodd" d="M410.482 475.509C410.288 477.011 409.876 479.721 409.231 481.851C407.225 488.515 399.2 498.629 395.483 499.457C391.643 500.315 387.661 498.629 382.942 494.581C382.226 493.964 381.526 493.281 380.866 492.553L378.929 488.865C378.929 488.865 380.928 490.93 382.313 491.115C382.313 491.115 387.871 491.898 389.272 491.548C390.671 491.189 392.218 486.82 392.218 486.82C392.218 486.82 398.905 484.486 400.88 484.486C402.854 484.486 405.265 480.579 405.226 478.081C405.187 475.582 405.226 472.042 405.226 472.042C405.226 472.042 408.414 473.231 410.482 475.509" fill="#F0F0F0"/>
<path fill-rule="evenodd" clip-rule="evenodd" d="M376.159 474.358C376.117 474.246 372.046 463.082 370.489 460.427L371.318 459.743C372.934 462.496 376.918 473.419 377.086 473.883L376.159 474.358Z" fill="white"/>
<path fill-rule="evenodd" clip-rule="evenodd" d="M374.415 483.517C374.377 483.44 370.659 475.667 368.958 469.734L369.915 469.349C371.585 475.175 375.257 482.847 375.293 482.924L374.415 483.517Z" fill="white"/>
<path fill-rule="evenodd" clip-rule="evenodd" d="M416.656 448.425C416.05 457.228 411.711 472.005 411.711 472.005C412.286 468.585 412.372 463.477 411.423 459.229C410.965 457.145 410.257 455.274 409.231 453.899C408.43 452.83 407.061 451.928 405.343 451.18V451.171C400.351 449.005 392.405 448.194 386.954 448.904C379.63 449.853 375.819 453.541 373.712 459.487C371.986 464.353 372.297 474.54 372.461 478.08C372.507 478.855 372.531 479.333 372.531 479.333C372.531 479.333 368.192 475.785 365.485 469.838C364.42 467.497 363.76 463.654 363.418 459.505C362.889 453.089 363.13 445.962 363.822 442.626C363.83 442.607 363.837 442.598 363.837 442.579C364.499 437.593 366.1 432.993 368.495 429.038C373.114 421.424 384.948 413.458 399.697 418.805C401.766 419.56 403.609 420.511 405.226 421.617C408.554 423.875 410.988 426.779 412.745 429.931C416.229 436.182 416.998 443.39 416.656 448.425" fill="#00CCB2"/>
<path fill-rule="evenodd" clip-rule="evenodd" d="M416.656 448.425C416.05 457.228 411.711 472.005 411.711 472.005C412.286 468.585 412.372 463.478 411.423 459.229C411.789 458.933 412.131 458.5 412.403 457.863C413.546 455.237 413.772 451.31 413.842 448.995C413.918 446.673 414.821 446.83 415.047 444.026C415.217 441.87 414.408 434.771 412.745 429.931C416.229 436.182 416.998 443.39 416.656 448.425" fill="#00A48F"/>
<path fill-rule="evenodd" clip-rule="evenodd" d="M405.343 451.171C400.351 449.005 392.404 448.195 386.954 448.904C379.63 449.853 375.819 453.541 373.712 459.487C371.986 464.354 372.298 474.54 372.461 478.08C372.305 475.324 371.892 468.816 371.48 467.055C370.952 464.788 371.784 459.081 373.137 456.85C374.489 454.61 375.391 451.577 377.086 449.706C378.782 447.834 379.606 447.834 383.937 447.207C388.26 446.581 390.414 445.723 392.832 446.332C395.258 446.94 397.062 447.3 399.246 447.834C401.432 448.369 405.343 451.171 405.343 451.171" fill="#00DABE"/>
<path fill-rule="evenodd" clip-rule="evenodd" d="M399.698 418.805C384.948 413.458 373.114 421.424 368.495 429.038C366.1 432.993 364.498 437.593 363.837 442.579C363.837 442.599 363.829 442.607 363.822 442.626C363.13 445.963 362.889 453.088 363.418 459.504C363.884 454.841 364.756 446.056 365.081 443.207C365.432 440.149 366.898 435.92 369.076 432.133C368.609 434.336 368.958 435.916 368.958 435.916C369.262 438.962 371.631 436.771 372.835 434.629C374.039 432.489 376.598 430.258 378.93 427.34C381.085 424.644 380.926 421.658 379.991 420.866C381.628 420.055 383.466 419.468 385.57 419.22C392.622 418.391 395.196 420.031 398.796 419.994C400.32 419.985 402.831 420.742 405.226 421.617C403.609 420.511 401.766 419.561 399.698 418.805" fill="#00DABE"/>
<path fill-rule="evenodd" clip-rule="evenodd" d="M406.968 504.906C406.058 511.589 403.866 524.283 399.55 531.52C399.55 531.52 380.78 516.512 374.249 501.845C380.959 499.301 381.06 497.356 381.06 497.356C382.312 498.471 383.517 499.384 384.684 500.131C391.262 504.353 396.432 503.228 399.449 501.726C401.353 500.776 402.396 499.679 402.396 499.679C402.901 501.938 406.447 504.528 406.914 504.869C406.952 504.897 406.968 504.906 406.968 504.906" fill="white"/>
<path fill-rule="evenodd" clip-rule="evenodd" d="M436.632 604.716L436.621 604.742C436.381 605.563 436.032 606.514 435.532 607.596V607.609C434.552 609.706 433.018 612.247 430.6 615.034C430.241 615.439 429.86 615.842 429.479 616.247C422.316 623.803 406.084 631.111 399.976 631.62C397.32 631.842 387.761 629.457 377.593 626.525C377.517 626.513 377.485 626.499 377.485 626.499C364.268 622.695 350.082 618.018 348.776 617.002C343.083 612.572 340.35 605.655 339.719 601.811C339.599 601.121 339.523 600.222 339.479 599.218C339.25 594.62 339.621 587.741 339.621 587.741L360.991 591.271L360.436 596.613L360.153 599.388C360.153 599.388 369.635 604.899 377.223 610.201C384.801 615.504 398.92 619.008 398.92 619.008L398.932 618.995C403.362 612.963 410.928 611.191 411.843 610.201C412.757 609.198 419.779 600.86 421.042 600.613C422.316 600.352 421.891 603.375 420.628 607.165C419.42 610.787 415.794 613.719 415.5 613.954C415.881 613.837 422.043 611.739 425.778 609.198C425.778 609.198 425.789 609.198 425.811 609.185C426.888 608.442 427.759 607.673 428.216 606.906C430.317 603.375 432.636 597.837 433.899 597.837C434.052 597.837 434.182 597.89 434.313 597.994C435.249 598.723 435.576 601.811 435.576 601.811C435.576 601.811 436.849 601.108 437.056 601.811C437.132 602.072 437.1 603.114 436.632 604.716" fill="#58BAD3"/>
<path fill-rule="evenodd" clip-rule="evenodd" d="M434.313 597.994C433.3 598.866 431.482 601.773 430.056 604.716C428.477 607.961 426.093 609.068 425.81 609.185C426.888 608.442 427.759 607.674 428.216 606.906C430.317 603.375 432.636 597.837 433.899 597.837C434.052 597.837 434.182 597.89 434.313 597.994" fill="#85E4E0"/>
<path fill-rule="evenodd" clip-rule="evenodd" d="M421.042 600.613C421.042 600.613 417.657 603.661 416.306 607.204C414.956 610.749 410.83 612.078 407.412 613.719C404.102 615.308 399.236 618.787 398.931 618.994C403.362 612.963 410.928 611.192 411.843 610.201C412.757 609.198 419.779 600.861 421.042 600.613" fill="#85E4E0"/>
<path fill-rule="evenodd" clip-rule="evenodd" d="M436.621 604.742C436.381 605.564 436.032 606.514 435.533 607.596V607.608C434.552 609.706 433.017 612.247 430.601 615.035C430.241 615.439 429.86 615.842 429.479 616.246C422.316 623.803 406.084 631.111 399.976 631.62C397.32 631.841 387.762 629.457 377.593 626.526C379.139 626.812 396.906 630.082 400.543 629.601C404.331 629.106 421.858 621.177 426.42 617.667C434.11 611.748 436.283 605.316 436.621 604.742" fill="#0099B8"/>
<path fill-rule="evenodd" clip-rule="evenodd" d="M397.295 629.531C397.202 630.223 397.101 630.85 397 631.375C396.759 632.637 396.541 633.393 396.541 633.393C396.541 633.393 395.483 633.034 392.474 632.5C389.466 631.965 351.242 621.612 347.175 618.405C347.167 618.405 347.167 618.395 347.16 618.395C343.109 615.178 339.267 607.664 338.598 603.175C338.506 602.54 338.404 601.231 338.326 599.378C337.86 588.085 338.124 556.401 344.344 531.096C348.209 515.379 353.97 511.709 354.305 511.487L354.32 511.47C354.592 511.581 354.841 511.691 355.09 511.829C355.152 511.848 355.223 511.875 355.284 511.912C367.647 518.162 367.414 545.817 365.206 567.205C364.77 571.408 364.257 575.373 363.752 578.876C363.69 579.317 363.62 579.751 363.55 580.193C362.617 586.518 361.722 591.173 361.396 592.786C361.35 592.998 361.31 593.21 361.271 593.412C360.681 596.648 360.268 598.778 360.268 598.778C360.268 598.778 368.394 602.881 377.592 609.545C386.79 616.201 396.759 618.192 396.759 618.192C396.782 618.276 396.805 618.368 396.822 618.45C396.86 618.579 396.891 618.709 396.923 618.837C397.87 622.783 397.668 626.738 397.295 629.531" fill="#FCB0BA"/>
<path fill-rule="evenodd" clip-rule="evenodd" d="M367.889 622.092C371.706 623.677 388.175 628.13 389.8 628.573C387.995 628.241 368.472 624.553 356.73 621.142C353.248 620.138 350.036 619.27 347.16 618.395C343.109 615.178 339.267 607.665 338.598 603.175C338.506 602.539 338.404 601.23 338.326 599.377C339.283 600.779 344.461 608.401 346.824 611.518C349.438 614.957 363.877 620.422 367.889 622.092" fill="#DB909A"/>
<path fill-rule="evenodd" clip-rule="evenodd" d="M227.901 639.572L226.867 654.221L225.515 673.276L224.286 690.597C224.208 690.615 224.123 690.624 224.03 690.634C223.384 690.716 221.603 690.919 219.924 690.771C218.338 690.642 215.725 688.375 213.696 685.895C213.68 685.876 213.657 685.849 213.633 685.821C213.54 685.721 213.455 685.601 213.361 685.471C212.825 684.799 212.343 684.116 211.946 683.461C209.987 680.244 208.184 672.934 208.035 668.297C207.927 665.098 208.159 653.012 208.307 645.785V645.721C208.378 642.476 208.432 640.226 208.432 640.226L227.901 639.572Z" fill="#58BAD3"/>
<path fill-rule="evenodd" clip-rule="evenodd" d="M225.515 673.275L224.286 690.597C224.208 690.615 224.123 690.623 224.03 690.634C222.024 690.836 217.102 688.863 215.756 686.134C214.356 683.286 214.855 675.072 215.259 671.505C215.655 667.938 217.164 662.462 217.568 660.683C217.903 659.17 218.244 656.313 218.338 655.456C218.221 656.976 217.965 664.701 217.965 667.108C217.965 669.725 219.069 672.694 219.574 673.413C220.072 674.123 222.28 674.003 222.979 674.003C223.469 674.003 224.753 673.552 225.515 673.275" fill="#0099B8"/>
<path fill-rule="evenodd" clip-rule="evenodd" d="M213.361 685.471C212.825 684.799 212.342 684.116 211.947 683.461C209.987 680.244 208.183 672.934 208.035 668.297C207.927 665.098 208.16 653.012 208.307 645.785C208.347 646.919 208.859 661.853 208.859 663.651C208.859 665.531 209.917 674.445 210.291 676.326C210.648 678.078 212.017 683.47 213.361 685.471" fill="#85E4E0"/>
<path fill-rule="evenodd" clip-rule="evenodd" d="M227.901 639.572L226.867 654.221C226.152 650.938 225.297 646.653 224.738 645.785C223.836 644.384 208.432 640.226 208.432 640.226L227.901 639.572Z" fill="#0099B8"/>
<path fill-rule="evenodd" clip-rule="evenodd" d="M227.901 640.937L215.484 640.485L208.432 640.226L208.035 635.461L219.317 635.663L227.598 635.82L227.901 640.937Z" fill="#00CCB2"/>
<path fill-rule="evenodd" clip-rule="evenodd" d="M227.901 640.936L215.484 640.485L219.317 635.663L227.598 635.82L227.901 640.936Z" fill="#00A48F"/>
<path fill-rule="evenodd" clip-rule="evenodd" d="M232.411 535.551C231.944 543.792 231.392 554.495 230.833 565.833C230.809 566.452 230.778 567.059 230.747 567.677C229.185 599.638 227.599 635.821 227.599 635.821L219.317 635.663L208.035 635.461C208.035 635.461 204.419 626.546 204.419 619.402C204.419 612.368 205.882 580.73 205.928 567.17V566.589C205.928 566.193 205.936 565.769 205.943 565.326C206.302 550.973 212.367 512.172 216.161 494.869C220.072 477.022 231.812 460.613 231.812 460.613C231.812 460.613 232.163 466.946 232.504 476.534C233.042 492.002 233.531 515.952 232.411 535.551" fill="white"/>
<path fill-rule="evenodd" clip-rule="evenodd" d="M232.411 535.55C230.608 567.308 227.599 635.821 227.599 635.821L219.317 635.663L223.384 629.395C223.384 629.395 223.687 591.931 223.687 583.007C223.687 574.084 225.188 548.392 226.999 522.7C228.329 503.802 231.112 485.107 232.504 476.533C233.042 492.002 233.531 515.952 232.411 535.55" fill="#D0D0D0"/>
<path fill-rule="evenodd" clip-rule="evenodd" d="M230.833 565.833C230.81 566.452 230.779 567.059 230.748 567.677C219.737 567.354 209.381 567.216 205.928 567.17V566.589C205.928 566.193 205.935 565.769 205.943 565.326C209.412 565.372 219.807 565.51 230.833 565.833" fill="#B4B4B4"/>
<path fill-rule="evenodd" clip-rule="evenodd" d="M336.33 669.818C336.19 674.252 334.464 681.248 332.582 684.327C332.209 684.955 331.742 685.6 331.229 686.245C331.144 686.375 331.058 686.485 330.973 686.586C330.949 686.614 330.926 686.632 330.91 686.651C328.967 689.03 326.471 691.195 324.954 691.325C323.345 691.462 321.642 691.27 321.028 691.187C320.935 691.177 320.857 691.167 320.779 691.15L319.605 674.574L319.154 668.232L317.319 642.329L335.949 642.955C335.949 642.955 336.003 645.102 336.066 648.21V648.275C336.206 655.188 336.431 666.758 336.33 669.818" fill="#58BAD3"/>
<path fill-rule="evenodd" clip-rule="evenodd" d="M319.603 674.578L320.779 691.152C320.852 691.17 320.935 691.179 321.024 691.189C322.944 691.382 327.654 689.494 328.94 686.884C330.279 684.158 329.804 676.298 329.416 672.884C329.038 669.471 327.594 664.231 327.207 662.529C326.887 661.082 326.56 658.348 326.47 657.527C326.582 658.983 326.828 666.375 326.828 668.677C326.828 671.182 325.771 674.022 325.288 674.711C324.811 675.39 322.698 675.275 322.029 675.275C321.56 675.275 320.332 674.842 319.603 674.578" fill="#0099B8"/>
<path fill-rule="evenodd" clip-rule="evenodd" d="M331.232 686.249C331.745 685.604 332.207 684.952 332.586 684.326C334.461 681.247 336.187 674.252 336.329 669.815C336.432 666.754 336.209 655.191 336.068 648.275C336.031 649.359 335.54 663.649 335.54 665.37C335.54 667.169 334.528 675.699 334.171 677.498C333.829 679.173 332.519 684.334 331.232 686.249" fill="#85E4E0"/>
<path fill-rule="evenodd" clip-rule="evenodd" d="M329.34 644.863C326.534 645.453 319.201 647.712 319.201 647.712C319.201 647.712 319.699 652.589 319.605 655.566C319.505 658.544 319.201 668.297 319.201 668.297L319.154 668.232L317.319 642.328L335.949 642.955C335.949 642.955 332.14 644.264 329.34 644.863" fill="#0099B8"/>
<path fill-rule="evenodd" clip-rule="evenodd" d="M336.555 637.959L335.949 642.955C335.949 642.955 333.787 643.057 330.895 643.149C325.507 643.324 317.568 643.462 316.386 642.835V637.608L327.077 637.793L336.555 637.959Z" fill="#00CCB2"/>
<path fill-rule="evenodd" clip-rule="evenodd" d="M330.895 643.149C325.506 643.324 317.568 643.462 316.386 642.835V637.608L327.077 637.793L330.895 643.149Z" fill="#00A48F"/>
<path fill-rule="evenodd" clip-rule="evenodd" d="M336.555 637.959C336.555 637.959 332.948 638.356 327.839 638.346C324.472 638.346 320.445 638.18 316.386 637.608C316.386 637.608 313.68 560.173 316.091 523.419C317.016 509.26 317.63 496.694 318.034 486.591C318.68 470.458 318.796 460.613 318.796 460.613C318.796 460.613 325.118 464.531 331.439 474.884C337.761 485.236 342.877 528.765 343.476 563.382C343.491 564.22 343.499 565.059 343.514 565.88C343.522 566.497 343.53 567.114 343.538 567.724C343.919 599.84 342.029 620.536 336.555 637.959" fill="white"/>
<path fill-rule="evenodd" clip-rule="evenodd" d="M321.502 603.352C321.502 603.352 321.973 587.442 322.401 568.888L338.059 566.236L322.447 566.886C322.685 556.338 322.904 545.103 323.01 535.55C323.314 508.429 319.022 482.646 319.022 482.646L318.034 486.591C317.63 496.694 317.015 509.26 316.09 523.419C313.68 560.173 316.386 637.608 316.386 637.608C320.445 638.18 324.472 638.346 327.839 638.346L322.108 632.962L321.502 603.352Z" fill="#D0D0D0"/>
<path fill-rule="evenodd" clip-rule="evenodd" d="M343.538 567.723C329.472 567.299 315.927 567.161 315.78 567.161L315.795 565.317C315.943 565.317 329.464 565.456 343.515 565.88C343.522 566.497 343.53 567.115 343.538 567.723" fill="#B4B4B4"/>
<path fill-rule="evenodd" clip-rule="evenodd" d="M239.738 454.187L231.812 460.611C231.812 460.611 229.705 529.124 229.102 545.183C228.501 561.241 229.705 605.49 229.705 605.49L223.384 697.198L320.602 698.983C320.602 698.983 316.388 603.349 316.388 601.921C316.388 600.494 320.3 518.776 320.602 504.502C320.903 490.229 318.797 460.611 318.797 460.611L307.56 456.804L239.738 454.187Z" fill="white"/>
<path fill-rule="evenodd" clip-rule="evenodd" d="M303.446 543.049H287.489V524.129H263.42V543.049H247.463V571.583H263.42V590.503H287.489V571.583H303.446V543.049Z" fill="#F0F0F0"/>
<path fill-rule="evenodd" clip-rule="evenodd" d="M275.816 464.51C275.602 464.644 275.372 464.707 275.134 464.736C275.424 474.788 276.53 514.616 276.27 529.114C276.158 535.317 275.847 549.229 275.485 565.34C274.865 593.019 274.163 624.391 274.163 630.468C274.163 639.992 273.864 701.571 273.861 702.192L274.639 702.197C274.642 701.576 274.94 639.995 274.94 630.468C274.94 624.403 275.643 593.038 276.263 565.365C276.624 549.253 276.936 535.338 277.048 529.135C277.31 514.489 276.183 474.09 275.904 464.46C275.873 464.474 275.848 464.497 275.816 464.51" fill="#D0D0D0"/>
<path fill-rule="evenodd" clip-rule="evenodd" d="M307.561 456.806C307.561 456.806 307.545 456.815 307.522 456.824C307.094 457.055 303.424 458.954 297.616 460.807C294.918 461.664 291.761 462.521 288.254 463.194C288.223 463.204 288.192 463.204 288.161 463.213C275.028 465.711 256.989 465.674 239.736 454.188C239.736 454.188 243.748 422.071 243.748 405.652C243.748 389.244 246.959 374.015 253.786 366.17C260.605 358.315 270.635 356.177 279.064 358.076C282.819 358.924 287.454 361.431 291.629 364.953C293.884 366.843 295.999 369.037 297.779 371.433C300.112 374.568 301.854 378.034 302.546 381.629C303.728 387.732 304.225 399.19 304.513 410.105C304.56 411.884 304.606 413.654 304.645 415.387C304.653 415.885 304.668 416.383 304.676 416.871C304.832 423.767 304.941 429.879 305.15 433.492C305.757 443.716 306.558 452.999 307.561 456.806" fill="white"/>
<path fill-rule="evenodd" clip-rule="evenodd" d="M304.511 410.107L304.513 410.105C304.225 399.19 303.728 387.732 302.546 381.629C301.854 378.034 300.112 374.567 297.779 371.433C298.627 373.304 299.529 375.333 300.283 377.112C302.389 382.108 303.292 403.689 303.292 403.689C303.292 403.689 294.265 405.478 293.666 405.652L293.127 409.777C292.817 409.813 292.501 409.85 292.204 409.884L291.909 410.418L293.114 426.827C294.319 426.117 297.523 420.642 299.933 418.742C301.263 417.693 303.207 417.148 304.676 416.871C304.626 414.681 304.573 412.404 304.511 410.107" fill="#D0D0D0"/>
<path fill-rule="evenodd" clip-rule="evenodd" d="M307.561 456.806C307.561 456.806 307.545 456.815 307.522 456.824C307.009 457.027 301.302 459.304 297.616 460.807C296.761 461.148 296.014 461.452 295.47 461.682C294.335 462.153 291.473 462.724 288.254 463.194C288.223 463.203 288.192 463.203 288.161 463.213C282.882 463.987 276.661 464.485 275.456 463.821C275.456 463.821 288.394 459.894 291.403 457.93C294.413 455.967 302.546 444.195 302.693 437.235C302.841 430.275 302.841 424.394 302.841 424.394L302.39 415.295L304.645 415.387C304.653 415.885 304.668 416.383 304.676 416.871C304.832 423.767 304.941 429.879 305.15 433.492C305.757 443.716 306.558 452.999 307.561 456.806" fill="#D0D0D0"/>
<mask id="mask1" mask-type="alpha" maskUnits="userSpaceOnUse" x="254" y="387" width="42" height="59">
<path fill-rule="evenodd" clip-rule="evenodd" d="M269.525 387.724C262.994 388.89 257.847 392.385 256.462 398.211V398.211C255.077 404.036 254.829 439.512 254.829 440.211V440.211C254.829 441.61 261.98 445.373 274.276 445.104V445.104C286.358 444.843 294.317 440.91 294.317 440.91V440.91C294.317 440.91 296.642 397.511 293.475 392.151V392.151C291.252 388.39 283.57 387.155 276.928 387.155V387.155C274.107 387.155 271.472 387.378 269.525 387.724" fill="white"/>
</mask>
<g mask="url(#mask1)">
<path fill-rule="evenodd" clip-rule="evenodd" d="M295.721 402.57C295.197 397.753 293.97 392.923 290.736 389.693C286.66 385.621 280.845 384.699 275.719 384.288C270.222 383.845 263.953 383.119 259.55 387.85C257.399 390.162 255.54 393.25 253.832 396.022C252.024 398.956 250.4 402.27 250.316 405.997C250.311 406.227 250.382 406.401 250.487 406.528C250.287 410.294 250.446 414.056 250.564 417.825C250.68 421.541 250.774 425.102 251.577 428.727C252.242 431.729 253.193 434.693 254.69 437.254C256.264 439.944 258.294 442.195 260.42 444.258C262.632 446.407 264.945 448.48 267.282 450.435C269.182 452.025 271.316 453.37 273.713 453.124C276.58 452.832 279.428 450.537 281.796 448.755C284.394 446.799 286.877 444.585 289.118 442.078C293.275 437.425 294.977 431.24 295.839 424.681C296.787 417.462 296.504 409.801 295.721 402.57" fill="#FFC6AD"/>
</g>
<mask id="mask2" mask-type="alpha" maskUnits="userSpaceOnUse" x="254" y="387" width="42" height="59">
<path fill-rule="evenodd" clip-rule="evenodd" d="M269.525 387.724C262.994 388.89 257.847 392.385 256.462 398.211V398.211C255.077 404.036 254.829 439.512 254.829 440.211V440.211C254.829 441.61 261.98 445.373 274.276 445.104V445.104C286.358 444.843 294.317 440.91 294.317 440.91V440.91C294.317 440.91 296.642 397.511 293.475 392.151V392.151C291.252 388.39 283.57 387.155 276.928 387.155V387.155C274.107 387.155 271.472 387.378 269.525 387.724" fill="white"/>
</mask>
<g mask="url(#mask2)">
<path fill-rule="evenodd" clip-rule="evenodd" d="M274.398 423.106C274.291 422.376 274.389 421.606 274.369 420.873C274.348 420.086 274.094 419.205 274.316 418.436C274.4 418.148 274.026 418.036 273.936 418.311C273.672 419.119 273.898 420.037 273.883 420.873C273.867 421.808 273.671 422.763 273.906 423.682C273.96 423.89 274.168 424.005 274.331 423.887C275.162 423.289 276.92 424.042 276.774 425.39C276.71 425.986 276.262 426.457 275.87 426.779C275.659 426.954 275.433 427.107 275.202 427.241C274.995 427.361 274.75 427.426 274.595 427.64C274.464 427.82 274.489 428.177 274.726 428.227C275.329 428.354 276.128 427.602 276.558 427.166C277.069 426.648 277.499 425.911 277.418 425.079C277.27 423.528 275.589 422.608 274.398 423.106" fill="#C17E67"/>
</g>
<mask id="mask3" mask-type="alpha" maskUnits="userSpaceOnUse" x="254" y="387" width="42" height="59">
<path fill-rule="evenodd" clip-rule="evenodd" d="M269.525 387.724C262.994 388.89 257.847 392.385 256.462 398.211V398.211C255.077 404.036 254.829 439.512 254.829 440.211V440.211C254.829 441.61 261.98 445.373 274.276 445.104V445.104C286.358 444.843 294.317 440.91 294.317 440.91V440.91C294.317 440.91 296.642 397.511 293.475 392.151V392.151C291.252 388.39 283.57 387.155 276.928 387.155V387.155C274.107 387.155 271.472 387.378 269.525 387.724" fill="white"/>
</mask>
<g mask="url(#mask3)">
<path fill-rule="evenodd" clip-rule="evenodd" d="M280.134 436.414C279.624 436.64 279.177 437.009 278.663 437.233C278.123 437.468 277.555 437.642 276.993 437.784C275.82 438.079 274.622 438.07 273.431 437.971C272.453 437.888 271.468 437.79 270.503 437.579C269.513 437.363 268.431 437.102 267.64 436.321C267.415 436.1 267.09 436.472 267.314 436.707C268.904 438.378 271.181 438.574 273.198 438.807C274.498 438.957 275.807 439.018 277.102 438.776C278.186 438.574 279.738 438.179 280.494 437.147C280.713 436.847 280.509 436.247 280.134 436.414" fill="#FF6969"/>
</g>
<mask id="mask4" mask-type="alpha" maskUnits="userSpaceOnUse" x="254" y="387" width="42" height="59">
<path fill-rule="evenodd" clip-rule="evenodd" d="M269.525 387.724C262.994 388.89 257.847 392.385 256.462 398.211V398.211C255.077 404.036 254.829 439.512 254.829 440.211V440.211C254.829 441.61 261.98 445.373 274.276 445.104V445.104C286.358 444.843 294.317 440.91 294.317 440.91V440.91C294.317 440.91 296.642 397.511 293.475 392.151V392.151C291.252 388.39 283.57 387.155 276.928 387.155V387.155C274.107 387.155 271.472 387.378 269.525 387.724" fill="white"/>
</mask>
<g mask="url(#mask4)">
<path fill-rule="evenodd" clip-rule="evenodd" d="M284.017 412.62C284.014 412.149 283.951 411.445 283.422 411.445C282.897 411.445 282.827 412.149 282.842 412.62C282.852 412.972 282.865 413.324 282.88 413.677C282.895 414.065 282.919 414.44 282.973 414.823C283.023 415.194 283.027 415.637 283.28 415.897C283.407 416.028 283.57 416.029 283.698 415.897C283.959 415.628 283.952 415.154 283.991 414.772C284.027 414.402 284.034 414.049 284.028 413.677C284.024 413.324 284.018 412.972 284.017 412.62" fill="#00143B"/>
</g>
<mask id="mask5" mask-type="alpha" maskUnits="userSpaceOnUse" x="254" y="387" width="42" height="59">
<path fill-rule="evenodd" clip-rule="evenodd" d="M269.525 387.724C262.994 388.89 257.847 392.385 256.462 398.211V398.211C255.077 404.036 254.829 439.512 254.829 440.211V440.211C254.829 441.61 261.98 445.373 274.276 445.104V445.104C286.358 444.843 294.317 440.91 294.317 440.91V440.91C294.317 440.91 296.642 397.511 293.475 392.151V392.151C291.252 388.39 283.57 387.155 276.928 387.155V387.155C274.107 387.155 271.472 387.378 269.525 387.724" fill="white"/>
</mask>
<g mask="url(#mask5)">
<path fill-rule="evenodd" clip-rule="evenodd" d="M286.835 406.434C286.337 406.115 285.71 406.076 285.151 406.013C284.525 405.944 283.895 405.93 283.269 405.982C282.09 406.078 280.835 406.388 279.879 407.258C279.586 407.525 279.834 408.09 280.178 407.864C281.153 407.225 282.264 406.951 283.368 406.872C283.93 406.832 284.494 406.845 285.054 406.902C285.593 406.955 286.141 407.149 286.678 407.126C286.975 407.113 287.119 406.617 286.835 406.434" fill="#00143B"/>
</g>
<mask id="mask6" mask-type="alpha" maskUnits="userSpaceOnUse" x="254" y="387" width="42" height="59">
<path fill-rule="evenodd" clip-rule="evenodd" d="M269.525 387.724C262.994 388.89 257.847 392.385 256.462 398.211V398.211C255.077 404.036 254.829 439.512 254.829 440.211V440.211C254.829 441.61 261.98 445.373 274.276 445.104V445.104C286.358 444.843 294.317 440.91 294.317 440.91V440.91C294.317 440.91 296.642 397.511 293.475 392.151V392.151C291.252 388.39 283.57 387.155 276.928 387.155V387.155C274.107 387.155 271.472 387.378 269.525 387.724" fill="white"/>
</mask>
<g mask="url(#mask6)">
<path fill-rule="evenodd" clip-rule="evenodd" d="M264.538 412.62C264.541 412.149 264.604 411.445 265.133 411.445C265.657 411.445 265.727 412.149 265.712 412.62C265.703 412.972 265.689 413.324 265.675 413.677C265.66 414.065 265.636 414.44 265.581 414.823C265.531 415.194 265.528 415.637 265.275 415.897C265.148 416.028 264.985 416.029 264.857 415.897C264.595 415.628 264.602 415.154 264.564 414.772C264.527 414.402 264.521 414.049 264.526 413.677C264.531 413.324 264.536 412.972 264.538 412.62" fill="#00143B"/>
</g>
<mask id="mask7" mask-type="alpha" maskUnits="userSpaceOnUse" x="254" y="387" width="42" height="59">
<path fill-rule="evenodd" clip-rule="evenodd" d="M269.525 387.724C262.994 388.89 257.847 392.385 256.462 398.211V398.211C255.077 404.036 254.829 439.512 254.829 440.211V440.211C254.829 441.61 261.98 445.373 274.276 445.104V445.104C286.358 444.843 294.317 440.91 294.317 440.91V440.91C294.317 440.91 296.642 397.511 293.475 392.151V392.151C291.252 388.39 283.57 387.155 276.928 387.155V387.155C274.107 387.155 271.472 387.378 269.525 387.724" fill="white"/>
</mask>
<g mask="url(#mask7)">
<path fill-rule="evenodd" clip-rule="evenodd" d="M261.719 406.434C262.218 406.115 262.844 406.076 263.403 406.013C264.029 405.944 264.66 405.93 265.286 405.982C266.464 406.078 267.72 406.388 268.675 407.258C268.968 407.525 268.721 408.09 268.377 407.864C267.402 407.225 266.29 406.951 265.187 406.872C264.624 406.832 264.061 406.845 263.5 406.902C262.961 406.955 262.413 407.149 261.877 407.126C261.579 407.113 261.436 406.617 261.719 406.434" fill="#00143B"/>
</g>
<mask id="mask8" mask-type="alpha" maskUnits="userSpaceOnUse" x="254" y="387" width="42" height="59">
<path fill-rule="evenodd" clip-rule="evenodd" d="M269.525 387.724C262.994 388.89 257.847 392.385 256.462 398.211V398.211C255.077 404.036 254.829 439.512 254.829 440.211V440.211C254.829 441.61 261.98 445.373 274.276 445.104V445.104C286.358 444.843 294.317 440.91 294.317 440.91V440.91C294.317 440.91 296.642 397.511 293.475 392.151V392.151C291.252 388.39 283.57 387.155 276.928 387.155V387.155C274.107 387.155 271.472 387.378 269.525 387.724" fill="white"/>
</mask>
<g mask="url(#mask8)">
<path fill-rule="evenodd" clip-rule="evenodd" d="M296.985 400.017C296.985 400.017 279.92 395.124 269.374 395.819C264.028 396.18 260.17 397.561 257.67 398.844C256.766 399.304 256.044 399.756 255.485 400.144C254.541 400.785 254.088 401.236 254.088 401.236C254.088 401.236 252.009 394.952 252.309 390.23C252.6 385.507 257.202 379.746 261.36 377.119C263.292 375.9 268.891 376.234 274.95 377.336C279.651 378.193 284.637 379.521 288.403 380.956H288.41C290.221 381.652 291.746 382.365 292.828 383.06C295.735 384.938 296.832 388.749 297.177 392.279C297.269 393.19 297.307 394.085 297.315 394.924C297.338 397.805 296.985 400.017 296.985 400.017" fill="#F5BB40"/>
</g>
<mask id="mask9" mask-type="alpha" maskUnits="userSpaceOnUse" x="254" y="387" width="42" height="59">
<path fill-rule="evenodd" clip-rule="evenodd" d="M269.525 387.724C262.994 388.89 257.847 392.385 256.462 398.211V398.211C255.077 404.036 254.829 439.512 254.829 440.211V440.211C254.829 441.61 261.98 445.373 274.276 445.104V445.104C286.358 444.843 294.317 440.91 294.317 440.91V440.91C294.317 440.91 296.642 397.511 293.475 392.151V392.151C291.252 388.39 283.57 387.155 276.928 387.155V387.155C274.107 387.155 271.472 387.378 269.525 387.724" fill="white"/>
</mask>
<g mask="url(#mask9)">
<path fill-rule="evenodd" clip-rule="evenodd" d="M297.315 394.924L295.451 396.342C295.451 396.342 291.102 393.895 287.736 391.918C284.369 389.94 278.532 389.589 278.532 389.589C278.532 389.589 268.537 390.283 265.072 392.036C262.433 393.363 259.119 397.119 257.67 398.844C256.765 399.304 256.043 399.756 255.484 400.143C254.003 399.982 254.387 397.281 254.387 397.281L254.978 387.259L260.915 377.94L274.95 377.336C279.652 378.194 284.637 379.52 288.403 380.956H288.411L297.176 392.279C297.268 393.191 297.307 394.085 297.315 394.924" fill="#D5A237"/>
</g>
<mask id="mask10" mask-type="alpha" maskUnits="userSpaceOnUse" x="254" y="387" width="42" height="59">
<path fill-rule="evenodd" clip-rule="evenodd" d="M269.525 387.724C262.994 388.89 257.847 392.385 256.462 398.211V398.211C255.077 404.036 254.829 439.512 254.829 440.211V440.211C254.829 441.61 261.98 445.373 274.276 445.104V445.104C286.358 444.843 294.317 440.91 294.317 440.91V440.91C294.317 440.91 296.642 397.511 293.475 392.151V392.151C291.252 388.39 283.57 387.155 276.928 387.155V387.155C274.107 387.155 271.472 387.378 269.525 387.724" fill="white"/>
</mask>
<g mask="url(#mask10)">
<path fill-rule="evenodd" clip-rule="evenodd" d="M294.761 441.2C294.047 443.016 291.554 445.624 288.103 447.855C282.904 451.232 275.509 453.76 268.737 451.457C257.455 447.612 255.177 445.742 253.889 440.388C253.199 437.517 253.336 433.679 253.605 430.735C253.667 430.068 253.736 429.453 253.805 428.903C253.996 427.323 254.188 426.292 254.188 426.292C254.188 426.292 254.993 426.365 256.243 426.42C259.135 426.537 264.404 426.546 267.449 425.236C269.965 424.162 271.944 422.861 273.914 422.464C274.053 422.438 274.191 422.41 274.328 422.402C274.413 422.383 274.489 422.374 274.567 422.374C275.142 422.31 275.717 422.347 276.315 422.491C276.492 422.536 276.668 422.591 276.851 422.663C276.951 422.69 277.043 422.726 277.143 422.772C277.557 422.942 277.987 423.187 278.432 423.494C282.289 426.175 286.946 427.223 289.814 426.989C292.683 426.753 295.451 425.589 295.451 425.589C295.451 425.589 296.54 436.659 294.761 441.2" fill="#58BAD3"/>
</g>
<mask id="mask11" mask-type="alpha" maskUnits="userSpaceOnUse" x="254" y="387" width="42" height="59">
<path fill-rule="evenodd" clip-rule="evenodd" d="M269.525 387.724C262.994 388.89 257.847 392.385 256.462 398.211V398.211C255.077 404.036 254.829 439.512 254.829 440.211V440.211C254.829 441.61 261.98 445.373 274.276 445.104V445.104C286.358 444.843 294.317 440.91 294.317 440.91V440.91C294.317 440.91 296.642 397.511 293.475 392.151V392.151C291.252 388.39 283.57 387.155 276.928 387.155V387.155C274.107 387.155 271.472 387.378 269.525 387.724" fill="white"/>
</mask>
<g mask="url(#mask11)">
<path fill-rule="evenodd" clip-rule="evenodd" d="M295.451 425.589C295.451 425.589 292.683 426.753 289.814 426.989C286.945 427.223 282.29 426.175 278.433 423.494C276.799 422.357 275.357 422.167 273.914 422.464C271.944 422.861 269.965 424.162 267.449 425.236C264.405 426.546 259.135 426.537 256.243 426.42L253.804 428.903C253.735 429.453 253.667 430.068 253.605 430.735L255.277 431.124C255.277 431.124 261.957 430.952 265.217 429.904C267.702 429.101 272.081 425.67 274.29 423.918C274.291 423.918 274.291 423.917 274.292 423.917C274.592 424.514 274.99 425.38 275.265 426.292C275.763 427.918 276.054 430.952 276.154 432.577C276.254 434.212 276.255 435.493 276.255 435.493C276.255 435.493 277.941 430.718 278.831 430.483C279.72 430.247 281.401 430.13 282.688 430.718C283.977 431.295 286.746 431.883 286.746 431.883L290.903 433.399L292.483 438.989C292.483 438.989 288.924 441.553 286.647 443.295C284.369 445.047 279.521 448.071 279.521 448.071L288.103 447.855C291.555 445.624 294.047 443.016 294.761 441.2C296.54 436.659 295.451 425.589 295.451 425.589" fill="#0099B8"/>
</g>
<mask id="mask12" mask-type="alpha" maskUnits="userSpaceOnUse" x="254" y="387" width="42" height="59">
<path fill-rule="evenodd" clip-rule="evenodd" d="M269.525 387.724C262.994 388.89 257.847 392.385 256.462 398.211V398.211C255.077 404.036 254.829 439.512 254.829 440.211V440.211C254.829 441.61 261.98 445.373 274.276 445.104V445.104C286.358 444.843 294.317 440.91 294.317 440.91V440.91C294.317 440.91 296.642 397.511 293.475 392.151V392.151C291.252 388.39 283.57 387.155 276.928 387.155V387.155C274.107 387.155 271.472 387.378 269.525 387.724" fill="white"/>
</mask>
<g mask="url(#mask12)">
<path fill-rule="evenodd" clip-rule="evenodd" d="M262.796 434.211C262.942 433.908 266.853 433.513 268.338 433.279C269.822 433.046 272.395 431.415 272.099 432.463C271.801 433.513 269.921 434.445 269.921 434.445C269.921 434.445 266.853 434.91 265.27 435.143C263.686 435.377 262.399 435.026 262.796 434.211" fill="#85E4E0"/>
</g>
<mask id="mask13" mask-type="alpha" maskUnits="userSpaceOnUse" x="254" y="387" width="42" height="59">
<path fill-rule="evenodd" clip-rule="evenodd" d="M269.525 387.724C262.994 388.89 257.847 392.385 256.462 398.211V398.211C255.077 404.036 254.829 439.512 254.829 440.211V440.211C254.829 441.61 261.98 445.373 274.276 445.104V445.104C286.358 444.843 294.317 440.91 294.317 440.91V440.91C294.317 440.91 296.642 397.511 293.475 392.151V392.151C291.252 388.39 283.57 387.155 276.928 387.155V387.155C274.107 387.155 271.472 387.378 269.525 387.724" fill="white"/>
</mask>
<g mask="url(#mask13)">
<path fill-rule="evenodd" clip-rule="evenodd" d="M262.103 437.357C262.311 437.015 265.963 437.707 267.051 437.474C268.14 437.241 270.713 436.542 269.625 437.59C268.536 438.639 265.468 438.522 265.468 438.522C265.468 438.522 261.114 438.989 262.103 437.357" fill="#85E4E0"/>
</g>
<path fill-rule="evenodd" clip-rule="evenodd" d="M305.296 411.492V415.439C305.296 416.241 304.728 416.898 304.033 416.898H296.539V410.033H304.033C304.728 410.033 305.296 410.682 305.296 411.492" fill="#00CCB2"/>
<path fill-rule="evenodd" clip-rule="evenodd" d="M300.867 416.898H296.538V410.033H299.58C300.024 412.024 300.586 414.754 300.867 416.898" fill="#00A48F"/>
<path fill-rule="evenodd" clip-rule="evenodd" d="M241.893 411.492V415.439C241.893 416.241 242.462 416.898 243.157 416.898H250.651V410.033H243.157C242.462 410.033 241.893 410.682 241.893 411.492" fill="#00CCB2"/>
<path fill-rule="evenodd" clip-rule="evenodd" d="M246.323 416.898H250.652V410.033H247.61C247.165 412.024 246.604 414.754 246.323 416.898" fill="#00A48F"/>
<path fill-rule="evenodd" clip-rule="evenodd" d="M250.749 423.171L251.453 402.828C251.453 402.828 260.41 400.618 266.649 400.735C272.889 400.852 293.921 402.246 295.33 402.711C296.74 403.176 296.941 412.011 296.941 414.104C296.941 416.197 296.314 422.521 294.413 423.66C292.512 424.799 285.066 425.148 282.348 424.683C279.631 424.217 275.404 420.497 273.09 421.312C270.775 422.125 265.543 424.334 262.724 425.264C259.907 426.194 251.353 425.962 250.749 423.171" fill="white"/>
<path fill-rule="evenodd" clip-rule="evenodd" d="M260.344 399.869C258.588 399.869 257.294 399.886 256.686 399.922C252.761 400.153 250.548 401.316 249.743 403.176C248.937 405.036 249.743 423.055 249.743 423.055C250.045 426.079 251.956 427.008 256.888 427.008C261.819 427.008 266.448 425.497 270.876 423.287C272.063 422.695 272.925 422.454 273.637 422.454C275.582 422.454 276.417 424.251 279.732 425.613C281.422 426.307 283.839 426.645 286.313 426.645C290.466 426.645 294.773 425.691 296.035 423.869C298.047 420.963 298.45 412.012 297.645 405.85C297.06 401.376 295.733 400.763 295.05 400.763C294.792 400.763 294.626 400.852 294.626 400.852C293.35 400.36 269.933 399.869 260.344 399.869V399.869ZM260.347 402.572C271.118 402.572 291.732 403.074 294.007 403.462L294.758 403.751L294.768 403.746C294.936 404.168 295.159 404.935 295.331 406.254C296.203 412.919 295.428 420.418 294.211 422.176C293.755 422.773 290.885 423.942 286.313 423.942C283.984 423.942 281.871 423.622 280.515 423.066C279.226 422.537 278.407 421.948 277.615 421.377C276.504 420.577 275.355 419.751 273.637 419.751C272.563 419.751 271.391 420.086 269.948 420.806C265.229 423.161 260.956 424.305 256.888 424.305C256.09 424.305 253.662 424.305 252.568 423.716C252.302 423.573 252.151 423.491 252.075 422.822C251.737 415.208 251.579 406.139 251.897 404.265C252.316 403.566 253.795 402.799 256.806 402.62C257.182 402.598 258.103 402.572 260.345 402.572H260.347Z" fill="#00CCB2"/>
<path fill-rule="evenodd" clip-rule="evenodd" d="M239.075 456.071C239.075 456.071 265.24 474.672 307.105 458.629C307.105 458.629 300.463 466.069 273.089 467.464C273.089 467.464 250.145 467.464 239.075 456.071" fill="#00CCB2"/>
</g>
<defs>
<filter id="filter0_d" x="0" y="0" width="542" height="763" filterUnits="userSpaceOnUse" color-interpolation-filters="sRGB">
<feFlood flood-opacity="0" result="BackgroundImageFix"/>
<feColorMatrix in="SourceAlpha" type="matrix" values="0 0 0 0 0 0 0 0 0 0 0 0 0 0 0 0 0 0 127 0"/>
<feOffset dy="25"/>
<feGaussianBlur stdDeviation="29"/>
<feColorMatrix type="matrix" values="0 0 0 0 0.243137 0 0 0 0 0.392157 0 0 0 0 1 0 0 0 0.3 0"/>
<feBlend mode="normal" in2="BackgroundImageFix" result="effect1_dropShadow"/>
<feBlend mode="normal" in="SourceGraphic" in2="effect1_dropShadow" result="shape"/>
</filter>
</defs>
</svg>
