<svg width="1619" height="445" viewBox="0 0 1619 445" fill="none" xmlns="http://www.w3.org/2000/svg">
<rect x="19" y="0.203125" width="1600" height="426.058" fill="url(#paint0_linear)"/>
<g opacity="0.26">
<mask id="mask0" mask-type="alpha" maskUnits="userSpaceOnUse" x="0" y="331" width="11" height="11">
<path d="M5.22838 341.864C8.11594 341.864 10.4568 339.562 10.4568 336.723C10.4568 333.884 8.11594 331.582 5.22838 331.582C2.34082 331.582 0 333.884 0 336.723C0 339.562 2.34082 341.864 5.22838 341.864Z" fill="url(#paint1_linear)"/>
</mask>
<g mask="url(#mask0)">
<path d="M5.22838 341.864C8.11594 341.864 10.4568 339.562 10.4568 336.723C10.4568 333.884 8.11594 331.582 5.22838 331.582C2.34082 331.582 0 333.884 0 336.723C0 339.562 2.34082 341.864 5.22838 341.864Z" fill="url(#paint2_linear)"/>
</g>
<mask id="mask1" mask-type="alpha" maskUnits="userSpaceOnUse" x="30" y="331" width="11" height="11">
<path d="M35.5096 341.864C38.3972 341.864 40.738 339.562 40.738 336.723C40.738 333.884 38.3972 331.582 35.5096 331.582C32.6221 331.582 30.2812 333.884 30.2812 336.723C30.2812 339.562 32.6221 341.864 35.5096 341.864Z" fill="url(#paint3_linear)"/>
</mask>
<g mask="url(#mask1)">
<path d="M35.5096 341.864C38.3972 341.864 40.738 339.562 40.738 336.723C40.738 333.884 38.3972 331.582 35.5096 331.582C32.6221 331.582 30.2812 333.884 30.2812 336.723C30.2812 339.562 32.6221 341.864 35.5096 341.864Z" fill="url(#paint4_linear)"/>
</g>
<mask id="mask2" mask-type="alpha" maskUnits="userSpaceOnUse" x="60" y="331" width="12" height="11">
<path d="M65.7909 341.864C68.6784 341.864 71.0193 339.562 71.0193 336.723C71.0193 333.884 68.6784 331.582 65.7909 331.582C62.9033 331.582 60.5625 333.884 60.5625 336.723C60.5625 339.562 62.9033 341.864 65.7909 341.864Z" fill="url(#paint5_linear)"/>
</mask>
<g mask="url(#mask2)">
<path d="M65.7909 341.864C68.6784 341.864 71.0193 339.562 71.0193 336.723C71.0193 333.884 68.6784 331.582 65.7909 331.582C62.9033 331.582 60.5625 333.884 60.5625 336.723C60.5625 339.562 62.9033 341.864 65.7909 341.864Z" fill="url(#paint6_linear)"/>
</g>
<mask id="mask3" mask-type="alpha" maskUnits="userSpaceOnUse" x="90" y="331" width="12" height="11">
<path d="M96.0712 341.864C98.9587 341.864 101.3 339.562 101.3 336.723C101.3 333.884 98.9587 331.582 96.0712 331.582C93.1836 331.582 90.8428 333.884 90.8428 336.723C90.8428 339.562 93.1836 341.864 96.0712 341.864Z" fill="url(#paint7_linear)"/>
</mask>
<g mask="url(#mask3)">
<path d="M96.0712 341.864C98.9587 341.864 101.3 339.562 101.3 336.723C101.3 333.884 98.9587 331.582 96.0712 331.582C93.1836 331.582 90.8428 333.884 90.8428 336.723C90.8428 339.562 93.1836 341.864 96.0712 341.864Z" fill="url(#paint8_linear)"/>
</g>
<mask id="mask4" mask-type="alpha" maskUnits="userSpaceOnUse" x="121" y="331" width="11" height="11">
<path d="M126.352 341.864C129.24 341.864 131.581 339.562 131.581 336.723C131.581 333.884 129.24 331.582 126.352 331.582C123.465 331.582 121.124 333.884 121.124 336.723C121.124 339.562 123.465 341.864 126.352 341.864Z" fill="url(#paint9_linear)"/>
</mask>
<g mask="url(#mask4)">
<path d="M126.352 341.864C129.24 341.864 131.581 339.562 131.581 336.723C131.581 333.884 129.24 331.582 126.352 331.582C123.465 331.582 121.124 333.884 121.124 336.723C121.124 339.562 123.465 341.864 126.352 341.864Z" fill="url(#paint10_linear)"/>
</g>
<mask id="mask5" mask-type="alpha" maskUnits="userSpaceOnUse" x="0" y="357" width="11" height="11">
<path d="M5.22838 367.674C8.11594 367.674 10.4568 365.372 10.4568 362.533C10.4568 359.694 8.11594 357.393 5.22838 357.393C2.34082 357.393 0 359.694 0 362.533C0 365.372 2.34082 367.674 5.22838 367.674Z" fill="url(#paint11_linear)"/>
</mask>
<g mask="url(#mask5)">
<path d="M5.22838 367.674C8.11594 367.674 10.4568 365.372 10.4568 362.533C10.4568 359.694 8.11594 357.393 5.22838 357.393C2.34082 357.393 0 359.694 0 362.533C0 365.372 2.34082 367.674 5.22838 367.674Z" fill="url(#paint12_linear)"/>
</g>
<mask id="mask6" mask-type="alpha" maskUnits="userSpaceOnUse" x="30" y="357" width="11" height="11">
<path d="M35.5096 367.674C38.3972 367.674 40.738 365.372 40.738 362.533C40.738 359.694 38.3972 357.393 35.5096 357.393C32.6221 357.393 30.2812 359.694 30.2812 362.533C30.2812 365.372 32.6221 367.674 35.5096 367.674Z" fill="url(#paint13_linear)"/>
</mask>
<g mask="url(#mask6)">
<path d="M35.5096 367.674C38.3972 367.674 40.738 365.372 40.738 362.533C40.738 359.694 38.3972 357.393 35.5096 357.393C32.6221 357.393 30.2812 359.694 30.2812 362.533C30.2812 365.372 32.6221 367.674 35.5096 367.674Z" fill="url(#paint14_linear)"/>
</g>
<mask id="mask7" mask-type="alpha" maskUnits="userSpaceOnUse" x="60" y="357" width="12" height="11">
<path d="M65.7909 367.674C68.6784 367.674 71.0193 365.372 71.0193 362.533C71.0193 359.694 68.6784 357.393 65.7909 357.393C62.9033 357.393 60.5625 359.694 60.5625 362.533C60.5625 365.372 62.9033 367.674 65.7909 367.674Z" fill="url(#paint15_linear)"/>
</mask>
<g mask="url(#mask7)">
<path d="M65.7909 367.674C68.6784 367.674 71.0193 365.372 71.0193 362.533C71.0193 359.694 68.6784 357.393 65.7909 357.393C62.9033 357.393 60.5625 359.694 60.5625 362.533C60.5625 365.372 62.9033 367.674 65.7909 367.674Z" fill="url(#paint16_linear)"/>
</g>
<mask id="mask8" mask-type="alpha" maskUnits="userSpaceOnUse" x="90" y="357" width="12" height="11">
<path d="M96.0712 367.674C98.9587 367.674 101.3 365.372 101.3 362.533C101.3 359.694 98.9587 357.393 96.0712 357.393C93.1836 357.393 90.8428 359.694 90.8428 362.533C90.8428 365.372 93.1836 367.674 96.0712 367.674Z" fill="url(#paint17_linear)"/>
</mask>
<g mask="url(#mask8)">
<path d="M96.0712 367.674C98.9587 367.674 101.3 365.372 101.3 362.533C101.3 359.694 98.9587 357.393 96.0712 357.393C93.1836 357.393 90.8428 359.694 90.8428 362.533C90.8428 365.372 93.1836 367.674 96.0712 367.674Z" fill="url(#paint18_linear)"/>
</g>
<mask id="mask9" mask-type="alpha" maskUnits="userSpaceOnUse" x="121" y="357" width="11" height="11">
<path d="M126.352 367.674C129.24 367.674 131.581 365.372 131.581 362.533C131.581 359.694 129.24 357.393 126.352 357.393C123.465 357.393 121.124 359.694 121.124 362.533C121.124 365.372 123.465 367.674 126.352 367.674Z" fill="url(#paint19_linear)"/>
</mask>
<g mask="url(#mask9)">
<path d="M126.352 367.674C129.24 367.674 131.581 365.372 131.581 362.533C131.581 359.694 129.24 357.393 126.352 357.393C123.465 357.393 121.124 359.694 121.124 362.533C121.124 365.372 123.465 367.674 126.352 367.674Z" fill="url(#paint20_linear)"/>
</g>
<mask id="mask10" mask-type="alpha" maskUnits="userSpaceOnUse" x="0" y="383" width="11" height="11">
<path d="M5.22838 393.431C8.11594 393.431 10.4568 391.129 10.4568 388.29C10.4568 385.451 8.11594 383.149 5.22838 383.149C2.34082 383.149 0 385.451 0 388.29C0 391.129 2.34082 393.431 5.22838 393.431Z" fill="url(#paint21_linear)"/>
</mask>
<g mask="url(#mask10)">
<path d="M5.22838 393.431C8.11594 393.431 10.4568 391.129 10.4568 388.29C10.4568 385.451 8.11594 383.149 5.22838 383.149C2.34082 383.149 0 385.451 0 388.29C0 391.129 2.34082 393.431 5.22838 393.431Z" fill="url(#paint22_linear)"/>
</g>
<mask id="mask11" mask-type="alpha" maskUnits="userSpaceOnUse" x="30" y="383" width="11" height="11">
<path d="M35.5096 393.431C38.3972 393.431 40.738 391.129 40.738 388.29C40.738 385.451 38.3972 383.149 35.5096 383.149C32.6221 383.149 30.2812 385.451 30.2812 388.29C30.2812 391.129 32.6221 393.431 35.5096 393.431Z" fill="url(#paint23_linear)"/>
</mask>
<g mask="url(#mask11)">
<path d="M35.5096 393.431C38.3972 393.431 40.738 391.129 40.738 388.29C40.738 385.451 38.3972 383.149 35.5096 383.149C32.6221 383.149 30.2812 385.451 30.2812 388.29C30.2812 391.129 32.6221 393.431 35.5096 393.431Z" fill="url(#paint24_linear)"/>
</g>
<mask id="mask12" mask-type="alpha" maskUnits="userSpaceOnUse" x="60" y="383" width="12" height="11">
<path d="M65.7909 393.431C68.6784 393.431 71.0193 391.129 71.0193 388.29C71.0193 385.451 68.6784 383.149 65.7909 383.149C62.9033 383.149 60.5625 385.451 60.5625 388.29C60.5625 391.129 62.9033 393.431 65.7909 393.431Z" fill="url(#paint25_linear)"/>
</mask>
<g mask="url(#mask12)">
<path d="M65.7909 393.431C68.6784 393.431 71.0193 391.129 71.0193 388.29C71.0193 385.451 68.6784 383.149 65.7909 383.149C62.9033 383.149 60.5625 385.451 60.5625 388.29C60.5625 391.129 62.9033 393.431 65.7909 393.431Z" fill="url(#paint26_linear)"/>
</g>
<mask id="mask13" mask-type="alpha" maskUnits="userSpaceOnUse" x="90" y="383" width="12" height="11">
<path d="M96.0712 393.431C98.9587 393.431 101.3 391.129 101.3 388.29C101.3 385.451 98.9587 383.149 96.0712 383.149C93.1836 383.149 90.8428 385.451 90.8428 388.29C90.8428 391.129 93.1836 393.431 96.0712 393.431Z" fill="url(#paint27_linear)"/>
</mask>
<g mask="url(#mask13)">
<path d="M96.0712 393.431C98.9587 393.431 101.3 391.129 101.3 388.29C101.3 385.451 98.9587 383.149 96.0712 383.149C93.1836 383.149 90.8428 385.451 90.8428 388.29C90.8428 391.129 93.1836 393.431 96.0712 393.431Z" fill="url(#paint28_linear)"/>
</g>
<mask id="mask14" mask-type="alpha" maskUnits="userSpaceOnUse" x="121" y="383" width="11" height="11">
<path d="M126.352 393.431C129.24 393.431 131.581 391.129 131.581 388.29C131.581 385.451 129.24 383.149 126.352 383.149C123.465 383.149 121.124 385.451 121.124 388.29C121.124 391.129 123.465 393.431 126.352 393.431Z" fill="url(#paint29_linear)"/>
</mask>
<g mask="url(#mask14)">
<path d="M126.352 393.431C129.24 393.431 131.581 391.129 131.581 388.29C131.581 385.451 129.24 383.149 126.352 383.149C123.465 383.149 121.124 385.451 121.124 388.29C121.124 391.129 123.465 393.431 126.352 393.431Z" fill="url(#paint30_linear)"/>
</g>
<mask id="mask15" mask-type="alpha" maskUnits="userSpaceOnUse" x="0" y="408" width="11" height="12">
<path d="M5.22838 419.243C8.11594 419.243 10.4568 416.941 10.4568 414.102C10.4568 411.263 8.11594 408.961 5.22838 408.961C2.34082 408.961 0 411.263 0 414.102C0 416.941 2.34082 419.243 5.22838 419.243Z" fill="url(#paint31_linear)"/>
</mask>
<g mask="url(#mask15)">
<path d="M5.22838 419.243C8.11594 419.243 10.4568 416.941 10.4568 414.102C10.4568 411.263 8.11594 408.961 5.22838 408.961C2.34082 408.961 0 411.263 0 414.102C0 416.941 2.34082 419.243 5.22838 419.243Z" fill="url(#paint32_linear)"/>
</g>
<mask id="mask16" mask-type="alpha" maskUnits="userSpaceOnUse" x="30" y="408" width="11" height="12">
<path d="M35.5096 419.243C38.3972 419.243 40.738 416.941 40.738 414.102C40.738 411.263 38.3972 408.961 35.5096 408.961C32.6221 408.961 30.2812 411.263 30.2812 414.102C30.2812 416.941 32.6221 419.243 35.5096 419.243Z" fill="url(#paint33_linear)"/>
</mask>
<g mask="url(#mask16)">
<path d="M35.5096 419.243C38.3972 419.243 40.738 416.941 40.738 414.102C40.738 411.263 38.3972 408.961 35.5096 408.961C32.6221 408.961 30.2812 411.263 30.2812 414.102C30.2812 416.941 32.6221 419.243 35.5096 419.243Z" fill="url(#paint34_linear)"/>
</g>
<mask id="mask17" mask-type="alpha" maskUnits="userSpaceOnUse" x="60" y="408" width="12" height="12">
<path d="M65.7909 419.243C68.6784 419.243 71.0193 416.941 71.0193 414.102C71.0193 411.263 68.6784 408.961 65.7909 408.961C62.9033 408.961 60.5625 411.263 60.5625 414.102C60.5625 416.941 62.9033 419.243 65.7909 419.243Z" fill="url(#paint35_linear)"/>
</mask>
<g mask="url(#mask17)">
<path d="M65.7909 419.243C68.6784 419.243 71.0193 416.941 71.0193 414.102C71.0193 411.263 68.6784 408.961 65.7909 408.961C62.9033 408.961 60.5625 411.263 60.5625 414.102C60.5625 416.941 62.9033 419.243 65.7909 419.243Z" fill="url(#paint36_linear)"/>
</g>
<mask id="mask18" mask-type="alpha" maskUnits="userSpaceOnUse" x="90" y="408" width="12" height="12">
<path d="M96.0712 419.243C98.9587 419.243 101.3 416.941 101.3 414.102C101.3 411.263 98.9587 408.961 96.0712 408.961C93.1836 408.961 90.8428 411.263 90.8428 414.102C90.8428 416.941 93.1836 419.243 96.0712 419.243Z" fill="url(#paint37_linear)"/>
</mask>
<g mask="url(#mask18)">
<path d="M96.0712 419.243C98.9587 419.243 101.3 416.941 101.3 414.102C101.3 411.263 98.9587 408.961 96.0712 408.961C93.1836 408.961 90.8428 411.263 90.8428 414.102C90.8428 416.941 93.1836 419.243 96.0712 419.243Z" fill="url(#paint38_linear)"/>
</g>
<mask id="mask19" mask-type="alpha" maskUnits="userSpaceOnUse" x="121" y="408" width="11" height="12">
<path d="M126.352 419.243C129.24 419.243 131.581 416.941 131.581 414.102C131.581 411.263 129.24 408.961 126.352 408.961C123.465 408.961 121.124 411.263 121.124 414.102C121.124 416.941 123.465 419.243 126.352 419.243Z" fill="url(#paint39_linear)"/>
</mask>
<g mask="url(#mask19)">
<path d="M126.352 419.243C129.24 419.243 131.581 416.941 131.581 414.102C131.581 411.263 129.24 408.961 126.352 408.961C123.465 408.961 121.124 411.263 121.124 414.102C121.124 416.941 123.465 419.243 126.352 419.243Z" fill="url(#paint40_linear)"/>
</g>
<mask id="mask20" mask-type="alpha" maskUnits="userSpaceOnUse" x="0" y="434" width="11" height="12">
<path d="M5.22838 445C8.11594 445 10.4568 442.699 10.4568 439.86C10.4568 437.02 8.11594 434.719 5.22838 434.719C2.34082 434.719 0 437.02 0 439.86C0 442.699 2.34082 445 5.22838 445Z" fill="url(#paint41_linear)"/>
</mask>
<g mask="url(#mask20)">
<path d="M5.22838 445C8.11594 445 10.4568 442.699 10.4568 439.86C10.4568 437.02 8.11594 434.719 5.22838 434.719C2.34082 434.719 0 437.02 0 439.86C0 442.699 2.34082 445 5.22838 445Z" fill="url(#paint42_linear)"/>
</g>
<mask id="mask21" mask-type="alpha" maskUnits="userSpaceOnUse" x="30" y="434" width="11" height="12">
<path d="M35.5096 445C38.3972 445 40.738 442.699 40.738 439.86C40.738 437.02 38.3972 434.719 35.5096 434.719C32.6221 434.719 30.2812 437.02 30.2812 439.86C30.2812 442.699 32.6221 445 35.5096 445Z" fill="url(#paint43_linear)"/>
</mask>
<g mask="url(#mask21)">
<path d="M35.5096 445C38.3972 445 40.738 442.699 40.738 439.86C40.738 437.02 38.3972 434.719 35.5096 434.719C32.6221 434.719 30.2812 437.02 30.2812 439.86C30.2812 442.699 32.6221 445 35.5096 445Z" fill="url(#paint44_linear)"/>
</g>
<mask id="mask22" mask-type="alpha" maskUnits="userSpaceOnUse" x="60" y="434" width="12" height="12">
<path d="M65.7909 445C68.6784 445 71.0193 442.699 71.0193 439.86C71.0193 437.02 68.6784 434.719 65.7909 434.719C62.9033 434.719 60.5625 437.02 60.5625 439.86C60.5625 442.699 62.9033 445 65.7909 445Z" fill="url(#paint45_linear)"/>
</mask>
<g mask="url(#mask22)">
<path d="M65.7909 445C68.6784 445 71.0193 442.699 71.0193 439.86C71.0193 437.02 68.6784 434.719 65.7909 434.719C62.9033 434.719 60.5625 437.02 60.5625 439.86C60.5625 442.699 62.9033 445 65.7909 445Z" fill="url(#paint46_linear)"/>
</g>
<mask id="mask23" mask-type="alpha" maskUnits="userSpaceOnUse" x="90" y="434" width="12" height="12">
<path d="M96.0712 445C98.9587 445 101.3 442.699 101.3 439.86C101.3 437.02 98.9587 434.719 96.0712 434.719C93.1836 434.719 90.8428 437.02 90.8428 439.86C90.8428 442.699 93.1836 445 96.0712 445Z" fill="url(#paint47_linear)"/>
</mask>
<g mask="url(#mask23)">
<path d="M96.0712 445C98.9587 445 101.3 442.699 101.3 439.86C101.3 437.02 98.9587 434.719 96.0712 434.719C93.1836 434.719 90.8428 437.02 90.8428 439.86C90.8428 442.699 93.1836 445 96.0712 445Z" fill="url(#paint48_linear)"/>
</g>
<mask id="mask24" mask-type="alpha" maskUnits="userSpaceOnUse" x="121" y="434" width="11" height="12">
<path d="M126.352 445C129.24 445 131.581 442.699 131.581 439.86C131.581 437.02 129.24 434.719 126.352 434.719C123.465 434.719 121.124 437.02 121.124 439.86C121.124 442.699 123.465 445 126.352 445Z" fill="url(#paint49_linear)"/>
</mask>
<g mask="url(#mask24)">
<path d="M126.352 445C129.24 445 131.581 442.699 131.581 439.86C131.581 437.02 129.24 434.719 126.352 434.719C123.465 434.719 121.124 437.02 121.124 439.86C121.124 442.699 123.465 445 126.352 445Z" fill="url(#paint50_linear)"/>
</g>
</g>
<defs>
<linearGradient id="paint0_linear" x1="1448" y1="-41.2192" x2="1441.44" y2="371.912" gradientUnits="userSpaceOnUse">
<stop stop-color="#202B6D"/>
<stop offset="1" stop-color="#2B213F"/>
</linearGradient>
<linearGradient id="paint1_linear" x1="54.996" y1="460.912" x2="-14.7095" y2="280.952" gradientUnits="userSpaceOnUse">
<stop stop-color="white"/>
<stop offset="1" stop-color="white"/>
</linearGradient>
<linearGradient id="paint2_linear" x1="54.996" y1="460.912" x2="-14.7095" y2="280.952" gradientUnits="userSpaceOnUse">
<stop stop-color="white"/>
<stop offset="1" stop-color="white"/>
</linearGradient>
<linearGradient id="paint3_linear" x1="85.2773" y1="460.912" x2="15.5719" y2="280.952" gradientUnits="userSpaceOnUse">
<stop stop-color="white"/>
<stop offset="1" stop-color="white"/>
</linearGradient>
<linearGradient id="paint4_linear" x1="85.2773" y1="460.912" x2="15.5719" y2="280.952" gradientUnits="userSpaceOnUse">
<stop stop-color="white"/>
<stop offset="1" stop-color="white"/>
</linearGradient>
<linearGradient id="paint5_linear" x1="115.559" y1="460.912" x2="45.8531" y2="280.952" gradientUnits="userSpaceOnUse">
<stop stop-color="white"/>
<stop offset="1" stop-color="white"/>
</linearGradient>
<linearGradient id="paint6_linear" x1="115.559" y1="460.912" x2="45.8531" y2="280.952" gradientUnits="userSpaceOnUse">
<stop stop-color="white"/>
<stop offset="1" stop-color="white"/>
</linearGradient>
<linearGradient id="paint7_linear" x1="145.839" y1="460.912" x2="76.1334" y2="280.952" gradientUnits="userSpaceOnUse">
<stop stop-color="white"/>
<stop offset="1" stop-color="white"/>
</linearGradient>
<linearGradient id="paint8_linear" x1="145.839" y1="460.912" x2="76.1334" y2="280.952" gradientUnits="userSpaceOnUse">
<stop stop-color="white"/>
<stop offset="1" stop-color="white"/>
</linearGradient>
<linearGradient id="paint9_linear" x1="176.12" y1="460.912" x2="106.415" y2="280.952" gradientUnits="userSpaceOnUse">
<stop stop-color="white"/>
<stop offset="1" stop-color="white"/>
</linearGradient>
<linearGradient id="paint10_linear" x1="176.12" y1="460.912" x2="106.415" y2="280.952" gradientUnits="userSpaceOnUse">
<stop stop-color="white"/>
<stop offset="1" stop-color="white"/>
</linearGradient>
<linearGradient id="paint11_linear" x1="54.996" y1="486.721" x2="-14.7083" y2="306.763" gradientUnits="userSpaceOnUse">
<stop stop-color="white"/>
<stop offset="1" stop-color="white"/>
</linearGradient>
<linearGradient id="paint12_linear" x1="54.996" y1="486.721" x2="-14.7083" y2="306.763" gradientUnits="userSpaceOnUse">
<stop stop-color="white"/>
<stop offset="1" stop-color="white"/>
</linearGradient>
<linearGradient id="paint13_linear" x1="85.2773" y1="486.721" x2="15.5731" y2="306.763" gradientUnits="userSpaceOnUse">
<stop stop-color="white"/>
<stop offset="1" stop-color="white"/>
</linearGradient>
<linearGradient id="paint14_linear" x1="85.2773" y1="486.721" x2="15.5731" y2="306.763" gradientUnits="userSpaceOnUse">
<stop stop-color="white"/>
<stop offset="1" stop-color="white"/>
</linearGradient>
<linearGradient id="paint15_linear" x1="115.559" y1="486.721" x2="45.8543" y2="306.763" gradientUnits="userSpaceOnUse">
<stop stop-color="white"/>
<stop offset="1" stop-color="white"/>
</linearGradient>
<linearGradient id="paint16_linear" x1="115.559" y1="486.721" x2="45.8543" y2="306.763" gradientUnits="userSpaceOnUse">
<stop stop-color="white"/>
<stop offset="1" stop-color="white"/>
</linearGradient>
<linearGradient id="paint17_linear" x1="145.839" y1="486.721" x2="76.1346" y2="306.763" gradientUnits="userSpaceOnUse">
<stop stop-color="white"/>
<stop offset="1" stop-color="white"/>
</linearGradient>
<linearGradient id="paint18_linear" x1="145.839" y1="486.721" x2="76.1346" y2="306.763" gradientUnits="userSpaceOnUse">
<stop stop-color="white"/>
<stop offset="1" stop-color="white"/>
</linearGradient>
<linearGradient id="paint19_linear" x1="176.12" y1="486.721" x2="106.416" y2="306.763" gradientUnits="userSpaceOnUse">
<stop stop-color="white"/>
<stop offset="1" stop-color="white"/>
</linearGradient>
<linearGradient id="paint20_linear" x1="176.12" y1="486.721" x2="106.416" y2="306.763" gradientUnits="userSpaceOnUse">
<stop stop-color="white"/>
<stop offset="1" stop-color="white"/>
</linearGradient>
<linearGradient id="paint21_linear" x1="54.996" y1="512.48" x2="-14.7095" y2="332.519" gradientUnits="userSpaceOnUse">
<stop stop-color="white"/>
<stop offset="1" stop-color="white"/>
</linearGradient>
<linearGradient id="paint22_linear" x1="54.996" y1="512.48" x2="-14.7095" y2="332.519" gradientUnits="userSpaceOnUse">
<stop stop-color="white"/>
<stop offset="1" stop-color="white"/>
</linearGradient>
<linearGradient id="paint23_linear" x1="85.2773" y1="512.48" x2="15.5719" y2="332.519" gradientUnits="userSpaceOnUse">
<stop stop-color="white"/>
<stop offset="1" stop-color="white"/>
</linearGradient>
<linearGradient id="paint24_linear" x1="85.2773" y1="512.48" x2="15.5719" y2="332.519" gradientUnits="userSpaceOnUse">
<stop stop-color="white"/>
<stop offset="1" stop-color="white"/>
</linearGradient>
<linearGradient id="paint25_linear" x1="115.559" y1="512.48" x2="45.8531" y2="332.519" gradientUnits="userSpaceOnUse">
<stop stop-color="white"/>
<stop offset="1" stop-color="white"/>
</linearGradient>
<linearGradient id="paint26_linear" x1="115.559" y1="512.48" x2="45.8531" y2="332.519" gradientUnits="userSpaceOnUse">
<stop stop-color="white"/>
<stop offset="1" stop-color="white"/>
</linearGradient>
<linearGradient id="paint27_linear" x1="145.839" y1="512.48" x2="76.1334" y2="332.519" gradientUnits="userSpaceOnUse">
<stop stop-color="white"/>
<stop offset="1" stop-color="white"/>
</linearGradient>
<linearGradient id="paint28_linear" x1="145.839" y1="512.48" x2="76.1334" y2="332.519" gradientUnits="userSpaceOnUse">
<stop stop-color="white"/>
<stop offset="1" stop-color="white"/>
</linearGradient>
<linearGradient id="paint29_linear" x1="176.12" y1="512.48" x2="106.415" y2="332.519" gradientUnits="userSpaceOnUse">
<stop stop-color="white"/>
<stop offset="1" stop-color="white"/>
</linearGradient>
<linearGradient id="paint30_linear" x1="176.12" y1="512.48" x2="106.415" y2="332.519" gradientUnits="userSpaceOnUse">
<stop stop-color="white"/>
<stop offset="1" stop-color="white"/>
</linearGradient>
<linearGradient id="paint31_linear" x1="54.996" y1="538.291" x2="-14.7095" y2="358.331" gradientUnits="userSpaceOnUse">
<stop stop-color="white"/>
<stop offset="1" stop-color="white"/>
</linearGradient>
<linearGradient id="paint32_linear" x1="54.996" y1="538.291" x2="-14.7095" y2="358.331" gradientUnits="userSpaceOnUse">
<stop stop-color="white"/>
<stop offset="1" stop-color="white"/>
</linearGradient>
<linearGradient id="paint33_linear" x1="85.2773" y1="538.291" x2="15.5719" y2="358.331" gradientUnits="userSpaceOnUse">
<stop stop-color="white"/>
<stop offset="1" stop-color="white"/>
</linearGradient>
<linearGradient id="paint34_linear" x1="85.2773" y1="538.291" x2="15.5719" y2="358.331" gradientUnits="userSpaceOnUse">
<stop stop-color="white"/>
<stop offset="1" stop-color="white"/>
</linearGradient>
<linearGradient id="paint35_linear" x1="115.559" y1="538.291" x2="45.8531" y2="358.331" gradientUnits="userSpaceOnUse">
<stop stop-color="white"/>
<stop offset="1" stop-color="white"/>
</linearGradient>
<linearGradient id="paint36_linear" x1="115.559" y1="538.291" x2="45.8531" y2="358.331" gradientUnits="userSpaceOnUse">
<stop stop-color="white"/>
<stop offset="1" stop-color="white"/>
</linearGradient>
<linearGradient id="paint37_linear" x1="145.839" y1="538.291" x2="76.1334" y2="358.331" gradientUnits="userSpaceOnUse">
<stop stop-color="white"/>
<stop offset="1" stop-color="white"/>
</linearGradient>
<linearGradient id="paint38_linear" x1="145.839" y1="538.291" x2="76.1334" y2="358.331" gradientUnits="userSpaceOnUse">
<stop stop-color="white"/>
<stop offset="1" stop-color="white"/>
</linearGradient>
<linearGradient id="paint39_linear" x1="176.12" y1="538.291" x2="106.415" y2="358.331" gradientUnits="userSpaceOnUse">
<stop stop-color="white"/>
<stop offset="1" stop-color="white"/>
</linearGradient>
<linearGradient id="paint40_linear" x1="176.12" y1="538.291" x2="106.415" y2="358.331" gradientUnits="userSpaceOnUse">
<stop stop-color="white"/>
<stop offset="1" stop-color="white"/>
</linearGradient>
<linearGradient id="paint41_linear" x1="54.996" y1="564.049" x2="-14.7095" y2="384.089" gradientUnits="userSpaceOnUse">
<stop stop-color="white"/>
<stop offset="1" stop-color="white"/>
</linearGradient>
<linearGradient id="paint42_linear" x1="54.996" y1="564.049" x2="-14.7095" y2="384.089" gradientUnits="userSpaceOnUse">
<stop stop-color="white"/>
<stop offset="1" stop-color="white"/>
</linearGradient>
<linearGradient id="paint43_linear" x1="85.2773" y1="564.049" x2="15.5719" y2="384.089" gradientUnits="userSpaceOnUse">
<stop stop-color="white"/>
<stop offset="1" stop-color="white"/>
</linearGradient>
<linearGradient id="paint44_linear" x1="85.2773" y1="564.049" x2="15.5719" y2="384.089" gradientUnits="userSpaceOnUse">
<stop stop-color="white"/>
<stop offset="1" stop-color="white"/>
</linearGradient>
<linearGradient id="paint45_linear" x1="115.559" y1="564.049" x2="45.8531" y2="384.089" gradientUnits="userSpaceOnUse">
<stop stop-color="white"/>
<stop offset="1" stop-color="white"/>
</linearGradient>
<linearGradient id="paint46_linear" x1="115.559" y1="564.049" x2="45.8531" y2="384.089" gradientUnits="userSpaceOnUse">
<stop stop-color="white"/>
<stop offset="1" stop-color="white"/>
</linearGradient>
<linearGradient id="paint47_linear" x1="145.839" y1="564.049" x2="76.1334" y2="384.089" gradientUnits="userSpaceOnUse">
<stop stop-color="white"/>
<stop offset="1" stop-color="white"/>
</linearGradient>
<linearGradient id="paint48_linear" x1="145.839" y1="564.049" x2="76.1334" y2="384.089" gradientUnits="userSpaceOnUse">
<stop stop-color="white"/>
<stop offset="1" stop-color="white"/>
</linearGradient>
<linearGradient id="paint49_linear" x1="176.12" y1="564.049" x2="106.415" y2="384.089" gradientUnits="userSpaceOnUse">
<stop stop-color="white"/>
<stop offset="1" stop-color="white"/>
</linearGradient>
<linearGradient id="paint50_linear" x1="176.12" y1="564.049" x2="106.415" y2="384.089" gradientUnits="userSpaceOnUse">
<stop stop-color="white"/>
<stop offset="1" stop-color="white"/>
</linearGradient>
</defs>
</svg>
