<svg width="284" height="263" viewBox="0 0 284 263" fill="none" xmlns="http://www.w3.org/2000/svg">
<path d="M107.802 248.778C92.6549 254.145 77.3612 256.624 61.0481 253.525C42.8654 250.069 27.0944 234.508 18.1832 218.991C14.8722 213.227 12.2363 206.786 12.5807 200.15C13.3822 184.818 27.8665 183.105 40.1614 185.584C47.0921 186.979 53.4559 190.153 59.7475 193.298C70.193 198.521 82.4458 201.09 91.8105 208.33C94.9529 210.766 97.3128 213.693 100.964 215.466C106.644 218.226 113.128 219.528 118.962 222.04C123.943 224.195 129.511 227.74 129.518 233.165C129.519 238.728 123.714 242.274 118.614 244.489C115.004 246.067 111.41 247.505 107.802 248.778Z" fill="url(#paint0_linear)"/>
<path d="M52.0501 51.0154C76.8631 14.4483 128.172 -0.234068 169.761 13.5144C189.816 20.1474 206.623 33.9592 222.125 48.2971C235.789 60.934 249.045 74.5641 258.377 90.8096C264.748 101.899 269.309 115.191 272.529 127.6C277.344 146.181 272.971 170.122 248.952 168.368C243.317 167.957 238.442 165.931 233.171 164.158C228.908 162.72 224.73 163.583 220.304 162.881C209.162 161.116 198.429 157.014 188.28 152.21C167.596 142.41 148.697 129.095 127.425 120.507C109.993 113.478 91.3767 109.849 72.5808 109.815C64.6512 109.803 56.3135 110.358 49.2203 106.812C31.7374 98.0647 39.5993 74.4783 46.1286 61.2101C47.8584 57.6758 49.8372 54.269 52.0501 51.0154Z" fill="url(#paint1_linear)"/>
<path d="M246.597 56.5348C250.682 60.2347 266.732 70.3351 267.041 58.4822C267.114 55.5294 265.775 52.6623 263.952 50.4998C261.867 48.0177 259.502 46.7157 257.874 43.824C255.881 40.3324 253.613 37.0509 251.099 34.0218C245.959 27.7172 239.958 21.8919 232.676 19.2965C227.569 17.4782 218.922 17.9355 216.496 24.4809C212.962 34.0093 228.074 35.7552 232.683 39.2277C237.057 42.5145 239.534 48.1621 242.999 52.6505C244.094 54.0658 245.298 55.3661 246.597 56.5348Z" fill="url(#paint2_linear)"/>
<path d="M171.059 44.945C179.712 50.0393 186.202 57.6646 194.091 63.8058C207.225 74.0286 225.228 76.1201 240.29 83.2294C255.648 90.483 267.245 101.756 272.488 118.003C279.262 138.975 279.906 163.914 274.151 185.474C267.813 209.207 252.929 224.971 231.168 235.484C209.419 245.991 185.326 250.894 161.296 251.906C158.977 252.005 156.662 252.059 154.338 252.074C102.135 252.377 32.6502 234.002 14.8773 177.923C14.7144 177.411 14.5583 176.899 14.4017 176.379C12.5704 170.131 11.4936 163.687 11.1944 157.183C10.0765 134.126 14.1118 108.677 22.1954 87.0625C27.6323 72.5108 39.3397 60.2066 51.6763 51.4397C69.009 39.1232 90.1575 35.9799 111.206 34.5022C126.793 33.4086 144.323 33.009 159.063 38.9709C163.205 40.6598 167.215 42.6567 171.059 44.945Z" fill="url(#paint3_linear)"/>
<path d="M73.9241 92.2067C73.9241 92.2067 127 163.074 140.277 168.933C153.558 174.797 170.206 173.477 171.662 180.275C173.118 187.077 143.789 175.572 148.468 186.064C153.146 196.56 171.38 208.539 171.466 219.106C171.554 229.676 142.451 196.419 142.451 196.419C142.451 196.419 169.873 226.846 160.793 227.565C151.709 228.285 128.222 198.537 128.222 198.537C128.222 198.537 154.495 237.56 145.785 233.996C137.08 230.432 56.3385 137.064 43.8875 127.184C31.4364 117.308 73.9241 92.2067 73.9241 92.2067Z" fill="#E27B5A"/>
<path d="M228.321 109.409C228.321 109.409 167.785 174.001 153.941 178.366C140.097 182.727 123.696 179.586 121.5 186.18C119.307 192.778 149.721 184.574 143.916 194.492C138.115 204.405 118.677 214.304 117.428 224.8C116.184 235.292 148.762 205.444 148.762 205.444C148.762 205.444 118.162 232.666 127.108 234.379C136.059 236.096 162.672 209.115 162.672 209.115C162.672 209.115 132.269 245.012 141.315 242.427C150.362 239.842 240.872 155.932 254.331 147.483C267.793 139.035 228.321 109.409 228.321 109.409Z" fill="#FFCEB0"/>
<path d="M176.784 154.259C176.784 154.259 195.403 189.515 212.519 193.267C229.633 197.018 266.605 163.551 274.672 146.974C282.742 130.4 243.411 80.2434 234.994 73.0294C222.835 71.545 168.152 122.832 176.784 154.259Z" fill="#69390D"/>
<path d="M61.2549 58.0002C61.2549 58.0002 122.493 118.353 119.591 134.024C116.693 149.697 93.3096 168.472 74.451 174.621C55.5924 180.766 14.3637 156.01 14.3637 137.956C11.3573 107.296 26.9886 75.4343 61.2549 58.0002Z" fill="#202B6D"/>
<defs>
<linearGradient id="paint0_linear" x1="11.2362" y1="202.266" x2="26.9514" y2="256.833" gradientUnits="userSpaceOnUse">
<stop stop-color="#FFD0D0"/>
<stop offset="1" stop-color="#FFF8F8"/>
</linearGradient>
<linearGradient id="paint1_linear" x1="304.772" y1="56.3419" x2="128.881" y2="15.7263" gradientUnits="userSpaceOnUse">
<stop stop-color="#FFF8F8"/>
<stop offset="1" stop-color="#FFD0D0"/>
</linearGradient>
<linearGradient id="paint2_linear" x1="267.458" y1="58.2744" x2="207.112" y2="32.4996" gradientUnits="userSpaceOnUse">
<stop stop-color="#FFD0D0"/>
<stop offset="1" stop-color="#FFF7F7"/>
</linearGradient>
<linearGradient id="paint3_linear" x1="253.838" y1="228.246" x2="11.2439" y2="87.7602" gradientUnits="userSpaceOnUse">
<stop stop-color="#FFCFCF"/>
<stop offset="1" stop-color="#FFF8F8"/>
</linearGradient>
</defs>
</svg>
