<svg width="296" height="373" viewBox="0 0 296 373" fill="none" xmlns="http://www.w3.org/2000/svg">
<path d="M124.137 146.385C123.969 146.385 123.799 146.329 123.654 146.212C123.522 146.104 120.393 143.521 118.004 138.252C115.812 133.42 113.866 125.32 117.035 114.152C119.184 106.576 121.337 101.19 123.236 96.4358C126.684 87.8096 129.176 81.5771 129.378 68.364C129.384 67.9119 129.703 67.5239 130.175 67.5551C130.611 67.5633 130.957 67.9349 130.951 68.3903C130.745 81.919 128.072 88.6053 124.688 97.0704C122.803 101.785 120.669 107.129 118.543 114.62C112.765 134.98 124.502 144.818 124.622 144.913C124.963 145.193 125.025 145.709 124.759 146.067C124.603 146.276 124.372 146.385 124.137 146.385Z" fill="black"/>
<path d="M188.596 16.5528C188.478 25.5095 181.435 32.6725 172.863 32.5492C164.292 32.4259 157.44 25.0656 157.556 16.1073C157.674 7.15059 164.719 -0.010814 173.289 0.110844C181.86 0.234146 188.714 7.59612 188.596 16.5528Z" fill="black"/>
<path d="M122.636 140.591C122.636 140.591 127.41 150.289 146.079 153.279C164.746 156.268 179.176 148.876 193.651 153.96C208.125 159.045 228.697 151.443 232.663 145.039C236.631 138.636 234.183 68.8681 222.601 57.447C211.02 46.0259 151.509 37.7301 138.971 51.7422C126.433 65.7559 114.308 132.933 122.636 140.591Z" fill="black"/>
<path d="M228.713 82.8699C228.326 112.388 205.114 135.99 176.867 135.586C148.621 135.181 126.037 110.922 126.424 81.4034C126.812 51.8848 150.024 28.2831 178.27 28.6875C206.516 29.0936 229.1 53.3513 228.713 82.8699Z" fill="black"/>
<path d="M135.774 81.1679C135.774 81.1679 139.35 145.98 181.378 147.74C223.405 149.499 221.286 58.1087 205.902 49.7915C190.518 41.476 127.182 44.6802 135.774 81.1679Z" fill="#FFCEB0"/>
<path d="M179.174 93.9851C179.174 93.9851 187.642 113.751 185.609 115.126C183.577 116.498 177.536 116.413 175.876 114.986C174.217 113.559 175.845 91.833 179.174 93.9851Z" fill="#F5A473"/>
<path d="M166.758 100.978C166.703 103.254 164.894 105.052 162.717 104.995C160.539 104.939 158.818 103.048 158.873 100.773C158.927 98.4975 160.736 96.699 162.915 96.7549C165.092 96.8124 166.813 98.703 166.758 100.978Z" fill="#41294A"/>
<path d="M200.567 98.1981C200.511 100.473 198.702 102.272 196.525 102.214C194.348 102.159 192.627 100.268 192.682 97.9926C192.735 95.7173 194.545 93.9187 196.723 93.9746C198.901 94.0321 200.622 95.9228 200.567 98.1981Z" fill="#41294A"/>
<path d="M168.028 45.7565C168.028 45.7565 153.154 53.735 150.617 68.0808C148.078 82.4266 150.389 118.942 134.409 117.661C134.409 117.661 101.898 46.0886 168.028 45.7565Z" fill="#41294A"/>
<path d="M175.966 45.8697C174.624 46.9252 191.502 46.4632 201.431 58.4499C211.36 70.4365 214.346 100.935 215.852 101.464C217.357 101.995 222.443 63.4181 211.601 52.1351C200.759 40.8538 183.602 39.8641 175.966 45.8697Z" fill="#41294A"/>
<path d="M212.291 104.16C212.291 104.16 215.939 87.8215 223.078 93.4276C230.217 99.0338 224.263 116.16 217.371 117.871C210.48 119.583 208.656 112.625 212.291 104.16Z" fill="#FFCEB0"/>
<path d="M146.048 103.211C146.048 103.211 142.83 86.7738 135.546 92.1728C128.264 97.5718 133.767 114.864 140.61 116.772C147.455 118.679 149.46 111.778 146.048 103.211Z" fill="#FFCEB0"/>
<path d="M194.719 83.6603C194.719 83.6603 202.141 79.5683 206.714 85.4473C210.736 90.6162 201.556 86.4272 198.176 87.0963C194.796 87.767 190.331 87.4744 194.719 83.6603Z" fill="#41294A"/>
<path d="M165.222 85.1505C165.222 85.1505 157.61 81.4596 153.329 87.5738C149.565 92.9514 158.528 88.2774 161.937 88.7673C165.345 89.2556 169.791 88.7246 165.222 85.1505Z" fill="#41294A"/>
<path d="M192.023 127.204C192.023 127.204 187.181 119.557 181.943 120.039C176.702 120.522 172.686 127.57 171.981 127.866C171.981 127.866 180.159 131.879 192.023 127.204Z" fill="#41294A"/>
<path d="M162.575 91.8021C156.02 91.8021 150.613 97.3786 150.522 104.231C150.479 107.595 151.691 110.777 153.937 113.191C156.183 115.603 159.193 116.956 162.413 117.002L162.581 117.003C169.137 117.003 174.544 111.429 174.633 104.576C174.725 97.6302 169.392 91.9007 162.743 91.8037L162.575 91.8021ZM162.581 118.647L162.391 118.646C158.751 118.595 155.348 117.063 152.809 114.337C150.27 111.609 148.9 108.012 148.949 104.208C149.051 96.4613 155.164 90.158 162.575 90.158L162.765 90.1597C170.28 90.2682 176.309 96.7457 176.206 104.598C176.106 112.344 169.993 118.647 162.581 118.647Z" fill="#FFFCF6"/>
<path d="M196.624 88.9544C190.067 88.9544 184.66 94.531 184.571 101.383C184.479 108.328 189.814 114.059 196.46 114.154L196.629 114.156C203.186 114.156 208.592 108.581 208.682 101.729C208.726 98.3632 207.513 95.1804 205.268 92.7669C203.022 90.3568 200.013 89.0021 196.792 88.9561L196.624 88.9544ZM196.629 115.8L196.44 115.798C188.923 115.69 182.895 109.212 182.997 101.36C183.1 93.6136 189.211 87.3104 196.624 87.3104L196.814 87.312C200.455 87.363 203.857 88.8952 206.395 91.621C208.935 94.3485 210.306 97.9456 210.255 101.75C210.153 109.497 204.04 115.8 196.629 115.8Z" fill="#FFFCF6"/>
<path d="M150.073 102.167C149.984 102.167 149.891 102.151 149.803 102.118L144.758 100.181C144.35 100.023 144.141 99.5513 144.29 99.1239C144.44 98.6997 144.895 98.4844 145.3 98.6373L150.344 100.572C150.753 100.73 150.961 101.202 150.811 101.629C150.695 101.961 150.394 102.167 150.073 102.167Z" fill="#FFFCF6"/>
<path d="M208.904 98.4316C208.569 98.4316 208.257 98.2064 208.154 97.8546C208.023 97.4222 208.254 96.9602 208.67 96.8238L215.565 94.5747C215.977 94.4366 216.421 94.6816 216.55 95.114C216.68 95.548 216.449 96.0083 216.034 96.1448L209.138 98.3955C209.061 98.4201 208.981 98.4316 208.904 98.4316Z" fill="#FFFCF6"/>
<path d="M175.72 60.9415C175.72 60.9415 175.734 77.3375 185.081 80.2984C194.425 83.2609 218.464 81.9539 218.22 77.9474C216.02 41.7738 199.749 43.5937 186.16 38.9641C162.328 30.8476 142.837 71.5127 145.755 81.1237C148.673 90.733 168.787 81.7599 173.093 80.4085C177.397 79.0555 175.012 67.9139 175.72 60.9415Z" fill="black"/>
<g opacity="0.210007">
<g opacity="0.210007">
<path opacity="0.210007" d="M151.62 116.317C151.62 116.317 172.821 103.533 182.126 105.32C191.431 107.109 207.762 107.388 208.501 110.877C209.242 114.364 187.797 112.792 181.201 113.463C174.605 114.134 149.282 122.069 151.62 116.317Z" fill="#DB5C5D"/>
</g>
</g>
<path d="M163.485 107.763C163.175 107.763 162.881 107.57 162.756 107.25C162.593 106.831 162.786 106.35 163.189 106.179C165.321 105.272 165.715 104.557 165.719 104.55C165.859 104.12 166.29 103.919 166.705 104.072C167.116 104.218 167.322 104.718 167.182 105.149C167.083 105.451 166.546 106.526 163.78 107.702C163.683 107.743 163.584 107.763 163.485 107.763Z" fill="#DB5C5D"/>
<path d="M195.876 106.022C195.242 106.022 194.172 105.822 192.492 104.965C192.1 104.768 191.938 104.277 192.129 103.867C192.317 103.459 192.791 103.292 193.179 103.489C195.251 104.543 196.022 104.367 196.032 104.367C196.433 104.191 196.861 104.397 197.03 104.814C197.2 105.232 196.983 105.725 196.582 105.904C196.478 105.95 196.255 106.022 195.876 106.022Z" fill="#DB5C5D"/>
<path d="M175.408 104.654C175.01 104.654 174.667 104.34 174.626 103.916C174.582 103.464 174.897 103.06 175.329 103.015L183.771 102.114C184.194 102.058 184.589 102.395 184.633 102.848C184.677 103.3 184.362 103.704 183.93 103.748L175.488 104.649C175.462 104.653 175.435 104.654 175.408 104.654Z" fill="#FFFCF6"/>
<path d="M163.72 32.3281C163.605 32.3281 163.487 32.3018 163.377 32.2443C158.914 29.9772 156.214 26.7434 155.349 22.6316C153.43 13.5023 161.234 3.40141 161.568 2.9756C161.845 2.62378 162.339 2.57281 162.674 2.86052C163.01 3.14823 163.061 3.66445 162.785 4.01627C162.708 4.11491 155.129 13.9347 156.886 22.2831C157.643 25.8769 160.058 28.731 164.064 30.7679C164.455 30.9652 164.618 31.4584 164.428 31.8662C164.293 32.1571 164.012 32.3281 163.72 32.3281Z" fill="black"/>
<path d="M181.682 34.7715C181.463 34.7715 181.246 34.6761 181.09 34.492C180.804 34.15 180.835 33.6322 181.162 33.3313C181.254 33.2475 190.274 24.8646 189.852 16.3271C189.672 12.6527 187.738 9.42217 184.106 6.72432C183.752 6.46292 183.668 5.94998 183.92 5.57843C184.172 5.21017 184.663 5.12303 185.017 5.38608C189.061 8.38808 191.218 12.0428 191.424 16.2482C191.88 25.5814 182.596 34.2043 182.199 34.5676C182.05 34.7041 181.866 34.7715 181.682 34.7715Z" fill="black"/>
<path d="M228.47 142.705C228.242 142.705 228.015 142.603 227.86 142.401C227.586 142.051 227.636 141.533 227.973 141.245C228.077 141.156 238.423 132.126 235.427 117.839C234.272 112.332 232.247 106.272 230.103 99.8567C226.386 88.7315 222.541 77.2266 222.228 66.0735C222.215 65.6181 222.558 65.2416 222.992 65.2268C223.4 65.2416 223.788 65.5704 223.801 66.0242C224.108 76.9241 227.91 88.3074 231.588 99.3142C233.748 105.779 235.788 111.883 236.964 117.486C240.171 132.783 229.079 142.426 228.966 142.521C228.819 142.644 228.645 142.705 228.47 142.705Z" fill="black"/>
<path d="M231.264 83.9912C231.239 83.9912 231.212 83.9896 231.185 83.9879C230.754 83.9435 230.438 83.5407 230.481 83.0886C231.84 68.705 228.944 57.0307 221.876 48.3848C210.494 34.4681 192.003 33.1907 191.819 33.1791C191.385 33.1528 191.053 32.7648 191.08 32.3095C191.103 31.8573 191.476 31.4989 191.909 31.5384C192.102 31.5499 211.26 32.8717 223.071 47.3162C230.429 56.3156 233.449 68.4058 232.046 83.2498C232.007 83.6756 231.664 83.9912 231.264 83.9912Z" fill="black"/>
<path d="M174.927 128.827C174.927 128.827 182.766 123.079 189.766 128.006C189.766 128.006 181.592 131.207 174.927 128.827Z" fill="#DB5C5D"/>
<path d="M180.113 134.727C179.339 134.727 178.674 134.718 178.263 134.712C177.829 134.705 177.483 134.332 177.489 133.877C177.496 133.423 177.793 133.055 178.289 133.068C181.259 133.109 184.808 133.033 185.36 132.815C185.764 132.653 186.22 132.864 186.376 133.286C186.532 133.711 186.334 134.182 185.929 134.347C185.143 134.666 182.223 134.727 180.113 134.727Z" fill="#DB5C5D"/>
<path d="M141.961 112.23C141.89 112.23 141.819 112.221 141.748 112.199C141.33 112.078 141.086 111.625 141.202 111.187C143.354 103.126 137.641 97.9356 137.583 97.883C137.252 97.5904 137.211 97.0709 137.493 96.724C137.773 96.3787 138.27 96.336 138.602 96.6319C138.869 96.8686 145.138 102.565 142.717 111.63C142.62 111.992 142.305 112.23 141.961 112.23Z" fill="#DB5C5D"/>
<path d="M215.355 114.194C215.337 114.194 215.321 114.194 215.303 114.193C214.87 114.163 214.541 113.772 214.568 113.32C215.156 103.779 219.531 98.6796 219.718 98.4675C220.011 98.1322 220.508 98.1091 220.827 98.4149C221.148 98.7207 221.17 99.2402 220.879 99.5756C220.837 99.6249 216.689 104.496 216.14 113.425C216.111 113.861 215.765 114.194 215.355 114.194Z" fill="#DB5C5D"/>
<path d="M199.559 141.031C199.559 141.031 202.06 170.274 198.741 174.898C195.421 179.525 174.398 176.054 168.865 174.898C163.332 173.743 163.321 125.379 164.438 128.645C173.676 155.626 198.922 131.749 199.559 141.031Z" fill="#FFCEB0"/>
<path d="M166.439 143.924C166.439 143.924 181.354 151.416 198.309 142.347C198.309 142.347 199.627 153.241 198.309 155.753C196.992 158.265 170.134 160.06 164.847 147.679C164.847 147.679 164.913 143.386 166.439 143.924Z" fill="#F5A473"/>
<path d="M84.9873 373H278C278 373 287.859 197.628 263.681 178.557C239.502 159.485 133.064 169.012 108.006 185.303C82.9469 201.593 84.9873 373 84.9873 373Z" fill="#E98F27"/>
<path d="M181.353 171.433C181.353 171.433 173.914 238.845 177.16 248.227C180.406 257.61 176.248 299.209 174.927 304.616C173.604 310.023 133.503 312.32 123.154 307.994C112.806 303.669 125.791 187.072 131.583 165.501C137.377 143.928 180.716 156.638 181.353 171.433Z" fill="#202B6D"/>
<path d="M63.5879 88.8387C63.5879 88.8387 79.7205 121.129 91.0267 121.428C102.334 121.728 140.464 73.2007 154.524 72.7009C168.584 72.2027 180.658 73.6281 180.713 70.1263C180.768 66.6229 161.158 62.7989 161.158 62.7989C161.158 62.7989 189.518 64.6862 183.652 61.4442C177.787 58.2022 163.733 55.2873 163.733 55.2873C163.733 55.2873 184.116 56.1471 184.264 53.8685C184.412 51.5899 163.042 48.2344 163.042 48.2344C163.042 48.2344 189.046 47.3664 184.291 43.6278C179.533 39.8893 170.581 41.512 146.365 45.3771C122.148 49.2422 67.3619 83.0287 63.5879 88.8387Z" fill="#FFCEB0"/>
<path d="M91.8915 87.2925C91.8915 87.2925 117.699 103.358 106.462 121.564C94.4966 140.95 95.1668 135.191 93.0981 143.035C91.0279 150.879 125.131 166.155 126.682 172.869C128.233 179.582 112.157 262.143 97.0986 258.755C83.9912 255.807 11.1514 212.609 0.683644 169.44C-7.43065 135.972 58.7091 54.111 91.8915 87.2925Z" fill="#E98F27"/>
<path d="M159.446 275.612C159.446 275.612 130.851 341.442 141.364 350.257C151.877 359.071 160.349 353.328 169.646 359.05C178.945 364.771 187.865 361.91 195.334 356.932C202.803 351.952 183.364 286.459 175.324 280.223C167.283 273.986 160.895 272.19 159.446 275.612Z" fill="white"/>
<path d="M254.454 173.872C254.454 173.872 269.83 175.834 281.899 198.933C290.954 216.263 308.497 317.532 281.899 331.962C255.302 346.39 230.355 338.842 220.702 329.119C211.047 319.396 228.224 269.285 239.674 265.544C251.125 261.805 254.454 173.872 254.454 173.872Z" fill="#E98F27"/>
<path d="M259.432 172.32C259.432 172.32 260.151 167.638 238.009 157.624C220.339 149.633 205.204 163.12 178.252 164.572C151.299 166.025 153.731 154.861 134.666 160.049C105.245 168.054 128.669 188.208 138.149 190.471C147.629 192.733 179.389 248.529 259.432 172.32Z" fill="#202B6D"/>
<path d="M182.157 116.052C182.157 116.052 182.075 117.959 183.123 118.132C184.17 118.305 186.107 117.693 185.608 115.124C185.608 115.124 182.981 116.006 182.157 116.052Z" fill="white"/>
<path d="M291.295 274.02C291.221 274.02 291.146 274.015 291.07 274.003C290.343 273.895 289.805 273.283 289.728 272.555C288.418 270.971 279.619 267.655 273.75 265.443C262.121 261.058 256.906 258.89 255.785 256.517C254.833 254.507 255.259 251.606 255.799 247.935C256.653 242.125 257.718 234.892 254.188 227.924C248.092 215.892 248.672 198.044 248.701 197.291C248.735 196.383 249.486 195.657 250.332 195.711C251.2 195.746 251.877 196.51 251.845 197.416C251.838 197.593 251.271 215.142 256.969 226.385C260.985 234.316 259.785 242.476 258.909 248.433C258.489 251.286 258.094 253.98 258.605 255.061C259.559 256.598 268.741 260.06 274.816 262.35C288.509 267.512 293.263 269.589 292.849 272.609C292.738 273.429 292.064 274.02 291.295 274.02Z" fill="#A98384"/>
<path d="M250.251 260.503C250.114 260.503 249.975 260.485 249.835 260.445C244.638 258.964 236.563 257.422 236.483 257.406C235.627 257.244 235.06 256.388 235.216 255.495C235.372 254.601 236.188 253.999 237.046 254.172C237.381 254.234 245.333 255.753 250.663 257.272C251.501 257.512 251.995 258.415 251.767 259.291C251.577 260.023 250.943 260.503 250.251 260.503Z" fill="#A98384"/>
<path d="M278.509 341.823C278.484 341.823 278.46 341.823 278.436 341.822C249.318 340.442 220.306 327.479 218.737 315.149C218.245 311.274 217.889 309.336 217.669 308.377C217.081 308.071 216.724 307.417 216.829 306.702C217.029 305.347 217.907 304.867 218.603 304.867H218.621C220.205 304.885 220.73 305.855 221.857 314.716C223.074 324.288 249.487 337.159 278.578 338.537C279.446 338.578 280.118 339.346 280.079 340.253C280.041 341.136 279.344 341.823 278.509 341.823Z" fill="#A98384"/>
<path d="M226.309 312.726C226.194 312.726 226.078 312.712 225.96 312.686C225.113 312.486 224.582 311.604 224.774 310.718C224.841 310.401 231.722 278.704 238.153 255.903C238.399 255.032 239.28 254.532 240.107 254.792C240.941 255.048 241.417 255.962 241.17 256.833C234.768 279.533 227.91 311.128 227.843 311.445C227.676 312.208 227.028 312.726 226.309 312.726Z" fill="#A98384"/>
<path d="M89.8075 243.884C89.7304 243.884 89.6502 243.877 89.5715 243.866C88.7126 243.731 88.1211 242.892 88.2501 241.996C88.4121 240.862 92.2962 214.073 97.626 201.537C102.808 189.355 105.46 177.003 105.487 176.88C105.673 175.994 106.511 175.44 107.364 175.63C108.212 175.827 108.747 176.707 108.558 177.593C108.449 178.109 105.81 190.39 100.502 202.873C95.345 215.001 91.3995 242.21 91.3602 242.483C91.2438 243.3 90.572 243.884 89.8075 243.884Z" fill="#A98384"/>
<path d="M65.8264 150.351C61.6387 150.351 56.946 150.084 51.7798 149.397C50.9177 149.282 50.3073 148.46 50.4174 147.559C50.526 146.658 51.333 146.032 52.1762 146.135C67.9077 148.23 79.0833 146.301 84.8442 144.988C81.9747 144.029 77.9554 143.095 73.9438 143.324C64.9171 143.768 51.709 135.341 51.1505 134.979C50.4111 134.502 50.183 133.489 50.6393 132.717C51.0955 131.944 52.0661 131.702 52.8039 132.182C52.9329 132.265 65.754 140.45 73.7818 140.039C81.4289 139.618 90.4855 143.178 91.3082 144.705C91.6024 145.249 91.5788 145.956 91.2437 146.474C90.9322 146.952 90.2873 147.24 89.7209 147.204C89.4724 147.234 88.7361 147.418 88.0204 147.595C84.5799 148.457 76.9973 150.349 65.8264 150.351Z" fill="#A98384"/>
<path d="M104.496 115.016C103.911 115.016 103.349 114.674 103.078 114.088C103.039 114.005 99.1109 105.666 92.4219 102.362C84.8284 98.6082 76.2405 85.5266 75.8787 84.9726C75.3895 84.2213 75.5751 83.1971 76.2925 82.6874C77.013 82.1778 77.9899 82.3734 78.4776 83.1198C78.5625 83.248 86.9458 96.0156 93.7685 99.3875C101.477 103.2 105.734 112.273 105.912 112.656C106.289 113.475 105.96 114.455 105.179 114.85C104.958 114.963 104.726 115.016 104.496 115.016Z" fill="#A98384"/>
<path d="M177.568 210.559C177.51 210.559 177.45 210.552 177.392 210.537C176.969 210.437 176.703 209.995 176.8 209.554C176.838 209.38 180.59 192.239 181.688 183.532C183.398 169.958 177.581 165.223 177.523 165.177C177.175 164.904 177.102 164.391 177.36 164.028C177.618 163.663 178.106 163.585 178.455 163.853C178.728 164.062 185.089 169.127 183.247 183.746C182.141 192.532 178.372 209.748 178.334 209.919C178.251 210.302 177.927 210.559 177.568 210.559Z" fill="#08824F"/>
<path d="M131.173 185.838L129.611 185.649C129.611 185.649 130.832 174.55 131.469 169.093C132.113 163.589 133.615 159.831 133.679 159.673C133.848 159.252 134.31 159.062 134.71 159.234C135.109 159.412 135.297 159.895 135.128 160.313C135.113 160.349 133.645 164.031 133.031 169.294C132.394 174.746 131.173 185.836 131.173 185.838Z" fill="#08824F"/>
<path d="M175.843 368.096C166.871 368.096 161.938 367.787 155.11 367.359C146.327 366.808 134.301 366.055 106.195 365.598C105.326 365.585 104.633 364.839 104.647 363.93C104.661 363.022 105.425 362.266 106.243 362.31C134.418 362.767 146.486 363.525 155.297 364.078C162.071 364.5 166.964 364.808 175.843 364.808C186.957 364.808 196.927 363.535 206.571 362.305C215.036 361.224 223.031 360.204 231.6 360.005C249.878 359.585 263.538 360.004 263.673 360.005C264.541 360.035 265.224 360.793 265.197 361.699C265.171 362.606 264.437 363.279 263.579 363.293C263.443 363.289 249.861 362.868 231.67 363.293C223.257 363.487 215.336 364.499 206.952 365.569C197.215 366.812 187.149 368.096 175.843 368.096Z" fill="#A98384"/>
<path d="M247.108 346.16C246.326 346.16 245.543 345.794 244.86 344.715C242.735 341.36 242.093 341.083 237.984 341.744C234.266 342.351 232.799 339.597 231.826 337.777C231.502 337.169 231.194 336.595 230.925 336.373C230.201 335.776 228.394 336.493 227.629 336.934L226.866 335.497C227.2 335.303 230.164 333.651 231.9 335.083C232.415 335.508 232.778 336.189 233.2 336.975C234.139 338.729 235.111 340.536 237.743 340.12C242.447 339.36 243.704 339.914 246.172 343.808C246.826 344.843 247.393 344.702 249.137 343.638C250.462 342.826 252.471 341.601 253.968 343.788L252.691 344.745C252.107 343.898 251.579 344.051 249.93 345.057C249.142 345.539 248.126 346.16 247.108 346.16Z" fill="white"/>
<path d="M228.804 268.732C228.804 268.732 191.228 254.532 174.926 261.796C158.623 269.057 145.188 287.78 147.677 289.018C150.166 290.257 163.484 279.463 163.484 279.463C163.484 279.463 149.903 293.805 152.422 295.24C154.94 296.676 168.027 289.018 168.027 289.018C168.027 289.018 158.892 299.224 162.816 300.005C166.739 300.786 175.151 292.376 183.922 292.061C192.696 291.743 203.752 298.989 214.72 301.029C225.686 303.067 228.804 268.732 228.804 268.732Z" fill="#FFCEB0"/>
<path d="M285.513 261.372C285.415 261.372 285.317 261.362 285.218 261.342C285.108 261.323 274.043 259.136 260.814 256.325C259.963 256.144 259.412 255.276 259.586 254.387C259.757 253.497 260.586 252.922 261.44 253.104C274.647 255.909 285.693 258.091 285.804 258.114C286.658 258.281 287.218 259.141 287.056 260.034C286.914 260.823 286.253 261.372 285.513 261.372Z" fill="#A98384"/>
</svg>
