<svg width="769" height="704" viewBox="0 0 769 704" fill="none" xmlns="http://www.w3.org/2000/svg">
<path d="M265.819 566.047C228.756 577.059 191.272 582.015 151.168 575.259C106.467 567.726 67.4316 534.855 45.2333 502.183C36.9855 490.047 30.3803 476.504 31.0859 462.596C32.7301 430.466 68.2442 427.104 98.4729 432.497C115.513 435.53 131.199 442.286 146.707 448.977C172.454 460.093 202.582 465.672 225.719 480.998C233.483 486.156 239.337 492.33 248.336 496.104C262.335 501.979 278.276 504.813 292.648 510.17C304.918 514.767 318.658 522.287 318.79 533.66C318.91 545.323 304.738 552.664 292.267 557.227C283.44 560.478 274.649 563.437 265.819 566.047Z" fill="url(#paint0_linear)"/>
<path d="M128.646 151.538C188.717 75.2365 314.214 45.2545 416.477 74.7487C465.789 88.9782 507.29 118.213 545.601 148.53C579.371 175.251 612.162 204.049 635.384 238.269C651.24 261.628 662.702 289.579 670.859 315.657C683.055 354.704 672.837 404.849 613.907 400.789C600.081 399.838 588.084 395.511 575.124 391.709C564.641 388.627 554.415 390.369 543.547 388.826C516.192 384.95 489.789 376.176 464.802 365.939C413.881 345.056 367.26 316.831 314.923 298.481C272.032 283.463 226.31 275.557 180.223 275.19C160.78 275.037 140.348 276.069 122.881 268.52C79.8303 249.897 98.6109 200.552 114.341 172.827C118.508 165.442 123.289 158.328 128.646 151.538Z" fill="url(#paint1_linear)"/>
<path d="M607.944 165.672C618.021 173.471 657.517 194.837 658.024 170.066C658.14 163.894 654.802 157.88 650.295 153.331C645.139 148.11 639.325 145.351 635.279 139.281C630.328 131.951 624.708 125.056 618.49 118.684C605.777 105.424 590.966 93.1531 573.089 87.6129C560.551 83.7316 539.396 84.551 533.596 98.1947C525.145 118.056 562.171 121.944 573.525 129.275C584.299 136.215 590.481 148.059 599.056 157.496C601.765 160.472 604.741 163.209 607.944 165.672Z" fill="url(#paint2_linear)"/>
<path d="M419.031 140.101C440.337 150.91 456.399 166.988 475.855 179.978C508.248 201.602 552.397 206.268 589.447 221.4C627.225 236.839 655.874 260.638 669.062 294.759C686.097 338.8 688.199 391.058 674.553 436.134C659.524 485.751 623.392 518.541 570.299 540.222C517.236 561.889 458.313 571.78 399.463 573.519C393.784 573.691 388.114 573.767 382.42 573.761C254.534 573.57 83.9139 533.977 39.1929 416.214C38.783 415.138 38.3898 414.062 37.9952 412.971C33.3772 399.853 30.6037 386.335 29.7339 372.705C26.5105 324.385 35.8619 271.134 55.2117 225.981C68.2258 195.582 96.6496 169.99 126.689 151.819C168.894 126.291 220.64 120.04 272.178 117.277C310.341 115.233 353.28 114.673 389.516 127.396C399.7 131 409.566 135.247 419.031 140.101Z" fill="url(#paint3_linear)"/>
<path d="M429.168 561.411C284.317 601.841 163.608 562.855 121.359 538.308L82.1289 509.43L95.7087 487.771L180.205 480.551L320.53 473.332L433.694 494.99L551.386 457.448H559.887C541.781 516.361 466.387 551.304 429.168 561.411Z" fill="#3B499A"/>
<path d="M497.462 274C497.462 274 627.954 279 659.39 394.5C684.302 543.5 566.873 490.804 538.796 483.46C510.726 476.116 410.634 285.402 497.462 274Z" fill="#202B6D"/>
<path d="M170.132 506.307H568.716C568.716 506.307 582.671 313.122 531.892 284.853C481.119 256.591 243.663 262.493 191.034 286.634C138.405 310.781 170.132 506.307 170.132 506.307Z" fill="#3B499A"/>
<path d="M231.096 257.758C230.645 257.758 230.188 257.659 229.773 257.448C228.554 256.847 200.068 242.123 207.417 204.233C209.986 190.981 213.116 181.43 215.88 172.993C220.852 157.814 224.447 146.844 221.545 124.747C221.393 123.544 222.418 122.464 223.844 122.33C225.264 122.254 226.552 123.065 226.712 124.268C229.724 147.2 225.818 159.099 220.887 174.161C218.158 182.48 215.069 191.921 212.542 204.94C205.761 239.911 232.148 253.548 232.418 253.689C233.651 254.302 234.06 255.644 233.326 256.684C232.848 257.378 231.982 257.758 231.096 257.758Z" fill="#000C3E"/>
<path d="M332.765 24.3979C334.787 39.4779 321.919 53.0808 304.03 54.7856C286.141 56.4903 270.004 45.643 267.981 30.563C265.966 15.483 278.827 1.88003 296.716 0.175291C314.606 -1.52362 330.743 9.31787 332.765 24.3979Z" fill="#000C3E"/>
<path d="M226.703 247.546C226.703 247.546 239.1 262.778 278.757 263.648C318.407 264.512 346.602 248.877 378.045 254.196C409.481 259.515 450.426 242.158 457.067 230.511C463.716 218.869 440.972 102.164 413.955 85.549C386.937 68.9336 260.847 68.2505 238.269 94.5923C215.691 120.934 207.415 236.536 226.703 247.546Z" fill="#000C3E"/>
<path d="M433.117 126.913C439.773 176.607 397.381 221.444 338.429 227.055C279.477 232.665 226.287 196.93 219.631 147.235C212.976 97.5409 255.368 52.7037 314.32 47.0933C373.272 41.4828 426.462 77.2182 433.117 126.913Z" fill="#000C3E"/>
<path d="M383.958 209.743C383.958 209.743 403.343 278.592 397.837 287.221C392.331 295.844 347.633 295.593 335.804 295.12C323.967 294.641 305.836 219.691 312.727 218.809C319.618 217.934 379.851 194.365 383.958 209.743Z" fill="#FFCEB0"/>
<path d="M239.05 144.754C239.05 144.754 262.888 252.883 350.894 246.473C438.906 240.068 411.376 86.9507 377.226 76.407C343.075 65.8574 211.922 85.3452 239.05 144.754Z" fill="#FFCEB0"/>
<path d="M332.717 156.626C332.717 156.626 355.357 187.959 351.472 190.72C347.586 193.482 334.975 194.679 331.159 192.653C327.342 190.621 325.237 153.747 332.717 156.626Z" fill="#EE9B68"/>
<path d="M297.298 78.0591C297.298 78.0591 268.327 94.7796 266.665 119.457C265.003 144.13 279.055 204.981 245.438 206.388C245.438 206.388 159.6 93.3492 297.298 78.0591Z" fill="#000C3E"/>
<path d="M313.866 76.4814C311.338 78.5539 346.382 74.0177 370.103 91.9525C393.817 109.887 407.751 160.475 411.02 161.03C414.296 161.584 415.134 95.6189 389.696 79.0735C364.251 62.5281 328.258 64.6883 313.866 76.4814Z" fill="#000C3E"/>
<path d="M317.859 240.548C317.859 240.548 354.684 252.487 387.179 232.813C387.179 232.813 393.184 250.712 391.196 255.266C389.215 259.826 333.983 269.932 319.286 250.59C319.286 250.59 314.528 240.052 317.859 240.548Z" fill="#EE9B68"/>
<path d="M404.288 166.35C404.288 166.35 407.758 138.082 424.047 145.911C440.343 153.74 432.261 183.853 418.34 188.261C404.412 192.674 398.851 181.389 404.288 166.35Z" fill="#FFCEB0"/>
<path d="M266.031 179.511C266.031 179.511 255.172 152.603 241.362 163.298C227.552 173.994 243.391 201.83 258.129 203.512C272.874 205.193 275.305 193.149 266.031 179.511Z" fill="#FFCEB0"/>
<path d="M362.307 137.218C362.307 137.218 375.307 127.188 387.593 134.778C398.39 141.451 377.606 138.695 371.075 141.305C364.551 143.915 355.326 145.433 362.307 137.218Z" fill="#41294A"/>
<path d="M302.339 146.832C302.339 146.832 286.874 139.704 277.094 149.541C268.493 158.194 287.899 151.34 294.977 152.56C302.055 153.786 311.439 153.406 302.339 146.832Z" fill="#41294A"/>
<path d="M300.807 156.548C299.858 156.548 298.909 156.595 297.947 156.682C284.116 158.007 274.129 168.569 275.687 180.222C277.246 191.781 289.663 200.311 303.598 198.98C310.302 198.338 316.307 195.541 320.511 191.098C324.715 186.65 326.612 181.092 325.857 175.446C324.41 164.675 313.647 156.548 300.807 156.548ZM300.738 202.033C286.138 202.033 273.887 192.797 272.252 180.549C270.472 167.296 281.83 155.287 297.552 153.786C313.55 152.216 327.533 161.972 329.293 175.119C330.158 181.541 327.997 187.864 323.219 192.914C318.44 197.97 311.611 201.152 303.993 201.876C302.898 201.981 301.811 202.033 300.738 202.033Z" fill="#FFFCF6"/>
<path d="M371.037 144.182C370.081 144.182 369.132 144.229 368.163 144.316C361.459 144.958 355.454 147.755 351.257 152.198C347.046 156.646 345.155 162.204 345.903 167.85C347.462 179.415 359.88 187.933 373.814 186.608C380.518 185.966 386.523 183.169 390.727 178.726C394.931 174.278 396.828 168.72 396.073 163.074C394.626 152.309 383.87 144.182 371.037 144.182ZM370.94 189.661C356.347 189.661 344.103 180.425 342.468 168.177C341.602 161.755 343.763 155.432 348.542 150.382C353.321 145.326 360.157 142.144 367.768 141.42C383.669 139.862 397.749 149.594 399.509 162.747C400.374 169.169 398.214 175.492 393.435 180.548C388.656 185.598 381.827 188.78 374.209 189.504C373.115 189.609 372.027 189.661 370.94 189.661Z" fill="#FFFCF6"/>
<path d="M273.94 176.941C273.809 176.941 273.684 176.93 273.553 176.901L262.555 174.77C261.626 174.594 261.045 173.806 261.259 173.024C261.474 172.236 262.423 171.728 263.33 171.932L274.328 174.063C275.256 174.238 275.838 175.027 275.623 175.809C275.443 176.486 274.73 176.941 273.94 176.941Z" fill="#FFFCF6"/>
<path d="M395.568 157.557C394.91 157.557 394.28 157.236 393.989 156.704C393.594 155.975 393.982 155.105 394.847 154.766L408.65 149.453C409.488 149.115 410.541 149.436 410.943 150.177C411.338 150.907 410.957 151.777 410.084 152.11L396.288 157.428C396.052 157.516 395.81 157.557 395.568 157.557Z" fill="#FFFCF6"/>
<path d="M306.852 71.0072C306.852 71.0072 321.341 129.418 341.557 132.314C361.78 135.21 408.882 127.713 410.011 120.976C411.14 114.245 362.84 67.3583 333.357 62.6061C281.649 54.275 251.328 126.954 259.833 142.455C268.345 157.961 307.988 138.397 316.61 135.169C325.24 131.934 307.143 82.882 306.852 71.0072Z" fill="#000C3E"/>
<path d="M327.359 175.477C326.569 175.477 325.856 175.021 325.676 174.35C325.461 173.562 326.036 172.779 326.964 172.598L344.327 169.2C345.296 168.99 346.197 169.51 346.405 170.286C346.619 171.075 346.044 171.857 345.109 172.038L327.754 175.436C327.615 175.465 327.49 175.477 327.359 175.477Z" fill="#FFFCF6"/>
<path d="M284.721 57.2588C284.444 57.2588 284.167 57.2238 283.89 57.142C273.73 54.2405 267.088 49.2488 264.145 42.2897C257.69 27.0113 271.618 7.98471 272.22 7.17905C272.982 6.15153 274.575 5.83627 275.801 6.49015C277.013 7.1265 277.38 8.48095 276.625 9.50263C276.493 9.68362 263.424 27.5601 269.041 40.8302C271.424 46.4524 276.985 50.5507 285.552 52.9969C286.91 53.3823 287.644 54.6258 287.18 55.7701C286.82 56.6808 285.802 57.2588 284.721 57.2588Z" fill="#000C3E"/>
<path d="M322.76 57.3662C322.151 57.3662 321.534 57.1852 321.043 56.8174C319.969 56.0176 319.865 54.634 320.814 53.729C320.98 53.5714 337.353 37.7441 334.402 23.8785C333.142 17.9936 328.46 13.1888 320.489 9.58668C319.221 9.01454 318.743 7.68928 319.422 6.62674C320.101 5.54667 321.694 5.17303 322.933 5.72182C332.394 9.99536 337.962 15.8452 339.514 23.1137C342.907 39.0694 325.454 55.9183 324.706 56.6306C324.194 57.1152 323.48 57.3662 322.76 57.3662Z" fill="#000C3E"/>
<path d="M447.53 228.326C446.886 228.326 446.242 228.128 445.743 227.719C444.704 226.89 444.663 225.506 445.653 224.625C446.429 223.93 464.706 207.309 455.058 184.446C451.284 175.496 445.542 165.793 439.468 155.512C428.879 137.583 417.922 119.047 414.432 100.248C414.203 99.0514 415.173 97.9304 416.593 97.7495C418.012 97.4868 419.342 98.3741 419.557 99.571C422.923 117.704 433.699 135.931 444.123 153.557C450.266 163.96 456.069 173.78 459.955 182.975C470.697 208.435 450.28 226.872 449.407 227.649C448.901 228.098 448.216 228.326 447.53 228.326Z" fill="#000C3E"/>
<path d="M438.407 128.502C437.008 128.502 435.852 127.562 435.81 126.377C435.014 102.125 426.135 83.3437 409.416 70.5348C382.496 49.9202 344.016 51.8468 343.649 51.8818C342.056 52.0395 340.983 51.047 340.886 49.8443C340.782 48.6417 341.869 47.5966 343.303 47.5149C344.958 47.4156 384.359 45.4307 412.913 67.3004C430.72 80.9326 440.166 100.765 441.004 126.248C441.046 127.457 439.917 128.467 438.483 128.502H438.407Z" fill="#000C3E"/>
<path d="M345.648 226.496C342.629 226.496 340.482 226.052 340.302 226.012C338.91 225.714 338.072 224.534 338.418 223.361C338.764 222.199 340.163 221.493 341.562 221.761C341.631 221.785 349.07 223.273 354.714 219.94C355.905 219.251 357.519 219.49 358.329 220.471C359.154 221.464 358.87 222.83 357.699 223.519C353.641 225.918 349.084 226.496 345.648 226.496Z" fill="#EE9B68"/>
<path d="M259.591 196.388C259.466 196.388 259.341 196.382 259.21 196.364C257.79 196.189 256.813 195.074 257.021 193.877C259.376 180.35 246.66 173.181 246.529 173.117C245.33 172.451 244.998 171.097 245.774 170.081C246.556 169.065 248.163 168.785 249.368 169.445C250.005 169.795 264.993 178.243 262.16 194.519C261.973 195.605 260.865 196.388 259.591 196.388Z" fill="#EE9B68"/>
<path d="M412.997 183.337C411.633 183.337 410.49 182.444 410.407 181.282C409.188 164.842 417.208 155.074 417.548 154.666C418.365 153.691 419.986 153.44 421.163 154.14C422.34 154.835 422.617 156.201 421.8 157.188C421.724 157.275 414.5 166.196 415.588 181.013C415.678 182.222 414.59 183.255 413.157 183.331C413.108 183.337 413.053 183.337 412.997 183.337Z" fill="#EE9B68"/>
<path d="M269.989 291.15C269.989 291.15 328.962 350.583 374.444 334.68C419.918 318.776 462.525 275.667 439.663 269.946C416.801 264.224 234.239 267.237 269.989 291.15Z" fill="#FFCEB0"/>
<path d="M314.383 177.849C315.034 181.469 312.076 184.844 307.782 185.392C303.488 185.935 299.485 183.448 298.834 179.829C298.19 176.209 301.141 172.834 305.435 172.286C309.729 171.743 313.732 174.23 314.383 177.849Z" fill="#41294A"/>
<path d="M388.127 165.894C388.778 169.514 385.821 172.889 381.527 173.437C377.233 173.98 373.23 171.493 372.578 167.873C371.934 164.254 374.885 160.879 379.179 160.33C383.473 159.788 387.476 162.275 388.127 165.894Z" fill="#41294A"/>
<path d="M327.216 218.532C326.808 218.532 326.406 218.45 326.025 218.287C324.758 217.732 324.252 216.419 324.91 215.339C325.284 214.732 334.239 200.311 348.665 198.951C356.858 198.18 364.851 201.712 372.518 209.419C373.439 210.353 373.293 211.731 372.199 212.507C371.105 213.301 369.47 213.161 368.542 212.239C362.053 205.717 355.598 202.687 349.254 203.306C337.598 204.392 329.606 217.213 329.522 217.347C329.065 218.1 328.158 218.532 327.216 218.532Z" fill="#EE9B68"/>
<g filter="url(#filter0_d)">
<ellipse cx="396.73" cy="442.564" rx="109.841" ry="105.44" fill="white"/>
</g>
<path d="M410.044 395.504C410.044 395.504 462.323 454.346 475.401 459.212C488.483 464.081 504.881 462.984 506.315 468.629C507.749 474.277 478.86 464.724 483.469 473.436C488.078 482.151 506.038 492.097 506.122 500.871C506.209 509.647 477.543 482.034 477.543 482.034C477.543 482.034 504.553 507.298 495.609 507.895C486.662 508.492 463.527 483.792 463.527 483.792C463.527 483.792 489.406 516.194 480.827 513.235C472.252 510.275 392.722 432.75 380.458 424.547C368.194 416.346 410.044 395.504 410.044 395.504Z" fill="#E27B5A"/>
<path d="M562.122 409.789C562.122 409.789 502.494 463.42 488.858 467.045C475.222 470.666 459.068 468.058 456.904 473.533C454.744 479.012 484.702 472.2 478.984 480.434C473.27 488.666 454.123 496.885 452.894 505.599C451.668 514.311 483.757 489.528 483.757 489.528C483.757 489.528 453.616 512.131 462.428 513.554C471.244 514.979 497.459 492.576 497.459 492.576C497.459 492.576 467.511 522.382 476.422 520.236C485.333 518.09 574.485 448.417 587.742 441.402C601.002 434.387 562.122 409.789 562.122 409.789Z" fill="#F8B38A"/>
<path d="M511.359 447.027C511.359 447.027 529.699 476.301 546.559 479.416C563.416 482.531 590.17 459.946 598.116 446.182C606.065 432.42 588.306 391.394 572.364 377.439C560.387 376.207 502.857 420.932 511.359 447.027Z" fill="#BB5FB2"/>
<path d="M393.939 361.934C393.939 361.934 457.884 417.215 455.026 430.226C452.171 443.24 429.138 458.83 410.563 463.935C391.987 469.038 349.793 448.251 349.793 433.261C351.632 404.833 370.639 377.957 393.939 361.934Z" fill="#E98F27"/>
<path d="M180.02 425.958C180.02 425.958 321.024 490.913 347.383 490.647C373.74 490.376 400.264 477.982 407.785 486.515C415.302 495.055 358.176 497.654 373.804 509.293C389.423 520.928 428.565 526.032 436.657 540.687C444.74 555.338 371.637 527.52 371.637 527.52C371.637 527.52 439.841 552.467 425.371 559.228C410.897 565.995 349.709 539.495 349.709 539.495C349.709 539.495 422.481 577.141 405.407 577.704C388.334 578.266 184.678 499.548 156.673 493.697C128.663 487.848 180.02 425.958 180.02 425.958Z" fill="#FFC6A6"/>
<path d="M288.805 422.254C288.805 422.254 290.496 477.413 275.467 498.459C239.734 548.5 143.103 542.399 114.292 506.5C85.4812 470.601 148.483 289.36 191.035 286.633C233.587 283.907 288.805 370 288.805 422.254Z" fill="#202B6D"/>
<path d="M316.357 5.66933C315.56 5.66933 314.693 5.74744 313.755 5.90366C311.466 6.29081 309.984 7.22812 309.094 8.85483C305.125 16.0952 313.493 33.3404 319.471 43.5285C323.166 32.2265 327.593 13.3342 321.337 7.38094C320.132 6.23647 318.492 5.66933 316.357 5.66933ZM320.168 52.0322C319.173 52.0322 318.243 51.5805 317.751 50.8334C315.636 47.6377 297.298 19.2569 304.066 6.8987C305.693 3.92715 308.671 1.9982 312.671 1.32578C319.488 0.181308 323.403 2.30384 325.482 4.28374C336.352 14.6281 324.221 46.7955 322.803 50.4293C322.457 51.3089 321.53 51.9337 320.434 52.022C320.346 52.0288 320.257 52.0322 320.168 52.0322Z" fill="#FFD310"/>
<path d="M353.692 17.1531C353.431 17.1531 353.165 17.1666 352.899 17.2006C343.54 18.25 332.232 34.9822 326.253 45.5676C338.682 41.1562 358.394 32.7306 361.013 25.0692C361.601 23.344 361.206 21.8192 359.776 20.2638C357.85 18.1753 355.856 17.1531 353.692 17.1531ZM320.939 52.1797C320.194 52.1797 319.465 51.9284 318.937 51.4597C318.176 50.7873 317.958 49.8025 318.381 48.9467C320.13 45.4182 335.914 14.3989 352.166 12.5718C355.28 12.222 359.885 12.7722 364.147 17.3976C366.653 20.1144 367.41 23.215 366.334 26.3597C361.863 39.4378 325.963 50.7873 321.886 52.0404C321.576 52.1355 321.258 52.1797 320.939 52.1797Z" fill="#FFD310"/>
<path d="M216.494 43.9336C228.308 51.2238 255.311 56.8939 276.406 43.9336" stroke="#FFD310" stroke-width="4.87"/>
<defs>
<filter id="filter0_d" x="206.889" y="261.124" width="379.683" height="370.88" filterUnits="userSpaceOnUse" color-interpolation-filters="sRGB">
<feFlood flood-opacity="0" result="BackgroundImageFix"/>
<feColorMatrix in="SourceAlpha" type="matrix" values="0 0 0 0 0 0 0 0 0 0 0 0 0 0 0 0 0 0 127 0"/>
<feOffset dy="4"/>
<feGaussianBlur stdDeviation="40"/>
<feColorMatrix type="matrix" values="0 0 0 0 0 0 0 0 0 0 0 0 0 0 0 0 0 0 0.22 0"/>
<feBlend mode="normal" in2="BackgroundImageFix" result="effect1_dropShadow"/>
<feBlend mode="normal" in="SourceGraphic" in2="effect1_dropShadow" result="shape"/>
</filter>
<linearGradient id="paint0_linear" x1="27.8305" y1="467.011" x2="56.0256" y2="584.422" gradientUnits="userSpaceOnUse">
<stop stop-color="#FFCCCC"/>
<stop offset="1" stop-color="#FFEEEE"/>
</linearGradient>
<linearGradient id="paint1_linear" x1="748.418" y1="166.712" x2="322.274" y2="55.7559" gradientUnits="userSpaceOnUse">
<stop stop-color="white"/>
<stop offset="1" stop-color="#FFCECE"/>
</linearGradient>
<linearGradient id="paint2_linear" x1="659.04" y1="169.638" x2="517.945" y2="100.267" gradientUnits="userSpaceOnUse">
<stop stop-color="#FFD1D1"/>
<stop offset="1" stop-color="#FFFBFC"/>
</linearGradient>
<linearGradient id="paint3_linear" x1="625.688" y1="525.416" x2="75.6161" y2="156.804" gradientUnits="userSpaceOnUse">
<stop stop-color="#FFCDCD"/>
<stop offset="1" stop-color="#FFF3F3"/>
</linearGradient>
</defs>
</svg>
