<svg width="1050" height="812" viewBox="0 0 1050 812" fill="none" xmlns="http://www.w3.org/2000/svg">
<g opacity="0.67">
<path d="M321.055 365.954L302.92 371.998L320.718 360.812C320.573 359.104 320.393 357.384 320.176 355.65L310.6 357.492L319.663 351.881C317.59 338.513 312.975 321.736 306.643 304.611L271.345 318.235L305.076 300.449C296.219 277.441 284.385 254.264 271.542 238.279L252.57 251.67L267.697 233.741C256.01 220.743 243.668 214.127 232.088 219.242C218.019 225.459 213.987 255.602 218.319 291.95L227.821 291.781L218.531 293.639C220.529 309.547 224.109 326.572 229.133 343.267L265.371 331.036L230.772 348.549C238.425 372.409 249.029 395.244 262.176 412.742L276.464 398.454L264.856 416.189C275.926 429.946 288.684 439.921 302.92 443.684C302.92 443.684 323.064 409.831 321.055 365.954" fill="#152E6D"/>
<path d="M304.996 443.684C304.996 443.684 325.14 409.831 323.131 365.954L304.996 371.998L322.794 360.812C322.648 359.104 322.469 357.384 322.252 355.65L312.676 357.492L321.739 351.881C319.666 338.513 315.051 321.736 308.719 304.612L273.421 318.235L307.152 300.451C298.295 277.441 286.46 254.264 273.618 238.279L254.645 251.672L269.773 233.741C258.086 220.743 245.744 214.127 234.164 219.242C234.164 219.242 286.839 344.814 303.971 443.384C304.314 443.481 304.653 443.592 304.996 443.684Z" fill="#6DB5DE"/>
<path d="M293.668 471.274L280.248 474.406L292.504 467.766C291.243 464.164 289.738 460.408 287.928 456.484C284.201 448.411 278.869 439.174 272.692 430.242L260.619 439.416L269.124 425.243C250.399 399.861 225.785 379.341 213.684 399.307C208.71 407.513 208.382 420.576 211.816 435.26L239.284 434.297L212.803 439.15C215.545 449.171 219.947 459.789 225.749 470.042L235.019 465.872L227.032 472.26C233.146 482.642 240.694 492.561 249.398 500.998L268.299 480.38L252.011 503.455C263.46 513.883 276.759 521.709 291.341 524.756C291.341 524.756 304.614 506.14 293.668 471.274" fill="#0B206B"/>
<path d="M290.26 524.505C290.622 524.588 290.981 524.679 291.345 524.754C291.345 524.754 304.618 506.139 293.671 471.274L280.25 474.406L292.507 467.766C291.246 464.164 289.741 460.409 287.93 456.484C284.204 448.411 278.872 439.174 272.695 430.24L260.622 439.416L269.126 425.243C251.476 401.316 228.597 381.727 215.893 396.28C226.068 410.001 268.941 469.438 290.26 524.505Z" fill="#6DB5DE"/>
<path d="M252.343 509.605C244.851 502.527 231.483 493.84 215.964 485.854C209.234 495.797 201.72 507.027 200.427 509.487C200.243 509.926 200.174 510.077 200.258 509.851C200.287 509.767 200.346 509.643 200.427 509.487C201.516 506.908 206.783 493.924 211.05 483.386C201.74 478.818 191.829 474.574 182.052 471.112L176.73 496.361L179.182 470.116C148.692 459.773 120.263 457.539 116.643 477.566C115.642 483.101 117.583 489.251 121.742 495.688C133.429 495.005 150.334 493.907 150.334 493.907L125.687 501.069C134.727 512.207 149.576 523.913 166.794 534.611L181.585 505.904L169.495 536.263C187.63 547.265 208.102 557.08 227.034 563.943C228.64 556.863 229.814 551.734 229.814 551.734L230.053 565.015C233.697 566.288 237.273 567.441 240.756 568.471L242.322 562.347L243.349 569.216C260.69 574.078 275.435 575.595 283.883 572.069C283.883 572.069 290.601 545.744 252.343 509.605" fill="#00265F"/>
<path d="M357.356 320.595C375.626 275.589 400.616 266.194 410.828 267.123C427.762 264.895 428.652 294.416 426.98 309.455H401.358L426.98 314.468C426.534 338.53 420.11 364.226 416.954 374.067L385.205 367.94L416.954 378.523C408.933 408.823 396.902 436.822 391.889 447.034L359.583 431.995L390.218 450.376L386.319 457.06L377.407 455.389L385.205 459.288C371.391 487.36 345.658 498.835 334.518 501.063C325.16 489.923 322.45 468.571 322.264 459.288L338.974 455.389H322.264C320.482 439.347 325.977 411.571 328.948 399.689L341.759 405.259L329.505 396.904L331.176 391.334L358.469 399.689L333.404 384.093C336.078 368.497 349 337.862 355.127 324.494L372.394 326.722L357.356 320.595Z" fill="#093C6B"/>
<path d="M385.474 460.232C371.372 488.021 345.726 499.807 334.666 502.226C351.256 387.753 395.152 297.958 415.025 267.37C428.712 269.858 429.023 297.094 427.468 310.401L402.064 309.364L427.468 314.03C425.809 341.404 420.555 365.875 418.136 374.688L383.918 367.43L416.581 378.317C408.7 412.328 396.707 438.457 391.695 447.271L360.07 431.717L390.658 450.382L386.511 457.64L377.697 455.566L385.474 460.232Z" fill="#6DB5DE"/>
<path fill-rule="evenodd" clip-rule="evenodd" d="M317.606 662.193C317.606 662.195 317.606 662.196 316.941 662.151L317.606 662.196C317.583 662.547 317.291 662.819 316.939 662.818C316.587 662.817 316.297 662.542 316.276 662.191C313.708 619.115 296.724 586.149 274.662 561.094C252.941 537.505 227.316 520.137 202.027 507.373C202.056 507.328 202.085 507.281 202.114 507.234C185.342 498.894 170.932 493.651 162.601 490.619L162.6 490.619C160.694 489.925 159.106 489.348 157.881 488.875C142.749 483.856 128.84 480.367 117.33 477.964C117.343 477.859 117.353 477.754 117.363 477.649C117.379 477.48 117.394 477.31 117.425 477.143C121.013 457.831 149.309 460.012 179.663 470.014L177.304 494.74C177.325 494.748 177.347 494.757 177.369 494.765L182.521 470.975C192.255 474.324 202.123 478.426 211.395 482.838C207.949 491.096 203.852 500.901 201.859 505.621C202.182 505.78 202.506 505.941 202.831 506.103C205.664 501.697 211.556 493.091 216.953 485.282C232.6 493.168 246.078 501.744 253.632 508.729C292.208 544.398 285.454 570.355 285.454 570.355C285.08 570.508 284.689 570.648 284.287 570.779C300.626 592.429 313.004 619.249 316.762 652.325C316.997 646.493 317.255 638.212 317.376 627.912C317.628 606.412 317.284 576.119 314.901 540.953C310.132 470.609 297.203 380.811 264.582 302.882C264.44 302.542 264.6 302.152 264.94 302.01C265.279 301.868 265.67 302.028 265.812 302.367C298.515 380.491 311.458 470.456 316.231 540.863C318.617 576.071 318.962 606.4 318.709 627.928C318.583 638.692 318.307 647.257 318.063 653.131C317.941 656.068 317.827 658.333 317.743 659.864C317.701 660.63 317.667 661.212 317.643 661.603C317.636 661.734 317.629 661.844 317.623 661.932L317.616 662.046L317.609 662.158L317.607 662.186L317.606 662.193Z" fill="#6DB5DE"/>
<path d="M243.549 435.15C243.549 435.15 316.94 537.556 316.94 662.151C328.035 444.537 384.437 325.954 384.437 325.954" stroke="#014D2D" stroke-miterlimit="10" stroke-linecap="round" stroke-linejoin="round"/>
<path d="M340.91 627.691H282.044C282.044 627.691 266.195 753.176 317.137 767.741C368.078 782.306 340.91 627.691 340.91 627.691Z" fill="#000318"/>
<path d="M351.259 627.691H296.067C296.067 627.691 283.579 753.176 323.716 767.741C387.55 774.931 351.259 627.691 351.259 627.691Z" fill="#202B6D"/>
</g>
<g opacity="0.76">
<path d="M363.782 40.1782H344.743V115.099H363.782V40.1782Z" fill="#FF1F55"/>
<path d="M386.347 40.1782H367.309V115.099H386.347V40.1782Z" fill="#FFC702"/>
<path d="M400.418 41.5189L384.292 51.6426L424.17 115.101L440.297 104.977L400.418 41.5189Z" fill="#3D99EE"/>
<path d="M548.976 131.616H343.524C339.142 131.616 334.939 129.876 331.84 126.778C328.741 123.681 327 119.48 327 115.1H565.498C565.498 119.48 563.758 123.68 560.659 126.777C557.561 129.875 553.358 131.615 548.976 131.616V131.616Z" fill="#6F2A1A"/>
<path d="M552.884 42.9526H461.925V115.099H552.884V42.9526Z" fill="#BDD8F5"/>
<path d="M546.804 50.0396H468.012V107.998H546.804V50.0396Z" fill="#181818"/>
<path d="M507.407 97.6165C517.679 97.6165 526.006 89.2934 526.006 79.0263C526.006 68.7592 517.679 60.436 507.407 60.436C497.134 60.436 488.807 68.7592 488.807 79.0263C488.807 89.2934 497.134 97.6165 507.407 97.6165Z" fill="#FFC700"/>
<path d="M529.856 107.998H468.012V80.2458C478.688 79.8417 494.457 81.1396 509.356 89.7C517.385 94.3119 524.367 100.543 529.856 107.998V107.998Z" fill="#1DB776"/>
<path d="M546.801 69.8809V107.999H497.216C500.393 101.367 504.478 95.2086 509.353 89.7012C517.817 80.1872 529.893 71.9911 546.801 69.8809Z" fill="#11915B"/>
<path d="M375.235 145.954H360.409L362.457 115.099H373.187L375.235 145.954Z" fill="#592A3C"/>
<path d="M532.094 145.954H517.268L519.316 115.099H530.046L532.094 145.954Z" fill="#592A3C"/>
<path d="M843.914 98.9114H632.482V0H843.914V98.9114ZM641.548 89.8523H834.85V9.06164H641.545L641.548 89.8523Z" fill="#925C50"/>
<path d="M834.85 9.06152H641.546V89.8521H834.85V9.06152Z" fill="white"/>
<path d="M684.531 68.8182C700.82 65.0038 710.931 48.7135 707.114 32.4327C703.298 16.152 686.999 6.04606 670.71 9.86048C654.421 13.6749 644.31 29.9652 648.127 46.246C651.943 62.5267 668.242 72.6327 684.531 68.8182Z" fill="#FFC700"/>
<path d="M641.546 64.3458L699.01 38.6967C703.588 36.6529 708.637 35.8974 713.614 36.5118C718.59 37.1262 723.304 39.0871 727.246 42.1829L787.975 89.8516H641.548L641.546 64.3458Z" fill="#11915B"/>
<path d="M741.877 53.6689L785.161 39.3659C789.79 37.8363 794.742 37.5623 799.511 38.5718C804.28 39.5812 808.696 41.838 812.306 45.1115L834.849 65.5485V89.8575H787.973L741.877 53.6689Z" fill="#1DB776"/>
</g>
<path opacity="0.89" d="M528.971 238.419C527.001 238.361 525.298 239.881 524.816 241.969C521.758 242.208 518.268 242.288 514.439 242.046C512.298 241.908 510.273 241.684 508.374 241.408C508.384 241.042 508.391 240.673 508.391 240.304C508.391 238.507 508.265 236.742 508.02 235.015C508.985 234.273 510.195 233.492 511.656 232.823C514.194 231.654 516.573 231.238 518.401 231.119C519.301 233.169 521.36 234.361 523.341 233.842C525.567 233.258 526.837 230.731 526.182 228.196C525.526 225.662 523.192 224.077 520.966 224.662C518.938 225.196 517.701 227.342 517.993 229.638C516.389 230.554 514.007 231.546 511.058 231.619C509.597 231.658 508.323 231.461 507.29 231.207C506.634 228.527 505.689 225.957 504.49 223.535C505.761 222.381 507.263 221.158 509.023 219.977C511.571 218.262 514.028 217.035 516.185 216.154C517.592 217.807 519.838 218.358 521.567 217.35C523.555 216.196 524.119 213.415 522.821 211.146C521.52 208.877 518.846 207.977 516.858 209.134C515.125 210.138 514.48 212.37 515.193 214.423C513.341 215.869 511.061 217.396 508.326 218.758C506.464 219.689 504.684 220.396 503.073 220.934C501.758 218.715 500.212 216.646 498.483 214.758C499.149 212.327 500.273 209.488 502.19 206.642C503.987 203.981 505.988 202.039 507.687 200.673C509.556 201.838 511.907 201.657 513.246 200.123C514.768 198.385 514.418 195.573 512.465 193.842C510.514 192.108 507.697 192.112 506.182 193.85C504.837 195.385 504.949 197.75 506.338 199.477C505.241 201.3 503.583 203.561 501.143 205.715C498.455 208.093 495.751 209.516 493.695 210.362C491.357 208.558 488.806 207.027 486.077 205.815C486.475 204.712 486.998 203.6 487.684 202.508C488.235 201.642 488.826 200.88 489.427 200.216C491.507 201.066 493.828 200.453 494.874 198.673C496.053 196.685 495.193 193.985 492.954 192.646C490.719 191.307 487.953 191.834 486.777 193.827C485.747 195.577 486.291 197.877 487.953 199.315C487.606 200.238 487.185 201.196 486.685 202.173C486.114 203.296 485.489 204.331 484.833 205.289C484.558 205.177 484.28 205.069 484.004 204.97C480.753 203.746 477.294 202.973 473.689 202.711C473.097 201.104 472.581 199.322 472.221 197.365C471.483 193.372 471.619 189.897 471.959 187.287C474.079 186.878 475.67 185.201 475.67 183.192C475.67 180.877 473.559 179 470.957 179C468.357 179 466.247 180.877 466.247 183.192C466.247 185.236 467.895 186.936 470.066 187.307C470.539 189.879 470.848 193.48 470.117 197.654C469.795 199.491 469.319 201.165 468.762 202.681C465.306 202.877 461.98 203.549 458.837 204.632C458.398 203.933 458.008 203.199 457.658 202.334C456.961 200.62 456.659 199.012 456.54 197.675C458.572 196.609 459.622 194.374 458.901 192.396C458.116 190.221 455.493 189.187 453.05 190.086C450.607 190.984 449.265 193.476 450.053 195.651C450.733 197.528 452.778 198.552 454.899 198.221C455.517 199.501 456.108 200.977 456.577 202.654C456.822 203.542 457.009 204.41 457.151 205.259C454.301 206.397 451.623 207.88 449.166 209.655C447.872 208.714 446.55 207.621 445.245 206.34C442.238 203.391 440.23 200.366 438.912 197.943C440.373 196.316 440.628 193.987 439.404 192.382C438.001 190.547 435.195 190.353 433.132 191.949C431.07 193.546 430.533 196.329 431.936 198.164C433.173 199.787 435.511 200.124 437.457 199.079C439.364 200.796 441.834 203.504 443.75 207.398C444.624 209.178 445.235 210.91 445.66 212.525C445.266 212.89 444.872 213.266 444.491 213.65C442.568 215.587 440.855 217.732 439.384 220.054C438.518 219.802 437.621 219.498 436.703 219.126C433.71 217.914 431.392 216.369 429.714 215.024C430.427 212.93 429.734 210.671 427.957 209.692C425.942 208.58 423.295 209.54 422.045 211.837C420.795 214.135 421.413 216.899 423.431 218.012C425.205 218.991 427.461 218.365 428.834 216.639C430.872 217.349 433.407 218.487 436.03 220.357C436.812 220.915 437.532 221.49 438.198 222.068C436.122 225.832 434.675 229.992 433.985 234.409C432.191 234.564 430.257 234.637 428.185 234.573C425.225 234.481 422.551 234.132 420.217 233.677C420.163 231.367 418.627 229.433 416.544 229.213C414.26 228.971 412.184 230.888 411.916 233.493C411.641 236.099 413.278 238.407 415.562 238.648C417.597 238.863 419.459 237.368 420.037 235.2C422.436 235.249 425.127 235.465 428.042 235.97C430.057 236.319 431.929 236.765 433.652 237.26C433.57 238.264 433.53 239.278 433.53 240.304C433.53 242.74 433.757 245.123 434.199 247.433C432.218 248.754 429.479 250.253 426 251.305C422.949 252.228 420.2 252.543 418.012 252.61C417.227 250.556 415.273 249.275 413.292 249.66C411.036 250.099 409.602 252.539 410.098 255.112C410.591 257.685 412.82 259.414 415.079 258.974C417.03 258.595 418.358 256.719 418.365 254.556C420.608 253.822 423.251 253.133 426.262 252.684C429.724 252.169 432.826 252.096 435.436 252.21C436.486 255.397 437.954 258.392 439.765 261.133C438.912 261.815 437.954 262.488 436.887 263.117C434.831 264.321 432.86 265.07 431.151 265.555C429.989 263.694 427.828 262.82 425.963 263.581C423.832 264.45 422.891 267.123 423.873 269.55C424.485 271.073 425.708 272.142 427.06 272.508C427.859 272.727 428.705 272.7 429.496 272.377C429.734 272.281 429.955 272.161 430.159 272.019C431.719 270.981 432.378 268.83 431.719 266.777C433.336 265.937 435.225 265.105 437.407 264.419C438.803 263.978 440.138 263.657 441.396 263.418C442.541 264.909 443.798 266.308 445.15 267.6C445.279 267.723 445.405 267.846 445.534 267.961C444.62 270.015 443.244 272.511 441.168 275.042C439.136 277.519 437.023 279.323 435.246 280.596C433.462 279.323 431.127 279.35 429.69 280.777C428.056 282.404 428.212 285.235 430.043 287.1C431.868 288.961 434.681 289.154 436.316 287.527C437.733 286.115 437.804 283.792 436.594 281.988C437.994 280.154 439.819 278.084 442.15 276.042C444.651 273.85 447.121 272.227 449.272 271.031C452.119 273.069 455.266 274.719 458.626 275.9C458.49 277.173 458.262 278.546 457.892 279.988C457.087 283.131 455.874 285.65 454.773 287.504C452.619 287.069 450.488 288.061 449.758 289.961C448.929 292.119 450.223 294.634 452.649 295.58C455.075 296.528 457.715 295.542 458.544 293.381C459.268 291.504 458.381 289.358 456.543 288.212C457.063 285.977 457.882 283.335 459.187 280.496C459.825 279.112 460.505 277.85 461.202 276.7C463.787 277.404 466.485 277.835 469.265 277.954C469.72 280.146 470.087 282.6 470.264 285.281C470.529 289.269 470.315 292.8 469.937 295.716C467.824 296.128 466.247 297.805 466.247 299.808C466.247 302.122 468.357 304 470.96 304C473.563 304 475.67 302.122 475.67 299.808C475.67 297.812 474.1 296.139 472 295.719C471.646 292.738 471.453 289.215 471.653 285.281C471.793 282.627 472.092 280.177 472.472 277.962C475.377 277.85 478.198 277.4 480.892 276.65C481.123 277.05 481.354 277.465 481.572 277.892C483.033 280.712 483.821 283.354 484.249 285.469C482.373 286.565 481.422 288.696 482.091 290.596C482.866 292.777 485.476 293.831 487.932 292.954C490.382 292.073 491.741 289.592 490.97 287.411C490.287 285.477 488.15 284.431 485.965 284.831C484.963 283.096 483.797 280.477 483.393 277.123C483.342 276.708 483.304 276.3 483.281 275.9C486.284 274.854 489.108 273.427 491.704 271.681C493.382 273.054 495.149 274.692 496.906 276.638C499.604 279.631 501.564 282.581 502.981 285.088C501.544 286.712 501.293 289.023 502.512 290.619C503.916 292.453 506.719 292.646 508.785 291.05C510.847 289.453 511.388 286.673 509.984 284.834C508.771 283.25 506.508 282.888 504.585 283.854C502.516 281.742 500.222 279.069 498.01 275.784C496.58 273.661 495.401 271.6 494.426 269.665C495.472 268.815 496.474 267.911 497.422 266.954C498.982 265.384 500.406 263.681 501.663 261.858C503.987 262.511 506.675 263.469 509.522 264.908C512.268 266.288 514.554 267.807 516.399 269.223C515.699 271.277 516.365 273.5 518.095 274.492C520.093 275.642 522.753 274.727 524.048 272.454C525.339 270.177 524.765 267.404 522.767 266.254C521.02 265.25 518.764 265.823 517.361 267.508C515.302 266.719 512.804 265.523 510.215 263.688C507.524 261.785 505.496 259.742 504.021 257.98C505.017 256.104 505.856 254.131 506.525 252.077C507.643 252.116 508.819 252.215 510.045 252.4C513.188 252.877 515.808 253.773 517.823 254.666C517.65 256.858 518.88 258.865 520.834 259.369C523.056 259.946 525.39 258.358 526.039 255.819C526.685 253.281 525.404 250.758 523.181 250.181C521.217 249.673 519.175 250.843 518.275 252.861C516.131 252.685 513.392 252.212 510.395 251.042C509.254 250.596 508.204 250.1 507.246 249.581C507.725 247.677 508.061 245.719 508.234 243.712C510.171 243.554 512.234 243.454 514.398 243.45C518.227 243.438 521.7 243.715 524.751 244.123C525.118 246.235 526.732 247.842 528.703 247.904C531 247.969 532.926 245.9 532.998 243.281C533.073 240.661 531.272 238.485 528.971 238.419" fill="#202B6D" fill-opacity="0.82"/>
<path opacity="0.93" d="M182.81 134.743C179.781 134.654 177.166 137 176.424 140.224C171.725 140.593 166.363 140.717 160.479 140.343C157.19 140.13 154.078 139.785 151.16 139.357C151.175 138.793 151.186 138.223 151.186 137.653C151.186 134.88 150.992 132.154 150.617 129.488C152.099 128.342 153.958 127.136 156.203 126.102C160.103 124.298 163.758 123.656 166.567 123.472C167.95 126.638 171.114 128.478 174.158 127.677C177.578 126.774 179.531 122.872 178.523 118.959C177.515 115.046 173.929 112.599 170.509 113.502C167.392 114.327 165.491 117.641 165.94 121.186C163.476 122.599 159.816 124.131 155.284 124.244C153.039 124.304 151.081 124 149.494 123.608C148.486 119.47 147.035 115.502 145.192 111.761C147.145 109.98 149.452 108.091 152.157 106.268C156.073 103.62 159.847 101.725 163.163 100.366C165.324 102.919 168.775 103.768 171.433 102.212C174.487 100.431 175.354 96.137 173.359 92.6339C171.36 89.1297 167.251 87.7403 164.197 89.5275C161.534 91.0775 160.542 94.5225 161.638 97.6933C158.793 99.9265 155.289 102.284 151.086 104.386C148.225 105.823 145.489 106.916 143.015 107.747C140.994 104.32 138.619 101.126 135.961 98.21C136.984 94.457 138.713 90.0737 141.657 85.6799C144.419 81.5703 147.494 78.5717 150.105 76.4627C152.976 78.2626 156.589 77.9832 158.647 75.6138C160.986 72.93 160.448 68.589 157.446 65.9164C154.449 63.2385 150.121 63.2443 147.792 65.928C145.724 68.298 145.897 71.9501 148.032 74.6164C146.346 77.4311 143.798 80.9226 140.049 84.2482C135.919 87.9188 131.763 90.116 128.605 91.4225C125.012 88.6368 121.091 86.2732 116.899 84.403C117.51 82.6988 118.314 80.9823 119.368 79.296C120.214 77.9599 121.123 76.7834 122.047 75.7569C125.242 77.0692 128.808 76.1241 130.416 73.3749C132.228 70.3049 130.907 66.1362 127.466 64.0695C124.031 62.0028 119.781 62.8164 117.974 65.8926C116.392 68.5949 117.228 72.1455 119.781 74.3665C119.248 75.7918 118.601 77.2711 117.833 78.7788C116.956 80.5132 115.996 82.1108 114.988 83.5895C114.565 83.4172 114.137 83.2508 113.714 83.0971C108.718 81.2084 103.402 80.015 97.8629 79.6103C96.9545 77.1284 96.1609 74.3776 95.6074 71.3563C94.4745 65.191 94.6833 59.8251 95.2054 55.7953C98.4634 55.164 100.907 52.5748 100.907 49.4727C100.907 45.8982 97.6646 43 93.6652 43C89.6711 43 86.4288 45.8982 86.4288 49.4727C86.4288 52.6287 88.961 55.2533 92.2973 55.8265C93.023 59.7971 93.4981 65.3569 92.3756 71.8011C91.8796 74.638 91.1486 77.2235 90.2924 79.5633C84.9826 79.8666 79.8712 80.9041 75.0417 82.5762C74.3682 81.4969 73.7677 80.3637 73.23 79.0271C72.1597 76.3809 71.695 73.8989 71.5122 71.8338C74.6344 70.1887 76.2477 66.7374 75.1409 63.6838C73.9348 60.3255 69.9042 58.7284 66.1502 60.1162C62.3963 61.5041 60.334 65.3511 61.5453 68.7089C62.5895 71.6072 65.7325 73.1884 68.9905 72.677C69.9407 74.6533 70.8492 76.9329 71.5697 79.5216C71.9456 80.893 72.2327 82.2333 72.452 83.5446C68.0715 85.3011 63.9574 87.5913 60.1825 90.3321C58.1933 88.8787 56.1623 87.1908 54.1574 85.2124C49.5368 80.659 46.4511 75.9889 44.4254 72.2475C46.6704 69.7354 47.062 66.1399 45.1824 63.6622C43.0261 60.8279 38.7136 60.5283 35.5444 62.9939C32.3752 65.4589 31.5502 69.7555 33.7065 72.5893C35.607 75.0945 39.1991 75.6154 42.1908 74.002C45.1198 76.6524 48.9155 80.8349 51.8602 86.8459C53.202 89.5951 54.1418 92.2688 54.7944 94.7624C54.1888 95.3255 53.5831 95.9066 52.9984 96.4994C50.0432 99.4906 47.4118 102.802 45.1511 106.387C43.8198 105.998 42.4414 105.53 41.0317 104.954C36.4319 103.083 32.8712 100.698 30.292 98.6205C31.3884 95.3884 30.3233 91.9006 27.5927 90.3892C24.4966 88.6711 20.4294 90.1535 18.5081 93.7005C16.5867 97.248 17.5369 101.517 20.6382 103.234C23.3636 104.746 26.8304 103.78 28.9397 101.115C32.0724 102.21 35.9673 103.968 39.9979 106.855C41.1988 107.717 42.3056 108.604 43.329 109.497C40.1389 115.308 37.9147 121.732 36.8548 128.552C34.0981 128.79 31.1273 128.903 27.9425 128.805C23.3949 128.663 19.286 128.123 15.6991 127.421C15.6156 123.855 13.2557 120.869 10.0551 120.529C6.54659 120.156 3.35651 123.114 2.94405 127.138C2.52114 131.16 5.03768 134.724 8.54624 135.097C11.6737 135.429 14.5348 133.12 15.4224 129.773C19.1085 129.849 23.2436 130.181 27.7232 130.961C30.8193 131.501 33.6961 132.189 36.3432 132.954C36.2179 134.503 36.1552 136.069 36.1552 137.653C36.1552 141.415 36.505 145.095 37.1838 148.661C34.1399 150.7 29.9317 153.015 24.5853 154.639C19.8968 156.065 15.673 156.55 12.3107 156.654C11.1046 153.482 8.10246 151.504 5.05858 152.098C1.59179 152.777 -0.611493 156.545 0.150782 160.517C0.907836 164.489 4.33288 167.159 7.80489 166.481C10.8018 165.895 12.8432 162.999 12.8536 159.659C16.2995 158.525 20.3615 157.462 24.9874 156.768C30.3076 155.973 35.0745 155.86 39.0842 156.036C40.6975 160.957 42.9531 165.581 45.7359 169.814C44.4254 170.866 42.9531 171.905 41.3136 172.876C38.1549 174.736 35.1267 175.893 32.5005 176.64C30.7149 173.768 27.3943 172.419 24.5279 173.592C21.2543 174.935 19.8081 179.062 21.317 182.809C22.2568 185.161 24.1363 186.811 26.2143 187.376C27.4413 187.714 28.7413 187.673 29.9578 187.173C30.3233 187.025 30.6627 186.841 30.9759 186.621C33.3724 185.019 34.3853 181.698 33.3724 178.528C35.8576 177.231 38.7605 175.946 42.1125 174.886C44.2583 174.206 46.3102 173.711 48.242 173.341C50.0015 175.644 51.9333 177.804 54.0113 179.799C54.2097 179.988 54.4028 180.178 54.6012 180.356C53.1968 183.528 51.0822 187.382 47.8922 191.289C44.77 195.113 41.5225 197.899 38.7919 199.864C36.0508 197.899 32.464 197.94 30.2554 200.143C27.7441 202.656 27.9843 207.026 30.7984 209.906C33.6021 212.78 37.9252 213.077 40.4365 210.565C42.6137 208.386 42.7233 204.799 40.8646 202.014C43.0157 199.182 45.8194 195.986 49.401 192.833C53.2437 189.448 57.0395 186.942 60.3444 185.096C64.7197 188.243 69.5543 190.79 74.718 192.614C74.5091 194.579 74.1593 196.699 73.5903 198.926C72.3529 203.778 70.4889 207.668 68.7973 210.53C65.4871 209.859 62.2135 211.39 61.091 214.324C59.8171 217.656 61.8063 221.54 65.5341 223C69.262 224.463 73.3187 222.942 74.5927 219.604C75.7047 216.706 74.3421 213.392 71.5175 211.623C72.3163 208.172 73.5746 204.093 75.5795 199.71C76.561 197.572 77.6052 195.625 78.6755 193.848C82.6488 194.935 86.7943 195.601 91.0651 195.785C91.7647 199.169 92.3286 202.958 92.6001 207.097C93.0074 213.255 92.6784 218.707 92.0989 223.209C88.8514 223.846 86.4288 226.435 86.4288 229.527C86.4288 233.1 89.6711 236 93.6704 236C97.6698 236 100.907 233.1 100.907 229.527C100.907 226.446 98.4947 223.862 95.2681 223.214C94.7251 218.612 94.4275 213.172 94.7355 207.097C94.9496 203 95.409 199.217 95.9938 195.797C100.458 195.625 104.791 194.929 108.932 193.772C109.287 194.389 109.642 195.03 109.976 195.689C112.221 200.043 113.432 204.123 114.09 207.389C111.208 209.081 109.746 212.37 110.775 215.304C111.965 218.671 115.975 220.299 119.75 218.945C123.514 217.585 125.602 213.754 124.417 210.387C123.368 207.401 120.084 205.785 116.727 206.403C115.186 203.724 113.396 199.68 112.774 194.501C112.696 193.861 112.639 193.231 112.602 192.614C117.217 190.998 121.556 188.795 125.545 186.099C128.124 188.219 130.839 190.749 133.538 193.754C137.684 198.374 140.697 202.929 142.874 206.8C140.665 209.307 140.279 212.875 142.153 215.34C144.309 218.172 148.617 218.47 151.791 216.005C154.96 213.54 155.791 209.247 153.634 206.408C151.77 203.962 148.293 203.404 145.338 204.894C142.158 201.634 138.634 197.507 135.235 192.435C133.037 189.157 131.225 185.975 129.727 182.987C131.335 181.675 132.875 180.279 134.332 178.801C136.729 176.378 138.916 173.747 140.848 170.933C144.419 171.942 148.549 173.42 152.924 175.641C157.143 177.773 160.657 180.119 163.492 182.304C162.416 185.475 163.439 188.908 166.097 190.44C169.167 192.216 173.255 190.802 175.244 187.293C177.228 183.777 176.346 179.495 173.276 177.72C170.592 176.17 167.126 177.055 164.969 179.656C161.805 178.438 157.968 176.592 153.989 173.759C149.854 170.819 146.737 167.666 144.471 164.946C146.001 162.048 147.291 159.002 148.319 155.831C150.037 155.89 151.843 156.045 153.728 156.329C158.558 157.066 162.583 158.45 165.679 159.828C165.413 163.212 167.303 166.312 170.305 167.09C173.72 167.98 177.307 165.528 178.304 161.609C179.296 157.689 177.328 153.794 173.913 152.903C170.895 152.119 167.757 153.925 166.374 157.042C163.079 156.769 158.871 156.039 154.266 154.233C152.512 153.545 150.899 152.778 149.426 151.977C150.162 149.037 150.679 146.014 150.945 142.915C153.921 142.671 157.091 142.517 160.416 142.511C166.301 142.493 171.636 142.92 176.325 143.55C176.889 146.811 179.369 149.292 182.397 149.388C185.927 149.488 188.887 146.293 188.997 142.249C189.111 138.205 186.344 134.844 182.81 134.743Z" fill="#202B6D" fill-opacity="0.9"/>
<path d="M1046.3 62.6159C1044.49 62.5617 1042.92 63.9837 1042.48 65.9386C1039.67 66.1618 1036.47 66.2374 1032.95 66.0106C1030.98 65.8813 1029.12 65.6721 1027.38 65.413C1027.39 65.071 1027.39 64.7254 1027.39 64.3799C1027.39 62.6985 1027.28 61.0463 1027.05 59.4299C1027.94 58.7353 1029.05 58.0044 1030.39 57.3777C1032.72 56.2837 1034.91 55.8945 1036.59 55.7831C1037.41 57.7021 1039.31 58.8176 1041.13 58.3321C1043.17 57.7847 1044.34 55.4196 1043.74 53.0471C1043.13 50.6749 1040.99 49.1915 1038.94 49.7388C1037.08 50.239 1035.94 52.248 1036.21 54.397C1034.74 55.254 1032.55 56.1828 1029.84 56.2513C1028.5 56.2872 1027.33 56.1033 1026.38 55.8657C1025.78 53.3568 1024.91 50.9516 1023.81 48.6838C1024.98 47.6039 1026.36 46.459 1027.97 45.3538C1030.31 43.7483 1032.57 42.5998 1034.55 41.7758C1035.84 43.3233 1037.91 43.8383 1039.5 42.8948C1041.32 41.8152 1041.84 39.2121 1040.65 37.0884C1039.45 34.9641 1037 34.1219 1035.17 35.2053C1033.58 36.1449 1032.99 38.2334 1033.64 40.1556C1031.94 41.5093 1029.84 42.9383 1027.33 44.213C1025.62 45.0841 1023.99 45.7464 1022.51 46.2502C1021.3 44.173 1019.88 42.2363 1018.29 40.4688C1018.9 38.1937 1019.93 35.5364 1021.69 32.8728C1023.35 30.3815 1025.18 28.5637 1026.75 27.2852C1028.46 28.3763 1030.62 28.2069 1031.85 26.7706C1033.25 25.1436 1032.93 22.512 1031.13 20.8918C1029.34 19.2684 1026.75 19.2719 1025.36 20.8989C1024.13 22.3356 1024.23 24.5495 1025.51 26.1659C1024.5 27.8723 1022.97 29.9889 1020.73 32.0049C1018.26 34.2301 1015.78 35.5621 1013.89 36.3541C1011.74 34.6653 1009.4 33.2325 1006.89 32.0988C1007.26 31.0656 1007.74 30.0251 1008.37 29.0028C1008.87 28.1928 1009.42 27.4796 1009.97 26.8573C1011.88 27.6529 1014.01 27.0799 1014.97 25.4133C1016.06 23.5522 1015.27 21.0251 1013.21 19.7722C1011.16 18.5193 1008.62 19.0125 1007.53 20.8774C1006.59 22.5156 1007.09 24.668 1008.62 26.0144C1008.3 26.8785 1007.91 27.7752 1007.45 28.6893C1006.93 29.7407 1006.35 30.7091 1005.75 31.6056C1005.5 31.5012 1005.24 31.4003 1004.99 31.3071C1002 30.1621 998.823 29.4387 995.511 29.1933C994.967 27.6887 994.493 26.0211 994.162 24.1896C993.485 20.4521 993.61 17.1992 993.922 14.7562C995.87 14.3735 997.331 12.8039 997.331 10.9234C997.331 8.75647 995.392 6.99951 993.001 6.99951C990.613 6.99951 988.674 8.75647 988.674 10.9234C988.674 12.8366 990.188 14.4277 992.183 14.7752C992.617 17.1822 992.901 20.5527 992.23 24.4592C991.933 26.179 991.496 27.7464 990.984 29.1648C987.81 29.3487 984.754 29.9777 981.866 30.9913C981.464 30.337 981.105 29.65 980.783 28.8398C980.143 27.2356 979.865 25.731 979.756 24.4791C981.623 23.4818 982.587 21.3895 981.925 19.5384C981.204 17.5025 978.795 16.5343 976.55 17.3757C974.306 18.217 973.073 20.5491 973.797 22.5847C974.421 24.3417 976.3 25.3002 978.248 24.9902C978.816 26.1883 979.36 27.5703 979.79 29.1395C980.015 29.9709 980.187 30.7834 980.318 31.5783C977.699 32.6432 975.239 34.0315 972.982 35.6931C971.793 34.812 970.579 33.7888 969.38 32.5894C966.617 29.8291 964.772 26.998 963.561 24.7299C964.903 23.207 965.138 21.0273 964.014 19.5253C962.725 17.8071 960.146 17.6255 958.251 19.1201C956.357 20.6145 955.863 23.2192 957.153 24.9371C958.289 26.4557 960.437 26.7715 962.225 25.7934C963.976 27.4002 966.246 29.9357 968.006 33.5796C968.809 35.2463 969.37 36.8671 969.761 38.3788C969.399 38.7202 969.036 39.0725 968.687 39.4318C966.92 41.2451 965.347 43.2528 963.995 45.4258C963.199 45.1901 962.375 44.906 961.532 44.5573C958.782 43.4229 956.653 41.9772 955.111 40.7177C955.767 38.7583 955.13 36.6439 953.497 35.7276C951.646 34.6862 949.214 35.5848 948.066 37.735C946.917 39.8856 947.485 42.4733 949.339 43.5145C950.969 44.4308 953.041 43.8453 954.303 42.2296C956.176 42.8938 958.504 43.9596 960.914 45.7096C961.632 46.2322 962.294 46.7699 962.906 47.3109C960.998 50.8341 959.669 54.7281 959.035 58.8624C957.387 59.0072 955.611 59.0757 953.706 59.0158C950.987 58.9297 948.531 58.6027 946.386 58.177C946.336 56.015 944.925 54.2048 943.012 53.9989C940.914 53.7728 939.007 55.5663 938.76 58.0054C938.507 60.4439 940.012 62.6043 942.11 62.8305C943.979 63.0316 945.69 61.6317 946.221 59.6028C948.425 59.6486 950.897 59.8504 953.575 60.3231C955.426 60.6501 957.146 61.0677 958.729 61.5311C958.654 62.4701 958.617 63.4197 958.617 64.3799C958.617 66.6605 958.826 68.8911 959.232 71.0529C957.412 72.2894 954.896 73.6924 951.699 74.6773C948.896 75.5413 946.371 75.8353 944.36 75.8984C943.639 73.9759 941.844 72.7768 940.024 73.1368C937.952 73.548 936.634 75.8324 937.09 78.2402C937.543 80.6482 939.591 82.2668 941.666 81.8556C943.458 81.5008 944.679 79.7448 944.685 77.7201C946.745 77.0328 949.174 76.3884 951.94 75.9679C955.12 75.4859 957.97 75.4171 960.368 75.524C961.332 78.5073 962.681 81.3105 964.345 83.8765C963.561 84.5141 962.681 85.1441 961.701 85.7327C959.812 86.86 958.002 87.5614 956.432 88.0146C955.364 86.2733 953.379 85.4554 951.665 86.167C949.708 86.9808 948.843 89.4826 949.745 91.7543C950.307 93.1798 951.431 94.1806 952.673 94.5226C953.407 94.7279 954.184 94.7026 954.911 94.3999C955.13 94.3103 955.333 94.1985 955.52 94.0653C956.953 93.0939 957.558 91.0804 956.953 89.1592C958.439 88.3726 960.174 87.5937 962.178 86.9513C963.461 86.5391 964.688 86.2387 965.843 86.0145C966.895 87.4105 968.05 88.7201 969.292 89.9294C969.411 90.0441 969.527 90.1594 969.645 90.2673C968.805 92.1898 967.541 94.5261 965.634 96.8951C963.767 99.2132 961.826 100.902 960.193 102.093C958.554 100.902 956.41 100.927 955.089 102.262C953.588 103.786 953.731 106.435 955.414 108.181C957.09 109.923 959.675 110.103 961.176 108.581C962.478 107.259 962.544 105.085 961.432 103.396C962.718 101.68 964.395 99.7426 966.536 97.8309C968.834 95.779 971.103 94.2597 973.079 93.1404C975.695 95.0482 978.585 96.5925 981.673 97.698C981.548 98.8894 981.339 100.175 980.998 101.524C980.259 104.466 979.144 106.824 978.133 108.559C976.154 108.152 974.196 109.081 973.525 110.859C972.764 112.879 973.953 115.233 976.182 116.119C978.411 117.005 980.836 116.083 981.598 114.06C982.263 112.303 981.448 110.294 979.759 109.222C980.237 107.13 980.989 104.657 982.188 102C982.775 100.704 983.399 99.5232 984.039 98.4465C986.414 99.1052 988.893 99.5088 991.446 99.6202C991.865 101.672 992.202 103.969 992.364 106.478C992.608 110.211 992.411 113.516 992.064 116.245C990.123 116.632 988.674 118.201 988.674 120.075C988.674 122.242 990.613 124 993.004 124C995.395 124 997.331 122.242 997.331 120.075C997.331 118.208 995.888 116.641 993.959 116.249C993.635 113.458 993.457 110.161 993.641 106.478C993.769 103.994 994.044 101.701 994.393 99.6276C997.062 99.5232 999.653 99.1017 1002.13 98.4C1002.34 98.7741 1002.55 99.1629 1002.75 99.5626C1004.1 102.202 1004.82 104.675 1005.21 106.655C1003.49 107.681 1002.62 109.675 1003.23 111.453C1003.94 113.495 1006.34 114.481 1008.6 113.66C1010.85 112.836 1012.1 110.514 1011.39 108.472C1010.76 106.662 1008.8 105.683 1006.79 106.057C1005.87 104.433 1004.8 101.982 1004.43 98.8423C1004.38 98.4538 1004.34 98.0721 1004.32 97.698C1007.08 96.7186 1009.68 95.3832 1012.06 93.7485C1013.6 95.0337 1015.23 96.5675 1016.84 98.3891C1019.32 101.19 1021.12 103.951 1022.42 106.298C1021.1 107.818 1020.87 109.981 1021.99 111.475C1023.28 113.192 1025.86 113.372 1027.75 111.878C1029.65 110.384 1030.14 107.781 1028.86 106.06C1027.74 104.578 1025.66 104.239 1023.9 105.143C1021.99 103.166 1019.89 100.664 1017.85 97.5898C1016.54 95.6025 1015.46 93.6733 1014.56 91.8622C1015.52 91.0667 1016.44 90.2205 1017.31 89.3244C1018.75 87.8554 1020.06 86.2605 1021.21 84.5545C1023.35 85.1662 1025.82 86.0626 1028.43 87.4089C1030.95 88.7015 1033.05 90.1232 1034.75 91.4481C1034.11 93.3706 1034.72 95.4514 1036.31 96.3801C1038.14 97.4568 1040.59 96.5998 1041.78 94.4723C1042.96 92.3413 1042.43 89.7453 1040.6 88.6692C1038.99 87.7295 1036.92 88.266 1035.63 89.8426C1033.74 89.1044 1031.45 87.9851 1029.07 86.2679C1026.6 84.4859 1024.73 82.5743 1023.38 80.9253C1024.29 79.1686 1025.06 77.322 1025.68 75.3995C1026.7 75.4356 1027.78 75.5292 1028.91 75.7018C1031.8 76.1485 1034.21 76.9873 1036.06 77.8225C1035.9 79.8741 1037.03 81.7535 1038.82 82.2249C1040.86 82.7648 1043.01 81.2782 1043.6 78.9022C1044.2 76.5261 1043.02 74.1648 1040.98 73.6249C1039.18 73.1493 1037.3 74.2443 1036.47 76.1338C1034.5 75.9682 1031.99 75.5256 1029.23 74.431C1028.18 74.0137 1027.22 73.549 1026.34 73.0631C1026.78 71.2812 1027.09 69.4483 1027.25 67.5697C1029.03 67.422 1030.92 67.3285 1032.91 67.3247C1036.43 67.3138 1039.62 67.5729 1042.42 67.9546C1042.76 69.9313 1044.24 71.4359 1046.05 71.4935C1048.16 71.5547 1049.93 69.6178 1050 67.1662C1050.07 64.7146 1048.41 62.677 1046.3 62.6159" fill="#202B6D" fill-opacity="0.75"/>
<path d="M959.655 204.493C955.561 204.371 952.033 207.58 951.032 211.991C944.695 212.494 937.454 212.665 929.506 212.153C925.085 211.861 920.882 211.389 916.952 210.805C916.974 210.033 916.984 209.254 916.984 208.474C916.984 204.681 916.712 200.952 916.211 197.304C918.215 195.736 920.719 194.088 923.757 192.675C929.016 190.205 933.937 189.328 937.737 189.076C939.599 193.405 943.878 195.924 947.972 194.827C952.589 193.593 955.235 188.255 953.863 182.903C952.502 177.549 947.667 174.202 943.051 175.437C938.848 176.566 936.278 181.099 936.888 185.948C933.567 187.882 928.624 189.977 922.505 190.131C919.489 190.213 916.843 189.798 914.698 189.263C913.337 183.601 911.388 178.174 908.895 173.058C911.53 170.62 914.644 168.037 918.291 165.543C923.572 161.92 928.667 159.329 933.143 157.468C936.061 160.962 940.71 162.124 944.303 159.996C948.43 157.558 949.584 151.685 946.894 146.892C944.205 142.1 938.663 140.199 934.536 142.644C930.954 144.764 929.604 149.475 931.085 153.814C927.241 156.867 922.516 160.092 916.843 162.968C912.989 164.934 909.297 166.428 905.955 167.566C903.222 162.879 900.032 158.508 896.439 154.52C897.821 149.386 900.151 143.391 904.126 137.38C907.86 131.759 911.998 127.657 915.515 124.773C919.391 127.235 924.269 126.853 927.045 123.611C930.203 119.94 929.484 114.002 925.423 110.347C921.383 106.684 915.547 106.69 912.401 110.363C909.624 113.604 909.842 118.6 912.727 122.246C910.452 126.097 907.011 130.874 901.959 135.423C896.384 140.443 890.788 143.448 886.519 145.235C881.663 141.425 876.372 138.192 870.721 135.634C871.537 133.302 872.626 130.955 874.052 128.649C875.196 126.82 876.426 125.212 877.667 123.807C881.968 125.602 886.792 124.31 888.958 120.55C891.397 116.35 889.612 110.647 884.973 107.821C880.335 104.994 874.608 106.106 872.169 110.314C870.035 114.011 871.156 118.867 874.608 121.906C873.889 123.856 873.018 125.879 871.973 127.94C870.786 130.313 869.501 132.499 868.14 134.52C867.563 134.285 866.997 134.058 866.42 133.847C859.691 131.263 852.516 129.632 845.036 129.079C843.805 125.683 842.738 121.92 841.987 117.787C840.462 109.354 840.746 102.015 841.453 96.5027C845.852 95.6382 849.14 92.0975 849.14 87.8541C849.14 82.9641 844.774 79 839.385 79C833.984 79 829.607 82.9641 829.607 87.8541C829.607 92.1701 833.015 95.7599 837.523 96.544C838.503 101.977 839.145 109.581 837.643 118.396C836.967 122.276 835.977 125.813 834.822 129.014C827.647 129.428 820.755 130.848 814.244 133.135C813.34 131.659 812.524 130.109 811.794 128.28C810.357 124.659 809.736 121.266 809.486 118.441C813.699 116.19 815.866 111.469 814.385 107.292C812.752 102.7 807.319 100.514 802.245 102.413C797.182 104.311 794.395 109.573 796.039 114.167C797.454 118.13 801.69 120.294 806.078 119.593C807.363 122.298 808.593 125.415 809.551 128.957C810.074 130.832 810.455 132.666 810.749 134.46C804.837 136.863 799.294 139.996 794.199 143.745C791.52 141.756 788.776 139.447 786.065 136.742C779.826 130.513 775.667 124.124 772.934 119.007C775.961 115.571 776.495 110.652 773.958 107.263C771.051 103.385 765.225 102.976 760.946 106.349C756.678 109.722 755.568 115.598 758.464 119.475C761.044 122.901 765.879 123.613 769.929 121.406C773.871 125.033 778.999 130.753 782.962 138.976C784.781 142.737 786.044 146.394 786.936 149.804C786.12 150.574 785.292 151.37 784.497 152.181C780.523 156.272 776.963 160.802 773.914 165.705C772.118 165.174 770.256 164.532 768.35 163.746C762.155 161.187 757.353 157.924 753.869 155.081C755.35 150.66 753.902 145.891 750.221 143.822C746.051 141.471 740.564 143.5 737.972 148.353C735.37 153.204 736.655 159.043 740.847 161.393C744.516 163.46 749.198 162.139 752.04 158.494C756.264 159.993 761.534 162.397 766.967 166.346C768.59 167.525 770.071 168.738 771.453 169.958C767.153 177.909 764.147 186.696 762.721 196.024C759.008 196.349 755.001 196.506 750.701 196.37C744.56 196.176 739.018 195.438 734.172 194.477C734.063 189.599 730.884 185.515 726.572 185.05C721.825 184.539 717.524 188.587 716.958 194.09C716.403 199.593 719.789 204.468 724.525 204.977C728.75 205.431 732.604 202.273 733.813 197.694C738.778 197.797 744.353 198.253 750.396 199.319C754.588 200.058 758.453 200.999 762.035 202.046C761.861 204.165 761.785 206.307 761.785 208.474C761.785 213.62 762.253 218.652 763.168 223.531C759.052 226.322 753.39 229.487 746.171 231.71C739.845 233.659 734.151 234.323 729.61 234.466C727.977 230.127 723.927 227.421 719.822 228.233C715.151 229.16 712.178 234.315 713.202 239.748C714.225 245.182 718.853 248.834 723.524 247.907C727.574 247.105 730.329 243.143 730.34 238.575C734.989 237.025 740.477 235.569 746.715 234.622C753.88 233.534 760.315 233.378 765.737 233.619C767.904 240.352 770.953 246.676 774.709 252.465C772.934 253.905 770.963 255.326 768.731 256.654C764.474 259.198 760.391 260.781 756.841 261.804C754.446 257.874 749.96 256.028 746.084 257.635C741.674 259.471 739.725 265.116 741.75 270.242C743.024 273.458 745.561 275.717 748.37 276.489C750.025 276.951 751.779 276.895 753.423 276.213C753.902 276.01 754.37 275.757 754.794 275.457C758.017 273.265 759.389 268.721 758.028 264.387C761.382 262.612 765.302 260.854 769.809 259.404C772.716 258.475 775.482 257.795 778.084 257.291C780.458 260.44 783.071 263.396 785.869 266.123C786.131 266.384 786.403 266.644 786.664 266.886C784.77 271.225 781.917 276.497 777.616 281.841C773.402 287.073 769.025 290.882 765.334 293.573C761.643 290.882 756.798 290.94 753.825 293.953C750.428 297.389 750.755 303.368 754.555 307.308C758.333 311.238 764.169 311.646 767.555 308.209C770.506 305.227 770.648 300.322 768.143 296.512C771.04 292.637 774.818 288.267 779.641 283.953C784.835 279.324 789.952 275.896 794.417 273.369C800.318 277.674 806.84 281.159 813.797 283.653C813.525 286.341 813.057 289.241 812.284 292.288C810.607 298.925 808.103 304.245 805.827 308.161C801.352 307.242 796.932 309.338 795.418 313.352C793.709 317.909 796.398 323.221 801.428 325.219C806.448 327.217 811.914 325.138 813.645 320.573C815.137 316.609 813.307 312.076 809.486 309.654C810.564 304.935 812.273 299.354 814.973 293.359C816.302 290.436 817.706 287.771 819.144 285.343C824.511 286.83 830.097 287.74 835.868 287.991C836.804 292.622 837.566 297.804 837.936 303.465C838.492 311.888 838.045 319.346 837.261 325.503C832.884 326.373 829.607 329.914 829.607 334.147C829.607 339.037 833.973 343 839.385 343C844.774 343 849.14 339.037 849.14 334.147C849.14 329.931 845.885 326.397 841.53 325.511C840.8 319.216 840.408 311.776 840.822 303.465C841.105 297.859 841.726 292.686 842.509 288.007C848.541 287.771 854.388 286.822 859.974 285.237C860.453 286.081 860.921 286.959 861.379 287.862C864.417 293.815 866.05 299.396 866.932 303.863C863.045 306.179 861.063 310.679 862.468 314.692C864.057 319.297 869.479 321.523 874.564 319.67C879.638 317.81 882.469 312.571 880.869 307.966C879.453 303.88 875.021 301.669 870.492 302.515C868.412 298.851 865.995 293.319 865.157 286.236C865.048 285.358 864.972 284.498 864.928 283.653C871.145 281.444 877.003 278.43 882.393 274.742C885.866 277.641 889.525 281.102 893.161 285.212C898.758 291.532 902.83 297.763 905.77 303.059C902.786 306.487 902.275 311.369 904.79 314.74C907.708 318.615 913.522 319.021 917.801 315.649C922.069 312.279 923.18 306.406 920.284 302.524C917.768 299.176 913.076 298.412 909.091 300.452C904.801 295.992 900.043 290.347 895.459 283.409C892.497 278.925 890.047 274.572 888.033 270.485C890.2 268.69 892.268 266.781 894.25 264.758C897.473 261.444 900.424 257.846 903.037 253.996C907.86 255.377 913.424 257.4 919.325 260.437C925.02 263.354 929.767 266.562 933.589 269.551C932.141 273.89 933.513 278.584 937.106 280.68C941.243 283.109 946.764 281.175 949.442 276.375C952.121 271.566 950.923 265.709 946.785 263.28C943.171 261.161 938.478 262.372 935.582 265.929C931.313 264.263 926.131 261.737 920.763 257.862C915.188 253.841 910.974 249.528 907.926 245.807C909.983 241.844 911.725 237.677 913.119 233.339C915.427 233.42 917.877 233.631 920.403 234.021C926.925 235.029 932.359 236.921 936.54 238.805C936.18 243.436 938.728 247.676 942.768 248.74C947.384 249.959 952.219 246.603 953.569 241.243C954.908 235.882 952.262 230.553 947.635 229.334C943.584 228.261 939.349 230.732 937.465 234.995C933.034 234.622 927.339 233.622 921.122 231.154C918.77 230.211 916.593 229.163 914.611 228.067C915.602 224.047 916.299 219.911 916.658 215.671C920.676 215.338 924.944 215.127 929.441 215.118C937.367 215.094 944.575 215.678 950.901 216.54C951.663 221 955.006 224.395 959.089 224.526C963.858 224.663 967.854 220.293 967.995 214.761C968.148 209.23 964.413 204.632 959.655 204.493Z" fill="#202B6D" fill-opacity="0.92"/>
<path d="M890.349 286.798V698.903" stroke="#925D51" stroke-width="5.81" stroke-miterlimit="10"/>
<path d="M809.958 285.333C809.958 285.333 880.096 315.068 970.015 281.834L921.456 171.64L849.527 169.89L809.958 285.333Z" fill="#AC6352"/>
<path d="M940.493 214.839C912.232 246.847 866.334 260.325 818.173 261.365L809.958 285.333C809.958 285.333 880.096 315.068 970.017 281.834L940.493 214.839Z" fill="#984B39"/>
<rect x="266.703" y="762.272" width="726.385" height="16.939" rx="8.46951" fill="#925D51"/>
<path fill-rule="evenodd" clip-rule="evenodd" d="M630.526 393.655C629.719 393.529 628.899 393.468 628.069 393.468H443.466H443.306C430.555 393.467 420.245 393.467 420.245 440.304V691.357C420.245 685.046 423.505 686.815 428.626 689.593C432.65 691.776 437.823 694.583 443.466 694.583H628.069C629.838 694.583 631.561 694.307 633.216 693.861H814.076C821.921 693.861 829.112 691.063 834.706 688.886C841.824 686.116 846.355 684.353 846.355 690.643V440.349C846.355 393.654 832.023 393.654 814.298 393.655H814.076H630.526Z" fill="#F5C827"/>
<g opacity="0.699997">
<g opacity="0.699997">
<path d="M435.084 524.238V690.898C435.084 678.92 444.419 694.329 455.935 694.329H621.7C630.09 694.329 637.319 686.159 640.627 686.352V690.898C640.627 688.619 640.964 687.336 641.584 686.745C642.211 687.336 642.55 688.619 642.55 690.898V686.35C645.836 686.189 652.985 694.329 661.282 694.329H825.481C836.889 694.329 846.136 678.92 846.136 690.898V424.073C846.136 421.404 846.105 418.905 846.053 416.514L435.084 524.238Z" fill="#DCB21D"/>
</g>
</g>
<path d="M453.511 648.11C453.511 665.025 443.841 678.737 431.913 678.737H384.396C372.467 678.737 362.796 665.025 362.796 648.11V537.855C362.796 520.94 372.467 507.229 384.396 507.229H431.913C443.841 507.229 453.511 520.94 453.511 537.855V648.11Z" fill="#EBAFB2"/>
<path d="M473.267 660.326C473.267 678.723 459.237 693.636 441.929 693.636H372.986C355.678 693.636 341.647 678.723 341.647 660.326V540.407C341.647 522.01 355.678 507.097 372.986 507.097H441.929C459.237 507.097 473.267 522.01 473.267 540.407V660.326Z" fill="#CAA41E"/>
<path d="M957.102 660.611C957.102 679.066 943.266 694.026 926.198 694.026H858.209C841.141 694.026 827.305 679.066 827.305 660.611V540.317C827.305 521.862 841.141 506.902 858.209 506.902H926.198C943.266 506.902 957.102 521.862 957.102 540.317V660.611Z" fill="#CAA41E"/>
<path d="M392.78 801.41C392.78 807.258 388.964 811.999 384.259 811.999C379.551 811.999 375.735 807.258 375.735 801.41V764.827C375.735 758.979 379.551 754.238 384.259 754.238C388.964 754.238 392.78 758.979 392.78 764.827V801.41Z" fill="#925D51"/>
<path d="M922.095 799.517C922.095 805.364 918.28 810.105 913.572 810.105C908.866 810.105 905.051 805.364 905.051 799.517V762.933C905.051 757.086 908.866 752.344 913.572 752.344C918.28 752.344 922.095 757.086 922.095 762.933V799.517Z" fill="#925D51"/>
<path d="M936.358 507.097H912.461C900.463 507.097 890.737 520.815 890.737 537.738V690.945H405.205V537.738C405.205 520.815 395.479 507.097 383.481 507.097H359.586C347.588 507.097 337.862 520.815 337.862 537.738V747.631C337.862 756.489 340.542 764.443 344.801 770.038C348.766 776.033 354.401 779.804 360.673 779.804L936.358 778.273C948.356 778.273 958.082 764.555 958.082 747.631V537.738C958.082 520.815 948.356 507.097 936.358 507.097Z" fill="#F5C827"/>
<path d="M528.952 523.194H440.537C437.173 523.194 434.446 526.375 434.446 530.299V633.451C434.446 637.375 437.173 640.556 440.537 640.556H528.952C532.316 640.556 535.042 637.375 535.042 633.451V530.299C535.042 526.375 532.316 523.194 528.952 523.194Z" fill="white"/>
<path d="M871.098 534.406L790.695 520.373C787.636 519.839 784.608 522.547 783.931 526.42L766.141 628.247C765.464 632.12 767.395 635.693 770.454 636.227L850.858 650.26C853.916 650.794 856.945 648.086 857.621 644.213L875.411 542.386C876.088 538.513 874.157 534.94 871.098 534.406Z" fill="white"/>
<path fill-rule="evenodd" clip-rule="evenodd" d="M861.963 714.351C878.288 714.351 891.522 699.584 891.522 681.366V651.68C891.522 633.463 878.288 618.695 861.963 618.695H633.667C632.027 618.045 630.311 617.699 628.544 617.699H425.645C414.032 617.699 404.619 632.62 404.619 651.027V681.022C404.619 699.43 414.032 714.351 425.645 714.351H581.093C581.112 714.351 581.131 714.351 581.15 714.351H861.963Z" fill="#FFE792"/>
<path d="M577.736 344.017C574.709 343.773 571.886 342.391 569.813 340.169C564.397 334.359 556.639 320.849 567.75 296.853C588.434 252.167 664.08 258.871 682.123 291.341C694.961 314.441 707.732 319.025 700.841 325.974C694.192 332.682 615.406 347.058 577.736 344.017Z" fill="#FF504A"/>
<path d="M711.066 612.483C710.984 612.494 710.896 612.506 710.815 612.517C694.455 614.9 677.865 617.089 661.228 618.375C660.275 618.445 659.32 618.519 658.363 618.578C640.758 619.83 623.105 620.018 605.635 618.299C599.904 617.736 594.189 616.958 588.535 615.923C575.894 613.614 567.373 601.667 569.42 588.984C571.348 577.076 572.607 565.794 573.436 555.19C573.56 553.613 573.68 552.055 573.779 550.513C574.617 538.134 574.889 526.734 574.979 516.379C574.983 515.498 574.99 514.627 574.994 513.765C574.994 513.376 575.002 512.988 575.002 512.607C575.005 512.016 575.005 511.43 575.005 510.852C575.013 510.456 575.013 510.066 575.013 509.686C575.013 508.878 575.017 508.09 575.013 507.303C575.024 504.882 575.017 502.529 575.024 500.247V499.64C575.028 491.738 575.061 484.663 575.378 478.461C575.39 478.178 575.401 477.902 575.424 477.625C575.494 476.337 575.559 475.059 575.622 473.8C575.677 472.579 575.738 471.369 575.781 470.173C575.913 466.815 576.002 463.578 576.055 460.487C576.088 457.887 576.088 455.396 576.048 453.032C575.998 450.409 575.905 447.952 575.757 445.675C575.7 444.922 575.648 444.144 575.587 443.346C575.494 442.136 575.393 440.881 575.289 439.591C575.226 438.808 575.159 438.019 575.08 437.216C575.045 436.866 575.017 436.51 574.983 436.151C574.979 436.062 574.967 435.976 574.962 435.894C574.916 435.398 574.87 434.903 574.827 434.399C574.777 433.911 574.728 433.422 574.68 432.927C574.602 432.066 574.517 431.187 574.422 430.301C574.015 426.166 573.541 421.826 573.06 417.378C572.902 415.984 572.748 414.569 572.592 413.152C572.343 410.957 572.092 408.738 571.848 406.53C571.681 405.103 571.519 403.677 571.36 402.252C568.92 380.801 566.624 360.263 567.44 353.746C568.853 342.46 623.512 312.672 623.512 312.672L656.321 311.641C656.321 311.641 702.374 330.191 710.87 341.389C710.915 341.445 710.953 341.502 710.995 341.553C712.922 344.191 714.135 347.856 714.829 352.386C715.451 356.368 715.672 361.015 715.626 366.226C715.605 369.934 715.444 373.932 715.204 378.171C714.951 382.665 714.607 387.435 714.228 392.429C714.12 393.882 714.006 395.354 713.892 396.844C713.774 398.357 713.662 399.885 713.546 401.431C713.471 402.429 713.397 403.437 713.323 404.449C713.123 407.117 712.928 409.835 712.751 412.589C712.694 413.477 712.631 414.375 712.574 415.274C712.536 415.841 712.503 416.417 712.473 416.988C712.437 417.572 712.403 418.154 712.37 418.741V418.753C712.34 419.293 712.306 419.827 712.281 420.366C712.241 420.951 712.214 421.539 712.186 422.129C712.131 423.209 712.074 424.291 712.03 425.383C711.984 426.282 711.948 427.191 711.914 428.099C711.901 428.258 711.895 428.428 711.895 428.591C711.864 429.177 711.842 429.765 711.826 430.347L711.817 430.653L711.809 430.799C711.786 431.566 711.76 432.345 711.739 433.118C711.708 434.046 711.686 434.972 711.663 435.894C711.653 436.32 711.649 436.76 711.642 437.193C711.63 437.575 711.627 437.971 711.619 438.359C711.619 438.557 711.615 438.747 711.615 438.949C711.604 439.483 711.596 440.017 711.591 440.567C711.583 441.478 711.581 442.4 711.581 443.346V444.841C711.583 447.456 711.611 450.189 711.663 453.032C711.682 454.205 711.708 455.396 711.735 456.603C711.764 457.883 711.798 459.177 711.83 460.487C711.914 463.241 712.003 466.054 712.115 468.918C712.127 469.336 712.14 469.751 712.159 470.173C712.167 470.344 712.171 470.514 712.178 470.685C712.212 471.619 712.249 472.556 712.292 473.505C712.351 474.869 712.414 476.248 712.469 477.625C712.532 479.116 712.635 480.696 712.766 482.362C712.928 484.447 713.135 486.656 713.386 488.992C713.441 489.538 713.504 490.091 713.57 490.647C713.673 491.542 713.774 492.455 713.899 493.381C713.968 493.963 714.036 494.542 714.114 495.133C714.162 495.506 714.209 495.88 714.261 496.257C714.441 497.661 714.637 499.104 714.845 500.572C714.867 500.736 714.89 500.898 714.911 501.061C715.018 501.805 715.134 502.552 715.236 503.313C715.447 504.762 715.676 506.242 715.906 507.74C715.974 508.161 716.037 508.589 716.104 509.013C716.503 511.565 716.933 514.182 717.382 516.858C717.46 517.324 717.545 517.803 717.625 518.28C717.804 519.334 717.988 520.395 718.173 521.464C718.819 525.188 719.504 528.997 720.219 532.868C721.054 537.343 721.923 541.896 722.825 546.483C723.563 550.256 724.327 554.05 725.099 557.845C726.906 566.721 728.785 575.593 730.639 584.153C733.532 597.481 724.561 610.514 711.066 612.483Z" fill="white"/>
<path d="M714.832 352.387C690.863 357.523 668.626 358.99 651.063 358.99C647.872 358.99 644.836 358.942 641.97 358.86C614.836 358.067 597.187 354.134 596.448 353.971L597.726 348.322L599 342.676H599.004C599.35 342.754 616.66 346.563 642.617 347.295C660.148 347.788 684.374 346.911 710.872 341.39C710.916 341.445 710.956 341.5 710.996 341.554C712.922 344.191 714.138 347.856 714.832 352.387Z" fill="#1DB776" fill-opacity="0.56"/>
<path d="M715.626 366.226C715.603 369.935 715.441 373.932 715.201 378.171C691.759 383.154 669.903 384.623 652.309 384.623C647.952 384.623 643.857 384.533 640.063 384.383C612.947 383.322 595.343 379.214 594.607 379.039L597.274 367.768C597.447 367.81 614.751 371.829 640.824 372.822C659.766 373.548 686.548 372.747 715.626 366.226Z" fill="#1DB776" fill-opacity="0.56"/>
<path d="M714.23 392.43C714.122 393.883 714.008 395.355 713.894 396.844C713.776 398.358 713.663 399.885 713.547 401.431C713.473 402.429 713.399 403.437 713.323 404.449C691.237 408.913 670.583 410.28 653.576 410.28C648.021 410.28 642.863 410.136 638.164 409.908C611.068 408.574 593.508 404.289 592.772 404.111L595.551 392.867C595.722 392.907 612.985 397.099 639.039 398.354C658.044 399.269 684.961 398.73 714.23 392.43Z" fill="#1DB776" fill-opacity="0.56"/>
<path d="M712.373 418.741V418.753C712.343 419.295 712.31 419.827 712.284 420.366C712.246 420.953 712.219 421.539 712.189 422.129C712.133 423.209 712.078 424.291 712.033 425.383C711.989 426.282 711.951 427.191 711.918 428.099C711.905 428.258 711.898 428.428 711.898 428.591C711.867 429.177 711.846 429.765 711.831 430.346L711.82 430.653C690.916 434.69 671.31 435.972 654.842 435.972C648.075 435.972 641.843 435.759 636.261 435.426C609.184 433.825 591.668 429.363 590.936 429.177L593.827 417.964H593.831C593.989 418.005 598.363 419.107 605.938 420.388C613.513 421.67 624.285 423.131 637.25 423.886C656.219 424.991 683.092 424.723 712.373 418.741Z" fill="#1DB776" fill-opacity="0.56"/>
<path d="M592.103 443.062L590.604 448.654L592.106 443.062H592.103ZM711.668 453.032C711.617 450.189 711.588 447.456 711.584 444.841C681.875 450.712 654.626 450.727 635.467 449.417C609.554 447.65 592.42 443.144 592.106 443.062L590.604 448.654L589.103 454.245C589.832 454.439 607.298 459.076 634.358 460.947C640.797 461.396 648.106 461.697 656.107 461.697C672.376 461.697 691.467 460.447 711.738 456.604C711.714 455.396 711.687 454.205 711.668 453.032Z" fill="#1DB776" fill-opacity="0.56"/>
<path d="M712.768 482.361C692.691 486.182 673.708 487.453 657.366 487.453C648.121 487.453 639.724 487.046 632.451 486.471C605.415 484.322 587.994 479.514 587.263 479.313L588.823 473.737L590.377 468.16H590.379C590.656 468.238 607.752 472.919 633.676 474.952C653.324 476.49 681.504 476.721 712.181 470.684C712.215 471.62 712.253 472.557 712.295 473.504C712.354 474.868 712.417 476.247 712.474 477.626C712.536 479.115 712.639 480.695 712.768 482.361Z" fill="#1DB776" fill-opacity="0.56"/>
<path d="M715.908 507.74C695.237 511.863 675.597 513.238 658.613 513.238C648.115 513.238 638.636 512.711 630.55 511.991C603.528 509.573 586.155 504.591 585.426 504.381L588.654 493.261V493.257C588.821 493.307 605.9 498.185 631.887 500.483C652.326 502.293 682.04 502.776 714.263 496.257C714.444 497.662 714.64 499.104 714.847 500.572C714.87 500.736 714.893 500.897 714.916 501.061C715.02 501.804 715.136 502.552 715.239 503.313C715.45 504.764 715.678 506.241 715.908 507.74Z" fill="#1DB776" fill-opacity="0.56"/>
<path d="M720.221 532.867C698.531 537.51 677.802 539.052 659.843 539.052C648.092 539.052 637.525 538.392 628.642 537.51C601.639 534.821 584.311 529.667 583.587 529.446L586.926 518.36C587.094 518.408 604.127 523.459 630.095 526.017C651.709 528.147 683.717 528.896 718.175 521.464C718.822 525.188 719.504 528.997 720.221 532.867Z" fill="#1DB776" fill-opacity="0.56"/>
<path d="M725.099 557.846C702.184 563.146 680.164 564.901 661.064 564.901C648.05 564.901 636.395 564.087 626.736 563.026C599.756 560.067 582.472 554.738 581.751 554.513L583.478 548.985L585.199 543.458L585.203 543.462C585.471 543.542 602.438 548.738 628.305 551.55C651.226 554.04 685.872 555.094 722.825 546.482C723.563 550.255 724.327 554.049 725.099 557.846Z" fill="#1DB776" fill-opacity="0.56"/>
<path d="M636.866 596.906C637.974 549.164 629.8 493.613 629.869 445.858C629.931 403.039 633.06 360.529 633.026 317.711C622.811 318.479 618.423 320.223 618.423 320.223C618.423 320.223 608.656 328.557 576.872 338.915C546.901 348.681 552.471 459.38 554.293 521.338C556.113 583.298 555.39 622.581 614.31 630.111C619.844 630.818 625.28 631.442 630.603 631.965C630.692 617.796 636.537 611.109 636.866 596.906Z" fill="#181818"/>
<path d="M572.947 471.021C572.314 471.021 571.743 470.578 571.606 469.931C571.447 469.191 571.92 468.461 572.662 468.301C573.413 468.14 591.098 464.113 597.196 442.938C597.403 442.208 598.166 441.79 598.896 441.997C599.624 442.206 600.047 442.969 599.835 443.697C593.27 466.508 574.048 470.817 573.232 470.991C573.137 471.011 573.04 471.021 572.947 471.021Z" fill="black"/>
<path d="M624.383 587.501C623.813 587.501 623.333 587.056 623.301 586.478C618.558 500.988 614.784 417.421 620.635 334.937C620.678 334.34 621.199 333.893 621.793 333.933C622.392 333.975 622.841 334.494 622.799 335.091C616.954 417.447 620.726 500.94 625.467 586.356C625.499 586.955 625.041 587.467 624.444 587.499C624.423 587.501 624.404 587.501 624.383 587.501Z" fill="black"/>
<path d="M739.134 382.275C740.555 338.169 719.311 326.528 676.917 320.17C676.752 320.145 676.59 320.12 676.425 320.097C675.744 327.383 675.993 334.784 676.469 342.058C677.229 353.692 678.58 365.259 679.047 376.911C681.006 425.538 685.765 458.565 681.858 522.388C678.92 570.356 686.588 595.533 687.931 631.881C711.997 628.205 730.937 618.41 742.602 598.534C764.482 561.244 737.716 426.38 739.134 382.275Z" fill="#181818"/>
<path d="M734.156 469.533C734.053 469.533 733.952 469.524 733.847 469.499C733.564 469.434 705.377 462.517 700.613 421.523C700.525 420.77 701.065 420.087 701.82 420.001C702.579 419.908 703.256 420.454 703.342 421.207C707.885 460.294 734.195 466.76 734.462 466.819C735.202 466.989 735.664 467.726 735.494 468.466C735.35 469.101 734.783 469.533 734.156 469.533Z" fill="black"/>
<path d="M691.165 579.658C690.644 579.658 690.184 579.281 690.096 578.749C688.109 566.679 688.872 534.299 689.611 502.987C690.172 479.166 690.703 456.667 690.083 443.113C687.989 397.225 681.719 333.136 681.656 332.495C681.597 331.9 682.032 331.369 682.628 331.31C683.219 331.253 683.756 331.687 683.813 332.282C683.875 332.925 690.151 397.067 692.249 443.012C692.871 456.642 692.34 479.177 691.778 503.038C691.042 534.251 690.281 566.527 692.236 578.397C692.333 578.986 691.933 579.546 691.342 579.643C691.283 579.652 691.224 579.658 691.165 579.658Z" fill="black"/>
<path d="M652.622 219.014L631.776 226.585C631.776 226.585 625.522 235.208 617.323 233.43C614.035 232.715 610.435 230.328 606.797 225.046C594.088 206.583 624.741 181.003 643.164 185.302C652.199 187.409 654.649 195.564 654.795 203.325C654.95 211.384 652.622 219.014 652.622 219.014Z" fill="#002014"/>
<path d="M652.621 219.014L631.775 226.585C631.775 226.585 625.521 235.208 617.323 233.43C617.323 223.867 630.736 206.384 654.795 203.325C654.949 211.384 652.621 219.014 652.621 219.014Z" fill="#FFD339"/>
<path d="M652.275 182.13C651.898 182.13 651.489 182.174 651.046 182.261C649.966 182.478 649.266 183.003 648.846 183.914C646.972 187.969 650.922 197.626 653.745 203.332C655.489 197.003 657.579 186.423 654.625 183.089C654.057 182.448 653.283 182.13 652.275 182.13ZM654.074 208.094C653.604 208.094 653.165 207.841 652.933 207.423C651.934 205.633 643.277 189.739 646.472 182.819C647.24 181.155 648.646 180.074 650.534 179.698C653.752 179.057 655.601 180.245 656.582 181.354C661.713 187.147 655.987 205.162 655.318 207.197C655.154 207.689 654.717 208.039 654.199 208.089C654.157 208.092 654.116 208.094 654.074 208.094Z" fill="#FFD339"/>
<path d="M669.902 188.562C669.778 188.562 669.652 188.57 669.527 188.589C665.109 189.176 659.77 198.547 656.948 204.475C662.815 202.004 672.121 197.286 673.357 192.995C673.635 192.029 673.448 191.175 672.773 190.304C671.864 189.135 670.923 188.562 669.902 188.562ZM654.439 208.178C654.088 208.178 653.743 208.037 653.494 207.775C653.135 207.398 653.032 206.846 653.232 206.367C654.057 204.391 661.509 187.02 669.181 185.996C670.651 185.801 672.825 186.109 674.837 188.699C676.02 190.22 676.377 191.957 675.87 193.718C673.758 201.042 656.811 207.398 654.886 208.1C654.74 208.153 654.59 208.178 654.439 208.178Z" fill="#FFD339"/>
<path d="M615.747 236.145C611.194 235.464 606.074 233.037 602.86 226.333C595.27 210.508 613.423 197.153 613.607 197.02C613.978 196.752 614.495 196.837 614.764 197.206C615.032 197.577 614.948 198.096 614.577 198.364C614.404 198.49 597.365 211.044 604.353 225.616C610.589 238.617 624.318 234.043 624.899 233.839C625.334 233.691 625.804 233.921 625.954 234.353C626.102 234.785 625.874 235.256 625.441 235.407C625.359 235.435 620.918 236.917 615.747 236.145Z" fill="#002014"/>
<path d="M676.145 238.1C676.145 238.1 684.281 272.263 672.98 294.376C661.681 316.489 650.327 322.512 666.554 329.381C682.78 336.249 701.241 323.166 713.63 329.971C728.586 338.185 711.816 269.243 704.341 240.067C696.69 210.213 660.357 206.872 660.357 206.872L676.145 238.1Z" fill="#002014"/>
<path d="M697.651 262.648C697.651 262.648 712.189 229.352 684.931 213.679C657.672 198.006 630.139 209.843 622.804 227.888C615.468 245.933 626.701 257.802 626.701 257.802L697.651 262.648Z" fill="#002014"/>
<path d="M650.934 332.95C658.802 335.135 661.949 331.647 664.365 329.053L665.991 314.947L666.942 306.72L667.139 305.508L663.522 305.107L636.832 297.408L633.222 314.356L631.506 322.391C634.937 325.63 639.496 329.774 650.934 332.95Z" fill="#FBB990"/>
<path d="M665.989 314.947C657.718 318.677 641.405 316.982 633.22 314.356C633.191 314.352 633.17 314.342 633.142 314.333L636.83 297.408L663.52 305.107L667.137 305.508L666.94 306.72L665.989 314.947Z" fill="#181818"/>
<path d="M687.782 262.853C687.782 262.853 703.63 258.247 700.521 272.248C697.095 287.665 684.479 283.288 682.307 282.29L687.782 262.853Z" fill="#FB9476"/>
<path d="M676.395 288.459C675.518 294.324 679.577 299.809 685.442 300.686C691.31 301.563 696.794 297.504 697.671 291.637C698.419 286.633 695.568 281.917 691.077 280.091C691.07 280.1 691.062 280.112 691.055 280.129C690.3 280.327 690.142 280.909 690.071 281.542C694.054 282.959 696.616 287.048 695.969 291.384C695.233 296.308 690.627 299.72 685.697 298.984C680.773 298.248 677.361 293.638 678.097 288.714C678.428 286.489 679.55 284.576 681.135 283.216C681.545 282.866 681.987 282.55 682.453 282.276C682.038 281.902 681.644 281.466 681.296 280.968C680.868 281.234 680.45 281.536 680.066 281.867C678.153 283.49 676.793 285.787 676.395 288.459Z" fill="white"/>
<path d="M689.554 277.713C689.524 277.709 689.493 277.702 689.463 277.694C689.004 277.574 688.727 277.105 688.847 276.644C690.61 269.849 695.613 267.494 695.824 267.397C696.256 267.202 696.768 267.39 696.966 267.824C697.161 268.255 696.973 268.765 696.543 268.963C696.355 269.05 692.061 271.11 690.513 277.078C690.4 277.508 689.984 277.778 689.554 277.713Z" fill="#FA7764"/>
<path d="M695.225 274.853C694.981 274.817 694.755 274.678 694.618 274.452C694.593 274.414 693.534 272.732 692.018 272.713C691.545 272.711 691.163 272.32 691.166 271.844C691.174 271.369 691.562 270.988 692.037 270.994C694.508 271.019 696.024 273.451 696.086 273.554C696.334 273.961 696.204 274.49 695.799 274.737C695.62 274.845 695.417 274.881 695.225 274.853Z" fill="#FA7764"/>
<path d="M696.472 260.933C695.487 266.501 693.97 271.912 692.081 276.986C691.231 279.286 690.295 281.513 689.304 283.654C682.321 298.747 672.283 309.622 664.265 310.563C651.57 312.056 637.16 305.854 630.094 289.299C628.94 286.594 627.73 283.327 627.152 279.478C627.074 278.943 626.998 278.396 626.933 277.836C624.862 260.636 629.225 236.116 629.225 236.116C639.63 220.581 662 224.722 674.976 226.857C687.962 228.997 700.993 235.45 696.472 260.933Z" fill="#FFC29C"/>
<path d="M660.753 301.674C657.997 301.263 656.369 300.014 656.299 299.96C655.924 299.668 655.856 299.127 656.148 298.753C656.439 298.378 656.978 298.31 657.352 298.601C657.381 298.622 658.84 299.709 661.272 300.008C663.752 300.31 665.414 299.738 665.43 299.732C665.876 299.574 666.369 299.808 666.529 300.253C666.689 300.698 666.458 301.191 666.013 301.351C665.932 301.381 663.976 302.071 661.065 301.716C660.958 301.704 660.856 301.689 660.753 301.674Z" fill="#FB9476"/>
<path d="M612.434 466.758C611.882 466.758 611.369 466.406 611.19 465.853C609.32 460.096 608.031 453.601 607.976 453.327C607.837 452.618 608.297 451.931 609.006 451.791C609.712 451.652 610.402 452.112 610.541 452.822C610.555 452.888 611.857 459.44 613.677 465.047C613.9 465.733 613.523 466.471 612.837 466.694C612.704 466.737 612.567 466.758 612.434 466.758Z" fill="#000503"/>
<path d="M619.415 464.416C618.869 464.416 618.362 464.073 618.177 463.527C616.231 457.797 614.856 451.323 614.799 451.051C614.649 450.344 615.102 449.65 615.809 449.501C616.515 449.351 617.207 449.804 617.357 450.509C617.371 450.576 618.759 457.107 620.653 462.687C620.885 463.371 620.518 464.113 619.835 464.345C619.695 464.393 619.554 464.416 619.415 464.416Z" fill="#000503"/>
<path d="M626.402 462.073C625.863 462.073 625.359 461.738 625.169 461.202C623.15 455.498 621.689 449.045 621.628 448.773C621.47 448.069 621.911 447.37 622.617 447.212C623.319 447.054 624.021 447.495 624.178 448.201C624.194 448.265 625.668 454.775 627.634 460.329C627.876 461.01 627.518 461.755 626.839 461.997C626.695 462.048 626.546 462.073 626.402 462.073Z" fill="#000503"/>
<path d="M633.38 459.73C632.848 459.73 632.35 459.403 632.154 458.875C630.058 453.2 628.514 446.767 628.449 446.496C628.28 445.794 628.713 445.088 629.417 444.921C630.119 444.753 630.822 445.187 630.992 445.889C631.007 445.953 632.566 452.443 634.607 457.969C634.856 458.646 634.51 459.4 633.833 459.649C633.685 459.704 633.531 459.73 633.38 459.73Z" fill="#000503"/>
<path d="M640.365 457.388C639.84 457.388 639.344 457.068 639.144 456.549C636.974 450.9 635.343 444.489 635.276 444.219C635.097 443.519 635.521 442.808 636.221 442.631C636.921 442.454 637.632 442.878 637.809 443.578C637.826 443.641 639.471 450.111 641.584 455.611C641.843 456.285 641.508 457.042 640.833 457.3C640.679 457.359 640.521 457.388 640.365 457.388Z" fill="#000503"/>
<path d="M647.345 455.046C646.826 455.046 646.335 454.734 646.131 454.222C643.885 448.602 642.17 442.21 642.098 441.94C641.911 441.244 642.326 440.527 643.024 440.341C643.722 440.154 644.437 440.569 644.623 441.267C644.64 441.332 646.373 447.781 648.558 453.252C648.826 453.924 648.499 454.685 647.83 454.953C647.67 455.015 647.506 455.046 647.345 455.046Z" fill="#000503"/>
<path d="M654.327 452.703C653.814 452.703 653.329 452.398 653.119 451.896C650.799 446.303 648.998 439.932 648.922 439.664C648.726 438.969 649.131 438.247 649.827 438.051C650.521 437.855 651.244 438.26 651.438 438.956C651.457 439.021 653.273 445.449 655.535 450.894C655.811 451.56 655.495 452.326 654.827 452.602C654.664 452.67 654.494 452.703 654.327 452.703Z" fill="#000503"/>
<path d="M691.947 313.328C691.681 316.738 691.048 320.143 689.886 323.324C689.591 324.138 689.258 324.935 688.885 325.715V325.719C687.012 329.682 684.178 333.174 680.013 335.728C680.013 335.728 659.703 344.361 635.778 333.766H635.774C634.416 333.163 633.045 332.495 631.662 331.763C630.455 331.124 629.245 330.434 628.032 329.69C617.64 323.324 613.521 314.745 612.395 306.575C612.294 305.846 612.216 305.126 612.161 304.401C611.72 298.64 612.65 293.212 613.762 289.076C613.838 288.802 613.913 288.532 613.987 288.271C615.191 284.057 616.509 281.375 616.509 281.375C616.509 281.375 621.887 279.038 628.943 277.965C631.626 277.558 634.553 277.334 637.52 277.492C640.888 277.667 644.31 278.336 647.486 279.785C670.171 290.135 681.66 294.757 688.242 285.873C688.242 285.873 689.385 289.179 690.428 294.158C690.576 294.865 690.719 295.601 690.861 296.37C691.245 298.481 691.59 300.81 691.816 303.266C692.115 306.482 692.217 309.903 691.947 313.328Z" fill="#4984A6"/>
<path d="M690.862 296.369C690.56 296.837 690.22 297.311 689.847 297.782C686.973 301.413 681.389 305.593 670.908 305.593C670.265 305.593 669.607 305.578 668.928 305.544C658.765 305.059 650.842 300.863 643.177 296.807C634.03 291.967 625.386 287.391 613.917 289.806L613.763 289.076L613.611 288.345C613.739 288.321 613.866 288.294 613.99 288.271C625.793 285.919 634.581 290.569 643.875 295.489C651.395 299.466 659.172 303.583 668.999 304.049C677.905 304.479 684.508 302.075 688.632 296.911C689.371 295.985 689.961 295.048 690.429 294.157C690.579 294.863 690.72 295.601 690.862 296.369Z" fill="#193289"/>
<path d="M689.883 323.324C689.588 324.138 689.255 324.935 688.882 325.714V325.718C685.083 327.9 680.529 329.395 675.263 330.186C672.27 330.638 669.046 330.861 665.606 330.861C661.127 330.861 656.283 330.48 651.114 329.72C635.604 327.426 622.344 322.42 622.209 322.367L622.744 320.971C622.875 321.023 636.003 325.979 651.357 328.244C663.571 330.039 679.398 330.418 689.883 323.324Z" fill="#193289"/>
<path d="M654.024 442.994L608.037 458.011C608.037 458.011 607.429 455.331 606.487 450.774C606.278 449.759 606.05 448.646 605.812 447.45C605.162 444.215 604.414 440.356 603.625 436.05C603.427 434.958 603.227 433.842 603.026 432.695C602.387 429.093 601.733 425.24 601.097 421.212C600.922 420.095 600.746 418.968 600.574 417.825C600.004 414.059 599.45 410.175 598.946 406.233C598.8 405.09 598.655 403.943 598.517 402.791C598.045 398.89 597.626 394.957 597.28 391.056C597.172 389.888 597.075 388.723 596.986 387.561C596.668 383.496 596.436 379.489 596.32 375.615C596.286 374.423 596.259 373.243 596.246 372.078C596.192 367.738 596.301 363.599 596.611 359.778C596.712 358.525 596.835 357.312 596.982 356.136C597.083 355.284 597.202 354.451 597.328 353.641C597.929 349.856 598.762 346.424 599.768 343.308C600.186 342 600.639 340.75 601.116 339.554C609.629 318.173 626.348 313.959 626.348 313.959C638.731 315.188 644.174 328.419 644.174 328.419C641.578 330.893 639.703 334.292 638.417 338.369C638.085 339.427 637.79 340.53 637.537 341.673C636.848 344.735 636.43 348.097 636.236 351.675C636.173 352.785 636.135 353.917 636.116 355.064C636.061 358.407 636.177 361.903 636.434 365.495C636.512 366.617 636.605 367.745 636.709 368.881C637.031 372.34 637.468 375.87 637.995 379.413C638.164 380.543 638.339 381.667 638.522 382.795C639.096 386.321 639.751 389.85 640.46 393.333C640.684 394.453 640.92 395.565 641.156 396.676C641.921 400.257 642.735 403.772 643.568 407.165C643.838 408.27 644.11 409.36 644.387 410.436C645.308 414.078 646.247 417.553 647.151 420.78C647.461 421.889 647.771 422.973 648.073 424.021C649.189 427.891 650.235 431.324 651.129 434.171C651.498 435.345 651.839 436.415 652.149 437.379C653.303 440.944 654.024 442.994 654.024 442.994Z" fill="#4984A6"/>
<path d="M638.413 338.37C638.08 339.427 637.786 340.529 637.533 341.672C629.393 340.667 614.608 339.734 599.764 343.309C600.182 342.001 600.635 340.749 601.112 339.555C608.489 337.959 615.576 337.429 621.424 337.37C628.328 337.295 634.267 337.832 638.413 338.37Z" fill="#193289"/>
<path d="M636.233 351.675C636.17 352.784 636.132 353.916 636.113 355.063C626.398 354.646 611.14 355.038 596.607 359.777C596.708 358.526 596.832 357.313 596.978 356.135C606.611 353.174 616.216 352.048 623.756 351.694C628.456 351.474 632.703 351.521 636.233 351.675Z" fill="#193289"/>
<path d="M636.706 368.88C626.337 369.055 610.766 370.352 596.316 375.617C596.282 374.424 596.255 373.243 596.24 372.077C606.879 368.35 617.752 366.714 626.086 366.02C629.878 365.702 633.374 365.552 636.428 365.497C636.508 366.617 636.601 367.745 636.706 368.88Z" fill="#193289"/>
<path d="M638.522 382.795C627.813 383.516 611.87 385.532 597.279 391.057C597.172 389.887 597.076 388.723 596.986 387.561C611.661 382.126 627.305 380.132 637.996 379.414C638.165 380.541 638.34 381.667 638.522 382.795Z" fill="#193289"/>
<path d="M641.152 396.675C630.27 397.908 613.843 400.57 598.942 406.234C598.796 405.091 598.651 403.944 598.512 402.79C613.484 397.191 629.598 394.557 640.456 393.332C640.68 394.454 640.916 395.566 641.152 396.675Z" fill="#193289"/>
<path d="M644.385 410.437C633.474 412.158 616.459 415.49 601.095 421.212C600.92 420.096 600.746 418.968 600.572 417.825C615.884 412.203 632.645 408.9 643.568 407.163C643.836 408.27 644.108 409.36 644.385 410.437Z" fill="#193289"/>
<path d="M648.078 424.022C637.287 426.218 619.588 430.282 603.63 436.049C603.432 434.959 603.23 433.843 603.029 432.696C618.917 427.006 636.357 422.987 647.156 420.779C647.466 421.888 647.776 422.972 648.078 424.022Z" fill="#193289"/>
<path d="M652.147 437.379C641.696 440.009 623.199 444.941 606.487 450.774C606.276 449.758 606.05 448.646 605.81 447.449C622.425 441.675 640.669 436.809 651.128 434.171C651.498 435.344 651.837 436.415 652.147 437.379Z" fill="#193289"/>
<path d="M635.778 333.766H635.774C635.434 333.747 635.084 333.707 634.72 333.638C633.615 333.429 632.6 332.773 631.66 331.763C623.754 323.235 621.717 289.58 621.717 289.58C621.717 289.58 624.681 282.256 628.943 277.967C631.624 277.56 634.553 277.336 637.52 277.494C638.134 283.814 640.261 303.962 642.733 309.506C645.576 315.873 645.213 334.27 635.778 333.766Z" fill="#128E5A"/>
<path d="M691.949 313.328C680.395 322.294 655.18 317.132 632.156 310.348C624.29 308.03 617.736 306.948 612.394 306.577C612.297 305.848 612.217 305.126 612.162 304.403C622.17 305.029 635.578 307.841 652.187 311.615C676.819 317.208 688.04 307.767 691.819 303.268C692.118 306.484 692.219 309.907 691.949 313.328Z" fill="#193289"/>
<path d="M675.253 267.722C674.873 270.153 675.66 272.296 677.015 272.509C678.374 272.724 679.786 270.923 680.166 268.49C680.316 267.532 680.284 266.623 680.109 265.854C682.524 266.337 683.561 264.949 683.561 264.949C681.957 264.924 679.913 264.259 678.949 263.913C678.608 263.785 678.399 263.703 678.399 263.703C677.045 263.489 675.636 265.286 675.253 267.722Z" fill="#181818"/>
<path d="M678.401 263.702C678.401 263.702 678.609 263.784 678.952 263.912C678.782 263.805 678.599 263.732 678.401 263.702Z" fill="#181818"/>
<path d="M692.085 276.986C691.233 279.285 690.299 281.513 689.308 283.654C688.217 283.664 687.045 283.587 685.837 283.416C680.442 282.654 676.317 280.292 676.623 278.142C676.929 275.995 681.551 274.875 686.94 275.636C688.863 275.908 690.626 276.383 692.085 276.986Z" fill="#FD9B7E"/>
<path d="M652.483 273.925C652.175 276.097 647.508 277.229 642.057 276.457C636.606 275.683 632.438 273.298 632.748 271.126C633.054 268.956 637.723 267.822 643.172 268.594C648.622 269.368 652.791 271.753 652.483 273.925Z" fill="#FD9B7E"/>
<path d="M629.982 260.195C630.277 258.139 629.402 256.1 627.725 254.879C623.566 251.853 617.995 250.14 615.235 255.64C610.112 265.849 619.421 279.531 627.474 277.728L629.982 260.195Z" fill="#FBB990"/>
<path d="M631.671 277.057C631.515 277.202 631.361 277.341 631.203 277.468C630.741 277.851 630.269 278.176 629.788 278.446C628.905 278.946 628.012 279.271 627.156 279.479C627.074 278.94 627 278.394 626.939 277.835C627.551 277.689 628.181 277.476 628.803 277.162C629.307 276.924 629.811 276.622 630.29 276.247C630.48 276.097 630.674 275.933 630.855 275.764C631.155 275.471 631.585 275.536 631.81 275.901C632.034 276.259 631.979 276.784 631.671 277.057Z" fill="#FB9476"/>
<path d="M623.877 270.63C623.455 270.567 623.134 270.197 623.145 269.759C623.312 262.867 618.94 259.187 618.896 259.151C618.531 258.848 618.476 258.308 618.777 257.941C619.077 257.572 619.617 257.517 619.986 257.817C620.191 257.987 625.055 262.034 624.866 269.799C624.855 270.275 624.459 270.651 623.986 270.638C623.948 270.638 623.913 270.634 623.877 270.63Z" fill="#FB9476"/>
<path d="M618.383 265.802C618.185 265.772 617.999 265.675 617.86 265.513C617.55 265.154 617.588 264.614 617.947 264.302C618.048 264.214 620.465 262.155 623.179 262.873C623.637 262.995 623.911 263.467 623.79 263.927C623.666 264.385 623.192 264.656 622.736 264.538C620.91 264.055 619.09 265.589 619.071 265.605C618.873 265.774 618.62 265.838 618.383 265.802Z" fill="#FB9476"/>
<path d="M668.964 276.925H668.97H668.964ZM664.645 281.269C664.297 281.217 663.989 280.955 663.919 280.55C663.852 280.17 664.075 279.797 664.425 279.629C666.542 278.625 668.582 277.334 668.938 276.788C668.645 275.219 667.483 268.985 667.059 266.703C666.971 266.235 667.279 265.79 667.747 265.702C668.213 265.615 668.662 265.921 668.75 266.387C669.189 268.745 670.412 275.308 670.655 276.607C670.741 277.056 670.996 278.42 665.14 281.195C664.98 281.271 664.807 281.293 664.645 281.269" fill="#FB9476"/>
<path d="M653.72 264.505C653.371 266.941 651.993 268.76 650.635 268.569C649.273 268.377 648.449 266.241 648.796 263.803C648.933 262.845 649.229 261.983 649.621 261.3C647.17 261.057 646.584 259.425 646.584 259.425C648.124 259.87 650.275 259.832 651.298 259.783C651.662 259.76 651.884 259.741 651.884 259.741C653.242 259.933 654.068 262.063 653.72 264.505Z" fill="#181818"/>
<path d="M651.89 259.741C651.89 259.741 651.667 259.76 651.303 259.781C651.496 259.73 651.692 259.711 651.89 259.741Z" fill="#181818"/>
<path d="M687.683 263.833C687.19 262.815 686.543 261.802 685.845 260.889C685.142 259.97 684.351 259.135 683.504 258.401C682.664 257.656 681.739 257.045 680.783 256.556C679.839 256.035 678.809 255.75 677.814 255.493L677.711 255.469C676.629 255.191 675.979 254.088 676.256 253.008C676.532 251.925 677.635 251.273 678.715 251.551C678.841 251.583 678.968 251.631 679.081 251.684C680.338 252.281 681.557 252.937 682.597 253.812C683.651 254.656 684.592 255.609 685.38 256.653C686.176 257.688 686.853 258.785 687.413 259.928C687.97 261.079 688.421 262.233 688.74 263.491C688.816 263.789 688.637 264.092 688.339 264.168C688.078 264.234 687.814 264.105 687.702 263.871L687.683 263.833Z" fill="#111111"/>
<path d="M641.332 256.454C642.197 255.269 643.159 254.24 644.23 253.266C645.299 252.3 646.472 251.431 647.743 250.68C649.004 249.915 650.388 249.312 651.841 248.871C653.294 248.388 654.839 248.211 656.396 248.11C657.509 248.038 658.469 248.883 658.542 249.995C658.612 251.108 657.769 252.068 656.657 252.14C656.547 252.148 656.436 252.144 656.33 252.135L656.2 252.121C655.01 251.998 653.776 251.897 652.543 252.085C651.309 252.23 650.063 252.521 648.859 252.989C647.652 253.441 646.469 254.023 645.343 254.727C644.228 255.429 643.133 256.256 642.195 257.156L642.165 257.184C641.944 257.397 641.592 257.388 641.379 257.167C641.189 256.969 641.176 256.667 641.332 256.454Z" fill="#111111"/>
<path d="M640.355 234.183C640.355 234.183 656.311 255.961 693.591 254.896C713.648 254.324 696.229 223.004 666.332 221.243C636.433 219.484 640.355 234.183 640.355 234.183Z" fill="#002014"/>
<path d="M693.687 251.487C693.687 251.487 695.928 268.096 692.084 276.985C692.084 276.985 699.292 262.119 697.044 252.722C694.796 243.325 693.687 251.487 693.687 251.487Z" fill="#181818"/>
<path d="M650.351 234.248C650.351 234.248 632.582 264.539 636.93 288.991C641.274 313.441 647.62 332.907 630.095 334.732C612.75 336.541 601.245 329.729 585.715 335.87H585.711C585.549 335.936 585.39 335.999 585.224 336.068C584.817 336.235 584.452 336.336 584.115 336.381C581.426 336.727 580.911 333.217 581.919 327.226C582.278 325.107 582.824 322.684 583.53 320.008C586.801 307.618 593.53 289.891 600.838 272.854C606.58 259.474 612.679 246.519 617.748 236.911C619.594 233.411 621.306 230.361 622.81 227.887C638.851 201.575 674.575 208.994 674.575 208.994L650.351 234.248Z" fill="#002014"/>
<path d="M618.814 238.062C618.65 238.36 609.601 255.002 600.836 272.852C593.683 287.417 586.72 302.791 584.915 310.76C584.139 314.193 583.711 317.274 583.525 320.009C582.935 328.753 584.826 333.963 585.706 335.868C585.547 335.935 585.385 336 585.221 336.066C584.814 336.235 584.447 336.336 584.111 336.38C583.413 334.837 582.331 331.815 581.916 327.224C581.528 322.981 581.714 317.394 583.297 310.393C587.361 292.434 616.136 239.511 617.357 237.267C617.446 237.101 617.585 236.984 617.745 236.911C617.973 236.807 618.245 236.807 618.481 236.938C618.884 237.155 619.034 237.659 618.814 238.062Z" fill="#002014"/>
<g opacity="0.399994">
<g opacity="0.399994">
<g opacity="0.399994">
<g opacity="0.399994">
<g opacity="0.399994">
<g opacity="0.399994">
<path opacity="0.399994" d="M671.44 254.941C671.44 254.941 652.083 249.063 646.57 270.344C641.054 291.624 660.136 301.179 672.239 298.84C684.344 296.499 692.307 258.551 671.44 254.941Z" fill="#FFC29C"/>
</g>
</g>
</g>
</g>
</g>
</g>
<path d="M652.134 252.681C644.894 252.681 639.006 258.572 639.006 265.812C639.006 273.05 644.894 278.94 652.134 278.94C659.375 278.94 665.263 273.05 665.263 265.812C665.263 258.572 659.375 252.681 652.134 252.681ZM652.134 280.747C643.897 280.747 637.197 274.047 637.197 265.812C637.197 257.575 643.897 250.875 652.134 250.875C660.371 250.875 667.071 257.575 667.071 265.812C667.071 274.047 660.371 280.747 652.134 280.747Z" fill="white"/>
<path d="M685.224 259.392C677.984 259.392 672.096 265.282 672.096 272.52C672.096 279.761 677.984 285.651 685.224 285.651C692.465 285.651 698.353 279.761 698.353 272.52C698.353 265.282 692.465 259.392 685.224 259.392ZM685.224 287.458C676.987 287.458 670.287 280.757 670.287 272.52C670.287 264.285 676.987 257.585 685.224 257.585C693.461 257.585 700.161 264.285 700.161 272.52C700.161 280.757 693.461 287.458 685.224 287.458Z" fill="white"/>
<path d="M671.139 268.642C669.547 266.189 666.614 267.227 666.489 267.273L665.869 265.576C667.389 265.021 670.76 264.741 672.655 267.657L671.139 268.642Z" fill="white"/>
<path d="M694.891 611.712C690.713 614.711 685.019 623.673 675.129 626.818C618.95 644.694 566.524 610 566.524 610C563.411 594.614 565.337 577.133 570.52 570.733C568.89 568.46 569.968 565.742 569.968 565.742L545.229 519.879C545.828 520.256 584.036 544.409 612.349 561.52H612.361C620.519 566.448 627.855 570.792 633.23 573.81C641.432 578.415 651.902 578.865 662.16 577.452C682.155 574.689 701.337 564.837 701.337 564.837C701.337 564.837 749.178 536.627 761.252 537.601C770.64 538.354 736.671 590.118 694.891 611.712Z" fill="#193289"/>
<path d="M589.08 658.116C589.08 658.116 586.056 658.683 581.142 659.691C579.742 659.978 578.19 660.295 576.515 660.651C574.29 661.121 571.844 661.646 569.235 662.226C567.747 662.555 566.207 662.901 564.623 663.26C544.927 667.747 518.847 674.571 508.345 681.242C507.609 681.71 506.894 682.174 506.207 682.64C490.205 693.399 486.932 702.689 483.963 700.805C480.865 698.842 480.171 690.786 485.226 685.489C488.726 681.819 491.175 676.465 495.875 670.678C497.145 669.112 498.579 667.515 500.243 665.91C507.594 658.827 519.357 651.507 525.926 645.879C526.35 645.518 526.751 645.16 527.13 644.812C532.536 639.826 534.646 629.563 544.512 626.444C549.334 624.923 555.111 625.516 560.686 626.986C561.677 627.247 562.662 627.538 563.63 627.846C565.081 628.31 566.5 628.82 567.867 629.347C569.756 630.086 571.547 630.864 573.181 631.627C574.746 632.357 576.173 633.072 577.401 633.715C580.366 635.269 582.199 636.423 582.199 636.423L589.08 658.116Z" fill="white"/>
<path d="M560.68 626.987C554.849 634.619 541.42 649.208 525.92 645.881C526.344 645.518 526.746 645.162 527.124 644.813C532.531 639.826 534.642 629.564 544.507 626.444C549.328 624.923 555.106 625.518 560.68 626.987Z" fill="#80A3D7"/>
<path d="M506.206 682.64C490.204 693.398 486.931 702.689 483.964 700.806C480.864 698.843 480.172 690.785 485.225 685.489C488.726 681.818 491.176 676.466 495.874 670.679C499.833 673.488 504.044 677.471 506.206 682.64Z" fill="#80A3D7"/>
<path d="M581.137 659.691C579.737 659.976 578.187 660.296 576.51 660.651C573.596 655.33 572.134 648.841 572.223 641.439C572.269 637.698 572.699 634.299 573.176 631.627C574.743 632.358 576.168 633.073 577.396 633.715C577.048 635.965 576.769 638.643 576.736 641.528C576.67 647.361 577.63 654.041 581.137 659.691Z" fill="#80A3D7"/>
<path d="M567.863 629.347C566.496 628.82 565.077 628.31 563.626 627.846C562.685 630.579 561.336 635.184 560.728 640.598C559.741 649.373 561.079 657.08 564.619 663.261C566.203 662.901 567.744 662.555 569.231 662.226C561.745 650.76 565.863 635.222 567.863 629.347Z" fill="#80A3D7"/>
<path d="M825.234 574.855C804.144 600.611 756.725 626.958 706.011 642.245C688.401 647.553 673.283 651.537 660.381 654.523C650.222 656.879 641.431 658.61 633.887 659.875C604.758 664.761 594.052 662.726 594.052 662.726C594.052 662.726 576.078 656.946 583.784 627.749C583.784 627.749 617.858 619.917 644.259 606.867C649.642 604.208 654.708 601.328 659.1 598.253C660.128 597.532 661.152 596.8 662.163 596.056C686.701 578.082 707.682 553.668 762.978 531.599C762.978 531.599 791.9 514.035 815.148 521.911C818.615 523.082 821.898 524.775 824.865 527.111C841.711 540.366 839.473 557.477 825.234 574.855Z" fill="#4984A6"/>
<path d="M721.945 634.354L710.952 635.864L644.268 606.867C649.65 604.206 654.715 601.329 659.108 598.253C660.135 597.532 661.16 596.8 662.172 596.057L721.945 634.354Z" fill="#193289"/>
<path d="M660.388 654.522C650.228 656.879 641.438 658.609 633.893 659.874C612.672 654.111 587.263 643.358 587.263 643.358L588.918 630.179L660.388 654.522Z" fill="#193289"/>
<path d="M825.232 574.856C807.826 551.462 811.284 531.873 815.147 521.911C818.616 523.084 821.896 524.775 824.865 527.111C841.71 540.366 839.471 557.477 825.232 574.856Z" fill="#193289"/>
<path d="M586.683 636.457C604.417 632.984 640.889 618.098 684.245 596.636C716.672 580.584 754.163 559.9 759.853 552.416C762.927 548.374 763.802 544.997 762.453 542.38C760.435 538.464 754.175 537.802 751.312 537.709C750.574 537.684 749.97 538.283 749.992 539.023C750.013 539.692 750.544 540.233 751.215 540.255C754.028 540.356 758.904 541.046 760.19 543.547C761.259 545.626 759.494 548.679 757.824 550.873C753.235 556.91 721.816 575.194 683.116 594.352C649.792 610.848 606.829 629.916 586.194 633.958L586.683 636.457Z" fill="#193289"/>
<path d="M590.514 624.111C591.832 639.687 595.248 653.942 603.54 665.113C603.54 665.113 595.818 670.191 589.137 666.028C584.035 662.848 574.984 638.221 579.377 625.467C583.852 623.265 587.66 622.592 590.514 624.111Z" fill="#193289"/>
<path d="M712.635 664.405C712.635 664.405 715.615 665.166 720.453 666.495C721.83 666.871 723.359 667.294 725.008 667.756C727.197 668.37 729.603 669.055 732.168 669.804C733.631 670.23 735.147 670.675 736.702 671.137C756.063 676.904 781.641 685.42 791.683 692.761C792.389 693.279 793.071 693.788 793.727 694.298C808.99 706.08 811.65 715.563 814.733 713.879C817.955 712.124 819.172 704.129 814.477 698.513C811.223 694.621 809.129 689.119 804.819 683.035C803.653 681.392 802.328 679.703 800.772 677.993C793.901 670.443 782.642 662.372 776.455 656.326C776.055 655.938 775.677 655.555 775.323 655.181C770.255 649.852 768.819 639.475 759.178 635.715C754.468 633.882 748.663 634.095 743.005 635.198C741.997 635.394 740.995 635.618 740.01 635.864C738.53 636.233 737.083 636.647 735.683 637.085C733.751 637.699 731.914 638.359 730.232 639.011C728.621 639.639 727.153 640.259 725.885 640.822C722.825 642.176 720.919 643.207 720.919 643.207L712.635 664.405Z" fill="white"/>
<path d="M743.006 635.197C748.325 643.197 760.773 658.63 776.455 656.325C776.056 655.937 775.679 655.555 775.324 655.182C770.255 649.851 768.819 639.475 759.179 635.715C754.468 633.883 748.666 634.096 743.006 635.197Z" fill="#80A3D7"/>
<path d="M793.725 694.298C808.987 706.08 811.648 715.564 814.731 713.879C817.953 712.124 819.17 704.128 814.474 698.512C811.22 694.621 809.128 689.119 804.817 683.035C800.682 685.58 796.22 689.281 793.725 694.298Z" fill="#80A3D7"/>
<path d="M720.454 666.494C721.831 666.871 723.358 667.293 725.009 667.755C728.263 662.637 730.148 656.257 730.544 648.864C730.741 645.129 730.536 641.71 730.234 639.013C728.623 639.638 727.153 640.258 725.884 640.821C726.087 643.088 726.19 645.778 726.034 648.661C725.719 654.484 724.323 661.086 720.454 666.494Z" fill="#80A3D7"/>
<path d="M732.17 669.804C733.632 670.23 735.146 670.675 736.704 671.137C740.639 665.202 742.48 657.6 742.069 648.777C741.814 643.336 740.77 638.654 740.009 635.864C738.531 636.233 737.084 636.647 735.684 637.085C737.297 643.075 740.388 658.849 732.17 669.804Z" fill="#80A3D7"/>
<path d="M718.276 634.856C724.054 664.498 705.743 669.087 705.743 669.087C705.743 669.087 678.457 672.444 595.365 641.328C547.458 623.39 503.285 595.354 482.878 569.067C467.894 549.767 465.724 531.401 484.295 518.664C488.575 515.73 493.371 514.048 498.363 513.265C521.355 509.657 548.515 525.131 548.515 525.131C604.469 551.829 590.464 561.003 637.126 590.727C663.813 607.726 718.276 634.856 718.276 634.856Z" fill="#4984A6"/>
<path d="M498.363 513.265C499.253 523.287 500.778 556.8 482.878 569.067C467.894 549.767 465.724 531.401 484.297 518.664C488.576 515.73 493.371 514.048 498.363 513.265Z" fill="#193289"/>
<path d="M714.82 643.356C697.35 638.731 661.93 621.491 620.07 597.239C588.764 579.101 552.707 556.008 547.518 548.169C544.715 543.933 544.063 540.506 545.579 537.985C547.849 534.207 554.141 533.958 557.003 534.051C557.741 534.076 558.304 534.713 558.233 535.447C558.169 536.115 557.602 536.619 556.933 536.6C554.118 536.516 549.209 536.885 547.762 539.299C546.558 541.301 548.121 544.462 549.643 546.763C553.827 553.085 583.985 573.387 621.348 595.036C653.522 613.676 695.146 635.513 715.473 640.894L714.82 643.356Z" fill="#193289"/>
<path d="M711.8 630.786C709.464 646.245 705.124 660.242 696.119 670.847C696.119 670.847 703.492 676.419 710.43 672.703C715.729 669.866 726.372 645.883 722.825 632.869C718.502 630.378 714.748 629.459 711.8 630.786Z" fill="#193289"/>
<path d="M795.577 512.719C789.374 520.657 780.815 525.098 774.022 529.639C757.683 540.565 724.532 547.473 727.023 509.835C729.519 472.202 757.989 487.452 737.042 421.352C728.102 393.149 721.944 335.014 721.944 335.014C721.944 335.014 768.74 367.798 796.429 448.653C798.588 454.952 800.22 460.701 801.399 465.956C806.755 489.828 802.725 503.586 795.577 512.719Z" fill="#181818"/>
<path d="M795.574 512.719C785.422 494.592 793.842 476.673 801.396 465.956C806.751 489.828 802.721 503.586 795.574 512.719Z" fill="black"/>
<path d="M726.915 516.572C726.398 516.572 725.932 516.212 725.821 515.686C725.753 515.364 724.18 507.705 727.303 497.523C730.173 488.175 737.734 474.876 757.466 464.604C758.018 464.317 758.693 464.532 758.978 465.079C759.265 465.629 759.05 466.306 758.503 466.591C739.518 476.475 732.244 489.16 729.484 498.063C726.489 507.715 727.997 515.145 728.012 515.22C728.142 515.824 727.754 516.42 727.149 516.547C727.069 516.564 726.991 516.572 726.915 516.572Z" fill="black"/>
<path d="M743.917 475.561C743.765 475.576 743.605 475.559 743.451 475.508C742.862 475.31 742.546 474.675 742.746 474.089C746.378 463.275 748.706 458.646 748.803 458.454C749.083 457.902 749.756 457.682 750.309 457.963C750.861 458.243 751.082 458.916 750.802 459.468C750.777 459.513 748.44 464.173 744.87 474.802C744.724 475.234 744.343 475.519 743.917 475.561Z" fill="black"/>
<path d="M745.183 470.636C744.565 470.636 744.063 470.134 744.063 469.516C744.063 447.486 714.626 397.609 714.328 397.106C714.012 396.574 714.187 395.885 714.719 395.57C715.252 395.254 715.939 395.431 716.256 395.962C717.483 398.031 746.303 446.876 746.303 469.516C746.303 470.134 745.803 470.636 745.183 470.636Z" fill="black"/>
<path d="M724.346 414.025C724.113 414.025 723.877 413.953 723.675 413.802C719.866 410.955 710.227 408.437 710.13 408.413C709.531 408.258 709.172 407.646 709.328 407.049C709.482 406.448 710.094 406.088 710.691 406.244C711.104 406.351 720.855 408.896 725.018 412.007C725.512 412.378 725.615 413.08 725.244 413.576C725.023 413.869 724.687 414.025 724.346 414.025Z" fill="black"/>
<path d="M710.626 571.348C710.809 573.337 710.98 575.416 711.224 577.094C711.682 580.264 712.405 581.998 713.981 578.984C714.331 578.305 714.615 577.438 714.847 576.441C716.204 570.625 715.758 560.39 716.385 558.159C717.095 555.624 720.052 548.414 720.311 548.007C720.177 548.307 718.844 552.716 718.69 555.435C718.544 557.986 718.69 561.086 718.69 567.366C718.69 570.104 718.791 572.936 719.137 574.996V575.001C719.582 577.664 720.442 579.02 722.037 577.173C722.823 576.264 723.325 574.669 723.652 572.78C724.512 567.875 724.204 560.949 724.656 558.682C725.265 555.643 727.732 550.732 727.889 550.424C726.954 553.551 726.954 553.242 726.435 557.35C726.067 560.22 725.398 567.856 726.107 571.278C726.408 572.753 726.973 573.45 727.927 572.641C729.417 571.38 730.451 569.532 731.182 567.417C732.003 565.043 732.437 562.329 732.713 559.73C733.234 554.808 735.225 551.774 735.225 551.774C734.12 557.105 733.515 562.261 733.842 564.924C734.069 566.806 734.759 567.442 736.06 566.01C738.597 563.221 741.159 554.003 742.045 550.536C742.075 550.43 742.1 550.323 742.125 550.222C742.157 550.116 742.176 550.023 742.203 549.933C742.321 549.469 742.383 549.205 742.383 549.205L742.389 549.199C743.125 546.31 743.789 543.421 744.763 540.835C746.208 536.991 748.355 533.807 752.488 532.276C761.864 528.79 758.985 510.959 745.843 509.888C742.014 509.576 738.224 510.845 735.219 513.237C733.306 514.76 730.607 516.889 727.876 518.975L727.87 518.981C727.608 519.315 719.061 529.901 716.385 536.495C713.667 543.189 711.362 553.764 710.839 556.797C710.313 559.83 710.107 565.589 710.626 571.348Z" fill="#FAB893"/>
<path d="M504.045 521.515C510.287 529.653 518.898 534.208 525.734 538.866C542.173 550.07 575.528 557.151 573.022 518.556C570.511 479.967 541.867 495.606 562.943 427.825C571.937 398.905 573.022 341.272 573.022 341.272C573.022 341.272 531.049 372.909 503.188 455.82C501.016 462.277 499.374 468.172 498.19 473.563C492.801 498.042 496.856 512.15 504.045 521.515Z" fill="#181818"/>
<path d="M504.304 523.099C514.456 504.97 506.037 487.053 498.484 476.336C493.129 500.208 497.159 513.966 504.304 523.099Z" fill="black"/>
<path d="M572.963 526.952C573.48 526.952 573.946 526.592 574.057 526.065C574.125 525.744 575.698 518.085 572.573 507.903C569.705 498.555 562.143 485.256 542.41 474.982C541.86 474.696 541.185 474.911 540.898 475.459C540.613 476.007 540.826 476.684 541.375 476.971C560.359 486.853 567.634 499.54 570.396 508.443C573.387 518.093 571.881 525.525 571.866 525.599C571.738 526.204 572.124 526.798 572.729 526.927C572.807 526.944 572.885 526.952 572.963 526.952Z" fill="black"/>
<path d="M555.965 485.94C556.119 485.956 556.277 485.939 556.432 485.887C557.018 485.689 557.334 485.054 557.138 484.468C553.504 473.655 551.176 469.025 551.079 468.833C550.799 468.282 550.126 468.061 549.573 468.343C549.021 468.622 548.8 469.295 549.08 469.849C549.103 469.893 551.442 474.552 555.014 485.182C555.158 485.613 555.539 485.899 555.965 485.94Z" fill="black"/>
<path d="M554.696 481.015C555.316 481.015 555.816 480.513 555.816 479.895C555.816 457.866 585.255 407.988 585.552 407.486C585.869 406.953 585.692 406.265 585.16 405.949C584.629 405.633 583.941 405.81 583.625 406.343C582.397 408.41 553.576 457.255 553.576 479.895C553.576 480.513 554.078 481.015 554.696 481.015Z" fill="black"/>
<path d="M575.534 424.405C575.768 424.405 576.002 424.333 576.203 424.181C580.013 421.334 589.651 418.818 589.748 418.793C590.347 418.639 590.709 418.026 590.553 417.427C590.397 416.828 589.784 416.469 589.187 416.623C588.774 416.729 579.024 419.276 574.861 422.387C574.366 422.756 574.265 423.46 574.634 423.956C574.855 424.249 575.191 424.405 575.534 424.405Z" fill="black"/>
<path d="M589.254 581.727C589.071 583.718 588.902 585.797 588.659 587.472C588.198 590.642 587.476 592.379 585.901 589.364C585.549 588.684 585.266 587.818 585.034 586.82C583.678 581.004 584.123 570.768 583.495 568.539C582.786 566.002 579.828 558.794 579.571 558.387C579.703 558.688 581.036 563.096 581.19 565.816C581.336 568.364 581.19 571.466 581.19 577.746C581.19 580.485 581.091 583.317 580.745 585.376V585.382C580.3 588.045 579.438 589.401 577.843 587.554C577.059 586.645 576.557 585.049 576.23 583.159C575.37 578.254 575.676 571.327 575.226 569.06C574.615 566.021 572.149 561.111 571.991 560.804C572.926 563.931 572.926 563.623 573.448 567.731C573.813 570.599 574.484 578.235 573.775 581.658C573.474 583.134 572.907 583.83 571.953 583.022C570.465 581.759 569.429 579.912 568.701 577.797C567.877 575.424 567.445 572.71 567.168 570.11C566.647 565.186 564.657 562.153 564.657 562.153C565.762 567.486 566.365 572.641 566.038 575.302C565.812 577.187 565.121 577.82 563.82 576.388C561.283 573.602 558.722 564.382 557.837 560.917C557.805 560.81 557.78 560.702 557.755 560.603C557.723 560.494 557.706 560.401 557.679 560.314C557.561 559.85 557.499 559.585 557.499 559.585L557.491 559.578C556.757 556.691 556.091 553.802 555.118 551.215C553.674 547.372 551.527 544.188 547.394 542.655C538.016 539.171 540.895 521.339 554.037 520.266C557.868 519.955 561.658 521.223 564.663 523.616C566.576 525.141 569.273 527.269 572.004 529.355L572.01 529.361C572.274 529.694 580.821 540.281 583.495 546.875C586.215 553.57 588.52 564.144 589.041 567.177C589.568 570.209 589.775 575.97 589.254 581.727Z" fill="#FAB893"/>
</svg>
