<svg width="639" height="569" viewBox="0 0 639 569" fill="none" xmlns="http://www.w3.org/2000/svg">
<path d="M269.791 540.628C238.286 551.323 206.422 556.136 172.331 549.575C134.333 542.258 101.151 510.332 82.2807 478.598C75.2696 466.811 69.6548 453.657 70.2547 440.149C71.6523 408.943 101.841 405.677 127.537 410.915C142.022 413.861 155.356 420.423 168.539 426.921C190.426 437.718 216.036 443.136 235.704 458.023C242.304 463.032 247.28 469.029 254.929 472.694C266.83 478.4 280.38 481.153 292.597 486.356C303.028 490.821 314.707 498.124 314.82 509.171C314.921 520.499 302.874 527.629 292.274 532.06C284.77 535.218 277.297 538.092 269.791 540.628Z" fill="url(#paint0_linear)"/>
<path d="M153.189 138.029C204.252 63.9197 310.932 34.7993 397.862 63.446C439.78 77.2666 475.058 105.661 507.624 135.107C536.331 161.06 564.205 189.03 583.945 222.268C597.423 244.955 607.166 272.103 614.1 297.432C624.468 335.357 615.782 384.06 565.689 380.117C553.935 379.194 543.737 374.991 532.721 371.298C523.809 368.304 515.117 369.996 505.878 368.498C482.625 364.733 460.181 356.212 438.94 346.269C395.655 325.986 356.025 298.572 311.535 280.749C275.075 266.163 236.209 258.484 197.032 258.127C180.504 257.979 163.136 258.981 148.289 251.649C111.693 233.561 127.657 185.634 141.029 158.706C144.571 151.533 148.635 144.623 153.189 138.029Z" fill="url(#paint1_linear)"/>
<path d="M560.614 151.757C569.18 159.331 602.753 180.083 603.185 156.024C603.284 150.03 600.446 144.188 596.615 139.77C592.232 134.699 587.29 132.019 583.85 126.123C579.642 119.004 574.864 112.307 569.579 106.119C558.772 93.24 546.182 81.3213 530.986 75.9403C520.327 72.1705 502.345 72.9664 497.414 86.218C490.231 105.509 521.705 109.285 531.356 116.406C540.515 123.146 545.769 134.65 553.058 143.815C555.362 146.705 557.891 149.364 560.614 151.757Z" fill="url(#paint2_linear)"/>
<path d="M400.029 126.921C418.139 137.419 431.793 153.035 448.332 165.652C475.868 186.654 513.397 191.186 544.892 205.883C577.005 220.879 601.358 243.994 612.568 277.134C627.05 319.91 628.836 370.666 617.236 414.446C604.461 462.638 573.747 494.486 528.614 515.543C483.508 536.588 433.42 546.194 383.395 547.884C378.567 548.051 373.747 548.124 368.907 548.119C260.196 547.934 115.16 509.478 77.1445 395.099C76.796 394.054 76.4618 393.009 76.1264 391.949C72.2008 379.208 69.8432 366.079 69.1038 352.841C66.3637 305.909 74.313 254.188 90.7613 210.332C101.824 180.807 125.986 155.951 151.521 138.302C187.398 113.507 231.385 107.436 275.195 104.753C307.635 102.767 344.136 102.223 374.939 114.581C383.596 118.081 391.983 122.205 400.029 126.921Z" fill="url(#paint3_linear)"/>
<path d="M295.505 536.123C172.373 575.392 69.7635 537.526 33.8501 513.684L0.501953 485.635L12.0455 464.599L83.8723 457.587L203.156 450.574L299.353 471.611L399.397 435.147H409.658C394.266 492.367 327.143 526.306 295.505 536.123Z" fill="#3B499A"/>
<path d="M173.59 504.644H519.697C519.697 504.644 531.815 312.974 487.721 284.927C443.633 256.886 246.972 266.496 204.027 294.78C95.1268 366.495 173.59 504.644 173.59 504.644Z" fill="#3B499A"/>
<path d="M231.208 244.542C230.709 244.542 230.203 244.386 229.788 244.05C228.832 243.302 206.641 225.311 218.783 189.051C223.023 176.372 227.178 167.399 230.847 159.469C237.456 145.203 242.231 134.887 243.133 112.841C243.181 111.642 244.24 110.744 245.479 110.75C246.724 110.802 247.692 111.81 247.644 113.009C246.706 135.889 241.528 147.08 234.966 161.242C231.346 169.067 227.245 177.936 223.065 190.383C211.915 223.713 231.797 240.012 232.645 240.69C233.601 241.455 233.746 242.822 232.952 243.743C232.507 244.27 231.857 244.542 231.208 244.542Z" fill="#000C3E"/>
<path d="M354.067 28.2859C353.484 43.3345 340.344 55.0698 324.72 54.508C309.102 53.9461 296.911 41.2898 297.495 26.247C298.084 11.1984 311.218 -0.542757 326.843 0.0191073C342.461 0.58676 354.651 13.2373 354.067 28.2859Z" fill="#000C3E"/>
<path d="M228.677 233.954C228.677 233.954 236.982 250.451 270.889 256.249C304.801 262.053 331.413 250.236 357.591 259.383C383.77 268.523 421.591 256.608 429.09 246.014C436.584 235.42 435.014 118.095 414.374 98.4182C393.729 78.7473 285.575 62.3259 262.138 85.3448C238.702 108.37 213.811 220.742 228.677 233.954Z" fill="#000C3E"/>
<path d="M424.463 141.39C422.532 190.973 379.238 229.666 327.759 227.807C276.28 225.947 236.107 184.248 238.037 134.66C239.968 85.0768 283.262 46.3895 334.741 48.2489C386.22 50.1024 426.393 91.8076 424.463 141.39Z" fill="#000C3E"/>
<path d="M369.512 216.508C369.512 216.508 375.568 286.474 369.512 294.247C363.456 302.021 325.117 296.194 315.032 294.247C304.94 292.307 300.905 216.508 306.955 216.508C313.011 216.508 368.351 200.909 369.512 216.508Z" fill="#FFCEB0"/>
<path d="M255.092 134.656C255.092 134.656 258.929 243.709 335.474 248.419C412.025 253.122 411.947 99.4735 384.247 84.8594C356.541 70.2452 240.941 72.985 255.092 134.656Z" fill="#FFCEB0"/>
<path d="M333.689 157.999C333.689 157.999 348.308 191.566 344.544 193.79C340.785 196.015 329.774 195.615 326.809 193.147C323.844 190.68 327.711 154.246 333.689 157.999Z" fill="#EE9B68"/>
<path d="M315.364 76.5002C315.364 76.5002 287.916 89.284 282.696 113.282C277.47 137.285 280.176 198.737 251.093 195.916C251.093 195.916 194.785 74.2991 315.364 76.5002Z" fill="#000C3E"/>
<path d="M329.832 77.021C327.342 78.7413 358.133 78.666 375.736 99.2231C393.345 119.774 397.524 171.147 400.243 172.097C402.967 173.053 413.84 108.445 394.535 89.0344C375.237 69.6241 344 67.2492 329.832 77.021Z" fill="#000C3E"/>
<path d="M308.021 238.472C308.021 238.472 337.808 254.784 368.726 239.538C368.726 239.538 371.131 257.848 368.726 262.071C366.32 266.293 317.343 269.311 307.703 248.499C307.703 248.499 305.237 237.569 308.021 238.472Z" fill="#EE9B68"/>
<path d="M393.638 176.479C393.638 176.479 400.969 149.179 413.749 158.893C426.534 168.613 414.97 197.14 402.334 199.729C389.699 202.318 386.656 190.554 393.638 176.479Z" fill="#FFCEB0"/>
<path d="M272.911 172.122C272.911 172.122 267.721 144.371 254.219 153.14C240.718 161.904 250.034 191.19 262.434 194.683C274.835 198.17 278.774 186.661 272.911 172.122Z" fill="#FFCEB0"/>
<path d="M362.08 142.657C362.08 142.657 374.787 134.443 384.163 143.421C392.408 151.316 374.985 146.016 368.984 147.76C362.976 149.503 354.827 149.845 362.08 142.657Z" fill="#41294A"/>
<path d="M309.111 144.597C309.111 144.597 296.933 135.671 287.022 144.105C278.308 151.513 296.019 147.215 301.906 149.301C307.794 151.386 315.913 152.185 309.111 144.597Z" fill="#41294A"/>
<path d="M302.977 153.703C291.154 153.703 281.544 162.629 281.093 174.028C280.642 185.659 290.102 195.477 302.178 195.906L303.019 195.923C314.843 195.923 324.453 186.997 324.904 175.604C325.355 163.967 315.889 154.149 303.819 153.72L302.977 153.703ZM303.019 198.819L302.063 198.802C288.328 198.31 277.575 187.142 278.086 173.912C278.597 160.96 289.53 150.806 302.977 150.806L303.934 150.824C317.663 151.316 328.416 162.484 327.911 175.719C327.4 188.671 316.467 198.819 303.019 198.819Z" fill="#FFFCF6"/>
<path d="M365.17 150.337C353.34 150.337 343.73 159.263 343.285 170.663C343.063 176.293 345.137 181.674 349.119 185.804C353.1 189.94 358.518 192.332 364.37 192.541L365.212 192.558C377.035 192.558 386.645 183.632 387.096 172.232C387.313 166.602 385.238 161.221 381.257 157.085C377.276 152.955 371.863 150.563 366.012 150.355L365.17 150.337ZM365.212 195.454L364.255 195.437C357.604 195.199 351.446 192.477 346.917 187.779C342.389 183.076 340.026 176.959 340.278 170.547C340.783 157.595 351.717 147.441 365.17 147.441L366.126 147.459C372.777 147.696 378.935 150.418 383.464 155.116C387.992 159.819 390.35 165.936 390.103 172.348C389.592 185.3 378.659 195.454 365.212 195.454Z" fill="#FFFCF6"/>
<path d="M280.326 170.605C280.145 170.605 279.953 170.571 279.772 170.501L270.661 167.037C269.886 166.742 269.507 165.902 269.813 165.16C270.12 164.413 270.98 164.054 271.762 164.344L280.879 167.813C281.655 168.103 282.028 168.949 281.721 169.69C281.486 170.258 280.927 170.605 280.326 170.605Z" fill="#FFFCF6"/>
<path d="M387.732 166.774C387.083 166.774 386.475 166.363 386.289 165.72C386.06 164.956 386.523 164.156 387.323 163.936L399.989 160.443C400.8 160.229 401.624 160.669 401.847 161.44C402.075 162.21 401.612 163.009 400.812 163.229L388.141 166.716C388.009 166.757 387.864 166.774 387.732 166.774Z" fill="#FFFCF6"/>
<path d="M324.647 70.773C324.647 70.773 328.099 129.884 345.016 135.248C361.933 140.617 403.525 139.146 405.534 132.682C407.542 126.212 373.281 74.1847 348.696 65.8437C305.583 51.2122 268.369 118.728 273.288 134.993C278.207 151.264 315.253 137.026 323.155 134.935C331.064 132.844 323.065 82.4563 324.647 70.773Z" fill="#000C3E"/>
<path d="M326.414 175.837C325.633 175.837 324.977 175.258 324.917 174.505C324.851 173.705 325.47 173.01 326.294 172.946L341.726 171.788C342.652 171.649 343.277 172.327 343.337 173.114C343.404 173.914 342.79 174.609 341.96 174.673L326.535 175.831C326.493 175.837 326.45 175.837 326.414 175.837Z" fill="#FFFCF6"/>
<path d="M308.106 54.5479C307.751 54.5479 307.402 54.4668 307.071 54.3046C298.796 50.192 293.859 44.4576 292.403 37.2635C289.21 21.4735 304.1 4.54822 304.738 3.83576C305.55 2.91478 306.969 2.81051 307.919 3.60407C308.863 4.38604 308.972 5.75303 308.16 6.66243C308.016 6.82462 294.051 22.7246 296.836 36.4409C298.014 42.2623 302.158 46.9714 309.14 50.4469C310.247 50.9971 310.68 52.3062 310.108 53.372C309.711 54.1192 308.924 54.5479 308.106 54.5479Z" fill="#000C3E"/>
<path d="M340.746 59.4014C340.109 59.4014 339.465 59.1349 339.02 58.6194C338.22 57.7042 338.347 56.3372 339.303 55.5668C339.465 55.4278 355.961 41.949 355.552 27.9778C355.384 22.0522 352.1 16.7522 345.804 12.2226C344.806 11.5043 344.601 10.1431 345.347 9.18159C346.099 8.21427 347.5 8.02891 348.504 8.74137C355.961 14.1109 359.858 20.5462 360.063 27.8735C360.52 43.9531 342.941 58.295 342.19 58.8974C341.769 59.2392 341.257 59.4014 340.746 59.4014Z" fill="#000C3E"/>
<path d="M421.583 242.71C420.909 242.71 420.241 242.42 419.796 241.87C419.033 240.92 419.207 239.559 420.193 238.823C420.969 238.238 439.227 224.209 434.452 200.576C432.582 191.32 429.154 181.073 425.516 170.224C419.183 151.324 412.634 131.775 412.52 112.903C412.514 111.704 413.518 110.725 414.763 110.719H414.775C416.014 110.719 417.024 111.687 417.03 112.88C417.138 131.079 423.579 150.304 429.804 168.892C433.484 179.869 436.96 190.231 438.878 199.748C444.195 226.057 423.826 241.609 422.96 242.258C422.545 242.565 422.064 242.71 421.583 242.71Z" fill="#000C3E"/>
<path d="M429.1 143.634C429.01 143.634 428.92 143.628 428.824 143.616C427.591 143.472 426.713 142.388 426.863 141.195C429.906 117.331 425.185 97.8045 412.821 83.1613C392.903 59.569 359.526 56.6322 359.189 56.6149C357.95 56.5106 357.03 55.4622 357.126 54.2632C357.234 53.0757 358.323 52.1779 359.562 52.2822C361.005 52.3922 395.14 55.3637 416.291 80.3868C429.473 95.9799 434.537 116.624 431.338 141.728C431.199 142.823 430.225 143.634 429.1 143.634Z" fill="#000C3E"/>
<path d="M337.23 228.393C333.002 228.393 329.736 227.101 329.526 227.02C328.377 226.556 327.842 225.288 328.323 224.182C328.798 223.075 330.139 222.577 331.264 223.006C331.324 223.029 337.476 225.433 342.841 222.855C343.941 222.328 345.312 222.751 345.866 223.834C346.413 224.906 345.962 226.209 344.849 226.748C342.257 227.993 339.593 228.393 337.23 228.393Z" fill="#EE9B68"/>
<path d="M265.117 187.897C264.901 187.897 264.678 187.868 264.462 187.799C263.265 187.451 262.598 186.241 262.964 185.094C267.066 172.113 257.245 163.494 257.149 163.407C256.223 162.614 256.139 161.235 256.969 160.337C257.792 159.44 259.212 159.359 260.156 160.164C260.649 160.587 272.214 170.752 267.27 186.357C266.982 187.295 266.086 187.897 265.117 187.897Z" fill="#EE9B68"/>
<path d="M398.846 194.261C398.78 194.261 398.719 194.261 398.647 194.255C397.408 194.145 396.488 193.096 396.597 191.897C398.082 175.615 406.471 167.031 406.826 166.672C407.692 165.814 409.106 165.791 410.008 166.614C410.91 167.436 410.94 168.809 410.086 169.678C410.008 169.759 402.43 177.608 401.095 192.28C400.987 193.409 400 194.261 398.846 194.261Z" fill="#EE9B68"/>
<path d="M267.441 291.176C267.441 291.176 318.65 350.142 358.143 334.364C397.63 318.585 434.628 275.814 414.776 270.138C394.924 264.467 236.397 267.45 267.441 291.176Z" fill="#FFCEB0"/>
<path d="M404.86 211.728C404.86 211.728 420.31 319.57 405.864 331.757C391.425 343.944 373.16 333.275 348.648 341.355C324.135 349.43 323.293 316.645 324.977 299.824C326.661 283.003 334.653 176.162 404.86 211.728Z" fill="white"/>
<path d="M130.921 378.639L100.617 464.818L321.46 536.863C321.46 536.863 355.24 454.276 350.988 452.891C346.742 451.501 130.921 378.639 130.921 378.639Z" fill="#E98F27"/>
<path d="M174.568 482.883C174.568 482.883 212.329 457.756 211.006 464.145C209.689 470.539 195.081 482.883 195.081 482.883C195.081 482.883 221.609 463.108 223.341 472.995C225.073 482.883 215.763 492.267 215.763 492.267C215.763 492.267 234.424 477.942 237.437 485.35C240.45 492.759 216.37 525.526 195.081 524.576C173.798 523.626 164.158 489.579 174.568 482.883Z" fill="#FFC6A6"/>
<path d="M188.537 434.437L271.216 466.874C271.216 466.874 285.608 424.729 282.901 419.857C280.189 414.98 250.384 413.167 242.211 405.429C234.044 397.696 236.991 388.243 223.34 389.882C209.688 391.521 188.537 434.437 188.537 434.437Z" fill="white"/>
<path d="M339.234 221.295C338.982 221.295 338.717 221.254 338.464 221.167C331.939 218.891 328.704 216.088 328.583 212.6C328.391 207.034 336.666 203.246 338.326 202.539C339.475 202.064 340.798 202.551 341.297 203.651C341.802 204.752 341.285 206.032 340.142 206.513C337.141 207.793 333.028 210.567 333.094 212.456C333.112 212.977 333.665 214.871 340.004 217.078C341.171 217.489 341.778 218.735 341.357 219.864C341.02 220.745 340.154 221.295 339.234 221.295Z" fill="#EE9B68"/>
<path d="M312.068 179.819C311.532 179.819 311.003 179.64 310.576 179.275C301.134 171.246 294.513 173.395 294.242 173.482C293.106 173.876 291.783 173.32 291.356 172.208C290.917 171.09 291.482 169.856 292.637 169.422C293.003 169.283 301.898 166.097 313.559 176.019C314.491 176.813 314.581 178.186 313.757 179.084C313.312 179.57 312.693 179.819 312.068 179.819Z" fill="#41294A"/>
<path d="M358.416 180.312C357.79 180.312 357.171 180.063 356.726 179.577C355.902 178.679 355.992 177.306 356.924 176.513C368.561 166.608 377.474 169.77 377.841 169.915C379.007 170.35 379.585 171.612 379.128 172.724C378.683 173.842 377.378 174.404 376.235 173.97C375.904 173.86 369.295 171.78 359.907 179.768C359.48 180.133 358.951 180.312 358.416 180.312Z" fill="#41294A"/>
<path d="M504.751 472.554C504.751 472.554 532.468 506.528 575.3 482.261C620.581 445.437 630.729 397.325 612.184 360.886C588.314 322.235 529.346 279.555 514.254 279.628C499.156 279.706 446.532 417.674 504.751 472.554Z" fill="#202B6D"/>
<path d="M449.959 223.92C449.959 223.92 391.384 199.772 369.734 205.367C348.084 210.963 390.109 216.274 398.673 220.271C407.237 224.262 367.292 217.659 362.295 220.711C357.303 223.758 398.613 235.036 398.613 235.036C398.613 235.036 361.994 234.005 359.498 239.345C357.003 244.686 393.206 250.733 393.206 250.733C393.206 250.733 365.621 255.147 366.378 260.824C367.13 266.494 418.032 264.728 434.666 285.024C451.295 305.326 474.881 416.007 544.721 405.859C614.554 395.711 613.893 354.249 563.526 301.028C513.16 247.814 470.274 233.263 449.959 223.92Z" fill="#FFC6A6"/>
<path d="M336.314 8.62972C335.636 8.62972 334.9 8.70558 334.102 8.85731C332.157 9.23333 330.896 10.1437 330.139 11.7237C326.766 18.756 333.879 35.5055 338.961 45.4008C342.102 34.4236 345.865 16.0743 340.547 10.2921C339.523 9.18055 338.129 8.62972 336.314 8.62972ZM339.554 53.6602C338.708 53.6602 337.917 53.2215 337.499 52.4958C335.701 49.392 320.112 21.8268 325.866 9.82375C327.249 6.93761 329.78 5.06409 333.181 4.411C338.975 3.29942 342.304 5.36095 344.071 7.28395C353.31 17.331 342.999 48.5739 341.793 52.1033C341.499 52.9576 340.711 53.5645 339.78 53.6503C339.704 53.6569 339.629 53.6602 339.554 53.6602Z" fill="#FFD310"/>
<path d="M368.047 19.7826C367.825 19.7826 367.599 19.7958 367.373 19.8288C359.417 20.848 349.805 37.0994 344.722 47.3807C355.287 43.096 372.044 34.9126 374.27 27.4713C374.77 25.7957 374.434 24.3147 373.218 22.804C371.582 20.7755 369.886 19.7826 368.047 19.7826ZM340.205 53.8027C339.572 53.8027 338.952 53.5587 338.503 53.1035C337.856 52.4504 337.671 51.4938 338.031 50.6626C339.517 47.2355 352.935 17.1076 366.749 15.333C369.397 14.9933 373.311 15.5276 376.934 20.0201C379.064 22.6589 379.708 25.6703 378.794 28.7247C374.992 41.427 344.476 52.4504 341.01 53.6675C340.746 53.7599 340.476 53.8027 340.205 53.8027Z" fill="#FFD310"/>
<path d="M135.41 45.7949C145.452 52.8756 168.406 58.3828 186.339 45.7949" stroke="#FFD310" stroke-width="4.87"/>
<defs>
<linearGradient id="paint0_linear" x1="67.4874" y1="444.437" x2="98.2643" y2="556.606" gradientUnits="userSpaceOnUse">
<stop stop-color="#FFCBCB"/>
<stop offset="1" stop-color="#FFF1F1"/>
</linearGradient>
<linearGradient id="paint1_linear" x1="555.28" y1="187.059" x2="216.129" y2="28.5299" gradientUnits="userSpaceOnUse">
<stop stop-color="white"/>
<stop offset="1" stop-color="#FFDDDD"/>
</linearGradient>
<linearGradient id="paint2_linear" x1="604.048" y1="155.608" x2="508.79" y2="82.8149" gradientUnits="userSpaceOnUse">
<stop stop-color="#FFDDDD"/>
<stop offset="1" stop-color="#FFFBFC"/>
</linearGradient>
<linearGradient id="paint3_linear" x1="575.698" y1="501.163" x2="71.5451" y2="205.482" gradientUnits="userSpaceOnUse">
<stop stop-color="#FFE6E6"/>
<stop offset="1" stop-color="#FFF5F5"/>
</linearGradient>
</defs>
</svg>
