<svg width="359" height="282" viewBox="0 0 359 282" fill="none" xmlns="http://www.w3.org/2000/svg">
<path d="M179.402 281.98C119.894 281.98 60.4056 281.98 0.897497 282C0.175595 282 2.09623e-06 281.837 2.09045e-06 281.06C0.0195123 187.693 0.0195116 94.3065 6.99148e-09 0.940001C1.36791e-09 0.183914 0.156082 -1.1609e-09 0.897495 -6.67533e-09C119.972 0.0204339 239.028 0.020433 358.103 -2.66347e-06C358.824 -2.66884e-06 359 0.163477 359 0.939999C358.98 94.3065 358.981 187.693 359 281.06C359 281.816 358.844 282 358.103 282C298.536 281.98 238.969 281.98 179.402 281.98Z" fill="#FCFCFC"/>
<path d="M147.346 178.579C147.327 179.09 147.307 179.601 147.288 180.112C147.112 180.541 147.288 181.011 147.151 181.44C147.132 182.012 147.112 182.605 147.093 183.177C146.937 183.545 147.073 183.933 146.956 184.301C146.8 187.816 145.415 190.922 144.088 194.049C140.537 202.304 136.986 210.56 133.455 218.836C131.562 223.27 129.67 227.705 127.777 232.139C127.426 232.507 126.997 232.425 126.587 232.425C121.67 232.425 116.773 232.425 111.856 232.425C111.446 232.425 110.998 232.486 110.666 232.139C111.681 229.748 112.715 227.357 113.729 224.966C114.802 222.432 115.856 219.878 116.929 217.324C117.124 216.833 117.3 216.343 117.495 215.873C117.573 215.709 117.573 215.526 117.612 215.342C117.709 214.933 117.924 214.565 118.041 214.156C120.285 208.619 122.626 203.122 124.889 197.584C125.065 197.196 125.182 196.787 125.358 196.399C126.587 193.476 127.777 190.534 129.026 187.632C129.553 186.406 129.494 185.098 129.611 183.831C129.923 180.419 130.177 177.006 130.47 173.593C130.665 171.407 130.801 169.2 131.035 167.013C131.055 166.768 131.035 166.543 131.055 166.298C131.289 164.091 131.426 161.884 131.64 159.677C131.64 159.432 131.66 159.187 131.679 158.942C131.933 156.203 132.147 153.486 132.382 150.747C132.596 148.193 132.83 145.618 133.025 143.064C133.064 142.635 133.143 142.185 133.435 141.838C134.274 141.613 135.113 141.715 135.952 141.776C141.805 142.226 147.678 142.614 153.531 143.002C155.248 143.125 156.965 143.248 158.682 143.37C159.131 143.289 159.404 143.575 159.677 143.881C160.36 144.658 161.121 145.352 161.784 146.129C162.233 146.66 162.662 146.762 163.189 146.252C163.443 145.986 163.755 145.782 164.145 145.802C164.672 146.027 165.16 146.313 165.335 146.967C164.965 147.498 164.379 147.764 163.95 148.213C163.189 148.99 162.994 149.685 163.462 150.236C163.892 150.747 164.536 150.666 165.374 150.032C165.96 149.582 166.389 148.867 167.189 148.745C167.345 148.826 167.423 148.949 167.482 149.112C168.262 153.567 168.808 158.042 169.433 162.518C170.467 169.69 171.442 176.863 172.476 184.015C172.906 187.039 172.301 189.88 171.481 192.741C168.223 204.123 165.043 215.505 161.824 226.887C161.394 228.379 161.004 229.891 160.536 231.383C160.399 231.792 160.341 232.262 159.931 232.507C159.56 232.67 159.17 232.67 158.78 232.67C153.629 232.711 148.478 232.609 143.308 232.711C143.171 232.711 143.054 232.691 142.917 232.65C142.937 231.015 143.62 229.564 143.991 228.032C144.537 225.722 145.2 223.434 145.825 221.145C146.547 218.468 147.307 215.812 148.029 213.155C148.927 209.906 149.805 206.657 150.702 203.408C151.405 200.853 152.166 198.299 152.868 195.724C153.59 193.088 154.331 190.472 154.975 187.816C155.268 186.59 154.8 185.343 154.722 184.097C154.624 182.687 154.39 181.297 154.234 179.887C154.078 178.498 153.922 177.108 153.766 175.739C153.609 174.37 153.453 173.001 153.258 171.632C153.063 170.181 152.829 168.75 152.653 167.299C152.497 165.951 152.4 164.602 152.263 163.253C152.107 161.864 151.951 160.495 151.775 159.105C151.619 157.838 151.346 156.571 151.307 155.284C151.288 154.569 151.034 153.935 151.034 153.22C151.034 152.627 150.312 152.566 149.805 152.607C149.395 152.627 148.81 152.586 149.044 153.383C148.868 153.812 149.044 154.282 148.907 154.712C148.888 155.222 148.868 155.733 148.849 156.244C148.673 156.673 148.849 157.143 148.712 157.572C148.693 158.083 148.673 158.594 148.654 159.105C148.478 159.534 148.654 160.004 148.517 160.433C148.498 161.006 148.478 161.598 148.459 162.17C148.283 162.599 148.459 163.069 148.322 163.499C148.302 164.009 148.283 164.52 148.263 165.031C148.088 165.46 148.263 165.93 148.127 166.359C148.107 166.932 148.088 167.524 148.068 168.096C147.893 168.526 148.068 168.996 147.932 169.425C147.912 169.997 147.893 170.589 147.873 171.162C147.698 171.591 147.873 172.061 147.737 172.49C147.717 173.062 147.698 173.655 147.678 174.227C147.503 174.656 147.678 175.126 147.542 175.555C147.522 176.127 147.503 176.72 147.483 177.292C147.307 177.701 147.483 178.15 147.346 178.579Z" fill="#8F3600"/>
<path d="M193.938 99.313C194.66 97.3922 196.201 96.2887 197.781 95.2669C200.571 93.4482 203.654 93.2643 206.815 93.4074C206.932 93.5913 206.912 93.7956 206.912 94C206.912 98.1687 206.912 102.337 206.912 106.506C206.912 106.71 206.951 106.915 206.815 107.099C205 107.16 204.259 107.977 204.259 109.857C204.259 110.409 204.239 110.94 204.278 111.492C204.356 112.596 204.942 113.209 206.034 113.454C206.893 113.617 207.771 113.597 208.629 113.454C209.39 113.29 209.761 112.575 210.366 112.187C210.678 112.514 210.658 112.923 210.658 113.331C210.678 115.722 210.678 118.093 210.658 120.483C210.658 121.137 210.6 121.771 210.288 122.363C209.273 123.058 208.161 122.69 207.088 122.629C205.351 122.547 203.615 122.363 201.879 122.404C202.639 122.588 203.439 122.568 204.22 122.629C205.956 122.752 207.712 122.956 209.449 122.936C209.839 122.936 210.229 122.936 210.561 122.67C212.57 122.466 214.561 122.731 216.531 122.997C217.234 123.099 217.097 123.692 217.058 124.203C216.531 127.288 215.965 130.353 215.458 133.439C215.4 133.848 215.341 134.257 215.048 134.563C213.917 134.992 212.727 134.727 211.575 134.767C210.307 134.808 210.268 134.788 210.112 136.075C209.176 143.677 208.278 151.258 207.342 158.86C206.268 167.708 205.195 176.536 204.122 185.384C203.166 193.17 202.23 200.976 201.293 208.762C201.254 209.068 201.215 209.375 201.157 209.661C201.04 210.519 200.571 210.744 199.791 210.683C196.981 210.458 194.172 210.09 191.343 210.008C190.074 209.722 188.787 209.824 187.519 209.538C186.641 209.579 185.782 209.354 184.924 209.313C184.767 209.313 184.592 209.313 184.436 209.313C184.28 209.313 184.104 209.313 183.948 209.293C183.09 209.109 182.212 209.17 181.334 209.048C180.28 208.905 180.104 208.66 180.339 207.556C181.217 203.428 182.173 199.3 183.07 195.173C183.207 194.498 183.129 193.824 183.343 193.17C183.324 192.843 183.675 193.395 183.694 193.007C183.753 191.576 184.202 190.207 184.514 188.817C184.865 187.264 185.177 185.711 185.333 184.138C185.606 184.076 185.606 183.872 185.665 183.647C188.162 172.306 190.66 160.965 193.216 149.623C193.391 148.99 193.489 148.336 193.625 147.703C194.523 143.677 195.44 139.651 196.259 135.585C196.513 134.297 196.396 134.154 195.167 134.134C194.738 134.134 194.328 134.134 193.899 134.134C193.742 134.134 193.586 134.134 193.43 134.134C192.026 134.154 190.64 134.154 189.275 133.746C187.323 133.153 185.685 132.029 184.397 130.374C184.221 130.129 184.065 129.843 183.89 129.597C183.324 128.76 183.012 127.779 182.68 126.818C181.899 123.549 182.953 120.586 184.007 117.623C184.728 115.6 185.919 113.842 186.972 112.023C189.099 108.856 190.796 105.423 192.455 101.99C192.728 101.438 192.962 100.886 193.235 100.355C193.391 99.9669 193.508 99.5174 193.938 99.313Z" fill="#6DB5DE"/>
<path d="M191.226 209.804C192.455 209.477 193.664 209.886 194.874 209.947C196.63 210.029 198.367 210.233 200.103 210.438C200.63 210.499 200.747 210.295 200.805 209.804C201.41 204.655 202.054 199.485 202.698 194.335C203.595 187.019 204.493 179.704 205.371 172.388C206.171 165.747 206.971 159.106 207.771 152.464C208.473 146.64 209.195 140.796 209.898 134.972C209.956 134.502 210.112 134.359 210.58 134.379C212.044 134.441 213.507 134.441 214.97 134.461C215.263 134.216 215.614 134.196 215.985 134.216C219.126 134.359 222.248 134.543 225.389 134.563C226.404 134.563 227.457 134.522 228.394 135.095C229.018 137.996 229.623 140.898 230.247 143.8C231.203 148.255 232.179 152.73 233.154 157.185C233.213 157.45 233.311 157.696 233.389 157.961C233.603 158.125 233.759 158.349 233.818 158.636C234.637 162.498 235.554 166.339 236.335 170.202C236.354 170.426 236.393 170.631 236.296 170.856C236.393 171.775 236.608 172.654 236.862 173.532C237.174 173.839 237.154 174.289 237.33 174.656C237.505 175.167 237.603 175.719 237.564 176.25C237.31 178.784 237.447 181.318 237.31 183.852C237.135 184.486 237.076 185.139 237.174 185.793C237.193 185.896 237.193 186.018 237.193 186.12C237.115 186.631 237.135 187.142 237.154 187.632C237.31 191.495 236.959 195.357 236.959 199.219C236.94 199.403 236.94 199.587 236.94 199.75C236.94 200.139 236.94 200.547 236.862 200.936C236.647 201.549 236.744 202.182 236.783 202.795C236.764 202.897 236.725 202.999 236.647 203.061C236.413 204.144 236.686 205.247 236.51 206.351C236.491 207.699 236.471 209.048 236.452 210.397C236.237 211.357 236.452 212.318 236.335 213.278C236.257 213.38 236.179 213.462 236.062 213.503C231.847 214.055 227.633 214.647 223.419 215.199C222.911 215.26 222.365 215.342 221.936 214.913C221.819 214.709 221.76 214.484 221.76 214.239C221.78 211.786 221.682 209.314 221.799 206.862C222.111 205.39 221.897 203.878 221.955 202.407C221.975 201.753 221.955 201.119 221.955 200.466C221.955 200.282 221.936 200.098 221.955 199.914C221.955 199.73 221.955 199.546 221.955 199.362C221.955 199.239 221.936 199.117 221.936 198.994C221.838 192.394 222.267 185.793 222.131 179.193C222.111 178.192 222.033 177.231 221.819 176.271C219.946 167.361 217.995 158.472 216.121 149.562C216.082 149.399 216.063 149.236 216.024 149.072C215.907 148.622 215.77 148.214 215.204 148.255C214.639 148.296 214.541 148.725 214.541 149.195C214.522 150.155 214.463 151.116 214.58 152.056C214.736 153.282 214.736 154.508 214.736 155.713C214.658 161.088 214.912 166.462 214.99 171.836C215.048 175.31 214.931 178.784 215.165 182.238C215.38 185.712 215.243 189.165 215.322 192.639C215.361 194.805 215.029 196.91 214.502 198.994C214.424 199.26 214.326 199.526 214.248 199.791C214.034 200.568 213.839 201.365 213.468 202.08C213.292 202.427 213.195 202.816 213.078 203.183C211.556 206.596 209.605 209.763 207.868 213.074C207.205 214.361 206.483 215.608 205.8 216.875C205.547 217.345 205.351 217.856 204.844 218.121C204.356 218.223 203.966 217.958 203.556 217.774C199.518 216.037 195.459 214.32 191.421 212.604C190.972 212.42 190.484 212.277 190.309 211.705C190.309 210.949 190.582 210.274 191.226 209.804Z" fill="black"/>
<path d="M190.368 211.786C191.07 212.359 191.948 212.563 192.748 212.91C196.767 214.627 200.787 216.343 204.806 218.039C205.001 218.264 204.845 218.469 204.767 218.673C204.63 218.898 204.474 219.143 204.357 219.388C202.504 222.964 200.591 226.52 198.718 230.096C198.348 230.791 198.406 231.159 199.031 231.588C201.118 233.12 202.913 234.959 204.26 237.269C204.435 237.616 204.65 237.922 204.864 238.249C205.996 240.17 206.815 242.214 207.245 244.421C207.264 244.625 207.303 244.829 207.206 245.013C207.264 245.606 207.264 246.239 207.401 246.812C207.518 247.322 207.44 247.445 206.933 247.445C199.909 247.425 192.885 247.425 185.861 247.445C185.51 247.445 185.217 247.384 185.1 246.995C184.417 246.709 184.144 246.035 183.754 245.483C181.471 242.643 179.325 239.7 177.081 236.819C176.613 236.226 176.808 235.675 177.1 235.123C178.037 233.365 179.032 231.649 179.988 229.912C181.237 227.644 182.505 225.375 183.773 223.107C183.988 222.801 184.183 222.494 184.358 222.167C184.729 221.35 185.197 220.614 185.588 219.797C186.388 218.448 187.109 217.038 187.909 215.689C188.514 214.586 189.1 213.462 189.743 212.379C189.9 212.134 189.919 211.684 190.368 211.786Z" fill="#8F3600"/>
<path d="M221.994 214.974C224.628 214.871 227.204 214.361 229.799 214.054C231.886 213.809 234.111 213.421 236.218 213.339L236.218 215.791L236.101 225.395C236.062 227.541 236.042 229.687 235.984 231.812C235.964 232.323 236.159 232.65 236.51 232.915C240.159 235.654 243.808 238.371 247.456 241.089C249.368 242.52 249.953 244.645 250.266 246.913C250.324 247.322 250.149 247.465 249.778 247.424C249.544 247.404 249.329 247.424 249.095 247.424C239.359 247.424 229.604 247.424 219.868 247.444C219.673 247.118 219.751 246.77 219.809 246.423C219.809 246.341 219.809 246.28 219.829 246.198C219.692 245.912 219.575 245.605 219.614 245.278C219.946 241.355 220.199 237.452 220.551 233.528C220.746 231.362 220.609 229.196 220.804 227.03C221.019 225.354 220.98 223.658 221.136 221.962C221.175 221.554 221.136 221.145 221.194 220.736C221.39 220.144 221.331 219.531 221.331 218.938C221.331 217.916 221.311 216.915 221.351 215.893C221.39 215.505 221.39 215.014 221.994 214.974Z" fill="#8F3600"/>
<path d="M127.992 232.303C129.669 233.039 131.133 234.183 132.694 235.123C135.308 236.717 137.923 238.331 140.478 240.007C142.488 241.315 144.029 243.052 144.595 245.545C144.634 245.708 144.712 245.851 144.79 246.015C144.946 246.362 144.751 246.751 144.946 247.077C144.868 247.507 144.537 247.425 144.264 247.425C131.796 247.425 119.329 247.425 106.783 247.425C107.72 243.706 108.617 240.027 109.554 236.349C109.905 235.001 110.061 233.591 110.627 232.303C110.802 232.181 110.998 232.221 111.193 232.221C116.597 232.221 122.002 232.221 127.406 232.221C127.621 232.242 127.816 232.201 127.992 232.303Z" fill="black"/>
<path d="M216.766 124.285C217.019 123.385 216.629 123.181 215.81 123.161C214.054 123.12 212.317 122.956 210.561 122.834C210.366 122.813 210.152 122.813 210.171 122.507C210.308 119.053 210.347 115.62 210.308 112.167C210.386 112.024 210.074 111.901 210.308 111.758C210.503 110.859 210.464 109.939 210.366 109.04C210.054 105.934 210.132 102.828 210.327 99.7015C210.425 98.1485 210.347 96.575 210.386 95.022C210.405 94.5111 210.347 94.0002 210.678 93.5507C211.127 93.1828 211.654 93.2646 212.181 93.2646C213.351 93.2646 214.503 93.2441 215.673 93.285C216.22 93.3054 216.785 93.4281 216.785 94.1433C216.824 96.7794 216.961 99.4154 216.707 102.052C216.434 102.501 215.985 102.44 215.576 102.501C213.566 102.746 212.591 103.809 212.551 105.914C212.512 109.081 212.512 112.248 212.551 115.416C212.571 117.316 213.41 118.42 214.951 118.706C213.156 118.032 212.669 116.601 212.727 114.762C212.805 111.901 212.727 109.04 212.747 106.179C212.766 103.788 213.761 102.746 216.005 102.726C216.746 102.726 217.507 102.685 218.249 102.746C219.771 102.848 220.844 103.891 220.883 105.485C220.961 108.958 220.961 112.432 220.883 115.906C220.844 117.357 220.005 118.236 218.736 118.706C220.141 118.461 221.039 117.5 221.078 115.906C221.195 112.432 221.195 108.958 221.078 105.485C221.019 103.809 220.063 102.869 218.444 102.542C217.078 102.276 217.039 102.235 217.019 100.764C217.019 98.782 217.019 96.8202 217.019 94.8381C217.019 94.4089 216.98 93.9389 217.254 93.5507C218.658 93.142 220.063 93.2033 221.448 93.6324C221.722 93.755 222.014 93.8367 222.287 93.9594C222.463 94.0207 222.619 94.1228 222.756 94.225C222.892 94.3272 223.048 94.4294 223.204 94.4907C223.321 94.552 223.439 94.6133 223.575 94.6746C223.653 94.7154 223.731 94.7768 223.809 94.8381C226.287 96.7794 227.282 99.3746 226.99 102.562C226.833 104.075 226.951 105.607 226.931 107.119C226.97 110.614 226.97 114.108 226.931 117.602C226.911 117.786 226.892 117.991 226.833 118.175C226.794 118.297 226.716 118.399 226.638 118.502C226.619 118.767 226.599 119.053 226.58 119.319C226.443 120.565 226.541 121.812 226.521 123.079C226.521 123.61 226.307 123.794 225.877 123.61C223.361 122.425 220.941 123.14 218.522 124.019C218.054 124.244 217.429 124.652 216.766 124.285Z" fill="#8F3600"/>
<path d="M142.878 232.629C143.171 232.18 143.62 232.323 144.029 232.323C149.356 232.302 154.682 232.302 159.989 232.282C160.418 231.996 160.731 232.282 161.062 232.486C165.433 235.184 169.823 237.82 174.193 240.537C176.32 241.866 177.451 243.889 177.764 246.443C177.764 246.668 177.705 246.852 177.569 247.036C177.49 247.73 176.964 247.424 176.652 247.424C169.53 247.444 162.409 247.444 155.287 247.444C152.517 247.444 149.766 247.444 146.995 247.444C145.551 247.444 145.551 247.444 145.337 245.994C145.024 243.827 144.107 242.05 142.371 240.783C142.059 240.558 141.903 240.313 142.078 239.986C142.293 239.597 142.254 239.209 142.215 238.8C142.371 238.433 142.234 238.024 142.351 237.656C142.566 235.98 142.722 234.305 142.878 232.629Z" fill="black"/>
<path d="M67.5468 204.348C70.6295 204.348 73.7317 204.328 76.8144 204.348C77.5363 204.348 77.8095 204.266 77.5363 203.408C76.6974 200.792 75.9364 198.156 75.156 195.52C74.1024 191.903 73.1074 188.245 71.9757 184.649C71.0782 181.788 69.3223 179.724 66.4932 178.784C66.0639 178.641 65.6932 178.375 65.225 178.375C64.9128 178.191 64.5421 178.375 64.2104 178.232C64.0153 178.232 63.8007 178.232 63.6056 178.232C63.2739 178.375 62.9032 178.191 62.591 178.375C61.4789 178.355 60.5424 178.948 59.5473 179.295C57.4987 179.99 55.4695 180.746 53.4404 181.481C53.1477 181.584 52.8746 181.788 52.4844 181.522C52.8941 180.705 53.7136 180.378 54.3379 179.847C57.1085 177.619 59.8595 175.371 62.6691 173.205C66.2005 170.488 70.6295 170.937 73.7122 174.207C73.8683 174.37 74.0244 174.554 74.1805 174.718C74.5707 174.697 74.3756 174.452 74.3366 174.268C73.5756 170.018 72.7952 165.767 72.0148 161.517C71.5075 158.778 68.6979 155.918 66.2005 155.713C65.8688 155.693 65.186 155.509 65.186 155.509C65.186 155.509 64.5031 155.509 64.1714 155.366C63.8592 155.345 63.547 155.325 63.2349 155.304L62.2203 155.161C61.9667 155.141 61.713 155.121 61.4594 155.121L60.4643 154.978C60.1521 154.957 59.8205 154.937 59.5083 154.916L58.5132 154.773C58.3767 154.712 58.1425 154.753 58.1425 154.528C58.162 154.221 58.4352 154.221 58.6498 154.14C61.7325 153.057 64.7957 151.933 67.8785 150.87C69.8295 150.216 71.7611 150.278 73.6342 151.238C75.4877 152.178 76.7754 153.67 77.4583 155.734C78.3558 158.472 79.2533 161.21 80.1508 163.948C80.2093 164.132 80.1703 164.378 80.5605 164.418C80.5605 164.051 80.5605 163.703 80.5605 163.356C80.58 155.366 80.541 147.355 80.6386 139.365C80.6776 136.484 81.8287 133.909 83.4481 131.6C85.4577 128.739 87.5454 125.94 89.6136 123.12C89.7696 122.895 89.9648 122.507 90.2964 122.691C90.6476 122.895 90.3355 123.263 90.2574 123.488C88.9892 127.84 87.7015 132.172 86.4138 136.504C86.2577 137.036 86.1992 138.098 86.1992 138.098L86.0626 139.161C86.0626 139.161 86.0821 145.067 86.1211 147.294C86.1406 149.808 86.2382 153.424 86.2577 155.938C86.3552 156.081 86.2967 156.244 86.3552 156.408C86.3943 156.306 86.4528 156.204 86.5504 156.142C87.8381 152.587 88.7551 148.847 91.6817 146.191C93.2036 144.821 94.9986 144.004 96.774 143.105C97.5155 142.717 98.2764 142.369 99.0178 141.981C99.2129 141.879 99.408 141.797 99.5446 141.961C99.7202 142.185 99.4861 142.308 99.369 142.451C97.652 144.515 95.9351 146.599 94.2181 148.663C93.1645 149.93 92.7548 151.483 92.4621 153.077C91.1939 159.678 89.9062 166.258 88.6575 172.858C88.4039 174.207 88.0137 175.535 87.9551 176.945C87.8966 177.19 87.7405 177.497 88.2088 177.435C90.0818 175.964 91.7988 174.207 94.062 173.369C97.574 172.061 100.774 172.776 103.681 175.188C104.793 176.107 105.925 177.027 107.037 177.946C107.232 178.11 107.583 178.232 107.407 178.539C107.29 178.743 106.998 178.702 106.725 178.661C105.183 178.416 103.642 178.11 102.101 178.028C99.408 177.905 97.0667 178.968 95.6814 181.4C93.5743 185.098 91.7207 188.961 89.7501 192.761C89.594 192.904 89.6526 193.109 89.6136 193.272C89.7306 193.272 89.7892 193.17 89.8867 193.129C90.9013 192.005 91.7012 190.698 93.067 189.962C96.2668 188.204 100.325 189.288 102.101 192.537C104.227 196.399 106.276 200.302 108.344 204.184C108.422 204.348 108.481 204.532 108.539 204.716C107.915 204.981 107.583 204.471 107.232 204.205C104.832 202.448 102.51 200.588 100.071 198.892C98.2764 197.645 96.8716 197.768 95.2132 199.382C93.6133 200.935 92.111 202.591 90.5696 204.205C90.8037 204.552 91.1159 204.389 91.3695 204.389C95.1742 204.409 98.9788 204.43 102.783 204.368C103.72 204.348 103.915 204.675 103.915 205.594C103.896 215.403 103.896 225.212 103.896 235.021C103.896 235.429 103.915 235.838 103.935 236.247C103.72 236.717 103.954 237.228 103.778 237.698C103.232 240.824 101.73 243.338 99.2324 245.177C97.9447 246.117 96.5204 246.689 94.9595 246.934C94.5108 247.118 94.023 246.873 93.5743 247.098C88.2673 247.098 82.9604 247.098 77.6339 247.098C77.1851 246.873 76.6974 247.118 76.2486 246.934C71.7611 246.321 67.8004 242.479 67.4102 237.289C67.3126 236.982 67.3517 236.676 67.3517 236.369C67.3517 226.05 67.3517 215.71 67.3517 205.39C67.4297 205.002 67.3322 204.654 67.5468 204.348Z" fill="#5882AF"/>
<path d="M160.828 68.0891C161.335 67.987 161.842 67.9052 162.349 67.8031C163.442 67.66 164.535 67.7826 165.627 67.7417C167.754 67.8031 169.608 68.6204 171.227 70.01C172.632 71.2361 173.315 72.83 173.139 74.7713C172.905 75.037 172.612 74.9757 172.32 74.9757C171.364 74.9552 170.505 75.2617 169.861 75.9974C169.315 76.6309 168.944 76.4674 168.573 75.8544C168.066 75.0165 167.325 74.567 166.408 74.4444C164.71 74.24 163.267 75.3639 162.993 77.06C162.74 78.7357 163.774 80.3296 165.374 80.7383C165.783 80.8404 166.232 80.7383 166.583 81.0652C166.583 81.617 166.115 81.5352 165.822 81.6374C164.847 81.9644 163.793 82.087 162.603 82.4752C163.969 83.4152 165.276 84.0283 166.7 83.497C168.086 82.9657 169.315 82.7817 170.564 83.8239C170.993 84.1917 171.695 84.0896 172.124 84.58C172.046 85.6222 171.344 86.2557 170.642 86.8483C169.451 87.87 168.047 88.3196 166.525 88.4831C166.33 88.5035 166.135 88.5035 165.939 88.5035C163.871 88.667 163.813 88.7487 163.735 90.9148C163.715 91.6096 163.852 92.3657 163.169 92.8561C161.803 93.2648 160.457 92.8152 159.13 92.7131C157.979 92.6313 156.789 92.7539 155.696 92.1817C155.326 91.7731 155.365 91.2417 155.423 90.7513C155.638 88.8509 155.696 86.93 155.93 85.0091C156.067 84.0078 156.047 83.027 154.935 82.557C154.682 82.3526 154.448 82.1483 154.213 81.9235C152.789 79.8391 153.296 78.1635 155.716 76.9374C159.637 75.8952 160.281 75.037 160.476 70.7661C160.496 70.1939 160.476 69.6013 160.496 69.0291C160.515 68.7431 160.476 68.3548 160.828 68.0891Z" fill="#FD9993"/>
<path d="M209.156 89.5251C207.342 88.7282 205.664 87.7269 204.513 85.9899C203.693 84.7638 203.089 83.456 202.893 81.9643C202.796 81.0038 202.796 80.0638 202.893 79.1034C203.128 76.9782 204.123 75.2208 205.371 73.6064C206.405 72.2782 207.576 71.0725 209.176 70.4595C209.274 70.3573 209.332 70.2143 209.469 70.1529C209.683 70.0303 209.917 69.9282 210.132 69.826C212.025 69.1721 213.956 68.8451 215.946 68.7838C217.722 68.7225 219.497 68.4569 221.253 68.9677C222.56 69.3356 223.77 69.826 224.863 70.6638C226.092 71.6038 226.619 72.8912 226.58 74.4647C226.56 75.7316 225.936 76.3856 224.668 76.5695C224.141 76.1812 224.18 75.5886 224.102 75.0164C223.868 73.2795 223.419 71.706 221.897 70.6843C221.195 70.2143 220.609 70.1938 219.946 70.7456C217.858 72.5029 215.985 74.3829 215.537 77.346C215.458 77.9182 215.439 78.4903 215.458 79.0829C215.537 81.6169 214.444 83.3743 212.278 84.4164C211.283 84.9069 211.322 84.8864 212.044 85.7651C212.922 86.8686 213.956 87.8086 214.756 88.9529C215.322 89.7703 215.224 90.0156 214.268 90.2403C213.098 90.506 211.947 90.4243 210.795 90.1586C210.522 90.0973 210.269 89.9951 209.995 89.9134C209.781 89.8316 209.566 89.7703 209.371 89.709C209.293 89.6273 209.215 89.5864 209.156 89.5251Z" fill="black"/>
<path d="M236.667 199.852C236.667 199.709 236.686 199.546 236.686 199.403C237.194 198.994 237.798 199.117 238.384 199.117C249.329 199.117 260.275 199.117 271.24 199.117C273.23 199.117 273.23 199.117 273.23 197.073C273.23 194.049 273.23 191.025 273.23 187.98C273.23 186.795 273.133 186.713 272.001 186.713C260.88 186.713 249.778 186.713 238.657 186.692C237.954 186.692 237.447 187.04 236.92 187.367C236.823 186.876 236.842 186.427 237.057 185.977C237.584 185.487 238.228 185.65 238.832 185.65C248.49 185.63 258.148 185.65 267.787 185.65C277.796 185.65 287.805 185.65 297.814 185.65C298.146 185.65 298.458 185.65 298.789 185.65C299.804 185.609 299.941 185.507 299.941 184.485C299.96 181.522 299.941 178.559 299.96 175.596C299.96 174.738 299.628 174.431 298.848 174.472C298.497 174.493 298.126 174.472 297.775 174.472C278.342 174.472 258.909 174.472 239.457 174.472C238.637 174.472 237.837 174.513 237.018 174.534C236.745 174.248 236.881 173.9 236.842 173.573C247.125 173.573 257.387 173.594 267.67 173.594C278.303 173.594 288.936 173.594 299.57 173.594C300.838 173.594 300.838 173.594 300.838 174.963C300.838 178.437 300.838 181.911 300.838 185.385C300.838 185.752 300.955 186.141 300.662 186.447C300.311 186.59 299.96 186.508 299.609 186.508C291.473 186.508 283.337 186.508 275.201 186.508C274.85 186.508 274.479 186.406 274.147 186.611C274.069 190.841 274.03 195.05 274.167 199.28C274.498 199.485 274.869 199.382 275.22 199.382C283.434 199.382 291.629 199.382 299.843 199.403C300.175 199.403 300.565 199.219 300.838 199.566C300.838 200.67 300.838 201.794 300.838 202.897C300.116 203.265 299.336 202.979 298.594 203.061C297.736 203.142 296.877 202.938 296.019 203.163C295.999 203.572 295.941 203.98 295.941 204.368C295.941 218.182 295.941 232.017 295.921 245.831C295.921 246.219 296.116 246.73 295.687 246.955C295.316 247.138 295.024 246.73 294.712 246.525C292.409 244.911 290.088 243.338 287.805 241.723C287.278 241.335 286.907 241.355 286.38 241.723C283.883 243.542 281.366 245.299 278.849 247.077C278.518 246.771 278.693 246.382 278.693 246.035C278.674 232.139 278.693 218.264 278.674 204.368C278.674 203.96 278.771 203.551 278.576 203.163C278.205 202.958 277.815 203.061 277.425 203.061C264.216 203.061 250.988 203.061 237.779 203.061C237.389 203.061 236.998 203.142 236.628 202.979C236.374 202.366 236.413 201.753 236.589 201.14C236.998 202.161 237.798 202.243 238.735 202.243C258.558 202.223 278.381 202.223 298.224 202.223C298.477 202.223 298.75 202.202 299.004 202.223C299.667 202.243 299.941 201.937 299.921 201.242C299.901 200.568 299.648 200.241 298.984 200.241C298.594 200.241 298.204 200.241 297.814 200.241C278.049 200.241 258.285 200.241 238.52 200.241C237.915 200.179 237.233 200.322 236.667 199.852Z" fill="#5A83AF"/>
<path d="M216.766 124.284C217.722 123.998 218.697 123.773 219.634 123.405C221.917 122.527 224.16 122.363 226.463 123.61C226.658 122.138 226.404 120.708 226.677 119.339C226.697 120.279 226.794 121.239 226.697 122.179C226.56 123.365 226.892 124.121 228.043 124.407C227.516 124.918 226.892 124.754 226.307 124.652C225.175 124.488 224.063 124.529 222.756 124.57C223.185 124.795 223.477 124.754 223.77 124.754C224.96 124.775 226.15 124.734 227.341 124.938C228.024 125.061 228.687 124.979 229.35 124.693C229.721 125.204 230.306 125.142 230.814 125.306C231.496 125.51 232.179 125.715 232.862 125.858C234.169 126.144 234.969 126.961 235.321 128.289C234.443 128.882 233.487 128.616 232.589 128.514C231.516 128.391 230.462 128.412 229.37 128.494C230.95 128.596 232.531 128.657 234.111 128.821C234.521 128.861 234.969 128.78 235.321 129.086C235.457 129.495 235.418 129.924 235.34 130.353C235.321 130.537 235.321 130.721 235.301 130.925C235.028 131.314 234.657 131.15 234.326 131.13C232.628 131.028 230.911 131.211 229.214 130.987C230.814 131.436 232.452 131.293 234.091 131.314C234.56 131.334 235.067 131.191 235.457 131.641C235.145 131.865 235.086 132.254 234.95 132.581C234.208 134.195 232.979 135.033 231.262 135.074C230.326 135.094 229.37 135.094 228.433 135.094C225.292 134.951 222.131 134.808 218.99 134.665C217.663 134.604 216.337 134.522 215.01 134.461C215.576 131.068 216.161 127.676 216.766 124.284Z" fill="#FD9993"/>
<path d="M209.917 70.1326C209.781 70.3574 209.547 70.2757 209.351 70.3165C209.195 70.1122 209.254 69.867 209.254 69.6218C209.254 63.5526 209.254 57.4631 209.254 51.3939C209.254 51.2305 209.254 51.0466 209.312 50.8831C209.351 50.8218 209.351 50.7605 209.351 50.6992C209.644 50.4539 209.976 50.5766 210.288 50.5766C241.974 50.5766 273.659 50.5766 305.345 50.5766C305.657 50.5766 305.989 50.4744 306.301 50.6992C306.535 51.067 306.477 51.4757 306.477 51.8844C306.477 73.627 306.477 95.3696 306.477 117.112C306.477 117.521 306.535 117.93 306.301 118.297C306.008 118.502 305.677 118.4 305.345 118.4C279.454 118.4 253.563 118.4 227.672 118.4C227.36 118.4 227.028 118.481 226.716 118.318C226.716 118.154 226.716 118.011 226.716 117.848C227.262 117.419 227.906 117.562 228.511 117.562C241.486 117.562 254.441 117.562 267.416 117.562C279.337 117.562 291.278 117.562 303.199 117.562C303.452 117.562 303.726 117.562 303.979 117.562C305.579 117.562 305.579 117.541 305.579 115.825C305.579 94.9609 305.579 74.097 305.579 53.2126C305.579 51.4144 305.579 51.4144 303.862 51.4144C273.172 51.4144 242.5 51.4144 211.81 51.4144C211.654 51.4144 211.478 51.4144 211.322 51.4144C210.151 51.4348 210.054 51.5166 210.054 52.7631C210.054 58.0761 210.054 63.3892 210.054 68.7022C210.054 69.1926 210.093 69.6831 209.917 70.1326Z" fill="#5F87B2"/>
<path d="M236.276 170.835C236.237 170.692 236.179 170.528 236.14 170.385C236.725 169.936 237.388 170.099 238.032 170.099C255.709 170.099 273.405 170.099 291.082 170.099C293.619 170.099 296.155 170.099 298.692 170.099C299.843 170.099 299.94 169.997 299.94 168.832C299.96 165.971 299.96 163.111 299.94 160.25C299.94 159.044 299.843 158.942 298.633 158.921C298.282 158.921 297.911 158.921 297.56 158.921C276.859 158.921 256.138 158.921 235.437 158.921C234.793 158.921 234.13 159.085 233.564 158.594C233.506 158.39 233.447 158.186 233.389 157.981C233.837 157.981 234.306 158.002 234.754 158.002C256.333 158.002 277.932 158.002 299.511 158.002C300.818 158.002 300.818 158.002 300.818 159.412C300.818 162.824 300.779 166.217 300.838 169.629C300.857 170.61 300.623 170.876 299.667 170.876C280.371 170.835 261.055 170.835 241.739 170.835C239.925 170.835 238.091 170.835 236.276 170.835Z" fill="#6189B3"/>
<path d="M118.158 214.381C117.983 214.729 117.826 215.055 117.651 215.403C117.475 215.055 117.573 214.667 117.573 214.299C117.573 167.892 117.573 121.464 117.573 75.0568C117.573 74.7094 117.417 74.3007 117.709 73.9941C130.43 73.9941 143.171 73.9941 155.892 73.9941C156.302 74.3415 156.048 74.505 155.717 74.6072C155.268 74.7502 154.819 74.6889 154.351 74.6889C142.859 74.6889 131.348 74.6889 119.856 74.6889C119.387 74.6889 118.861 74.5459 118.49 75.0159C118.275 75.6085 118.373 76.2215 118.373 76.8346C118.373 120.892 118.373 164.949 118.373 208.986C118.373 210.785 118.47 212.603 118.158 214.381Z" fill="#5D85B1"/>
<path d="M72.541 73.7899C72.6385 69.5803 74.1994 65.9838 77.0675 63.1434C80.4038 59.8125 84.4816 58.4638 89.1057 59.0564C94.3931 59.7512 98.3148 62.6325 100.617 67.5369C103.31 73.279 102.724 78.9395 98.9392 84.0277C95.9345 88.0738 91.8372 90.0151 86.94 89.9334C83.5841 89.8721 80.638 88.7073 77.9845 86.4799C74.9993 83.9869 73.4385 80.7173 72.6385 76.9369C72.5214 76.3851 72.58 75.7925 72.541 75.2203C72.4629 74.7299 72.4629 74.2599 72.541 73.7899Z" fill="#5A83AF"/>
<path d="M210.756 93.6113C210.659 99.3126 210.581 104.993 210.464 110.695C210.464 111.063 210.561 111.451 210.327 111.778C210.327 111.165 210.347 110.552 210.347 109.939C210.347 108.447 209.605 107.364 208.24 107.119C207.635 107.017 207.596 106.751 207.596 106.26C207.615 102.296 207.615 98.3113 207.596 94.3469C207.596 93.5908 207.713 93.223 208.513 93.5908C208.727 93.693 208.961 93.5704 209.137 93.4274C209.196 93.3661 209.274 93.3252 209.352 93.3252C209.527 93.3456 209.683 93.3865 209.859 93.3865C210.132 93.4069 210.405 93.3865 210.639 93.5295C210.698 93.5295 210.717 93.5704 210.756 93.6113Z" fill="#6DB5DE"/>
<path d="M118.1 74.6076C118.431 74.2807 118.841 74.4646 119.212 74.4646C131.152 74.4442 143.093 74.4646 155.034 74.4237C155.307 74.4237 155.951 74.8529 155.892 73.9946C156.146 72.932 156.243 71.8285 156.712 70.8068C157.551 69.0085 158.994 68.2524 160.809 68.1094C160.75 69.9689 160.789 71.8081 160.399 73.6472C159.97 75.6089 158.741 76.7942 156.829 77.0802C156.438 77.1415 156.068 77.2233 155.697 77.2846C155.346 76.9168 155.385 76.4672 155.463 76.0381C155.619 75.1798 155.229 74.9346 154.507 74.955C154.156 74.9755 153.785 74.955 153.434 74.955C142.254 74.955 131.074 74.955 119.875 74.955C119.29 74.9142 118.646 75.0776 118.1 74.6076Z" fill="#ECE9E9"/>
<path d="M117.709 73.9941C117.553 74.3824 117.611 74.7911 117.611 75.1998C117.611 121.587 117.611 167.994 117.611 214.381C117.611 214.728 117.631 215.055 117.65 215.403C117.592 215.546 117.533 215.689 117.475 215.832C117.475 215.382 117.455 214.953 117.455 214.504C117.455 168.096 117.455 121.709 117.475 75.302C117.475 74.8728 117.24 74.362 117.709 73.9941Z" fill="#FCFCFC"/>
<path d="M208.552 107.875C209.703 108.652 210.152 110.777 209.391 111.983C209.079 112.493 208.61 112.78 208.006 112.8C207.576 112.8 207.167 112.8 206.737 112.8C205.372 112.78 204.884 112.269 204.884 110.859C204.884 110.246 204.806 109.612 204.923 109.04C205.04 108.488 205.391 107.998 206.016 107.875C206.874 107.753 207.713 107.753 208.552 107.875Z" fill="#6DB5DE"/>
<path d="M306.301 50.7189C305.95 50.6985 305.579 50.678 305.228 50.678C273.659 50.678 242.091 50.678 210.522 50.678C210.132 50.678 209.742 50.7189 209.352 50.7189C209.605 50.3306 210.015 50.4941 210.347 50.4941C241.993 50.4941 273.659 50.4941 305.306 50.4941C305.638 50.4941 306.028 50.3511 306.301 50.7189Z" fill="#FCFCFC"/>
<path d="M193.938 99.3128C193.743 99.6602 193.548 99.9872 193.372 100.335C192.924 99.8237 193.06 99.1698 193.06 98.5772C193.041 91.2207 193.06 83.8846 193.041 76.5281C193.041 75.9967 193.138 75.4246 192.807 74.9546C192.436 74.5663 191.948 74.6889 191.499 74.6889C186.075 74.6889 180.671 74.6889 175.247 74.6889C174.896 74.6889 174.525 74.7298 174.174 74.6481C173.861 74.5868 173.491 74.5459 173.666 74.0146C180.066 74.0146 186.465 74.0146 192.865 73.9941C193.626 73.9941 193.763 74.2802 193.763 74.9954C193.743 82.7607 193.743 90.5054 193.763 98.2707C193.763 98.6181 193.567 99.0268 193.938 99.3128Z" fill="#6188B3"/>
<path d="M226.717 118.338C252.92 118.338 279.123 118.338 305.326 118.338C305.658 118.338 305.97 118.317 306.301 118.317C305.95 118.706 305.502 118.522 305.111 118.522C278.986 118.522 252.861 118.522 226.736 118.522C226.678 118.46 226.678 118.399 226.717 118.338Z" fill="#FCFCFC"/>
<path d="M173.647 74.0143C173.725 74.7704 174.29 74.423 174.622 74.423C180.456 74.4435 186.29 74.4435 192.123 74.4435C192.475 74.4435 192.845 74.3208 193.157 74.5865C192.689 75.0361 192.123 74.9135 191.577 74.9135C186.173 74.9339 180.788 74.9135 175.383 74.9339C174.798 74.9339 174.212 74.8521 173.647 75.0156C173.373 75.1382 173.178 75.0565 173.022 74.7908C172.261 70.6835 170.427 68.8035 166.486 68.0474C166.271 68.0065 166.057 67.9248 165.842 67.843C165.784 67.8022 165.764 67.7613 165.784 67.7C165.803 67.6591 165.823 67.6387 165.842 67.6387C166.486 67.6387 167.13 67.6387 167.793 67.6387C168.086 67.8839 168.476 67.5978 168.769 67.843C170.252 68.1291 171.617 68.7217 172.691 69.8252C173.803 70.99 174.115 72.4204 173.647 74.0143Z" fill="#ECE9E9"/>
<path d="M236.647 202.918C237.623 202.938 238.599 202.938 239.574 202.959C252.217 202.959 264.841 202.959 277.484 202.959C277.854 202.959 278.264 202.795 278.596 203.102C264.607 203.102 250.617 203.102 236.647 203.081C236.608 203.04 236.608 202.979 236.647 202.918Z" fill="#FCFCFC"/>
<path d="M278.596 203.122C278.889 203.469 278.733 203.899 278.733 204.287C278.733 218.101 278.733 231.915 278.752 245.708C278.752 246.137 278.694 246.587 278.869 247.016C278.401 246.709 278.615 246.219 278.615 245.81C278.596 231.588 278.596 217.345 278.596 203.122Z" fill="#FCFCFC"/>
<path d="M219.888 245.462C219.868 245.728 219.868 245.973 219.849 246.239C217.625 244.665 215.381 243.092 213.157 241.498C212.727 241.191 212.415 241.355 212.025 241.641C210.445 242.785 208.825 243.909 207.206 245.033C207.167 244.89 207.128 244.747 207.069 244.584C207.089 244.481 207.108 244.359 207.186 244.318C208.825 243.071 210.484 241.805 212.22 240.701C212.552 240.497 212.923 240.476 213.235 240.701C215.439 242.193 217.664 243.623 219.732 245.319C219.81 245.34 219.849 245.401 219.888 245.462Z" fill="#5E86B1"/>
<path d="M235.321 129.188C233.35 129.106 231.379 129.025 229.409 128.923C229.058 128.902 228.492 129.066 228.511 128.473C228.531 127.942 229.058 128.146 229.389 128.146C231.36 128.187 233.33 128.269 235.301 128.33C235.672 128.534 235.828 128.78 235.496 129.147C235.457 129.229 235.399 129.25 235.321 129.188Z" fill="#050303"/>
<path d="M229.312 124.713C229.292 125.04 229.195 125.285 228.804 125.265C226.775 125.163 224.727 125.102 222.698 125.02C222.424 124.999 222.112 124.958 222.132 124.611C222.151 124.182 222.502 124.243 222.795 124.243C224.532 124.305 226.288 124.366 228.024 124.427C228.453 124.529 228.961 124.284 229.312 124.713Z" fill="#070504"/>
<path d="M235.418 131.641C233.292 131.58 231.165 131.498 229.019 131.436C228.746 131.436 228.355 131.498 228.394 131.028C228.433 130.599 228.785 130.639 229.077 130.66C231.145 130.742 233.214 130.844 235.282 130.946C235.613 131.109 235.652 131.334 235.418 131.641Z" fill="#060404"/>
<path d="M300.838 199.505C300.429 199.321 299.999 199.383 299.59 199.383C291.454 199.383 283.318 199.383 275.182 199.383C274.85 199.383 274.46 199.526 274.167 199.24C282.713 199.24 291.239 199.24 299.785 199.24C300.136 199.24 300.565 199.035 300.838 199.505Z" fill="#FCFCFC"/>
<path d="M274.128 186.569C274.304 186.263 274.596 186.386 274.83 186.386C283.435 186.386 292.039 186.386 300.643 186.386C300.312 186.692 299.902 186.549 299.531 186.549C291.063 186.569 282.596 186.569 274.128 186.569Z" fill="#FCFCFC"/>
<path d="M177.568 247.036C177.568 246.832 177.549 246.628 177.549 246.423C177.9 246.096 178.329 246.117 178.739 246.117C179.968 246.096 181.197 246.096 182.446 246.117C183.07 246.137 183.578 245.953 183.987 245.442C184.378 245.953 184.748 246.464 185.139 246.975C182.622 246.995 180.105 247.016 177.568 247.036Z" fill="#5B82AD"/>
<path d="M209.312 50.9033C209.312 56.9111 209.332 62.8985 209.332 68.9064C209.332 69.3764 209.351 69.8464 209.351 70.3368C209.273 70.3777 209.215 70.4185 209.137 70.4798C209.137 64.329 209.137 58.1577 209.137 52.0068C209.156 51.6185 209.039 51.2303 209.312 50.9033Z" fill="#FCFCFC"/>
<path d="M127.992 232.303C122.197 232.303 116.422 232.303 110.627 232.323C110.646 232.262 110.646 232.18 110.666 232.119C116.363 232.119 122.08 232.119 127.777 232.14C127.855 232.18 127.914 232.242 127.992 232.303Z" fill="#98613F"/>
<path d="M65.3222 59.3425C65.2052 59.4447 65.1271 59.5877 65.0296 59.6081C64.8735 59.649 64.8345 59.4855 64.7955 59.3629C64.4443 58.5455 64.0736 57.7077 63.7419 56.8903C63.4882 56.2773 63.2736 55.6438 62.9224 55.092C62.8249 54.949 62.8249 54.7447 62.9614 54.6425C63.0395 54.5812 63.2736 54.6016 63.2931 54.6629C63.9565 56.216 64.6394 57.769 65.3222 59.3425Z" fill="#638AB4"/>
<path d="M177.139 40.8897C177.08 40.1132 177.549 39.7863 177.9 39.3776C178.641 38.5397 179.617 37.9676 180.3 37.0684C180.417 36.9254 180.553 36.7415 180.787 36.905C181.041 37.0889 180.904 37.2524 180.748 37.3954C179.558 38.5602 178.348 39.725 177.139 40.8897Z" fill="#658BB4"/>
<path d="M141.727 53.1504C141.883 53.3139 142.039 53.4365 142.156 53.5795C143.053 54.6421 143.931 55.7252 144.829 56.7878C144.946 56.9308 145.16 57.0739 144.946 57.2987C144.692 57.5847 144.536 57.3191 144.399 57.1556C143.463 56.0521 142.546 54.9487 141.629 53.8247C141.512 53.6817 141.434 53.5387 141.512 53.3547C141.551 53.2934 141.648 53.2321 141.727 53.1504Z" fill="#648BB4"/>
<path d="M285.171 145.189C285.191 145.332 285.132 145.455 284.976 145.475C284.82 145.495 284.742 145.414 284.683 145.291C284 143.84 283.298 142.41 282.596 140.979C282.518 140.836 282.518 140.693 282.654 140.652C282.908 140.55 283.083 140.673 283.201 140.918C283.61 141.838 284.04 142.737 284.449 143.656C284.683 144.147 284.917 144.658 285.171 145.189Z" fill="#638AB4"/>
<path d="M257.153 131.559C255.651 132.581 254.324 133.459 252.998 134.338C252.861 134.44 252.705 134.502 252.568 134.318C252.49 134.195 252.471 134.032 252.588 133.95C253.934 133.092 255.163 132.029 256.646 131.396C256.724 131.396 256.822 131.457 257.153 131.559Z" fill="#638AB4"/>
<path d="M105.281 34.7393C105.437 35.6793 104.891 35.904 104.618 36.2719C103.954 37.171 103.252 38.0701 102.569 38.9488C102.432 39.1327 102.257 39.3984 102.023 39.1327C101.828 38.9284 102.101 38.7853 102.198 38.6423C103.057 37.2936 104.11 36.1288 105.281 34.7393Z" fill="#658BB5"/>
<path d="M65.0297 109.101C64.5419 110.552 64.0736 112.003 63.5858 113.454C63.5273 113.617 63.4103 113.801 63.2347 113.72C62.981 113.617 63.0981 113.393 63.1566 113.209C63.6444 111.778 63.9566 110.287 64.6004 108.897C64.6589 108.754 64.6199 108.509 64.8736 108.591C65.1272 108.693 65.0687 108.897 65.0297 109.101Z" fill="#648AB4"/>
<path d="M206.815 107.078C206.815 102.521 206.815 97.9437 206.815 93.3867C207.089 93.6115 207.011 93.9385 207.011 94.245C207.011 98.2502 207.011 102.235 207.011 106.24C207.011 106.526 207.089 106.853 206.815 107.078Z" fill="#FCFCFC"/>
<path d="M236.121 225.375C236.121 223.577 236.004 221.779 236.257 219.98C236.199 221.779 236.452 223.577 236.121 225.375Z" fill="#FCFCFC"/>
<path d="M296.019 203.122C296.936 202.795 297.892 203.04 298.848 202.979C299.511 202.918 300.194 203.081 300.838 202.856C300.643 203.245 300.272 203.122 299.979 203.122C298.653 203.122 297.326 203.122 296.019 203.122Z" fill="#FCFCFC"/>
<path d="M209.332 93.3865L209.234 93.407L209.137 93.3865C209.137 92.0991 209.137 90.8117 209.137 89.5039C209.195 89.5039 209.254 89.5039 209.332 89.5243C209.8 90.8117 209.8 92.0991 209.332 93.3865Z" fill="#FCFCFC"/>
<path d="M165.842 67.6594C165.842 67.7207 165.842 67.8025 165.842 67.8638C164.671 67.8434 163.52 67.8434 162.35 67.8229C163.501 67.4347 164.691 67.7412 165.842 67.6594Z" fill="#FCFCFC"/>
<path d="M236.51 206.371C236.51 205.268 236.413 204.164 236.647 203.081C236.608 204.185 236.823 205.308 236.51 206.371Z" fill="#FCFCFC"/>
<path d="M202.874 79.1035C202.874 80.064 202.874 81.004 202.874 81.9644C202.62 81.004 202.62 80.0435 202.874 79.1035Z" fill="#FCFCFC"/>
<path d="M208.611 113.434C207.752 113.699 206.874 113.72 206.016 113.434C206.874 113.434 207.733 113.434 208.611 113.434Z" fill="#FCFCFC"/>
<path d="M208.552 107.875C207.713 107.875 206.874 107.875 206.035 107.875C206.874 107.589 207.713 107.589 208.552 107.875Z" fill="#FCFCFC"/>
<path d="M72.5418 73.79C72.5418 74.26 72.5418 74.73 72.5418 75.2C72.3077 74.73 72.3077 74.26 72.5418 73.79Z" fill="#FCFCFC"/>
<path d="M147.737 172.449C147.717 172 147.678 171.55 147.873 171.121C147.854 171.571 148.029 172.041 147.737 172.449Z" fill="#FEFEFE"/>
<path d="M147.932 169.384C147.912 168.934 147.873 168.485 148.068 168.056C148.049 168.505 148.225 168.975 147.932 169.384Z" fill="#FEFEFE"/>
<path d="M148.322 163.479C148.302 163.029 148.244 162.58 148.459 162.15C148.439 162.58 148.615 163.05 148.322 163.479Z" fill="#FEFEFE"/>
<path d="M148.517 160.413C148.497 159.964 148.458 159.514 148.653 159.085C148.614 159.514 148.809 159.984 148.517 160.413Z" fill="#FEFEFE"/>
<path d="M235.32 129.188C235.379 129.168 235.437 129.147 235.496 129.127C235.457 129.536 235.652 129.985 235.34 130.353C235.32 129.965 235.32 129.577 235.32 129.188Z" fill="#FEFEFE"/>
<path d="M148.712 157.552C148.712 157.102 148.634 156.653 148.849 156.224C148.829 156.653 149.005 157.123 148.712 157.552Z" fill="#FEFEFE"/>
<path d="M148.907 154.692C148.907 154.242 148.829 153.792 149.044 153.363C149.024 153.792 149.2 154.262 148.907 154.692Z" fill="#FEFEFE"/>
<path d="M147.151 181.441C147.131 180.991 147.092 180.541 147.287 180.112C147.268 180.562 147.443 181.032 147.151 181.441Z" fill="#FEFEFE"/>
<path d="M148.126 166.339C148.107 165.889 148.068 165.44 148.263 165.011C148.243 165.44 148.419 165.91 148.126 166.339Z" fill="#FEFEFE"/>
<path d="M147.346 178.579C147.346 178.13 147.268 177.68 147.482 177.251C147.463 177.701 147.639 178.171 147.346 178.579Z" fill="#FEFEFE"/>
<path d="M147.541 175.515C147.522 175.065 147.483 174.616 147.678 174.187C147.658 174.636 147.834 175.106 147.541 175.515Z" fill="#FEFEFE"/>
<path d="M64.21 178.232C64.5612 178.212 64.9123 178.171 65.2245 178.376C64.8928 178.355 64.5221 178.519 64.21 178.232Z" fill="#FCFCFC"/>
<path d="M146.956 184.302C146.936 183.913 146.878 183.525 147.092 183.178C147.073 183.566 147.229 183.975 146.956 184.302Z" fill="#FEFEFE"/>
<path d="M168.769 67.843C168.438 67.8022 168.067 67.9861 167.794 67.6387C168.126 67.7 168.496 67.5161 168.769 67.843Z" fill="#FCFCFC"/>
<path d="M219.848 246.443C219.868 246.791 219.887 247.118 219.907 247.465C219.575 247.118 219.614 246.791 219.848 246.443Z" fill="#FCFCFC"/>
<path d="M62.5908 178.375C62.903 178.15 63.2542 178.212 63.6054 178.232C63.2932 178.518 62.9225 178.355 62.5908 178.375Z" fill="#FCFCFC"/>
<path d="M183.988 245.463C184.066 246.219 183.812 246.525 183.012 246.485C181.198 246.403 179.383 246.444 177.549 246.444C177.334 245.34 177.061 244.257 176.495 243.297C175.852 242.214 175.052 241.335 173.959 240.681C169.569 238.045 165.218 235.348 160.867 232.671C160.594 232.507 160.321 232.282 159.989 232.282C161.101 228.277 162.194 224.272 163.326 220.267C166.096 210.478 168.867 200.69 171.637 190.902C172.496 187.857 172.281 184.812 171.832 181.727C170.837 175.024 169.901 168.281 168.964 161.578C168.379 157.389 167.794 153.179 167.228 148.97C168.125 149.133 168.652 149.869 169.237 150.461C170.779 152.015 172.359 153.527 173.979 154.998C175.793 156.653 177.53 156.694 179.422 155.141C179.715 154.916 180.027 154.221 180.476 154.978C180.905 158.063 181.061 161.19 181.334 164.296C181.646 167.77 181.939 171.264 182.212 174.738C182.505 178.294 182.817 181.829 183.11 185.385C183.285 187.387 183.402 189.369 183.617 191.372C183.675 191.985 183.734 192.598 183.422 193.15C183.539 195.622 182.602 197.911 182.154 200.281C181.685 202.775 181.081 205.247 180.495 207.699C180.3 208.476 180.534 208.721 181.237 208.762C182.134 208.823 183.051 208.782 183.949 209.028C184.3 209.375 184.261 209.825 184.261 210.274C184.261 214.055 184.261 217.835 184.261 221.615C184.261 222.126 184.183 222.637 183.988 223.107C181.783 227.133 179.578 231.158 177.334 235.164C176.964 235.818 176.964 236.226 177.432 236.839C179.656 239.7 181.802 242.581 183.988 245.463Z" fill="#FEFEFE"/>
<path d="M118.099 74.6074C130.313 74.6074 142.527 74.6074 154.76 74.6074C156.009 74.6074 156.009 74.6074 155.775 75.9357C155.697 76.3648 155.736 76.8144 155.716 77.2639C155.521 77.3866 155.326 77.5092 155.131 77.6522C153.511 78.7557 153.297 79.8796 154.37 81.8822C153.96 82.4544 153.355 82.25 152.829 82.25C144.38 82.2705 135.913 82.25 127.464 82.2705C125.104 82.2705 125.357 81.9844 125.357 84.5387C125.357 121.321 125.357 158.084 125.357 194.866C125.357 195.786 125.318 196.705 125.104 197.604C123.601 201.242 122.118 204.9 120.616 208.537C119.816 210.499 118.997 212.46 118.177 214.422C117.963 214.075 118.06 213.687 118.06 213.319C118.041 167.402 118.041 121.505 118.041 75.6087C118.041 75.2818 118.08 74.9344 118.099 74.6074Z" fill="#FEFEFE"/>
<path d="M138.156 106.65C138.176 105.893 137.864 105.199 137.746 104.463C136.576 97.2291 142 91.0578 149.024 91.5687C149.336 91.8139 149.394 92.2022 149.492 92.5495C151.443 100.458 153.492 108.346 155.365 116.274C156.028 119.115 156.906 121.669 159.033 123.733C161.062 125.695 162.779 127.983 164.691 130.068C164.847 130.231 164.984 130.436 165.198 130.517C165.335 130.517 165.354 130.415 165.354 130.313C165.257 127.902 165.608 125.49 165.569 123.079C165.491 118.216 165.745 113.352 165.823 108.489C165.881 103.768 166.057 99.0478 166.174 94.3069C166.174 93.8982 166.135 93.4895 166.427 93.1422C167.032 92.8969 167.52 93.2239 167.969 93.51C170.037 94.8382 170.993 96.8204 171.012 99.3135C171.032 103.952 171.012 108.57 171.012 113.209C171.012 113.475 171.012 113.761 171.012 114.026C171.032 115.212 171.11 115.273 172.183 115.028C176.046 114.129 179.909 113.189 183.792 112.351C184.007 112.33 184.221 112.249 184.436 112.187C184.963 112.085 185.509 111.942 186.036 111.82C186.407 111.738 186.797 111.636 187.109 112.003C187.031 112.617 186.621 113.025 186.329 113.516C184.455 116.438 183.285 119.646 182.68 123.1C182.465 124.366 182.68 125.613 182.836 126.86C182.641 127.248 182.27 127.289 181.939 127.391C177.08 128.76 172.242 130.17 167.383 131.56C166.271 131.886 166.271 131.866 166.993 132.786C168.554 134.747 170.33 136.484 171.871 138.466C172.144 138.814 172.573 139.161 172.086 139.672C169.764 141.634 167.364 143.514 164.964 145.394C164.71 145.598 164.437 145.803 164.106 145.843C163.989 145.905 163.872 145.966 163.774 146.048C162.33 147.029 162.33 147.029 161.101 145.7C160.399 144.965 159.716 144.209 159.033 143.453C158.584 143.371 158.33 142.983 158.038 142.676C154.545 139.161 151.228 135.483 147.892 131.805C144.361 127.902 142.117 123.202 140.829 118.011C140.049 114.844 139.288 111.677 138.449 108.53C138.312 107.917 138.293 107.283 138.156 106.65Z" fill="#C57142"/>
<path d="M138.156 106.649C138.995 109.04 139.444 111.533 140.088 113.985C140.966 117.357 141.668 120.77 143.112 123.958C144.946 128.024 147.639 131.376 150.663 134.502C153.492 137.445 156.262 140.469 159.052 143.473C158.662 143.861 158.174 143.657 157.765 143.636C151.541 143.207 145.317 142.737 139.093 142.288C137.22 142.145 135.347 142.022 133.493 141.879C133.922 138.609 134.313 135.36 134.761 132.091C135.834 124.08 136.908 116.07 138 108.08C138.02 107.589 138.098 107.119 138.156 106.649Z" fill="black"/>
<path d="M164.125 145.863C166.388 144.045 168.632 142.226 170.895 140.407C171.227 140.142 171.559 139.876 171.89 139.61C173.041 140.285 174.232 140.898 175.461 141.409C177.119 142.103 178.505 143.166 179.597 144.637C179.909 145.271 180.182 145.925 180.456 146.579C180.592 146.885 180.768 147.273 180.456 147.519C180.085 147.825 179.792 147.457 179.539 147.212C178.739 146.415 177.978 145.577 177.178 144.78C177.061 144.658 176.944 144.535 176.612 144.556C177.275 145.475 178.017 146.211 178.778 146.865C179.558 147.539 180.319 148.254 180.943 149.072C182.27 150.849 182.582 152.975 180.221 154.671C179.656 155.12 179.207 155.733 178.563 156.06C177.002 156.857 175.324 156.612 173.978 155.345C171.89 153.363 169.822 151.381 167.754 149.399C167.598 149.235 167.403 149.113 167.227 148.969C167.169 148.908 167.091 148.826 167.032 148.765C166.232 148.356 165.666 147.703 165.218 146.906C164.847 146.558 164.496 146.211 164.125 145.863Z" fill="#FD9993"/>
<path d="M154.897 82.3108C152.36 82.3313 149.824 82.3313 147.287 82.3313C140.498 82.3313 133.688 82.3313 126.898 82.3313C125.474 82.3313 125.474 82.3313 125.474 83.7617C125.474 111.86 125.474 139.937 125.474 168.035C125.474 177.087 125.474 186.14 125.474 195.213C125.474 195.663 125.494 196.092 125.494 196.541C125.396 196.889 125.318 197.256 125.084 197.543C125.084 197.195 125.064 196.868 125.064 196.521C125.064 158.757 125.064 121.014 125.064 83.2508C125.064 81.8817 125.064 81.8817 126.352 81.8817C135.269 81.8817 144.166 81.8817 153.082 81.8817C153.511 81.8817 153.921 81.8613 154.35 81.8408C154.565 81.9634 154.78 82.086 154.897 82.3108Z" fill="#5882AE"/>
<path d="M165.218 146.905C165.823 147.518 166.545 148.029 167.033 148.765C166.389 149.337 165.765 149.93 165.101 150.481C164.457 151.033 163.755 151.054 163.209 150.379C162.662 149.725 162.76 148.99 163.384 148.397C163.95 147.825 164.496 147.232 165.218 146.905Z" fill="#010100"/>
<path d="M131.893 159.575C131.776 161.823 131.62 164.091 131.308 166.319C130.957 166.462 130.762 166.176 130.586 165.951C129.123 164.255 129.396 161.19 131.132 159.78C131.347 159.596 131.562 159.351 131.893 159.575Z" fill="#FDFDFD"/>
<path d="M131.893 159.575C129.415 160.944 129.123 164.377 131.308 166.319C131.308 166.523 131.288 166.727 131.288 166.911C128.498 164.622 128.81 160.597 131.913 158.982C131.913 159.187 131.893 159.371 131.893 159.575Z" fill="#6289B3"/>
<path d="M187.109 112.023C186.153 111.88 185.314 112.473 184.378 112.432C183.968 111.982 184.104 111.41 184.104 110.879C184.104 102.112 184.104 93.3253 184.104 84.5587C184.104 84.2113 184.104 83.8844 184.104 83.537C184.085 82.3313 184.026 82.2496 182.895 82.2496C180.046 82.2496 177.178 82.2496 174.329 82.2496C173.9 82.2496 173.49 82.2905 173.081 82.1679C172.925 82.0861 172.788 81.984 172.769 81.7796C172.808 81.33 173.217 81.2279 173.51 81.044C175.559 79.7361 175.773 77.3861 173.998 75.6696C173.783 75.4653 173.51 75.3222 173.471 74.9748C173.647 74.3822 174.115 74.6274 174.466 74.6274C180.709 74.607 186.953 74.607 193.177 74.607C193.47 74.934 193.313 75.3222 193.333 75.6696C193.333 83.4553 193.333 91.2409 193.333 99.0266C193.333 99.4761 193.353 99.9053 193.372 100.355C191.694 104.299 189.684 108.059 187.48 111.696C187.382 111.819 187.246 111.9 187.109 112.023Z" fill="#FEFEFE"/>
<path d="M193.353 149.562C192.572 153.159 191.811 156.776 191.011 160.372C189.255 168.301 187.499 176.209 185.743 184.138C185.724 184.261 185.841 184.506 185.587 184.485C185.509 184.485 185.451 184.281 185.373 184.158C184.924 183.75 185.002 183.157 184.963 182.626C184.67 178.662 184.143 174.718 184.065 170.733C184.085 162.518 184.065 154.303 184.085 146.088C184.085 145.516 184.065 144.944 184.124 144.352C184.631 143.391 184.748 142.451 184.143 141.491C184.046 138.017 184.124 134.543 184.104 131.069C184.104 130.722 184.104 130.374 184.378 130.129C185.821 131.6 187.324 132.949 189.353 133.46C190.66 133.787 191.967 133.766 193.294 133.828C193.548 134.052 193.606 134.338 193.606 134.665C193.606 138.998 193.684 143.309 193.548 147.642C193.548 148.295 193.489 148.949 193.353 149.562Z" fill="#FEFEFE"/>
<path d="M179.461 144.719C177.725 142.431 175.149 141.572 172.769 140.387C172.418 140.203 171.891 140.224 171.891 139.611C172.535 139.222 172.008 138.936 171.774 138.691C169.92 136.545 168.047 134.42 166.194 132.295C166.077 132.172 165.979 132.05 165.726 131.764C171.501 130.109 177.159 128.494 182.817 126.859C183.207 127.759 183.578 128.658 183.968 129.557C184.202 129.925 184.163 130.333 184.163 130.742C184.163 133.95 184.163 137.159 184.163 140.367C184.163 140.837 184.261 141.327 183.773 141.634C182.427 142.206 181.51 143.412 180.359 144.27C180.105 144.454 179.89 144.842 179.461 144.719Z" fill="#FEFEFE"/>
<path d="M179.461 144.719C180.456 143.861 181.431 142.982 182.426 142.124C182.719 141.858 183.012 141.572 183.421 141.572C183.773 141.511 184.124 141.388 184.378 141.797C185.119 142.757 185.119 143.125 184.378 144.106C184.202 144.31 184.143 144.617 183.929 144.801C182.739 145.618 182.485 146.681 182.622 148.193C183.051 152.464 183.421 156.755 183.695 161.046C183.792 162.538 184.007 164.009 184.065 165.501C184.221 167.279 184.221 169.077 184.338 170.855C184.69 175.289 185.041 179.724 185.392 184.158C185.451 187.305 184.241 190.186 183.734 193.231C183.675 193.578 183.539 193.129 183.421 193.149C182.914 187.06 182.426 180.97 181.919 174.86C181.431 169.077 180.944 163.274 180.456 157.491C180.378 156.551 180.28 155.59 180.202 154.65C180.436 154.364 180.651 154.078 180.885 153.792C182.095 152.361 182.017 150.522 180.631 149.051C179.324 147.682 177.958 146.374 176.651 145.025C176.417 144.801 175.929 144.555 176.339 144.147C176.671 143.82 176.924 144.249 177.139 144.453C178.193 145.495 179.227 146.538 180.436 147.723C180.397 146.456 179.695 145.679 179.461 144.719Z" fill="black"/>
<path d="M188.105 215.73C187.383 217.161 186.661 218.571 185.763 219.899C185.373 219.613 185.315 219.163 185.295 218.734C185.12 215.751 184.788 212.808 184.593 209.825C184.573 209.538 184.593 209.293 184.807 209.089C185.705 209.15 186.602 209.232 187.5 209.293C187.754 209.538 187.851 209.865 187.871 210.213C188.007 211.868 188.183 213.503 188.241 215.158C188.241 215.342 188.183 215.546 188.105 215.73Z" fill="#010101"/>
<path d="M193.762 133.848C194.504 133.868 195.265 133.868 196.006 133.889C196.533 133.909 196.787 134.154 196.669 134.726C195.772 139.059 194.894 143.411 193.782 147.702C193.489 147.437 193.567 147.069 193.567 146.742C193.567 142.757 193.567 138.793 193.567 134.808C193.548 134.481 193.509 134.134 193.762 133.848Z" fill="#FEFEFE"/>
<path d="M188.104 215.73C187.909 213.584 187.694 211.439 187.499 209.293C188.728 209.579 190.035 209.273 191.226 209.824C190.933 210.478 190.66 211.153 190.367 211.806C189.606 213.094 188.865 214.402 188.104 215.73Z" fill="#FDFDFD"/>
<path d="M184.807 209.068C185.119 212.685 185.451 216.282 185.763 219.899C185.334 220.737 184.905 221.554 184.456 222.392C184.124 222.167 184.183 221.799 184.183 221.472C184.183 217.61 184.183 213.768 184.183 209.906C184.183 209.6 184.163 209.293 184.378 209.048C184.534 209.048 184.67 209.068 184.807 209.068Z" fill="#FDFDFD"/>
<path d="M210.191 122.506C210.327 122.608 210.444 122.731 210.581 122.833C210.522 123.324 210.191 123.283 209.859 123.262C207.127 123.099 204.415 122.935 201.684 122.772C201.411 122.751 201.001 122.792 201.001 122.384C201.001 121.852 201.43 121.975 201.723 121.995C204.552 122.159 207.362 122.322 210.191 122.506Z" fill="#020405"/>
<path d="M199.811 116.294C199.538 118.031 199.323 119.789 198.972 121.505C198.777 122.486 197.938 121.914 197.431 121.873C196.787 121.812 197.177 121.321 197.314 121.035C198.075 119.319 198.855 117.582 199.635 115.865C199.987 115.886 199.87 116.09 199.811 116.294Z" fill="#FB9A95"/>
<path d="M193.762 133.848C193.762 138.466 193.762 143.084 193.782 147.702C193.704 148.336 193.665 148.99 193.372 149.562C193.353 144.862 193.352 140.182 193.333 135.482C193.333 134.931 193.333 134.399 193.313 133.848C193.45 133.868 193.606 133.868 193.762 133.848Z" fill="#5882AE"/>
<path d="M184.397 209.048C184.397 213.257 184.378 217.467 184.397 221.677C184.397 221.901 184.456 222.147 184.475 222.371C184.319 222.617 184.163 222.862 184.007 223.107C183.987 218.427 183.987 213.727 183.968 209.048C184.104 209.048 184.241 209.048 184.397 209.048Z" fill="#5881AE"/>
<path d="M184.378 141.777C184.066 141.695 183.734 141.634 183.422 141.552C183.968 141.45 183.968 141.021 183.968 140.571C183.968 136.893 183.988 133.235 183.988 129.557C184.241 129.679 184.358 129.904 184.378 130.17C184.378 134.052 184.378 137.914 184.378 141.777Z" fill="#5881AE"/>
<path d="M199.81 116.295C199.752 116.152 199.693 116.029 199.635 115.886C199.693 115.702 199.713 115.498 199.927 115.396C200.044 115.722 200.005 116.029 199.81 116.295Z" fill="#DCA0A4"/>
<path d="M233.564 158.553C233.955 158.533 234.345 158.492 234.735 158.492C256.158 158.492 277.581 158.492 299.004 158.492C300.311 158.492 300.311 158.492 300.311 159.861C300.311 163.029 300.292 166.196 300.331 169.363C300.35 170.16 300.136 170.385 299.355 170.385C278.361 170.365 257.348 170.365 236.355 170.365C236.296 170.365 236.218 170.365 236.159 170.385C235.281 166.441 234.423 162.497 233.564 158.553Z" fill="#FEFEFE"/>
<path d="M237.018 174.472C237.057 173.961 237.428 174.043 237.74 174.043C238.423 174.043 239.106 174.043 239.789 174.043C259.553 174.043 279.318 174.043 299.082 174.022C300.058 174.022 300.331 174.268 300.311 175.31C300.233 178.416 300.292 181.502 300.292 184.608C300.292 185.936 300.292 185.936 299.063 185.936C278.81 185.936 258.558 185.936 238.306 185.936C237.877 185.936 237.467 185.956 237.038 185.956C236.882 185.343 236.94 184.751 236.999 184.138C237.057 181.583 237.116 179.049 237.174 176.495C237.213 175.821 237.194 175.146 237.018 174.472Z" fill="#FEFEFE"/>
<path d="M219.887 245.463C217.799 244.032 215.692 242.643 213.624 241.172C213 240.722 212.551 240.661 211.907 241.151C210.327 242.336 208.688 243.44 207.088 244.584C206.561 242.357 205.722 240.252 204.669 238.249C204.415 237.759 204.376 237.207 204.376 236.676C204.376 231.199 204.376 225.743 204.376 220.267C204.376 219.695 204.415 219.102 204.649 218.571C204.688 218.407 204.747 218.223 204.786 218.06C207.517 213.115 210.327 208.19 212.824 203.102C213.156 202.815 213.546 202.815 213.936 202.815C215.926 202.815 217.897 202.815 219.887 202.815C221.097 202.815 221.292 203.02 221.292 204.328C221.272 210.519 221.389 216.711 221.194 222.903C221.155 224.292 221.233 225.682 221.058 227.072C221.136 232.998 220.375 238.862 220.004 244.768C220.004 244.993 219.926 245.218 219.887 245.463Z" fill="#FEFEFE"/>
<path d="M236.901 187.346C236.94 186.508 237.369 186.345 238.15 186.345C249.583 186.386 261.017 186.386 272.469 186.345C273.328 186.345 273.64 186.529 273.621 187.489C273.562 191.086 273.562 194.703 273.621 198.32C273.64 199.178 273.406 199.403 272.587 199.403C261.017 199.382 249.447 199.382 237.877 199.382C237.486 199.382 237.096 199.382 236.706 199.403C236.765 195.377 236.823 191.372 236.901 187.346Z" fill="#FEFEFE"/>
<path d="M214.171 199.218C215.478 194.232 214.99 189.164 214.912 184.097C214.815 177.23 214.659 170.364 214.522 163.498C214.425 158.635 214.346 153.771 214.21 148.908C214.19 148.172 214.366 147.947 215.088 147.866C215.79 147.784 216.083 147.845 216.259 148.683C218.268 158.267 220.336 167.83 222.385 177.414C222.678 178.824 222.463 180.255 222.444 181.685C222.365 187.53 222.268 193.374 222.17 199.239C221.975 199.464 221.722 199.504 221.468 199.504C219.127 199.484 216.805 199.607 214.464 199.443C214.346 199.402 214.249 199.32 214.171 199.218Z" fill="#6DB5DE"/>
<path d="M236.667 199.852C254.285 199.852 271.904 199.852 289.522 199.832C292.8 199.832 296.097 199.852 299.375 199.812C300.058 199.812 300.35 199.934 300.331 200.752C300.292 202.509 300.331 202.509 298.614 202.509C278.459 202.509 258.305 202.509 238.169 202.509C236.765 202.509 236.765 202.509 236.628 201.078C236.628 200.67 236.647 200.261 236.667 199.852Z" fill="#FEFEFE"/>
<path d="M222.19 199.852C222.19 199.995 222.19 200.139 222.209 200.282C222.053 200.813 222.131 201.365 222.151 201.896C222.17 202.529 221.878 202.775 221.351 202.775C218.892 202.815 216.434 202.815 213.976 202.775C213.625 202.775 213.137 202.754 213.234 202.121C213.507 201.344 213.761 200.588 214.034 199.812C214.327 199.546 214.678 199.546 215.049 199.546C217.097 199.546 219.166 199.546 221.214 199.546C221.546 199.566 221.917 199.546 222.19 199.852Z" fill="#FCFDFD"/>
<path d="M213.234 202.12C213.253 202.508 213.507 202.508 213.78 202.508C216.336 202.508 218.892 202.488 221.448 202.508L221.936 202.508C221.955 207.372 221.78 214.054 221.546 219.02C221.507 219.571 221.624 220.144 221.487 220.695C221.448 222.821 221.331 224.946 221.077 227.071L221.077 227.014C221.057 225.092 221.038 223.19 221.038 221.268C221.038 215.566 221.019 209.865 221.058 204.143C221.058 203.224 220.804 203.019 219.965 203.04C217.604 203.101 215.224 203.081 212.863 203.101C212.98 202.754 212.98 202.386 213.234 202.12Z" fill="#5881AD"/>
<path d="M222.19 199.852C219.458 199.831 216.746 199.831 214.014 199.811C214.014 199.607 213.995 199.382 214.151 199.218C214.19 199.198 214.229 199.198 214.268 199.218C215.38 199.443 216.512 199.28 217.624 199.321C219.126 199.382 220.648 199.218 222.15 199.402C222.19 199.566 222.19 199.709 222.19 199.852Z" fill="#5881AD"/>
<path d="M222.17 199.423C219.771 199.423 217.371 199.444 214.971 199.423C214.737 199.423 214.444 199.546 214.288 199.219C216.922 199.219 219.556 199.219 222.19 199.219C222.209 199.3 222.21 199.362 222.17 199.423Z" fill="#9ABCD7"/>
<path d="M237.018 184.138C237.038 184.751 237.038 185.343 237.057 185.956C236.725 185.364 236.882 184.751 237.018 184.138Z" fill="#5A83AF"/>
<path d="M204.181 237.533C202.699 235.143 200.826 233.14 198.582 231.546C198.231 231.28 197.899 231.117 198.231 230.524C200.221 226.846 202.172 223.127 204.123 219.428C204.142 219.367 204.22 219.346 204.26 219.285C204.552 219.592 204.474 219.98 204.474 220.348C204.474 225.702 204.474 231.056 204.474 236.41C204.474 236.798 204.591 237.247 204.181 237.533Z" fill="#FDFDFD"/>
<path d="M204.182 237.534C204.221 237.37 204.279 237.207 204.279 237.043C204.279 231.138 204.26 225.212 204.26 219.306C204.279 218.999 204.455 218.754 204.669 218.57C204.689 223.168 204.708 227.746 204.708 232.343C204.708 234.305 204.689 236.287 204.669 238.249C204.513 238.004 204.357 237.759 204.182 237.534Z" fill="#5881AE"/>
<path d="M209.917 70.1322C209.625 69.8666 209.761 69.4987 209.761 69.1718C209.761 63.4909 209.781 57.81 209.742 52.1087C209.742 51.2709 209.995 51.1074 210.737 51.1074C242.13 51.1279 273.542 51.1279 304.935 51.1074C305.735 51.1074 305.969 51.3118 305.969 52.17C305.95 73.7287 305.95 95.267 305.969 116.826C305.969 117.827 305.579 117.888 304.838 117.888C278.791 117.868 252.763 117.868 226.716 117.868C226.736 114.251 226.775 110.654 226.794 107.037C227.146 106.71 227.594 106.772 228.004 106.772C229.76 106.772 231.516 106.772 233.272 106.772C234.404 106.772 234.423 106.751 234.423 105.587C234.423 101.377 234.423 97.147 234.423 92.9374C234.423 90.1583 234.404 87.3587 234.443 84.5796C234.462 83.7418 234.189 83.4557 233.369 83.4557C231.009 83.4966 228.628 83.4761 226.248 83.4557C225.799 83.4557 225.331 83.5374 224.921 83.2513C224.512 82.5566 224.551 81.8413 224.863 81.1261C225.233 80.7787 225.721 80.8605 226.15 80.8605C228.57 80.84 231.009 80.8605 233.428 80.8605C233.779 80.8605 234.228 80.9422 234.326 80.4722C234.462 79.9205 234.521 79.3074 234.267 78.7761C234.111 78.4696 233.74 78.5922 233.467 78.5922C231.009 78.5922 228.55 78.5922 226.092 78.5922C225.546 78.5922 224.96 78.6331 224.668 77.9792C224.609 77.877 224.551 77.7748 224.512 77.6522C224.394 77.2435 224.219 76.8348 224.57 76.4466C226.404 75.9152 226.911 73.9944 225.721 72.0326C224.863 70.6431 223.497 70.03 222.073 69.4987C219.497 68.5587 216.883 69.09 214.268 69.2126C212.805 69.2739 211.342 69.6622 209.917 70.1322Z" fill="#FEFEFE"/>
<path d="M224.96 83.5577C223.926 87.665 220.785 88.605 217.351 89.1159C217.097 90.5259 217.332 91.9768 217.215 93.3868C217 93.7955 217.039 94.2451 217.039 94.6742C217.039 96.779 217.058 98.8633 217.019 100.968C217.019 101.377 217.215 101.969 216.551 102.112C216.551 99.5785 216.532 97.0242 216.571 94.4903C216.59 93.775 216.454 93.4685 215.693 93.5094C214.054 93.5911 212.395 93.5707 210.737 93.5707C210.698 93.5503 210.678 93.5094 210.659 93.4685C210.269 92.2629 210.21 91.0777 210.717 89.8924C212.142 90.0559 213.546 90.2194 215.127 89.7494C213.664 88.0329 212.259 86.3981 210.815 84.7224C211.439 84.4364 212.025 84.2116 212.551 83.905C214.21 82.9855 215.244 81.5346 215.146 79.5729C214.932 75.2816 217.039 72.4616 220.18 70.1729C220.668 69.8255 221.039 69.8459 221.507 70.0911C223.321 71.0311 224.063 72.6864 224.316 74.689C224.395 75.2611 224.473 75.8333 224.551 76.4055C224.59 76.7324 224.629 77.0798 224.687 77.4068C224.512 77.6724 223.985 77.4885 224.004 77.9585C224.043 78.4081 224.492 78.2446 224.746 78.3877C224.921 78.4898 224.999 78.6737 225.038 78.8781C225.155 79.4911 225.194 80.0837 225.136 80.6968C225.116 80.8603 225.038 80.9829 224.96 81.1259C224.941 81.7798 224.941 82.4337 224.921 83.0877C225.077 83.2716 225.077 83.4146 224.96 83.5577Z" fill="#FD9993"/>
<path d="M216.571 102.154C216.883 101.888 216.746 101.52 216.746 101.214C216.766 98.9862 216.746 96.7384 216.766 94.511C216.766 94.1432 216.59 93.6527 217.136 93.4893C217.234 93.4893 217.293 93.5301 217.332 93.6119C217.351 96.1867 217.39 98.7819 217.371 101.357C217.371 102.011 217.507 102.215 218.171 102.215C220.2 102.276 221.409 103.604 221.409 105.73C221.429 109.061 221.429 112.391 221.409 115.743C221.409 117.5 220.356 118.849 218.853 119.114C218.541 119.176 218.053 119.36 217.975 118.828C217.897 118.358 218.366 118.399 218.678 118.338C219.907 118.072 220.668 117.173 220.668 115.845C220.687 112.412 220.687 108.979 220.668 105.525C220.648 104.034 219.673 103.053 218.268 103.012C217.332 102.991 216.376 102.991 215.439 103.012C214.132 103.053 213.117 103.993 213.098 105.362C213.059 108.897 213.059 112.432 213.098 115.988C213.117 117.234 213.917 118.113 215.127 118.358C215.439 118.42 215.888 118.379 215.771 118.869C215.673 119.319 215.244 119.176 214.932 119.135C213.507 118.931 212.356 117.623 212.337 116.008C212.298 112.473 212.278 108.938 212.337 105.382C212.356 103.604 213.703 102.297 215.419 102.194C215.79 102.174 216.18 102.154 216.571 102.154Z" fill="#FDFDFC"/>
<path d="M224.96 83.558C224.96 83.4149 224.979 83.2514 224.979 83.1084C227.926 83.1084 230.891 83.1288 233.837 83.1084C234.481 83.1084 234.735 83.2719 234.735 84.0075C234.715 91.3845 234.715 98.7614 234.735 106.118C234.735 106.874 234.442 107.017 233.818 107.017C231.477 106.997 229.155 107.038 226.813 107.038C226.716 105.546 226.735 104.054 226.853 102.562C226.853 103.625 226.892 104.667 226.872 105.73C226.853 106.281 227.009 106.506 227.574 106.506C229.584 106.465 231.613 106.465 233.623 106.506C234.208 106.506 234.325 106.281 234.325 105.73C234.306 98.6184 234.306 91.5071 234.325 84.3958C234.325 83.6601 234.033 83.5784 233.447 83.5784C230.599 83.5784 227.789 83.558 224.96 83.558Z" fill="#5A84B0"/>
<path d="M217.332 93.5915C217.273 93.5506 217.195 93.5098 217.137 93.4689C217.137 92.3245 217.137 91.1802 217.176 90.0563C217.176 89.7498 217.02 89.3819 217.371 89.1367C217.371 90.2811 217.41 91.4459 217.371 92.5902C217.351 93.2237 217.566 93.4076 218.151 93.3872C219.615 93.3463 221.058 93.3667 222.522 93.3872C222.834 93.3872 223.166 93.2645 223.458 93.5302C223.556 93.9593 223.595 94.368 223.419 94.7767C223.361 94.7154 223.283 94.6745 223.224 94.6132C223.049 94.4702 223.029 94.1637 222.795 94.0615C222.424 94.0206 222.073 93.8367 221.702 93.9389C220.258 93.4076 218.776 93.5506 217.332 93.5915Z" fill="#5882AE"/>
<path d="M221.663 93.9589C222.092 93.632 222.561 93.8567 223.009 93.7954C223.068 93.8772 223.068 93.9589 223.029 94.0407C222.853 94.245 222.6 94.0611 222.405 94.1837C222.17 94.1224 221.917 94.0407 221.663 93.9589Z" fill="#D5D7DC"/>
<path d="M223.399 94.7768C223.419 94.3681 223.419 93.939 223.438 93.5303C223.712 93.9594 223.555 94.409 223.555 94.8585C223.477 94.8585 223.419 94.8381 223.399 94.7768Z" fill="#6387AF"/>
<path d="M223.029 94.0003C223.049 93.939 223.049 93.8777 223.01 93.8164C223.283 94.0412 223.166 94.3477 223.185 94.6338C223.068 94.5929 222.971 94.5316 222.854 94.4908C222.814 94.2864 222.873 94.1229 223.029 94.0003Z" fill="#6387AF"/>
<path d="M223.029 94C223.087 94.2043 223.048 94.3678 222.873 94.4904C222.716 94.3883 222.58 94.3065 222.424 94.2043C222.56 93.9591 222.814 94.0204 223.029 94Z" fill="#FBF9F8"/>
<path d="M85.6523 218.284C91.252 218.284 96.8321 218.305 102.432 218.264C103.232 218.264 103.466 218.468 103.466 219.326C103.427 224.946 103.466 230.565 103.446 236.185C103.427 241.886 99.0758 246.423 93.6518 246.464C88.3253 246.484 82.9793 246.484 77.6529 246.464C72.3849 246.443 67.995 241.948 67.917 236.43C67.8389 230.668 67.917 224.925 67.8779 219.163C67.8779 218.427 68.1121 218.264 68.7754 218.264C74.3946 218.284 80.0332 218.284 85.6523 218.284Z" fill="#EFE4BC"/>
<path d="M69.6931 150.993C66.3567 151.586 63.2935 153.159 60.0547 154.12C60.0547 154.201 60.0547 154.303 60.0742 154.406C61.7131 154.59 63.3325 154.794 64.9714 154.916C68.8346 155.223 71.9173 157.818 72.6002 161.476C73.088 164.03 73.5172 166.605 73.9855 169.18C74.5122 171.98 74.7659 174.881 75.6244 177.558C77.9852 185.037 80.5996 192.435 83.136 199.853C83.2336 200.098 83.2141 200.445 83.5653 200.588C83.897 200.22 84.2287 199.893 84.5018 199.526C85.8286 197.666 87.5845 196.215 88.6186 194.008C90.5892 189.778 92.833 185.65 95.0767 181.563C96.7156 178.58 99.3106 177.252 102.608 177.538C103.818 177.64 105.008 177.824 106.217 177.987C105.183 176.904 104.091 175.944 102.94 175.086C99.7398 172.674 96.3254 172.347 92.989 174.493C90.316 176.21 87.6626 178.008 85.8481 180.848C84.8725 182.36 83.7019 183.73 82.6093 185.18C82.4532 185.385 82.3556 185.671 81.9849 185.569C81.9069 185.201 82.18 185.017 82.3556 184.792C83.7604 182.912 85.1457 181.032 86.57 179.173C87.0187 178.58 87.2724 177.967 87.4089 177.252C88.9113 169.384 90.4721 161.537 91.9354 153.67C92.3842 151.197 93.1451 148.95 94.9011 147.172C95.2523 146.804 95.5645 146.416 95.8766 146.027C96.6376 145.108 97.418 144.168 98.1789 143.228C96.9107 143.616 95.7791 144.168 94.667 144.76C91.9354 146.232 89.9453 148.48 88.8137 151.463C87.3504 155.305 85.9066 159.167 85.0286 163.233C84.931 163.703 84.9115 164.255 84.4238 164.643C84.1896 164.03 84.5213 163.56 84.6189 163.07C85.1262 160.74 85.9456 158.493 85.8676 156C85.692 150.605 85.692 145.19 85.6334 139.774C85.6139 139.059 85.6139 138.364 85.77 137.649C86.4529 134.461 87.565 131.396 88.4235 128.27C88.7552 127.105 89.1064 125.94 89.4576 124.714C88.9503 124.816 88.8332 125.184 88.6381 125.429C87.2724 127.289 85.9651 129.189 84.5408 131.008C82.063 134.175 80.9703 137.792 80.9899 141.859C81.0289 148.602 81.0289 155.346 80.9899 162.089C80.9703 164.746 81.0094 167.382 81.7508 169.956C81.9849 170.753 82.141 171.591 82.2971 172.429C82.3361 172.695 82.4727 173.001 82.18 173.267C81.8483 172.879 81.8288 172.47 81.7703 172.082C80.7947 166.38 78.7656 160.986 76.9706 155.53C75.9365 152.403 72.7953 150.441 69.6931 150.993Z" fill="#2DBE8A"/>
<path d="M85.6526 204.798C91.2522 204.798 96.8323 204.818 102.432 204.777C103.251 204.777 103.466 205.002 103.466 205.86C103.427 209.539 103.427 213.217 103.466 216.895C103.466 217.651 103.29 217.876 102.549 217.856C91.3107 217.835 80.053 217.835 68.8147 217.856C68.0928 217.856 67.8782 217.672 67.8977 216.895C67.9367 213.176 67.9367 209.477 67.8977 205.758C67.8782 204.88 68.2099 204.777 68.9123 204.777C74.4729 204.818 80.0725 204.798 85.6526 204.798Z" fill="#93C8D3"/>
<path d="M54.5918 180.337C56.1527 179.09 57.6355 177.905 59.1378 176.72C60.4256 175.698 61.7328 174.677 63.0205 173.655C67.3714 170.242 73.1076 171.959 74.9611 177.313C77.9658 185.997 80.8925 194.723 83.8581 203.428C84.1313 204.225 83.9947 204.409 83.1947 204.368C81.9265 204.307 80.6583 204.307 79.3901 204.368C78.5902 204.409 78.2195 204.164 77.9853 203.326C76.1513 197.012 74.2588 190.738 72.3857 184.444C70.8248 179.193 65.8301 176.536 60.8548 178.294C59.1378 178.907 57.4209 179.54 55.7039 180.153C55.3917 180.255 55.0991 180.5 54.5918 180.337Z" fill="#31C752"/>
<path d="M107.369 203.51C105.145 201.855 102.92 200.22 100.696 198.565C98.6279 197.032 96.7939 197.175 95.0184 199.035C93.516 200.608 92.0137 202.161 90.5504 203.735C90.1602 204.164 89.7699 204.368 89.1846 204.348C87.9164 204.307 86.6482 204.307 85.38 204.348C84.8532 204.368 84.6386 204.164 84.3849 203.674C83.507 201.957 83.8581 200.731 85.1849 199.362C87.3506 197.114 89.3017 194.641 91.3113 192.23C94.5891 188.266 99.6034 188.715 102.081 193.272C103.915 196.624 105.71 200.016 107.505 203.387C107.466 203.408 107.408 203.469 107.369 203.51Z" fill="#3C9D45"/>
<path d="M163.345 92.7945C164.36 93.1215 165.453 92.8558 166.467 93.2236C166.194 105.914 165.901 118.583 165.628 131.273C165.218 131.396 165.121 131.008 164.945 130.824C162.253 127.779 159.58 124.714 156.887 121.669C156.419 121.158 156.185 120.565 156.029 119.891C153.766 110.716 151.463 101.561 149.181 92.3858C149.122 92.1202 149.102 91.8545 149.063 91.5889C151.288 91.7728 153.492 91.9567 155.717 92.1406C158.234 92.4063 160.77 92.7128 163.345 92.7945Z" fill="black"/>
<path d="M173.264 74.9904C174.669 75.8078 175.449 77.0134 175.195 78.7504C174.981 80.2625 174.064 81.2025 172.659 81.6112C172.171 81.9791 171.605 81.8156 171.079 81.8156C170.825 81.7747 170.591 81.6725 170.357 81.5499C169.869 81.223 169.362 80.896 169.049 80.3647C168.815 79.9764 168.581 79.9969 168.269 80.283C167.781 80.753 167.254 81.1208 166.572 81.1617C166.532 81.1617 166.474 81.1412 166.435 81.1412C164.113 81.1208 162.65 79.9151 162.533 77.933C162.435 76.3186 163.313 74.8882 164.757 74.3773C166.259 73.846 167.781 74.3978 168.659 75.8282C168.776 76.0325 168.893 76.2164 169.03 76.4821C169.966 74.9699 171.274 74.5612 172.834 74.8269C172.991 74.8882 173.127 74.9495 173.264 74.9904Z" fill="#010101"/>
<path d="M170.564 81.3301C170.74 81.4119 170.916 81.4732 171.072 81.5549C171.579 81.7388 172.145 81.7593 172.633 82.0249C172.789 82.1271 172.964 82.2088 173.042 82.3927C173.686 82.9854 174.584 83.0467 175.403 83.5984C174.349 84.3749 173.218 84.5997 172.028 84.6201C171.013 84.3954 169.999 84.1297 169.199 83.3736C168.847 83.0467 168.574 83.1284 168.165 83.3327C166.272 84.3545 164.418 84.1297 162.643 82.9445C162.448 82.8219 162.175 82.6993 162.214 82.4541C162.253 82.168 162.565 82.2293 162.76 82.168C164.028 81.8001 165.355 81.7388 166.565 81.1462L166.545 81.1462C166.74 80.9827 166.994 81.1054 167.189 80.9827C168.457 80.2267 169.53 80.5536 170.564 81.3301Z" fill="#ECE9E9"/>
<path d="M210.035 81.555C210.035 82.3929 210.015 83.2511 210.035 84.089C210.035 84.5385 209.898 84.7224 209.469 84.5385C209.255 84.4568 209.04 84.375 208.825 84.2933C207.245 83.6598 206.406 82.495 206.582 81.1464C206.757 79.8794 208.103 78.6942 209.567 78.4694C210.035 78.4081 210.035 78.6533 210.035 78.9803C210.035 79.8794 210.035 80.7172 210.035 81.555Z" fill="#FB9892"/>
<path d="M209.898 89.6879C209.566 90.9753 209.8 92.2831 209.761 93.5705C209.586 93.5705 209.43 93.5501 209.332 93.3866C209.332 92.0992 209.332 90.8118 209.332 89.5244C209.547 89.5448 209.742 89.5244 209.898 89.6879Z" fill="#5780AC"/>
<path d="M295.395 246.26C292.858 244.502 290.439 242.868 288.059 241.151C287.415 240.681 286.966 240.702 286.342 241.151C284.039 242.847 281.698 244.502 279.357 246.178C279.045 245.892 279.181 245.565 279.181 245.299C279.181 231.588 279.181 217.876 279.162 204.164C279.162 203.265 279.376 203.02 280.235 203.04C285.015 203.081 289.795 203.081 294.556 203.04C295.219 203.04 295.453 203.204 295.453 203.939C295.434 217.855 295.434 231.772 295.434 245.688C295.453 245.81 295.414 245.953 295.395 246.26Z" fill="#FEFEFE"/>
<path d="M101.73 74.4645C101.73 82.761 95.2327 89.5249 87.3113 89.4841C79.4679 89.4432 72.9903 82.618 73.0098 74.4032C73.0293 66.1067 79.5264 59.3019 87.4283 59.3223C95.3498 59.3427 101.73 66.1067 101.73 74.4645Z" fill="#FEFEFE"/>
<path d="M173.061 82.3722C172.925 82.3109 172.808 82.2496 172.671 82.1883C172.554 81.9839 172.69 81.9226 172.847 81.8818C176.358 81.8818 179.851 81.9022 183.363 81.8613C184.163 81.8613 184.397 82.0657 184.397 82.9239C184.377 92.7735 184.377 102.603 184.377 112.432C184.26 112.575 184.124 112.595 183.948 112.575C183.948 102.868 183.929 93.1618 183.968 83.4757C183.968 82.5765 183.773 82.3313 182.895 82.3518C179.636 82.3926 176.339 82.3722 173.061 82.3722Z" fill="#5982AF"/>
<path d="M172.847 81.9031C172.788 82.0052 172.73 82.1074 172.671 82.2096C172.105 82.1074 171.579 81.8826 171.091 81.5557C171.676 81.5761 172.261 81.5761 172.847 81.5965C172.847 81.6783 172.847 81.8009 172.847 81.9031Z" fill="#D58782"/>
<path d="M184.339 170.856C184.163 169.078 184.007 167.279 183.832 165.502C183.968 163.499 183.676 161.517 183.676 159.514C183.656 154.978 183.676 150.421 183.676 145.884C183.676 145.394 183.715 144.944 183.968 144.515C184.105 144.372 184.241 144.229 184.378 144.106C184.378 152.853 184.398 161.619 184.398 170.365C184.398 170.529 184.359 170.692 184.339 170.856Z" fill="#5881AE"/>
<path d="M183.968 144.515C183.968 151.074 183.968 157.634 183.949 164.193C183.949 164.622 184.047 165.072 183.832 165.501C183.344 159.636 182.954 153.772 182.31 147.927C182.115 146.17 182.681 145.25 183.968 144.515Z" fill="#FAFBFC"/>
<path d="M261.68 95.1241C261.68 91.4458 261.699 87.7675 261.66 84.0893C261.66 83.3332 261.855 83.1084 262.597 83.1084C267.962 83.1288 273.328 83.1288 278.693 83.1084C279.396 83.1084 279.571 83.3536 279.571 84.0484C279.552 91.3641 279.552 98.6797 279.571 106.016C279.571 106.751 279.376 107.038 278.635 107.038C273.308 107.017 267.982 107.017 262.636 107.038C261.855 107.038 261.66 106.731 261.66 105.954C261.699 102.338 261.68 98.7206 261.68 95.1241Z" fill="#6189B3"/>
<path d="M238.774 92.6518C238.774 88.197 238.794 83.7218 238.755 79.267C238.755 78.5109 238.95 78.2861 239.672 78.2861C244.998 78.327 250.344 78.3066 255.671 78.2861C256.354 78.2861 256.549 78.4905 256.549 79.2057C256.529 88.1561 256.529 97.1066 256.549 106.077C256.549 106.772 256.373 107.038 255.671 107.038C250.344 107.017 244.998 107.017 239.672 107.038C238.93 107.038 238.735 106.793 238.735 106.037C238.794 101.561 238.774 97.1066 238.774 92.6518Z" fill="#5C85B0"/>
<path d="M284.43 95.0218C284.43 91.3844 284.449 87.7266 284.41 84.0892C284.41 83.3535 284.566 83.0879 285.327 83.0879C290.654 83.1288 295.98 83.1288 301.326 83.0879C302.087 83.0879 302.243 83.3535 302.243 84.0892C302.224 91.4048 302.224 98.7205 302.243 106.057C302.243 106.854 301.97 107.017 301.287 107.017C295.98 106.997 290.693 106.997 285.386 107.017C284.586 107.017 284.41 106.71 284.43 105.954C284.449 102.317 284.43 98.6796 284.43 95.0218Z" fill="#5A83AF"/>
<path d="M270.655 81.147C268.001 81.147 265.328 81.1266 262.675 81.1674C261.933 81.1879 261.641 80.9835 261.66 80.1661C261.719 78 261.484 78.3066 263.416 78.3066C268.411 78.2861 273.406 78.327 278.4 78.2861C279.298 78.2861 279.591 78.5314 279.552 79.4918C279.474 81.474 279.747 81.147 277.952 81.1674C275.513 81.1674 273.093 81.147 270.655 81.147Z" fill="#6188B3"/>
<path d="M254.421 65.3706C251.729 65.3706 249.036 65.3501 246.344 65.391C245.661 65.391 245.446 65.1458 245.446 64.451C245.446 62.5097 245.427 62.5097 247.28 62.5097C252.256 62.5097 257.211 62.5301 262.187 62.4893C263.065 62.4893 263.474 62.6936 263.338 63.6745C263.299 63.9401 263.318 64.2262 263.338 64.4919C263.396 65.2071 263.084 65.4114 262.401 65.4114C259.748 65.3501 257.075 65.3706 254.421 65.3706Z" fill="#6189B3"/>
<path d="M293.327 78.3061C295.961 78.3061 298.595 78.3265 301.229 78.2857C301.97 78.2652 302.263 78.4491 302.224 79.287C302.165 81.1465 302.224 81.1465 300.409 81.1465C295.434 81.1465 290.459 81.1261 285.503 81.167C284.683 81.167 284.352 81.0239 284.391 80.0635C284.469 78.2857 284.41 78.2857 286.108 78.2857C288.527 78.3061 290.927 78.3061 293.327 78.3061Z" fill="#6188B3"/>
<path d="M270.948 65.3706C269.484 65.3706 268.021 65.3502 266.558 65.391C265.934 65.4115 265.699 65.1662 265.719 64.5123C265.777 62.0602 265.426 62.5506 267.592 62.5302C270.167 62.4893 272.723 62.5506 275.299 62.5097C275.943 62.5097 276.138 62.6936 276.118 63.368C276.06 65.8406 276.391 65.3502 274.245 65.391C273.172 65.391 272.06 65.3706 270.948 65.3706Z" fill="#6188B3"/>
<path d="M225.019 81.1468C225.019 81.0037 225.019 80.8607 225.019 80.7176C225.429 80.3294 225.936 80.4315 226.405 80.4111C228.473 80.3907 230.541 80.4111 232.629 80.4111C232.96 80.4111 233.272 80.4315 233.585 80.3294C233.838 80.2476 233.955 80.0637 233.955 79.7981C233.955 79.5324 233.838 79.3485 233.585 79.2872C233.272 79.2055 232.941 79.2055 232.609 79.2055C230.502 79.2055 228.395 79.2055 226.287 79.2055C225.819 79.2055 225.292 79.3281 224.961 78.8172C224.902 78.6946 224.824 78.5924 224.766 78.4698C224.551 78.1837 224.551 77.9181 224.824 77.6729C224.98 78.1633 225.292 78.3268 225.8 78.3063C228.453 78.2655 231.126 78.3063 233.78 78.2655C234.463 78.2655 234.755 78.3881 234.736 79.2055C234.697 81.1468 234.736 81.1468 232.902 81.1468C230.268 81.1468 227.634 81.1468 225.019 81.1468Z" fill="#638AB3"/>
<path d="M224.804 77.6724C224.785 77.938 224.765 78.2037 224.746 78.4693C224.395 78.6328 224.063 78.7145 223.79 78.3671C223.595 78.1424 223.614 77.8563 223.77 77.6111C224.024 77.1819 224.375 77.3454 224.707 77.4476C224.746 77.5089 224.765 77.5906 224.804 77.6724Z" fill="#1F1514"/>
<path d="M224.96 78.6738C227.711 78.6738 230.462 78.6943 233.213 78.6738C233.915 78.6738 234.325 78.6943 234.345 79.6547C234.345 80.6151 233.915 80.5743 233.272 80.5743C230.521 80.5538 227.77 80.5743 225.018 80.5743C224.999 79.9612 224.979 79.3277 224.96 78.6738Z" fill="#FDFDFE"/>
<path d="M218.346 78.2649C218.307 78.6328 218.054 78.8371 217.683 78.7963C217.371 78.7554 217.137 78.5306 217.137 78.1628C217.137 77.7541 217.41 77.5293 217.761 77.5293C218.151 77.5497 218.366 77.8154 218.346 78.2649Z" fill="#150D0C"/>
<path d="M166.038 80.3089C164.574 80.3089 163.462 79.1237 163.482 77.5707C163.501 76.0789 164.594 74.9346 166.038 74.9346C167.462 74.9346 168.574 76.0789 168.594 77.5502C168.613 79.1237 167.501 80.3089 166.038 80.3089Z" fill="#FD9993"/>
<path d="M172.866 80.6974C171.715 81.0448 170.622 80.677 169.998 79.6961C169.373 78.7356 169.412 77.4891 170.056 76.5696C170.798 75.5478 171.851 75.2617 173.237 75.7522C173.373 76.6513 173.49 77.53 173.139 78.4087C172.749 78.6948 172.749 78.2452 172.612 78.0817C172.495 77.9591 172.417 77.8161 172.222 77.9183C172.164 77.9591 172.124 78 172.124 78.0817C172.105 78.2861 172.222 78.3883 172.378 78.4291C172.651 78.5313 172.963 78.5313 173.061 78.8787C173.159 79.5326 173.276 80.1456 172.866 80.6974Z" fill="#FC9993"/>
<path d="M170.564 81.3307C169.277 80.5133 167.93 81.0037 166.604 81.1263C167.462 80.7381 168.34 80.4111 168.886 79.3076C169.374 80.1863 169.862 80.8607 170.564 81.3307Z" fill="#F39690"/>
<path d="M93.9836 80.9017C92.7739 79.7778 91.7008 78.7765 90.6277 77.7752C90.1204 77.3052 89.6131 76.8352 89.1059 76.3447C88.6181 75.8543 88.1498 75.4047 87.3499 75.6295C86.8816 75.7726 86.4719 75.4047 86.2768 74.9347C86.0622 74.4034 86.0817 73.77 86.589 73.4634C87.1743 73.116 87.1548 72.646 87.1548 72.0943C87.1548 69.683 87.1548 67.2717 87.1548 64.8604C87.1548 64.513 87.0182 64.1247 87.3499 63.7773C87.7011 64.0634 87.5645 64.4517 87.5645 64.7786C87.584 67.19 87.5645 69.6013 87.5645 72.0126C87.5645 72.2169 87.4865 72.5234 87.584 72.6052C88.4815 73.443 88.2864 74.8939 89.1059 75.7113C90.5692 77.1621 92.091 78.5517 93.5739 79.9617C93.808 80.1456 94.0811 80.2478 93.9836 80.9017Z" fill="#5A83AF"/>
<path d="M262.187 95.0216C262.187 91.5477 262.206 88.0738 262.167 84.6203C262.167 83.8642 262.284 83.5577 263.104 83.5781C268.099 83.619 273.113 83.619 278.108 83.5781C278.83 83.5781 279.044 83.7824 279.025 84.5385C279.005 91.5477 278.986 98.5568 279.025 105.566C279.025 106.363 278.771 106.506 278.088 106.506C273.093 106.485 268.079 106.465 263.084 106.506C262.362 106.506 262.148 106.302 262.167 105.545C262.226 102.031 262.187 98.5159 262.187 95.0216Z" fill="#E74F4F"/>
<path d="M239.203 92.5699C239.203 88.3195 239.223 84.0486 239.184 79.7982C239.184 78.9808 239.418 78.7969 240.179 78.7969C245.193 78.8377 250.188 78.8173 255.202 78.7969C255.924 78.7969 256.158 78.9808 256.158 79.7573C256.139 88.3808 256.139 96.9838 256.158 105.607C256.158 106.241 256.021 106.486 255.358 106.486C250.246 106.466 245.154 106.445 240.042 106.486C239.301 106.486 239.203 106.2 239.223 105.546C239.203 101.234 239.203 96.9021 239.203 92.5699Z" fill="#FEFEFE"/>
<path d="M301.794 95.0215C301.794 98.5363 301.774 102.031 301.813 105.545C301.813 106.322 301.618 106.506 300.877 106.506C295.843 106.465 290.809 106.465 285.775 106.506C285.053 106.506 284.839 106.342 284.839 105.545C284.878 98.5363 284.878 91.5272 284.839 84.5181C284.839 83.7415 285.034 83.5576 285.756 83.5576C290.79 83.5985 295.823 83.5985 300.857 83.5576C301.579 83.5576 301.794 83.7211 301.794 84.5181C301.774 88.0124 301.794 91.5272 301.794 95.0215Z" fill="#FEFEFE"/>
<path d="M270.499 80.6973C268.002 80.6973 265.504 80.6769 263.007 80.7177C262.246 80.7382 262.188 80.3908 262.188 79.7573C262.188 79.083 262.305 78.7969 263.046 78.7969C268.119 78.8377 273.172 78.8377 278.245 78.7969C278.986 78.7969 279.064 79.1443 279.084 79.7777C279.103 80.4521 278.947 80.7382 278.225 80.7177C275.63 80.6769 273.075 80.6973 270.499 80.6973Z" fill="#FEFEFE"/>
<path d="M254.422 62.9599C256.919 62.9599 259.416 62.9803 261.933 62.9395C262.558 62.9395 262.889 63.0212 262.85 63.7977C262.811 64.4312 262.831 64.8399 261.992 64.8399C256.958 64.799 251.924 64.799 246.89 64.8399C246.149 64.8399 245.973 64.5947 245.954 63.859C245.934 63.0212 246.266 62.9395 246.929 62.9395C249.407 62.9803 251.924 62.9599 254.422 62.9599Z" fill="#FEFEFE"/>
<path d="M293.326 80.6973C290.77 80.6973 288.195 80.6769 285.639 80.7177C284.936 80.7382 284.858 80.4112 284.858 79.8186C284.878 79.226 284.839 78.7969 285.639 78.7969C290.77 78.8377 295.902 78.8377 301.013 78.7969C301.833 78.7969 301.774 79.2464 301.794 79.8186C301.813 80.4521 301.696 80.7177 301.013 80.7177C298.457 80.6769 295.882 80.6973 293.326 80.6973Z" fill="#FDFEFE"/>
<path d="M270.908 64.8398C269.601 64.8398 268.313 64.7989 267.006 64.8602C266.284 64.8806 266.226 64.4924 266.245 63.9202C266.265 63.4093 266.167 62.9393 266.967 62.9598C269.621 63.0211 272.294 63.0006 274.947 62.9598C275.708 62.9393 275.669 63.3276 275.688 63.8793C275.708 64.4924 275.669 64.9011 274.888 64.8602C273.562 64.7784 272.235 64.8398 270.908 64.8398Z" fill="#FEFEFE"/>
<path d="M166.642 77.6115C166.603 77.9997 166.408 78.2449 166.037 78.2449C165.667 78.2449 165.452 77.9997 165.452 77.591C165.472 77.2232 165.667 77.0393 165.998 77.0189C166.389 76.9984 166.584 77.2232 166.642 77.6115Z" fill="#0C0807"/>
<path d="M172.925 78.4695C172.886 78.5103 172.867 78.5716 172.847 78.6329C172.515 78.776 172.164 78.919 171.872 78.5512C171.715 78.3469 171.676 78.1221 171.813 77.8973C171.95 77.6521 172.164 77.4682 172.457 77.5295C172.964 77.6112 172.945 78.0608 172.925 78.4695Z" fill="#1A1312"/>
<path d="M87.7011 75.1388C87.0768 75.2818 86.7256 75.0775 86.628 74.5053C86.5695 74.2192 86.628 73.8922 86.9012 73.8105C87.2719 73.7288 87.0963 74.1375 87.1939 74.3009C87.3499 74.587 87.506 74.8322 87.7011 75.1388Z" fill="#EEF2F6"/>
<path d="M87.7012 73.627C88.111 73.9335 88.2866 74.1991 88.111 74.6691C87.6232 74.4852 87.5256 74.1583 87.7012 73.627Z" fill="#E2E9F1"/>
<path d="M265.972 103.952C266.635 103.503 267.338 103.584 268.02 103.625C268.684 103.666 268.879 103.4 268.82 102.746C268.781 102.215 268.82 101.663 268.801 101.112C268.801 100.356 268.977 99.6608 267.884 99.2725C266.635 98.823 266.635 96.8612 267.728 95.9621C267.923 95.7986 268.177 95.676 268.391 95.533C268.586 95.4104 268.82 95.2877 268.742 95.0017C268.664 94.7564 268.411 94.8382 268.235 94.7973C266.83 94.4704 265.738 93.7347 265.016 92.386C264.723 91.8343 264.704 91.5277 265.465 91.5482C267.806 91.5686 270.147 91.5482 272.488 91.5686C272.625 91.5686 272.762 91.5277 272.879 91.589C273.171 91.7321 273.308 92.4882 273.776 91.7321C274.244 91.0169 274.576 90.3425 274.186 89.4638C273.542 88.0538 272.079 87.359 270.596 87.7677C269.445 88.0947 268.489 88.7895 267.572 89.5864C267.338 89.7908 267.162 90.1177 266.772 90.1586C266.772 90.036 266.713 89.893 266.752 89.8521C267.864 88.5647 269.172 87.5838 270.83 87.2569C272.449 86.9504 273.971 87.8086 274.654 89.3821C275.103 90.363 274.732 91.1804 274.166 91.916C273.308 93.0604 272.118 93.7756 270.967 94.5521C270.401 94.9404 269.484 95.0834 269.328 95.7169C269.094 96.6364 269.23 97.6786 269.23 98.6595C269.23 99.2112 269.64 99.109 269.933 99.0886C270.83 99.0069 271.532 99.2725 271.864 100.233C272.196 101.214 271.806 101.949 271.103 102.563C270.791 102.849 270.479 103.155 270.108 103.503C270.791 103.727 271.493 103.421 272.059 103.932C270.03 103.952 268.001 103.952 265.972 103.952Z" fill="#FEFEFE"/>
<path d="M272.606 91.9971C271.845 93.5501 270.714 94.2653 269.29 94.3879C267.846 94.5105 266.636 93.8975 265.739 92.6714C265.621 92.5079 265.465 92.3445 265.582 92.1401C265.7 91.9358 265.934 92.0175 266.109 92.0175C268.216 91.9971 270.324 91.9971 272.606 91.9971Z" fill="#E74F4F"/>
<path d="M269.231 103.666C269.231 102.337 269.231 101.213 269.231 100.069C269.231 99.8238 269.211 99.5378 269.543 99.5582C270.089 99.5582 270.655 99.3743 271.123 99.8647C271.689 100.457 271.709 101.316 271.104 101.949C270.557 102.501 269.953 103.012 269.231 103.666Z" fill="#E74F4F"/>
<path d="M268.801 96.0029C268.801 96.8408 268.801 97.6173 268.801 98.4142C268.801 98.639 268.84 98.9251 268.587 99.0477C268.314 99.1703 268.08 98.9864 267.884 98.8025C267.124 98.0873 267.26 96.289 268.801 96.0029Z" fill="#E74F4F"/>
</svg>
