<svg width="362" height="299" viewBox="0 0 362 299" fill="none" xmlns="http://www.w3.org/2000/svg">
<path d="M181 298.978C120.975 298.978 60.9301 298.978 0.905007 299C0.177072 299 0 298.827 0 298.003C0.0196739 199.008 0.0196739 99.9917 0 0.996665C0 0.194998 0.157399 0 0.905007 0C120.975 0.0216667 241.025 0.0216667 361.095 0C361.823 0 362 0.173331 362 0.996665C361.98 99.9917 361.98 199.008 362 298.003C362 298.805 361.843 299 361.095 299C301.07 298.978 241.045 298.978 181 298.978Z" fill="#FCFCFC"/>
<path d="M268.784 163.237C269.552 166.552 270.555 169.78 271.46 173.052C275.021 185.748 278.582 198.445 282.163 211.12C282.379 211.878 282.143 212.03 281.553 212.182C278.641 212.875 275.749 213.612 272.837 214.327C272.542 214.392 272.267 214.478 272.011 214.652C271.067 215.302 269.945 215.345 268.903 215.605C264.909 216.58 260.915 217.598 256.921 218.552C256.469 218.66 256.055 218.898 255.603 219.007C254.777 219.072 253.99 219.353 253.183 219.483C252.258 219.613 252.003 219.375 251.944 218.357C251.806 216.017 251.727 213.698 251.55 211.358C251.452 209.928 251.471 209.928 250.193 209.907C245.018 209.755 239.864 210.232 234.709 210.145C234.473 210.145 234.257 210.145 234.021 210.145C232.939 209.257 232.86 207.978 232.919 206.678C232.958 205.638 233.175 204.598 233.332 203.58C235.103 191.23 236.834 178.858 238.585 166.508C238.644 166.162 238.723 165.793 238.742 165.447C238.821 164.602 239.234 164.233 239.982 164.255C240.572 164.277 241.143 164.082 241.733 164.06C242.874 164.017 243.11 164.168 243.425 165.36C244.015 167.678 244.546 170.04 245.077 172.38C247.005 180.722 249.032 189.063 250.901 197.427C250.96 197.665 251.019 197.925 251.039 198.163C251.039 198.402 251.078 198.64 251.117 198.878C251.019 198.163 251.019 197.448 250.822 196.755C250.586 192.595 250.389 188.413 250.134 184.253C249.878 180.137 249.681 175.998 249.425 171.882C249.248 168.913 249.111 165.923 248.953 162.933C248.796 159.965 248.658 156.975 248.442 154.007C248.383 153.14 248.363 152.273 248.402 151.428C248.265 150.258 248.225 149.067 248.206 147.875C248.206 146.922 248.048 146.813 247.202 147.073C244.999 147.745 242.854 148.633 240.67 149.392C239.392 149.847 239.215 149.76 238.605 148.417C238.388 147.94 238.172 147.463 237.936 146.965C236.755 144.105 235.26 141.418 234.04 138.558C233.863 138.147 233.627 137.757 233.568 137.28C233.667 136.457 234.316 136.37 234.847 136.132C236.972 135.222 239.136 134.377 241.28 133.51C242.048 133.207 242.107 132.882 241.753 132.123C240.808 130.152 240.061 128.072 239.097 126.1C238.92 125.753 238.782 125.385 238.841 124.973C239.47 123.76 239.451 122.547 239.038 121.247C238.034 118.105 237.07 114.92 236.086 111.757C235.378 109.46 233.903 108.637 231.798 109.308C231.05 108.16 230.578 106.882 230.086 105.582C229.929 105.17 229.732 104.758 229.594 104.325C229.535 104.173 229.515 103.978 229.417 103.848C228.984 103.307 229.024 102.57 228.787 101.963C228.355 100.923 229.732 101.4 229.673 100.685C229.83 100.533 229.968 100.36 230.204 100.338C231.975 99.9917 233.608 99.1683 235.26 98.4317C235.457 98.3883 235.693 98.5833 235.85 98.3017C238.172 97.37 240.434 96.2 242.992 96.265C243.189 96.2433 243.385 96.33 243.582 96.33C244.33 96.72 245.176 96.655 245.963 96.85C249.366 97.6517 251.845 99.97 254.009 102.787C256.233 105.668 256.233 105.647 259.675 105.647C259.577 106.253 259.105 106.037 258.77 106.123C258.338 106.232 257.846 105.907 257.433 106.318C258.003 107.077 258.672 107.727 259.302 108.42C259.42 108.55 259.557 108.767 259.774 108.528C259.794 107.142 259.892 105.777 259.892 104.412C259.892 90.1333 259.892 75.8767 259.912 61.5983C259.912 61.1 259.675 60.4933 260.226 60.125C260.738 60.58 260.6 61.2517 260.6 61.8367C260.62 67.6 260.6 73.385 260.6 79.1483C260.6 88.7033 260.62 98.2583 260.58 107.835C260.58 109.048 260.856 109.958 261.702 110.76C262.941 111.93 264.22 113.078 265.401 114.313C266.188 115.137 267.171 114.963 268.076 115.158C268.607 115.483 268.371 115.657 267.958 115.787C267.565 115.917 267.112 115.592 266.778 116.025C268.568 118.17 270.181 120.445 271.46 123.002C272.345 124.8 272.936 126.663 272.896 128.722C272.975 128.873 273.073 129.003 273.093 129.177C273.152 132.708 271.814 135.568 269.473 137.887C267.939 139.403 266.03 140.183 264.082 140.812C262.745 141.245 262.745 141.288 263.197 142.762C263.571 143.91 263.787 145.123 264.2 146.25C264.259 146.402 264.299 146.575 264.338 146.727C265.715 151.688 267.112 156.65 268.509 161.59C268.627 162.175 268.588 162.738 268.784 163.237Z" fill="#6DB5DE"/>
<path d="M172.638 54.3614C178.324 59.7998 184.01 65.2598 189.695 70.6981C190.423 71.4131 191.191 72.1064 191.919 72.7998C192.273 72.7998 192.391 73.0598 192.489 73.3848C198.155 78.5848 198.017 87.0781 192.233 92.0614C189.145 94.7264 185.682 96.4598 181.964 97.7164C178.796 98.7781 175.668 100.035 172.638 101.551C172.5 101.703 172.382 101.876 172.186 101.985C170.887 102.635 169.589 103.285 168.271 103.913C167.602 104.13 166.913 104.065 166.224 104.065C145.075 104.065 123.925 104.065 102.776 104.065C100.966 104.065 99.1757 104.065 97.4641 104.78C96.9919 104.823 96.6574 104.541 96.4017 104.151C95.2015 102.396 94.4343 100.446 94.3359 98.2365C94.3162 97.4565 94.3359 96.6981 94.3359 95.9181C94.3949 94.1848 94.8671 92.5814 95.6737 91.1081C100.14 82.8314 104.566 74.5331 109.013 66.2564C109.131 66.0398 109.268 65.8448 109.367 65.6064C109.721 64.8264 110.232 64.5881 110.98 64.9781C111.472 65.2381 112.003 65.4331 112.534 65.6498C115.525 67.0364 118.574 68.2714 121.545 69.7014C122.155 70.0481 122.037 70.5464 121.742 71.0448C121.584 71.3048 121.447 71.5648 121.329 71.8464C120.915 72.8648 120.365 73.7964 119.912 74.7931C119.696 75.2264 119.519 75.6814 119.322 76.1364C116.784 81.1414 114.344 86.1898 111.826 91.1948C111.708 91.4548 111.59 91.7148 111.472 91.9748C111.295 92.3864 111.433 92.5814 111.826 92.5814C112.416 92.6031 113.006 92.6248 113.597 92.5814C117.807 92.1698 122.017 92.4514 126.247 92.3864C129.021 92.3431 131.815 92.3431 134.589 92.3864C136.871 92.4298 139.153 92.0181 141.435 92.1698C143.954 92.2348 146.432 91.6498 148.931 91.4114C150.092 91.3681 151.174 90.9998 152.276 90.6098C157.017 88.8981 161.68 87.0131 166.421 85.3448C166.657 85.2798 166.893 85.1714 167.129 85.0848C168.762 84.3698 170.454 83.8064 172.127 83.1781C172.304 83.1131 172.481 83.0481 172.658 82.9831C174.527 82.3548 176.337 81.5531 178.206 80.8814C178.894 80.6431 178.816 80.4048 178.363 79.9064C176.553 77.9131 174.586 76.0714 172.756 74.0781C172.599 73.8398 172.382 73.6664 172.166 73.5148C170.494 71.8464 168.861 70.1348 167.208 68.4448C166.972 68.1414 166.657 67.9464 166.402 67.6648C165.339 66.4081 164.06 65.4114 162.998 64.1548C162.113 63.0931 162.093 63.0931 163.018 62.1398C163.293 61.8364 163.568 61.5331 163.903 61.3164C164.316 61.0131 164.788 61.2081 165.241 61.1431C165.89 61.0564 166.028 60.7531 165.654 60.1464C165.064 59.1931 164.434 58.2831 163.824 57.3514C163.588 56.9831 163.234 56.5281 163.726 56.1381C164.198 55.7698 164.513 56.2248 164.788 56.5714C165.457 57.4598 166.028 58.4348 166.638 59.3664C166.972 59.8648 167.247 59.9948 167.739 59.5831C168.211 59.1931 168.389 58.8464 167.975 58.2831C167.326 57.3731 166.716 56.4414 166.126 55.5098C165.89 55.1198 165.595 54.6648 166.047 54.2748C166.52 53.8848 166.834 54.3614 167.09 54.7081C167.739 55.5964 168.29 56.5931 168.959 57.4814C169.49 58.1748 169.766 58.1098 170.159 57.3081C170.494 56.6364 170.277 55.8781 170.533 55.2281C171.005 54.6864 171.399 53.9931 172.166 53.8848C172.461 53.8848 172.5 54.1664 172.638 54.3614Z" fill="black"/>
<path d="M97.1304 104.628C98.6649 103.783 100.318 103.718 102.009 103.718C123.69 103.74 145.371 103.74 167.071 103.74C167.563 103.74 168.055 103.805 168.507 103.545C169.747 103.415 170.967 103.35 172.206 103.48C172.383 103.502 172.54 103.61 172.698 103.74C175.472 103.74 178.266 103.762 181.04 103.762C185.309 103.762 187.611 106.275 187.611 110.955C187.611 134.29 187.611 157.625 187.611 180.96C187.611 185.553 185.289 188.088 181.099 188.11C173.918 188.11 166.756 188.11 159.575 188.11C159.221 188.11 158.867 188.153 158.493 188.175C158.198 188.522 157.805 188.543 157.411 188.543C152.611 188.543 147.83 188.587 143.03 188.522C141.003 188.543 138.977 188.565 136.95 188.522C136.832 188.522 136.695 188.522 136.577 188.522C131.304 188.587 126.031 188.76 120.778 188.5C113.952 188.153 107.125 188.457 100.298 188.283C97.4845 188.673 94.1989 185.835 94.1399 181.328C94.1006 178.642 94.1203 175.933 94.1399 173.247C94.1399 173.052 94.1399 172.835 94.1203 172.64C94.0809 154.223 94.0612 135.785 94.1203 117.368C94.1203 117.152 94.1203 116.957 94.1203 116.74C94.1006 115.007 94.0809 113.252 94.1399 111.518C94.2776 110.803 94.3563 110.088 94.3367 109.352C94.6318 107.272 95.3204 105.538 97.1304 104.628Z" fill="#202B6D"/>
<path d="M250.921 198.293C248.364 187.351 245.786 176.431 243.249 165.49C243.032 164.515 242.678 164.276 241.812 164.341C239.215 164.536 239.176 164.493 238.783 167.331C237.307 177.775 235.851 188.24 234.376 198.705C234.021 201.24 233.687 203.753 233.254 206.266C233.018 207.653 233.451 208.801 233.962 209.971C234.317 210.188 234.395 210.6 234.513 210.946C237.11 218.443 239.668 225.961 242.245 233.458C242.304 233.718 242.403 233.978 242.501 234.216C243.249 236.448 244.035 238.658 244.763 240.911C244.842 241.171 244.921 241.431 245.019 241.67C246.101 244.595 247.085 247.563 248.069 250.531C248.206 250.965 248.521 251.485 247.892 251.81C247.518 251.94 247.124 251.94 246.731 251.94C241.93 251.94 237.13 251.94 232.33 251.94C231.818 251.94 231.267 252.048 230.854 251.571C230.283 249.665 229.674 247.801 228.946 245.981C228.729 245.83 228.611 245.591 228.513 245.353C228.06 244.075 227.647 242.775 227.175 241.496C227.116 241.345 227.077 241.193 227.037 241.041C226.29 238.81 225.503 236.578 224.775 234.346C224.716 234.065 224.637 233.805 224.519 233.545C222.886 229.103 221.45 224.575 219.896 220.09C218.991 217.468 218.105 214.825 217.2 212.203C216.354 209.755 216.099 207.306 216.492 204.685C218.656 190.688 220.702 176.67 222.847 162.651C222.906 162.261 222.906 161.85 223.004 161.481C223.122 161.135 223.358 160.875 223.653 160.701C226.467 159.141 229.162 157.343 232.034 155.891C232.231 155.783 232.467 155.718 232.684 155.653C237.563 154.288 242.363 152.706 247.223 151.298C247.675 151.168 248.128 150.865 248.639 151.146C248.797 153.725 248.974 156.325 249.111 158.903C249.761 170.82 250.41 182.715 251.059 194.631C251.098 195.433 251.118 196.213 251.138 197.015C251.118 197.426 251.472 197.946 250.921 198.293Z" fill="#8F3600"/>
<path d="M142.931 188.11C148.125 188.11 153.299 188.11 158.493 188.11C158.474 194.524 158.474 200.937 158.415 207.372C158.316 217.577 158.198 227.782 158.041 237.965C157.962 242.472 157.746 246.979 157.569 251.464C157.569 251.724 157.569 251.962 157.765 252.135C157.47 252.59 157.018 252.547 156.605 252.547C151.568 252.569 146.532 252.569 141.495 252.547C141.141 252.547 140.767 252.547 140.452 252.33C139.921 251.702 140.078 250.9 140.137 250.185C140.295 248.127 140.393 246.047 140.551 243.989C140.629 243.685 140.708 243.382 140.669 243.057C140.767 237.705 141.22 232.375 141.338 227.024C141.377 225.334 141.436 223.644 141.495 221.975C141.495 221.78 141.495 221.564 141.515 221.369C141.849 218.834 141.711 216.255 141.79 213.72C141.908 210.34 142.026 206.96 142.085 203.58C142.184 199.052 142.4 194.524 142.479 189.974C142.498 189.324 142.557 188.652 142.931 188.11Z" fill="#E98F27"/>
<path d="M230.853 251.55C236.598 251.572 242.363 251.572 248.107 251.593C248.462 251.832 248.481 252.243 248.58 252.612C249.131 254.605 249.544 256.62 249.996 258.657C250.154 259.393 250.39 259.523 250.98 259.112C252.869 257.833 254.757 256.577 256.666 255.342C256.961 255.19 257.276 255.038 257.531 254.8C259.027 253.803 260.541 252.807 262.056 251.81C262.548 251.485 263.04 251.247 263.611 251.247C268.844 251.182 274.077 251.225 279.31 251.225C279.743 251.225 280.156 251.268 280.53 251.572C281.278 253.522 281.573 255.623 282.084 257.66C282.832 260.65 283.462 263.662 284.209 266.63C284.426 267.518 284.209 267.627 283.481 267.605C279.527 267.562 275.553 267.583 271.598 267.583C252.475 267.583 233.352 267.583 214.229 267.583C213.068 267.583 213.068 267.583 213.265 266.283C213.698 263.662 214.839 261.647 217.003 260.303C221.312 257.595 225.581 254.8 229.87 252.048C230.204 251.853 230.539 251.723 230.853 251.55Z" fill="black"/>
<path d="M140.412 252.178C145.882 252.178 151.331 252.178 156.801 252.178C157.135 252.178 157.45 252.157 157.765 252.135C161.129 254.28 164.493 256.403 167.858 258.548C169.215 259.415 170.573 260.282 171.91 261.17C174.114 262.643 175.039 264.918 175.294 267.627C175.334 267.995 175.235 268.168 174.881 268.168C174.645 268.168 174.429 268.168 174.193 268.168C165.575 268.168 156.958 268.147 148.341 268.168C142.281 268.168 136.222 268.233 130.162 268.255C129.966 268.45 129.71 268.515 129.454 268.537C126.109 268.558 122.785 268.602 119.44 268.515C119.243 268.493 119.086 268.385 118.909 268.277C114.384 268.255 109.839 268.255 105.314 268.233C104.96 268.233 104.606 268.233 104.153 268.233C104.763 265.525 105.334 262.882 105.924 260.26C105.845 260.087 105.806 259.913 105.826 259.74C106.258 257.66 106.75 255.58 107.222 253.5C107.34 253.023 107.419 252.503 107.891 252.243C108.403 252.048 108.934 252.092 109.446 252.092C114.069 252.222 118.692 251.875 123.335 251.875C123.867 251.875 124.378 251.853 124.89 252.027C127.192 253.24 129.375 254.713 131.579 256.1C134.097 257.703 136.576 259.415 139.094 260.997C140.963 262.167 142.045 263.9 142.458 266.175C142.498 266.413 142.478 266.673 142.754 266.912C142.655 264.615 141.75 262.838 140.196 261.495C139.527 260.91 139.389 260.368 139.468 259.48C139.625 257.552 139.881 255.623 139.96 253.673C139.98 253.132 140.019 252.59 140.412 252.178Z" fill="black"/>
<path d="M54.9296 268.017C54.8903 264.312 54.5952 260.607 55.0477 256.923C55.6969 251.572 58.9431 247.953 63.7632 246.74C63.8813 246.718 63.9993 246.632 64.137 246.588C64.2747 246.458 64.4125 246.372 64.5895 246.328C65.9274 246.09 67.2652 245.982 68.603 246.112C68.9965 246.22 69.3703 246.502 69.8031 246.177C70.5901 246.003 71.3967 246.133 72.1837 246.047C72.5968 246.025 72.9706 246.502 73.4231 246.155C75.6856 245.982 77.9481 246.003 80.1713 246.437C85.3848 247.433 89.9098 252.85 89.3393 259.783C89.3196 259.978 89.2213 260.13 89.1426 260.282C89.1229 262.86 89.0836 265.438 89.0639 268.017C87.5096 268.277 85.9357 268.038 84.3815 268.147C80.6041 268.407 76.807 268.472 73.0296 268.32C67.1865 268.06 61.3433 268.212 55.5002 268.147C55.3034 268.125 55.1067 268.168 54.9296 268.017Z" fill="#202B6D"/>
<path d="M280.55 251.572C274.825 251.572 269.08 251.572 263.355 251.572C262.706 250.684 262.745 249.535 262.45 248.517C262.411 248.3 262.332 248.084 262.273 247.845C261.211 243.36 260.148 238.897 259.125 234.39C259.086 234.109 258.988 233.827 258.929 233.545C257.847 229.082 256.804 224.597 255.781 220.112C255.683 219.679 255.505 219.224 255.702 218.747C256.804 218.075 258.063 218.01 259.263 217.707C263.336 216.667 267.408 215.692 271.481 214.674C271.677 214.63 271.854 214.544 272.051 214.652C274.884 226.959 277.717 239.265 280.55 251.572Z" fill="#8F3600"/>
<path d="M69.6453 246.393C69.3896 246.978 69.1338 246.566 68.878 246.393C68.1108 245.526 68.0124 244.335 67.6386 243.295C67.0484 241.561 66.4778 239.806 65.9466 238.051C65.8679 237.791 65.8089 237.531 65.7105 237.271C65.2777 236.015 64.8842 234.758 64.5104 233.48C64.353 232.916 64.1169 232.396 63.9399 231.833C62.9168 228.583 61.7954 225.376 60.8117 222.105C60.7527 221.888 60.7527 221.671 60.7724 221.455C60.2215 219.05 59.3559 216.753 58.6082 214.435C53.0799 197.275 47.5121 180.115 41.9838 162.933C41.787 162.348 41.5313 161.958 41.0591 161.633C38.4031 159.813 37.8129 156.888 39.5048 153.941C51.3879 133.141 63.271 112.341 75.154 91.5413C76.6099 89.0063 78.6757 87.923 80.8398 88.833C83.5351 89.9813 85.3451 91.7363 85.1877 94.8563C85.1287 95.8963 84.7549 96.8063 84.2434 97.6513C84.0467 97.9763 83.8106 98.258 84.2237 98.6697C85.6009 99.9913 86.9584 101.335 88.3356 102.678C88.67 102.721 88.8668 103.025 89.1029 103.241C90.7358 104.888 92.4278 106.47 94.0214 108.16C94.4148 108.55 94.5525 108.94 94.1197 109.395C93.7656 109.59 93.4902 109.373 93.2541 109.135C91.7785 107.683 90.303 106.231 88.8471 104.758C88.611 104.498 88.3946 104.238 88.1388 104.021C86.86 102.83 85.6206 101.616 84.4205 100.338C83.6532 99.5363 83.4958 99.558 82.9449 100.511C76.9247 111.085 70.8848 121.636 64.8449 132.188C59.5723 141.44 54.28 150.691 48.9877 159.921C48.4958 160.788 47.9646 161.611 47.217 162.218C46.7252 162.608 46.7055 163.063 46.8826 163.626C49.1057 170.321 51.2305 177.081 53.4143 183.798C55.3424 189.735 57.2507 195.693 59.1788 201.63C60.8117 206.7 62.4447 211.748 64.0776 216.818C64.1366 217.013 64.1956 217.23 64.235 217.446C64.3727 217.966 64.5891 218.443 64.7465 218.941C66.7139 225.008 68.6813 231.096 70.6487 237.163C70.7077 237.423 70.7667 237.705 70.8651 237.943C71.6717 240.283 72.439 242.645 73.167 245.006C73.3047 245.44 73.5408 245.873 73.2653 246.328C72.8522 247.13 72.7145 246.393 72.4981 246.155C72.1439 246.003 72.0652 245.635 71.9472 245.31C71.1602 242.905 70.3339 240.521 69.6257 238.095C69.5273 237.726 69.4289 237.358 69.2715 237.011C67.6583 232.115 66.0647 227.196 64.5104 222.278C64.3727 221.758 64.1956 221.238 63.9792 220.761C60.1035 208.715 56.2277 196.69 52.3323 184.665C50.1878 178.013 48.0433 171.34 45.8792 164.688C45.4857 163.496 45.6431 163.041 44.1479 163.28C43.8921 163.323 43.6364 163.193 43.2035 163.258C43.6954 164.558 44.0299 165.858 44.443 167.136C46.4497 173.246 48.3975 179.378 50.3845 185.488C53.4143 194.826 56.4244 204.186 59.4346 213.525C60.2805 216.146 61.1462 218.746 61.9725 221.368C62.0512 221.628 62.1102 221.888 62.2086 222.148C62.8972 224.25 63.5464 226.351 64.235 228.453C64.3924 229.016 64.5498 229.58 64.7662 230.121C65.5138 232.44 66.3204 234.736 66.9893 237.076C67.0484 237.401 67.1861 237.683 67.3041 237.986C68.1501 240.413 68.8781 242.905 69.7044 245.353C69.7634 245.7 69.8814 246.046 69.6453 246.393Z" fill="black"/>
<path d="M203.743 131.257C204.097 130.217 203.644 129.22 203.507 128.245C202.818 123.413 202.051 118.603 201.303 113.793C201.067 112.298 201.047 112.32 202.307 111.865C202.464 111.822 202.621 111.735 202.759 111.692C202.936 111.475 203.153 111.302 203.408 111.215C205.572 110.543 207.737 109.85 209.92 109.243C210.078 109.2 210.235 109.2 210.412 109.243C210.845 109.503 210.884 110.002 211.002 110.435C211.652 113.078 212.321 115.722 212.95 118.365C213.049 118.755 213.108 119.145 213.344 119.47C213.226 118.517 213.029 117.585 212.773 116.653C212.203 114.465 211.73 112.277 211.16 110.088C211.062 109.698 210.963 109.33 211.022 108.918C211.376 108.073 211.829 107.38 212.813 107.532C213.462 108.442 213.639 109.547 213.954 110.587C215.311 114.898 216.728 119.167 218.085 123.478C218.223 123.912 218.4 124.345 218.42 124.822C218.361 125.428 217.908 125.623 217.515 125.862C214.859 127.487 212.144 129.025 209.448 130.585C208.838 130.932 208.228 131.278 207.638 131.69C206.537 132.47 206.281 133.38 206.891 134.637C207.992 136.933 209.094 139.23 210.196 141.527C212.301 145.86 214.386 150.172 216.452 154.527C216.787 155.22 217.2 155.892 217.495 156.607C217.633 156.953 217.987 157.365 217.515 157.755C215.724 158.08 213.954 157.928 212.262 157.17C211.888 156.932 211.435 156.867 211.16 156.455C211.14 156.26 211.042 156.13 210.904 156.043C208.248 154.158 206.989 151.363 206.517 148.005C205.75 142.697 204.904 137.41 204.097 132.102C203.979 131.842 203.664 131.647 203.743 131.257Z" fill="#6DB5DE"/>
<path d="M238.901 124.951C240.042 127.486 241.163 130.043 242.344 132.556C242.639 133.185 242.422 133.336 241.95 133.531C239.432 134.55 236.933 135.568 234.435 136.608C234.14 136.738 233.648 136.716 233.805 137.323C233.608 137.67 233.333 137.735 232.999 137.648C232.684 137.54 232.546 137.236 232.408 136.955C230.225 132.383 228.021 127.811 225.798 123.261C225.621 122.871 225.483 122.481 225.345 122.07C225.168 121.528 225.011 120.965 224.755 120.466C224.283 119.491 223.555 118.885 222.532 119.101C221.686 119.275 221.371 118.885 221.115 118.083C219.935 114.421 218.873 110.695 217.673 107.055C217.279 105.885 217.436 105.516 218.499 105.105C218.833 104.975 219.168 104.845 219.522 104.736C221.647 103.848 223.83 103.09 225.975 102.288C226.408 102.136 226.841 101.963 227.313 102.093C227.785 101.855 228.06 101.963 228.237 102.57C228.887 104.78 229.575 106.99 230.284 109.2C230.441 109.698 230.362 109.85 229.91 110.045C227.313 111.128 226.723 112.58 227.628 115.505C228.631 118.733 229.615 121.961 230.657 125.168C231.189 126.836 232.782 127.746 234.277 127.356C234.572 127.27 234.907 127.205 234.789 126.75C234.691 126.36 234.395 126.49 234.14 126.533C232.625 126.728 231.759 126.165 231.267 124.626C230.225 121.311 229.182 117.975 228.159 114.66C227.628 112.926 228.218 111.605 229.772 110.976C230.598 110.651 231.444 110.37 232.271 110.066C232.703 110.283 232.841 110.738 233.038 111.15C234.809 114.963 236.481 118.82 238.173 122.676C238.35 123.066 238.409 123.5 238.527 123.89C238.33 124.626 237.838 125.081 237.248 125.385C236.992 125.515 236.756 125.645 236.914 125.991C237.071 126.36 237.307 126.23 237.563 126.121C238.094 125.883 238.468 125.385 238.901 124.951Z" fill="black"/>
<path d="M227.312 102.072C224.755 103.025 222.217 103.979 219.659 104.91C219.108 104.542 218.971 103.87 218.695 103.329C217.987 101.855 218.282 101.942 216.846 102.505C215.213 103.155 213.541 103.675 211.77 103.307C210.963 103.155 210.235 102.787 209.35 102.289C209.921 104.585 210.609 106.644 210.708 108.832C210.708 109.07 210.609 109.265 210.412 109.352C207.874 110.132 205.317 110.89 202.779 111.67C201.067 107.359 200.477 102.7 199.533 98.172C199.061 95.8753 199.631 94.532 201.48 93.3187C202.307 92.777 203.271 92.4303 203.959 91.6287C204.727 92.2786 204.982 93.0587 204.53 93.752C203.586 95.182 203.605 96.6553 204.176 98.2153C204.451 99.6236 204.864 100.989 205.218 102.375C205.258 102.549 205.317 102.722 205.376 102.874C205.474 103.112 205.632 103.329 205.887 103.285C206.242 103.22 206.242 102.895 206.202 102.614C206.123 101.855 205.986 101.119 205.927 100.36C205.907 100.144 205.907 99.927 206.025 99.732C206.242 99.537 206.497 99.5153 206.773 99.5153C208.288 99.4936 209.173 98.562 209.684 97.0886C210.098 95.8753 210.137 95.8536 211.239 96.222C212.852 96.7853 214.564 95.8753 215.075 94.2286C215.626 92.452 214.819 90.4587 213.285 89.852C211.691 89.2237 209.96 90.0903 209.37 91.867C208.957 93.0803 208.898 93.5353 207.481 92.8853C206.989 92.647 206.458 92.712 205.927 92.8853C205.218 93.102 204.904 92.6903 204.707 92.0187C204.491 91.347 204.786 90.9786 205.297 90.7403C207.874 89.5053 210.334 87.967 212.931 86.7753C215.803 85.4537 218.675 85.8437 221.43 87.447C222.669 87.317 223.751 87.707 224.322 88.9853C224.932 90.3503 224.46 91.607 223.535 92.6036C223.043 93.1453 223.063 93.557 223.378 94.1853C224.558 96.5686 225.699 98.9953 226.86 101.4C226.978 101.639 227.155 101.855 227.312 102.072Z" fill="#FD9993"/>
<path d="M221.43 87.468C219.856 86.9914 218.321 86.363 216.669 86.3414C215.095 86.298 213.619 86.5797 212.222 87.403C209.979 88.7464 207.658 89.8947 205.336 91.0647C205.022 91.2164 204.569 91.303 204.884 91.8664C205.1 92.2347 205.002 93.0364 205.809 92.6897C206.832 92.2347 207.796 92.603 208.819 93.2097C208.976 91.628 209.527 90.328 210.904 89.6997C211.75 89.3097 212.616 89.288 213.481 89.6564C215.252 90.4364 216.059 92.6897 215.272 94.5964C214.426 96.6547 212.458 97.2614 210.196 96.0697C210.019 97.1747 209.763 98.2364 208.937 99.0164C208.091 99.7964 207.127 99.9264 206.084 99.8614C204.963 100.013 204.392 99.2114 203.939 98.2797C203.231 96.6114 203.271 95.073 204.392 93.578C204.904 92.9064 204.117 92.3214 203.979 91.6714C203.939 91.303 203.625 91.303 203.408 91.173C201.5 90.068 200.379 87.793 200.595 85.453C200.792 83.3297 202.68 81.6614 205.1 81.4664C206.399 81.3581 207.658 81.5747 208.799 82.2464C209.35 82.5497 209.684 82.4847 210.156 82.0514C212.203 80.2097 214.465 79.5381 216.983 80.7947C217.967 81.2931 218.754 82.0514 219.285 83.0697C220.052 84.478 220.938 85.8647 221.43 87.468Z" fill="black"/>
<path d="M211.16 156.498C211.534 156.541 211.888 156.628 212.164 156.931C211.691 157.495 211.062 157.321 210.491 157.321C204.333 157.343 198.175 157.321 192.018 157.321C191.683 157.321 191.368 157.343 191.034 157.321C190.385 157.3 190.05 157.603 190.07 158.34C190.07 158.665 190.07 158.99 190.07 159.315C190.07 183.3 190.07 207.285 190.07 231.248C190.07 233.241 190.07 233.241 191.919 233.241C202.268 233.241 212.616 233.241 222.965 233.241C223.575 233.241 224.224 233.09 224.755 233.631C224.932 233.783 224.952 234 224.932 234.216C224.539 234.671 224.027 234.585 223.555 234.585C220.997 234.606 218.44 234.585 215.882 234.585C214.721 234.585 214.643 234.693 214.643 235.928C214.623 237.011 214.643 238.095 214.643 239.178C214.662 240.5 214.721 240.608 215.921 240.608C219.187 240.63 222.473 240.608 225.739 240.608C226.27 240.608 226.801 240.565 227.254 240.933C227.293 241.085 227.352 241.236 227.391 241.366C227.017 241.778 226.545 241.691 226.093 241.691C224.952 241.713 223.791 241.713 222.65 241.691C222.001 241.691 221.745 241.995 221.705 242.731C221.587 245.115 221.587 245.093 223.771 245.136C225.444 245.18 227.116 244.941 228.768 245.288C228.827 245.505 228.886 245.7 228.926 245.916C226.506 245.938 224.086 245.938 221.666 245.96C221.076 245.96 220.82 245.786 220.86 245.093C220.899 244.183 220.82 243.295 220.879 242.385C220.938 241.54 220.623 241.345 219.915 241.366C218.204 241.41 216.512 241.345 214.8 241.41C214.033 241.431 213.757 241.193 213.777 240.326C213.836 238.571 213.777 236.795 213.797 235.018C213.816 234.368 213.639 234.151 213.029 234.151C209.921 234.173 206.812 234.173 203.704 234.151C203.133 234.151 202.897 234.281 202.917 234.975C202.937 238.875 202.956 242.775 202.917 246.653C202.897 247.476 203.35 247.563 203.822 247.801C207.403 249.621 209.488 252.655 209.626 257.031C209.763 261.516 207.894 264.81 204.294 266.825C199.592 269.425 193.867 267.106 191.604 261.82C189.401 256.685 191.467 250.38 196.188 248.04C197.172 247.563 197.507 247.021 197.487 245.83C197.389 242.255 197.428 238.68 197.467 235.126C197.467 234.368 197.29 234.13 196.602 234.151C194.496 234.195 192.411 234.13 190.306 234.195C189.44 234.216 189.184 233.935 189.204 232.981C189.244 225.723 189.224 218.486 189.224 211.228C189.224 193.418 189.224 175.586 189.204 157.776C189.204 156.693 189.421 156.39 190.444 156.39C197.329 156.52 204.255 156.476 211.16 156.498Z" fill="#5B84B0"/>
<path d="M88.8477 103.285C88.6707 103.069 88.4739 102.874 88.2969 102.657C88.2969 102.159 88.3165 101.639 88.3165 101.14C88.3165 77.9136 88.3165 54.6869 88.3165 31.4386C88.3165 30.0303 88.3165 30.0303 89.5757 30.0303C116.844 30.0303 144.092 30.0303 171.36 30.0303C172.639 30.0303 172.639 30.0303 172.639 31.3953C172.639 39.0436 172.619 46.6919 172.619 54.3403C172.482 54.1886 172.363 54.0369 172.226 53.8853C171.813 53.3653 171.931 52.7153 171.931 52.1303C171.931 45.7169 171.931 39.2819 171.931 32.8686C171.931 32.5003 171.931 32.1536 171.911 31.7853C171.891 31.2219 171.675 30.9186 171.144 30.8969C170.809 30.8753 170.494 30.8753 170.16 30.8753C143.758 30.8753 117.336 30.8753 90.9332 30.8753C89.2216 30.8753 89.2215 30.8753 89.2215 32.8036C89.2215 55.5753 89.2215 78.3469 89.2019 101.097C89.2019 101.855 89.4183 102.657 88.8477 103.285Z" fill="#6088B2"/>
<path d="M260.325 60.2119C259.991 60.5802 260.148 61.0352 260.148 61.4469C260.148 77.0469 260.148 92.6686 260.148 108.269C260.148 108.594 260.227 108.962 260.109 109.222C259.951 109.59 259.853 109.2 259.735 109.092C259.46 108.659 259.44 108.16 259.46 107.662C259.499 106.882 259.164 106.579 258.476 106.622C258.023 106.644 257.571 106.6 257.177 106.319C256.902 106.124 256.705 105.929 257.256 105.864C258.082 105.777 258.928 106.08 259.735 105.669C259.755 105.235 259.774 104.802 259.774 104.369C259.774 89.8952 259.794 75.4436 259.755 60.9702C259.755 59.9086 260.01 59.6269 260.955 59.6702C263.217 59.7352 265.48 59.7352 267.742 59.6702C268.588 59.6486 268.844 59.8652 268.844 60.8402C268.805 67.4486 268.824 74.0352 268.824 80.6436C268.824 91.8669 268.824 103.069 268.824 114.292C268.824 116.242 269.021 115.96 267.329 116.004C267.172 116.004 266.995 116.025 266.837 116.025C266.562 115.809 266.365 115.657 266.916 115.592C267.408 115.527 267.939 115.83 268.391 115.375C267.978 114.769 268.096 114.054 268.096 113.382C268.096 96.5469 268.096 79.7119 268.096 62.8769C268.096 60.3202 268.214 60.5369 265.972 60.5152C264.535 60.5152 263.099 60.5152 261.643 60.5152C261.171 60.5586 260.719 60.5802 260.325 60.2119Z" fill="#5E86B1"/>
<path d="M264.103 146.835C264.103 146.684 264.083 146.51 264.083 146.359C264.595 145.882 265.204 146.034 265.775 146.034C273.251 146.034 280.707 146.034 288.183 146.034C290.131 146.034 290.131 146.034 290.131 143.889C290.131 139.772 290.131 135.677 290.131 131.56C290.131 129.632 290.131 129.632 288.42 129.632C283.777 129.632 279.114 129.632 274.471 129.632C273.959 129.632 273.408 129.719 272.956 129.329C272.956 129.155 272.956 128.982 272.956 128.787C278.524 128.809 284.091 128.83 289.659 128.787C290.603 128.787 290.859 129.069 290.839 130.109C290.8 135.309 290.8 140.487 290.839 145.687C290.839 146.575 290.643 146.835 289.816 146.835C283.206 146.792 276.596 146.835 269.985 146.792C269.12 146.792 268.824 146.987 268.844 148.005C268.883 153.097 268.844 158.167 268.824 163.259C268.49 162.804 268.451 162.262 268.431 161.72C268.215 160.745 268.136 159.749 268.136 158.73C268.155 155.35 268.155 151.949 268.136 148.569C268.136 147.247 268.037 147.204 266.837 147.139C265.893 147.095 264.949 147.334 264.103 146.835Z" fill="#5882AF"/>
<path d="M235.811 98.4534C235.693 98.7134 235.536 98.5834 235.378 98.5184C234.828 98.5184 234.631 97.9767 234.375 97.6084C232.211 94.5317 229.988 91.52 227.765 88.3567C228.611 91.91 229.28 95.42 230.067 98.9084C230.185 99.4067 230.46 99.9267 230.106 100.447C230.086 100.707 230.008 100.858 229.732 100.685C228.689 95.8534 227.647 91.0434 226.624 86.2117C225.915 82.875 227.843 80.145 230.735 80.3184C231.916 80.3834 232.88 80.9684 233.588 81.9867C236.952 86.775 240.297 91.5634 243.641 96.3517C243.523 96.5467 243.346 96.5467 243.169 96.5467C242.205 95.8534 241.694 94.7267 241.005 93.7734C238.33 90.0467 235.733 86.2334 233.037 82.5067C232.172 81.315 231.031 80.73 229.653 81.1634C228.257 81.5967 227.43 82.6584 227.214 84.24C227.056 85.4317 227.529 86.4067 228.178 87.3167C230.578 90.6967 233.037 94.0334 235.398 97.435C235.634 97.7384 235.969 97.9767 235.811 98.4534Z" fill="#5A83AF"/>
<path d="M60.773 221.455C60.9304 221.563 60.9698 221.715 60.9698 221.91C60.596 222.322 60.1238 222.235 59.6713 222.235C58.1564 222.257 56.6611 222.257 55.1462 222.235C54.379 222.213 54.0051 222.473 54.0051 223.405C54.0248 229.493 54.0051 235.603 54.0248 241.692C54.0248 242.84 54.1625 242.97 55.2446 242.992C57.7432 243.013 60.2221 242.97 62.7208 243.013C63.5274 243.013 63.8225 242.688 63.8225 241.8C63.8028 239.027 63.8028 236.253 63.8225 233.48C63.8225 232.917 63.7241 232.31 64.157 231.855C64.334 232.375 64.5111 232.873 64.6882 233.393C64.6291 234 64.8652 234.607 64.7865 235.213C64.6685 236.232 64.8652 237.055 65.9079 237.315C66.085 237.467 66.085 237.683 66.085 237.922C64.7669 238.312 64.7275 239.395 64.7865 240.652C64.8652 242.19 64.8062 243.728 64.8062 245.267C64.8062 245.722 64.8456 246.198 64.5504 246.588C64.4127 246.61 64.2553 246.61 64.1176 246.632C64.0979 245.743 64.3734 244.552 63.9602 244.032C63.4684 243.403 62.3666 243.837 61.5206 243.815C59.0614 243.793 56.6021 243.793 54.1429 243.815C53.5133 243.815 53.2969 243.642 53.2969 242.905C53.3165 236.058 53.3165 229.19 53.2969 222.343C53.2969 221.693 53.4543 221.455 54.0642 221.477C56.307 221.477 58.5498 221.455 60.773 221.455Z" fill="#5B84B0"/>
<path d="M238.488 123.847C236.599 119.622 234.691 115.375 232.802 111.15C232.625 110.76 232.428 110.392 232.251 110.024C233.648 109.612 234.848 110.219 235.32 111.67C236.422 115.159 237.484 118.669 238.566 122.179C238.743 122.764 238.704 123.305 238.488 123.847Z" fill="#6DB5DE"/>
<path d="M54.9297 268.017C66.3012 268.017 77.6727 268.017 89.0442 268.017C88.7688 268.32 88.4343 268.168 88.1195 268.168C86.4473 268.19 84.775 268.168 83.1027 268.168C82.6109 268.168 82.0797 268.06 82.1387 268.927C82.1583 269.382 81.7846 269.36 81.4895 269.36C78.1842 269.36 74.879 269.36 71.5541 269.36C71.2984 269.36 70.9246 269.403 70.9246 269.013C70.9246 267.952 70.2557 268.168 69.7048 268.168C65.1208 268.168 60.5368 268.168 55.9331 268.168C55.6183 268.168 55.2445 268.342 54.9297 268.017Z" fill="#5982AF"/>
<path d="M89.123 260.26C89.123 260.086 89.123 259.913 89.1427 259.74C89.4968 259.415 89.9494 259.436 90.3625 259.436C95.1433 259.436 99.9241 259.436 104.705 259.436C105.157 259.436 105.63 259.371 106.003 259.783C105.984 259.935 105.964 260.086 105.944 260.26C100.337 260.26 94.7301 260.26 89.123 260.26Z" fill="#5881AE"/>
<path d="M129.612 268.255C129.809 268.255 130.006 268.255 130.183 268.255C130.261 269.1 129.966 269.403 129.14 269.382C126.051 269.317 122.962 269.317 119.854 269.382C119.028 269.403 118.811 269.057 118.929 268.277C119.067 268.277 119.224 268.277 119.362 268.255C119.638 268.602 120.011 268.558 120.365 268.558C123.1 268.558 125.854 268.558 128.589 268.558C128.963 268.558 129.337 268.602 129.612 268.255Z" fill="#5982AF"/>
<path d="M238.979 54.0801C240.179 55.2067 241.379 56.3117 242.559 57.4384C242.481 57.5467 242.382 57.6551 242.303 57.7851C241.044 56.7451 239.864 55.6184 238.703 54.4267C238.801 54.2967 238.88 54.1884 238.979 54.0801Z" fill="#678DB6"/>
<path d="M230.244 105.452C230.814 106.708 231.523 107.922 231.857 109.287C231.424 109.46 231.109 109.568 230.952 108.853C230.716 107.792 230.362 106.752 230.047 105.69C229.929 105.452 230.067 105.43 230.244 105.452Z" fill="#08090A"/>
<path d="M203.743 131.257C203.999 131.495 204.196 131.734 204.097 132.145C202.917 131.214 201.855 130.152 200.891 128.917C201.992 129.459 202.819 130.412 203.743 131.257Z" fill="#668DB6"/>
<path d="M192.489 73.3635C192.293 73.1685 192.116 72.9735 191.919 72.7785C192.785 72.1285 193.178 70.9369 194.319 70.2002C193.926 71.6302 192.726 72.1719 192.489 73.3635Z" fill="#678CB4"/>
<path d="M172.678 103.697C172.52 103.697 172.383 103.697 172.225 103.675C171.871 103.047 171.871 102.418 172.245 101.79C172.383 101.703 172.52 101.638 172.638 101.552C172.658 102.267 172.658 102.982 172.678 103.697Z" fill="#567FAB"/>
<path d="M230.244 105.452C230.185 105.538 230.106 105.625 230.047 105.712C229.87 105.278 229.516 104.888 229.673 104.347C230.008 104.607 230.106 105.04 230.244 105.452Z" fill="#20272A"/>
<path d="M260.325 60.2114C262.706 60.2114 265.106 60.2331 267.487 60.1681C268.254 60.1464 268.392 60.4497 268.392 61.2081C268.372 68.2714 268.372 75.3347 268.372 82.3981C268.372 93.3831 268.372 104.39 268.352 115.375C266.838 115.721 265.677 115.158 264.595 113.966C263.434 112.666 262.135 111.496 260.857 110.326C260.463 109.98 260.286 109.611 260.286 109.048C260.325 92.7764 260.325 76.5047 260.325 60.2114Z" fill="#FEFEFE"/>
<path d="M255.702 218.746C256.862 223.708 258.003 228.67 259.164 233.631C258.83 233.956 258.436 233.913 258.043 233.913C253.105 233.913 248.147 233.913 243.209 233.913C242.815 233.913 242.422 233.935 242.068 233.653C239.707 226.785 237.346 219.938 234.985 213.07C234.631 212.03 234.296 210.968 233.962 209.928C234.926 209.625 235.91 209.798 236.874 209.776C241.536 209.668 246.219 209.603 250.881 209.495C251.629 209.473 251.885 209.69 251.905 210.556C251.983 213.221 252.18 215.865 252.278 218.53C252.298 219.223 252.495 219.353 253.105 219.223C253.97 219.05 254.797 218.551 255.702 218.746Z" fill="#FEFEFE"/>
<path d="M272.936 129.307C278.503 129.307 284.051 129.307 289.619 129.264C290.249 129.264 290.387 129.502 290.387 130.13C290.367 135.2 290.367 140.292 290.387 145.362C290.387 146.25 290.032 146.337 289.383 146.337C281.337 146.315 273.29 146.315 265.243 146.337C264.85 146.337 264.456 146.359 264.063 146.359C263.414 144.864 263.158 143.217 262.627 141.679C262.45 141.159 262.725 141.05 263.059 140.942C263.866 140.66 264.673 140.357 265.479 140.075C269.847 138.602 272.857 134.269 272.936 129.307Z" fill="#FEFEFE"/>
<path d="M233.018 137.54C233.274 137.475 233.549 137.41 233.805 137.345C235.261 140.508 236.717 143.672 238.173 146.856C238.153 147.138 237.956 147.246 237.76 147.333C232.349 149.435 226.919 151.493 221.43 153.356C219.856 153.898 218.401 153.638 217.122 152.425C216.728 152.056 216.335 151.645 216.413 150.973C216.689 150.496 217.161 150.431 217.574 150.258C219.109 149.673 220.683 149.175 222.316 148.373C221.903 148.243 221.647 148.416 221.411 148.481C219.974 148.958 218.597 149.608 217.161 150.106C216.807 150.236 216.433 150.453 216.04 150.236C215.646 149.673 215.41 149.045 215.607 148.33C215.882 147.918 216.315 147.831 216.709 147.68C217.968 147.203 219.247 146.77 220.506 146.271C220.82 146.141 221.214 146.12 221.47 145.708C219.483 146.228 217.692 147.225 215.725 147.636C215.174 147.571 215.154 147.16 215.233 146.683C215.39 145.773 215.764 144.95 216.453 144.43C217.633 143.542 218.853 142.718 220.171 142.112C220.702 142.155 221.214 142.025 221.686 141.808C223.28 141.093 224.952 140.617 226.506 139.815C225.188 140.118 223.949 140.66 222.67 141.072C222.316 141.202 221.903 141.57 221.548 141.007C222.768 138.97 224.519 137.713 226.664 137.453C228.769 137.237 230.913 137.28 233.018 137.54Z" fill="#FD9993"/>
<path d="M235.812 98.453C233.136 94.683 230.421 90.913 227.765 87.1214C226.073 84.7164 227.116 81.488 229.752 80.8597C231.09 80.5347 232.27 81.0114 233.097 82.1597C236.481 86.9264 239.825 91.7364 243.17 96.5464C241.143 96.5247 239.255 97.1964 237.386 97.998C236.894 98.2147 236.402 98.5397 235.812 98.453Z" fill="#FEFEFE"/>
<path d="M237.7 147.073C237.857 146.986 238.015 146.921 238.152 146.835C238.408 147.376 238.743 147.875 238.92 148.438C239.234 149.435 239.726 149.478 240.553 149.153C242.913 148.221 245.314 147.42 247.675 146.51C248.245 146.293 248.422 146.401 248.442 147.051C248.481 148.416 248.56 149.781 248.599 151.125C243.405 152.706 238.211 154.266 232.998 155.848C232.84 155.891 232.683 155.891 232.506 155.913C232.506 155.306 232.958 155.155 233.332 154.981C234.69 154.288 235.968 153.4 237.306 152.663C238.762 151.861 239.018 150.843 238.329 149.196C238.093 148.525 237.346 147.983 237.7 147.073Z" fill="black"/>
<path d="M230.087 100.468C229.28 96.6113 228.454 92.7546 227.648 88.9196C227.569 88.573 227.51 88.2263 227.608 87.793C230.185 91.3896 232.782 94.9646 235.36 98.5613C235.242 98.9947 234.868 99.0163 234.573 99.1247C233.373 99.6013 232.172 100.056 230.972 100.533C230.677 100.62 230.382 100.815 230.087 100.468Z" fill="#FEFEFE"/>
<path d="M264.103 146.835C265.303 146.813 266.522 146.835 267.723 146.791C268.313 146.77 268.431 147.008 268.431 147.593C268.411 152.295 268.411 156.996 268.411 161.72C267.427 159.206 266.896 156.541 266.109 153.941C265.381 151.58 264.752 149.196 264.103 146.835Z" fill="#FEFEFE"/>
<path d="M257.197 106.319C257.237 106.319 257.256 106.319 257.296 106.297C259.893 106.189 259.893 106.189 259.735 109.092C258.811 108.269 257.965 107.337 257.197 106.319Z" fill="#FDFDFE"/>
<path d="M250.921 198.293C251.255 197.903 250.96 197.405 251.118 196.993C251.373 197.708 251.255 198.466 251.295 199.485C251.039 198.965 250.901 198.661 250.921 198.293Z" fill="#83614C"/>
<path d="M164.041 61.4251C164.002 61.4684 163.963 61.5334 163.904 61.5767C162.31 63.0934 162.31 63.0934 163.923 64.7184C164.848 65.6501 165.733 66.6034 166.619 67.5351C166.815 68.0334 166.855 68.5751 166.855 69.1167C166.855 74.1001 166.855 79.0834 166.855 84.0451C166.855 84.5434 166.914 85.0634 166.579 85.4967C161.425 87.4467 156.251 89.3967 151.096 91.3251C150.447 91.5634 149.758 91.6284 149.07 91.5851C148.479 90.1117 148.558 88.5734 148.656 87.0351C148.696 86.5151 149.089 86.3634 149.502 86.2984C150.289 86.1901 151.037 85.9517 151.804 85.7351C155.267 84.6734 156.841 82.1817 156.585 77.9351C156.526 77.0467 156.447 76.1367 156.447 75.2484C156.428 74.9017 156.369 74.5551 156.29 74.2084C156.113 72.8651 155.778 71.5434 155.837 70.1784C157.156 68.5101 157.175 68.3367 155.877 66.5384C155.523 66.0617 155.621 65.6067 155.778 65.1301C155.995 64.4367 155.818 64.2201 155.149 64.3067C151.312 64.8484 147.496 65.3684 143.659 66.0184C141.475 66.3867 140.098 67.8601 139.449 70.1784C139.331 70.5901 139.272 71.0234 138.839 71.2401C136.891 71.4784 134.924 71.3484 132.976 71.3267C132.189 71.3267 132.071 70.6551 132.071 69.9617C132.071 67.6651 132.071 65.3684 132.071 63.0717C132.071 61.6417 132.052 61.6417 130.753 61.6201C129.947 61.5984 129.12 61.7501 128.314 61.4901C127.822 61.1001 127.999 60.5367 128.058 60.0167C128.137 59.3451 128.156 58.6734 128.333 58.0234C128.471 57.4384 128.786 56.9184 128.668 56.2684C128.766 55.3584 129.042 54.5134 129.376 53.6901C130.104 51.9351 130.006 50.2884 129.081 48.6851C128.943 48.4467 128.727 48.4251 128.51 48.4467C127.979 48.3167 127.507 48.0351 127.153 47.5801C126.956 47.2117 126.641 47.1684 126.287 47.2117C124.162 46.7134 122.608 47.5584 121.487 49.5951C118.988 54.1667 116.588 58.8034 114.148 63.3967C113.853 63.9601 113.558 64.5234 113.263 65.0867C113.066 65.4334 112.948 65.9101 112.456 65.9317C112.299 65.8884 112.142 65.8451 111.984 65.7801C109.977 64.9134 109.977 64.9134 108.895 66.9284C104.606 74.9451 100.298 82.9617 96.009 90.9784C95.222 92.4517 94.6712 94.0117 94.5531 95.7451C94.1203 95.6367 94.1596 95.2251 94.1203 94.8784C94.0809 94.4884 94.1006 94.0767 94.1006 93.6867C94.1006 75.2484 94.1006 56.8317 94.1006 38.3934C94.1006 36.0751 94.1006 36.0751 96.2451 36.0751C119.047 36.0751 141.83 36.0751 164.632 36.0751C164.966 36.0751 165.281 36.0534 165.615 36.0751C166.52 36.1184 166.815 36.4001 166.815 37.3967C166.815 41.5351 166.894 45.6951 166.776 49.8334C166.697 50.3317 166.324 50.4834 165.95 50.6567C164.002 51.4801 162.349 52.8451 160.854 54.4051C159.615 55.7051 159.575 57.2434 160.717 58.7167C161.385 59.6051 162.153 60.3851 163.195 60.7751C163.55 60.8834 163.943 60.9484 164.041 61.4251Z" fill="#FEFEFE"/>
<path d="M88.847 103.285C88.847 102.418 88.8273 101.552 88.8273 100.685C88.8273 77.7185 88.8273 54.7518 88.8076 31.7635C88.8076 30.8102 89.0043 30.5068 89.929 30.5068C116.981 30.5285 144.032 30.5285 171.084 30.5068C171.95 30.5068 172.245 30.7018 172.245 31.7202C172.205 39.1085 172.225 46.4968 172.245 53.9068C171.595 54.1885 171.202 54.8385 170.631 55.2285C170.199 55.1418 170.14 54.7085 170.002 54.3402C169.431 52.9102 168.762 51.5668 167.464 50.7868C167.129 50.5918 166.933 50.2668 166.893 49.8335C166.834 45.6735 166.874 41.5352 166.874 37.3968C166.874 36.0535 166.874 36.0535 165.674 36.0535C142.262 36.0535 118.83 36.0535 95.418 36.0535C94.2573 36.0535 94.2179 36.0752 94.2179 37.3968C94.2179 56.5502 94.1786 75.7035 94.2376 94.8568C94.2573 98.8652 94.2376 102.852 94.277 106.86C94.277 107.337 94.4737 107.965 93.8441 108.247C92.1719 106.578 90.5192 104.932 88.847 103.285Z" fill="#FEFEFE"/>
<path d="M141.377 92.4518C137.127 92.6902 132.878 92.6035 128.628 92.6685C122.864 92.7552 117.119 92.7985 111.355 92.8418C111.197 92.8418 111.04 92.8418 110.666 92.8418C113.558 87.0568 116.371 81.4018 119.185 75.7468C121.841 75.5952 124.477 75.7035 127.133 75.7035C127.92 75.7035 128.097 76.2885 128.117 77.0252C128.136 78.9752 128.117 80.9252 128.117 82.8752C128.117 85.6485 128.117 85.6485 130.674 85.6268C130.832 85.6268 131.009 85.6052 131.166 85.6268C131.855 85.7135 132.071 85.3668 132.071 84.6302C132.052 82.2035 132.052 79.7985 132.071 77.3718C132.071 75.8552 132.229 75.6818 133.586 75.6818C135.003 75.6818 136.399 75.6818 137.816 75.6818C138.229 75.6818 138.682 75.6168 139.036 75.9418C139.351 76.5052 138.996 76.8735 138.721 77.2852C137.285 79.3218 137.639 80.8168 139.862 81.7485C140.728 82.1168 141.043 82.6802 141.082 83.6768C141.18 86.2335 141.397 88.7685 141.515 91.3035C141.554 91.7368 141.672 92.1268 141.377 92.4518Z" fill="#FEFEFE"/>
<path d="M141.377 92.4519C141.18 89.3752 140.984 86.2769 140.807 83.2002C140.767 82.6586 140.63 82.3336 140.118 82.2252C139.803 82.1602 139.488 82.0086 139.193 81.8569C137.344 80.8602 137.029 78.8019 138.465 77.1769C138.702 76.8952 139.075 76.7219 139.095 76.2669C139.174 76.2019 139.252 76.2019 139.331 76.2236C139.646 76.2886 139.902 76.1152 140.138 75.9202C143.049 73.6452 145.902 71.3269 148.204 68.2719C148.617 67.7302 149.089 67.4269 149.739 67.6652C151.706 68.3369 153.614 69.1819 155.562 69.8969C155.719 69.9619 155.857 70.0486 155.916 70.2436C156.211 71.5869 156.349 72.9519 156.467 74.3169C156.31 74.5769 155.818 74.5769 155.897 74.9669C155.975 75.4219 156.428 75.0319 156.644 75.2269C156.605 76.9386 156.998 78.6286 156.762 80.3836C156.369 83.2869 154.795 84.9986 152.395 85.9086C151.45 86.2769 150.467 86.5802 149.443 86.6452C148.932 86.6669 148.755 86.9052 148.794 87.4469C148.893 88.8336 148.952 90.2419 149.03 91.6502C146.512 91.9969 143.974 92.5386 141.377 92.4519Z" fill="#FD9993"/>
<path d="M127.211 47.4282C127.683 47.7315 128.156 48.0132 128.628 48.3165C128.746 48.9882 128.352 49.4648 128.077 49.9848C127.27 51.5015 126.464 53.0182 125.795 54.5998C127.093 52.6065 128.097 50.4398 129.257 48.3598C129.454 48.7932 129.611 49.2482 129.828 49.6598C130.261 50.4832 130.32 51.3498 130.064 52.2382C129.671 53.6032 129.238 54.9465 128.825 56.2898C127.624 58.3915 126.523 60.5365 125.519 62.7682C125.913 62.5298 126.09 62.0748 126.287 61.6848C126.818 60.5798 127.487 59.5398 127.998 58.4132C128.116 58.1748 128.175 57.7632 128.588 57.8715C128.47 58.9982 128.352 60.1032 128.215 61.2298C128.293 61.7282 128.175 62.1615 127.979 62.5948C127.388 63.9815 126.582 65.1298 125.48 66.0832C124.103 67.2748 122.844 68.5965 121.565 69.8965C118.535 68.5532 115.505 67.2315 112.476 65.8882C114.03 63.3098 115.328 60.5582 116.764 57.9148C118.378 54.9465 119.932 51.9565 121.565 49.0098C122.726 46.9515 124.339 46.3448 126.464 47.0165C126.582 47.6882 126.188 48.1648 125.913 48.6848C125.126 50.1365 124.359 51.5882 123.611 53.0615C123.572 53.1265 123.572 53.1915 123.591 53.3215C123.886 53.2565 123.965 52.9748 124.083 52.7582C124.85 51.3932 125.559 49.9632 126.306 48.5765C126.523 48.1432 126.621 47.5365 127.211 47.4282Z" fill="#FD9993"/>
<path d="M119.736 74.7067C120.208 73.6884 120.7 72.6701 121.172 71.6734C121.566 71.3484 122.018 71.3701 122.49 71.3701C123.985 71.3701 125.5 71.3701 126.996 71.3701C128.078 71.3701 128.117 71.3267 128.117 70.1784C128.117 67.8384 128.117 65.4984 128.117 63.1584C128.117 61.6417 128.235 61.5334 129.632 61.5117C130.084 61.5117 130.557 61.5117 131.009 61.5117C132.071 61.5334 132.13 61.5767 132.13 62.7251C132.15 65.1734 132.13 67.6217 132.13 70.0701C132.13 71.3267 132.15 71.3484 133.271 71.3484C134.767 71.3484 136.282 71.3484 137.777 71.3484C138.19 71.3484 138.623 71.3051 139.016 71.5867C139.429 72.1501 139.311 72.8001 139.311 73.4284C139.252 76.0284 139.39 75.7684 137.069 75.7684C135.731 75.7684 134.393 75.7901 133.055 75.7684C132.386 75.7467 132.13 76.0067 132.13 76.7651C132.15 79.2567 132.15 81.7267 132.13 84.2184C132.13 85.4317 131.993 85.5834 130.891 85.6267C130.399 85.6484 129.907 85.6484 129.415 85.6267C128.353 85.6051 128.117 85.3451 128.097 84.1317C128.078 81.8567 128.097 79.6034 128.097 77.3284C128.097 75.7901 128.097 75.7901 126.7 75.7901C124.635 75.7901 122.589 75.7901 120.523 75.7901C119.834 75.7901 119.441 75.5734 119.736 74.7067Z" fill="#FEFEFE"/>
<path d="M93.8442 108.247C94.0607 107.835 93.9426 107.402 93.9426 106.968C93.9426 83.6983 93.9426 60.45 93.9426 37.18C93.9426 35.7717 93.9426 35.7717 95.2018 35.7717C118.751 35.7717 142.301 35.7717 165.851 35.75C166.835 35.75 167.13 36.01 167.11 37.115C167.051 41.5133 167.071 45.9117 167.071 50.31C166.874 50.5917 166.716 50.5483 166.579 50.2667C166.579 46.02 166.559 41.7517 166.598 37.505C166.598 36.66 166.461 36.335 165.595 36.335C142.163 36.3567 118.751 36.3567 95.3198 36.335C94.6115 36.335 94.3755 36.5083 94.3755 37.3533C94.3951 56.4633 94.3951 75.595 94.3951 94.705C94.3951 95.0517 94.3361 95.4417 94.5525 95.745C94.5525 96.6117 94.5525 97.4567 94.5525 98.3233C94.3558 99.2333 94.7099 100.1 94.6902 100.988C94.6312 103.567 94.9067 106.145 94.4935 108.723C94.4738 108.875 94.5132 109.005 94.5722 109.135C94.6509 109.893 94.6115 110.63 94.3951 111.345C93.7065 111.497 93.8049 110.912 93.7459 110.5C93.7065 110.11 93.7262 109.72 94.0017 109.417C94.4148 108.918 94.1197 108.593 93.8442 108.247Z" fill="#648AB4"/>
<path d="M166.598 50.2451C166.756 50.3535 166.913 50.3751 167.09 50.2885C168.763 51.0251 169.589 52.5635 170.238 54.2535C170.356 54.5785 170.494 54.9035 170.632 55.2285C170.612 56.1818 170.75 57.1568 170.061 57.9801C169.668 58.4568 169.372 58.6518 168.979 57.9585C168.31 56.8535 167.582 55.7918 166.854 54.7301C166.677 54.4485 166.461 54.0368 166.087 54.3835C165.772 54.6868 166.087 54.9685 166.244 55.2068C166.913 56.2251 167.543 57.2868 168.271 58.2401C168.782 58.9118 168.684 59.3018 167.995 59.6485C167.818 59.7351 167.661 59.8651 167.503 60.0168C167.149 60.3418 166.953 60.2985 166.677 59.8435C166.028 58.7601 165.32 57.7418 164.611 56.7018C164.415 56.4201 164.277 55.8351 163.824 56.1601C163.352 56.5068 163.824 56.8535 164.001 57.1351C164.631 58.1318 165.3 59.1068 165.949 60.1035C166.461 60.8835 166.362 61.1651 165.457 61.3168C164.985 61.3818 164.493 61.3818 164.001 61.4035C162.782 60.8618 161.641 60.2551 160.736 59.1285C159.26 57.2868 159.221 55.4451 160.913 53.8851C162.644 52.3685 164.257 50.6351 166.598 50.2451Z" fill="#FD9993"/>
<path d="M172.245 83.3298C170.553 83.9798 168.861 84.6298 167.149 85.2581C166.795 84.8898 166.854 84.3914 166.854 83.9364C166.854 79.1481 166.854 74.3381 166.854 69.5498C166.854 69.0514 166.697 68.4448 167.307 68.1631C168.959 69.8964 170.612 71.6081 172.284 73.3414C172.52 73.7098 172.54 74.1431 172.54 74.5764C172.54 77.0898 172.54 79.6031 172.54 82.1164C172.54 82.5498 172.54 83.0048 172.245 83.3298Z" fill="#FDFEFE"/>
<path d="M172.815 73.8184C174.999 76.0717 177.183 78.3034 179.504 80.665C177.104 81.51 174.94 82.485 172.658 83.1567C172.422 82.8967 172.461 82.55 172.461 82.2467C172.461 79.7767 172.441 77.285 172.461 74.815C172.461 74.4467 172.323 73.97 172.815 73.8184Z" fill="#FEFEFE"/>
<path d="M121.546 69.9182C122.352 68.2932 123.808 67.3832 125.008 66.2132C126.13 65.1516 127.113 64.0032 127.802 62.5732C128.097 62.8766 128.097 63.2666 128.097 63.6782C128.097 65.7582 128.117 67.8382 128.097 69.9182C128.077 71.0666 127.861 71.3266 126.838 71.3482C125.402 71.3699 123.966 71.3482 122.529 71.3482C122.175 71.3482 121.801 71.3482 121.526 71.0232C121.487 70.6549 122.175 70.2866 121.546 69.9182Z" fill="#FEFEFE"/>
<path d="M121.545 71.0232C123.414 71.0232 125.283 71.0232 127.152 71.0665C127.723 71.0882 127.88 70.8499 127.861 70.2432C127.821 67.6865 127.821 65.1299 127.821 62.5515C127.959 62.1182 127.959 61.6199 128.234 61.2299C129.356 61.2299 130.458 61.2732 131.579 61.2299C132.228 61.2082 132.425 61.4465 132.405 62.1615C132.366 64.7615 132.425 67.3615 132.386 69.9399C132.366 70.7415 132.523 71.0882 133.35 71.0449C135.238 70.9582 137.147 71.0015 139.055 71.0015C139.232 71.2182 139.232 71.4349 139.055 71.6299C137.029 71.6082 135.002 71.5649 132.976 71.5865C132.209 71.6082 131.953 71.3699 131.972 70.4815C132.031 67.8599 131.972 65.2165 132.012 62.5949C132.012 61.9015 131.835 61.5982 131.186 61.6849C130.281 61.7932 129.1 61.2515 128.549 61.9232C128.116 62.4432 128.392 63.6999 128.392 64.6315C128.372 66.6249 128.352 68.5965 128.411 70.5899C128.431 71.3482 128.175 71.5865 127.506 71.5649C125.421 71.5432 123.316 71.5865 121.23 71.6082C121.289 71.4565 121.427 71.2399 121.545 71.0232Z" fill="#6088B2"/>
<path d="M119.736 74.7067C119.657 75.4 119.952 75.595 120.562 75.595C122.746 75.5517 124.949 75.6383 127.133 75.5517C128.058 75.53 128.392 75.7683 128.353 76.8517C128.274 79.365 128.353 81.9 128.313 84.4133C128.294 85.1717 128.51 85.4533 129.199 85.3883C130.064 85.3017 131.186 85.7783 131.756 85.1933C132.288 84.63 131.914 83.4167 131.914 82.485C131.933 80.47 131.953 78.455 131.914 76.44C131.894 75.7683 132.071 75.5733 132.681 75.5733C134.452 75.6167 136.222 75.53 137.973 75.6167C138.859 75.66 139.154 75.3567 138.996 74.425C138.937 74.1217 139.016 73.775 139.036 73.4717C139.626 74.1433 139.665 75.2483 139.173 76.31C139.134 76.31 139.095 76.2883 139.055 76.2883C138.485 75.855 137.855 76.115 137.245 76.0933C135.908 76.05 134.57 76.1367 133.232 76.05C132.465 76.0067 132.307 76.31 132.327 77.09C132.366 79.7117 132.327 82.355 132.366 84.9767C132.386 85.735 132.17 85.995 131.481 85.9517C130.596 85.8867 129.71 85.8867 128.825 85.9517C127.959 86.0167 127.782 85.605 127.802 84.76C127.841 82.3117 127.822 79.8633 127.822 77.415C127.822 75.8983 127.979 76.0717 126.543 76.05C124.457 76.05 122.352 76.05 120.267 76.05C119.873 76.05 119.48 76.115 119.165 75.7683C119.263 75.3567 119.499 75.0317 119.736 74.7067Z" fill="#5C85B0"/>
<path d="M94.5721 109.113C94.3754 108.918 94.3951 108.658 94.3951 108.42C94.3951 105.278 94.3951 102.158 94.3951 99.0168C94.3951 98.7784 94.3754 98.4968 94.5721 98.3018C94.8279 100.707 95.6345 102.83 97.1298 104.628C95.851 105.82 94.7689 107.163 94.5721 109.113Z" fill="#FDFDFD"/>
<path d="M167.327 68.185C167.15 68.2716 167.11 68.445 167.11 68.64C167.13 74.1866 167.15 79.7333 167.15 85.28C166.953 85.3666 166.756 85.4316 166.56 85.5183C166.579 80.145 166.579 74.7716 166.599 69.3983C166.599 68.7916 166.599 68.1633 166.619 67.5566C166.855 67.7516 167.091 67.9683 167.327 68.185Z" fill="#5781AE"/>
<path d="M172.245 101.79C172.245 102.418 172.225 103.047 172.225 103.675C170.986 103.632 169.727 103.957 168.487 103.502C169.766 102.982 170.927 102.18 172.245 101.79Z" fill="#F9F9FA"/>
<path d="M172.816 73.8185C172.501 74.1001 172.658 74.4901 172.658 74.8368C172.639 77.6101 172.658 80.3835 172.658 83.1568C172.56 83.3085 172.402 83.3518 172.245 83.3301C172.265 79.9935 172.284 76.6785 172.284 73.3418C172.501 73.4501 172.717 73.5585 172.816 73.8185Z" fill="#5781AD"/>
<path d="M70.413 237.315C68.3866 231.205 66.3601 225.095 64.5108 218.898C64.3141 218.031 64.2354 217.143 64.2354 216.233C64.2354 203.515 64.2354 190.796 64.2354 178.078C64.2354 177.211 64.255 176.345 64.6288 175.543C65.3764 173.918 66.4979 172.9 68.2488 172.9C76.5906 172.9 84.9323 172.9 93.2938 172.9C93.6872 172.9 94.0807 172.878 94.4152 173.181C94.4348 175.738 94.5135 178.295 94.4545 180.851C94.3168 185.336 97.2089 188.088 100.475 188.045C106.475 188.023 112.476 188.045 118.457 188.045C119.598 188.045 119.755 188.218 119.539 189.518C118.831 193.765 118.044 198.011 117.276 202.258C115.25 213.395 113.223 224.553 111.197 235.69C111.079 236.34 111.099 237.098 110.43 237.488C110.017 237.661 109.584 237.618 109.171 237.618C96.7367 237.618 84.2831 237.618 71.8492 237.618C71.3376 237.596 70.8261 237.705 70.413 237.315Z" fill="#FEFEFE"/>
<path d="M63.9793 217.577C58.1558 199.529 52.352 181.48 46.5089 163.454C46.2925 162.804 46.2728 162.479 46.8827 162.11C47.709 161.634 48.1812 160.702 48.673 159.857C60.0839 139.88 71.5144 119.904 82.9056 99.9269C83.2991 99.2335 83.5155 99.0385 84.1254 99.6885C85.4829 101.14 86.9191 102.527 88.316 103.935C88.5914 104.412 88.5914 104.954 88.5914 105.495C88.5914 108.897 88.6111 112.32 88.5717 115.722C88.5717 116.567 88.7882 116.87 89.5751 116.849C90.7752 116.805 91.995 116.827 93.1951 116.849C93.6083 116.849 94.0608 116.805 94.3952 117.152C94.4149 117.52 94.4542 117.867 94.4542 118.235C94.4542 136.024 94.4542 153.812 94.4542 171.579C94.4542 171.969 94.4149 172.359 94.3756 172.77C93.9821 173.16 93.5099 173.009 93.0574 173.009C84.8337 173.009 76.6297 173.074 68.406 172.965C66.1238 172.944 64.2744 175.11 64.2941 177.537C64.3335 190.407 64.3138 203.277 64.2941 216.147C64.3138 216.624 64.5499 217.23 63.9793 217.577Z" fill="#FEFEFE"/>
<path d="M110.528 237.358C111.177 233.87 111.846 230.382 112.496 226.893C114.581 215.453 116.647 204.013 118.713 192.573C118.929 191.403 119.106 190.233 119.362 189.085C119.539 188.24 119.283 188.045 118.535 188.045C112.515 188.067 106.475 188.045 100.455 188.045C106.908 188.045 113.361 188.045 119.814 188.045C125.048 188.045 130.3 188.045 135.534 188.045C135.927 188.045 136.321 188.088 136.714 188.11C137.049 188.89 136.616 189.627 136.576 190.407C135.986 194.09 135.317 197.773 134.688 201.457C132.976 211.337 131.304 221.217 129.474 231.075C129.1 233.133 128.707 235.17 128.294 237.207C128.235 237.488 128.117 237.77 128.097 238.073C127.31 242.537 126.346 246.957 125.441 251.377C125.382 251.723 125.343 252.113 125.008 252.287C119.283 252.33 113.578 252.352 107.853 252.395C107.656 252.113 107.695 251.788 107.754 251.463C108.521 246.957 109.308 242.45 110.194 237.965C110.272 237.748 110.331 237.51 110.528 237.358Z" fill="#E98F27"/>
<path d="M141.003 108.485C154.244 108.485 167.465 108.485 180.705 108.463C181.61 108.463 181.925 108.68 181.925 109.763C181.905 133.098 181.905 156.433 181.925 179.768C181.925 180.743 181.709 181.046 180.784 181.046C154.185 181.025 127.586 181.025 100.986 181.046C100.022 181.046 99.8848 180.678 99.8848 179.746C99.9044 156.455 99.9044 133.141 99.8848 109.85C99.8848 108.788 100.062 108.441 101.105 108.441C114.404 108.506 127.704 108.485 141.003 108.485Z" fill="#FEFEFE"/>
<path d="M142.931 188.11C142.596 198.748 142.281 209.408 141.947 220.046C141.927 220.501 141.849 220.978 141.809 221.433C141.495 221.78 141.101 221.758 140.708 221.758C139.822 221.758 138.937 221.78 138.052 221.758C136.773 221.736 136.615 221.563 136.596 220.111C136.596 219.895 136.596 219.678 136.596 219.461C136.596 209.971 136.596 200.503 136.596 191.013C136.596 190.038 136.635 189.063 136.871 188.131C138.898 187.958 140.904 188.023 142.931 188.11Z" fill="#FEFEFE"/>
<path d="M93.9826 109.373C94.14 110.023 93.4908 110.846 94.3761 111.301C94.4745 113.078 94.5138 114.876 94.3564 116.653C94.1597 116.891 93.9039 116.891 93.6285 116.891C92.2906 116.891 90.9528 116.87 89.5953 116.891C88.8673 116.913 88.5919 116.523 88.5919 115.786C88.5722 112.32 88.5722 108.875 88.5919 105.408C88.5919 105.083 88.6509 104.758 88.887 104.52C90.2839 105.885 91.6611 107.228 93.0579 108.593C93.353 108.896 93.5891 109.243 93.9826 109.373Z" fill="#FEFEFE"/>
<path d="M136.872 188.153C136.891 193.635 136.891 199.116 136.911 204.598C136.911 209.863 136.931 215.128 136.891 220.393C136.891 221.26 137.127 221.498 137.895 221.455C139.193 221.39 140.511 221.433 141.829 221.433C141.829 221.585 141.829 221.736 141.81 221.888C140.964 222.495 140.019 222.191 139.134 222.213C137.127 222.256 137.206 222.061 137.206 224.315C137.206 229.97 137.206 235.603 137.206 241.258C137.206 242.905 137.265 242.926 138.741 242.97C139.449 242.991 140.177 242.775 140.846 243.251C140.964 243.425 140.885 243.576 140.826 243.728C140.098 244.335 139.252 244.031 138.445 244.075C137.304 244.14 137.206 244.183 137.206 245.44C137.186 248.798 137.206 252.156 137.206 255.493C137.206 256.251 137.167 257.01 136.832 257.703C136.635 258.093 136.38 258.526 135.927 258.331C135.435 258.115 135.73 257.638 135.848 257.313C136.124 256.446 136.203 255.558 136.203 254.648C136.203 249.665 136.203 244.703 136.203 239.72C136.203 238.311 136.144 238.246 134.884 238.225C133.015 238.225 131.146 238.225 129.277 238.225C128.805 238.225 128.274 238.333 127.92 237.813C127.979 237.64 128.018 237.466 128.077 237.293C128.451 236.838 128.963 236.903 129.454 236.903C131.245 236.881 133.055 236.903 134.845 236.903C136.104 236.903 136.183 236.816 136.183 235.43C136.203 230.901 136.183 226.351 136.183 221.823C136.183 212.68 136.203 203.536 136.163 194.371C136.163 193.006 136.439 191.663 136.34 190.298C136.458 189.561 136.596 188.825 136.714 188.088C136.754 188.11 136.813 188.11 136.872 188.153Z" fill="#5882AF"/>
<path d="M63.9795 217.577C64.1959 217.187 64.1172 216.732 64.1172 216.298C64.1172 203.428 64.1172 190.558 64.1172 177.71C64.1172 174.438 65.6911 172.705 68.6619 172.727C77.2397 172.727 85.8175 172.748 94.3953 172.748C94.3953 172.9 94.415 173.052 94.415 173.203C85.8962 173.203 77.3971 173.203 68.8783 173.203C65.9075 173.203 64.55 174.698 64.55 177.948C64.55 191.252 64.55 204.555 64.55 217.837C64.55 218.205 64.5304 218.552 64.5107 218.92C64.3336 218.465 64.1566 218.01 63.9795 217.577Z" fill="#5983AF"/>
<path d="M88.8871 104.542C88.8674 108.312 88.8674 112.082 88.8281 115.852C88.8281 116.48 89.0248 116.654 89.5757 116.654C91.1693 116.632 92.7628 116.675 94.3564 116.675C94.3761 116.827 94.3761 116.979 94.3958 117.152C92.7038 117.152 91.0119 117.109 89.3199 117.174C88.4739 117.217 88.2969 116.87 88.2969 116.004C88.3362 111.995 88.3165 107.965 88.3165 103.957C88.5526 104.087 88.769 104.26 88.8871 104.542Z" fill="#7194BA"/>
<path d="M224.755 233.632C224.401 233.654 224.027 233.675 223.673 233.675C212.774 233.675 201.855 233.675 190.955 233.697C190.011 233.697 189.696 233.524 189.696 232.375C189.736 207.632 189.736 182.91 189.696 158.167C189.696 157.17 189.952 156.932 190.837 156.932C197.546 156.975 204.255 156.953 210.983 156.953C211.377 156.953 211.77 156.932 212.164 156.91C213.935 157.625 215.784 157.777 217.653 157.582C218.401 158.08 218.558 159.033 219.01 159.748C219.227 160.095 219.365 160.528 219.601 160.875C220.27 161.872 221.017 162.088 222.08 161.59C222.453 161.417 222.788 161.048 223.26 161.243C222.276 167.852 221.293 174.46 220.309 181.069C219.089 189.302 217.85 197.535 216.63 205.79C216.315 207.892 216.689 209.864 217.358 211.814C219.778 218.92 222.198 226.005 224.618 233.112C224.677 233.285 224.716 233.459 224.755 233.632Z" fill="#FEFEFE"/>
<path d="M223.26 161.265C220.525 162.977 219.699 162.132 218.636 159.575C218.361 158.904 217.987 158.254 217.653 157.604C214.387 150.822 211.121 144.062 207.855 137.28C207.442 136.414 207.009 135.569 206.616 134.702C205.986 133.294 206.301 132.189 207.56 131.43C210.865 129.459 214.19 127.53 217.515 125.58C217.79 125.407 218.144 125.342 218.282 124.952C218.636 124.584 219.148 124.432 219.364 123.89C219.659 123.717 220.033 123.955 220.289 123.652C221.686 122.894 223.043 122.049 224.499 121.442C225.011 121.42 225.129 122.135 225.601 122.157C227.017 125.147 228.434 128.137 229.85 131.105C230.893 133.272 231.956 135.395 232.998 137.562C231.444 137.887 229.89 137.714 228.336 137.649C225.483 137.54 223.338 138.927 221.568 141.224C221.312 141.895 220.545 141.83 220.171 142.329C219.069 143.022 217.987 143.737 216.885 144.452C216.02 145.015 215.548 145.86 215.39 146.965C215.351 147.247 215.351 147.464 215.626 147.594C215.626 147.875 215.41 148.157 215.666 148.417C215.646 149.089 215.98 149.63 216.118 150.259C216.118 150.584 216.374 150.735 216.472 151.017C217.299 152.967 219.207 153.877 221.253 153.14C226.742 151.169 232.211 149.132 237.681 147.117C237.779 148.005 238.369 148.655 238.684 149.435C239.294 150.93 238.959 152.057 237.622 152.837C235.91 153.855 234.12 154.722 232.506 155.957C229.359 157.495 226.329 159.424 223.26 161.265Z" fill="#202B6D"/>
<path d="M259.322 234.217C260.385 238.767 261.427 243.317 262.49 247.867C262.332 248.17 262.057 248.3 261.801 248.452C259.637 249.839 258.043 251.745 257.315 254.454C257.217 254.844 257.06 255.19 256.824 255.494C254.738 256.88 252.653 258.267 250.587 259.675C250.075 260.022 250.016 259.762 249.898 259.285C249.308 256.707 248.698 254.15 248.108 251.594C247.046 248.43 245.983 245.245 244.921 242.082C244.862 241.909 244.823 241.735 244.783 241.562C245.059 240.912 245.61 241.107 246.062 241.107C248.502 241.042 248.246 241.475 248.265 238.68C248.265 237.575 248.246 236.449 248.265 235.344C248.285 234.217 248.521 233.957 249.564 233.957C252.476 233.935 255.387 233.957 258.279 233.957C258.673 233.935 259.027 233.935 259.322 234.217Z" fill="#FEFEFE"/>
<path d="M227.254 240.955C223.201 240.955 219.148 240.955 215.095 240.998C214.426 240.998 214.269 240.76 214.289 240.067C214.328 238.42 214.328 236.752 214.289 235.105C214.269 234.368 214.525 234.217 215.135 234.217C218.401 234.238 221.666 234.217 224.932 234.217C225.719 236.448 226.487 238.702 227.254 240.955Z" fill="#FEFEFE"/>
<path d="M244.606 240.976C243.74 238.766 242.992 236.513 242.284 234.238C242.52 233.935 242.855 233.913 243.189 233.913C244.527 233.913 245.865 233.891 247.203 233.913C248.167 233.935 248.344 234.13 248.344 235.191C248.363 236.816 248.324 238.42 248.363 240.045C248.383 240.89 248.068 241.236 247.321 241.15C246.416 241.085 245.491 241.388 244.606 240.976Z" fill="#FEFEFE"/>
<path d="M228.768 245.332C228.296 245.679 227.745 245.484 227.253 245.484C225.581 245.505 223.928 245.462 222.256 245.505C221.607 245.527 221.272 245.375 221.351 244.574C221.449 243.577 220.977 242.299 221.528 241.649C222.079 240.999 223.259 241.475 224.164 241.432C225.246 241.389 226.309 241.389 227.391 241.367C227.863 242.71 228.316 244.032 228.768 245.332Z" fill="#FEFEFE"/>
<path d="M244.605 240.977C245.55 240.977 246.494 240.933 247.438 240.977C247.93 240.998 248.127 240.825 248.127 240.24C248.107 238.485 248.088 236.73 248.127 234.975C248.147 234.303 247.871 234.217 247.36 234.217C245.668 234.238 243.976 234.238 242.284 234.238C242.225 234.044 242.146 233.848 242.087 233.653C247.773 233.653 253.478 233.632 259.164 233.632C259.223 233.827 259.262 234.022 259.321 234.217C256.055 234.217 252.79 234.26 249.524 234.195C248.737 234.173 248.54 234.455 248.56 235.278C248.619 237.012 248.54 238.724 248.599 240.457C248.619 241.194 248.442 241.475 247.733 241.453C246.769 241.432 245.786 241.302 244.802 241.54C244.605 241.41 244.625 241.193 244.605 240.977Z" fill="#678DB5"/>
<path d="M127.88 237.857C130.438 237.857 132.995 237.9 135.553 237.857C136.301 237.835 136.478 238.073 136.478 238.897C136.438 244.443 136.458 250.012 136.478 255.558C136.478 256.512 136.163 257.357 135.809 258.202C136.379 258.397 136.399 257.92 136.537 257.638C136.871 256.923 136.91 256.122 136.91 255.32C136.91 251.788 136.93 248.257 136.891 244.725C136.891 243.967 137.068 243.707 137.756 243.75C138.76 243.815 139.783 243.772 140.806 243.772C140.845 246.198 140.511 248.603 140.412 251.008C140.393 251.398 140.412 251.788 140.412 252.178C140.176 254.822 139.96 257.487 139.684 260.13C139.645 260.607 139.802 260.823 140.137 261.083C142.006 262.47 142.832 264.528 143.088 266.912C143.127 267.215 143.147 267.497 142.754 267.518C142.34 267.562 142.38 267.215 142.36 266.955C142.085 264.138 140.727 262.275 138.504 260.888C133.999 258.05 129.572 255.082 125.027 252.308C125.972 247.477 126.936 242.667 127.88 237.857Z" fill="#FEFEFE"/>
<path d="M140.825 243.295C139.743 243.295 138.661 243.273 137.579 243.295C137.087 243.316 136.891 243.1 136.891 242.536C136.91 235.906 136.91 229.276 136.891 222.646C136.891 222.083 137.068 221.888 137.56 221.91C138.976 221.931 140.373 221.91 141.79 221.91C141.79 226.46 141.475 231.01 141.298 235.56C141.219 237.705 141.081 239.85 140.983 242.016C140.963 242.45 141.022 242.883 140.825 243.295Z" fill="#FEFEFE"/>
<path d="M262.627 248.344C262.863 249.427 263.099 250.489 263.335 251.572C262.922 251.55 262.588 251.789 262.253 252.005C260.699 253.045 259.125 254.064 257.551 255.082C257.197 255.039 257.237 254.779 257.296 254.54C258.122 251.702 259.696 249.557 262.214 248.365C262.371 248.279 262.509 248.3 262.627 248.344Z" fill="#FDFDFD"/>
<path d="M262.627 248.344C260.325 249.47 258.672 251.312 257.728 253.912C257.59 254.28 257.276 254.649 257.571 255.082C257.335 255.234 257.079 255.364 256.843 255.515C257.531 251.897 259.42 249.362 262.489 247.889C262.529 248.019 262.588 248.17 262.627 248.344Z" fill="#6289B3"/>
<path d="M110.449 237.9C109.584 242.732 108.718 247.563 107.852 252.395C107.144 254.627 106.79 256.945 106.2 259.198C106.141 259.393 106.062 259.588 106.003 259.783C100.376 259.762 94.7494 259.762 89.1227 259.74C89.1817 256.945 88.7292 254.28 87.2733 251.94C84.9715 248.257 81.7449 246.502 77.6921 246.458C76.1969 246.437 74.682 246.632 73.2065 246.328C72.3802 243.728 71.5735 241.128 70.7472 238.528C70.6882 238.333 70.6489 238.117 70.5898 237.922C70.9243 237.553 71.3768 237.618 71.7899 237.618C84.2632 237.618 96.7365 237.618 109.229 237.618C109.662 237.618 110.115 237.532 110.449 237.9Z" fill="#FEFEFE"/>
<path d="M129.612 268.255C129.75 268.753 129.533 268.883 129.12 268.883C126.051 268.883 122.982 268.862 119.913 268.883C119.48 268.883 119.303 268.71 119.381 268.255C122.785 268.277 126.189 268.255 129.612 268.255Z" fill="#FEFEFE"/>
<path d="M64.55 246.545C64.55 244.226 64.5499 241.886 64.5303 239.568C64.5303 237.878 64.5303 237.878 66.0845 237.878C67.1075 240.673 67.9929 243.533 68.8388 246.371C67.4223 246.436 65.9861 246.501 64.55 246.545Z" fill="#FDFDFD"/>
<path d="M69.7834 237.943C70.6687 240.695 71.5541 243.446 72.459 246.198C71.5541 246.805 70.5901 246.436 69.6654 246.393C68.8391 243.771 68.0325 241.171 67.2062 238.55C67.1472 238.355 67.1078 238.138 67.0488 237.921C67.9341 237.401 68.8588 237.466 69.7834 237.943Z" fill="#FDFDFD"/>
<path d="M79.4241 89.418C82.1784 89.418 84.6377 92.213 84.4016 95.0296C84.3425 95.7013 84.1655 96.308 83.7917 96.828C83.5949 97.088 83.6343 97.868 83.0441 97.478C82.6309 97.218 82.1981 96.958 82.5522 96.1346C83.2801 94.423 82.6899 92.5813 81.2734 91.628C79.9946 90.783 78.2436 91.0646 77.2402 92.2996C76.1779 93.5996 76.0992 95.528 77.2009 96.9363C77.7321 97.6296 77.2993 97.9763 77.0435 98.4096C69.4887 111.583 61.9339 124.756 54.3791 137.908C51.5264 142.891 48.654 147.875 45.8013 152.88C45.5652 153.291 45.3881 153.595 44.8176 153.443C42.8699 152.966 41.0992 154.331 40.9025 156.39C40.6861 158.578 42.0436 160.29 44.0897 160.398C44.4438 160.42 44.7389 160.333 44.916 160.875C45.3094 162.088 45.2701 162.196 44.0897 162.131C40.1942 161.936 38.1481 157.733 40.1942 154.158C52.0576 133.401 63.921 112.645 75.7844 91.8663C76.65 90.393 77.7518 89.418 79.4241 89.418Z" fill="#FEFEFE"/>
<path d="M82.7874 98.5831C82.7087 98.7347 82.5907 98.9514 82.4726 99.1681C72.5177 116.588 62.5823 133.986 52.6274 151.406C51.0535 154.18 49.4599 156.953 47.8663 159.705C47.5318 160.29 47.2171 160.896 46.6859 161.265C46.4498 161.416 46.0957 161.98 45.9186 161.481C45.7415 161.005 45.0333 160.42 45.8399 159.813C47.04 158.903 47.4728 157.625 47.2171 156.065C47.1384 155.631 47.04 155.155 46.7449 154.895C45.8792 154.158 46.2924 153.508 46.7252 152.771C57.0737 134.745 67.4221 116.718 77.7509 98.6914C78.0657 98.1497 78.3215 97.8464 78.951 98.0847C79.7773 98.4097 80.5643 98.1281 81.3119 97.6947C81.7447 97.4347 82.7481 97.9764 82.7874 98.5831Z" fill="#FEFEFE"/>
<path d="M64.1567 231.855C64.137 235.322 64.1173 238.788 64.137 242.233C64.137 243.1 63.9206 243.317 63.1533 243.317C60.3399 243.274 57.5266 243.274 54.6935 243.317C53.9852 243.317 53.7295 243.144 53.7295 242.299C53.7492 235.799 53.7492 229.32 53.7295 222.82C53.7295 222.105 53.9066 221.91 54.5558 221.91C56.6806 221.953 58.8054 221.932 60.9498 221.932C62.0909 225.203 63.1926 228.497 64.1567 231.855Z" fill="#FEFEFE"/>
<path d="M61.7366 221.499C60.4774 218.14 59.4741 214.695 58.3723 211.294C53.2374 195.412 48.1222 179.552 42.9873 163.67C42.9086 163.41 42.83 163.15 42.7119 162.804C43.5972 162.934 44.3842 163.129 45.2105 162.912C45.722 162.76 45.6827 163.345 45.7614 163.605C47.4336 168.719 49.0666 173.832 50.7192 178.945C55.0671 192.422 59.415 205.899 63.7433 219.375C63.9007 219.852 64.0187 220.329 64.1368 220.805C64.2745 221.282 64.1761 221.694 63.6646 221.737C63.035 221.802 62.3465 221.954 61.7366 221.499Z" fill="#FEFEFE"/>
<path d="M64.6685 222.148C66.2818 227.132 67.8754 232.115 69.4887 237.077C68.8788 237.727 67.777 237.813 66.754 237.25C66.0064 234.867 65.2587 232.483 64.5111 230.122C63.9996 227.695 64.2947 225.225 64.275 222.777C64.275 222.517 64.3144 222.213 64.6685 222.148Z" fill="#FDFDFD"/>
<path d="M110.45 237.9C100.79 237.9 91.1495 237.879 81.4896 237.879C77.85 237.879 74.23 237.9 70.5903 237.922C70.4132 237.749 70.3936 237.554 70.3936 237.315C81.1552 237.315 91.8971 237.337 102.659 237.337C105.275 237.337 107.892 237.359 110.509 237.359C110.509 237.532 110.489 237.727 110.45 237.9Z" fill="#5881AE"/>
<path d="M63.9595 228.649C63.2709 226.482 62.5626 224.294 61.874 222.127C62.2872 221.737 63.6447 221.542 64.0382 221.824C64.2153 221.954 64.294 222.149 64.294 222.365C64.3136 224.315 64.3333 226.244 64.294 228.194C64.294 228.41 64.1956 228.605 63.9595 228.649Z" fill="#FDFDFD"/>
<path d="M63.9595 228.648C64.3136 227.543 64.0382 226.373 64.1169 225.246C64.1562 224.748 64.1169 224.25 64.1169 223.73C64.1169 221.758 63.6644 221.433 61.874 222.126C61.6576 221.953 61.7757 221.715 61.7363 221.498C62.3265 221.476 62.9168 221.433 63.507 221.476C63.9988 221.52 64.1366 221.26 64.1562 220.805C64.4317 221.216 64.53 221.693 64.6481 222.17C64.3726 224.011 64.589 225.853 64.53 227.695C64.5104 228.518 64.5104 229.32 64.4907 230.143C64.3333 229.645 64.1366 229.146 63.9595 228.648Z" fill="#5881AE"/>
<path d="M65.9271 237.294C64.5499 237.402 64.5105 237.402 64.5499 235.907C64.5696 235.062 64.3532 234.217 64.6876 233.394C65.1008 234.694 65.5139 235.994 65.9271 237.294Z" fill="#F3F5F7"/>
<path d="M66.7539 237.272C67.6589 237.272 68.6033 237.597 69.4887 237.099C69.7248 237.315 69.6658 237.662 69.7838 237.944C68.8591 237.944 67.9541 237.944 67.0293 237.944C66.8129 237.77 66.8326 237.489 66.7539 237.272Z" fill="#5881AC"/>
<path d="M219.463 123.868C219.443 124.735 218.892 124.865 218.263 124.93C216.413 119.167 214.584 113.382 212.734 107.618C213.797 106.557 215.154 106.297 216.472 105.95C217.023 105.798 217.22 106.448 217.358 106.925C217.909 108.767 218.558 110.565 219.109 112.428C219.699 114.4 220.289 116.393 220.919 118.365C221.115 118.972 221.155 119.47 220.565 119.838C219.423 120.575 219.069 121.658 219.502 123.067C219.581 123.327 219.66 123.608 219.463 123.868Z" fill="black"/>
<path d="M219.462 123.869C219.384 123.565 219.305 123.24 219.226 122.937C218.793 121.377 219.148 120.25 220.466 119.514C220.918 119.254 220.899 119.059 220.781 118.625C219.521 114.639 218.302 110.63 217.062 106.622C216.944 106.21 216.826 105.929 216.315 106.167C215.134 106.687 213.934 107.12 212.754 107.597C212.026 107.749 211.534 108.225 211.16 108.897C210.963 109.092 210.766 109.07 210.57 108.897C210.216 106.514 209.645 104.174 209.035 101.812C210.058 102.332 210.944 102.917 212.006 103.069C213.934 103.329 215.705 102.722 217.416 101.942C218.006 101.66 218.321 101.639 218.577 102.375C218.892 103.242 219.305 104.065 219.679 104.91C219.03 105.3 217.967 105.17 217.731 105.885C217.534 106.492 218.066 107.359 218.282 108.117C219.325 111.475 220.387 114.834 221.41 118.192C221.587 118.755 221.705 119.059 222.374 118.864C223.614 118.539 224.617 119.189 225.109 120.51C225.306 121.03 225.443 121.594 225.62 122.135C224.951 122.569 224.873 121.832 224.578 121.507C224.519 121.485 224.46 121.442 224.42 121.377C223.318 119.622 223.004 119.535 221.154 120.445C220.289 120.879 219.994 121.464 220.151 122.504C220.21 122.959 220.505 123.37 220.289 123.847C220.033 124.237 219.757 124.41 219.462 123.869Z" fill="#FEFEFE"/>
<path d="M210.55 108.918C210.747 108.918 210.943 108.918 211.14 108.918C211.947 112.276 212.773 115.656 213.58 119.015C213.619 119.188 213.698 119.361 213.717 119.535C213.757 119.816 213.835 120.163 213.501 120.25C213.166 120.336 213.048 120.011 212.989 119.73C212.714 118.581 212.439 117.433 212.163 116.285C211.593 113.966 211.002 111.648 210.412 109.33C210.451 109.221 210.51 109.07 210.55 108.918Z" fill="#020304"/>
<path d="M203.939 98.2588C204.53 98.9955 205.238 99.5371 206.084 99.8405C206.222 100.837 206.32 101.834 206.517 102.809C206.615 103.307 206.536 103.545 206.084 103.675C205.612 103.805 205.258 103.74 205.12 103.134C204.726 101.509 204.333 99.8838 203.939 98.2588Z" fill="#FEFCFC"/>
<path d="M212.223 90.177C213.639 90.1553 214.859 91.4987 214.859 93.037C214.859 94.5537 213.698 95.8537 212.321 95.897C210.885 95.9403 209.685 94.662 209.645 93.0803C209.606 91.542 210.806 90.1987 212.223 90.177Z" fill="#FC9993"/>
<path d="M204.963 94.1417C206.104 93.1884 207.107 93.0584 208.111 93.7301C208.996 94.3151 209.527 95.5067 209.35 96.59C209.153 97.8684 208.465 98.6484 207.225 98.93C206.635 98.475 206.36 97.8467 206.34 97.0667C206.379 96.9367 206.458 96.8284 206.556 96.7201C206.714 96.5467 206.93 96.3734 206.753 96.0917C206.616 95.8751 206.419 95.9184 206.222 95.9617C206.104 95.9834 205.966 96.0267 205.829 95.9834C205.337 95.4851 205.238 94.7701 204.963 94.1417Z" fill="#FC9993"/>
<path d="M206.438 97.0016C206.576 97.7166 206.989 98.2799 207.245 98.9299C205.966 99.1033 205.061 98.6483 204.53 97.5866C203.959 96.4383 204.097 95.3333 204.963 94.1416C205.592 94.5533 205.573 95.3549 205.927 95.9399C206.143 96.2649 206.36 96.5899 206.438 97.0016Z" fill="#FDFDFD"/>
<path d="M200.201 267.41C195.243 267.41 191.171 262.968 191.171 257.53C191.151 252.027 195.224 247.585 200.26 247.607C205.258 247.628 209.232 252.048 209.232 257.53C209.212 263.011 205.198 267.388 200.201 267.41Z" fill="#FEFEFE"/>
<path d="M202.504 240.716C202.504 242.623 202.484 244.53 202.523 246.436C202.543 247.108 202.346 247.368 201.736 247.195C200.733 246.935 199.71 246.956 198.726 247.195C198.077 247.346 197.959 247.043 197.959 246.393C197.979 242.601 197.979 238.831 197.959 235.04C197.959 234.368 198.156 234.151 198.746 234.173C199.749 234.216 200.772 234.216 201.795 234.173C202.445 234.13 202.563 234.433 202.543 235.061C202.484 236.968 202.504 238.853 202.504 240.716Z" fill="#FEFEFE"/>
<path d="M76.4724 268.905C75.0362 268.905 73.6 268.927 72.1441 268.905C71.8687 268.905 71.3965 269.122 71.3965 268.537C71.3965 268.038 71.8293 268.19 72.0851 268.19C75.0362 268.19 77.9676 268.19 80.9187 268.19C81.1744 268.19 81.6073 268.038 81.6269 268.515C81.6466 269.122 81.1548 268.883 80.899 268.883C79.4235 268.905 77.9479 268.905 76.4724 268.905Z" fill="#F2F3F6"/>
<path d="M216.492 150.952C216.02 150.908 215.686 150.778 216.138 150.193C218.086 149.478 220.014 148.742 221.962 148.027C222.257 147.918 222.63 147.615 222.788 148.113C222.945 148.59 222.512 148.655 222.217 148.785C220.309 149.5 218.401 150.237 216.492 150.952Z" fill="#050303"/>
<path d="M220.19 142.307C220.269 141.332 221.135 141.592 221.587 141.202C223.122 140.638 224.656 140.053 226.211 139.512C226.486 139.403 226.899 139.122 227.076 139.598C227.293 140.183 226.742 140.205 226.447 140.313C224.676 141.007 222.886 141.657 221.095 142.328C220.8 142.415 220.505 142.653 220.19 142.307Z" fill="#050303"/>
<path d="M215.685 148.352C215.469 148.373 215.233 148.46 215.154 148.135C215.036 147.658 215.469 147.745 215.646 147.55C217.495 146.857 219.325 146.163 221.174 145.47C221.469 145.362 221.823 145.058 222 145.578C222.158 146.077 221.705 146.12 221.41 146.228C219.502 146.943 217.593 147.658 215.685 148.352Z" fill="#050303"/>
<path d="M139.212 76.2662C139.193 75.3129 139.33 74.3595 139.075 73.4279C139.055 72.8429 139.035 72.2579 139.016 71.6512C139.016 71.4345 139.016 71.2179 139.016 71.0229C139.685 67.5345 141.239 66.0179 144.465 65.5845C148.125 65.0862 151.784 64.5012 155.443 63.9812C155.738 63.9379 156.014 63.9162 156.368 63.8945C156.289 64.2195 156.211 64.4362 156.152 64.6745C155.975 65.4545 155.561 66.0829 156.466 66.9279C157.627 68.0112 157.273 69.3545 155.935 70.2429C153.909 69.5062 151.843 68.7912 149.836 67.9895C149.187 67.7295 148.853 67.8812 148.42 68.4229C145.882 71.5862 142.95 74.2729 139.724 76.5695C139.389 76.7645 139.193 76.8729 139.212 76.2662Z" fill="black"/>
<path d="M127.212 47.4284C126.189 49.3568 125.185 51.2634 124.143 53.1701C123.985 53.4518 123.887 54.1018 123.415 53.8201C122.883 53.4951 123.356 53.0618 123.513 52.7368C124.477 50.8301 125.461 48.9234 126.444 47.0168C126.897 46.7351 127.172 46.8001 127.212 47.4284Z" fill="#070404"/>
<path d="M128.588 57.8934C127.742 59.4967 126.897 61.1217 126.011 62.7034C125.854 63.0067 125.755 63.6133 125.283 63.3317C124.791 63.05 125.185 62.6384 125.342 62.335C126.247 60.58 127.152 58.8467 128.077 57.0917C128.254 56.7667 128.392 56.355 128.825 56.29C129.395 56.94 128.628 57.3517 128.588 57.8934Z" fill="#060404"/>
<path d="M129.257 48.3596C129.297 49.0746 128.864 49.5729 128.588 50.1146C127.821 51.6096 127.034 53.1046 126.227 54.5779C126.07 54.8812 125.952 55.4662 125.46 55.1412C125.047 54.8596 125.421 54.4912 125.559 54.2096C126.562 52.2379 127.585 50.2662 128.588 48.3162C128.824 48.2296 129.061 48.1212 129.257 48.3596Z" fill="#060404"/>
<path d="M156.683 75.2049C156.407 75.4433 156.151 75.7249 155.758 75.4216C155.502 75.2266 155.463 74.9449 155.561 74.6633C155.719 74.0999 156.132 74.1866 156.525 74.2733C156.683 74.5549 156.801 74.8583 156.683 75.2049Z" fill="#0E0A09"/>
<path d="M150.171 75.1404C150.073 75.5088 149.896 75.8121 149.502 75.7688C149.148 75.7254 148.912 75.4438 148.932 75.0538C148.951 74.6638 149.207 74.4038 149.581 74.4471C149.975 74.4688 150.132 74.7504 150.171 75.1404Z" fill="#190F0E"/>
<path d="M136.321 190.32C136.596 190.624 136.459 191.014 136.459 191.339C136.459 206.267 136.459 221.195 136.478 236.145C136.478 237.077 136.282 237.38 135.396 237.359C132.937 237.294 130.478 237.337 128.019 237.337C128.687 233.61 129.376 229.862 130.025 226.135C131.914 215.367 133.783 204.599 135.672 193.83C135.908 192.66 136.104 191.49 136.321 190.32Z" fill="#FEFEFE"/>
<path d="M143.462 130.65C143.462 132.621 143.462 134.571 143.462 136.5C143.462 137.041 143.186 137.063 142.813 137.02C142.478 136.998 142.104 136.976 142.065 137.475C142.026 137.973 142.36 138.168 142.773 138.125C143.58 138.038 143.305 138.688 143.344 139.143C143.403 139.685 143.246 139.966 142.695 139.88C142.321 139.815 141.927 139.88 141.927 140.443C141.927 140.92 142.281 141.006 142.616 140.985C143.246 140.941 143.285 141.353 143.226 141.895C143.167 142.35 143.226 142.87 142.537 142.74C142.163 142.675 141.77 142.783 141.77 143.303C141.77 143.845 142.203 143.91 142.557 143.91C143.364 143.888 143.068 144.516 143.108 144.95C143.167 145.513 142.95 145.751 142.419 145.643C142.026 145.578 141.632 145.643 141.632 146.163C141.632 146.661 142.006 146.791 142.4 146.77C142.97 146.705 143.009 147.03 142.99 147.55C142.891 149.521 142.813 151.515 142.773 153.486C142.754 154.115 142.636 154.461 142.006 154.331C141.908 154.31 141.809 154.31 141.711 154.331C140.176 154.526 139.055 154.331 138.642 152.208C138.307 150.518 136.911 149.651 135.278 149.586C134.294 149.565 133.31 149.413 132.366 149.781C130.831 150.388 129.828 151.84 129.789 153.595C129.749 155.501 129.73 157.408 129.749 159.336C129.769 161.33 130.674 162.781 132.405 163.41C133.015 163.626 133.035 163.93 132.897 164.493C131.717 169.433 130.516 174.373 129.356 179.313C129.198 179.963 128.982 180.245 128.313 180.223C119.401 180.201 110.488 180.201 101.576 180.223C100.75 180.223 100.632 179.92 100.632 179.118C100.652 164.796 100.652 150.475 100.652 136.153C100.652 127.573 100.671 118.971 100.632 110.391C100.632 109.503 100.829 109.265 101.655 109.265C115.623 109.286 129.572 109.286 143.541 109.265C144.347 109.265 144.642 109.416 144.544 110.37C144.406 111.583 144.406 112.818 144.387 114.031C144.387 114.551 144.229 114.725 143.757 114.66C139.98 114.183 136.202 113.728 132.445 113.273C132.09 113.23 131.736 113.186 131.362 113.165C130.949 113.121 130.635 113.273 130.615 113.771C130.595 114.291 130.93 114.421 131.323 114.465C133.153 114.681 134.963 114.898 136.792 115.115C139.075 115.396 141.337 115.7 143.619 115.938C144.19 116.003 144.328 116.22 144.269 116.805C144.19 117.671 144.151 118.538 144.19 119.405C144.229 120.228 143.934 120.315 143.265 120.25C139.311 119.838 135.376 119.513 131.421 119.145C130.989 119.101 130.595 119.145 130.536 119.73C130.477 120.315 130.91 120.423 131.323 120.466C134.058 120.726 136.812 120.965 139.547 121.225C140.845 121.355 142.163 121.506 143.462 121.593C143.914 121.636 144.052 121.788 144.052 122.308C144.091 125.168 144.091 125.168 141.495 125.146C138.15 125.146 134.805 125.125 131.461 125.103C131.067 125.103 130.595 125.038 130.497 125.58C130.359 126.381 130.91 126.403 131.441 126.403C135.219 126.425 138.976 126.468 142.754 126.446C143.619 126.446 143.914 126.62 143.895 127.66C143.875 128.765 143.56 129.241 142.596 129.566C139.37 130.628 136.183 131.798 132.976 132.946C132.7 133.055 132.405 133.141 132.169 133.315C131.913 133.488 131.894 133.791 132.012 134.095C132.189 134.528 132.543 134.485 132.858 134.398C133.763 134.095 134.668 133.748 135.553 133.423C138.189 132.513 140.885 131.56 143.462 130.65Z" fill="#202B6D"/>
<path d="M181.138 144.776C181.138 156.216 181.118 167.656 181.158 179.096C181.158 180.071 180.922 180.266 180.076 180.266C170.927 180.223 161.799 180.223 152.65 180.266C151.785 180.266 151.568 180.05 151.568 179.096C151.627 174.33 151.608 169.563 151.588 164.818C151.588 164.211 151.647 163.908 152.316 163.778C154.323 163.41 155.523 161.785 155.562 159.553C155.601 157.711 155.601 155.87 155.582 154.028C155.562 151.601 154.067 149.89 151.863 149.716C151.529 149.695 151.214 149.673 150.88 149.673C148.499 149.586 147.161 150.605 146.374 153.096C146.02 154.245 145.076 154.721 144.072 154.331C143.758 154.201 143.797 153.985 143.817 153.746C143.895 151.666 143.994 149.565 144.072 147.485C144.092 147.051 144.19 146.813 144.663 146.9C144.997 146.943 145.351 146.878 145.371 146.38C145.391 145.925 145.095 145.73 144.722 145.773C144.013 145.838 144.151 145.34 144.151 144.885C144.151 144.386 144.151 143.931 144.82 144.04C145.154 144.105 145.509 144.04 145.528 143.52C145.528 143.043 145.233 142.913 144.859 142.935C144.053 142.978 144.348 142.328 144.309 141.895C144.249 141.331 144.466 141.115 144.977 141.201C145.351 141.266 145.666 141.115 145.686 140.681C145.705 140.226 145.391 140.075 145.017 140.075C144.407 140.096 144.348 139.728 144.368 139.186C144.387 138.601 144.446 138.19 145.135 138.341C145.509 138.428 145.804 138.19 145.804 137.756C145.804 137.366 145.528 137.15 145.214 137.193C144.427 137.28 144.505 136.738 144.525 136.175C144.604 134.528 144.682 132.86 144.702 131.191C144.702 130.433 144.84 130.281 145.528 130.541C148.991 131.863 152.473 133.12 155.936 134.398C156.152 134.485 156.369 134.571 156.585 134.636C156.998 134.788 157.313 134.636 157.451 134.203C157.588 133.77 157.333 133.531 156.979 133.401C156.014 133.033 155.07 132.686 154.106 132.318C151.253 131.256 148.42 130.195 145.568 129.155C144.918 128.916 144.505 127.226 144.958 126.685C145.174 126.446 145.45 126.598 145.705 126.598C149.66 126.62 153.634 126.663 157.588 126.685C157.844 126.685 158.12 126.685 158.375 126.685C158.788 126.663 159.064 126.425 159.044 125.948C159.025 125.493 158.71 125.385 158.336 125.385C157.116 125.385 155.916 125.363 154.696 125.363C151.686 125.341 148.676 125.276 145.666 125.298C145.056 125.298 144.899 125.125 144.918 124.453C144.977 121.831 144.958 121.81 147.26 121.615C150.525 121.355 153.791 121.116 157.057 120.878C157.451 120.856 157.844 120.791 158.238 120.77C158.69 120.726 159.143 120.661 159.064 120.011C159.005 119.448 158.572 119.426 158.159 119.47C155.188 119.708 152.217 119.946 149.247 120.185C148.066 120.271 146.886 120.358 145.725 120.466C145.253 120.51 145.036 120.38 145.135 119.838C145.155 119.773 145.135 119.686 145.135 119.621C145.214 118.516 144.938 117.108 145.45 116.371C145.922 115.7 147.279 116.003 148.243 115.895C151.608 115.548 154.952 115.18 158.316 114.833C158.729 114.79 159.162 114.703 159.143 114.14C159.123 113.49 158.651 113.49 158.198 113.533C154.283 113.945 150.368 114.335 146.473 114.768C145.292 114.898 145.292 114.941 145.371 113.598C145.43 112.406 145.489 111.215 145.509 110.023C145.509 109.568 145.627 109.351 146.079 109.395C146.237 109.416 146.414 109.395 146.571 109.395C157.746 109.395 168.921 109.416 180.095 109.373C180.941 109.373 181.177 109.59 181.158 110.543C181.118 121.918 181.138 133.336 181.138 144.776Z" fill="#202B6D"/>
<path d="M140.354 180.245C137.304 180.245 134.255 180.223 131.205 180.267C130.477 180.267 130.34 180.115 130.536 179.313C131.756 174.373 132.936 169.433 134.078 164.493C134.235 163.822 134.51 163.67 135.081 163.67C139.921 163.757 144.78 163.8 149.62 163.822C150.289 163.822 150.407 164.082 150.407 164.753C150.387 169.628 150.387 174.482 150.407 179.357C150.407 180.115 150.171 180.245 149.561 180.245C146.512 180.223 143.442 180.245 140.354 180.245Z" fill="#202B6D"/>
<path d="M134.156 153.703C135.179 153.703 135.927 154.548 135.947 155.675C135.947 156.801 135.199 157.646 134.176 157.668C133.113 157.69 132.307 156.78 132.327 155.631C132.346 154.505 133.113 153.703 134.156 153.703Z" fill="#212C6D"/>
<path d="M150.978 153.833C151.962 153.812 152.788 154.678 152.827 155.783C152.847 156.91 152.099 157.798 151.116 157.842C150.073 157.885 149.227 156.997 149.227 155.848C149.188 154.722 149.955 153.855 150.978 153.833Z" fill="#212C6D"/>
<path d="M220.289 123.846C220.171 123.435 220.014 123.045 219.915 122.633C219.6 121.441 219.994 120.596 221.037 120.163C221.312 120.055 221.587 119.946 221.863 119.838C223.417 119.253 224.125 119.686 224.578 121.485C224.401 122.2 223.752 121.918 223.358 122.178C222.374 122.806 221.312 123.305 220.289 123.846Z" fill="#010101"/>
<path d="M212.852 93.0365C212.813 93.4915 212.576 93.7515 212.222 93.7299C211.848 93.7082 211.612 93.4049 211.652 92.9932C211.671 92.6465 211.888 92.4082 212.242 92.4082C212.616 92.4082 212.813 92.6465 212.852 93.0365Z" fill="#110A0A"/>
<path d="M206.438 97.002C206.084 96.7637 205.828 96.4603 205.907 95.9403C206.261 95.572 206.694 95.2904 207.009 95.8754C207.382 96.5253 206.95 96.8287 206.438 97.002Z" fill="#1A1312"/>
<path d="M200.182 261.972C197.959 261.972 196.09 259.935 196.09 257.508C196.09 255.082 197.939 253.045 200.162 253.045C202.464 253.045 204.314 255.06 204.294 257.552C204.274 259.978 202.425 261.972 200.182 261.972Z" fill="#5D85B1"/>
<path d="M200.182 253.522C202.169 253.5 203.802 255.298 203.802 257.487C203.802 259.675 202.209 261.473 200.202 261.495C198.215 261.517 196.602 259.74 196.582 257.508C196.602 255.277 198.156 253.522 200.182 253.522Z" fill="#FEFEFE"/>
</svg>
