<svg width="654" height="586" viewBox="0 0 654 586" fill="none" xmlns="http://www.w3.org/2000/svg">
<path d="M248.568 558.903C213.963 569.442 178.964 574.186 141.519 567.72C99.7831 560.509 63.3357 529.047 42.6095 497.774C34.9086 486.158 28.7414 473.195 29.4002 459.883C30.9353 429.13 64.0944 425.912 92.3187 431.074C108.229 433.978 122.875 440.444 137.355 446.848C161.394 457.488 189.524 462.827 211.127 477.498C218.376 482.434 223.842 488.344 232.244 491.956C245.315 497.579 260.199 500.292 273.617 505.42C285.075 509.819 297.903 517.017 298.027 527.902C298.138 539.066 284.906 546.093 273.262 550.46C265.021 553.571 256.812 556.404 248.568 558.903Z" fill="url(#paint0_linear)"/>
<path d="M120.492 162.152C176.579 89.1188 293.754 60.4213 389.236 88.6519C435.278 102.272 474.027 130.254 509.798 159.273C541.329 184.849 571.945 212.412 593.627 245.167C608.432 267.524 619.133 294.278 626.75 319.239C638.137 356.614 628.597 404.609 573.575 400.724C560.665 399.814 549.464 395.671 537.363 392.033C527.575 389.083 518.027 390.75 507.88 389.274C482.339 385.563 457.687 377.166 434.357 367.367C386.812 347.379 343.283 320.362 294.416 302.799C254.37 288.425 211.68 280.857 168.648 280.505C150.495 280.359 131.418 281.347 115.109 274.121C74.913 256.296 92.4483 209.065 107.135 182.528C111.026 175.459 115.489 168.65 120.492 162.152Z" fill="url(#paint1_linear)"/>
<path d="M568.005 175.681C577.413 183.145 614.29 203.596 614.764 179.886C614.873 173.979 611.756 168.222 607.548 163.868C602.734 158.871 597.305 156.23 593.527 150.42C588.905 143.404 583.657 136.804 577.852 130.706C565.982 118.014 552.153 106.269 535.462 100.966C523.754 97.2507 504.003 98.035 498.587 111.094C490.697 130.105 525.267 133.826 535.868 140.843C545.928 147.485 551.7 158.822 559.706 167.855C562.236 170.703 565.014 173.323 568.005 175.681Z" fill="url(#paint2_linear)"/>
<path d="M391.62 151.205C411.513 161.551 426.51 176.939 444.676 189.373C474.921 210.071 516.142 214.537 550.735 229.02C586.009 243.798 612.757 266.578 625.071 299.236C640.976 341.391 642.939 391.409 630.198 434.554C616.166 482.046 582.429 513.431 532.857 534.183C483.313 554.922 428.297 564.389 373.349 566.053C368.047 566.218 362.753 566.291 357.436 566.285C238.03 566.103 78.7246 528.206 36.9691 415.488C36.5864 414.458 36.2192 413.428 35.8508 412.384C31.539 399.828 28.9494 386.889 28.1373 373.843C25.1277 327.593 33.859 276.624 51.9256 233.405C64.0767 204.308 90.6158 179.813 118.663 162.42C158.07 137.986 206.384 132.003 254.504 129.359C290.137 127.402 330.229 126.866 364.062 139.044C373.57 142.493 382.782 146.558 391.62 151.205Z" fill="url(#paint3_linear)"/>
<path d="M399.56 554.465C264.314 593.163 151.609 555.847 112.162 532.352L75.5332 504.711L88.2125 483.98L167.106 477.069L298.125 470.159L403.786 490.89L513.673 454.956H524.944C508.038 511.345 434.31 544.791 399.56 554.465Z" fill="#3B499A"/>
<path d="M160.032 479.7H526.726C526.726 479.7 539.565 297.504 492.848 270.844C446.137 244.189 227.68 249.756 179.262 272.523C130.844 295.296 160.032 479.7 160.032 479.7Z" fill="#3B499A"/>
<path d="M221.085 232.455C220.55 232.455 220.015 232.306 219.575 231.987C218.562 231.277 195.051 214.175 207.922 179.707C212.414 167.654 216.816 159.12 220.703 151.582C227.706 138.015 232.765 128.214 233.72 107.264C233.778 106.124 234.804 105.27 236.205 105.276C237.524 105.325 238.55 106.284 238.499 107.423C237.499 129.172 232.019 139.804 225.074 153.261C221.232 160.705 216.887 169.135 212.458 180.973C200.588 212.787 222.373 228.639 222.596 228.794C223.615 229.515 223.774 230.814 222.933 231.695C222.462 232.196 221.774 232.455 221.085 232.455Z" fill="#000C3E"/>
<path d="M351.248 26.8886C350.63 41.1934 336.708 52.3487 320.155 51.8146C303.608 51.2805 290.692 39.2497 291.31 24.9504C291.935 10.6456 305.85 -0.51521 322.404 0.0188782C338.951 0.558475 351.866 12.5838 351.248 26.8886Z" fill="#000C3E"/>
<path d="M218.399 222.389C218.399 222.389 227.198 238.07 263.121 243.581C299.051 249.098 327.246 237.866 354.981 246.56C382.717 255.249 422.788 243.923 430.734 233.852C438.673 223.782 437.01 112.256 415.142 93.5518C393.268 74.8532 278.681 59.2435 253.851 81.1246C229.02 103.011 202.648 209.829 218.399 222.389Z" fill="#000C3E"/>
<path d="M425.829 134.4C423.784 181.532 377.914 218.313 323.373 216.545C268.832 214.778 226.27 175.14 228.315 128.002C230.36 80.8702 276.23 44.0952 330.771 45.8626C385.312 47.6246 427.874 87.2683 425.829 134.4Z" fill="#000C3E"/>
<path d="M367.609 205.807C367.609 205.807 374.025 272.315 367.609 279.704C361.193 287.094 320.573 281.554 309.888 279.704C299.197 277.86 294.921 205.807 301.331 205.807C307.747 205.807 366.379 190.979 367.609 205.807Z" fill="#FFCEB0"/>
<path d="M246.382 128C246.382 128 250.447 231.663 331.545 236.14C412.649 240.611 412.567 94.5566 383.219 80.6648C353.865 66.773 231.389 69.3774 246.382 128Z" fill="#FFCEB0"/>
<path d="M329.653 150.19C329.653 150.19 345.142 182.098 341.153 184.212C337.171 186.326 325.505 185.947 322.364 183.601C319.222 181.255 323.319 146.622 329.653 150.19Z" fill="#EE9B68"/>
<path d="M305.366 171.497C305.162 175.131 301.587 177.928 297.382 177.752C293.183 177.576 289.94 174.487 290.144 170.853C290.348 167.224 293.922 164.422 298.128 164.598C302.326 164.774 305.57 167.863 305.366 171.497Z" fill="#41294A"/>
<path d="M370.788 168.396C370.584 172.03 367.009 174.827 362.804 174.651C358.605 174.475 355.362 171.386 355.566 167.752C355.77 164.124 359.344 161.321 363.549 161.497C367.748 161.673 370.992 164.762 370.788 168.396Z" fill="#41294A"/>
<path d="M310.241 72.7168C310.241 72.7168 281.161 84.8687 275.631 107.68C270.094 130.498 272.961 188.911 242.148 186.23C242.148 186.23 182.49 70.6245 310.241 72.7168Z" fill="#000C3E"/>
<path d="M325.569 73.2131C322.931 74.8484 355.554 74.7768 374.203 94.3179C392.859 113.853 397.288 162.687 400.168 163.59C403.054 164.498 414.574 103.084 394.121 84.6327C373.674 66.1819 340.58 63.9244 325.569 73.2131Z" fill="#000C3E"/>
<path d="M302.459 226.686C302.459 226.686 334.012 242.191 366.775 227.699C366.775 227.699 369.323 245.104 366.775 249.118C364.226 253.132 312.336 256 302.122 236.217C302.122 236.217 299.509 225.827 302.459 226.686Z" fill="#EE9B68"/>
<path d="M393.175 167.756C393.175 167.756 400.942 141.806 414.481 151.04C428.027 160.279 415.775 187.396 402.388 189.857C389.001 192.319 385.777 181.136 393.175 167.756Z" fill="#FFCEB0"/>
<path d="M265.263 163.613C265.263 163.613 259.764 137.233 245.46 145.569C231.155 153.9 241.025 181.739 254.163 185.059C267.302 188.374 271.475 177.433 265.263 163.613Z" fill="#FFCEB0"/>
<path d="M360.132 134.317C360.132 134.317 374.647 128.073 383.223 137.648C390.767 146.061 373.22 139.008 366.657 139.944C360.1 140.88 351.492 140.236 360.132 134.317Z" fill="#41294A"/>
<path d="M303.091 135.525C303.091 135.525 288.551 129.325 280.013 138.928C272.507 147.363 290.023 140.255 296.586 141.169C303.149 142.088 311.757 141.416 303.091 135.525Z" fill="#41294A"/>
<path d="M297.113 146.104C284.587 146.104 274.405 154.588 273.927 165.424C273.698 170.776 275.896 175.891 280.114 179.823C284.332 183.748 290.066 186.022 296.266 186.221L297.158 186.237C309.691 186.237 319.873 177.752 320.344 166.922C320.58 161.57 318.382 156.449 314.164 152.524C309.946 148.592 304.205 146.318 298.005 146.12L297.113 146.104ZM297.158 188.99L296.145 188.974C289.098 188.748 282.573 186.16 277.776 181.695C272.978 177.224 270.48 171.409 270.741 165.314C271.283 153.003 282.866 143.351 297.113 143.351L298.127 143.367C305.174 143.593 311.698 146.181 316.496 150.646C321.294 155.123 323.791 160.931 323.53 167.032C322.995 179.344 311.411 188.99 297.158 188.99Z" fill="#FFFCF6"/>
<path d="M363.01 142.906C350.483 142.906 340.301 151.391 339.823 162.227C339.346 173.283 349.368 182.616 362.162 183.023L363.054 183.04C375.581 183.04 385.763 174.555 386.241 163.719C386.47 158.367 384.272 153.252 380.054 149.321C375.836 145.395 370.101 143.121 363.902 142.923L363.01 142.906ZM363.054 185.793L362.041 185.776C347.489 185.308 336.096 174.693 336.638 162.117C337.179 149.805 348.763 140.153 363.01 140.153L364.023 140.17C371.07 140.396 377.594 142.983 382.392 147.449C387.19 151.92 389.688 157.734 389.427 163.829C388.885 176.141 377.301 185.793 363.054 185.793Z" fill="#FFFCF6"/>
<path d="M273.116 162.172C272.924 162.172 272.721 162.139 272.529 162.073L262.876 158.78C262.054 158.499 261.653 157.701 261.978 156.996C262.303 156.286 263.214 155.944 264.042 156.22L273.702 159.518C274.524 159.793 274.919 160.597 274.594 161.302C274.345 161.842 273.753 162.172 273.116 162.172Z" fill="#FFFCF6"/>
<path d="M386.919 158.53C386.231 158.53 385.587 158.139 385.39 157.528C385.148 156.801 385.638 156.042 386.486 155.832L399.904 152.512C400.765 152.308 401.638 152.727 401.873 153.459C402.115 154.192 401.625 154.951 400.777 155.161L387.352 158.475C387.212 158.514 387.059 158.53 386.919 158.53Z" fill="#FFFCF6"/>
<path d="M320.079 67.2752C320.079 67.2752 323.737 123.465 341.66 128.563C359.583 133.667 403.65 132.269 405.778 126.124C407.906 119.974 371.607 70.5183 345.559 62.5895C299.881 48.6812 260.454 112.86 265.666 128.321C270.878 143.788 310.127 130.254 318.499 128.266C326.878 126.278 318.404 78.3809 320.079 67.2752Z" fill="#000C3E"/>
<path d="M321.947 167.146C321.119 167.146 320.424 166.595 320.361 165.879C320.291 165.119 320.947 164.459 321.82 164.398L338.169 163.297C339.125 163.165 339.82 163.809 339.877 164.558C339.947 165.318 339.297 165.978 338.418 166.039L322.075 167.14C322.03 167.146 321.985 167.146 321.947 167.146Z" fill="#FFFCF6"/>
<path d="M302.549 51.8516C302.173 51.8516 301.803 51.7745 301.453 51.6203C292.686 47.711 287.454 42.26 285.913 35.4215C282.529 20.412 298.305 4.32334 298.981 3.6461C299.847 2.77063 301.345 2.67153 302.351 3.42586C303.352 4.16917 303.466 5.4686 302.606 6.33305C302.453 6.48722 287.658 21.6013 290.608 34.6397C291.857 40.1732 296.247 44.6496 303.645 47.9533C304.817 48.4764 305.276 49.7207 304.671 50.7338C304.25 51.4441 303.415 51.8516 302.549 51.8516Z" fill="#000C3E"/>
<path d="M337.13 56.4639C336.455 56.4639 335.773 56.2106 335.302 55.7205C334.454 54.8506 334.588 53.5512 335.601 52.8188C335.773 52.6867 353.25 39.874 352.817 26.5934C352.639 20.9607 349.16 15.9226 342.489 11.6168C341.431 10.9341 341.214 9.64016 342.004 8.72615C342.801 7.80663 344.286 7.63044 345.35 8.30769C353.25 13.4118 357.379 19.5291 357.596 26.4943C358.08 41.7792 339.456 55.4122 338.659 55.9848C338.213 56.3097 337.672 56.4639 337.13 56.4639Z" fill="#41294A"/>
<path d="M422.774 230.713C422.06 230.713 421.353 230.438 420.882 229.915C420.072 229.012 420.257 227.718 421.302 227.018C422.124 226.462 441.468 213.127 436.409 190.662C434.428 181.863 430.796 172.123 426.941 161.81C420.232 143.844 413.293 125.261 413.172 107.322C413.166 106.182 414.23 105.252 415.549 105.246H415.561C416.874 105.246 417.944 106.166 417.951 107.3C418.065 124.6 424.889 142.875 431.484 160.544C435.383 170.978 439.066 180.828 441.099 189.874C446.731 214.883 425.151 229.667 424.233 230.283C423.793 230.575 423.284 230.713 422.774 230.713Z" fill="#000C3E"/>
<path d="M430.74 136.534C430.644 136.534 430.548 136.529 430.446 136.518C429.14 136.38 428.21 135.35 428.369 134.216C431.593 111.531 426.592 92.9702 413.492 79.0509C392.389 56.6246 357.026 53.8331 356.669 53.8166C355.357 53.7174 354.382 52.7209 354.484 51.5811C354.599 50.4523 355.777 49.5989 357.064 49.698C358.594 49.8026 394.759 52.6272 417.168 76.4135C431.135 91.2358 436.5 110.859 433.11 134.723C432.963 135.763 431.931 136.534 430.74 136.534Z" fill="#000C3E"/>
<path d="M333.759 216.103C331.07 216.103 328.216 216.025 326.075 215.959C324.756 215.91 323.73 214.952 323.781 213.812C323.826 212.672 324.839 211.753 326.26 211.83C331.758 212.017 338.423 212.039 339.634 211.736C340.876 211.433 342.221 212.012 342.622 213.074C343.017 214.131 342.431 215.255 341.227 215.629C340.067 215.987 337.04 216.103 333.759 216.103Z" fill="#EE9B68"/>
<path d="M257.007 178.609C256.778 178.609 256.542 178.582 256.313 178.516C255.045 178.185 254.337 177.035 254.726 175.944C259.072 163.605 248.667 155.412 248.565 155.33C247.584 154.575 247.494 153.265 248.374 152.411C249.247 151.558 250.757 151.481 251.751 152.246C252.273 152.648 264.526 162.311 259.288 177.145C258.982 178.037 258.033 178.609 257.007 178.609Z" fill="#EE9B68"/>
<path d="M398.687 184.659C398.617 184.659 398.553 184.659 398.477 184.654C397.164 184.549 396.189 183.552 396.304 182.413C397.878 166.935 406.766 158.775 407.142 158.434C408.06 157.619 409.557 157.597 410.513 158.379C411.469 159.161 411.5 160.466 410.596 161.291C410.513 161.369 402.485 168.829 401.07 182.776C400.955 183.85 399.91 184.659 398.687 184.659Z" fill="#EE9B68"/>
<path d="M259.465 276.781C259.465 276.781 313.72 332.833 355.562 317.834C397.398 302.836 436.596 262.179 415.564 256.783C394.531 251.393 226.575 254.228 259.465 276.781Z" fill="#FFCEB0"/>
<path d="M402.76 350.851C402.76 350.851 371.144 326.316 338.088 340.185C305.032 354.05 315.093 382.852 284.91 377.517C254.728 372.181 200.04 380.242 213.051 408.45C226.062 436.657 142.836 458.726 174.452 494.994C206.068 531.257 291.403 503.38 317.622 510.852C343.835 518.318 405.633 521.517 412.821 500.181C420.008 478.85 465.998 475.651 458.811 447.917C451.624 420.183 444.437 381.784 402.76 350.851Z" fill="white"/>
<path d="M298.32 415.382C298.32 415.382 330.599 448.875 330.516 481.113C330.465 501.64 312.981 467.045 306.979 460.041C300.984 453.043 319.907 483.194 313.638 492.847C310.573 497.571 291.031 462.695 291.031 462.695C291.031 462.695 299.327 495.462 294.039 498.645C288.757 501.833 275.121 470.321 275.121 470.321C275.121 470.321 275.758 495.919 269.476 496.238C263.2 496.558 265.456 470.25 240.256 458.858C215.05 447.466 100.239 526.313 97.5121 461.693C94.7851 397.074 128.472 374.686 206.505 386.42C268.087 395.681 277.804 401.55 298.32 415.382Z" fill="#FFC6A6"/>
<path d="M370.11 415.382C370.11 415.382 337.831 448.875 337.914 481.113C337.965 501.64 355.449 467.045 361.451 460.041C367.447 453.043 348.523 483.194 354.793 492.847C357.857 497.571 377.399 462.695 377.399 462.695C377.399 462.695 369.103 495.462 374.392 498.645C379.674 501.833 393.309 470.321 393.309 470.321C393.309 470.321 392.672 495.919 398.954 496.238C405.23 496.558 402.975 470.25 428.175 458.858C453.381 447.466 582.757 534.06 585.484 469.44C588.205 404.821 539.959 374.686 461.925 386.42C400.343 395.681 390.627 401.55 370.11 415.382Z" fill="#FFC6A6"/>
<path d="M406.038 471.703C406.038 471.703 406.726 415.012 442.579 415.381C478.433 415.756 495.477 443.446 461.733 459.777C427.988 476.113 405.089 482.77 406.038 471.703Z" fill="white"/>
<path d="M433.091 436.402C433.091 436.402 438.819 447.926 452.346 449.082C465.867 450.238 496.61 449.082 499.286 465.832C501.956 482.581 485.887 505.679 466.185 503.372C446.491 501.059 426.267 497.585 409.656 507.204C393.045 516.823 409.669 429.497 433.091 436.402Z" fill="white"/>
<path d="M467.206 346.581C467.206 354.234 460.025 360.439 451.169 360.439C442.306 360.439 435.125 354.234 435.125 346.581C435.125 338.927 442.306 332.722 451.169 332.722C460.025 332.722 467.206 338.927 467.206 346.581Z" fill="white"/>
<path d="M281.237 346.581C281.237 354.234 274.057 360.439 265.2 360.439C256.337 360.439 249.156 354.234 249.156 346.581C249.156 338.927 256.337 332.722 265.2 332.722C274.057 332.722 281.237 338.927 281.237 346.581Z" fill="white"/>
<path d="M332.271 202.745C320.025 202.745 309.251 195.427 308.754 195.075C307.715 194.37 307.549 193.071 308.371 192.179C309.187 191.292 310.691 191.138 311.723 191.849C311.85 191.931 323.963 200.119 335.75 198.362C341.434 197.498 346.219 194.387 349.978 189.112C350.672 188.137 352.157 187.829 353.266 188.435C354.394 189.035 354.738 190.307 354.049 191.276C349.538 197.608 343.651 201.363 336.553 202.431C335.113 202.646 333.686 202.745 332.271 202.745Z" fill="#EE9B68"/>
<path d="M235.434 261.038C235.434 261.038 190.126 316.193 188.804 348.606C187.483 381.019 146.932 394.689 158.425 441.389C162.956 459.778 175.687 485.839 163.48 496.121C131.678 522.908 100.977 503.497 95.6788 496.122C57.3707 442.766 103.751 316.612 144.109 288.54C174.551 261.038 235.434 261.038 235.434 261.038Z" fill="#202B6D"/>
<path d="M445.76 258.648C445.76 258.648 496.139 314.556 497.528 346.006C498.917 377.457 541.53 390.721 529.452 436.034C524.691 453.876 502.534 480.011 525.619 489.14C552.944 499.943 596.553 492.996 602.121 485.841C657.47 430.836 583.647 319.367 541.237 292.129C503.876 265.822 445.76 258.648 445.76 258.648Z" fill="#202B6D"/>
<path d="M333.609 8.71724C332.865 8.71724 332.056 8.792 331.179 8.94153C329.043 9.31209 327.659 10.2092 326.827 11.7663C323.122 18.6964 330.935 35.2027 336.517 44.9544C339.966 34.1365 344.1 16.0537 338.259 10.3555C337.134 9.26007 335.603 8.71724 333.609 8.71724ZM337.168 53.0938C336.239 53.0938 335.37 52.6614 334.911 51.9463C332.936 48.8875 315.814 21.7227 322.133 9.89393C323.653 7.0497 326.432 5.20339 330.168 4.55978C336.532 3.46434 340.188 5.49594 342.129 7.39101C352.278 17.2922 340.952 48.0814 339.628 51.5595C339.304 52.4014 338.439 52.9995 337.416 53.084C337.333 53.0905 337.25 53.0938 337.168 53.0938Z" fill="#FFD310"/>
<path d="M368.47 19.708C368.225 19.708 367.977 19.721 367.729 19.7535C358.991 20.758 348.432 36.7735 342.85 46.9055C354.454 42.683 372.859 34.6184 375.304 27.2851C375.853 25.6338 375.485 24.1743 374.15 22.6856C372.352 20.6865 370.49 19.708 368.47 19.708ZM337.888 53.2344C337.192 53.2344 336.512 52.9938 336.019 52.5453C335.308 51.9016 335.105 50.959 335.5 50.1398C337.132 46.7625 351.87 17.0718 367.044 15.323C369.952 14.9882 374.251 15.5148 378.231 19.9421C380.57 22.5425 381.278 25.5103 380.273 28.5203C376.098 41.0382 342.579 51.9016 338.772 53.1011C338.483 53.1921 338.186 53.2344 337.888 53.2344Z" fill="#FFD310"/>
<path d="M234.23 45.3418C245.261 52.3197 270.473 57.7469 290.17 45.3418" stroke="#FFD310" stroke-width="3.87"/>
<defs>
<linearGradient id="paint0_linear" x1="26.3607" y1="464.109" x2="53.9494" y2="576.179" gradientUnits="userSpaceOnUse">
<stop stop-color="#FFCECE"/>
<stop offset="1" stop-color="#FFF2F2"/>
</linearGradient>
<linearGradient id="paint1_linear" x1="97.9323" y1="94.4367" x2="528.029" y2="464.568" gradientUnits="userSpaceOnUse">
<stop stop-color="#FFDADA"/>
<stop offset="1" stop-color="white"/>
</linearGradient>
<linearGradient id="paint2_linear" x1="615.712" y1="179.476" x2="482.72" y2="115.692" gradientUnits="userSpaceOnUse">
<stop stop-color="#FFDFDF"/>
<stop offset="1" stop-color="#FFF5F5"/>
</linearGradient>
<linearGradient id="paint3_linear" x1="584.573" y1="520.012" x2="63.1504" y2="179.165" gradientUnits="userSpaceOnUse">
<stop stop-color="#FFE0E0"/>
<stop offset="1" stop-color="#FFF4F4"/>
</linearGradient>
</defs>
</svg>
