<svg width="618" height="577" viewBox="0 0 618 577" fill="none" xmlns="http://www.w3.org/2000/svg">
<path d="M258.032 549.412C227.334 559.779 196.286 564.445 163.07 558.085C126.046 550.992 93.7141 520.044 75.3281 489.282C68.4967 477.856 63.0259 465.105 63.6103 452.01C64.9721 421.76 94.3872 418.594 119.425 423.672C133.538 426.528 146.53 432.889 159.375 439.188C180.701 449.654 205.654 454.907 224.818 469.337C231.248 474.193 236.097 480.006 243.551 483.559C255.146 489.09 268.349 491.759 280.252 496.803C290.416 501.131 301.796 508.21 301.906 518.918C302.004 529.9 290.266 536.811 279.937 541.107C272.626 544.168 265.345 546.954 258.032 549.412Z" fill="url(#paint0_linear)"/>
<path d="M144.415 159.145C194.169 87.3059 298.114 59.0775 382.815 86.8467C423.658 100.244 458.032 127.769 489.764 156.313C517.734 181.471 544.894 208.584 564.127 240.804C577.261 262.796 586.754 289.113 593.51 313.665C603.612 350.429 595.149 397.641 546.339 393.818C534.887 392.923 524.951 388.849 514.217 385.269C505.533 382.367 497.064 384.008 488.062 382.555C465.405 378.905 443.536 370.645 422.841 361.007C380.664 341.345 342.05 314.77 298.701 297.494C263.176 283.354 225.306 275.911 187.134 275.565C171.03 275.421 154.107 276.392 139.64 269.285C103.982 251.751 119.538 205.292 132.567 179.189C136.018 172.235 139.977 165.537 144.415 159.145Z" fill="url(#paint1_linear)"/>
<path d="M541.399 172.452C549.744 179.795 582.458 199.911 582.878 176.589C582.974 170.778 580.209 165.116 576.477 160.833C572.206 155.917 567.39 153.32 564.039 147.604C559.938 140.703 555.283 134.211 550.133 128.212C539.603 115.728 527.336 104.175 512.53 98.9584C502.144 95.3041 484.623 96.0756 479.819 108.921C472.819 127.621 503.486 131.282 512.89 138.184C521.814 144.718 526.934 155.869 534.036 164.754C536.281 167.556 538.745 170.133 541.399 172.452Z" fill="url(#paint2_linear)"/>
<path d="M384.929 148.376C402.576 158.553 415.88 173.69 431.995 185.92C458.824 206.28 495.391 210.673 526.079 224.92C557.369 239.456 581.098 261.863 592.021 293.988C606.131 335.454 607.871 384.655 596.569 427.095C584.121 473.811 554.194 504.683 510.219 525.095C466.269 545.495 417.465 554.807 368.722 556.445C364.018 556.607 359.322 556.678 354.606 556.673C248.682 556.493 107.364 519.216 70.3229 408.34C69.9834 407.327 69.6577 406.314 69.3309 405.287C65.506 392.936 63.2088 380.209 62.4884 367.376C59.8186 321.882 67.564 271.746 83.5907 229.233C94.3698 200.611 117.912 176.517 142.793 159.408C177.75 135.373 220.609 129.488 263.296 126.887C294.905 124.962 330.47 124.435 360.483 136.414C368.918 139.807 377.09 143.805 384.929 148.376Z" fill="url(#paint3_linear)"/>
<path d="M288.301 545.048C168.326 583.113 68.3472 546.407 33.3545 523.296L0.861328 496.106L12.109 475.714L82.0944 468.917L198.32 462.119L292.051 482.512L389.53 447.165H399.528C384.531 502.632 319.128 535.531 288.301 545.048Z" fill="#3B499A"/>
<path d="M181.704 492.874H521.482C521.482 492.874 533.378 305.674 490.091 278.281C446.809 250.894 244.386 256.614 199.522 280.007C154.658 303.405 181.704 492.874 181.704 492.874Z" fill="#3B499A"/>
<path d="M238.273 238.838C237.783 238.838 237.287 238.685 236.873 238.357C235.941 237.627 214.155 220.056 226.069 184.641C230.237 172.257 234.323 163.488 237.918 155.743C244.407 141.809 249.095 131.734 249.986 110.208C250.033 109.037 251.255 108.16 252.283 108.165C253.505 108.216 254.455 109.201 254.408 110.372C253.487 132.718 248.398 143.642 241.963 157.475C238.408 165.118 234.376 173.779 230.285 185.942C219.333 218.494 238.845 234.414 239.684 235.076C240.622 235.823 240.758 237.158 239.985 238.057C239.548 238.572 238.91 238.838 238.273 238.838Z" fill="#000C3E"/>
<path d="M358.888 27.6263C358.315 42.324 345.415 53.7857 330.077 53.2369C314.744 52.6882 302.777 40.327 303.35 25.6349C303.928 10.9373 316.823 -0.530107 332.161 0.0186545C347.494 0.573067 359.461 12.9286 358.888 27.6263Z" fill="#000C3E"/>
<path d="M235.786 228.496C235.786 228.496 243.94 244.608 277.226 250.271C310.518 255.94 336.643 244.399 362.343 253.332C388.043 262.259 425.173 250.622 432.535 240.275C439.891 229.927 438.35 115.339 418.088 96.1206C397.82 76.9084 291.643 60.8699 268.636 83.3521C245.628 105.84 221.192 215.592 235.786 228.496Z" fill="#000C3E"/>
<path d="M427.992 138.091C426.097 186.517 383.594 224.308 333.057 222.492C282.519 220.676 243.081 179.949 244.976 131.517C246.871 83.0902 289.373 45.305 339.911 47.121C390.449 48.9314 429.887 89.664 427.992 138.091Z" fill="#000C3E"/>
<path d="M374.044 211.458C374.044 211.458 379.99 279.793 374.044 287.385C368.099 294.977 330.462 289.286 320.561 287.385C310.654 285.49 306.692 211.458 312.632 211.458C318.577 211.458 372.905 196.223 374.044 211.458Z" fill="#FFCEB0"/>
<path d="M261.717 131.516C261.717 131.516 265.483 238.026 340.628 242.625C415.78 247.219 415.703 97.1532 388.509 82.8798C361.31 68.6064 247.825 71.2823 261.717 131.516Z" fill="#FFCEB0"/>
<path d="M338.876 154.315C338.876 154.315 353.229 187.099 349.533 189.272C345.843 191.444 335.033 191.054 332.122 188.644C329.211 186.234 333.008 150.649 338.876 154.315Z" fill="#EE9B68"/>
<path d="M316.371 165.288C316.182 169.022 312.87 171.896 308.973 171.715C305.082 171.534 302.077 168.36 302.266 164.626C302.455 160.898 305.767 158.018 309.664 158.199C313.555 158.38 316.56 161.554 316.371 165.288Z" fill="#41294A"/>
<path d="M376.99 162.099C376.801 165.833 373.489 168.707 369.592 168.526C365.702 168.345 362.696 165.171 362.885 161.437C363.074 157.709 366.386 154.83 370.283 155.011C374.174 155.192 377.179 158.366 376.99 162.099Z" fill="#41294A"/>
<path d="M320.888 74.7138C320.888 74.7138 293.942 87.1994 288.818 110.638C283.687 134.082 286.344 194.1 257.792 191.345C257.792 191.345 202.514 72.564 320.888 74.7138Z" fill="#000C3E"/>
<path d="M335.091 75.2245C332.647 76.9047 362.875 76.8312 380.156 96.9089C397.442 116.981 401.546 167.156 404.214 168.084C406.889 169.017 417.563 105.915 398.611 86.9577C379.666 68.0001 349 65.6806 335.091 75.2245Z" fill="#000C3E"/>
<path d="M313.679 232.911C313.679 232.911 342.915 248.842 373.273 233.952C373.273 233.952 375.634 251.835 373.273 255.959C370.911 260.083 322.83 263.031 313.366 242.704C313.366 242.704 310.945 232.029 313.679 232.911Z" fill="#EE9B68"/>
<path d="M397.735 172.362C397.735 172.362 404.932 145.699 417.478 155.187C430.03 164.679 418.677 192.542 406.272 195.071C393.868 197.599 390.881 186.109 397.735 172.362Z" fill="#FFCEB0"/>
<path d="M279.213 168.106C279.213 168.106 274.118 141.002 260.864 149.567C247.609 158.126 256.754 186.73 268.928 190.141C281.102 193.547 284.969 182.306 279.213 168.106Z" fill="#FFCEB0"/>
<path d="M367.115 138.005C367.115 138.005 380.564 131.59 388.511 141.428C395.501 150.072 379.242 142.825 373.161 143.787C367.086 144.748 359.109 144.087 367.115 138.005Z" fill="#41294A"/>
<path d="M314.264 139.246C314.264 139.246 300.792 132.876 292.88 142.743C285.926 151.41 302.155 144.106 308.237 145.045C314.318 145.99 322.294 145.3 314.264 139.246Z" fill="#41294A"/>
<path d="M308.729 150.119C297.116 150.119 287.681 158.837 287.245 169.97C287.032 175.469 289.063 180.725 292.977 184.759C296.886 188.798 302.199 191.134 307.944 191.338L308.77 191.355C320.383 191.355 329.818 182.637 330.249 171.509C330.467 166.01 328.43 160.749 324.522 156.715C320.614 152.676 315.3 150.339 309.556 150.136L308.729 150.119ZM308.77 194.184L307.832 194.167C301.302 193.935 295.256 191.276 290.811 186.688C286.365 182.094 284.051 176.12 284.293 169.857C284.789 157.207 295.522 147.29 308.729 147.29L309.668 147.307C316.197 147.539 322.243 150.198 326.689 154.786C331.129 159.38 333.449 165.354 333.201 171.622C332.711 184.272 321.977 194.184 308.77 194.184Z" fill="#FFFCF6"/>
<path d="M369.779 146.831C358.171 146.831 348.737 155.549 348.3 166.682C348.082 172.181 350.118 177.437 354.027 181.47C357.935 185.51 363.255 187.846 368.993 188.05L369.82 188.067C381.439 188.067 390.867 179.349 391.304 168.215C391.523 162.716 389.486 157.461 385.577 153.427C381.669 149.388 376.35 147.051 370.605 146.848L369.779 146.831ZM369.82 190.896L368.887 190.879C362.351 190.647 356.306 187.988 351.86 183.4C347.414 178.806 345.1 172.832 345.348 166.569C345.844 153.919 356.577 144.002 369.779 144.002L370.717 144.019C377.247 144.251 383.293 146.91 387.738 151.498C392.184 156.092 394.498 162.066 394.256 168.329C393.76 180.978 383.027 190.896 369.82 190.896Z" fill="#FFFCF6"/>
<path d="M286.49 166.625C286.307 166.625 286.124 166.591 285.947 166.523L276.996 163.14C276.241 162.852 275.869 162.031 276.164 161.307C276.465 160.577 277.327 160.227 278.083 160.509L287.033 163.898C287.789 164.181 288.161 165.007 287.859 165.731C287.635 166.286 287.08 166.625 286.49 166.625Z" fill="#FFFCF6"/>
<path d="M391.935 162.884C391.298 162.884 390.701 162.482 390.518 161.854C390.294 161.113 390.748 160.327 391.534 160.112L403.961 156.7C404.717 156.468 405.561 156.915 405.786 157.673C406.01 158.42 405.556 159.207 404.77 159.422L392.337 162.827C392.207 162.867 392.065 162.884 391.935 162.884Z" fill="#FFFCF6"/>
<path d="M330.004 69.1209C330.004 69.1209 333.393 126.854 350.001 132.092C366.609 137.337 407.44 135.9 409.412 129.586C411.384 123.267 377.749 72.4531 353.614 64.3065C311.289 50.0162 274.755 115.958 279.585 131.844C284.414 147.735 320.782 133.829 328.54 131.787C336.304 129.745 328.451 80.5317 330.004 69.1209Z" fill="#000C3E"/>
<g opacity="0.210007">
<g opacity="0.210007">
<path opacity="0.210007" d="M288.65 189.844C288.65 189.844 327.114 169.726 343.699 173.041C360.277 176.356 389.495 177.477 390.676 183.23C391.863 188.984 353.546 185.533 341.715 186.364C329.877 187.196 284.228 199.189 288.65 189.844Z" fill="#DB5C5D"/>
</g>
</g>
<path d="M310.266 177.061C309.375 177.061 308.531 176.54 308.194 175.691C307.763 174.594 308.336 173.372 309.481 172.953C312.917 171.709 313.679 170.696 313.685 170.69C314.11 169.593 315.32 169.146 316.466 169.565C317.617 169.966 318.136 171.313 317.711 172.416C317.363 173.321 316.035 175.109 311.052 176.925C310.792 177.015 310.526 177.061 310.266 177.061Z" fill="#EE9B68"/>
<path d="M368.391 175.531C367.087 175.531 365.032 175.118 361.891 173.563C360.805 173.031 360.38 171.747 360.941 170.706C361.502 169.67 362.836 169.257 363.922 169.795C367.205 171.418 368.498 171.288 368.492 171.277C369.631 170.87 370.777 171.418 371.225 172.51C371.674 173.596 370.977 174.875 369.844 175.305C369.525 175.424 369.059 175.531 368.391 175.531Z" fill="#EE9B68"/>
<path d="M331.734 171.734C330.972 171.734 330.323 171.169 330.264 170.433C330.205 169.652 330.807 168.974 331.622 168.911L346.765 167.78C347.604 167.655 348.294 168.3 348.353 169.075C348.418 169.856 347.81 170.535 346.996 170.597L331.852 171.729C331.811 171.734 331.775 171.734 331.734 171.734Z" fill="#FFFCF6"/>
<path d="M313.757 53.2744C313.415 53.2744 313.066 53.1952 312.747 53.0368C304.618 49.0201 299.777 43.4194 298.348 36.393C295.207 20.9712 309.831 4.44054 310.451 3.74469C311.254 2.85649 312.653 2.74901 313.574 3.5184C314.501 4.28213 314.613 5.61726 313.816 6.50546C313.674 6.66386 299.96 22.1932 302.693 35.5897C303.856 41.2753 307.918 45.8747 314.772 49.269C315.859 49.8065 316.29 51.085 315.723 52.126C315.333 52.8558 314.56 53.2744 313.757 53.2744Z" fill="#000C3E"/>
<path d="M345.809 58.0156C345.177 58.0156 344.545 57.7554 344.108 57.2519C343.323 56.358 343.447 55.0229 344.386 54.2705C344.551 54.1347 360.74 40.9701 360.338 27.3303C360.173 21.5429 356.949 16.3608 350.768 11.9368C349.788 11.2352 349.587 9.90578 350.319 8.96666C351.045 8.03321 352.451 7.84651 353.419 8.53671C360.746 13.781 364.565 20.0663 364.766 27.2228C365.221 42.9276 347.958 56.9351 347.226 57.5234C346.812 57.8572 346.305 58.0156 345.809 58.0156Z" fill="#000C3E"/>
<path d="M425.165 237.05C424.504 237.05 423.848 236.767 423.411 236.229C422.662 235.302 422.833 233.972 423.801 233.254C424.563 232.682 442.487 218.98 437.799 195.899C435.963 186.864 432.592 176.856 429.026 166.271C422.803 147.806 416.374 128.707 416.262 110.27C416.256 109.098 417.242 108.142 418.464 108.137H418.476C419.692 108.137 420.684 109.081 420.69 110.247C420.796 128.028 427.119 146.804 433.236 164.97C436.849 175.679 440.261 185.8 442.145 195.09C447.364 220.785 427.367 235.975 426.517 236.609C426.11 236.908 425.637 237.05 425.165 237.05Z" fill="#000C3E"/>
<path d="M432.543 140.283C432.454 140.283 432.366 140.278 432.271 140.266C431.061 140.125 430.199 139.067 430.347 137.901C433.334 114.576 428.688 95.4943 416.531 81.1926C396.948 58.1334 364.24 55.3104 363.91 55.2934C362.688 55.1916 361.784 54.1676 361.885 53.0022C361.985 51.8312 363.048 50.9825 364.276 51.0618C365.687 51.1692 399.203 54.0714 419.967 78.511C432.909 93.7405 437.88 113.903 434.739 138.422C434.603 139.491 433.647 140.283 432.543 140.283Z" fill="#000C3E"/>
<path d="M342.634 222.745C340.319 222.745 337.798 222.677 335.525 222.598C333.902 222.536 332.632 221.218 332.691 219.656C332.756 218.095 334.191 217.02 335.756 216.941C340.685 217.127 346.743 217.156 347.935 216.867C349.482 216.347 351.118 217.11 351.667 218.581C352.222 220.047 351.377 221.687 349.848 222.213C348.703 222.615 345.875 222.745 342.634 222.745Z" fill="#DB5C5D"/>
<path d="M271.561 183.515C271.349 183.515 271.13 183.486 270.918 183.418C269.743 183.079 269.088 181.897 269.442 180.777C273.474 168.098 263.839 159.68 263.739 159.596C262.83 158.821 262.747 157.474 263.562 156.597C264.37 155.72 265.781 155.652 266.685 156.427C267.175 156.84 278.528 166.769 273.681 182.01C273.392 182.926 272.512 183.515 271.561 183.515Z" fill="#EE9B68"/>
<path d="M402.842 189.729C402.777 189.729 402.718 189.729 402.647 189.724C401.431 189.616 400.527 188.592 400.633 187.421C402.098 171.519 410.334 163.135 410.682 162.784C411.526 161.946 412.925 161.924 413.805 162.727C414.691 163.531 414.72 164.871 413.882 165.72C413.805 165.799 406.366 173.465 405.05 187.795C404.943 188.904 403.975 189.729 402.842 189.729Z" fill="#EE9B68"/>
<path d="M279.876 169.862C279.876 169.862 299.117 185.261 300.628 187.603C302.14 189.946 301.538 219.924 298.515 219.556C295.492 219.194 277.16 190.636 275.153 190.692C273.146 190.749 274.037 193.832 274.037 193.832C274.037 193.832 289.753 218.707 299.194 225.722C308.634 232.743 367.567 233.066 379.57 226.565C391.579 220.059 401.751 195.716 400.836 195.213C399.915 194.703 397.63 192.718 397.246 193.555C396.922 194.268 380.627 222.09 378.59 221.219C376.547 220.348 378.814 189.459 378.59 186.54C378.366 183.615 402.188 161.472 402.188 161.472L403.906 158.695L401.497 158.061C401.497 158.061 378.141 180.402 372.29 180.272C366.44 180.141 305.098 184.39 302.258 183.406C299.418 182.421 280.437 162.711 278.07 163.52C275.696 164.324 279.215 168.103 279.876 169.862Z" fill="#FFFCF6"/>
<path d="M272.188 284.301C272.188 284.301 322.46 341.893 361.231 326.482C399.996 311.072 436.317 269.298 416.829 263.754C397.34 258.215 241.712 261.129 272.188 284.301Z" fill="#FFCEB0"/>
<path d="M492.924 250.18C492.924 250.18 486.111 199.343 483.827 196.051C481.542 192.758 464.261 217.758 468.925 231.929C473.595 246.101 409.012 246.452 414.048 267.152C419.084 287.846 415.996 315.816 442.782 317.247C469.563 318.684 500.127 311.72 506.391 302.188C512.661 292.661 492.924 250.18 492.924 250.18Z" fill="url(#paint4_linear)"/>
<path d="M533.181 295.958C533.181 295.958 607.863 379.552 593.291 434.533C578.719 489.513 507.677 498.413 493.106 491.294C478.534 484.176 483.997 248.326 533.181 295.958Z" fill="#202B6D"/>
<path d="M187.63 285.5C187.63 285.5 97.0347 378.744 102.915 461.974C107.768 530.688 217.835 520.233 231.379 513.744C244.928 507.255 233.345 242.075 187.63 285.5Z" fill="#202B6D"/>
<path d="M498.097 262.265C498.097 262.265 589.035 434.626 564.055 464.135C539.076 493.643 494.672 497.015 476.955 472.542C466.605 458.257 481.058 332.037 465.779 316.564C450.499 301.091 493.25 254.147 498.097 262.265Z" fill="#FFCEB0"/>
<path d="M358.186 439.96C358.186 439.96 420.018 462.312 429.907 481.15C439.796 499.989 403.103 477.015 394.465 473.598C385.834 470.187 416.953 493.936 417.898 499.429C418.837 504.917 383.271 483.238 383.271 483.238C383.271 483.238 407.979 508.283 405.547 513.505C403.115 518.732 374.858 497.234 374.858 497.234C374.858 497.234 389.518 519.479 384.712 522.635C379.906 525.792 347.995 488.901 321.688 490.411C295.38 491.928 195.757 547.301 157.859 491.667C119.956 436.033 151.938 409.552 225.329 410.327C298.721 411.107 337.805 431.768 358.186 439.96Z" fill="#FFCEB0"/>
<path d="M339.664 9.18574C339.003 9.18574 338.286 9.25929 337.508 9.40637C335.613 9.77087 334.385 10.6534 333.648 12.1849C330.361 19.0018 337.292 35.2383 342.243 44.8306C345.303 34.1896 348.97 16.4023 343.788 10.7972C342.791 9.71971 341.433 9.18574 339.664 9.18574ZM342.821 52.8369C341.996 52.8369 341.226 52.4117 340.819 51.7082C339.067 48.6995 323.878 21.9786 329.483 10.3432C330.832 7.54547 333.297 5.72933 336.611 5.09625C342.257 4.01872 345.5 6.0171 347.222 7.8812C356.225 17.6205 346.177 47.9065 345.003 51.3277C344.716 52.1559 343.948 52.7442 343.041 52.8273C342.967 52.8337 342.894 52.8369 342.821 52.8369Z" fill="#FFD310"/>
<path d="M370.588 19.9983C370.371 19.9983 370.15 20.0111 369.93 20.0431C362.179 21.0311 352.812 36.7848 347.861 46.7512C358.155 42.5977 374.482 34.6649 376.651 27.4515C377.138 25.8272 376.811 24.3916 375.626 22.9271C374.031 20.9607 372.379 19.9983 370.588 19.9983ZM343.459 52.9766C342.842 52.9766 342.238 52.74 341.801 52.2987C341.17 51.6656 340.99 50.7384 341.341 49.9326C342.789 46.6105 355.862 17.4052 369.323 15.685C371.902 15.3556 375.716 15.8736 379.247 20.2285C381.322 22.7864 381.949 25.7057 381.058 28.6665C377.355 40.9798 347.62 51.6656 344.244 52.8455C343.987 52.935 343.723 52.9766 343.459 52.9766Z" fill="#FFD310"/>
<path d="M147.08 45.2119C156.865 52.0757 179.23 57.4143 196.703 45.2119" stroke="#FFD310" stroke-width="3.87"/>
<defs>
<linearGradient id="paint0_linear" x1="80.4105" y1="426.725" x2="168.848" y2="586.541" gradientUnits="userSpaceOnUse">
<stop stop-color="#FFC5C6"/>
<stop offset="1" stop-color="#FFF6F6"/>
</linearGradient>
<linearGradient id="paint1_linear" x1="600.034" y1="253.922" x2="230.282" y2="8.66437" gradientUnits="userSpaceOnUse">
<stop stop-color="white"/>
<stop offset="1" stop-color="#FFD7D7"/>
</linearGradient>
<linearGradient id="paint2_linear" x1="583.719" y1="176.186" x2="461.475" y2="123.312" gradientUnits="userSpaceOnUse">
<stop stop-color="#FFBEBF"/>
<stop offset="1" stop-color="#FFFBFC"/>
</linearGradient>
<linearGradient id="paint3_linear" x1="615.921" y1="431.796" x2="84.7506" y2="218.113" gradientUnits="userSpaceOnUse">
<stop stop-color="#FFD7D7"/>
<stop offset="1" stop-color="#FFF8F8"/>
</linearGradient>
<linearGradient id="paint4_linear" x1="507.324" y1="328.978" x2="464.152" y2="194.644" gradientUnits="userSpaceOnUse">
<stop stop-color="#FFC4A0"/>
<stop offset="1" stop-color="#FFCEB0"/>
</linearGradient>
</defs>
</svg>
